<?xml version="1.0" encoding="UTF-8" standalone="no"?>
<svg
   xmlns:dc="http://purl.org/dc/elements/1.1/"
   xmlns:cc="http://creativecommons.org/ns#"
   xmlns:rdf="http://www.w3.org/1999/02/22-rdf-syntax-ns#"
   xmlns:svg="http://www.w3.org/2000/svg"
   xmlns="http://www.w3.org/2000/svg"
   xmlns:sodipodi="http://sodipodi.sourceforge.net/DTD/sodipodi-0.dtd"
   xmlns:inkscape="http://www.inkscape.org/namespaces/inkscape"
   inkscape:version="1.0 (4035a4f, 2020-05-01)"
   sodipodi:docname="Bi1.svg"
   id="svg253"
   version="1.2"
   viewBox="0 0 92 45"
   height="45pt"
   width="92pt">
  <metadata
     id="metadata259">
    <rdf:RDF>
      <cc:Work
         rdf:about="">
        <dc:format>image/svg+xml</dc:format>
        <dc:type
           rdf:resource="http://purl.org/dc/dcmitype/StillImage" />
        <dc:title />
      </cc:Work>
    </rdf:RDF>
  </metadata>
  <defs
     id="defs257" />
  <sodipodi:namedview
     inkscape:current-layer="surface3103"
     inkscape:window-maximized="1"
     inkscape:window-y="23"
     inkscape:window-x="0"
     inkscape:cy="78.74609"
     inkscape:cx="142.28946"
     inkscape:zoom="2.7589416"
     showgrid="false"
     id="namedview255"
     inkscape:window-height="855"
     inkscape:window-width="1434"
     inkscape:pageshadow="2"
     inkscape:pageopacity="0"
     guidetolerance="10"
     gridtolerance="10"
     objecttolerance="10"
     borderopacity="1"
     bordercolor="#666666"
     pagecolor="#ffffff"
     inkscape:document-rotation="0" />
  <g
     id="surface3103">
    <path
       id="path10"
       d="M 3.7500001,17.960563 H 90 m -86.2499999,5 H 90 m -86.2499999,5 H 90 M 3.7500001,32.964469 H 90 m -86.2499999,5 H 90"
       style="fill:none;stroke:#000000;stroke-width:0.348625;stroke-linecap:butt;stroke-linejoin:bevel;stroke-miterlimit:10;stroke-opacity:1" />
    <path
       id="path32"
       d="M 90,17.960563 V 37.964469"
       style="fill:none;stroke:#000000;stroke-width:0.80005;stroke-linecap:butt;stroke-linejoin:bevel;stroke-miterlimit:10;stroke-opacity:1" />
    <path
       id="path116"
       d="m 29.28125,28.214469 c -0.46875,0 -0.808594,0.164063 -1.015625,0.488282 -0.234375,0.3125 -0.351562,0.738281 -0.351562,1.269531 0,0.613281 0.160156,1.140625 0.488281,1.582031 0.324219,0.429688 0.683593,0.730469 1.074219,0.902344 0.351562,0.167969 0.722656,0.25 1.113281,0.25 0.453125,0 0.800781,-0.160156 1.035156,-0.488281 0.21875,-0.324219 0.332031,-0.746094 0.332031,-1.269531 0,-0.609376 -0.164062,-1.136719 -0.488281,-1.582032 -0.328125,-0.414062 -0.679687,-0.714844 -1.054687,-0.898437 -0.378907,-0.167969 -0.757813,-0.253907 -1.132813,-0.253907 z m 0.664063,-0.507812 c 1.40625,0 2.578124,0.273438 3.515624,0.820312 0.949219,0.546876 1.425782,1.191407 1.425782,1.933594 0,0.796875 -0.488282,1.445313 -1.464844,1.953125 -0.976562,0.535157 -2.136719,0.800781 -3.476562,0.800781 -1.382813,0 -2.554688,-0.269531 -3.515626,-0.820312 -0.964843,-0.546875 -1.445312,-1.191406 -1.445312,-1.933594 0,-0.792968 0.492188,-1.445312 1.484375,-1.953125 0.976563,-0.53125 2.132813,-0.800781 3.476563,-0.800781 z m 0,0"
       style="fill:#000000;fill-opacity:1;fill-rule:nonzero;stroke:none" />
    <path
       id="path180"
       d="m 12.726563,18.214469 c 0.390624,0 0.722656,-0.04297 0.996093,-0.136718 0.273438,-0.08984 0.449219,-0.136719 0.527344,-0.136719 0.08984,0 0.160156,0.02734 0.214844,0.07813 0.03906,0.03906 0.0625,0.08594 0.07813,0.136719 0,0.02734 -0.01563,0.06641 -0.03906,0.117187 l -5.6875001,6.601563 h 3.3398441 v -2.617188 c 0,-0.167969 0.04687,-0.3125 0.136719,-0.429687 0.15625,-0.128906 0.289062,-0.207032 0.390625,-0.234375 0.171875,-0.07813 0.378906,-0.257813 0.628906,-0.546875 0.207031,-0.234375 0.453125,-0.644532 0.742187,-1.230469 0.03906,-0.07813 0.09766,-0.117187 0.175782,-0.117187 0.15625,0 0.246094,0.09375 0.273437,0.273437 v 4.902344 h 1.425781 c 0.179688,0 0.285157,0.09766 0.3125,0.292969 0,0.195312 -0.105468,0.292968 -0.3125,0.292968 h -1.425781 v 0.15625 c 0,0.523438 0.128907,0.964844 0.390625,1.328125 0.296875,0.367188 0.648438,0.546875 1.054688,0.546875 0.15625,0 0.234375,0.07813 0.234375,0.234375 0,0.15625 -0.07813,0.234375 -0.234375,0.234375 -0.273438,0 -0.71875,-0.03906 -1.328125,-0.117187 -0.5625,-0.08984 -0.996094,-0.136719 -1.308594,-0.136719 -0.328125,0 -0.765625,0.04687 -1.3125,0.136719 -0.585937,0.07813 -1.019531,0.117187 -1.308594,0.117187 -0.15625,0 -0.234375,-0.07813 -0.234375,-0.234375 0,-0.15625 0.07813,-0.234375 0.234375,-0.234375 0.40625,0 0.757813,-0.179687 1.054688,-0.546875 0.273437,-0.363281 0.410156,-0.804687 0.410156,-1.328125 v -0.15625 H 8.8164139 c -0.21875,0 -0.3749998,-0.05078 -0.4687498,-0.15625 -0.101562,-0.07813 -0.15625,-0.179687 -0.15625,-0.3125 0,-0.03906 0.097657,-0.175781 0.292969,-0.410156 0.2226558,-0.257812 0.4570308,-0.578125 0.7031248,-0.957031 0.289063,-0.441407 0.5625,-0.898438 0.8203131,-1.367188 0.289062,-0.53125 0.515624,-1.144531 0.683593,-1.835937 0.195313,-0.703125 0.292969,-1.417969 0.292969,-2.148438 0,-0.207031 0.09375,-0.3125 0.273438,-0.3125 0.03906,0 0.125,0.01953 0.253906,0.05859 0.03906,0.01563 0.121094,0.03516 0.246094,0.05859 0.125,0.02734 0.222656,0.05469 0.300781,0.07813 0.234375,0.03906 0.457031,0.05859 0.667969,0.05859 z m 0,0"
       style="fill:#000000;fill-opacity:1;fill-rule:nonzero;stroke:none" />
    <path
       id="path182"
       d="m 12.726563,28.214469 c 0.390624,0 0.722656,-0.04297 0.996093,-0.136718 0.273438,-0.08984 0.449219,-0.136719 0.527344,-0.136719 0.08984,0 0.160156,0.02734 0.214844,0.07813 0.03906,0.03906 0.0625,0.08594 0.07813,0.136719 0,0.02734 -0.01563,0.06641 -0.03906,0.117187 l -5.6875001,6.605469 h 3.3398441 v -2.621094 c 0,-0.167969 0.04687,-0.3125 0.136719,-0.429687 0.15625,-0.128906 0.289062,-0.207032 0.390625,-0.234375 0.171875,-0.07813 0.378906,-0.257813 0.628906,-0.546875 0.207031,-0.234375 0.453125,-0.644532 0.742187,-1.230469 0.03906,-0.07813 0.09766,-0.117187 0.175782,-0.117187 0.15625,0 0.246094,0.09375 0.273437,0.273437 v 4.90625 h 1.425781 c 0.179688,0 0.285157,0.09766 0.3125,0.292969 0,0.195312 -0.105468,0.292968 -0.3125,0.292968 h -1.425781 v 0.15625 c 0,0.519532 0.128907,0.960938 0.390625,1.328126 0.296875,0.363281 0.648438,0.546874 1.054688,0.546874 0.15625,0 0.234375,0.07813 0.234375,0.234376 0,0.15625 -0.07813,0.234374 -0.234375,0.234374 -0.273438,0 -0.71875,-0.03906 -1.328125,-0.117187 -0.5625,-0.09375 -0.996094,-0.136719 -1.308594,-0.136719 -0.328125,0 -0.765625,0.04297 -1.3125,0.136719 -0.585937,0.07813 -1.019531,0.117187 -1.308594,0.117187 -0.15625,0 -0.234375,-0.07812 -0.234375,-0.234374 0,-0.15625 0.07813,-0.234376 0.234375,-0.234376 0.40625,0 0.757813,-0.183593 1.054688,-0.546874 0.273437,-0.367188 0.410156,-0.808594 0.410156,-1.328126 v -0.15625 H 8.8164139 c -0.21875,0 -0.3749998,-0.05469 -0.4687498,-0.15625 -0.101562,-0.07812 -0.15625,-0.183593 -0.15625,-0.3125 0,-0.03906 0.097657,-0.175781 0.292969,-0.410156 0.2226558,-0.261718 0.4570308,-0.582031 0.7031248,-0.957031 0.289063,-0.445313 0.5625,-0.902344 0.8203131,-1.371094 0.289062,-0.53125 0.515624,-1.144531 0.683593,-1.835937 0.195313,-0.703125 0.292969,-1.417969 0.292969,-2.148438 0,-0.207031 0.09375,-0.3125 0.273438,-0.3125 0.03906,0 0.125,0.01953 0.253906,0.05859 0.03906,0.01563 0.121094,0.03516 0.246094,0.05859 0.125,0.02734 0.222656,0.05469 0.300781,0.07813 0.234375,0.03906 0.457031,0.05859 0.667969,0.05859 z m 0,0"
       style="fill:#000000;fill-opacity:1;fill-rule:nonzero;stroke:none" />
  </g>
</svg>
