<?xml version="1.0" encoding="UTF-8" standalone="no"?>
<svg
   xmlns:dc="http://purl.org/dc/elements/1.1/"
   xmlns:cc="http://creativecommons.org/ns#"
   xmlns:rdf="http://www.w3.org/1999/02/22-rdf-syntax-ns#"
   xmlns:svg="http://www.w3.org/2000/svg"
   xmlns="http://www.w3.org/2000/svg"
   xmlns:sodipodi="http://sodipodi.sourceforge.net/DTD/sodipodi-0.dtd"
   xmlns:inkscape="http://www.inkscape.org/namespaces/inkscape"
   width="92pt"
   height="45pt"
   viewBox="0 0 92 45"
   version="1.2"
   id="svg253"
   sodipodi:docname="Bi10.svg"
   inkscape:version="1.0 (4035a4f, 2020-05-01)">
  <metadata
     id="metadata259">
    <rdf:RDF>
      <cc:Work
         rdf:about="">
        <dc:format>image/svg+xml</dc:format>
        <dc:type
           rdf:resource="http://purl.org/dc/dcmitype/StillImage" />
        <dc:title />
      </cc:Work>
    </rdf:RDF>
  </metadata>
  <defs
     id="defs257" />
  <sodipodi:namedview
     inkscape:document-rotation="0"
     pagecolor="#ffffff"
     bordercolor="#666666"
     borderopacity="1"
     objecttolerance="10"
     gridtolerance="10"
     guidetolerance="10"
     inkscape:pageopacity="0"
     inkscape:pageshadow="2"
     inkscape:window-width="1434"
     inkscape:window-height="855"
     id="namedview255"
     showgrid="false"
     inkscape:zoom="2.1331898"
     inkscape:cx="180.86392"
     inkscape:cy="116.77765"
     inkscape:window-x="0"
     inkscape:window-y="23"
     inkscape:window-maximized="1"
     inkscape:current-layer="surface3103" />
  <g
     id="surface3103">
    <path
       style="fill:none;stroke:#000000;stroke-width:0.349073;stroke-linecap:butt;stroke-linejoin:bevel;stroke-miterlimit:10;stroke-opacity:1"
       d="M 3.7500001,17.55571 H 90 M 3.7500001,22.56743 H 90 M 3.7500001,27.58305 H 90 M 3.7500001,32.59477 H 90 M 3.7500001,37.60649 H 90"
       id="path28" />
    <path
       style="fill:none;stroke:#000000;stroke-width:0.80005;stroke-linecap:butt;stroke-linejoin:bevel;stroke-miterlimit:10;stroke-opacity:1"
       d="m 90,17.55571 v 20"
       id="path50" />
    <path
       style="fill:none;stroke:#000000;stroke-width:0.650041;stroke-linecap:round;stroke-linejoin:bevel;stroke-miterlimit:10;stroke-opacity:1"
       d="M 31.242187,29.1143 V 13.80571"
       id="path98" />
    <path
       style="fill:none;stroke:#000000;stroke-width:0.650041;stroke-linecap:round;stroke-linejoin:bevel;stroke-miterlimit:10;stroke-opacity:1"
       d="M 63.058594,29.1143 V 13.80571"
       id="path102" />
    <path
       style="fill:none;stroke:#000000;stroke-width:0.650041;stroke-linecap:round;stroke-linejoin:bevel;stroke-miterlimit:10;stroke-opacity:1"
       d="M 52.453125,29.1143 V 13.80571"
       id="path104" />
    <path
       style="fill:none;stroke:#000000;stroke-width:0.650041;stroke-linecap:round;stroke-linejoin:bevel;stroke-miterlimit:10;stroke-opacity:1"
       d="M 41.847656,29.1143 V 13.80571"
       id="path106" />
    <path
       style="fill:none;stroke:#000000;stroke-width:0.650041;stroke-linecap:round;stroke-linejoin:bevel;stroke-miterlimit:10;stroke-opacity:1"
       d="M 84.273437,29.1143 V 13.80571"
       id="path108" />
    <path
       style="fill:none;stroke:#000000;stroke-width:0.650041;stroke-linecap:round;stroke-linejoin:bevel;stroke-miterlimit:10;stroke-opacity:1"
       d="M 73.667969,29.1143 V 13.80571"
       id="path110" />
    <path
       style="fill:#000000;fill-opacity:1;fill-rule:nonzero;stroke:none"
       d="m 29.378906,27.3018 c 0.625,0 1.152344,0.16016 1.582031,0.48829 0.402344,0.35156 0.605469,0.79296 0.605469,1.32812 0,0.89844 -0.464843,1.73828 -1.386719,2.51953 -0.9375,0.78125 -1.941406,1.17188 -3.007812,1.17188 -0.625,0 -1.152344,-0.16407 -1.582031,-0.48828 -0.40625,-0.35157 -0.605469,-0.79688 -0.605469,-1.32813 0,-0.89844 0.46875,-1.73828 1.40625,-2.51953 0.910156,-0.78125 1.90625,-1.17188 2.988281,-1.17188 z m 0,0"
       id="path162" />
    <path
       style="fill:#000000;fill-opacity:1;fill-rule:nonzero;stroke:none"
       d="m 71.804687,27.3018 c 0.625,0 1.152344,0.16016 1.582032,0.48829 0.402344,0.35156 0.605468,0.79296 0.605468,1.32812 0,0.89844 -0.464843,1.73828 -1.386718,2.51953 -0.9375,0.78125 -1.941406,1.17188 -3.007813,1.17188 -0.625,0 -1.152343,-0.16407 -1.582031,-0.48828 -0.40625,-0.35157 -0.605469,-0.79688 -0.605469,-1.32813 0,-0.89844 0.46875,-1.73828 1.40625,-2.51953 0.910157,-0.78125 1.90625,-1.17188 2.988281,-1.17188 z m 0,0"
       id="path164" />
    <path
       style="fill:#000000;fill-opacity:1;fill-rule:nonzero;stroke:none"
       d="m 61.195313,27.3018 c 0.625,0 1.152343,0.16016 1.582031,0.48829 0.40625,0.35156 0.605469,0.79296 0.605469,1.32812 0,0.89844 -0.460938,1.73828 -1.386719,2.51953 -0.9375,0.78125 -1.9375,1.17188 -3.007813,1.17188 -0.625,0 -1.152344,-0.16407 -1.582031,-0.48828 -0.402344,-0.35157 -0.605469,-0.79688 -0.605469,-1.32813 0,-0.89844 0.46875,-1.73828 1.40625,-2.51953 0.914063,-0.78125 1.910156,-1.17188 2.988282,-1.17188 z m 0,0"
       id="path166" />
    <path
       style="fill:#000000;fill-opacity:1;fill-rule:nonzero;stroke:none"
       d="m 50.589844,27.3018 c 0.625,0 1.152343,0.16016 1.582031,0.48829 0.40625,0.35156 0.605469,0.79296 0.605469,1.32812 0,0.89844 -0.460938,1.73828 -1.386719,2.51953 -0.9375,0.78125 -1.9375,1.17188 -3.007812,1.17188 -0.625,0 -1.152344,-0.16407 -1.582032,-0.48828 -0.402344,-0.35157 -0.605468,-0.79688 -0.605468,-1.32813 0,-0.89844 0.46875,-1.73828 1.40625,-2.51953 0.914062,-0.78125 1.910156,-1.17188 2.988281,-1.17188 z m 0,0"
       id="path168" />
    <path
       style="fill:#000000;fill-opacity:1;fill-rule:nonzero;stroke:none"
       d="m 39.984375,27.3018 c 0.625,0 1.152344,0.16016 1.582031,0.48829 0.402344,0.35156 0.605469,0.79296 0.605469,1.32812 0,0.89844 -0.460938,1.73828 -1.386719,2.51953 -0.9375,0.78125 -1.941406,1.17188 -3.007812,1.17188 -0.625,0 -1.152344,-0.16407 -1.582031,-0.48828 -0.402344,-0.35157 -0.605469,-0.79688 -0.605469,-1.32813 0,-0.89844 0.46875,-1.73828 1.40625,-2.51953 0.910156,-0.78125 1.90625,-1.17188 2.988281,-1.17188 z m 0,0"
       id="path170" />
    <path
       style="fill:#000000;fill-opacity:1;fill-rule:nonzero;stroke:none"
       d="m 82.410156,27.3018 c 0.625,0 1.152344,0.16016 1.582031,0.48829 0.402344,0.35156 0.605469,0.79296 0.605469,1.32812 0,0.89844 -0.460937,1.73828 -1.386719,2.51953 -0.9375,0.78125 -1.941406,1.17188 -3.007812,1.17188 -0.625,0 -1.152344,-0.16407 -1.582031,-0.48828 -0.40625,-0.35157 -0.605469,-0.79688 -0.605469,-1.32813 0,-0.89844 0.46875,-1.73828 1.40625,-2.51953 0.910156,-0.78125 1.90625,-1.17188 2.988281,-1.17188 z m 0,0"
       id="path172" />
    <path
       style="fill:#000000;fill-opacity:1;fill-rule:nonzero;stroke:none"
       d="m 12.726563,17.80962 c 0.390624,0 0.722656,-0.0469 0.996093,-0.13672 0.273438,-0.0937 0.449219,-0.13672 0.527344,-0.13672 0.08984,0 0.160156,0.0234 0.214844,0.0781 0.03906,0.0391 0.0625,0.082 0.07813,0.13672 0,0.0234 -0.01563,0.0625 -0.03906,0.11719 L 8.8164141,24.46975 H 12.15625 v -2.61718 c 0,-0.17188 0.04687,-0.3125 0.136719,-0.42969 0.15625,-0.13281 0.289062,-0.21094 0.390625,-0.23438 0.171875,-0.0781 0.378906,-0.26172 0.628906,-0.54687 0.207031,-0.23438 0.453125,-0.64453 0.742187,-1.23047 0.03906,-0.0781 0.09766,-0.11719 0.175782,-0.11719 0.15625,0 0.246094,0.0899 0.273437,0.27344 v 4.90234 h 1.425781 c 0.179688,0 0.285157,0.0977 0.3125,0.29297 0,0.19531 -0.105468,0.29297 -0.3125,0.29297 h -1.425781 v 0.15625 c 0,0.51953 0.128907,0.96094 0.390625,1.32813 0.296875,0.36328 0.648438,0.54687 1.054688,0.54687 0.15625,0 0.234375,0.0781 0.234375,0.23438 0,0.15625 -0.07813,0.23437 -0.234375,0.23437 -0.273438,0 -0.71875,-0.0391 -1.328125,-0.11719 -0.5625,-0.0937 -0.996094,-0.13672 -1.308594,-0.13672 -0.328125,0 -0.765625,0.043 -1.3125,0.13672 -0.585937,0.0781 -1.019531,0.11719 -1.308594,0.11719 -0.15625,0 -0.234375,-0.0781 -0.234375,-0.23437 0,-0.15625 0.07813,-0.23438 0.234375,-0.23438 0.40625,0 0.757813,-0.18359 1.054688,-0.54687 0.273437,-0.36719 0.410156,-0.8086 0.410156,-1.32813 V 25.05569 H 8.8164061 c -0.21875,0 -0.375,-0.0547 -0.46875,-0.15625 -0.101562,-0.0781 -0.15625,-0.18359 -0.15625,-0.3125 0,-0.0391 0.097657,-0.17578 0.292969,-0.41016 0.222656,-0.26171 0.457031,-0.58203 0.703125,-0.95703 0.289063,-0.44531 0.5625,-0.89843 0.8203129,-1.36718 0.289062,-0.53516 0.515624,-1.14844 0.683593,-1.83594 0.195313,-0.70313 0.292969,-1.42188 0.292969,-2.14844 0,-0.21094 0.09375,-0.3125 0.273438,-0.3125 0.03906,0 0.125,0.0195 0.253906,0.0586 0.03906,0.0117 0.121094,0.0312 0.246094,0.0586 0.125,0.0234 0.222656,0.0508 0.300781,0.0781 0.234375,0.0391 0.457031,0.0586 0.667969,0.0586 z m 0,0"
       id="path216" />
    <path
       style="fill:#000000;fill-opacity:1;fill-rule:nonzero;stroke:none"
       d="m 12.726563,27.80962 c 0.390624,0 0.722656,-0.0469 0.996093,-0.13672 0.273438,-0.0937 0.449219,-0.13672 0.527344,-0.13672 0.08984,0 0.160156,0.0234 0.214844,0.0781 0.03906,0.0391 0.0625,0.082 0.07813,0.13672 0,0.0234 -0.01563,0.0625 -0.03906,0.11719 L 8.8164141,34.46975 H 12.15625 v -2.61718 c 0,-0.17188 0.04687,-0.3125 0.136719,-0.42969 0.15625,-0.13281 0.289062,-0.21094 0.390625,-0.23438 0.171875,-0.0781 0.378906,-0.26172 0.628906,-0.54687 0.207031,-0.23438 0.453125,-0.64453 0.742187,-1.23047 0.03906,-0.0781 0.09766,-0.11719 0.175782,-0.11719 0.15625,0 0.246094,0.0899 0.273437,0.27344 v 4.90234 h 1.425781 c 0.179688,0 0.285157,0.0977 0.3125,0.29297 0,0.19531 -0.105468,0.29297 -0.3125,0.29297 h -1.425781 v 0.15625 c 0,0.51953 0.128907,0.96484 0.390625,1.32813 0.296875,0.36328 0.648438,0.54687 1.054688,0.54687 0.15625,0 0.234375,0.0781 0.234375,0.23438 0,0.15625 -0.07813,0.23437 -0.234375,0.23437 -0.273438,0 -0.71875,-0.0391 -1.328125,-0.11719 -0.5625,-0.0898 -0.996094,-0.13672 -1.308594,-0.13672 -0.328125,0 -0.765625,0.0469 -1.3125,0.13672 -0.585937,0.0781 -1.019531,0.11719 -1.308594,0.11719 -0.15625,0 -0.234375,-0.0781 -0.234375,-0.23437 0,-0.15625 0.07813,-0.23438 0.234375,-0.23438 0.40625,0 0.757813,-0.18359 1.054688,-0.54687 0.273437,-0.36329 0.410156,-0.8086 0.410156,-1.32813 V 35.05569 H 8.8164061 c -0.21875,0 -0.375,-0.0508 -0.46875,-0.15625 -0.101562,-0.0781 -0.15625,-0.18359 -0.15625,-0.3125 0,-0.0391 0.097657,-0.17578 0.292969,-0.41016 0.222656,-0.26171 0.457031,-0.58203 0.703125,-0.95703 0.289063,-0.44531 0.5625,-0.89843 0.8203129,-1.36718 0.289062,-0.53516 0.515624,-1.14844 0.683593,-1.83594 0.195313,-0.70313 0.292969,-1.42188 0.292969,-2.14844 0,-0.21094 0.09375,-0.3125 0.273438,-0.3125 0.03906,0 0.125,0.0195 0.253906,0.0586 0.03906,0.0117 0.121094,0.0312 0.246094,0.0586 0.125,0.0234 0.222656,0.0508 0.300781,0.0781 0.234375,0.0391 0.457031,0.0586 0.667969,0.0586 z m 0,0"
       id="path218" />
    <path
       style="fill:#000000;fill-opacity:1;fill-rule:nonzero;stroke:none"
       d="m 54.941406,6.95805 c 1.59375,-0.25781 2.390625,-0.8125 2.390625,-1.66015 0,-0.27344 -0.08203,-0.49219 -0.246094,-0.66016 -0.164062,-0.16797 -0.378906,-0.25 -0.644531,-0.25 -0.40625,0 -0.78125,0.22266 -1.121093,0.67188 l -0.160157,-0.0508 c 0.167969,-0.32032 0.394531,-0.57422 0.6875,-0.76172 0.289063,-0.1836 0.605469,-0.27735 0.953125,-0.27735 0.398438,0 0.734375,0.11719 1,0.35938 0.265625,0.23828 0.398438,0.54297 0.398438,0.91015 0,0.33985 -0.105469,0.61329 -0.324219,0.82032 -0.214844,0.20703 -0.628906,0.42578 -1.234375,0.66015 v 0.0274 c 0.640625,0.29297 0.960938,0.79297 0.960938,1.49218 0,0.69141 -0.257813,1.29297 -0.769532,1.80079 -0.515625,0.5039 -1.1875,0.75781 -2.019531,0.75781 -0.75,0 -1.121094,-0.19531 -1.121094,-0.58985 0,-0.25781 0.144531,-0.39062 0.4375,-0.39062 0.167969,0 0.390625,0.10156 0.671875,0.30078 0.28125,0.19922 0.511719,0.30078 0.691406,0.30078 0.359376,0 0.667969,-0.15234 0.921876,-0.45703 0.257812,-0.30078 0.386718,-0.69531 0.386718,-1.18359 0,-0.625 -0.15625,-1.0586 -0.46875,-1.30078 C 56.015625,7.23933 55.554687,7.11824 54.941406,7.11824 Z m 0,0"
       id="path236" />
    <path
       style="fill:none;stroke:#000000;stroke-width:0.500031;stroke-linecap:square;stroke-linejoin:bevel;stroke-miterlimit:10;stroke-opacity:1"
       d="m 24.984375,12.22759 v -5 h 26.054688"
       id="path238" />
    <path
       style="fill:none;stroke:#000000;stroke-width:0.500031;stroke-linecap:square;stroke-linejoin:bevel;stroke-miterlimit:10;stroke-opacity:1"
       d="m 61.039063,7.22759 h 26.058593 v 5"
       id="path240" />
  </g>
</svg>
