<?xml version="1.0" encoding="UTF-8" standalone="no"?>
<svg
   xmlns:dc="http://purl.org/dc/elements/1.1/"
   xmlns:cc="http://creativecommons.org/ns#"
   xmlns:rdf="http://www.w3.org/1999/02/22-rdf-syntax-ns#"
   xmlns:svg="http://www.w3.org/2000/svg"
   xmlns="http://www.w3.org/2000/svg"
   xmlns:sodipodi="http://sodipodi.sourceforge.net/DTD/sodipodi-0.dtd"
   xmlns:inkscape="http://www.inkscape.org/namespaces/inkscape"
   width="92pt"
   height="45pt"
   viewBox="0 0 92 45"
   version="1.2"
   id="svg253"
   sodipodi:docname="Bi4.svg"
   inkscape:version="1.0 (4035a4f, 2020-05-01)">
  <metadata
     id="metadata259">
    <rdf:RDF>
      <cc:Work
         rdf:about="">
        <dc:format>image/svg+xml</dc:format>
        <dc:type
           rdf:resource="http://purl.org/dc/dcmitype/StillImage" />
        <dc:title></dc:title>
      </cc:Work>
    </rdf:RDF>
  </metadata>
  <defs
     id="defs257" />
  <sodipodi:namedview
     inkscape:document-rotation="0"
     pagecolor="#ffffff"
     bordercolor="#666666"
     borderopacity="1"
     objecttolerance="10"
     gridtolerance="10"
     guidetolerance="10"
     inkscape:pageopacity="0"
     inkscape:pageshadow="2"
     inkscape:window-width="1434"
     inkscape:window-height="855"
     id="namedview255"
     showgrid="false"
     inkscape:zoom="1.3202153"
     inkscape:cx="155.19186"
     inkscape:cy="105.86398"
     inkscape:window-x="0"
     inkscape:window-y="23"
     inkscape:window-maximized="1"
     inkscape:current-layer="surface3103" />
  <g
     id="surface3103">
    <path
       style="fill:none;stroke:#000000;stroke-width:0.348612;stroke-linecap:butt;stroke-linejoin:bevel;stroke-miterlimit:10;stroke-opacity:1"
       d="M 3.7500001,17.960521 H 90 m -86.2499999,5 H 90 m -86.2499999,5 H 90 m -86.2499999,5 H 90 M 3.7500001,37.956611 H 90"
       id="path16" />
    <path
       style="fill:none;stroke:#000000;stroke-width:0.80005;stroke-linecap:butt;stroke-linejoin:bevel;stroke-miterlimit:10;stroke-opacity:1"
       d="m 90,17.960521 v 20"
       id="path38" />
    <path
       style="fill:none;stroke:#000000;stroke-width:0.650041;stroke-linecap:round;stroke-linejoin:bevel;stroke-miterlimit:10;stroke-opacity:1"
       d="M 31.242187,29.519111 V 14.210521"
       id="path66" />
    <path
       style="fill:none;stroke:#000000;stroke-width:0.650041;stroke-linecap:round;stroke-linejoin:bevel;stroke-miterlimit:10;stroke-opacity:1"
       d="M 67.320313,29.690991 V 14.210521"
       id="path68" />
    <path
       style="fill:none;stroke:#000000;stroke-width:0.650041;stroke-linecap:round;stroke-linejoin:bevel;stroke-miterlimit:10;stroke-opacity:1"
       d="M 49.191406,29.519111 V 14.210521"
       id="path70" />
    <path
       style="fill:#000000;fill-opacity:1;fill-rule:nonzero;stroke:none"
       d="m 29.378906,27.706611 c 0.625,0 1.152344,0.16407 1.582031,0.48828 0.402344,0.35157 0.605469,0.79297 0.605469,1.32813 0,0.89844 -0.464843,1.73828 -1.386719,2.51953 -0.9375,0.78125 -1.941406,1.17188 -3.007812,1.17188 -0.625,0 -1.152344,-0.16407 -1.582031,-0.48829 -0.40625,-0.35156 -0.605469,-0.79296 -0.605469,-1.32812 0,-0.89844 0.46875,-1.73828 1.40625,-2.51953 0.910156,-0.78125 1.90625,-1.17188 2.988281,-1.17188 z m 0,0"
       id="path130" />
    <path
       style="fill:#000000;fill-opacity:1;fill-rule:nonzero;stroke:none"
       d="m 67.007813,29.151931 c 0,-0.22266 -0.08203,-0.41016 -0.253907,-0.56641 -0.167969,-0.16797 -0.363281,-0.25391 -0.585937,-0.25391 -0.390625,0 -1.175782,0.39063 -2.363282,1.17188 -1.222656,0.79297 -1.972656,1.35937 -2.246093,1.69922 -0.140625,0.18359 -0.214844,0.37109 -0.214844,0.5664 0,0.22266 0.08594,0.41016 0.253906,0.56641 0.15625,0.16797 0.351563,0.25391 0.585938,0.25391 0.378906,0 1.171875,-0.39063 2.382812,-1.17188 1.199219,-0.78125 1.941407,-1.34766 2.226563,-1.69922 0.144531,-0.16797 0.214844,-0.35937 0.214844,-0.5664 z m -1.035157,-1.44532 c 1.121094,0 1.679688,0.48047 1.679688,1.44532 0,0.46875 -0.136719,1.01562 -0.410157,1.64062 -0.273437,0.61328 -0.636718,1.08203 -1.09375,1.40625 -1,0.67578 -2.257812,1.01563 -3.769531,1.01563 -1.117187,0 -1.679687,-0.48047 -1.679687,-1.44532 0,-0.42968 0.136718,-0.96875 0.410156,-1.62109 0.261719,-0.625 0.625,-1.10156 1.09375,-1.42578 1.003906,-0.67578 2.261719,-1.01563 3.769531,-1.01563 z m 0,0"
       id="path132" />
    <path
       style="fill:#000000;fill-opacity:1;fill-rule:nonzero;stroke:none"
       d="m 47.328125,27.706611 c 0.625,0 1.152344,0.16407 1.582031,0.48828 0.402344,0.35157 0.605469,0.79297 0.605469,1.32813 0,0.89844 -0.464844,1.73828 -1.386719,2.51953 -0.9375,0.78125 -1.941406,1.17188 -3.007812,1.17188 -0.625,0 -1.152344,-0.16407 -1.582031,-0.48829 -0.40625,-0.35156 -0.605469,-0.79296 -0.605469,-1.32812 0,-0.89844 0.46875,-1.73828 1.40625,-2.51953 0.910156,-0.78125 1.90625,-1.17188 2.988281,-1.17188 z m 0,0"
       id="path134" />
    <path
       style="fill:#000000;fill-opacity:1;fill-rule:nonzero;stroke:none"
       d="m 12.726563,18.214431 c 0.390624,0 0.722656,-0.0469 0.996093,-0.13672 0.273438,-0.0937 0.449219,-0.13672 0.527344,-0.13672 0.08984,0 0.160156,0.0234 0.214844,0.0781 0.03906,0.0391 0.0625,0.082 0.07813,0.13672 0,0.0234 -0.01563,0.0625 -0.03906,0.11719 l -5.6874999,6.60156 H 12.15625 v -2.61719 c 0,-0.17187 0.04687,-0.3125 0.136719,-0.42968 0.15625,-0.13282 0.289062,-0.21094 0.390625,-0.23438 0.171875,-0.0781 0.378906,-0.26172 0.628906,-0.54687 0.207031,-0.23438 0.453125,-0.64453 0.742187,-1.23047 0.03906,-0.0781 0.09766,-0.11719 0.175782,-0.11719 0.15625,0 0.246094,0.0898 0.273437,0.27344 v 4.90234 h 1.425781 c 0.179688,0 0.285157,0.0977 0.3125,0.29297 0,0.19531 -0.105468,0.29297 -0.3125,0.29297 h -1.425781 v 0.15627 c 0,0.51953 0.128907,0.96484 0.390625,1.32812 0.296875,0.36329 0.648438,0.54688 1.054688,0.54688 0.15625,0 0.234375,0.0781 0.234375,0.23437 0,0.15625 -0.07813,0.23438 -0.234375,0.23438 -0.273438,0 -0.71875,-0.0391 -1.328125,-0.11719 -0.5625,-0.0898 -0.996094,-0.13672 -1.308594,-0.13672 -0.328125,0 -0.765625,0.0469 -1.3125,0.13672 -0.585937,0.0781 -1.019531,0.11719 -1.308594,0.11719 -0.15625,0 -0.234375,-0.0781 -0.234375,-0.23438 0,-0.15625 0.07813,-0.23437 0.234375,-0.23437 0.40625,0 0.757813,-0.18359 1.054688,-0.54688 0.273437,-0.36328 0.410156,-0.80859 0.410156,-1.32812 v -0.15625 H 8.8164061 c -0.21875,0 -0.375,-0.0547 -0.46875,-0.15625 -0.101562,-0.0781 -0.15625,-0.18359 -0.15625,-0.3125 0,-0.0391 0.097657,-0.17578 0.292969,-0.41016 0.222656,-0.26172 0.457031,-0.58203 0.703125,-0.95703 0.289063,-0.44531 0.5625,-0.89844 0.8203129,-1.36719 0.289062,-0.53515 0.515624,-1.14843 0.683593,-1.83593 0.195313,-0.70313 0.292969,-1.42188 0.292969,-2.14844 0,-0.21094 0.09375,-0.3125 0.273438,-0.3125 0.03906,0 0.125,0.0195 0.253906,0.0586 0.03906,0.0117 0.121094,0.0312 0.246094,0.0586 0.125,0.0234 0.222656,0.0508 0.300781,0.0781 0.234375,0.0391 0.457031,0.0586 0.667969,0.0586 z m 0,0"
       id="path192" />
    <path
       style="fill:#000000;fill-opacity:1;fill-rule:nonzero;stroke:none"
       d="m 12.726563,28.214431 c 0.390624,0 0.722656,-0.0469 0.996093,-0.13672 0.273438,-0.0899 0.449219,-0.13672 0.527344,-0.13672 0.08984,0 0.160156,0.0273 0.214844,0.0781 0.03906,0.0391 0.0625,0.0859 0.07813,0.13672 0,0.0274 -0.01563,0.0664 -0.03906,0.11719 l -5.6874999,6.60156 H 12.15625 v -2.61719 c 0,-0.16796 0.04687,-0.3125 0.136719,-0.42968 0.15625,-0.12891 0.289062,-0.20703 0.390625,-0.23438 0.171875,-0.0781 0.378906,-0.26172 0.628906,-0.54687 0.207031,-0.23438 0.453125,-0.64453 0.742187,-1.23047 0.03906,-0.0781 0.09766,-0.11719 0.175782,-0.11719 0.15625,0 0.246094,0.0898 0.273437,0.27344 v 4.90234 h 1.425781 c 0.179688,0 0.285157,0.0977 0.3125,0.29297 0,0.19531 -0.105468,0.29297 -0.3125,0.29297 h -1.425781 v 0.15627 c 0,0.51953 0.128907,0.96484 0.390625,1.32812 0.296875,0.36329 0.648438,0.54688 1.054688,0.54688 0.15625,0 0.234375,0.0781 0.234375,0.23437 0,0.15625 -0.07813,0.23438 -0.234375,0.23438 -0.273438,0 -0.71875,-0.0391 -1.328125,-0.11719 -0.5625,-0.0898 -0.996094,-0.13672 -1.308594,-0.13672 -0.328125,0 -0.765625,0.0469 -1.3125,0.13672 -0.585937,0.0781 -1.019531,0.11719 -1.308594,0.11719 -0.15625,0 -0.234375,-0.0781 -0.234375,-0.23438 0,-0.15625 0.07813,-0.23437 0.234375,-0.23437 0.40625,0 0.757813,-0.18359 1.054688,-0.54688 0.273437,-0.36328 0.410156,-0.80859 0.410156,-1.32812 v -0.15625 H 8.8164061 c -0.21875,0 -0.375,-0.0508 -0.46875,-0.15625 -0.101562,-0.0781 -0.15625,-0.18359 -0.15625,-0.3125 0,-0.0391 0.097657,-0.17578 0.292969,-0.41016 0.222656,-0.26172 0.457031,-0.57812 0.703125,-0.95703 0.289063,-0.4414 0.5625,-0.89844 0.8203129,-1.36719 0.289062,-0.53515 0.515624,-1.14453 0.683593,-1.83593 0.195313,-0.70313 0.292969,-1.41797 0.292969,-2.14844 0,-0.20703 0.09375,-0.3125 0.273438,-0.3125 0.03906,0 0.125,0.0195 0.253906,0.0586 0.03906,0.0117 0.121094,0.0312 0.246094,0.0586 0.125,0.0273 0.222656,0.0508 0.300781,0.0781 0.234375,0.0391 0.457031,0.0586 0.667969,0.0586 z m 0,0"
       id="path194" />
  </g>
</svg>
