<?xml version="1.0" encoding="UTF-8" standalone="no"?>
<svg
   xmlns:dc="http://purl.org/dc/elements/1.1/"
   xmlns:cc="http://creativecommons.org/ns#"
   xmlns:rdf="http://www.w3.org/1999/02/22-rdf-syntax-ns#"
   xmlns:svg="http://www.w3.org/2000/svg"
   xmlns="http://www.w3.org/2000/svg"
   xmlns:sodipodi="http://sodipodi.sourceforge.net/DTD/sodipodi-0.dtd"
   xmlns:inkscape="http://www.inkscape.org/namespaces/inkscape"
   width="92pt"
   height="45pt"
   viewBox="0 0 92 45"
   version="1.2"
   id="svg253"
   sodipodi:docname="Bi6.svg"
   inkscape:version="1.0 (4035a4f, 2020-05-01)">
  <metadata
     id="metadata259">
    <rdf:RDF>
      <cc:Work
         rdf:about="">
        <dc:format>image/svg+xml</dc:format>
        <dc:type
           rdf:resource="http://purl.org/dc/dcmitype/StillImage" />
        <dc:title></dc:title>
      </cc:Work>
    </rdf:RDF>
  </metadata>
  <defs
     id="defs257" />
  <sodipodi:namedview
     inkscape:document-rotation="0"
     pagecolor="#ffffff"
     bordercolor="#666666"
     borderopacity="1"
     objecttolerance="10"
     gridtolerance="10"
     guidetolerance="10"
     inkscape:pageopacity="0"
     inkscape:pageshadow="2"
     inkscape:window-width="1434"
     inkscape:window-height="855"
     id="namedview255"
     showgrid="false"
     inkscape:zoom="1.7747962"
     inkscape:cx="218.79609"
     inkscape:cy="64.27803"
     inkscape:window-x="0"
     inkscape:window-y="23"
     inkscape:window-maximized="1"
     inkscape:current-layer="surface3103" />
  <g
     id="surface3103">
    <path
       style="fill:none;stroke:#000000;stroke-width:0.349073;stroke-linecap:butt;stroke-linejoin:bevel;stroke-miterlimit:10;stroke-opacity:1"
       d="M 3.7500001,17.960741 H 90 M 3.7500001,22.972461 H 90 M 3.7500001,27.984181 H 90 M 3.7500001,32.999811 H 90 M 3.7500001,38.011521 H 90"
       id="path20" />
    <path
       style="fill:none;stroke:#000000;stroke-width:0.80005;stroke-linecap:butt;stroke-linejoin:bevel;stroke-miterlimit:10;stroke-opacity:1"
       d="m 90,18.011521 v 20"
       id="path42" />
    <path
       style="fill:none;stroke:#000000;stroke-width:0.650041;stroke-linecap:round;stroke-linejoin:bevel;stroke-miterlimit:10;stroke-opacity:1"
       d="M 31.601563,29.745901 V 14.261521"
       id="path74" />
    <path
       style="fill:none;stroke:#000000;stroke-width:0.650041;stroke-linecap:round;stroke-linejoin:bevel;stroke-miterlimit:10;stroke-opacity:1"
       d="m 74.023437,29.574021 v -15.3125"
       id="path84" />
    <path
       style="fill:#000000;fill-opacity:1;fill-rule:nonzero;stroke:none"
       d="m 31.292969,29.202931 c 0,-0.21875 -0.08594,-0.41016 -0.253906,-0.56641 -0.171876,-0.16796 -0.367188,-0.2539 -0.585938,-0.2539 -0.390625,0 -1.179688,0.39062 -2.363281,1.17187 -1.226563,0.79688 -1.972657,1.36328 -2.246094,1.69922 -0.144531,0.1836 -0.214844,0.3711 -0.214844,0.56641 0,0.22265 0.08203,0.41015 0.253907,0.5664 0.15625,0.17188 0.351562,0.25391 0.585937,0.25391 0.375,0 1.171875,-0.39062 2.382813,-1.17187 1.195312,-0.78125 1.9375,-1.34766 2.226562,-1.69922 0.140625,-0.16797 0.214844,-0.35547 0.214844,-0.56641 z m -1.035156,-1.44531 c 1.117187,0 1.679687,0.48047 1.679687,1.44531 0,0.46875 -0.136719,1.01563 -0.410156,1.64063 -0.273438,0.61328 -0.640625,1.08203 -1.09375,1.40625 -1.003907,0.67968 -2.261719,1.01562 -3.769531,1.01562 -1.121094,0 -1.679688,-0.48047 -1.679688,-1.44531 0,-0.42969 0.136719,-0.96875 0.410156,-1.6211 0.257813,-0.625 0.625,-1.10156 1.09375,-1.42578 1,-0.67578 2.257813,-1.01562 3.769532,-1.01562 z m 0,0"
       id="path138" />
    <path
       style="fill:#000000;fill-opacity:1;fill-rule:nonzero;stroke:none"
       d="m 72.160156,27.757621 c 0.625,0 1.152344,0.16406 1.582031,0.48828 0.402344,0.35156 0.605469,0.79297 0.605469,1.32812 0,0.89844 -0.464843,1.73829 -1.386719,2.51954 -0.941406,0.78125 -1.941406,1.17187 -3.011718,1.17187 -0.625,0 -1.152344,-0.16016 -1.582032,-0.48828 -0.402343,-0.35156 -0.605468,-0.79297 -0.605468,-1.32813 0,-0.89843 0.46875,-1.73828 1.40625,-2.51953 0.914062,-0.78125 1.910156,-1.17187 2.992187,-1.17187 z m 0,0"
       id="path144" />
    <path
       style="fill:#000000;fill-opacity:1;fill-rule:nonzero;stroke:none"
       d="m 12.726563,18.265431 c 0.390624,0 0.722656,-0.0469 0.996093,-0.13672 0.273438,-0.0898 0.449219,-0.13672 0.527344,-0.13672 0.08984,0 0.160156,0.0274 0.214844,0.0781 0.03906,0.0391 0.0625,0.0859 0.07813,0.13672 0,0.0273 -0.01563,0.0664 -0.03906,0.11718 l -5.6874999,6.60157 H 12.15625 v -2.61719 c 0,-0.16797 0.04687,-0.3125 0.136719,-0.42969 0.15625,-0.1289 0.289062,-0.20703 0.390625,-0.23437 0.171875,-0.0781 0.378906,-0.26172 0.628906,-0.54688 0.207031,-0.23437 0.453125,-0.64453 0.742187,-1.23047 0.03906,-0.0781 0.09766,-0.11718 0.175782,-0.11718 0.15625,0 0.246094,0.0898 0.273437,0.27343 v 4.90235 h 1.425781 c 0.179688,0 0.285157,0.0976 0.3125,0.29297 0,0.19531 -0.105468,0.29296 -0.3125,0.29296 h -1.425781 v 0.15625 c 0,0.51954 0.128907,0.96485 0.390625,1.32813 0.296875,0.36328 0.648438,0.54687 1.054688,0.54687 0.15625,0 0.234375,0.0781 0.234375,0.23438 0,0.15625 -0.07813,0.23437 -0.234375,0.23437 -0.273438,0 -0.71875,-0.0391 -1.328125,-0.11718 -0.5625,-0.0899 -0.996094,-0.13672 -1.308594,-0.13672 -0.328125,0 -0.765625,0.0469 -1.3125,0.13672 -0.585937,0.0781 -1.019531,0.11718 -1.308594,0.11718 -0.15625,0 -0.234375,-0.0781 -0.234375,-0.23437 0,-0.15625 0.07813,-0.23438 0.234375,-0.23438 0.40625,0 0.757813,-0.18359 1.054688,-0.54687 0.273437,-0.36328 0.410156,-0.80859 0.410156,-1.32813 v -0.15625 H 8.8164061 c -0.21875,0 -0.375,-0.0508 -0.46875,-0.15625 -0.101562,-0.0781 -0.15625,-0.18359 -0.15625,-0.3125 0,-0.0391 0.097657,-0.17578 0.292969,-0.41015 0.222656,-0.26172 0.457031,-0.57813 0.703125,-0.95703 0.289063,-0.44141 0.5625,-0.89844 0.8203129,-1.36719 0.289062,-0.53516 0.515624,-1.14453 0.683593,-1.83594 0.195313,-0.70312 0.292969,-1.41797 0.292969,-2.14844 0,-0.20703 0.09375,-0.3125 0.273438,-0.3125 0.03906,0 0.125,0.0195 0.253906,0.0586 0.03906,0.0117 0.121094,0.0312 0.246094,0.0586 0.125,0.0274 0.222656,0.0508 0.300781,0.0781 0.234375,0.0391 0.457031,0.0586 0.667969,0.0586 z m 0,0"
       id="path200" />
    <path
       style="fill:#000000;fill-opacity:1;fill-rule:nonzero;stroke:none"
       d="m 12.726563,28.265431 c 0.390624,0 0.722656,-0.0469 0.996093,-0.13672 0.273438,-0.0898 0.449219,-0.13672 0.527344,-0.13672 0.08984,0 0.160156,0.0274 0.214844,0.0781 0.03906,0.0391 0.0625,0.0859 0.07813,0.13672 0,0.0273 -0.01563,0.0664 -0.03906,0.11718 l -5.6874999,6.60157 H 12.15625 v -2.61719 c 0,-0.16797 0.04687,-0.3125 0.136719,-0.42969 0.15625,-0.1289 0.289062,-0.20703 0.390625,-0.23437 0.171875,-0.0781 0.378906,-0.25782 0.628906,-0.54688 0.207031,-0.23437 0.453125,-0.64453 0.742187,-1.23047 0.03906,-0.0781 0.09766,-0.11718 0.175782,-0.11718 0.15625,0 0.246094,0.0937 0.273437,0.27343 v 4.90235 h 1.425781 c 0.179688,0 0.285157,0.0976 0.3125,0.29297 0,0.19531 -0.105468,0.29296 -0.3125,0.29296 h -1.425781 v 0.15625 c 0,0.52344 0.128907,0.96485 0.390625,1.32813 0.296875,0.36719 0.648438,0.54687 1.054688,0.54687 0.15625,0 0.234375,0.0781 0.234375,0.23438 0,0.15625 -0.07813,0.23437 -0.234375,0.23437 -0.273438,0 -0.71875,-0.0391 -1.328125,-0.11718 -0.5625,-0.0899 -0.996094,-0.13672 -1.308594,-0.13672 -0.328125,0 -0.765625,0.0469 -1.3125,0.13672 -0.585937,0.0781 -1.019531,0.11718 -1.308594,0.11718 -0.15625,0 -0.234375,-0.0781 -0.234375,-0.23437 0,-0.15625 0.07813,-0.23438 0.234375,-0.23438 0.40625,0 0.757813,-0.17968 1.054688,-0.54687 0.273437,-0.36328 0.410156,-0.80469 0.410156,-1.32813 v -0.15625 H 8.8164061 c -0.21875,0 -0.375,-0.0508 -0.46875,-0.15625 -0.101562,-0.0781 -0.15625,-0.17968 -0.15625,-0.3125 0,-0.0391 0.097657,-0.17578 0.292969,-0.41015 0.222656,-0.25781 0.457031,-0.57813 0.703125,-0.95703 0.289063,-0.44141 0.5625,-0.89844 0.8203129,-1.36719 0.289062,-0.53125 0.515624,-1.14453 0.683593,-1.83594 0.195313,-0.70312 0.292969,-1.41797 0.292969,-2.14844 0,-0.20703 0.09375,-0.3125 0.273438,-0.3125 0.03906,0 0.125,0.0195 0.253906,0.0586 0.03906,0.0117 0.121094,0.0312 0.246094,0.0586 0.125,0.0274 0.222656,0.0508 0.300781,0.0781 0.234375,0.0391 0.457031,0.0586 0.667969,0.0586 z m 0,0"
       id="path202" />
    <path
       style="fill:#000000;fill-opacity:1;fill-rule:nonzero;stroke:none"
       d="m 34.007813,31.312311 c -0.21875,-0.21875 -0.332032,-0.48829 -0.332032,-0.80079 0,-0.3125 0.113282,-0.57812 0.332032,-0.80078 0.222656,-0.21875 0.488281,-0.33203 0.800781,-0.33203 0.3125,0 0.582031,0.11328 0.800781,0.33203 0.222656,0.22266 0.332031,0.48828 0.332031,0.80078 0,0.3125 -0.109375,0.58204 -0.332031,0.80079 -0.21875,0.22265 -0.488281,0.33203 -0.800781,0.33203 -0.3125,0 -0.578125,-0.10938 -0.800781,-0.33203 z m 0,0"
       id="path248" />
  </g>
</svg>
