<?xml version="1.0" encoding="UTF-8" standalone="no"?>
<svg
   xmlns:dc="http://purl.org/dc/elements/1.1/"
   xmlns:cc="http://creativecommons.org/ns#"
   xmlns:rdf="http://www.w3.org/1999/02/22-rdf-syntax-ns#"
   xmlns:svg="http://www.w3.org/2000/svg"
   xmlns="http://www.w3.org/2000/svg"
   xmlns:sodipodi="http://sodipodi.sourceforge.net/DTD/sodipodi-0.dtd"
   xmlns:inkscape="http://www.inkscape.org/namespaces/inkscape"
   width="92pt"
   height="45pt"
   viewBox="0 0 92 45"
   version="1.2"
   id="svg253"
   sodipodi:docname="Bi7.svg"
   inkscape:version="1.0 (4035a4f, 2020-05-01)">
  <metadata
     id="metadata259">
    <rdf:RDF>
      <cc:Work
         rdf:about="">
        <dc:format>image/svg+xml</dc:format>
        <dc:type
           rdf:resource="http://purl.org/dc/dcmitype/StillImage" />
        <dc:title></dc:title>
      </cc:Work>
    </rdf:RDF>
  </metadata>
  <defs
     id="defs257" />
  <sodipodi:namedview
     inkscape:document-rotation="0"
     pagecolor="#ffffff"
     bordercolor="#666666"
     borderopacity="1"
     objecttolerance="10"
     gridtolerance="10"
     guidetolerance="10"
     inkscape:pageopacity="0"
     inkscape:pageshadow="2"
     inkscape:window-width="1434"
     inkscape:window-height="855"
     id="namedview255"
     showgrid="false"
     inkscape:zoom="2.0712872"
     inkscape:cx="151.18346"
     inkscape:cy="119.48179"
     inkscape:window-x="0"
     inkscape:window-y="23"
     inkscape:window-maximized="1"
     inkscape:current-layer="surface3103" />
  <g
     id="surface3103">
    <path
       style="fill:none;stroke:#000000;stroke-width:0.349073;stroke-linecap:butt;stroke-linejoin:bevel;stroke-miterlimit:10;stroke-opacity:1"
       d="M 3.7500001,17.960741 H 90 M 3.7500001,22.972451 H 90 M 3.7500001,27.984171 H 90 M 3.7500001,32.999801 H 90 M 3.7500001,38.011521 H 90"
       id="path18" />
    <path
       style="fill:none;stroke:#000000;stroke-width:0.80005;stroke-linecap:butt;stroke-linejoin:bevel;stroke-miterlimit:10;stroke-opacity:1"
       d="m 90,18.011521 v 20"
       id="path40" />
    <path
       style="fill:none;stroke:#000000;stroke-width:0.650041;stroke-linecap:round;stroke-linejoin:bevel;stroke-miterlimit:10;stroke-opacity:1"
       d="m 31.242187,29.574021 v -15.3125"
       id="path72" />
    <path
       style="fill:none;stroke:#000000;stroke-width:0.650041;stroke-linecap:round;stroke-linejoin:bevel;stroke-miterlimit:10;stroke-opacity:1"
       d="M 53.316406,29.745891 V 14.261521"
       id="path80" />
    <path
       style="fill:#000000;fill-opacity:1;fill-rule:nonzero;stroke:none"
       d="m 29.378906,27.757611 c 0.625,0 1.152344,0.16406 1.582031,0.48828 0.402344,0.35156 0.605469,0.79688 0.605469,1.32813 0,0.89843 -0.464843,1.73828 -1.386719,2.51953 -0.9375,0.78125 -1.941406,1.17187 -3.007812,1.17187 -0.625,0 -1.152344,-0.16015 -1.582031,-0.48828 -0.40625,-0.35156 -0.605469,-0.79297 -0.605469,-1.32812 0,-0.89844 0.46875,-1.73828 1.40625,-2.51953 0.910156,-0.78125 1.90625,-1.17188 2.988281,-1.17188 z m 0,0"
       id="path136" />
    <path
       style="fill:#000000;fill-opacity:1;fill-rule:nonzero;stroke:none"
       d="m 53.007813,29.202921 c 0,-0.21875 -0.08594,-0.41015 -0.253907,-0.5664 -0.167969,-0.16797 -0.363281,-0.25391 -0.585937,-0.25391 -0.390625,0 -1.179688,0.39063 -2.363282,1.17188 -1.222656,0.79687 -1.972656,1.36328 -2.246093,1.69921 -0.144531,0.1836 -0.214844,0.3711 -0.214844,0.56641 0,0.22266 0.08594,0.41016 0.253906,0.56641 0.15625,0.17187 0.351563,0.2539 0.585938,0.2539 0.378906,0 1.171875,-0.39062 2.382812,-1.17187 1.199219,-0.78125 1.941407,-1.34766 2.226563,-1.69922 0.144531,-0.16797 0.214844,-0.35547 0.214844,-0.56641 z m -1.035157,-1.44531 c 1.121094,0 1.679688,0.48438 1.679688,1.44531 0,0.46875 -0.136719,1.01563 -0.410157,1.64063 -0.273437,0.61328 -0.636718,1.08203 -1.09375,1.40625 -1.003906,0.67969 -2.257812,1.01562 -3.769531,1.01562 -1.121093,0 -1.679687,-0.48047 -1.679687,-1.44531 0,-0.42969 0.136718,-0.96875 0.410156,-1.62109 0.261719,-0.625 0.625,-1.09766 1.09375,-1.42578 1.003906,-0.67579 2.257812,-1.01563 3.769531,-1.01563 z m 0,0"
       id="path142" />
    <path
       style="fill:#000000;fill-opacity:1;fill-rule:nonzero;stroke:none"
       d="m 12.726563,18.265421 c 0.390624,0 0.722656,-0.0469 0.996093,-0.13672 0.273438,-0.0898 0.449219,-0.13671 0.527344,-0.13671 0.08984,0 0.160156,0.0273 0.214844,0.0781 0.03906,0.0391 0.0625,0.0859 0.07813,0.13672 0,0.0273 -0.01563,0.0664 -0.03906,0.11719 l -5.6875079,6.60158 H 12.15625 v -2.61719 c 0,-0.16797 0.04687,-0.3125 0.136719,-0.42969 0.15625,-0.1289 0.289062,-0.20703 0.390625,-0.23437 0.171875,-0.0781 0.378906,-0.25781 0.628906,-0.54688 0.207031,-0.23437 0.453125,-0.64453 0.742187,-1.23046 0.03906,-0.0781 0.09766,-0.11719 0.175782,-0.11719 0.15625,0 0.246094,0.0898 0.273437,0.27344 v 4.90234 h 1.425781 c 0.179688,0 0.285157,0.0977 0.3125,0.29297 0,0.19531 -0.105468,0.29297 -0.3125,0.29297 h -1.425781 v 0.15625 c 0,0.52343 0.128907,0.96484 0.390625,1.32812 0.296875,0.36719 0.648438,0.54688 1.054688,0.54688 0.15625,0 0.234375,0.0781 0.234375,0.23437 0,0.15625 -0.07813,0.23438 -0.234375,0.23438 -0.273438,0 -0.71875,-0.0391 -1.328125,-0.11719 -0.5625,-0.0898 -0.996094,-0.13672 -1.308594,-0.13672 -0.328125,0 -0.765625,0.0469 -1.3125,0.13672 -0.585937,0.0781 -1.019531,0.11719 -1.308594,0.11719 -0.15625,0 -0.234375,-0.0781 -0.234375,-0.23438 0,-0.15625 0.07813,-0.23437 0.234375,-0.23437 0.40625,0 0.757813,-0.17969 1.054688,-0.54688 0.273437,-0.36328 0.410156,-0.80469 0.410156,-1.32812 v -0.15625 H 8.8164061 c -0.21875,0 -0.375,-0.0508 -0.46875,-0.15625 -0.101562,-0.0781 -0.15625,-0.17969 -0.15625,-0.3125 0,-0.0391 0.097657,-0.17578 0.292969,-0.41016 0.222656,-0.25781 0.457031,-0.57812 0.703125,-0.95703 0.289063,-0.44141 0.5625,-0.89844 0.8203129,-1.36719 0.289062,-0.53125 0.515624,-1.14453 0.683593,-1.83594 0.195313,-0.70312 0.292969,-1.41796 0.292969,-2.14843 0,-0.20703 0.09375,-0.3125 0.273438,-0.3125 0.03906,0 0.125,0.0195 0.253906,0.0586 0.03906,0.0117 0.121094,0.0312 0.246094,0.0586 0.125,0.0274 0.222656,0.0508 0.300781,0.0781 0.234375,0.0391 0.457031,0.0586 0.667969,0.0586 z m 0,0"
       id="path196" />
    <path
       style="fill:#000000;fill-opacity:1;fill-rule:nonzero;stroke:none"
       d="m 12.726563,28.265421 c 0.390624,0 0.722656,-0.043 0.996093,-0.13672 0.273438,-0.0898 0.449219,-0.13671 0.527344,-0.13671 0.08984,0 0.160156,0.0273 0.214844,0.0781 0.03906,0.0391 0.0625,0.0859 0.07813,0.13672 0,0.0273 -0.01563,0.0664 -0.03906,0.11719 l -5.6875079,6.60158 H 12.15625 v -2.61719 c 0,-0.16797 0.04687,-0.3125 0.136719,-0.42969 0.15625,-0.1289 0.289062,-0.20703 0.390625,-0.23437 0.171875,-0.0781 0.378906,-0.25781 0.628906,-0.54688 0.207031,-0.23437 0.453125,-0.64453 0.742187,-1.23046 0.03906,-0.0781 0.09766,-0.11719 0.175782,-0.11719 0.15625,0 0.246094,0.0937 0.273437,0.27344 v 4.90234 h 1.425781 c 0.179688,0 0.285157,0.0977 0.3125,0.29297 0,0.19531 -0.105468,0.29297 -0.3125,0.29297 h -1.425781 v 0.15625 c 0,0.52343 0.128907,0.96484 0.390625,1.32812 0.296875,0.36719 0.648438,0.54688 1.054688,0.54688 0.15625,0 0.234375,0.0781 0.234375,0.23437 0,0.15625 -0.07813,0.23438 -0.234375,0.23438 -0.273438,0 -0.71875,-0.0391 -1.328125,-0.11719 -0.5625,-0.0898 -0.996094,-0.13672 -1.308594,-0.13672 -0.328125,0 -0.765625,0.0469 -1.3125,0.13672 -0.585937,0.0781 -1.019531,0.11719 -1.308594,0.11719 -0.15625,0 -0.234375,-0.0781 -0.234375,-0.23438 0,-0.15625 0.07813,-0.23437 0.234375,-0.23437 0.40625,0 0.757813,-0.17969 1.054688,-0.54688 0.273437,-0.36328 0.410156,-0.80469 0.410156,-1.32812 v -0.15625 H 8.8164061 c -0.21875,0 -0.375,-0.0508 -0.46875,-0.15625 -0.101562,-0.0781 -0.15625,-0.17969 -0.15625,-0.3125 0,-0.0391 0.097657,-0.17578 0.292969,-0.41016 0.222656,-0.25781 0.457031,-0.57812 0.703125,-0.95703 0.289063,-0.44141 0.5625,-0.89844 0.8203129,-1.36719 0.289062,-0.53125 0.515624,-1.14453 0.683593,-1.83594 0.195313,-0.70312 0.292969,-1.41796 0.292969,-2.14843 0,-0.20703 0.09375,-0.3125 0.273438,-0.3125 0.03906,0 0.125,0.0195 0.253906,0.0586 0.03906,0.0156 0.121094,0.0352 0.246094,0.0586 0.125,0.0274 0.222656,0.0547 0.300781,0.0781 0.234375,0.0391 0.457031,0.0586 0.667969,0.0586 z m 0,0"
       id="path198" />
    <path
       style="fill:#000000;fill-opacity:1;fill-rule:nonzero;stroke:none"
       d="m 55.726563,31.312301 c -0.222657,-0.21875 -0.332032,-0.48828 -0.332032,-0.80078 0,-0.3125 0.109375,-0.57813 0.332032,-0.80078 0.21875,-0.21875 0.488281,-0.33204 0.800781,-0.33204 0.3125,0 0.578125,0.11329 0.800781,0.33204 0.21875,0.22265 0.332031,0.48828 0.332031,0.80078 0,0.3125 -0.113281,0.58203 -0.332031,0.80078 -0.222656,0.22265 -0.488281,0.33203 -0.800781,0.33203 -0.3125,0 -0.582031,-0.10938 -0.800781,-0.33203 z m 0,0"
       id="path250" />
  </g>
</svg>
