<?xml version="1.0" encoding="UTF-8" standalone="no"?>
<svg
   xmlns:dc="http://purl.org/dc/elements/1.1/"
   xmlns:cc="http://creativecommons.org/ns#"
   xmlns:rdf="http://www.w3.org/1999/02/22-rdf-syntax-ns#"
   xmlns:svg="http://www.w3.org/2000/svg"
   xmlns="http://www.w3.org/2000/svg"
   xmlns:sodipodi="http://sodipodi.sourceforge.net/DTD/sodipodi-0.dtd"
   xmlns:inkscape="http://www.inkscape.org/namespaces/inkscape"
   width="92pt"
   height="45pt"
   viewBox="0 0 92 45"
   version="1.2"
   id="svg253"
   sodipodi:docname="Bi9.svg"
   inkscape:version="1.0 (4035a4f, 2020-05-01)">
  <metadata
     id="metadata259">
    <rdf:RDF>
      <cc:Work
         rdf:about="">
        <dc:format>image/svg+xml</dc:format>
        <dc:type
           rdf:resource="http://purl.org/dc/dcmitype/StillImage" />
        <dc:title />
      </cc:Work>
    </rdf:RDF>
  </metadata>
  <defs
     id="defs257" />
  <sodipodi:namedview
     inkscape:document-rotation="0"
     pagecolor="#ffffff"
     bordercolor="#666666"
     borderopacity="1"
     objecttolerance="10"
     gridtolerance="10"
     guidetolerance="10"
     inkscape:pageopacity="0"
     inkscape:pageshadow="2"
     inkscape:window-width="1434"
     inkscape:window-height="855"
     id="namedview255"
     showgrid="false"
     inkscape:zoom="2.6185238"
     inkscape:cx="145.5126"
     inkscape:cy="76.87652"
     inkscape:window-x="0"
     inkscape:window-y="23"
     inkscape:window-maximized="1"
     inkscape:current-layer="surface3103" />
  <g
     id="surface3103">
    <path
       style="fill:none;stroke:#000000;stroke-width:0.348903;stroke-linecap:butt;stroke-linejoin:bevel;stroke-miterlimit:10;stroke-opacity:1"
       d="M 3.7500001,17.55571 H 90 M 3.7500001,22.56352 H 90 M 3.7500001,27.57524 H 90 M 3.7500001,32.58306 H 90 M 3.7500001,37.59087 H 90"
       id="path26" />
    <path
       style="fill:none;stroke:#000000;stroke-width:0.80005;stroke-linecap:butt;stroke-linejoin:bevel;stroke-miterlimit:10;stroke-opacity:1"
       d="M 90,17.55571 V 37.55962"
       id="path48" />
    <path
       style="fill:none;stroke:#000000;stroke-width:0.650041;stroke-linecap:round;stroke-linejoin:bevel;stroke-miterlimit:10;stroke-opacity:1"
       d="M 31.601563,29.29009 V 13.80571"
       id="path92" />
    <path
       style="fill:none;stroke:#000000;stroke-width:0.650041;stroke-linecap:round;stroke-linejoin:bevel;stroke-miterlimit:10;stroke-opacity:1"
       d="M 53.082031,29.29009 V 13.80571"
       id="path94" />
    <path
       style="fill:none;stroke:#000000;stroke-width:0.650041;stroke-linecap:round;stroke-linejoin:bevel;stroke-miterlimit:10;stroke-opacity:1"
       d="M 74.558594,29.29009 V 13.80571"
       id="path96" />
    <path
       style="fill:#000000;fill-opacity:1;fill-rule:nonzero;stroke:none"
       d="m 31.292969,28.75102 c 0,-0.22265 -0.08594,-0.41015 -0.253906,-0.5664 -0.171876,-0.17188 -0.367188,-0.25391 -0.585938,-0.25391 -0.390625,0 -1.179688,0.39063 -2.363281,1.17188 -1.226563,0.79297 -1.972657,1.35937 -2.246094,1.69922 -0.144531,0.17968 -0.214844,0.37109 -0.214844,0.5664 0,0.21875 0.08203,0.41016 0.253907,0.56641 0.15625,0.16797 0.351562,0.2539 0.585937,0.2539 0.375,0 1.171875,-0.39062 2.382813,-1.17187 1.195312,-0.78125 1.9375,-1.34766 2.226562,-1.69922 0.140625,-0.17187 0.214844,-0.35937 0.214844,-0.56641 z m -1.035156,-1.44531 c 1.117187,0 1.679687,0.48047 1.679687,1.44531 0,0.46875 -0.136719,1.01563 -0.410156,1.64063 -0.273438,0.60937 -0.640625,1.07812 -1.09375,1.40625 -1.003907,0.67578 -2.261719,1.01562 -3.769531,1.01562 -1.121094,0 -1.679688,-0.48437 -1.679688,-1.44531 0,-0.42969 0.136719,-0.97265 0.410156,-1.62109 0.257813,-0.625 0.625,-1.10156 1.09375,-1.42578 1,-0.67969 2.257813,-1.01563 3.769532,-1.01563 z m 0,0"
       id="path152" />
    <path
       style="fill:#000000;fill-opacity:1;fill-rule:nonzero;stroke:none"
       d="m 74.25,28.75102 c 0,-0.22265 -0.08594,-0.41015 -0.253906,-0.5664 -0.171875,-0.17188 -0.367188,-0.25391 -0.585938,-0.25391 -0.390625,0 -1.179687,0.39063 -2.363281,1.17188 -1.226562,0.79297 -1.972656,1.35937 -2.246094,1.69922 -0.144531,0.17968 -0.214844,0.37109 -0.214844,0.5664 0,0.21875 0.08203,0.41016 0.253907,0.56641 0.15625,0.16797 0.351562,0.2539 0.585937,0.2539 0.375,0 1.171875,-0.39062 2.382813,-1.17187 1.195312,-0.78125 1.9375,-1.34766 2.226562,-1.69922 C 74.175781,29.14556 74.25,28.95806 74.25,28.75102 Z m -1.035156,-1.44531 c 1.117187,0 1.679687,0.48047 1.679687,1.44531 0,0.46875 -0.136718,1.01563 -0.410156,1.64063 -0.273438,0.60937 -0.640625,1.07812 -1.09375,1.40625 -1.003906,0.67578 -2.261719,1.01562 -3.769531,1.01562 -1.121094,0 -1.679688,-0.48437 -1.679688,-1.44531 0,-0.42969 0.136719,-0.97265 0.410157,-1.62109 0.257812,-0.625 0.625,-1.10156 1.09375,-1.42578 1,-0.67969 2.257812,-1.01563 3.769531,-1.01563 z m 0,0"
       id="path158" />
    <path
       style="fill:#000000;fill-opacity:1;fill-rule:nonzero;stroke:none"
       d="m 52.769531,28.75102 c 0,-0.22265 -0.08203,-0.41015 -0.253906,-0.5664 -0.167969,-0.17188 -0.363281,-0.25391 -0.585938,-0.25391 -0.390624,0 -1.175781,0.39063 -2.363281,1.17188 -1.222656,0.79297 -1.972656,1.35937 -2.246093,1.69922 -0.144532,0.17968 -0.214844,0.37109 -0.214844,0.5664 0,0.21875 0.08594,0.41016 0.253906,0.56641 0.15625,0.16797 0.351562,0.2539 0.585938,0.2539 0.378906,0 1.171874,-0.39062 2.382812,-1.17187 1.199219,-0.78125 1.941406,-1.34766 2.226562,-1.69922 0.144532,-0.17187 0.214844,-0.35937 0.214844,-0.56641 z m -1.035156,-1.44531 c 1.121094,0 1.679688,0.48047 1.679688,1.44531 0,0.46875 -0.136719,1.01563 -0.410157,1.64063 -0.273437,0.60937 -0.636719,1.07812 -1.09375,1.40625 -1,0.67578 -2.257812,1.01562 -3.769531,1.01562 -1.121094,0 -1.679688,-0.48437 -1.679688,-1.44531 0,-0.42969 0.136719,-0.97265 0.410157,-1.62109 0.261719,-0.625 0.625,-1.10156 1.09375,-1.42578 1.003906,-0.67969 2.261719,-1.01563 3.769531,-1.01563 z m 0,0"
       id="path160" />
    <path
       style="fill:#000000;fill-opacity:1;fill-rule:nonzero;stroke:none"
       d="m 12.726563,17.80962 c 0.390624,0 0.722656,-0.043 0.996093,-0.13672 0.273438,-0.0898 0.449219,-0.13672 0.527344,-0.13672 0.08984,0 0.160156,0.0273 0.214844,0.0781 0.03906,0.0391 0.0625,0.0859 0.07813,0.13671 0,0.0273 -0.01563,0.0664 -0.03906,0.11719 L 8.8164141,24.47365 H 12.15625 v -2.62109 c 0,-0.16797 0.04687,-0.3125 0.136719,-0.42969 0.15625,-0.12891 0.289062,-0.20703 0.390625,-0.23438 0.171875,-0.0781 0.378906,-0.25781 0.628906,-0.54687 0.207031,-0.23438 0.453125,-0.64453 0.742187,-1.23047 0.03906,-0.0781 0.09766,-0.11719 0.175782,-0.11719 0.15625,0 0.246094,0.0937 0.273437,0.27344 v 4.90625 h 1.425781 c 0.179688,0 0.285157,0.0977 0.3125,0.29297 0,0.19531 -0.105468,0.29297 -0.3125,0.29297 h -1.425781 v 0.15625 c 0,0.51953 0.128907,0.96094 0.390625,1.32812 0.296875,0.36328 0.648438,0.54688 1.054688,0.54688 0.15625,0 0.234375,0.0781 0.234375,0.23437 0,0.15625 -0.07813,0.23438 -0.234375,0.23438 -0.273438,0 -0.71875,-0.0391 -1.328125,-0.11719 -0.5625,-0.0937 -0.996094,-0.13672 -1.308594,-0.13672 -0.328125,0 -0.765625,0.043 -1.3125,0.13672 -0.585937,0.0781 -1.019531,0.11719 -1.308594,0.11719 -0.15625,0 -0.234375,-0.0781 -0.234375,-0.23438 0,-0.15625 0.07813,-0.23437 0.234375,-0.23437 0.40625,0 0.757813,-0.1836 1.054688,-0.54688 0.273437,-0.36718 0.410156,-0.80859 0.410156,-1.32812 V 25.05959 H 8.8164061 c -0.21875,0 -0.375,-0.0547 -0.46875,-0.15625 -0.101562,-0.0781 -0.15625,-0.1836 -0.15625,-0.3125 0,-0.0391 0.097657,-0.17578 0.292969,-0.41016 0.222656,-0.26172 0.457031,-0.58203 0.703125,-0.95703 0.289063,-0.44531 0.5625,-0.90234 0.8203129,-1.37109 0.289062,-0.53125 0.515624,-1.14453 0.683593,-1.83594 0.195313,-0.70313 0.292969,-1.41797 0.292969,-2.14844 0,-0.20703 0.09375,-0.3125 0.273438,-0.3125 0.03906,0 0.125,0.0195 0.253906,0.0586 0.03906,0.0156 0.121094,0.0351 0.246094,0.0586 0.125,0.0273 0.222656,0.0547 0.300781,0.0781 0.234375,0.0391 0.457031,0.0586 0.667969,0.0586 z m 0,0"
       id="path212" />
    <path
       style="fill:#000000;fill-opacity:1;fill-rule:nonzero;stroke:none"
       d="m 12.726563,27.81352 c 0.390624,0 0.722656,-0.0469 0.996093,-0.13671 0.273438,-0.0937 0.449219,-0.13672 0.527344,-0.13672 0.08984,0 0.160156,0.0234 0.214844,0.0781 0.03906,0.0391 0.0625,0.082 0.07813,0.13672 0,0.0234 -0.01563,0.0625 -0.03906,0.11719 L 8.8164141,34.47366 H 12.15625 v -2.61719 c 0,-0.17187 0.04687,-0.3125 0.136719,-0.42968 0.15625,-0.13282 0.289062,-0.21094 0.390625,-0.23438 0.171875,-0.0781 0.378906,-0.26172 0.628906,-0.54687 0.207031,-0.23438 0.453125,-0.64454 0.742187,-1.23047 0.03906,-0.0781 0.09766,-0.11719 0.175782,-0.11719 0.15625,0 0.246094,0.0898 0.273437,0.27344 v 4.90234 h 1.425781 c 0.179688,0 0.285157,0.0977 0.3125,0.29297 0,0.19531 -0.105468,0.29297 -0.3125,0.29297 h -1.425781 v 0.15625 c 0,0.51953 0.128907,0.96094 0.390625,1.32812 0.296875,0.36328 0.648438,0.54688 1.054688,0.54688 0.15625,0 0.234375,0.0781 0.234375,0.23437 0,0.15625 -0.07813,0.23438 -0.234375,0.23438 -0.273438,0 -0.71875,-0.0391 -1.328125,-0.11719 -0.5625,-0.0937 -0.996094,-0.13672 -1.308594,-0.13672 -0.328125,0 -0.765625,0.043 -1.3125,0.13672 -0.585937,0.0781 -1.019531,0.11719 -1.308594,0.11719 -0.15625,0 -0.234375,-0.0781 -0.234375,-0.23438 0,-0.15625 0.07813,-0.23437 0.234375,-0.23437 0.40625,0 0.757813,-0.1836 1.054688,-0.54688 0.273437,-0.36718 0.410156,-0.80859 0.410156,-1.32812 V 35.0596 H 8.8164061 c -0.21875,0 -0.375,-0.0547 -0.46875,-0.15625 -0.101562,-0.0781 -0.15625,-0.1836 -0.15625,-0.3125 0,-0.0391 0.097657,-0.17578 0.292969,-0.41016 0.222656,-0.26172 0.457031,-0.58203 0.703125,-0.95703 0.289063,-0.44531 0.5625,-0.89844 0.8203129,-1.36719 0.289062,-0.53515 0.515624,-1.14843 0.683593,-1.83593 0.195313,-0.70313 0.292969,-1.42188 0.292969,-2.14844 0,-0.21094 0.09375,-0.3125 0.273438,-0.3125 0.03906,0 0.125,0.0195 0.253906,0.0586 0.03906,0.0117 0.121094,0.0312 0.246094,0.0586 0.125,0.0234 0.222656,0.0508 0.300781,0.0781 0.234375,0.0391 0.457031,0.0586 0.667969,0.0586 z m 0,0"
       id="path214" />
    <path
       style="fill:#000000;fill-opacity:1;fill-rule:nonzero;stroke:none"
       d="m 50.445313,6.96196 c 1.59375,-0.26172 2.390624,-0.8125 2.390624,-1.66015 0,-0.27344 -0.08203,-0.49219 -0.246093,-0.66016 -0.164063,-0.16797 -0.378907,-0.25 -0.644531,-0.25 -0.40625,0 -0.78125,0.22266 -1.121094,0.67187 l -0.160156,-0.0508 c 0.167968,-0.32031 0.394531,-0.57422 0.6875,-0.76172 0.289062,-0.1875 0.605468,-0.28125 0.953124,-0.28125 0.398438,0 0.734376,0.1211 1,0.36329 0.265626,0.23828 0.398438,0.54296 0.398438,0.91015 0,0.33985 -0.105469,0.61328 -0.324219,0.82031 C 53.164063,6.26663 52.75,6.48929 52.144531,6.71975 v 0.0312 c 0.640625,0.29297 0.960938,0.78907 0.960938,1.49219 0,0.69141 -0.257813,1.29297 -0.769532,1.79688 -0.515624,0.50781 -1.1875,0.76172 -2.019531,0.76172 -0.75,0 -1.121093,-0.19532 -1.121093,-0.58985 0,-0.26172 0.144531,-0.39062 0.4375,-0.39062 0.167968,0 0.390624,0.10156 0.671874,0.30078 0.28125,0.19922 0.511719,0.30078 0.691407,0.30078 0.359375,0 0.667969,-0.15234 0.921875,-0.45703 0.257812,-0.30078 0.386718,-0.69922 0.386718,-1.1836 0,-0.6289 -0.15625,-1.0625 -0.46875,-1.30078 C 51.519531,7.24314 51.058594,7.12205 50.445313,7.12205 Z m 0,0"
       id="path230" />
    <path
       style="fill:none;stroke:#000000;stroke-width:0.500031;stroke-linecap:square;stroke-linejoin:bevel;stroke-miterlimit:10;stroke-opacity:1"
       d="m 25.34375,12.23149 v -5 h 21.199219"
       id="path232" />
    <path
       style="fill:none;stroke:#000000;stroke-width:0.500031;stroke-linecap:square;stroke-linejoin:bevel;stroke-miterlimit:10;stroke-opacity:1"
       d="m 56.542969,7.23149 h 21.203125 v 5"
       id="path234" />
  </g>
</svg>
