<?xml version="1.0" encoding="UTF-8" standalone="no"?>
<svg
   xmlns:dc="http://purl.org/dc/elements/1.1/"
   xmlns:cc="http://creativecommons.org/ns#"
   xmlns:rdf="http://www.w3.org/1999/02/22-rdf-syntax-ns#"
   xmlns:svg="http://www.w3.org/2000/svg"
   xmlns="http://www.w3.org/2000/svg"
   xmlns:sodipodi="http://sodipodi.sourceforge.net/DTD/sodipodi-0.dtd"
   xmlns:inkscape="http://www.inkscape.org/namespaces/inkscape"
   inkscape:version="1.0 (4035a4f, 2020-05-01)"
   sodipodi:docname="Te14.svg"
   id="svg303"
   version="1.2"
   viewBox="0 0 92 45"
   height="45pt"
   width="92pt">
  <metadata
     id="metadata309">
    <rdf:RDF>
      <cc:Work
         rdf:about="">
        <dc:format>image/svg+xml</dc:format>
        <dc:type
           rdf:resource="http://purl.org/dc/dcmitype/StillImage" />
        <dc:title></dc:title>
      </cc:Work>
    </rdf:RDF>
  </metadata>
  <defs
     id="defs307" />
  <sodipodi:namedview
     inkscape:current-layer="surface3083"
     inkscape:window-maximized="1"
     inkscape:window-y="23"
     inkscape:window-x="0"
     inkscape:cy="599.45384"
     inkscape:cx="284.60129"
     inkscape:zoom="0.50079643"
     showgrid="false"
     id="namedview305"
     inkscape:window-height="855"
     inkscape:window-width="1440"
     inkscape:pageshadow="2"
     inkscape:pageopacity="0"
     guidetolerance="10"
     gridtolerance="10"
     objecttolerance="10"
     borderopacity="1"
     bordercolor="#666666"
     pagecolor="#ffffff" />
  <g
     id="surface3083">
    <path
       id="path10"
       d="m 28.398437,34.261681 c 6.457032,4.50781 25.839844,4.50781 32.296875,0 -6.457031,5.30859 -25.839843,5.30859 -32.296875,0 z m 0,0"
       style="fill:#000000;fill-opacity:1;fill-rule:evenodd;stroke:#000000;stroke-width:0.350022;stroke-linecap:round;stroke-linejoin:round;stroke-miterlimit:10;stroke-opacity:1" />
    <path
       id="path16"
       d="M 3.7500001,17.960901 H 90 M 3.7500001,22.972611 H 90 M 3.7500001,27.984331 H 90 M 3.7500001,32.999961 H 90 M 3.7500001,38.011681 H 90"
       style="fill:none;stroke:#000000;stroke-width:0.349073;stroke-linecap:butt;stroke-linejoin:bevel;stroke-miterlimit:10;stroke-opacity:1" />
    <path
       id="path38"
       d="m 90,18.011681 v 20"
       style="fill:none;stroke:#000000;stroke-width:0.80005;stroke-linecap:butt;stroke-linejoin:bevel;stroke-miterlimit:10;stroke-opacity:1" />
    <path
       id="path72"
       d="M 30.503906,29.742151 V 14.257771"
       style="fill:none;stroke:#000000;stroke-width:0.650041;stroke-linecap:round;stroke-linejoin:bevel;stroke-miterlimit:10;stroke-opacity:1" />
    <path
       id="path78"
       d="M 80.253906,29.570271 V 16.761681"
       style="fill:none;stroke:#000000;stroke-width:0.650041;stroke-linecap:round;stroke-linejoin:bevel;stroke-miterlimit:10;stroke-opacity:1" />
    <path
       id="path80"
       d="M 64.648437,29.570271 V 16.761681"
       style="fill:none;stroke:#000000;stroke-width:0.650041;stroke-linecap:round;stroke-linejoin:bevel;stroke-miterlimit:10;stroke-opacity:1" />
    <path
       id="path152"
       d="m 30.191406,29.203081 c 0,-0.22265 -0.08203,-0.41015 -0.253906,-0.5664 -0.167969,-0.17188 -0.363281,-0.25391 -0.585938,-0.25391 -0.390625,0 -1.175781,0.39063 -2.363281,1.17188 -1.222656,0.79296 -1.972656,1.35937 -2.246094,1.69921 -0.140625,0.17969 -0.214844,0.3711 -0.214844,0.56641 0,0.21875 0.08594,0.41016 0.253907,0.56641 0.15625,0.16797 0.351562,0.2539 0.585937,0.2539 0.378906,0 1.171875,-0.39062 2.382813,-1.17187 1.199219,-0.78125 1.941406,-1.34766 2.226562,-1.69922 0.144531,-0.17188 0.214844,-0.35938 0.214844,-0.56641 z m -1.035156,-1.44531 c 1.121093,0 1.679687,0.48047 1.679687,1.44531 0,0.46875 -0.136718,1.01563 -0.410156,1.64063 -0.273438,0.60937 -0.636719,1.07812 -1.09375,1.40625 -1,0.67578 -2.257812,1.01562 -3.769531,1.01562 -1.117188,0 -1.679688,-0.48437 -1.679688,-1.44531 0,-0.42969 0.136719,-0.97266 0.410157,-1.62109 0.261718,-0.625 0.625,-1.10157 1.09375,-1.42578 1.003906,-0.67969 2.261718,-1.01563 3.769531,-1.01563 z m 0,0"
       style="fill:#000000;fill-opacity:1;fill-rule:nonzero;stroke:none" />
    <path
       id="path158"
       d="m 78.390625,27.757771 c 0.625,0 1.152344,0.16016 1.582031,0.48828 0.402344,0.35156 0.605469,0.79297 0.605469,1.32813 0,0.89843 -0.460938,1.73828 -1.386719,2.51953 -0.9375,0.78125 -1.941406,1.17187 -3.007813,1.17187 -0.625,0 -1.152343,-0.16406 -1.582031,-0.48828 -0.402343,-0.35156 -0.605469,-0.79687 -0.605469,-1.32812 0,-0.89844 0.46875,-1.73828 1.40625,-2.51953 0.910157,-0.78125 1.90625,-1.17188 2.988282,-1.17188 z m 0,0"
       style="fill:#000000;fill-opacity:1;fill-rule:nonzero;stroke:none" />
    <path
       id="path160"
       d="m 62.785156,27.757771 c 0.625,0 1.15625,0.16016 1.585937,0.48828 0.402344,0.35156 0.605469,0.79297 0.605469,1.32813 0,0.89843 -0.464843,1.73828 -1.390625,2.51953 -0.9375,0.78125 -1.9375,1.17187 -3.007812,1.17187 -0.625,0 -1.152344,-0.16406 -1.582032,-0.48828 -0.402343,-0.35156 -0.605468,-0.79687 -0.605468,-1.32812 0,-0.89844 0.46875,-1.73828 1.40625,-2.51953 0.914062,-0.78125 1.910156,-1.17188 2.988281,-1.17188 z m 0,0"
       style="fill:#000000;fill-opacity:1;fill-rule:nonzero;stroke:none" />
    <path
       id="path224"
       d="m 11.375,22.894491 c -0.496094,0 -0.800781,0.19531 -0.917969,0.58594 -0.08984,0.28515 -0.136719,0.76562 -0.136719,1.44531 v 0.58594 c 0,0.67578 0.04687,1.15625 0.136719,1.44531 0.117188,0.39062 0.421875,0.58594 0.917969,0.58594 0.546875,0 0.890625,-0.23047 1.035156,-0.6836 0.128906,-0.42968 0.195313,-0.97656 0.195313,-1.64062 0,-0.76953 -0.07031,-1.34766 -0.214844,-1.73828 -0.15625,-0.39063 -0.496094,-0.58594 -1.015625,-0.58594 z m -1.054688,-0.19531 c 0.390625,-0.15625 0.742188,-0.25 1.054688,-0.27344 1.042969,0 1.875,0.23437 2.5,0.70312 0.597656,0.48047 0.898437,1.17188 0.898437,2.07032 0,0.91015 -0.304687,1.61328 -0.917968,2.10937 -0.613282,0.46875 -1.4375,0.70313 -2.480469,0.70313 -1.066407,0 -1.9023439,-0.4961 -2.4999999,-1.48438 -0.597657,-0.99219 -0.898438,-2.16406 -0.898438,-3.51562 0,-1.32813 0.351563,-2.5 1.054688,-3.51563 0.714843,-0.99219 1.6328119,-1.48437 2.7539059,-1.48437 0.730469,0 1.375,0.1875 1.933594,0.5664 0.546875,0.375 0.820312,0.8711 0.820312,1.48438 0,0.375 -0.128906,0.6875 -0.390625,0.9375 -0.234375,0.25781 -0.535156,0.39062 -0.898437,0.39062 -0.363281,0 -0.675781,-0.13281 -0.9375,-0.39062 -0.261719,-0.26172 -0.390625,-0.57422 -0.390625,-0.9375 0,-0.14453 0.128906,-0.3086 0.390625,-0.48828 0.261719,-0.15625 0.390625,-0.32032 0.390625,-0.48828 0,-0.1836 -0.08984,-0.33204 -0.273438,-0.44922 -0.207031,-0.10547 -0.421875,-0.15625 -0.644531,-0.15625 -0.597656,0 -0.996094,0.23828 -1.191406,0.72265 -0.207031,0.46875 -0.3125,1.15235 -0.3125,2.05078 0,0.25782 0.0078,0.5 0.01953,0.72266 0.01172,0.21875 0.01953,0.46094 0.01953,0.72266 z m 0,0"
       style="fill:#000000;fill-opacity:1;fill-rule:nonzero;stroke:none" />
    <path
       id="path226"
       d="m 12.808593,32.249961 c 0.652344,-0.71875 0.976563,-1.39453 0.976563,-2.03125 0,-0.53516 -0.226563,-0.95703 -0.683594,-1.26953 -0.441406,-0.3125 -0.988281,-0.46875 -1.640625,-0.46875 -0.457031,0 -0.820312,0.14062 -1.09375,0.42968 -0.273437,0.28516 -0.4101559,0.60938 -0.4101559,0.97657 0,0.45312 0.2031249,0.80468 0.6054689,1.05468 z m 0.605469,0.33203 c 1.105469,0.63672 1.660157,1.48828 1.660157,2.55859 0,0.79297 -0.332032,1.46485 -0.996094,2.01172 -0.664063,0.57422 -1.59375,0.85938 -2.792969,0.85938 -1.015625,0 -1.8671869,-0.26172 -2.5585939,-0.78125 -0.730469,-0.51953 -1.09375,-1.19141 -1.09375,-2.01172 0,-0.30078 0.089844,-0.6211 0.273438,-0.95703 0.167969,-0.30078 0.339843,-0.53516 0.507812,-0.70313 0.078125,-0.10547 0.324219,-0.35156 0.742188,-0.74219 -0.808594,-0.57421 -1.21875,-1.28515 -1.230469,-2.1289 0,-0.71875 0.320312,-1.34766 0.957031,-1.89453 0.636719,-0.52344 1.4960939,-0.78125 2.5781249,-0.78125 0.859375,0 1.613282,0.19531 2.265625,0.58593 0.625,0.39063 0.9375,0.92969 0.9375,1.6211 -0.02734,0.70312 -0.441406,1.48828 -1.25,2.36328 z m -3.6523429,0.58594 c -0.808594,0.71484 -1.222657,1.39843 -1.25,2.05078 0,0.66406 0.28125,1.21875 0.839843,1.66015 0.535157,0.44141 1.1796879,0.66407 1.9335939,0.66407 0.535156,0 0.949219,-0.16797 1.25,-0.50782 0.3125,-0.3125 0.46875,-0.69531 0.46875,-1.15234 0,-0.5625 -0.226563,-0.97266 -0.683594,-1.23047 z m 0,0"
       style="fill:#000000;fill-opacity:1;fill-rule:nonzero;stroke:none" />
    <path
       id="path266"
       d="m 64.324219,15.511681 h 16.253906 v 2.5 H 64.324219 Z m 0,0"
       style="fill:#000000;fill-opacity:1;fill-rule:evenodd;stroke:none" />
  </g>
</svg>
