<?xml version="1.0" encoding="UTF-8" standalone="no"?>
<svg
   xmlns:dc="http://purl.org/dc/elements/1.1/"
   xmlns:cc="http://creativecommons.org/ns#"
   xmlns:rdf="http://www.w3.org/1999/02/22-rdf-syntax-ns#"
   xmlns:svg="http://www.w3.org/2000/svg"
   xmlns="http://www.w3.org/2000/svg"
   xmlns:sodipodi="http://sodipodi.sourceforge.net/DTD/sodipodi-0.dtd"
   xmlns:inkscape="http://www.inkscape.org/namespaces/inkscape"
   inkscape:version="1.0 (4035a4f, 2020-05-01)"
   sodipodi:docname="Te19.svg"
   id="svg303"
   version="1.2"
   viewBox="0 0 92 45"
   height="45pt"
   width="92pt">
  <metadata
     id="metadata309">
    <rdf:RDF>
      <cc:Work
         rdf:about="">
        <dc:format>image/svg+xml</dc:format>
        <dc:type
           rdf:resource="http://purl.org/dc/dcmitype/StillImage" />
        <dc:title></dc:title>
      </cc:Work>
    </rdf:RDF>
  </metadata>
  <defs
     id="defs307" />
  <sodipodi:namedview
     inkscape:current-layer="surface3083"
     inkscape:window-maximized="1"
     inkscape:window-y="23"
     inkscape:window-x="0"
     inkscape:cy="518.4886"
     inkscape:cx="569.44694"
     inkscape:zoom="0.50027394"
     showgrid="false"
     id="namedview305"
     inkscape:window-height="855"
     inkscape:window-width="1440"
     inkscape:pageshadow="2"
     inkscape:pageopacity="0"
     guidetolerance="10"
     gridtolerance="10"
     objecttolerance="10"
     borderopacity="1"
     bordercolor="#666666"
     pagecolor="#ffffff" />
  <g
     id="surface3083">
    <path
       id="path26"
       d="M 3.7500001,17.960521 H 90 M 3.7500001,22.972241 H 90 M 3.7500001,27.987861 H 90 M 3.7500001,33.003491 H 90 M 3.7500001,38.015211 H 90"
       style="fill:none;stroke:#000000;stroke-width:0.349073;stroke-linecap:butt;stroke-linejoin:bevel;stroke-miterlimit:10;stroke-opacity:1" />
    <path
       id="path48"
       d="m 90,17.960521 v 20.00391"
       style="fill:none;stroke:#000000;stroke-width:0.80005;stroke-linecap:butt;stroke-linejoin:bevel;stroke-miterlimit:10;stroke-opacity:1" />
    <path
       id="path96"
       d="m 30.140625,29.523021 v -15.3125"
       style="fill:none;stroke:#000000;stroke-width:0.650041;stroke-linecap:round;stroke-linejoin:bevel;stroke-miterlimit:10;stroke-opacity:1" />
    <path
       id="path112"
       d="m 79.46875,29.523021 v -15.3125"
       style="fill:none;stroke:#000000;stroke-width:0.650041;stroke-linecap:round;stroke-linejoin:bevel;stroke-miterlimit:10;stroke-opacity:1" />
    <path
       id="path114"
       d="m 57.242187,29.523021 v -15.3125"
       style="fill:none;stroke:#000000;stroke-width:0.650041;stroke-linecap:round;stroke-linejoin:bevel;stroke-miterlimit:10;stroke-opacity:1" />
    <path
       id="path190"
       d="m 55.378906,27.706611 c 0.625,0 1.152344,0.16407 1.582031,0.48828 0.40625,0.35157 0.605469,0.79688 0.605469,1.32813 0,0.89844 -0.460937,1.73828 -1.386719,2.52344 -0.9375,0.78125 -1.9375,1.17187 -3.007812,1.17187 -0.625,0 -1.152344,-0.16406 -1.582032,-0.48828 -0.402343,-0.35547 -0.605468,-0.79687 -0.605468,-1.33203 0,-0.89844 0.46875,-1.73828 1.40625,-2.51953 0.914062,-0.78125 1.910156,-1.17188 2.988281,-1.17188 z m 0,0"
       style="fill:#000000;fill-opacity:1;fill-rule:nonzero;stroke:none" />
    <path
       id="path192"
       d="m 28.277343,27.706611 c 0.625,0 1.152344,0.16407 1.582032,0.48828 0.40625,0.35157 0.605468,0.79688 0.605468,1.32813 0,0.89844 -0.460937,1.73828 -1.386718,2.52344 -0.9375,0.78125 -1.9375,1.17187 -3.007813,1.17187 -0.625,0 -1.152343,-0.16406 -1.582031,-0.48828 -0.402344,-0.35547 -0.605469,-0.79687 -0.605469,-1.33203 0,-0.89844 0.46875,-1.73828 1.40625,-2.51953 0.914063,-0.78125 1.910157,-1.17188 2.988281,-1.17188 z m 0,0"
       style="fill:#000000;fill-opacity:1;fill-rule:nonzero;stroke:none" />
    <path
       id="path198"
       d="m 77.605469,27.706611 c 0.625,0 1.152343,0.16407 1.582031,0.48828 0.402343,0.35157 0.605469,0.79688 0.605469,1.32813 0,0.89844 -0.460938,1.73828 -1.386719,2.52344 -0.9375,0.78125 -1.941407,1.17187 -3.007813,1.17187 -0.625,0 -1.152344,-0.16406 -1.582031,-0.48828 -0.402344,-0.35547 -0.605469,-0.79687 -0.605469,-1.33203 0,-0.89844 0.46875,-1.73828 1.40625,-2.51953 0.910156,-0.78125 1.90625,-1.17188 2.988282,-1.17188 z m 0,0"
       style="fill:#000000;fill-opacity:1;fill-rule:nonzero;stroke:none" />
    <path
       id="path244"
       d="m 11.375,22.843331 c -0.496094,0 -0.800781,0.19531 -0.917969,0.58594 -0.08984,0.28906 -0.136719,0.76953 -0.136719,1.44531 v 0.58594 c 0,0.67969 0.04687,1.16016 0.136719,1.44531 0.117188,0.39063 0.421875,0.58594 0.917969,0.58594 0.546875,0 0.890625,-0.22656 1.035156,-0.68359 0.128906,-0.42969 0.195313,-0.97657 0.195313,-1.64063 0,-0.76562 -0.07031,-1.34766 -0.214844,-1.73828 -0.15625,-0.39063 -0.496094,-0.58594 -1.015625,-0.58594 z m -1.054688,-0.19531 c 0.390625,-0.15625 0.742188,-0.24609 1.054688,-0.27344 1.042969,0 1.875,0.23438 2.5,0.70313 0.597656,0.48437 0.898437,1.17187 0.898437,2.07031 0,0.91406 -0.304687,1.61719 -0.917968,2.10937 -0.613282,0.46875 -1.4375,0.70313 -2.480469,0.70313 -1.066407,0 -1.9023439,-0.49219 -2.4999999,-1.48438 -0.597657,-0.98828 -0.898438,-2.16015 -0.898438,-3.51562 0,-1.32813 0.351563,-2.5 1.054688,-3.51563 0.714843,-0.98828 1.6328119,-1.48437 2.7539059,-1.48437 0.730469,0 1.375,0.19141 1.933594,0.56641 0.546875,0.3789 0.820312,0.875 0.820312,1.48437 0,0.37891 -0.128906,0.69141 -0.390625,0.9375 -0.234375,0.26172 -0.535156,0.39063 -0.898437,0.39063 -0.363281,0 -0.675781,-0.12891 -0.9375,-0.39063 -0.261719,-0.25781 -0.390625,-0.57031 -0.390625,-0.9375 0,-0.14062 0.128906,-0.30469 0.390625,-0.48828 0.261719,-0.15625 0.390625,-0.31641 0.390625,-0.48828 0,-0.17969 -0.08984,-0.33203 -0.273438,-0.44922 -0.207031,-0.10156 -0.421875,-0.15625 -0.644531,-0.15625 -0.597656,0 -0.996094,0.24219 -1.191406,0.72266 -0.207031,0.46875 -0.3125,1.15234 -0.3125,2.05078 0,0.26172 0.0078,0.5039 0.01953,0.72265 0.01172,0.22266 0.01953,0.46485 0.01953,0.72266 z m 0,0"
       style="fill:#000000;fill-opacity:1;fill-rule:nonzero;stroke:none" />
    <path
       id="path246"
       d="m 12.808593,32.198801 c 0.652344,-0.71484 0.976563,-1.39062 0.976563,-2.03125 0,-0.53125 -0.226563,-0.95703 -0.683594,-1.26953 -0.441406,-0.3125 -0.988281,-0.46875 -1.640625,-0.46875 -0.457031,0 -0.820312,0.14453 -1.09375,0.42969 -0.273437,0.28906 -0.4101559,0.61328 -0.4101559,0.97656 0,0.45703 0.2031249,0.80859 0.6054689,1.05469 z m 0.605469,0.33594 c 1.105469,0.63672 1.660157,1.48828 1.660157,2.55859 0,0.79297 -0.332032,1.46485 -0.996094,2.01172 -0.664063,0.57031 -1.59375,0.85938 -2.792969,0.85938 -1.015625,0 -1.8671869,-0.26172 -2.5585939,-0.78125 -0.730469,-0.52344 -1.09375,-1.19141 -1.09375,-2.01172 0,-0.30078 0.089844,-0.6211 0.273438,-0.95703 0.167969,-0.30079 0.339843,-0.53516 0.507812,-0.70313 0.078125,-0.10547 0.324219,-0.35156 0.742188,-0.74219 -0.808594,-0.57422 -1.21875,-1.28515 -1.230469,-2.13281 0,-0.71484 0.320312,-1.34766 0.957031,-1.89453 0.636719,-0.51953 1.4960939,-0.78125 2.5781249,-0.78125 0.859375,0 1.613282,0.19531 2.265625,0.58594 0.625,0.39062 0.9375,0.93359 0.9375,1.62109 -0.02734,0.70313 -0.441406,1.49219 -1.25,2.36719 z m -3.6523429,0.58594 c -0.808594,0.71484 -1.222657,1.39843 -1.25,2.05078 0,0.66406 0.28125,1.21484 0.839843,1.66015 0.535157,0.44141 1.1796879,0.66407 1.9335939,0.66407 0.535156,0 0.949219,-0.17188 1.25,-0.50782 0.3125,-0.3125 0.46875,-0.69922 0.46875,-1.15234 0,-0.5625 -0.226563,-0.97266 -0.683594,-1.23047 z m 0,0"
       style="fill:#000000;fill-opacity:1;fill-rule:nonzero;stroke:none" />
    <path
       id="path282"
       d="m 79.144531,19.210521 v -5 h 0.625 c 0,0.74219 0.144531,1.48437 0.429688,2.22656 0.3125,0.8086 0.65625,1.51172 1.035156,2.10938 0.273437,0.42968 0.683594,1.08984 1.230468,1.97265 0.417969,0.67969 0.769532,1.38672 1.054688,2.12891 0.285156,0.74219 0.429688,1.48437 0.429688,2.22656 0,1.35547 -0.28125,2.73438 -0.839844,4.14063 -0.08984,0.15625 -0.214844,0.23437 -0.371094,0.23437 -0.128906,0 -0.246094,-0.0508 -0.351562,-0.15625 -0.07813,-0.0781 -0.117188,-0.17578 -0.117188,-0.29297 v -0.0976 c 0.558594,-1.28907 0.839844,-2.5625 0.839844,-3.82813 0,-0.64844 -0.195313,-1.35156 -0.585938,-2.10937 -0.390625,-0.76563 -0.789062,-1.37891 -1.191406,-1.83594 -0.457031,-0.53125 -0.976562,-1.10547 -1.5625,-1.71875 z m 0,0"
       style="fill:#000000;fill-opacity:1;fill-rule:nonzero;stroke:none" />
    <path
       id="path294"
       d="m 32.550781,31.261301 c -0.222656,-0.21875 -0.332031,-0.48828 -0.332031,-0.80078 0,-0.3125 0.109375,-0.57813 0.332031,-0.80078 0.21875,-0.21875 0.488281,-0.33203 0.800781,-0.33203 0.3125,0 0.578125,0.11328 0.800781,0.33203 0.21875,0.22265 0.332032,0.48828 0.332032,0.80078 0,0.3125 -0.113282,0.58203 -0.332032,0.80078 -0.222656,0.22266 -0.488281,0.33203 -0.800781,0.33203 -0.3125,0 -0.582031,-0.10937 -0.800781,-0.33203 z m 0,0"
       style="fill:#000000;fill-opacity:1;fill-rule:nonzero;stroke:none" />
  </g>
</svg>
