<?xml version="1.0" encoding="UTF-8" standalone="no"?>
<svg
   xmlns:dc="http://purl.org/dc/elements/1.1/"
   xmlns:cc="http://creativecommons.org/ns#"
   xmlns:rdf="http://www.w3.org/1999/02/22-rdf-syntax-ns#"
   xmlns:svg="http://www.w3.org/2000/svg"
   xmlns="http://www.w3.org/2000/svg"
   xmlns:sodipodi="http://sodipodi.sourceforge.net/DTD/sodipodi-0.dtd"
   xmlns:inkscape="http://www.inkscape.org/namespaces/inkscape"
   inkscape:version="1.0 (4035a4f, 2020-05-01)"
   sodipodi:docname="Te23.svg"
   id="svg281"
   version="1.2"
   viewBox="0 0 92 45"
   height="45pt"
   width="92pt">
  <metadata
     id="metadata287">
    <rdf:RDF>
      <cc:Work
         rdf:about="">
        <dc:format>image/svg+xml</dc:format>
        <dc:type
           rdf:resource="http://purl.org/dc/dcmitype/StillImage" />
        <dc:title></dc:title>
      </cc:Work>
    </rdf:RDF>
  </metadata>
  <defs
     id="defs285" />
  <sodipodi:namedview
     inkscape:current-layer="surface3760"
     inkscape:window-maximized="1"
     inkscape:window-y="23"
     inkscape:window-x="0"
     inkscape:cy="561.33333"
     inkscape:cx="396.66667"
     inkscape:zoom="0.57630641"
     showgrid="false"
     id="namedview283"
     inkscape:window-height="855"
     inkscape:window-width="1440"
     inkscape:pageshadow="2"
     inkscape:pageopacity="0"
     guidetolerance="10"
     gridtolerance="10"
     objecttolerance="10"
     borderopacity="1"
     bordercolor="#666666"
     pagecolor="#ffffff" />
  <g
     id="surface3760">
    <path
       id="path10"
       d="M 3.7500001,17.960521 H 90 M 3.7500001,22.97224 H 90 M 3.7500001,27.987865 H 90 M 3.7500001,33.00349 H 90 M 3.7500001,38.015209 H 90"
       style="fill:none;stroke:#000000;stroke-width:0.349073;stroke-linecap:butt;stroke-linejoin:bevel;stroke-miterlimit:10;stroke-opacity:1" />
    <path
       id="path30"
       d="M 90,17.960521 V 37.964427"
       style="fill:none;stroke:#000000;stroke-width:0.80005;stroke-linecap:butt;stroke-linejoin:bevel;stroke-miterlimit:10;stroke-opacity:1" />
    <path
       id="path50"
       d="m 30.144531,29.523021 v -15.3125"
       style="fill:none;stroke:#000000;stroke-width:0.650041;stroke-linecap:round;stroke-linejoin:bevel;stroke-miterlimit:10;stroke-opacity:1" />
    <path
       id="path52"
       d="M 45.738281,29.694896 V 14.210521"
       style="fill:none;stroke:#000000;stroke-width:0.650041;stroke-linecap:round;stroke-linejoin:bevel;stroke-miterlimit:10;stroke-opacity:1" />
    <path
       id="path54"
       d="m 79.472656,29.523021 v -15.3125"
       style="fill:none;stroke:#000000;stroke-width:0.650041;stroke-linecap:round;stroke-linejoin:bevel;stroke-miterlimit:10;stroke-opacity:1" />
    <path
       id="path124"
       d="m 28.28125,27.706615 c 0.625,0 1.152344,0.164062 1.582031,0.488281 0.402344,0.351563 0.605469,0.796875 0.605469,1.328125 0,0.898438 -0.460938,1.738282 -1.386719,2.519532 -0.9375,0.785156 -1.941406,1.171874 -3.007812,1.171874 -0.625,0 -1.152344,-0.160156 -1.582031,-0.488281 -0.402344,-0.351562 -0.605469,-0.792969 -0.605469,-1.328125 0,-0.898437 0.46875,-1.738281 1.40625,-2.519531 0.910156,-0.78125 1.90625,-1.171875 2.988281,-1.171875 z m 0,0"
       style="fill:#000000;fill-opacity:1;fill-rule:nonzero;stroke:none" />
    <path
       id="path126"
       d="m 45.429688,29.151927 c 0,-0.21875 -0.08594,-0.410156 -0.253907,-0.566406 -0.167969,-0.167968 -0.363281,-0.253906 -0.585937,-0.253906 -0.390625,0 -1.179688,0.390625 -2.363282,1.171875 -1.222656,0.796875 -1.972656,1.363281 -2.246093,1.699219 -0.144531,0.183594 -0.214844,0.371094 -0.214844,0.566406 0,0.222656 0.08594,0.410156 0.253906,0.566406 0.15625,0.171875 0.351563,0.253906 0.585938,0.253906 0.378906,0 1.171875,-0.390624 2.382812,-1.171874 1.199219,-0.78125 1.941407,-1.347657 2.226563,-1.699219 0.144531,-0.167969 0.214844,-0.355469 0.214844,-0.566407 z m -1.035157,-1.445312 c 1.121094,0 1.679688,0.484375 1.679688,1.445312 0,0.46875 -0.136719,1.015626 -0.410157,1.640626 -0.273437,0.613281 -0.636718,1.082031 -1.09375,1.40625 -1.003906,0.679687 -2.257812,1.015624 -3.769531,1.015624 -1.121093,0 -1.679687,-0.480468 -1.679687,-1.445312 0,-0.429688 0.136718,-0.96875 0.410156,-1.621094 0.261719,-0.625 0.625,-1.097656 1.09375,-1.425781 1.003906,-0.675781 2.257812,-1.015625 3.769531,-1.015625 z m 0,0"
       style="fill:#000000;fill-opacity:1;fill-rule:nonzero;stroke:none" />
    <path
       id="path128"
       d="m 77.609375,27.706615 c 0.625,0 1.152344,0.164062 1.582031,0.488281 0.402344,0.351563 0.605469,0.796875 0.605469,1.328125 0,0.898438 -0.464844,1.738282 -1.386719,2.519532 -0.9375,0.785156 -1.941406,1.171874 -3.007812,1.171874 -0.625,0 -1.152344,-0.160156 -1.582032,-0.488281 -0.40625,-0.351562 -0.605468,-0.792969 -0.605468,-1.328125 0,-0.898437 0.46875,-1.738281 1.40625,-2.519531 0.910156,-0.78125 1.90625,-1.171875 2.988281,-1.171875 z m 0,0"
       style="fill:#000000;fill-opacity:1;fill-rule:nonzero;stroke:none" />
    <path
       id="path198"
       d="m 11.378906,22.843334 c -0.496094,0 -0.800781,0.195312 -0.917968,0.585937 -0.09375,0.289063 -0.136719,0.769532 -0.136719,1.445313 v 0.585937 c 0,0.679688 0.04297,1.160156 0.136719,1.445313 0.117187,0.390625 0.421874,0.585937 0.917968,0.585937 0.546875,0 0.890625,-0.226562 1.035156,-0.683594 0.128907,-0.429687 0.195313,-0.976562 0.195313,-1.640624 0,-0.765626 -0.07422,-1.347657 -0.214844,-1.738282 -0.15625,-0.390625 -0.496093,-0.585937 -1.015625,-0.585937 z m -1.054687,-0.195313 c 0.390625,-0.15625 0.742187,-0.246094 1.054687,-0.273437 1.039063,0 1.875,0.234375 2.5,0.703125 0.597656,0.484375 0.898438,1.171875 0.898438,2.070312 0,0.914063 -0.308594,1.617188 -0.917969,2.109375 -0.613281,0.46875 -1.441406,0.703125 -2.480469,0.703125 -1.070312,0 -1.9023439,-0.492187 -2.4999999,-1.484375 -0.601562,-0.988281 -0.898437,-2.160156 -0.898437,-3.515625 0,-1.328125 0.351562,-2.5 1.054687,-3.515625 0.714844,-0.988281 1.6328129,-1.484375 2.7539059,-1.484375 0.726563,0 1.371094,0.191406 1.933594,0.566406 0.546875,0.378907 0.820313,0.875 0.820313,1.484376 0,0.378906 -0.132813,0.691406 -0.390625,0.9375 -0.234375,0.261718 -0.535156,0.390624 -0.898438,0.390624 -0.367187,0 -0.679687,-0.128906 -0.9375,-0.390624 -0.261718,-0.257813 -0.390625,-0.570313 -0.390625,-0.9375 0,-0.140626 0.128907,-0.304688 0.390625,-0.488282 0.257813,-0.15625 0.390625,-0.316406 0.390625,-0.488281 0,-0.179687 -0.09375,-0.332031 -0.273437,-0.449219 -0.210938,-0.101562 -0.425782,-0.15625 -0.644532,-0.15625 -0.601562,0 -0.996093,0.242188 -1.191406,0.722656 -0.210937,0.46875 -0.3125,1.152344 -0.3125,2.050782 0,0.261718 0.0039,0.503906 0.01953,0.722656 0.01172,0.222656 0.01953,0.464844 0.01953,0.722656 z m 0,0"
       style="fill:#000000;fill-opacity:1;fill-rule:nonzero;stroke:none" />
    <path
       id="path200"
       d="m 12.8125,32.198803 c 0.648438,-0.714844 0.976562,-1.390626 0.976562,-2.03125 0,-0.53125 -0.230468,-0.957032 -0.683593,-1.269532 -0.445313,-0.3125 -0.992188,-0.46875 -1.640625,-0.46875 -0.457032,0 -0.820313,0.144532 -1.09375,0.429688 -0.273438,0.289062 -0.4101559,0.613281 -0.4101559,0.976562 0,0.457032 0.1992179,0.808594 0.6054679,1.054688 z m 0.605469,0.332031 c 1.105469,0.640625 1.660156,1.492187 1.660156,2.5625 0,0.792969 -0.332031,1.464843 -0.996094,2.011719 -0.664062,0.570312 -1.597656,0.859374 -2.792969,0.859374 -1.015624,0 -1.8710929,-0.261718 -2.5585929,-0.78125 -0.730469,-0.523437 -1.09375,-1.191406 -1.09375,-2.011718 0,-0.300782 0.089843,-0.621094 0.273437,-0.957032 0.167969,-0.300781 0.335938,-0.535156 0.507813,-0.703124 0.078125,-0.105469 0.324219,-0.355469 0.742187,-0.742188 -0.808594,-0.574219 -1.21875,-1.285156 -1.230468,-2.132812 0,-0.714844 0.316406,-1.347657 0.957031,-1.894532 0.636719,-0.519531 1.4960929,-0.78125 2.5781249,-0.78125 0.859375,0 1.613281,0.195313 2.265625,0.585938 0.625,0.390625 0.9375,0.933594 0.9375,1.621094 -0.02734,0.703124 -0.445313,1.492187 -1.25,2.363281 z m -3.6523439,0.589843 c -0.808594,0.714844 -1.226563,1.398438 -1.25,2.050782 0,0.664062 0.277344,1.214844 0.839844,1.660156 0.53125,0.441406 1.1757809,0.664062 1.9335929,0.664062 0.53125,0 0.949219,-0.171874 1.25,-0.507812 0.3125,-0.3125 0.46875,-0.699219 0.46875,-1.152344 0,-0.5625 -0.230468,-0.972656 -0.683593,-1.230468 z m 0,0"
       style="fill:#000000;fill-opacity:1;fill-rule:nonzero;stroke:none" />
    <path
       id="path246"
       d="m 29.820312,19.210521 v -5 h 0.625 c 0,0.742188 0.140626,1.484375 0.429688,2.226563 0.3125,0.808593 0.65625,1.511719 1.035156,2.109375 0.273438,0.429687 0.683594,1.089844 1.230469,1.972656 0.417969,0.679688 0.769531,1.386719 1.054687,2.128906 0.285157,0.742188 0.429688,1.484375 0.429688,2.226563 0,1.355469 -0.28125,2.734375 -0.839844,4.140625 -0.08984,0.15625 -0.214844,0.234375 -0.371094,0.234375 -0.128906,0 -0.246093,-0.05078 -0.351562,-0.15625 -0.07813,-0.07813 -0.117188,-0.175781 -0.117188,-0.292969 v -0.09766 c 0.558594,-1.289063 0.839844,-2.5625 0.839844,-3.828125 0,-0.648438 -0.195312,-1.351563 -0.585937,-2.109375 -0.390625,-0.765625 -0.789063,-1.378906 -1.191407,-1.835938 -0.457031,-0.53125 -0.976562,-1.105468 -1.5625,-1.71875 z m 0,0"
       style="fill:#000000;fill-opacity:1;fill-rule:nonzero;stroke:none" />
    <path
       id="path248"
       d="m 79.144531,19.210521 v -5 h 0.625 c 0,0.742188 0.144531,1.484375 0.429688,2.226563 0.3125,0.808593 0.660156,1.511719 1.035156,2.109375 0.277344,0.429687 0.683594,1.089844 1.234375,1.972656 0.414062,0.679688 0.765625,1.386719 1.054688,2.128906 0.285156,0.742188 0.429687,1.484375 0.429687,2.226563 0,1.355469 -0.28125,2.734375 -0.839844,4.140625 -0.09375,0.15625 -0.214843,0.234375 -0.371093,0.234375 -0.132813,0 -0.25,-0.05078 -0.351563,-0.15625 -0.07813,-0.07813 -0.117187,-0.175781 -0.117187,-0.292969 v -0.09766 c 0.558593,-1.289063 0.839843,-2.5625 0.839843,-3.828125 0,-0.648438 -0.195312,-1.351563 -0.585937,-2.109375 -0.390625,-0.765625 -0.789063,-1.378906 -1.191406,-1.835938 -0.457032,-0.53125 -0.980469,-1.105468 -1.566407,-1.71875 z m 0,0"
       style="fill:#000000;fill-opacity:1;fill-rule:nonzero;stroke:none" />
  </g>
</svg>
