<?xml version="1.0" encoding="UTF-8" standalone="no"?>
<svg
   xmlns:dc="http://purl.org/dc/elements/1.1/"
   xmlns:cc="http://creativecommons.org/ns#"
   xmlns:rdf="http://www.w3.org/1999/02/22-rdf-syntax-ns#"
   xmlns:svg="http://www.w3.org/2000/svg"
   xmlns="http://www.w3.org/2000/svg"
   xmlns:sodipodi="http://sodipodi.sourceforge.net/DTD/sodipodi-0.dtd"
   xmlns:inkscape="http://www.inkscape.org/namespaces/inkscape"
   inkscape:version="1.0 (4035a4f, 2020-05-01)"
   sodipodi:docname="Te26.svg"
   id="svg281"
   version="1.2"
   viewBox="0 0 92 45"
   height="45pt"
   width="92pt">
  <metadata
     id="metadata287">
    <rdf:RDF>
      <cc:Work
         rdf:about="">
        <dc:format>image/svg+xml</dc:format>
        <dc:type
           rdf:resource="http://purl.org/dc/dcmitype/StillImage" />
        <dc:title></dc:title>
      </cc:Work>
    </rdf:RDF>
  </metadata>
  <defs
     id="defs285" />
  <sodipodi:namedview
     inkscape:current-layer="surface3760"
     inkscape:window-maximized="1"
     inkscape:window-y="23"
     inkscape:window-x="0"
     inkscape:cy="528.08496"
     inkscape:cx="449.00425"
     inkscape:zoom="0.50269733"
     showgrid="false"
     id="namedview283"
     inkscape:window-height="855"
     inkscape:window-width="1440"
     inkscape:pageshadow="2"
     inkscape:pageopacity="0"
     guidetolerance="10"
     gridtolerance="10"
     objecttolerance="10"
     borderopacity="1"
     bordercolor="#666666"
     pagecolor="#ffffff" />
  <g
     id="surface3760">
    <path
       id="path16"
       d="M 3.7500001,17.960521 H 90 M 3.7500001,22.972241 H 90 M 3.7500001,27.987861 H 90 M 3.7500001,32.999581 H 90 M 3.7500001,38.011301 H 90"
       style="fill:none;stroke:#000000;stroke-width:0.349073;stroke-linecap:butt;stroke-linejoin:bevel;stroke-miterlimit:10;stroke-opacity:1" />
    <path
       id="path36"
       d="m 90,17.960521 v 20"
       style="fill:none;stroke:#000000;stroke-width:0.80005;stroke-linecap:butt;stroke-linejoin:bevel;stroke-miterlimit:10;stroke-opacity:1" />
    <path
       id="path70"
       d="M 30.144531,29.519111 V 16.710521"
       style="fill:none;stroke:#000000;stroke-width:0.650041;stroke-linecap:round;stroke-linejoin:bevel;stroke-miterlimit:10;stroke-opacity:1" />
    <path
       id="path72"
       d="M 69.964844,29.519111 V 14.210521"
       style="fill:none;stroke:#000000;stroke-width:0.650041;stroke-linecap:round;stroke-linejoin:bevel;stroke-miterlimit:10;stroke-opacity:1" />
    <path
       id="path74"
       d="M 56.691406,29.519111 V 16.710521"
       style="fill:none;stroke:#000000;stroke-width:0.650041;stroke-linecap:round;stroke-linejoin:bevel;stroke-miterlimit:10;stroke-opacity:1" />
    <path
       id="path76"
       d="M 43.417969,29.519111 V 16.710521"
       style="fill:none;stroke:#000000;stroke-width:0.650041;stroke-linecap:round;stroke-linejoin:bevel;stroke-miterlimit:10;stroke-opacity:1" />
    <path
       id="path144"
       d="m 28.28125,27.706611 c 0.625,0 1.152344,0.16407 1.582031,0.48828 0.402344,0.35157 0.605469,0.79297 0.605469,1.32813 0,0.89844 -0.460938,1.73828 -1.386719,2.51953 -0.9375,0.78125 -1.941406,1.17188 -3.007812,1.17188 -0.625,0 -1.152344,-0.16407 -1.582031,-0.48829 -0.402344,-0.35156 -0.605469,-0.79296 -0.605469,-1.32812 0,-0.89844 0.46875,-1.73828 1.40625,-2.51953 0.910156,-0.78125 1.90625,-1.17188 2.988281,-1.17188 z m 0,0"
       style="fill:#000000;fill-opacity:1;fill-rule:nonzero;stroke:none" />
    <path
       id="path146"
       d="m 68.101562,27.706611 c 0.625,0 1.152344,0.16407 1.582032,0.48828 0.402344,0.35157 0.605468,0.79297 0.605468,1.32813 0,0.89844 -0.464843,1.73828 -1.386718,2.51953 -0.9375,0.78125 -1.941406,1.17188 -3.007813,1.17188 -0.625,0 -1.152343,-0.16407 -1.582031,-0.48829 -0.40625,-0.35156 -0.605469,-0.79296 -0.605469,-1.32812 0,-0.89844 0.46875,-1.73828 1.40625,-2.51953 0.910157,-0.78125 1.90625,-1.17188 2.988281,-1.17188 z m 0,0"
       style="fill:#000000;fill-opacity:1;fill-rule:nonzero;stroke:none" />
    <path
       id="path148"
       d="m 54.828125,27.706611 c 0.625,0 1.152344,0.16407 1.582031,0.48828 0.402344,0.35157 0.605469,0.79297 0.605469,1.32813 0,0.89844 -0.460937,1.73828 -1.386719,2.51953 -0.9375,0.78125 -1.941406,1.17188 -3.007812,1.17188 -0.625,0 -1.152344,-0.16407 -1.582032,-0.48829 -0.40625,-0.35156 -0.605468,-0.79296 -0.605468,-1.32812 0,-0.89844 0.46875,-1.73828 1.40625,-2.51953 0.910156,-0.78125 1.90625,-1.17188 2.988281,-1.17188 z m 0,0"
       style="fill:#000000;fill-opacity:1;fill-rule:nonzero;stroke:none" />
    <path
       id="path150"
       d="m 41.554688,27.706611 c 0.625,0 1.152343,0.16407 1.582031,0.48828 0.402343,0.35157 0.605469,0.79297 0.605469,1.32813 0,0.89844 -0.460938,1.73828 -1.386719,2.51953 -0.9375,0.78125 -1.941407,1.17188 -3.007813,1.17188 -0.625,0 -1.152344,-0.16407 -1.582031,-0.48829 -0.402344,-0.35156 -0.605469,-0.79296 -0.605469,-1.32812 0,-0.89844 0.46875,-1.73828 1.40625,-2.51953 0.910156,-0.78125 1.90625,-1.17188 2.988282,-1.17188 z m 0,0"
       style="fill:#000000;fill-opacity:1;fill-rule:nonzero;stroke:none" />
    <path
       id="path210"
       d="m 11.378906,22.843331 c -0.496094,0 -0.800781,0.19531 -0.917968,0.58594 -0.09375,0.28516 -0.136719,0.76562 -0.136719,1.44531 v 0.58594 c 0,0.67578 0.04297,1.16016 0.136719,1.44531 0.117187,0.39063 0.421874,0.58594 0.917968,0.58594 0.546875,0 0.890625,-0.22656 1.035156,-0.68359 0.128907,-0.42969 0.195313,-0.97657 0.195313,-1.64063 0,-0.76953 -0.07422,-1.34766 -0.214844,-1.73828 -0.15625,-0.39063 -0.496093,-0.58594 -1.015625,-0.58594 z m -1.054687,-0.19531 c 0.390625,-0.15625 0.742187,-0.25 1.054687,-0.27344 1.039063,0 1.875,0.23438 2.5,0.70313 0.597656,0.48047 0.898438,1.17187 0.898438,2.07031 0,0.91016 -0.308594,1.61328 -0.917969,2.10937 -0.613281,0.46875 -1.441406,0.70313 -2.480469,0.70313 -1.070312,0 -1.9023439,-0.49609 -2.4999999,-1.48438 -0.601562,-0.99218 -0.898437,-2.16406 -0.898437,-3.51562 0,-1.32813 0.351562,-2.5 1.054687,-3.51563 0.714844,-0.99218 1.6328129,-1.48437 2.7539059,-1.48437 0.726563,0 1.371094,0.1875 1.933594,0.56641 0.546875,0.375 0.820313,0.87109 0.820313,1.48437 0,0.375 -0.132813,0.6875 -0.390625,0.9375 -0.234375,0.25781 -0.535156,0.39063 -0.898438,0.39063 -0.367187,0 -0.679687,-0.13282 -0.9375,-0.39063 -0.261718,-0.26172 -0.390625,-0.57422 -0.390625,-0.9375 0,-0.14453 0.128907,-0.30859 0.390625,-0.48828 0.257813,-0.15625 0.390625,-0.32031 0.390625,-0.48828 0,-0.1836 -0.09375,-0.33203 -0.273437,-0.44922 -0.210938,-0.10547 -0.425782,-0.15625 -0.644532,-0.15625 -0.601562,0 -0.996093,0.23828 -1.191406,0.72266 -0.210937,0.46875 -0.3125,1.15234 -0.3125,2.05078 0,0.25781 0.0039,0.5 0.01953,0.72265 0.01172,0.21875 0.01953,0.46094 0.01953,0.72266 z m 0,0"
       style="fill:#000000;fill-opacity:1;fill-rule:nonzero;stroke:none" />
    <path
       id="path212"
       d="m 12.8125,32.198801 c 0.648438,-0.71484 0.976562,-1.39453 0.976562,-2.03125 0,-0.53516 -0.230468,-0.95703 -0.683593,-1.26953 -0.445313,-0.3125 -0.992188,-0.46875 -1.640625,-0.46875 -0.457032,0 -0.820313,0.14453 -1.09375,0.42969 -0.273438,0.28515 -0.4101559,0.61328 -0.4101559,0.97656 0,0.45703 0.1992179,0.80859 0.6054679,1.05469 z m 0.605469,0.33203 c 1.105469,0.63672 1.660156,1.49219 1.660156,2.5586 0,0.79296 -0.332031,1.46484 -0.996094,2.01171 -0.664062,0.57422 -1.597656,0.85938 -2.792969,0.85938 -1.015624,0 -1.8710929,-0.26172 -2.5585929,-0.78125 -0.730469,-0.51953 -1.09375,-1.19141 -1.09375,-2.01172 0,-0.30078 0.089843,-0.61719 0.273437,-0.95703 0.167969,-0.30078 0.335938,-0.53516 0.507813,-0.70313 0.078125,-0.10546 0.324219,-0.35156 0.742187,-0.74218 -0.808594,-0.57422 -1.21875,-1.28125 -1.230468,-2.12891 0,-0.71484 0.316406,-1.34766 0.957031,-1.89453 0.636719,-0.51953 1.4960929,-0.78125 2.5781249,-0.78125 0.859375,0 1.613281,0.19531 2.265625,0.58594 0.625,0.39062 0.9375,0.92968 0.9375,1.62109 -0.02734,0.70313 -0.445313,1.49219 -1.25,2.36328 z m -3.6523439,0.58594 c -0.808594,0.71484 -1.226563,1.39844 -1.25,2.05078 0,0.66406 0.277344,1.21875 0.839844,1.66016 0.53125,0.4414 1.1757809,0.66406 1.9335929,0.66406 0.53125,0 0.949219,-0.16797 1.25,-0.50781 0.3125,-0.3125 0.46875,-0.69532 0.46875,-1.15235 0,-0.55859 -0.230468,-0.96875 -0.683593,-1.23047 z m 0,0"
       style="fill:#000000;fill-opacity:1;fill-rule:nonzero;stroke:none" />
    <path
       id="path240"
       d="m 29.820312,15.460521 h 27.195313 v 2.5 H 29.820312 Z m 0,0"
       style="fill:#000000;fill-opacity:1;fill-rule:evenodd;stroke:none" />
    <path
       id="path272"
       d="m 72.371094,31.261301 c -0.222656,-0.22266 -0.332032,-0.48828 -0.332032,-0.80078 0,-0.3125 0.109376,-0.57813 0.332032,-0.80078 0.222656,-0.22266 0.488281,-0.33203 0.800781,-0.33203 0.3125,0 0.578125,0.10937 0.800781,0.33203 0.222656,0.22265 0.332032,0.48828 0.332032,0.80078 0,0.3125 -0.109376,0.57812 -0.332032,0.80078 -0.222656,0.22266 -0.488281,0.33203 -0.800781,0.33203 -0.3125,0 -0.578125,-0.10937 -0.800781,-0.33203 z m 0,0"
       style="fill:#000000;fill-opacity:1;fill-rule:nonzero;stroke:none" />
  </g>
</svg>
