<?xml version="1.0" encoding="UTF-8" standalone="no"?>
<svg
   xmlns:dc="http://purl.org/dc/elements/1.1/"
   xmlns:cc="http://creativecommons.org/ns#"
   xmlns:rdf="http://www.w3.org/1999/02/22-rdf-syntax-ns#"
   xmlns:svg="http://www.w3.org/2000/svg"
   xmlns="http://www.w3.org/2000/svg"
   xmlns:sodipodi="http://sodipodi.sourceforge.net/DTD/sodipodi-0.dtd"
   xmlns:inkscape="http://www.inkscape.org/namespaces/inkscape"
   inkscape:version="1.0 (4035a4f, 2020-05-01)"
   sodipodi:docname="Te32.svg"
   id="svg281"
   version="1.2"
   viewBox="0 0 92 45"
   height="45pt"
   width="92pt">
  <metadata
     id="metadata287">
    <rdf:RDF>
      <cc:Work
         rdf:about="">
        <dc:format>image/svg+xml</dc:format>
        <dc:type
           rdf:resource="http://purl.org/dc/dcmitype/StillImage" />
        <dc:title></dc:title>
      </cc:Work>
    </rdf:RDF>
  </metadata>
  <defs
     id="defs285" />
  <sodipodi:namedview
     inkscape:current-layer="surface3760"
     inkscape:window-maximized="1"
     inkscape:window-y="23"
     inkscape:window-x="0"
     inkscape:cy="164.02924"
     inkscape:cx="241.5196"
     inkscape:zoom="1.1855196"
     showgrid="false"
     id="namedview283"
     inkscape:window-height="855"
     inkscape:window-width="1440"
     inkscape:pageshadow="2"
     inkscape:pageopacity="0"
     guidetolerance="10"
     gridtolerance="10"
     objecttolerance="10"
     borderopacity="1"
     bordercolor="#666666"
     pagecolor="#ffffff" />
  <g
     id="surface3760">
    <path
       id="path28"
       d="M 3.7500001,17.960521 H 90 M 3.7500001,22.972241 H 90 M 3.7500001,27.987861 H 90 M 3.7500001,32.999581 H 90 M 3.7500001,38.011301 H 90"
       style="fill:none;stroke:#000000;stroke-width:0.349073;stroke-linecap:butt;stroke-linejoin:bevel;stroke-miterlimit:10;stroke-opacity:1" />
    <path
       id="path48"
       d="m 90,17.960521 v 20"
       style="fill:none;stroke:#000000;stroke-width:0.80005;stroke-linecap:butt;stroke-linejoin:bevel;stroke-miterlimit:10;stroke-opacity:1" />
    <path
       id="path120"
       d="M 30.144531,29.519111 V 14.210521"
       style="fill:none;stroke:#000000;stroke-width:0.650041;stroke-linecap:round;stroke-linejoin:bevel;stroke-miterlimit:10;stroke-opacity:1" />
    <path
       id="path122"
       d="M 63.003906,29.519111 V 14.210521"
       style="fill:none;stroke:#000000;stroke-width:0.650041;stroke-linecap:round;stroke-linejoin:bevel;stroke-miterlimit:10;stroke-opacity:1" />
    <path
       id="path194"
       d="m 28.28125,27.706611 c 0.625,0 1.152344,0.16016 1.582031,0.48829 0.402344,0.35156 0.605469,0.79296 0.605469,1.32812 0,0.89844 -0.460938,1.73828 -1.386719,2.51953 -0.9375,0.78125 -1.941406,1.17188 -3.007812,1.17188 -0.625,0 -1.152344,-0.16407 -1.582031,-0.48828 -0.402344,-0.35157 -0.605469,-0.79688 -0.605469,-1.32813 0,-0.89844 0.46875,-1.73828 1.40625,-2.51953 0.910156,-0.78125 1.90625,-1.17188 2.988281,-1.17188 z m 0,0"
       style="fill:#000000;fill-opacity:1;fill-rule:nonzero;stroke:none" />
    <path
       id="path196"
       d="m 61.140625,27.706611 c 0.625,0 1.152344,0.16016 1.582031,0.48829 0.402344,0.35156 0.605469,0.79296 0.605469,1.32812 0,0.89844 -0.464844,1.73828 -1.386719,2.51953 -0.9375,0.78125 -1.941406,1.17188 -3.011718,1.17188 -0.625,0 -1.152344,-0.16407 -1.582032,-0.48828 -0.402344,-0.35157 -0.605468,-0.79688 -0.605468,-1.32813 0,-0.89844 0.46875,-1.73828 1.40625,-2.51953 0.914062,-0.78125 1.910156,-1.17188 2.992187,-1.17188 z m 0,0"
       style="fill:#000000;fill-opacity:1;fill-rule:nonzero;stroke:none" />
    <path
       id="path234"
       d="m 11.378906,22.843331 c -0.496094,0 -0.800781,0.19532 -0.917968,0.58594 -0.09375,0.28516 -0.136719,0.76563 -0.136719,1.44531 v 0.58594 c 0,0.67578 0.04297,1.15625 0.136719,1.44531 0.117187,0.39063 0.421874,0.58594 0.917968,0.58594 0.546875,0 0.890625,-0.23047 1.035156,-0.68359 0.128907,-0.42969 0.195313,-0.97657 0.195313,-1.64063 0,-0.76953 -0.07422,-1.34765 -0.214844,-1.73828 -0.15625,-0.39062 -0.496093,-0.58594 -1.015625,-0.58594 z m -1.054687,-0.19531 c 0.390625,-0.15625 0.742187,-0.25 1.054687,-0.27344 1.039063,0 1.875,0.23438 2.5,0.70313 0.597656,0.48047 0.898438,1.17187 0.898438,2.07031 0,0.91016 -0.308594,1.61328 -0.917969,2.10938 -0.613281,0.46875 -1.441406,0.70312 -2.480469,0.70312 -1.070312,0 -1.9023439,-0.49609 -2.4999999,-1.48437 -0.601562,-0.99219 -0.898437,-2.16407 -0.898437,-3.51563 0,-1.32812 0.351562,-2.5 1.054687,-3.51562 0.714844,-0.99219 1.6328129,-1.48438 2.7539059,-1.48438 0.726563,0 1.371094,0.1875 1.933594,0.56641 0.546875,0.375 0.820313,0.87109 0.820313,1.48437 0,0.375 -0.132813,0.6875 -0.390625,0.9375 -0.234375,0.25781 -0.535156,0.39063 -0.898438,0.39063 -0.367187,0 -0.679687,-0.13282 -0.9375,-0.39063 -0.261718,-0.26172 -0.390625,-0.57422 -0.390625,-0.9375 0,-0.14453 0.128907,-0.30859 0.390625,-0.48828 0.257813,-0.15625 0.390625,-0.32031 0.390625,-0.48828 0,-0.18359 -0.09375,-0.33203 -0.273437,-0.44922 -0.210938,-0.10547 -0.425782,-0.15625 -0.644532,-0.15625 -0.601562,0 -0.996093,0.23828 -1.191406,0.72266 -0.210937,0.46875 -0.3125,1.15234 -0.3125,2.05078 0,0.25781 0.0039,0.5 0.01953,0.72265 0.01172,0.21875 0.01953,0.46094 0.01953,0.72266 z m 0,0"
       style="fill:#000000;fill-opacity:1;fill-rule:nonzero;stroke:none" />
    <path
       id="path236"
       d="m 12.8125,32.198801 c 0.648438,-0.71875 0.976562,-1.39453 0.976562,-2.03125 0,-0.53515 -0.230468,-0.95703 -0.683593,-1.26953 -0.445313,-0.3125 -0.992188,-0.46875 -1.640625,-0.46875 -0.457032,0 -0.820313,0.14063 -1.09375,0.42969 -0.273438,0.28515 -0.4101559,0.60937 -0.4101559,0.97656 0,0.45313 0.1992179,0.80469 0.6054679,1.05469 z m 0.605469,0.33203 c 1.105469,0.63672 1.660156,1.48828 1.660156,2.5586 0,0.79297 -0.332031,1.46484 -0.996094,2.01172 -0.664062,0.57421 -1.597656,0.85937 -2.792969,0.85937 -1.015624,0 -1.8710929,-0.26172 -2.5585929,-0.78125 -0.730469,-0.51953 -1.09375,-1.19141 -1.09375,-2.01172 0,-0.30078 0.089843,-0.62109 0.273437,-0.95703 0.167969,-0.30078 0.335938,-0.53516 0.507813,-0.70312 0.078125,-0.10547 0.324219,-0.35157 0.742187,-0.74219 -0.808594,-0.57422 -1.21875,-1.28516 -1.230468,-2.12891 0,-0.71875 0.316406,-1.34765 0.957031,-1.89453 0.636719,-0.52344 1.4960929,-0.78125 2.5781249,-0.78125 0.859375,0 1.613281,0.19531 2.265625,0.58594 0.625,0.39062 0.9375,0.92969 0.9375,1.62109 -0.02734,0.70313 -0.445313,1.48828 -1.25,2.36328 z m -3.6523439,0.58594 c -0.808594,0.71484 -1.226563,1.39844 -1.25,2.05078 0,0.66406 0.277344,1.21875 0.839844,1.66016 0.53125,0.4414 1.1757809,0.66406 1.9335929,0.66406 0.53125,0 0.949219,-0.16797 1.25,-0.50781 0.3125,-0.3125 0.46875,-0.69531 0.46875,-1.15235 0,-0.55859 -0.230468,-0.97265 -0.683593,-1.23046 z m 0,0"
       style="fill:#000000;fill-opacity:1;fill-rule:nonzero;stroke:none" />
    <path
       id="path276"
       d="m 32.550781,31.261301 c -0.21875,-0.22265 -0.332031,-0.48828 -0.332031,-0.80078 0,-0.3125 0.113281,-0.58203 0.332031,-0.80078 0.222657,-0.22266 0.488281,-0.33203 0.800781,-0.33203 0.3125,0 0.582032,0.10937 0.800782,0.33203 0.222656,0.21875 0.332031,0.48828 0.332031,0.80078 0,0.3125 -0.109375,0.57813 -0.332031,0.80078 -0.21875,0.21875 -0.488282,0.33203 -0.800782,0.33203 -0.3125,0 -0.578124,-0.11328 -0.800781,-0.33203 z m 0,0"
       style="fill:#000000;fill-opacity:1;fill-rule:nonzero;stroke:none" />
    <path
       id="path278"
       d="m 65.410156,31.261301 c -0.222656,-0.22265 -0.332031,-0.48828 -0.332031,-0.80078 0,-0.3125 0.109375,-0.58203 0.332031,-0.80078 0.21875,-0.22266 0.488282,-0.33203 0.800782,-0.33203 0.3125,0 0.578124,0.10937 0.800781,0.33203 0.21875,0.21875 0.332031,0.48828 0.332031,0.80078 0,0.3125 -0.113281,0.57813 -0.332031,0.80078 -0.222657,0.21875 -0.488281,0.33203 -0.800781,0.33203 -0.3125,0 -0.582032,-0.11328 -0.800782,-0.33203 z m 0,0"
       style="fill:#000000;fill-opacity:1;fill-rule:nonzero;stroke:none" />
  </g>
</svg>
