<?xml version="1.0" encoding="UTF-8" standalone="no"?>
<svg
   xmlns:dc="http://purl.org/dc/elements/1.1/"
   xmlns:cc="http://creativecommons.org/ns#"
   xmlns:rdf="http://www.w3.org/1999/02/22-rdf-syntax-ns#"
   xmlns:svg="http://www.w3.org/2000/svg"
   xmlns="http://www.w3.org/2000/svg"
   xmlns:sodipodi="http://sodipodi.sourceforge.net/DTD/sodipodi-0.dtd"
   xmlns:inkscape="http://www.inkscape.org/namespaces/inkscape"
   inkscape:version="1.0 (4035a4f, 2020-05-01)"
   sodipodi:docname="Te6.svg"
   id="svg269"
   version="1.2"
   viewBox="0 0 92 45"
   height="45pt"
   width="92pt">
  <metadata
     id="metadata275">
    <rdf:RDF>
      <cc:Work
         rdf:about="">
        <dc:format>image/svg+xml</dc:format>
        <dc:type
           rdf:resource="http://purl.org/dc/dcmitype/StillImage" />
        <dc:title></dc:title>
      </cc:Work>
    </rdf:RDF>
  </metadata>
  <defs
     id="defs273" />
  <sodipodi:namedview
     inkscape:current-layer="surface3563"
     inkscape:window-maximized="1"
     inkscape:window-y="23"
     inkscape:window-x="0"
     inkscape:cy="306.71079"
     inkscape:cx="427.43136"
     inkscape:zoom="0.59709308"
     showgrid="false"
     id="namedview271"
     inkscape:window-height="855"
     inkscape:window-width="1440"
     inkscape:pageshadow="2"
     inkscape:pageopacity="0"
     guidetolerance="10"
     gridtolerance="10"
     objecttolerance="10"
     borderopacity="1"
     bordercolor="#666666"
     pagecolor="#ffffff" />
  <g
     id="surface3563">
    <path
       id="path20"
       d="M 3.7500001,17.960521 H 90 M 3.7500001,22.972241 H 90 M 3.7500001,27.987871 H 90 M 3.7500001,32.999591 H 90 M 3.7500001,38.011311 H 90"
       style="fill:none;stroke:#000000;stroke-width:0.349073;stroke-linecap:butt;stroke-linejoin:bevel;stroke-miterlimit:10;stroke-opacity:1" />
    <path
       id="path42"
       d="m 90,17.960521 v 20"
       style="fill:none;stroke:#000000;stroke-width:0.80005;stroke-linecap:butt;stroke-linejoin:bevel;stroke-miterlimit:10;stroke-opacity:1" />
    <path
       id="path80"
       d="m 30.144531,29.523021 v -15.3125"
       style="fill:none;stroke:#000000;stroke-width:0.650041;stroke-linecap:round;stroke-linejoin:bevel;stroke-miterlimit:10;stroke-opacity:1" />
    <path
       id="path90"
       d="M 55.601562,29.694901 V 14.210521"
       style="fill:none;stroke:#000000;stroke-width:0.650041;stroke-linecap:round;stroke-linejoin:bevel;stroke-miterlimit:10;stroke-opacity:1" />
    <path
       id="path154"
       d="m 28.28125,27.706621 c 0.625,0 1.152344,0.16406 1.582031,0.48828 0.402344,0.35156 0.605469,0.79297 0.605469,1.32812 0,0.89844 -0.460938,1.73829 -1.386719,2.51954 -0.9375,0.78125 -1.941406,1.17187 -3.007812,1.17187 -0.625,0 -1.152344,-0.16016 -1.582031,-0.48828 -0.402344,-0.35156 -0.605469,-0.79297 -0.605469,-1.32813 0,-0.89843 0.46875,-1.73828 1.40625,-2.51953 0.910156,-0.78125 1.90625,-1.17187 2.988281,-1.17187 z m 0,0"
       style="fill:#000000;fill-opacity:1;fill-rule:nonzero;stroke:none" />
    <path
       id="path162"
       d="m 55.289062,29.151931 c 0,-0.21875 -0.08203,-0.41016 -0.253906,-0.56641 -0.167968,-0.16796 -0.363281,-0.2539 -0.585937,-0.2539 -0.390625,0 -1.175781,0.39062 -2.363281,1.17187 -1.222657,0.79688 -1.972657,1.36328 -2.246094,1.69922 -0.144532,0.1836 -0.214844,0.3711 -0.214844,0.56641 0,0.22265 0.08594,0.41015 0.253906,0.5664 0.15625,0.17188 0.351563,0.25391 0.585938,0.25391 0.378906,0 1.171875,-0.39062 2.382812,-1.17187 1.199219,-0.78125 1.941406,-1.34766 2.226563,-1.69922 0.144531,-0.16797 0.214843,-0.35547 0.214843,-0.56641 z m -1.035156,-1.44531 c 1.121094,0 1.679688,0.48047 1.679688,1.44531 0,0.46875 -0.136719,1.01563 -0.410156,1.64063 -0.273438,0.61328 -0.636719,1.08203 -1.09375,1.40625 -1,0.67968 -2.257813,1.01562 -3.769532,1.01562 -1.121094,0 -1.679687,-0.48047 -1.679687,-1.44531 0,-0.42969 0.136719,-0.96875 0.410156,-1.6211 0.261719,-0.625 0.625,-1.10156 1.09375,-1.42578 1.003906,-0.67578 2.261719,-1.01562 3.769531,-1.01562 z m 0,0"
       style="fill:#000000;fill-opacity:1;fill-rule:nonzero;stroke:none" />
    <path
       id="path222"
       d="m 11.378906,22.843341 c -0.496094,0 -0.800781,0.19531 -0.917968,0.58593 -0.09375,0.28516 -0.136719,0.76954 -0.136719,1.44532 v 0.58593 c 0,0.67579 0.04297,1.16016 0.136719,1.44532 0.117187,0.39062 0.421874,0.58593 0.917968,0.58593 0.546875,0 0.890625,-0.22656 1.035156,-0.68359 0.128907,-0.42969 0.195313,-0.97656 0.195313,-1.64062 0,-0.76954 -0.07422,-1.34766 -0.214844,-1.73829 -0.15625,-0.39062 -0.496093,-0.58593 -1.015625,-0.58593 z m -1.054687,-0.19532 c 0.390625,-0.15625 0.742187,-0.24609 1.054687,-0.27343 1.039063,0 1.875,0.23437 2.5,0.70312 0.597656,0.48047 0.898438,1.17188 0.898438,2.07031 0,0.91016 -0.308594,1.61329 -0.917969,2.10938 -0.613281,0.46875 -1.441406,0.70312 -2.480469,0.70312 -1.070312,0 -1.9023439,-0.49609 -2.4999999,-1.48437 -0.601562,-0.98828 -0.898437,-2.16016 -0.898437,-3.51563 0,-1.32812 0.351562,-2.5 1.054687,-3.51562 0.714844,-0.98828 1.6328129,-1.48438 2.7539059,-1.48438 0.726563,0 1.371094,0.1875 1.933594,0.56641 0.546875,0.37891 0.820313,0.87109 0.820313,1.48438 0,0.3789 -0.132813,0.6914 -0.390625,0.9375 -0.234375,0.26171 -0.535156,0.39062 -0.898438,0.39062 -0.367187,0 -0.679687,-0.12891 -0.9375,-0.39062 -0.261718,-0.26172 -0.390625,-0.57422 -0.390625,-0.9375 0,-0.14454 0.128907,-0.30469 0.390625,-0.48829 0.257813,-0.15625 0.390625,-0.32031 0.390625,-0.48828 0,-0.18359 -0.09375,-0.33203 -0.273437,-0.44922 -0.210938,-0.10546 -0.425782,-0.15625 -0.644532,-0.15625 -0.601562,0 -0.996093,0.24219 -1.191406,0.72266 -0.210937,0.46875 -0.3125,1.15234 -0.3125,2.05078 0,0.26172 0.0039,0.5 0.01953,0.72266 0.01172,0.22265 0.01953,0.46094 0.01953,0.72265 z m 0,0"
       style="fill:#000000;fill-opacity:1;fill-rule:nonzero;stroke:none" />
    <path
       id="path224"
       d="m 12.8125,32.198811 c 0.648438,-0.71485 0.976562,-1.39063 0.976562,-2.03125 0,-0.53516 -0.230468,-0.95704 -0.683593,-1.26954 -0.445313,-0.3125 -0.992188,-0.46875 -1.640625,-0.46875 -0.457032,0 -0.820313,0.14454 -1.09375,0.42969 -0.273438,0.28516 -0.4101559,0.61328 -0.4101559,0.97656 0,0.45704 0.1992179,0.8086 0.6054679,1.05469 z m 0.605469,0.33203 c 1.105469,0.64062 1.660156,1.49218 1.660156,2.55859 0,0.79688 -0.332031,1.46484 -0.996094,2.01172 -0.664062,0.57422 -1.597656,0.85937 -2.792969,0.85937 -1.015624,0 -1.8710929,-0.25781 -2.5585929,-0.78125 -0.730469,-0.51953 -1.09375,-1.1914 -1.09375,-2.01171 0,-0.29688 0.089843,-0.61719 0.273437,-0.95704 0.167969,-0.29687 0.335938,-0.53125 0.507813,-0.70312 0.078125,-0.10156 0.324219,-0.35156 0.742187,-0.74219 -0.808594,-0.57031 -1.21875,-1.28125 -1.230468,-2.1289 0,-0.71485 0.316406,-1.34766 0.957031,-1.89454 0.636719,-0.51953 1.4960929,-0.78125 2.5781249,-0.78125 0.859375,0 1.613281,0.19532 2.265625,0.58594 0.625,0.39063 0.9375,0.9336 0.9375,1.6211 -0.02734,0.70312 -0.445313,1.49218 -1.25,2.36328 z m -3.6523439,0.58593 c -0.808594,0.71875 -1.226563,1.40235 -1.25,2.05079 0,0.66406 0.277344,1.21875 0.839844,1.66015 0.53125,0.44531 1.1757809,0.66406 1.9335929,0.66406 0.53125,0 0.949219,-0.16796 1.25,-0.50781 0.3125,-0.3125 0.46875,-0.69531 0.46875,-1.15234 0,-0.5586 -0.230468,-0.96875 -0.683593,-1.23047 z m 0,0"
       style="fill:#000000;fill-opacity:1;fill-rule:nonzero;stroke:none" />
  </g>
</svg>
