<?xml version="1.0" encoding="UTF-8" standalone="no"?>
<svg
   xmlns:dc="http://purl.org/dc/elements/1.1/"
   xmlns:cc="http://creativecommons.org/ns#"
   xmlns:rdf="http://www.w3.org/1999/02/22-rdf-syntax-ns#"
   xmlns:svg="http://www.w3.org/2000/svg"
   xmlns="http://www.w3.org/2000/svg"
   xmlns:sodipodi="http://sodipodi.sourceforge.net/DTD/sodipodi-0.dtd"
   xmlns:inkscape="http://www.inkscape.org/namespaces/inkscape"
   inkscape:version="1.0 (4035a4f, 2020-05-01)"
   sodipodi:docname="Te7.svg"
   id="svg269"
   version="1.2"
   viewBox="0 0 92 45"
   height="45pt"
   width="92pt">
  <metadata
     id="metadata275">
    <rdf:RDF>
      <cc:Work
         rdf:about="">
        <dc:format>image/svg+xml</dc:format>
        <dc:type
           rdf:resource="http://purl.org/dc/dcmitype/StillImage" />
        <dc:title></dc:title>
      </cc:Work>
    </rdf:RDF>
  </metadata>
  <defs
     id="defs273" />
  <sodipodi:namedview
     inkscape:current-layer="surface3563"
     inkscape:window-maximized="1"
     inkscape:window-y="23"
     inkscape:window-x="0"
     inkscape:cy="173.36138"
     inkscape:cx="229.05193"
     inkscape:zoom="1.1904099"
     showgrid="false"
     id="namedview271"
     inkscape:window-height="855"
     inkscape:window-width="1440"
     inkscape:pageshadow="2"
     inkscape:pageopacity="0"
     guidetolerance="10"
     gridtolerance="10"
     objecttolerance="10"
     borderopacity="1"
     bordercolor="#666666"
     pagecolor="#ffffff" />
  <g
     id="surface3563">
    <path
       id="path18"
       d="M 3.7500001,17.960521 H 90 M 3.7500001,22.972241 H 90 M 3.7500001,27.987861 H 90 M 3.7500001,32.999581 H 90 M 3.7500001,38.011301 H 90"
       style="fill:none;stroke:#000000;stroke-width:0.349073;stroke-linecap:butt;stroke-linejoin:bevel;stroke-miterlimit:10;stroke-opacity:1" />
    <path
       id="path40"
       d="m 90,17.960521 v 20"
       style="fill:none;stroke:#000000;stroke-width:0.80005;stroke-linecap:butt;stroke-linejoin:bevel;stroke-miterlimit:10;stroke-opacity:1" />
    <path
       id="path78"
       d="m 30.144531,29.523021 v -12.8125"
       style="fill:none;stroke:#000000;stroke-width:0.650041;stroke-linecap:round;stroke-linejoin:bevel;stroke-miterlimit:10;stroke-opacity:1" />
    <path
       id="path86"
       d="M 61.617188,29.694891 V 14.210521"
       style="fill:none;stroke:#000000;stroke-width:0.650041;stroke-linecap:round;stroke-linejoin:bevel;stroke-miterlimit:10;stroke-opacity:1" />
    <path
       id="path88"
       d="m 45.792969,29.523021 v -12.8125"
       style="fill:none;stroke:#000000;stroke-width:0.650041;stroke-linecap:round;stroke-linejoin:bevel;stroke-miterlimit:10;stroke-opacity:1" />
    <path
       id="path152"
       d="m 28.28125,27.706611 c 0.625,0 1.152344,0.16406 1.582031,0.48828 0.402344,0.35156 0.605469,0.79688 0.605469,1.32813 0,0.89843 -0.460938,1.73828 -1.386719,2.51953 -0.9375,0.78125 -1.941406,1.17187 -3.007812,1.17187 -0.625,0 -1.152344,-0.16015 -1.582031,-0.48828 -0.402344,-0.35156 -0.605469,-0.79297 -0.605469,-1.32812 0,-0.89844 0.46875,-1.73828 1.40625,-2.51953 0.910156,-0.78125 1.90625,-1.17188 2.988281,-1.17188 z m 0,0"
       style="fill:#000000;fill-opacity:1;fill-rule:nonzero;stroke:none" />
    <path
       id="path158"
       d="m 61.308594,29.151921 c 0,-0.21875 -0.08594,-0.41015 -0.253906,-0.5664 -0.171876,-0.16797 -0.367188,-0.25391 -0.585938,-0.25391 -0.390625,0 -1.179688,0.39063 -2.363281,1.17188 -1.226563,0.79687 -1.972657,1.36328 -2.246094,1.69921 -0.144531,0.1836 -0.214844,0.3711 -0.214844,0.56641 0,0.22266 0.08203,0.41016 0.253907,0.56641 0.15625,0.17187 0.351562,0.2539 0.585937,0.2539 0.375,0 1.171875,-0.39062 2.382813,-1.17187 1.195312,-0.78125 1.9375,-1.34766 2.226562,-1.69922 0.140625,-0.16797 0.214844,-0.35547 0.214844,-0.56641 z m -1.035156,-1.44531 c 1.117187,0 1.679687,0.48438 1.679687,1.44531 0,0.46875 -0.136719,1.01563 -0.410156,1.64063 -0.273438,0.61328 -0.640625,1.08203 -1.09375,1.40625 -1.003907,0.67969 -2.261719,1.01562 -3.769531,1.01562 -1.121094,0 -1.679688,-0.48047 -1.679688,-1.44531 0,-0.42969 0.136719,-0.96875 0.410156,-1.62109 0.257813,-0.625 0.625,-1.09766 1.09375,-1.42578 1,-0.67579 2.257813,-1.01563 3.769532,-1.01563 z m 0,0"
       style="fill:#000000;fill-opacity:1;fill-rule:nonzero;stroke:none" />
    <path
       id="path160"
       d="m 43.925781,27.706611 c 0.625,0 1.152344,0.16406 1.582031,0.48828 0.40625,0.35156 0.609376,0.79688 0.609376,1.32813 0,0.89843 -0.464844,1.73828 -1.390626,2.51953 -0.9375,0.78125 -1.9375,1.17187 -3.007812,1.17187 -0.625,0 -1.152344,-0.16015 -1.582031,-0.48828 -0.402344,-0.35156 -0.605469,-0.79297 -0.605469,-1.32812 0,-0.89844 0.46875,-1.73828 1.40625,-2.51953 0.914062,-0.78125 1.910156,-1.17188 2.988281,-1.17188 z m 0,0"
       style="fill:#000000;fill-opacity:1;fill-rule:nonzero;stroke:none" />
    <path
       id="path218"
       d="m 11.378906,22.843331 c -0.496094,0 -0.800781,0.19531 -0.917968,0.58594 -0.09375,0.28906 -0.136719,0.76953 -0.136719,1.44531 v 0.58594 c 0,0.67968 0.04297,1.16015 0.136719,1.44531 0.117187,0.39062 0.421874,0.58594 0.917968,0.58594 0.546875,0 0.890625,-0.22657 1.035156,-0.6836 0.128907,-0.42968 0.195313,-0.97656 0.195313,-1.64062 0,-0.76563 -0.07422,-1.34766 -0.214844,-1.73828 -0.15625,-0.39063 -0.496093,-0.58594 -1.015625,-0.58594 z m -1.054687,-0.19531 c 0.390625,-0.15625 0.742187,-0.2461 1.054687,-0.27344 1.039063,0 1.875,0.23437 2.5,0.70312 0.597656,0.48438 0.898438,1.17188 0.898438,2.07032 0,0.91406 -0.308594,1.61718 -0.917969,2.10937 -0.613281,0.46875 -1.441406,0.70313 -2.480469,0.70313 -1.070312,0 -1.9023439,-0.49219 -2.4999999,-1.48438 -0.601562,-0.98828 -0.898437,-2.16015 -0.898437,-3.51562 0,-1.32813 0.351562,-2.5 1.054687,-3.51563 0.714844,-0.98828 1.6328129,-1.48437 2.7539059,-1.48437 0.726563,0 1.371094,0.1875 1.933594,0.5664 0.546875,0.37891 0.820313,0.8711 0.820313,1.48438 0,0.3789 -0.132813,0.6914 -0.390625,0.9375 -0.234375,0.26172 -0.535156,0.39062 -0.898438,0.39062 -0.367187,0 -0.679687,-0.1289 -0.9375,-0.39062 -0.261718,-0.25781 -0.390625,-0.57031 -0.390625,-0.9375 0,-0.14453 0.128907,-0.30469 0.390625,-0.48828 0.257813,-0.15625 0.390625,-0.32032 0.390625,-0.48828 0,-0.1836 -0.09375,-0.33204 -0.273437,-0.44922 -0.210938,-0.10547 -0.425782,-0.15625 -0.644532,-0.15625 -0.601562,0 -0.996093,0.24218 -1.191406,0.72265 -0.210937,0.46875 -0.3125,1.15235 -0.3125,2.05078 0,0.26172 0.0039,0.50391 0.01953,0.72266 0.01172,0.22266 0.01953,0.46484 0.01953,0.72266 z m 0,0"
       style="fill:#000000;fill-opacity:1;fill-rule:nonzero;stroke:none" />
    <path
       id="path220"
       d="m 12.8125,32.198801 c 0.648438,-0.71485 0.976562,-1.39063 0.976562,-2.03125 0,-0.53125 -0.230468,-0.95703 -0.683593,-1.26953 -0.445313,-0.3125 -0.992188,-0.46875 -1.640625,-0.46875 -0.457032,0 -0.820313,0.14453 -1.09375,0.42968 -0.273438,0.28907 -0.4101559,0.61329 -0.4101559,0.97657 0,0.45703 0.1992179,0.80859 0.6054679,1.05468 z m 0.605469,0.33203 c 1.105469,0.64062 1.660156,1.49219 1.660156,2.55859 0,0.79688 -0.332031,1.46485 -0.996094,2.01172 -0.664062,0.57422 -1.597656,0.85938 -2.792969,0.85938 -1.015624,0 -1.8710929,-0.25782 -2.5585929,-0.78125 -0.730469,-0.51953 -1.09375,-1.19141 -1.09375,-2.01172 0,-0.29688 0.089843,-0.61719 0.273437,-0.95703 0.167969,-0.29688 0.335938,-0.53125 0.507813,-0.70313 0.078125,-0.10156 0.324219,-0.35156 0.742187,-0.74219 -0.808594,-0.57031 -1.21875,-1.28125 -1.230468,-2.1289 0,-0.71485 0.316406,-1.34766 0.957031,-1.89453 0.636719,-0.51953 1.4960929,-0.78125 2.5781249,-0.78125 0.859375,0 1.613281,0.19531 2.265625,0.58593 0.625,0.39063 0.9375,0.9336 0.9375,1.6211 -0.02734,0.70312 -0.445313,1.49219 -1.25,2.36328 z m -3.6523439,0.58594 c -0.808594,0.71875 -1.226563,1.40234 -1.25,2.05078 0,0.66406 0.277344,1.21875 0.839844,1.66015 0.53125,0.44532 1.1757809,0.66407 1.9335929,0.66407 0.53125,0 0.949219,-0.16797 1.25,-0.50782 0.3125,-0.3125 0.46875,-0.69531 0.46875,-1.15234 0,-0.55859 -0.230468,-0.96875 -0.683593,-1.23047 z m 0,0"
       style="fill:#000000;fill-opacity:1;fill-rule:nonzero;stroke:none" />
    <path
       id="path250"
       d="m 29.820312,15.460521 h 16.296876 v 2.5 H 29.820312 Z m 0,0"
       style="fill:#000000;fill-opacity:1;fill-rule:evenodd;stroke:none" />
  </g>
</svg>
