<?xml version="1.0" encoding="UTF-8" standalone="no"?>
<svg
   xmlns:dc="http://purl.org/dc/elements/1.1/"
   xmlns:cc="http://creativecommons.org/ns#"
   xmlns:rdf="http://www.w3.org/1999/02/22-rdf-syntax-ns#"
   xmlns:svg="http://www.w3.org/2000/svg"
   xmlns="http://www.w3.org/2000/svg"
   xmlns:sodipodi="http://sodipodi.sourceforge.net/DTD/sodipodi-0.dtd"
   xmlns:inkscape="http://www.inkscape.org/namespaces/inkscape"
   inkscape:version="1.0 (4035a4f, 2020-05-01)"
   sodipodi:docname="cadences_3.svg"
   id="svg211"
   version="1.2"
   viewBox="0 0 120 100"
   height="100pt"
   width="120pt">
  <metadata
     id="metadata217">
    <rdf:RDF>
      <cc:Work
         rdf:about="">
        <dc:format>image/svg+xml</dc:format>
        <dc:type
           rdf:resource="http://purl.org/dc/dcmitype/StillImage" />
        <dc:title></dc:title>
      </cc:Work>
    </rdf:RDF>
  </metadata>
  <defs
     id="defs215" />
  <sodipodi:namedview
     inkscape:current-layer="surface3113"
     inkscape:window-maximized="1"
     inkscape:window-y="23"
     inkscape:window-x="0"
     inkscape:cy="291.17404"
     inkscape:cx="345.58927"
     inkscape:zoom="0.72788366"
     showgrid="false"
     id="namedview213"
     inkscape:window-height="855"
     inkscape:window-width="1440"
     inkscape:pageshadow="2"
     inkscape:pageopacity="0"
     guidetolerance="10"
     gridtolerance="10"
     objecttolerance="10"
     borderopacity="1"
     bordercolor="#666666"
     pagecolor="#ffffff" />
  <g
     id="surface3113">
    <path
       id="path18"
       d="m 12.152344,73.89066 h 92.105466 m -92.105466,5 h 92.105466 m -92.105466,5 h 92.105466 m -92.105466,5 h 92.105466 m -92.105466,5 h 92.105466"
       style="fill:none;stroke:#000000;stroke-width:0.378178;stroke-linecap:butt;stroke-linejoin:bevel;stroke-miterlimit:10;stroke-opacity:1" />
    <path
       id="path20"
       d="m 12.152344,21.38676 h 92.105466 m -92.105466,5 h 92.105466 m -92.105466,5 h 92.105466 m -92.105466,5 h 92.105466 m -92.105466,5 h 92.105466"
       style="fill:none;stroke:#000000;stroke-width:0.378178;stroke-linecap:butt;stroke-linejoin:bevel;stroke-miterlimit:10;stroke-opacity:1" />
    <path
       id="path34"
       d="m 12.550782,21.38676 v 72.5039"
       style="fill:none;stroke:#000000;stroke-width:0.80005;stroke-linecap:butt;stroke-linejoin:bevel;stroke-miterlimit:10;stroke-opacity:1" />
    <path
       id="path38"
       d="m 104.25781,21.38676 v 72.5039"
       style="fill:none;stroke:#000000;stroke-width:0.80005;stroke-linecap:butt;stroke-linejoin:bevel;stroke-miterlimit:10;stroke-opacity:1" />
    <path
       id="path42"
       d="m 75.753907,46.38676 h 9.945312"
       style="fill:none;stroke:#000000;stroke-width:0.80005;stroke-linecap:square;stroke-linejoin:bevel;stroke-miterlimit:10;stroke-opacity:1" />
    <path
       id="path60"
       d="M 77.578126,74.67582 V 91.39066"
       style="fill:none;stroke:#000000;stroke-width:0.650041;stroke-linecap:round;stroke-linejoin:bevel;stroke-miterlimit:10;stroke-opacity:1" />
    <path
       id="path62"
       d="M 83.871094,45.62113 V 17.63676"
       style="fill:none;stroke:#000000;stroke-width:0.650041;stroke-linecap:round;stroke-linejoin:bevel;stroke-miterlimit:10;stroke-opacity:1" />
    <path
       id="path64"
       d="M 51.15625,77.17582 V 93.89066"
       style="fill:none;stroke:#000000;stroke-width:0.650041;stroke-linecap:round;stroke-linejoin:bevel;stroke-miterlimit:10;stroke-opacity:1" />
    <path
       id="path66"
       d="M 57.449219,43.12113 V 15.76176"
       style="fill:none;stroke:#000000;stroke-width:0.650041;stroke-linecap:round;stroke-linejoin:bevel;stroke-miterlimit:10;stroke-opacity:1" />
    <path
       id="path106"
       d="m 83.5625,72.58207 c 0,-0.22266 -0.08594,-0.41016 -0.253906,-0.56641 -0.167968,-0.17187 -0.363281,-0.2539 -0.585937,-0.2539 -0.390625,0 -1.179688,0.39062 -2.363281,1.17187 -1.222657,0.79297 -1.972657,1.35938 -2.246094,1.69922 -0.144532,0.18359 -0.214844,0.37109 -0.214844,0.56641 0,0.22265 0.08594,0.41015 0.253906,0.5664 0.15625,0.16797 0.351563,0.25391 0.585938,0.25391 0.378906,0 1.171875,-0.39063 2.382812,-1.17188 1.199219,-0.78125 1.941406,-1.34765 2.226563,-1.69921 0.144531,-0.16797 0.214843,-0.35938 0.214843,-0.56641 z m -1.035156,-1.44531 c 1.121094,0 1.679688,0.48047 1.679688,1.44531 0,0.46875 -0.136719,1.01562 -0.410156,1.64062 -0.273438,0.61329 -0.636719,1.08204 -1.09375,1.40625 -1.003907,0.67579 -2.257813,1.01563 -3.769532,1.01563 -1.121094,0 -1.679687,-0.48047 -1.679687,-1.44531 0,-0.42969 0.136719,-0.96875 0.410156,-1.6211 0.261719,-0.625 0.625,-1.10156 1.09375,-1.42578 1.003906,-0.67969 2.257813,-1.01562 3.769531,-1.01562 z m 0,0"
       style="fill:#000000;fill-opacity:1;fill-rule:nonzero;stroke:none" />
    <path
       id="path108"
       d="m 83.5625,32.57816 c 0,-0.21875 -0.08594,-0.41015 -0.253906,-0.5664 -0.167968,-0.16797 -0.363281,-0.25391 -0.585937,-0.25391 -0.390625,0 -1.179688,0.39063 -2.363281,1.17188 -1.222657,0.79687 -1.972657,1.36328 -2.246094,1.69921 -0.144532,0.1836 -0.214844,0.3711 -0.214844,0.56641 0,0.22266 0.08594,0.41016 0.253906,0.56641 0.15625,0.17187 0.351563,0.2539 0.585938,0.2539 0.378906,0 1.171875,-0.39062 2.382812,-1.17187 1.199219,-0.78125 1.941406,-1.34766 2.226563,-1.69922 C 83.492188,32.9766 83.5625,32.7891 83.5625,32.57816 Z m -1.035156,-1.44531 c 1.121094,0 1.679688,0.48438 1.679688,1.44531 0,0.46875 -0.136719,1.01563 -0.410156,1.64063 -0.273438,0.61328 -0.636719,1.08203 -1.09375,1.40625 -1.003907,0.67969 -2.257813,1.01562 -3.769532,1.01562 -1.121094,0 -1.679687,-0.48047 -1.679687,-1.44531 0,-0.42969 0.136719,-0.96875 0.410156,-1.62109 0.261719,-0.625 0.625,-1.09766 1.09375,-1.42578 1.003906,-0.67579 2.257813,-1.01563 3.769531,-1.01563 z m 0,0"
       style="fill:#000000;fill-opacity:1;fill-rule:nonzero;stroke:none" />
    <path
       id="path110"
       d="m 83.5625,40.07816 c 0,-0.21875 -0.08594,-0.41015 -0.253906,-0.5664 -0.167968,-0.16797 -0.363281,-0.25391 -0.585937,-0.25391 -0.390625,0 -1.179688,0.39063 -2.363281,1.17188 -1.222657,0.79687 -1.972657,1.36328 -2.246094,1.69921 -0.144532,0.1836 -0.214844,0.3711 -0.214844,0.56641 0,0.22266 0.08594,0.41016 0.253906,0.56641 0.15625,0.17187 0.351563,0.2539 0.585938,0.2539 0.378906,0 1.171875,-0.39062 2.382812,-1.17187 1.199219,-0.78125 1.941406,-1.34766 2.226563,-1.69922 C 83.492188,40.4766 83.5625,40.2891 83.5625,40.07816 Z m -1.035156,-1.44531 c 1.121094,0 1.679688,0.48438 1.679688,1.44531 0,0.46875 -0.136719,1.01563 -0.410156,1.64063 -0.273438,0.61328 -0.636719,1.08203 -1.09375,1.40625 -1.003907,0.67969 -2.257813,1.01562 -3.769532,1.01562 -1.121094,0 -1.679687,-0.48047 -1.679687,-1.44531 0,-0.42969 0.136719,-0.96875 0.410156,-1.62109 0.261719,-0.625 0.625,-1.09766 1.09375,-1.42578 1.003906,-0.67579 2.257813,-1.01563 3.769531,-1.01563 z m 0,0"
       style="fill:#000000;fill-opacity:1;fill-rule:nonzero;stroke:none" />
    <path
       id="path112"
       d="m 83.5625,45.07816 c 0,-0.21875 -0.08594,-0.41015 -0.253906,-0.5664 -0.167968,-0.16797 -0.363281,-0.25391 -0.585937,-0.25391 -0.390625,0 -1.179688,0.39063 -2.363281,1.17188 -1.222657,0.79687 -1.972657,1.36328 -2.246094,1.69921 -0.144532,0.1836 -0.214844,0.3711 -0.214844,0.56641 0,0.22266 0.08594,0.41016 0.253906,0.56641 0.15625,0.17187 0.351563,0.2539 0.585938,0.2539 0.378906,0 1.171875,-0.39062 2.382812,-1.17187 1.199219,-0.78125 1.941406,-1.34766 2.226563,-1.69922 C 83.492188,45.4766 83.5625,45.2891 83.5625,45.07816 Z m -1.035156,-1.44531 c 1.121094,0 1.679688,0.48438 1.679688,1.44531 0,0.46875 -0.136719,1.01563 -0.410156,1.64063 -0.273438,0.61328 -0.636719,1.08203 -1.09375,1.40625 -1.003907,0.67969 -2.257813,1.01562 -3.769532,1.01562 -1.121094,0 -1.679687,-0.48047 -1.679687,-1.44531 0,-0.42969 0.136719,-0.96875 0.410156,-1.62109 0.261719,-0.625 0.625,-1.09766 1.09375,-1.42578 1.003906,-0.67579 2.257813,-1.01563 3.769531,-1.01563 z m 0,0"
       style="fill:#000000;fill-opacity:1;fill-rule:nonzero;stroke:none" />
    <path
       id="path114"
       d="m 57.140626,75.08207 c 0,-0.22266 -0.08594,-0.41016 -0.253907,-0.56641 -0.171875,-0.16797 -0.367187,-0.2539 -0.585937,-0.2539 -0.390625,0 -1.179688,0.39062 -2.363282,1.17187 -1.226562,0.79297 -1.972656,1.35938 -2.246093,1.69922 -0.144531,0.18359 -0.214844,0.37109 -0.214844,0.56641 0,0.22265 0.08203,0.41015 0.253906,0.5664 0.15625,0.16797 0.351563,0.25391 0.585938,0.25391 0.375,0 1.171875,-0.39063 2.382812,-1.17188 1.195313,-0.78125 1.9375,-1.34765 2.226563,-1.69921 0.140625,-0.16797 0.214844,-0.35938 0.214844,-0.56641 z m -1.035157,-1.44531 c 1.117188,0 1.679688,0.48047 1.679688,1.44531 0,0.46875 -0.136719,1.01562 -0.410157,1.64062 -0.273437,0.61329 -0.640624,1.08204 -1.09375,1.40625 -1.003906,0.67579 -2.261718,1.01563 -3.769531,1.01563 -1.121093,0 -1.679687,-0.48047 -1.679687,-1.44531 0,-0.42969 0.136718,-0.96875 0.410156,-1.6211 0.257812,-0.625 0.625,-1.10156 1.09375,-1.42578 1,-0.67578 2.257812,-1.01562 3.769531,-1.01562 z m 0,0"
       style="fill:#000000;fill-opacity:1;fill-rule:nonzero;stroke:none" />
    <path
       id="path116"
       d="m 57.140626,30.07816 c 0,-0.22265 -0.08594,-0.41015 -0.253907,-0.5664 -0.171875,-0.16797 -0.367187,-0.25391 -0.585937,-0.25391 -0.390625,0 -1.179688,0.39063 -2.363282,1.17188 -1.226562,0.79687 -1.972656,1.36328 -2.246093,1.69921 -0.144531,0.1836 -0.214844,0.3711 -0.214844,0.56641 0,0.22266 0.08203,0.41016 0.253906,0.56641 0.15625,0.17187 0.351563,0.2539 0.585938,0.2539 0.375,0 1.171875,-0.39062 2.382812,-1.17187 1.195313,-0.78125 1.9375,-1.34766 2.226563,-1.69922 0.140625,-0.16797 0.214844,-0.35938 0.214844,-0.56641 z m -1.035157,-1.44531 c 1.117188,0 1.679688,0.48047 1.679688,1.44531 0,0.46875 -0.136719,1.01563 -0.410157,1.64063 -0.273437,0.61328 -0.640624,1.08203 -1.09375,1.40625 -1.003906,0.67969 -2.261718,1.01562 -3.769531,1.01562 -1.121093,0 -1.679687,-0.48047 -1.679687,-1.44531 0,-0.42969 0.136718,-0.96875 0.410156,-1.62109 0.257812,-0.625 0.625,-1.10157 1.09375,-1.42578 1,-0.67579 2.257812,-1.01563 3.769531,-1.01563 z m 0,0"
       style="fill:#000000;fill-opacity:1;fill-rule:nonzero;stroke:none" />
    <path
       id="path118"
       d="m 57.140626,35.07816 c 0,-0.21875 -0.08594,-0.41015 -0.253907,-0.5664 -0.171875,-0.16797 -0.367187,-0.25391 -0.585937,-0.25391 -0.390625,0 -1.179688,0.39063 -2.363282,1.17188 -1.226562,0.79687 -1.972656,1.36328 -2.246093,1.69921 -0.144531,0.1836 -0.214844,0.3711 -0.214844,0.56641 0,0.22266 0.08203,0.41016 0.253906,0.56641 0.15625,0.17187 0.351563,0.2539 0.585938,0.2539 0.375,0 1.171875,-0.39062 2.382812,-1.17187 1.195313,-0.78125 1.9375,-1.34766 2.226563,-1.69922 0.140625,-0.16797 0.214844,-0.35547 0.214844,-0.56641 z m -1.035157,-1.44531 c 1.117188,0 1.679688,0.48438 1.679688,1.44531 0,0.46875 -0.136719,1.01563 -0.410157,1.64063 -0.273437,0.61328 -0.640624,1.08203 -1.09375,1.40625 -1.003906,0.67969 -2.261718,1.01562 -3.769531,1.01562 -1.121093,0 -1.679687,-0.48047 -1.679687,-1.44531 0,-0.42969 0.136718,-0.96875 0.410156,-1.62109 0.257812,-0.625 0.625,-1.09766 1.09375,-1.42578 1,-0.67579 2.257812,-1.01563 3.769531,-1.01563 z m 0,0"
       style="fill:#000000;fill-opacity:1;fill-rule:nonzero;stroke:none" />
    <path
       id="path120"
       d="m 57.140626,42.57816 c 0,-0.21875 -0.08594,-0.41015 -0.253907,-0.5664 -0.171875,-0.16797 -0.367187,-0.25391 -0.585937,-0.25391 -0.390625,0 -1.179688,0.39063 -2.363282,1.17188 -1.226562,0.79687 -1.972656,1.36328 -2.246093,1.69921 -0.144531,0.1836 -0.214844,0.3711 -0.214844,0.56641 0,0.22266 0.08203,0.41016 0.253906,0.56641 0.15625,0.17187 0.351563,0.2539 0.585938,0.2539 0.375,0 1.171875,-0.39062 2.382812,-1.17187 1.195313,-0.78125 1.9375,-1.34766 2.226563,-1.69922 0.140625,-0.16797 0.214844,-0.35547 0.214844,-0.56641 z m -1.035157,-1.44531 c 1.117188,0 1.679688,0.48438 1.679688,1.44531 0,0.46875 -0.136719,1.01563 -0.410157,1.64063 -0.273437,0.61328 -0.640624,1.08203 -1.09375,1.40625 -1.003906,0.67969 -2.261718,1.01562 -3.769531,1.01562 -1.121093,0 -1.679687,-0.48047 -1.679687,-1.44531 0,-0.42969 0.136718,-0.96875 0.410156,-1.62109 0.257812,-0.625 0.625,-1.09766 1.09375,-1.42578 1,-0.67579 2.257812,-1.01563 3.769531,-1.01563 z m 0,0"
       style="fill:#000000;fill-opacity:1;fill-rule:nonzero;stroke:none" />
    <path
       id="path146"
       d="m 27.578126,77.11332 c -0.195313,-0.19531 -0.292969,-0.4375 -0.292969,-0.72266 0,-0.28515 0.09766,-0.52734 0.292969,-0.72265 0.195312,-0.19532 0.4375,-0.29297 0.722656,-0.29297 0.285156,0 0.527344,0.0976 0.722656,0.29297 0.195312,0.19531 0.292969,0.4375 0.292969,0.72265 0,0.28516 -0.09766,0.52735 -0.292969,0.72266 -0.195312,0.19531 -0.4375,0.29297 -0.722656,0.29297 -0.285156,0 -0.527344,-0.0977 -0.722656,-0.29297 z m 0,5 c -0.195313,-0.19531 -0.292969,-0.4375 -0.292969,-0.72266 0,-0.28515 0.09766,-0.52734 0.292969,-0.72265 0.195312,-0.19532 0.4375,-0.29297 0.722656,-0.29297 0.285156,0 0.527344,0.0976 0.722656,0.29297 0.195312,0.19531 0.292969,0.4375 0.292969,0.72265 0,0.28516 -0.09766,0.52735 -0.292969,0.72266 -0.195312,0.19531 -0.4375,0.29297 -0.722656,0.29297 -0.285156,0 -0.527344,-0.0977 -0.722656,-0.29297 z m -6.777344,-8.47656 c 1.730468,0 3.152344,0.4375 4.257812,1.30859 1.066406,0.91016 1.601563,2.14844 1.601563,3.71094 0,1.05469 -0.207031,2.01953 -0.625,2.89062 -0.390625,0.91016 -0.90625,1.71875 -1.542969,2.42188 -0.652344,0.71484 -1.4375,1.39453 -2.363281,2.03125 -0.898438,0.625 -1.824219,1.18359 -2.773438,1.67969 -1.925781,0.97656 -2.996093,1.46484 -3.203125,1.46484 -0.167968,0 -0.253906,-0.0859 -0.253906,-0.25391 0,-0.0664 0.02734,-0.125 0.07813,-0.17578 0.664063,-0.39062 1.476563,-0.89062 2.441406,-1.5039 0.625,-0.40235 1.355469,-0.96485 2.1875,-1.67969 0.808594,-0.67578 1.433594,-1.31641 1.875,-1.91406 0.457031,-0.58594 0.871094,-1.31641 1.25,-2.1875 0.324219,-0.8711 0.488281,-1.73047 0.488281,-2.57813 0,-1.26172 -0.3125,-2.36328 -0.9375,-3.30078 -0.625,-0.9375 -1.453124,-1.40625 -2.480468,-1.40625 -0.730469,0 -1.355469,0.23437 -1.875,0.70312 -0.558594,0.48047 -0.964844,1.08594 -1.210938,1.81641 0.246094,-0.10547 0.476563,-0.15625 0.683594,-0.15625 0.546875,0 1.015625,0.19531 1.40625,0.58594 0.390625,0.41797 0.585938,0.89062 0.585938,1.42578 0,0.55859 -0.1875,1.0625 -0.566407,1.50391 -0.402343,0.40234 -0.878906,0.60546 -1.425781,0.60546 -0.585938,0 -1.113281,-0.20312 -1.582031,-0.60546 -0.441412,-0.44141 -0.664068,-0.94532 -0.664068,-1.50391 0,-1.33984 0.457032,-2.48828 1.367188,-3.4375 0.898437,-0.96484 1.992187,-1.44531 3.28125,-1.44531 z m 0,0"
       style="fill:#000000;fill-opacity:1;fill-rule:nonzero;stroke:none" />
    <path
       id="path148"
       d="m 23.496094,31.26957 c 0,0 0.03906,0 0.117188,0 0.05078,-0.0117 0.09766,-0.0195 0.136718,-0.0195 1.457032,0 2.65625,0.51562 3.59375,1.54297 0.9375,1.01562 1.40625,2.20312 1.40625,3.55468 0,1.67969 -0.695312,3.04688 -2.089843,4.10157 -0.363281,0.28906 -0.839844,0.52343 -1.425781,0.70312 0.06641,0.84766 0.09766,1.53125 0.09766,2.05078 0,0.10547 -0.01172,0.48438 -0.03906,1.13282 -0.05078,1.21093 -0.46875,2.26171 -1.25,3.14453 -0.753906,0.875 -1.691406,1.30859 -2.8125,1.30859 -1.054687,0 -1.953125,-0.37109 -2.695312,-1.11328 -0.742188,-0.75391 -1.113281,-1.66406 -1.113281,-2.73438 0,-0.55859 0.214843,-1.03515 0.644531,-1.42578 0.441406,-0.39062 0.957031,-0.58593 1.542969,-0.58593 0.519531,0 0.957031,0.20312 1.308593,0.60546 0.363281,0.37891 0.546875,0.84766 0.546875,1.40625 0,0.50782 -0.183594,0.94532 -0.546875,1.3086 -0.363281,0.36719 -0.800781,0.54687 -1.308593,0.54687 -0.207032,0 -0.410157,-0.0391 -0.605469,-0.11718 0.574219,0.84765 1.335937,1.26953 2.285156,1.26953 0.898437,0 1.632813,-0.36328 2.207031,-1.09375 0.597656,-0.75391 0.925782,-1.63282 0.976563,-2.63672 0.02734,-0.625 0.03906,-0.98047 0.03906,-1.07422 0,-0.72656 -0.02734,-1.32813 -0.07813,-1.79688 -0.652344,0.10547 -1.230468,0.15625 -1.738281,0.15625 -1.808594,0 -3.351563,-0.71484 -4.628906,-2.14843 -1.25,-1.44532 -1.875,-3.16407 -1.875,-5.15625 0,-0.41407 0.03906,-0.83985 0.117187,-1.26953 0.07813,-0.35157 0.175782,-0.73438 0.292969,-1.15235 0.06641,-0.23437 0.242187,-0.60937 0.527344,-1.13281 0.105469,-0.15625 0.222656,-0.35156 0.351562,-0.58594 0.128907,-0.23437 0.222657,-0.39062 0.273438,-0.46875 0.128906,-0.26172 0.382812,-0.61328 0.761719,-1.05469 0.105468,-0.11718 0.210937,-0.24609 0.320312,-0.39062 0.113281,-0.14453 0.207031,-0.26172 0.285156,-0.35156 0.07813,-0.0899 0.136719,-0.16407 0.175782,-0.21485 0.03906,-0.0508 0.332031,-0.39843 0.878906,-1.03515 0.128906,-0.12891 0.257812,-0.26953 0.378906,-0.41797 0.125,-0.15235 0.226562,-0.26953 0.304688,-0.35156 0.07812,-0.0859 0.136718,-0.14844 0.175781,-0.1875 -0.46875,-1.55079 -0.761719,-2.78516 -0.878907,-3.71094 -0.08984,-0.74219 -0.136718,-1.75781 -0.136718,-3.04688 0,-1.13281 0.261718,-2.19531 0.78125,-3.18359 0.507812,-1.02734 1.21875,-1.86719 2.128906,-2.51953 0.06641,-0.0391 0.128906,-0.0586 0.195312,-0.0586 0.08984,0 0.15625,0.0195 0.195313,0.0586 0.703125,0.84765 1.308594,1.94531 1.816406,3.30078 0.519531,1.35547 0.78125,2.58594 0.78125,3.69141 0,1.25 -0.300781,2.42187 -0.898437,3.51562 -0.675782,1.16016 -1.550782,2.35547 -2.617188,3.59375 0.273438,0.85938 0.636719,2.20703 1.09375,4.04297 z m 1.660156,9.08203 c 0.675782,-0.24609 1.203126,-0.66797 1.582032,-1.26953 0.417968,-0.57031 0.625,-1.21484 0.625,-1.93359 0,-0.92188 -0.3125,-1.74219 -0.9375,-2.46094 -0.636719,-0.74219 -1.453125,-1.15625 -2.441406,-1.25 0.558593,2.75 0.949218,5.05469 1.171874,6.91406 z m -7.558593,-4.51172 c 0,1.28906 0.519531,2.42188 1.5625,3.39844 1.066406,0.95312 2.265625,1.42578 3.59375,1.42578 0.546875,0 1.082031,-0.0391 1.601562,-0.11719 -0.207031,-1.97656 -0.617187,-4.34765 -1.230469,-7.10937 -0.742187,0.0781 -1.335937,0.33984 -1.777343,0.78125 -0.429688,0.45703 -0.644531,0.97265 -0.644531,1.54297 0,0.99218 0.527343,1.79297 1.582031,2.40234 0.08984,0.0937 0.136719,0.19141 0.136719,0.29297 0,0.10547 -0.04688,0.20312 -0.136719,0.29297 -0.07813,0.0937 -0.175781,0.13672 -0.292969,0.13672 -0.01172,0 -0.07031,-0.0117 -0.175781,-0.0391 C 21.074219,38.44532 20.5,37.92579 20.097657,37.28516 19.71875,36.60938 19.53125,35.92579 19.53125,35.23438 c 0,-0.89843 0.28125,-1.71093 0.839844,-2.4414 0.585938,-0.72657 1.347656,-1.19532 2.285156,-1.40625 -0.363281,-1.45703 -0.664062,-2.59766 -0.898437,-3.41797 -0.207031,0.23437 -0.457031,0.51953 -0.75,0.85156 -0.292969,0.33203 -0.46875,0.52734 -0.519531,0.59375 -0.46875,0.61328 -0.828125,1.08594 -1.074219,1.42578 -0.441406,0.61328 -0.769531,1.14063 -0.976563,1.58203 -0.222656,0.4961 -0.417968,1.03516 -0.585937,1.6211 -0.167969,0.5625 -0.253906,1.16015 -0.253906,1.79687 z M 24.121094,15.9766 c -0.976562,0.48047 -1.746094,1.17188 -2.304687,2.07031 -0.574219,0.92578 -0.859375,1.92188 -0.859375,2.98828 0,0.9375 0.234375,2.19922 0.703125,3.78907 0.9375,-1.13282 1.640625,-2.17969 2.109375,-3.14453 0.496094,-1.01563 0.742187,-2.07813 0.742187,-3.1836 0,-0.83203 -0.128906,-1.67187 -0.390625,-2.51953 z m 0,0"
       style="fill:#000000;fill-opacity:1;fill-rule:nonzero;stroke:none" />
    <path
       id="path170"
       d="m 38.570313,74.14457 c 0.390625,0 0.722656,-0.0469 1,-0.13672 0.273437,-0.0898 0.449219,-0.13672 0.527344,-0.13672 0.08984,0 0.160156,0.0274 0.214843,0.0781 0.03906,0.0391 0.0625,0.0859 0.07813,0.13672 0,0.0273 -0.01563,0.0664 -0.03906,0.11718 l -5.6875,6.60157 h 3.339844 v -2.61719 c 0,-0.16797 0.04687,-0.3125 0.136719,-0.42969 0.15625,-0.12891 0.289062,-0.20703 0.390624,-0.23437 0.171876,-0.0781 0.378907,-0.26172 0.625,-0.54688 0.210938,-0.23437 0.457032,-0.64453 0.746094,-1.23047 0.03906,-0.0781 0.09766,-0.11719 0.175782,-0.11719 0.15625,0 0.246093,0.0899 0.273437,0.27344 v 4.90235 h 1.425781 c 0.179688,0 0.285156,0.0976 0.3125,0.29296 0,0.19532 -0.105468,0.29297 -0.3125,0.29297 H 40.35157 v 0.15625 c 0,0.51953 0.128906,0.96485 0.390625,1.32813 0.296875,0.36328 0.648438,0.54687 1.054688,0.54687 0.15625,0 0.234374,0.0781 0.234374,0.23438 0,0.15625 -0.07812,0.23437 -0.234374,0.23437 -0.273438,0 -0.71875,-0.0391 -1.328126,-0.11718 -0.5625,-0.0899 -0.996093,-0.13672 -1.3125,-0.13672 -0.324218,0 -0.761718,0.0469 -1.308593,0.13672 -0.585938,0.0781 -1.019531,0.11718 -1.308594,0.11718 -0.15625,0 -0.234375,-0.0781 -0.234375,-0.23437 0,-0.15625 0.07813,-0.23438 0.234375,-0.23438 0.40625,0 0.757813,-0.18359 1.054687,-0.54687 0.273438,-0.36328 0.410157,-0.8086 0.410157,-1.32813 V 81.39063 H 34.66407 c -0.21875,0 -0.375,-0.0508 -0.46875,-0.15625 -0.101563,-0.0781 -0.15625,-0.18359 -0.15625,-0.3125 0,-0.0391 0.09766,-0.17578 0.292969,-0.41015 0.222656,-0.26172 0.457031,-0.57813 0.703125,-0.95703 0.289062,-0.44141 0.5625,-0.89844 0.820312,-1.36719 0.289063,-0.53516 0.515625,-1.14453 0.683594,-1.83594 0.195313,-0.70312 0.292969,-1.41797 0.292969,-2.14844 0,-0.20703 0.09375,-0.3125 0.273437,-0.3125 0.03906,0 0.125,0.0195 0.253907,0.0586 0.03906,0.0117 0.121093,0.0312 0.246093,0.0586 0.125,0.0273 0.222657,0.0508 0.300781,0.0781 0.234376,0.0391 0.457032,0.0586 0.664063,0.0586 z m 0,0"
       style="fill:#000000;fill-opacity:1;fill-rule:nonzero;stroke:none" />
    <path
       id="path172"
       d="m 38.570313,84.14457 c 0.390625,0 0.722656,-0.0469 1,-0.13672 0.273437,-0.0898 0.449219,-0.13672 0.527344,-0.13672 0.08984,0 0.160156,0.0274 0.214843,0.0781 0.03906,0.0391 0.0625,0.0859 0.07813,0.13672 0,0.0273 -0.01563,0.0664 -0.03906,0.11718 l -5.6875,6.60157 h 3.339844 v -2.61719 c 0,-0.16797 0.04687,-0.3125 0.136719,-0.42969 0.15625,-0.12891 0.289062,-0.20703 0.390624,-0.23437 0.171876,-0.0781 0.378907,-0.26172 0.625,-0.54688 0.210938,-0.23437 0.457032,-0.64453 0.746094,-1.23047 0.03906,-0.0781 0.09766,-0.11719 0.175782,-0.11719 0.15625,0 0.246093,0.0899 0.273437,0.27344 v 4.90235 h 1.425781 c 0.179688,0 0.285156,0.0976 0.3125,0.29296 0,0.19532 -0.105468,0.29297 -0.3125,0.29297 H 40.35157 v 0.15625 c 0,0.51953 0.128906,0.96485 0.390625,1.32813 0.296875,0.36719 0.648438,0.54687 1.054688,0.54687 0.15625,0 0.234374,0.0781 0.234374,0.23438 0,0.15625 -0.07812,0.23437 -0.234374,0.23437 -0.273438,0 -0.71875,-0.0391 -1.328126,-0.11718 -0.5625,-0.0899 -0.996093,-0.13672 -1.3125,-0.13672 -0.324218,0 -0.761718,0.0469 -1.308593,0.13672 -0.585938,0.0781 -1.019531,0.11718 -1.308594,0.11718 -0.15625,0 -0.234375,-0.0781 -0.234375,-0.23437 0,-0.15625 0.07813,-0.23438 0.234375,-0.23438 0.40625,0 0.757813,-0.17968 1.054687,-0.54687 0.273438,-0.36328 0.410157,-0.8086 0.410157,-1.32813 V 91.39063 H 34.66407 c -0.21875,0 -0.375,-0.0508 -0.46875,-0.15625 -0.101563,-0.0781 -0.15625,-0.18359 -0.15625,-0.3125 0,-0.0391 0.09766,-0.17578 0.292969,-0.41015 0.222656,-0.26172 0.457031,-0.57813 0.703125,-0.95703 0.289062,-0.44141 0.5625,-0.89844 0.820312,-1.36719 0.289063,-0.53516 0.515625,-1.14453 0.683594,-1.83594 0.195313,-0.70312 0.292969,-1.41797 0.292969,-2.14844 0,-0.20703 0.09375,-0.3125 0.273437,-0.3125 0.03906,0 0.125,0.0195 0.253907,0.0586 0.03906,0.0117 0.121093,0.0312 0.246093,0.0586 0.125,0.0273 0.222657,0.0508 0.300781,0.0781 0.234376,0.0391 0.457032,0.0586 0.664063,0.0586 z m 0,0"
       style="fill:#000000;fill-opacity:1;fill-rule:nonzero;stroke:none" />
    <path
       id="path174"
       d="m 38.570313,21.64066 c 0.390625,0 0.722656,-0.0469 1,-0.13672 0.273437,-0.0898 0.449219,-0.13671 0.527344,-0.13671 0.08984,0 0.160156,0.0273 0.214843,0.0781 0.03906,0.0391 0.0625,0.0859 0.07813,0.13672 0,0.0273 -0.01563,0.0664 -0.03906,0.11719 l -5.6875,6.60156 h 3.339844 v -2.61719 c 0,-0.16797 0.04687,-0.3125 0.136719,-0.42969 0.15625,-0.1289 0.289062,-0.20703 0.390624,-0.23437 0.171876,-0.0781 0.378907,-0.26172 0.625,-0.54688 0.210938,-0.23437 0.457032,-0.64453 0.746094,-1.23046 0.03906,-0.0781 0.09766,-0.11719 0.175782,-0.11719 0.15625,0 0.246093,0.0898 0.273437,0.27344 v 4.90234 h 1.425781 c 0.179688,0 0.285156,0.0977 0.3125,0.29297 0,0.19531 -0.105468,0.29297 -0.3125,0.29297 H 40.35157 v 0.15625 c 0,0.51953 0.128906,0.96484 0.390625,1.32812 0.296875,0.36328 0.648438,0.54688 1.054688,0.54688 0.15625,0 0.234374,0.0781 0.234374,0.23437 0,0.15625 -0.07812,0.23438 -0.234374,0.23438 -0.273438,0 -0.71875,-0.0391 -1.328126,-0.11719 -0.5625,-0.0898 -0.996093,-0.13672 -1.3125,-0.13672 -0.324218,0 -0.761718,0.0469 -1.308593,0.13672 -0.585938,0.0781 -1.019531,0.11719 -1.308594,0.11719 -0.15625,0 -0.234375,-0.0781 -0.234375,-0.23438 0,-0.15625 0.07813,-0.23437 0.234375,-0.23437 0.40625,0 0.757813,-0.1836 1.054687,-0.54688 0.273438,-0.36328 0.410157,-0.80859 0.410157,-1.32812 V 28.88674 H 34.66407 c -0.21875,0 -0.375,-0.0508 -0.46875,-0.15625 -0.101563,-0.0781 -0.15625,-0.1836 -0.15625,-0.3125 0,-0.0391 0.09766,-0.17578 0.292969,-0.41016 0.222656,-0.26172 0.457031,-0.57812 0.703125,-0.95703 0.289062,-0.44141 0.5625,-0.89844 0.820312,-1.36719 0.289063,-0.53515 0.515625,-1.14453 0.683594,-1.83594 0.195313,-0.70312 0.292969,-1.41796 0.292969,-2.14843 0,-0.20703 0.09375,-0.3125 0.273437,-0.3125 0.03906,0 0.125,0.0195 0.253907,0.0586 0.03906,0.0117 0.121093,0.0312 0.246093,0.0586 0.125,0.0274 0.222657,0.0508 0.300781,0.0781 0.234376,0.0391 0.457032,0.0586 0.664063,0.0586 z m 0,0"
       style="fill:#000000;fill-opacity:1;fill-rule:nonzero;stroke:none" />
    <path
       id="path176"
       d="m 38.570313,31.64066 c 0.390625,0 0.722656,-0.043 1,-0.13672 0.273437,-0.0898 0.449219,-0.13671 0.527344,-0.13671 0.08984,0 0.160156,0.0273 0.214843,0.0781 0.03906,0.0391 0.0625,0.0859 0.07813,0.13672 0,0.0273 -0.01563,0.0664 -0.03906,0.11719 l -5.6875,6.60156 h 3.339844 v -2.61719 c 0,-0.16797 0.04687,-0.3125 0.136719,-0.42969 0.15625,-0.1289 0.289062,-0.20703 0.390624,-0.23437 0.171876,-0.0781 0.378907,-0.25781 0.625,-0.54688 0.210938,-0.23437 0.457032,-0.64453 0.746094,-1.23046 0.03906,-0.0781 0.09766,-0.11719 0.175782,-0.11719 0.15625,0 0.246093,0.0937 0.273437,0.27344 v 4.90234 h 1.425781 c 0.179688,0 0.285156,0.0977 0.3125,0.29297 0,0.19531 -0.105468,0.29297 -0.3125,0.29297 H 40.35157 v 0.15625 c 0,0.52343 0.128906,0.96484 0.390625,1.32812 0.296875,0.36719 0.648438,0.54688 1.054688,0.54688 0.15625,0 0.234374,0.0781 0.234374,0.23437 0,0.15625 -0.07812,0.23438 -0.234374,0.23438 -0.273438,0 -0.71875,-0.0391 -1.328126,-0.11719 -0.5625,-0.0898 -0.996093,-0.13672 -1.3125,-0.13672 -0.324218,0 -0.761718,0.0469 -1.308593,0.13672 -0.585938,0.0781 -1.019531,0.11719 -1.308594,0.11719 -0.15625,0 -0.234375,-0.0781 -0.234375,-0.23438 0,-0.15625 0.07813,-0.23437 0.234375,-0.23437 0.40625,0 0.757813,-0.17969 1.054687,-0.54688 0.273438,-0.36328 0.410157,-0.80469 0.410157,-1.32812 V 38.88674 H 34.66407 c -0.21875,0 -0.375,-0.0508 -0.46875,-0.15625 -0.101563,-0.0781 -0.15625,-0.17969 -0.15625,-0.3125 0,-0.0391 0.09766,-0.17578 0.292969,-0.41016 0.222656,-0.25781 0.457031,-0.57812 0.703125,-0.95703 0.289062,-0.44141 0.5625,-0.89844 0.820312,-1.36719 0.289063,-0.53125 0.515625,-1.14453 0.683594,-1.83594 0.195313,-0.70312 0.292969,-1.41796 0.292969,-2.14843 0,-0.20703 0.09375,-0.3125 0.273437,-0.3125 0.03906,0 0.125,0.0195 0.253907,0.0586 0.03906,0.0156 0.121093,0.0352 0.246093,0.0586 0.125,0.0274 0.222657,0.0547 0.300781,0.0781 0.234376,0.0391 0.457032,0.0586 0.664063,0.0586 z m 0,0"
       style="fill:#000000;fill-opacity:1;fill-rule:nonzero;stroke:none" />
    <path
       id="path194"
       d="m 84.34375,3.7500401 v 0.1914 c -0.246093,0.0117 -0.421874,0.0703 -0.523437,0.17969 -0.105469,0.10547 -0.238281,0.35547 -0.398437,0.75 L 81.203126,10.48051 H 81.054688 L 78.59375,4.9883201 c -0.191406,-0.4375 -0.355468,-0.71875 -0.484374,-0.84375 -0.128907,-0.12109 -0.320313,-0.19141 -0.574219,-0.20313 v -0.1914 h 2.660156 v 0.1914 c -0.1875,0.0117 -0.285156,0.0195 -0.292969,0.0195 -0.304687,0.0195 -0.457031,0.12109 -0.457031,0.30859 0,0.13281 0.136719,0.50391 0.410156,1.10937 l 1.507813,3.38282 1.46875,-3.67188 c 0.128906,-0.32031 0.191406,-0.5625 0.191406,-0.73047 0,-0.14062 -0.05469,-0.24218 -0.160156,-0.30468 -0.105469,-0.0625 -0.296875,-0.10157 -0.570313,-0.11329 v -0.1914 z m 1.210938,5.53125 v -4.44141 c 0,-0.36719 -0.05469,-0.60156 -0.164062,-0.70312 -0.113282,-0.10547 -0.378907,-0.17188 -0.808594,-0.19532 v -0.1914 h 2.972656 v 0.1914 c -0.421875,0.0195 -0.6875,0.082 -0.804688,0.1875 -0.117187,0.10938 -0.175781,0.34375 -0.175781,0.71094 v 4.44141 c 0,0.36719 0.05859,0.60547 0.179688,0.71484 C 86.875,10.10551 87.140626,10.16801 87.554688,10.17973 v 0.1914 h -2.972656 v -0.1914 c 0.421875,-0.0117 0.6875,-0.0742 0.800781,-0.17969 0.113281,-0.1054699 0.171875,-0.3476599 0.171875,-0.7187499 z m 0,0"
       style="fill:#000000;fill-opacity:1;fill-rule:nonzero;stroke:none" />
    <path
       id="path196"
       d="m 57.921876,3.7500401 v 0.1914 c -0.246094,0.0117 -0.421876,0.0703 -0.527344,0.17969 -0.101563,0.10547 -0.234375,0.35547 -0.394532,0.75 L 54.78125,10.48051 H 54.632813 L 52.171876,4.9883201 c -0.195313,-0.4375 -0.355469,-0.71875 -0.484376,-0.84375 -0.132812,-0.12109 -0.324218,-0.19141 -0.578124,-0.20313 v -0.1914 h 2.660156 v 0.1914 c -0.183594,0.0117 -0.28125,0.0195 -0.289063,0.0195 -0.304687,0.0195 -0.460937,0.12109 -0.460937,0.30859 0,0.13281 0.136718,0.50391 0.410156,1.10937 l 1.511719,3.38282 1.46875,-3.67188 c 0.128906,-0.32031 0.191406,-0.5625 0.191406,-0.73047 0,-0.14062 -0.05469,-0.24218 -0.160156,-0.30468 -0.105469,-0.0625 -0.296875,-0.10157 -0.570313,-0.11329 v -0.1914 z m 0,0"
       style="fill:#000000;fill-opacity:1;fill-rule:nonzero;stroke:none" />
    <path
       id="path206"
       d="m 10.058594,47.18363 c 0,-5.84375 -4.0195309,-11.51953 -4.0195309,-17.11719 0,-2.8164 1.09375,-5.55468 4.4765629,-8.0039 0.04687,-0.0312 0.07031,-0.082 0.07031,-0.11328 0,-0.0937 -0.25,-0.17578 -0.433594,-0.17578 -0.09375,0 -0.2539059,0.0117 -0.3671869,0.082 -4.386719,3.14453 -5.851563,6.78125 -5.851563,10.45703 0,5.92578 4.296875,11.64453 4.296875,17.32031 0,2.82031 -1.097656,5.47266 -4.480469,7.92578 v 0.16406 c 3.382813,2.44922 4.480469,5.10547 4.480469,7.92188 0,5.67969 -4.296875,11.39844 -4.296875,17.32031 0,3.67578 1.464844,7.3125 5.851563,10.45703 0.113281,0.0703 0.2734369,0.082 0.3671869,0.082 0.183594,0 0.433594,-0.082 0.433594,-0.17578 0,-0.0273 -0.02344,-0.082 -0.07031,-0.10937 -3.3828129,-2.45313 -4.4765629,-5.1875 -4.4765629,-8.00781 0,-5.59766 4.0195309,-11.27344 4.0195309,-17.11329 0,-3.71875 -1.4609369,-7.27343 -5.7578119,-10.45703 4.296875,-3.1875 5.7578119,-6.74218 5.7578119,-10.45703 z m 0,0"
       style="fill:#000000;fill-opacity:1;fill-rule:evenodd;stroke:none" />
  </g>
</svg>
