<?xml version="1.0" encoding="UTF-8" standalone="no"?>
<svg
   xmlns:dc="http://purl.org/dc/elements/1.1/"
   xmlns:cc="http://creativecommons.org/ns#"
   xmlns:rdf="http://www.w3.org/1999/02/22-rdf-syntax-ns#"
   xmlns:svg="http://www.w3.org/2000/svg"
   xmlns="http://www.w3.org/2000/svg"
   xmlns:sodipodi="http://sodipodi.sourceforge.net/DTD/sodipodi-0.dtd"
   xmlns:inkscape="http://www.inkscape.org/namespaces/inkscape"
   inkscape:version="1.0 (4035a4f, 2020-05-01)"
   sodipodi:docname="cadences_interrupted.svg"
   id="svg55"
   version="1.2"
   viewBox="0 0 75 100"
   height="100pt"
   width="75pt">
  <metadata
     id="metadata61">
    <rdf:RDF>
      <cc:Work
         rdf:about="">
        <dc:format>image/svg+xml</dc:format>
        <dc:type
           rdf:resource="http://purl.org/dc/dcmitype/StillImage" />
        <dc:title></dc:title>
      </cc:Work>
    </rdf:RDF>
  </metadata>
  <defs
     id="defs59" />
  <sodipodi:namedview
     inkscape:current-layer="svg55"
     inkscape:window-maximized="0"
     inkscape:window-y="23"
     inkscape:window-x="0"
     inkscape:cy="66.666667"
     inkscape:cx="50"
     inkscape:zoom="4.8525"
     showgrid="false"
     id="namedview57"
     inkscape:window-height="480"
     inkscape:window-width="741"
     inkscape:pageshadow="2"
     inkscape:pageopacity="0"
     guidetolerance="10"
     gridtolerance="10"
     objecttolerance="10"
     borderopacity="1"
     bordercolor="#666666"
     pagecolor="#ffffff" />
  <g
     id="surface4039">
    <path
       id="path10"
       d="M 12.152344 73.890625 L 64.683594 73.890625 M 12.152344 78.890625 L 64.683594 78.890625 M 12.152344 83.890625 L 64.683594 83.890625 M 12.152344 88.890625 L 64.683594 88.890625 M 12.152344 93.890625 L 64.683594 93.890625 "
       style="fill:none;stroke-width:0.400025;stroke-linecap:butt;stroke-linejoin:bevel;stroke:rgb(0%,0%,0%);stroke-opacity:1;stroke-miterlimit:10;" />
    <path
       id="path12"
       d="M 12.152344 21.386719 L 64.683594 21.386719 M 12.152344 26.386719 L 64.683594 26.386719 M 12.152344 31.386719 L 64.683594 31.386719 M 12.152344 36.386719 L 64.683594 36.386719 M 12.152344 41.386719 L 64.683594 41.386719 "
       style="fill:none;stroke-width:0.400025;stroke-linecap:butt;stroke-linejoin:bevel;stroke:rgb(0%,0%,0%);stroke-opacity:1;stroke-miterlimit:10;" />
    <path
       id="path14"
       d="M 12.550781 21.386719 L 12.550781 93.890625 "
       style="fill:none;stroke-width:0.80005;stroke-linecap:butt;stroke-linejoin:bevel;stroke:rgb(0%,0%,0%);stroke-opacity:1;stroke-miterlimit:10;" />
    <path
       id="path16"
       d="M 64.28125 21.386719 L 64.28125 93.890625 "
       style="fill:none;stroke-width:0.80005;stroke-linecap:butt;stroke-linejoin:bevel;stroke:rgb(0%,0%,0%);stroke-opacity:1;stroke-miterlimit:10;" />
    <path
       id="path18"
       d="M 49.242188 46.386719 L 59.183594 46.386719 "
       style="fill:none;stroke-width:0.80005;stroke-linecap:square;stroke-linejoin:bevel;stroke:rgb(0%,0%,0%);stroke-opacity:1;stroke-miterlimit:10;" />
    <path
       id="path20"
       d="M 38.105469 77.175781 L 38.105469 93.890625 "
       style="fill:none;stroke-width:0.650041;stroke-linecap:round;stroke-linejoin:bevel;stroke:rgb(0%,0%,0%);stroke-opacity:1;stroke-miterlimit:10;" />
    <path
       id="path22"
       d="M 44.398438 43.121094 L 44.398438 15.761719 "
       style="fill:none;stroke-width:0.650041;stroke-linecap:round;stroke-linejoin:bevel;stroke:rgb(0%,0%,0%);stroke-opacity:1;stroke-miterlimit:10;" />
    <path
       id="path24"
       d="M 51.066406 74.675781 L 51.066406 91.390625 "
       style="fill:none;stroke-width:0.650041;stroke-linecap:round;stroke-linejoin:bevel;stroke:rgb(0%,0%,0%);stroke-opacity:1;stroke-miterlimit:10;" />
    <path
       id="path26"
       d="M 57.359375 45.621094 L 57.359375 17.636719 "
       style="fill:none;stroke-width:0.650041;stroke-linecap:round;stroke-linejoin:bevel;stroke:rgb(0%,0%,0%);stroke-opacity:1;stroke-miterlimit:10;" />
    <path
       id="path28"
       d="M 44.089844 75.082031 C 44.089844 74.859375 44.003906 74.671875 43.835938 74.515625 C 43.664062 74.347656 43.46875 74.261719 43.25 74.261719 C 42.859375 74.261719 42.070312 74.652344 40.886719 75.433594 C 39.660156 76.226562 38.914062 76.792969 38.640625 77.132812 C 38.496094 77.316406 38.425781 77.503906 38.425781 77.699219 C 38.425781 77.921875 38.507812 78.109375 38.679688 78.265625 C 38.835938 78.433594 39.03125 78.519531 39.265625 78.519531 C 39.640625 78.519531 40.4375 78.128906 41.648438 77.347656 C 42.84375 76.566406 43.585938 76 43.875 75.648438 C 44.015625 75.480469 44.089844 75.289062 44.089844 75.082031 Z M 43.054688 73.636719 C 44.171875 73.636719 44.734375 74.117188 44.734375 75.082031 C 44.734375 75.550781 44.597656 76.097656 44.324219 76.722656 C 44.050781 77.335938 43.683594 77.804688 43.230469 78.128906 C 42.226562 78.804688 40.96875 79.144531 39.460938 79.144531 C 38.339844 79.144531 37.78125 78.664062 37.78125 77.699219 C 37.78125 77.269531 37.917969 76.730469 38.191406 76.078125 C 38.449219 75.453125 38.816406 74.976562 39.285156 74.652344 C 40.285156 73.976562 41.542969 73.636719 43.054688 73.636719 Z M 43.054688 73.636719 "
       style=" stroke:none;fill-rule:nonzero;fill:rgb(0%,0%,0%);fill-opacity:1;" />
    <path
       id="path30"
       d="M 44.089844 30.078125 C 44.089844 29.855469 44.003906 29.667969 43.835938 29.511719 C 43.664062 29.34375 43.46875 29.257812 43.25 29.257812 C 42.859375 29.257812 42.070312 29.648438 40.886719 30.429688 C 39.660156 31.226562 38.914062 31.792969 38.640625 32.128906 C 38.496094 32.3125 38.425781 32.5 38.425781 32.695312 C 38.425781 32.917969 38.507812 33.105469 38.679688 33.261719 C 38.835938 33.433594 39.03125 33.515625 39.265625 33.515625 C 39.640625 33.515625 40.4375 33.125 41.648438 32.34375 C 42.84375 31.5625 43.585938 30.996094 43.875 30.644531 C 44.015625 30.476562 44.089844 30.285156 44.089844 30.078125 Z M 43.054688 28.632812 C 44.171875 28.632812 44.734375 29.113281 44.734375 30.078125 C 44.734375 30.546875 44.597656 31.09375 44.324219 31.71875 C 44.050781 32.332031 43.683594 32.800781 43.230469 33.125 C 42.226562 33.804688 40.96875 34.140625 39.460938 34.140625 C 38.339844 34.140625 37.78125 33.660156 37.78125 32.695312 C 37.78125 32.265625 37.917969 31.726562 38.191406 31.074219 C 38.449219 30.449219 38.816406 29.972656 39.285156 29.648438 C 40.285156 28.972656 41.542969 28.632812 43.054688 28.632812 Z M 43.054688 28.632812 "
       style=" stroke:none;fill-rule:nonzero;fill:rgb(0%,0%,0%);fill-opacity:1;" />
    <path
       id="path32"
       d="M 44.089844 35.078125 C 44.089844 34.859375 44.003906 34.667969 43.835938 34.511719 C 43.664062 34.34375 43.46875 34.257812 43.25 34.257812 C 42.859375 34.257812 42.070312 34.648438 40.886719 35.429688 C 39.660156 36.226562 38.914062 36.792969 38.640625 37.128906 C 38.496094 37.3125 38.425781 37.5 38.425781 37.695312 C 38.425781 37.917969 38.507812 38.105469 38.679688 38.261719 C 38.835938 38.433594 39.03125 38.515625 39.265625 38.515625 C 39.640625 38.515625 40.4375 38.125 41.648438 37.34375 C 42.84375 36.5625 43.585938 35.996094 43.875 35.644531 C 44.015625 35.476562 44.089844 35.289062 44.089844 35.078125 Z M 43.054688 33.632812 C 44.171875 33.632812 44.734375 34.117188 44.734375 35.078125 C 44.734375 35.546875 44.597656 36.09375 44.324219 36.71875 C 44.050781 37.332031 43.683594 37.800781 43.230469 38.125 C 42.226562 38.804688 40.96875 39.140625 39.460938 39.140625 C 38.339844 39.140625 37.78125 38.660156 37.78125 37.695312 C 37.78125 37.265625 37.917969 36.726562 38.191406 36.074219 C 38.449219 35.449219 38.816406 34.976562 39.285156 34.648438 C 40.285156 33.972656 41.542969 33.632812 43.054688 33.632812 Z M 43.054688 33.632812 "
       style=" stroke:none;fill-rule:nonzero;fill:rgb(0%,0%,0%);fill-opacity:1;" />
    <path
       id="path34"
       d="M 44.089844 42.578125 C 44.089844 42.359375 44.003906 42.167969 43.835938 42.011719 C 43.664062 41.84375 43.46875 41.757812 43.25 41.757812 C 42.859375 41.757812 42.070312 42.148438 40.886719 42.929688 C 39.660156 43.726562 38.914062 44.292969 38.640625 44.628906 C 38.496094 44.8125 38.425781 45 38.425781 45.195312 C 38.425781 45.417969 38.507812 45.605469 38.679688 45.761719 C 38.835938 45.933594 39.03125 46.015625 39.265625 46.015625 C 39.640625 46.015625 40.4375 45.625 41.648438 44.84375 C 42.84375 44.0625 43.585938 43.496094 43.875 43.144531 C 44.015625 42.976562 44.089844 42.789062 44.089844 42.578125 Z M 43.054688 41.132812 C 44.171875 41.132812 44.734375 41.617188 44.734375 42.578125 C 44.734375 43.046875 44.597656 43.59375 44.324219 44.21875 C 44.050781 44.832031 43.683594 45.300781 43.230469 45.625 C 42.226562 46.304688 40.96875 46.640625 39.460938 46.640625 C 38.339844 46.640625 37.78125 46.160156 37.78125 45.195312 C 37.78125 44.765625 37.917969 44.226562 38.191406 43.574219 C 38.449219 42.949219 38.816406 42.476562 39.285156 42.148438 C 40.285156 41.472656 41.542969 41.132812 43.054688 41.132812 Z M 43.054688 41.132812 "
       style=" stroke:none;fill-rule:nonzero;fill:rgb(0%,0%,0%);fill-opacity:1;" />
    <path
       id="path36"
       d="M 57.050781 72.582031 C 57.050781 72.359375 56.964844 72.171875 56.796875 72.015625 C 56.625 71.84375 56.429688 71.761719 56.210938 71.761719 C 55.820312 71.761719 55.03125 72.152344 53.847656 72.933594 C 52.621094 73.726562 51.875 74.292969 51.601562 74.632812 C 51.457031 74.816406 51.386719 75.003906 51.386719 75.199219 C 51.386719 75.421875 51.46875 75.609375 51.640625 75.765625 C 51.796875 75.933594 51.992188 76.019531 52.226562 76.019531 C 52.601562 76.019531 53.398438 75.628906 54.609375 74.847656 C 55.804688 74.066406 56.546875 73.5 56.835938 73.148438 C 56.976562 72.980469 57.050781 72.789062 57.050781 72.582031 Z M 56.015625 71.136719 C 57.132812 71.136719 57.695312 71.617188 57.695312 72.582031 C 57.695312 73.050781 57.558594 73.597656 57.285156 74.222656 C 57.011719 74.835938 56.644531 75.304688 56.191406 75.628906 C 55.1875 76.304688 53.929688 76.644531 52.421875 76.644531 C 51.300781 76.644531 50.742188 76.164062 50.742188 75.199219 C 50.742188 74.769531 50.878906 74.230469 51.152344 73.578125 C 51.410156 72.953125 51.777344 72.476562 52.246094 72.152344 C 53.246094 71.472656 54.503906 71.136719 56.015625 71.136719 Z M 56.015625 71.136719 "
       style=" stroke:none;fill-rule:nonzero;fill:rgb(0%,0%,0%);fill-opacity:1;" />
    <path
       id="path38"
       d="M 57.050781 32.578125 C 57.050781 32.359375 56.964844 32.167969 56.796875 32.011719 C 56.625 31.84375 56.429688 31.757812 56.210938 31.757812 C 55.820312 31.757812 55.03125 32.148438 53.847656 32.929688 C 52.621094 33.726562 51.875 34.292969 51.601562 34.628906 C 51.457031 34.8125 51.386719 35 51.386719 35.195312 C 51.386719 35.417969 51.46875 35.605469 51.640625 35.761719 C 51.796875 35.933594 51.992188 36.015625 52.226562 36.015625 C 52.601562 36.015625 53.398438 35.625 54.609375 34.84375 C 55.804688 34.0625 56.546875 33.496094 56.835938 33.144531 C 56.976562 32.976562 57.050781 32.789062 57.050781 32.578125 Z M 56.015625 31.132812 C 57.132812 31.132812 57.695312 31.617188 57.695312 32.578125 C 57.695312 33.046875 57.558594 33.59375 57.285156 34.21875 C 57.011719 34.832031 56.644531 35.300781 56.191406 35.625 C 55.1875 36.304688 53.929688 36.640625 52.421875 36.640625 C 51.300781 36.640625 50.742188 36.160156 50.742188 35.195312 C 50.742188 34.765625 50.878906 34.226562 51.152344 33.574219 C 51.410156 32.949219 51.777344 32.476562 52.246094 32.148438 C 53.246094 31.472656 54.503906 31.132812 56.015625 31.132812 Z M 56.015625 31.132812 "
       style=" stroke:none;fill-rule:nonzero;fill:rgb(0%,0%,0%);fill-opacity:1;" />
    <path
       id="path40"
       d="M 57.050781 40.078125 C 57.050781 39.859375 56.964844 39.667969 56.796875 39.511719 C 56.625 39.34375 56.429688 39.257812 56.210938 39.257812 C 55.820312 39.257812 55.03125 39.648438 53.847656 40.429688 C 52.621094 41.226562 51.875 41.792969 51.601562 42.128906 C 51.457031 42.3125 51.386719 42.5 51.386719 42.695312 C 51.386719 42.917969 51.46875 43.105469 51.640625 43.261719 C 51.796875 43.433594 51.992188 43.515625 52.226562 43.515625 C 52.601562 43.515625 53.398438 43.125 54.609375 42.34375 C 55.804688 41.5625 56.546875 40.996094 56.835938 40.644531 C 56.976562 40.476562 57.050781 40.289062 57.050781 40.078125 Z M 56.015625 38.632812 C 57.132812 38.632812 57.695312 39.117188 57.695312 40.078125 C 57.695312 40.546875 57.558594 41.09375 57.285156 41.71875 C 57.011719 42.332031 56.644531 42.800781 56.191406 43.125 C 55.1875 43.804688 53.929688 44.140625 52.421875 44.140625 C 51.300781 44.140625 50.742188 43.660156 50.742188 42.695312 C 50.742188 42.265625 50.878906 41.726562 51.152344 41.074219 C 51.410156 40.449219 51.777344 39.976562 52.246094 39.648438 C 53.246094 38.972656 54.503906 38.632812 56.015625 38.632812 Z M 56.015625 38.632812 "
       style=" stroke:none;fill-rule:nonzero;fill:rgb(0%,0%,0%);fill-opacity:1;" />
    <path
       id="path42"
       d="M 57.050781 45.078125 C 57.050781 44.859375 56.964844 44.667969 56.796875 44.511719 C 56.625 44.34375 56.429688 44.257812 56.210938 44.257812 C 55.820312 44.257812 55.03125 44.648438 53.847656 45.429688 C 52.621094 46.226562 51.875 46.792969 51.601562 47.128906 C 51.457031 47.3125 51.386719 47.5 51.386719 47.695312 C 51.386719 47.917969 51.46875 48.105469 51.640625 48.261719 C 51.796875 48.433594 51.992188 48.515625 52.226562 48.515625 C 52.601562 48.515625 53.398438 48.125 54.609375 47.34375 C 55.804688 46.5625 56.546875 45.996094 56.835938 45.644531 C 56.976562 45.476562 57.050781 45.289062 57.050781 45.078125 Z M 56.015625 43.632812 C 57.132812 43.632812 57.695312 44.117188 57.695312 45.078125 C 57.695312 45.546875 57.558594 46.09375 57.285156 46.71875 C 57.011719 47.332031 56.644531 47.800781 56.191406 48.125 C 55.1875 48.804688 53.929688 49.140625 52.421875 49.140625 C 51.300781 49.140625 50.742188 48.660156 50.742188 47.695312 C 50.742188 47.265625 50.878906 46.726562 51.152344 46.074219 C 51.410156 45.449219 51.777344 44.976562 52.246094 44.648438 C 53.246094 43.972656 54.503906 43.632812 56.015625 43.632812 Z M 56.015625 43.632812 "
       style=" stroke:none;fill-rule:nonzero;fill:rgb(0%,0%,0%);fill-opacity:1;" />
    <path
       id="path44"
       d="M 27.578125 77.113281 C 27.382812 76.917969 27.285156 76.675781 27.285156 76.390625 C 27.285156 76.105469 27.382812 75.863281 27.578125 75.667969 C 27.773438 75.472656 28.015625 75.375 28.300781 75.375 C 28.585938 75.375 28.828125 75.472656 29.023438 75.667969 C 29.21875 75.863281 29.316406 76.105469 29.316406 76.390625 C 29.316406 76.675781 29.21875 76.917969 29.023438 77.113281 C 28.828125 77.308594 28.585938 77.40625 28.300781 77.40625 C 28.015625 77.40625 27.773438 77.308594 27.578125 77.113281 Z M 27.578125 82.113281 C 27.382812 81.917969 27.285156 81.675781 27.285156 81.390625 C 27.285156 81.105469 27.382812 80.863281 27.578125 80.667969 C 27.773438 80.472656 28.015625 80.375 28.300781 80.375 C 28.585938 80.375 28.828125 80.472656 29.023438 80.667969 C 29.21875 80.863281 29.316406 81.105469 29.316406 81.390625 C 29.316406 81.675781 29.21875 81.917969 29.023438 82.113281 C 28.828125 82.308594 28.585938 82.40625 28.300781 82.40625 C 28.015625 82.40625 27.773438 82.308594 27.578125 82.113281 Z M 20.800781 73.636719 C 22.53125 73.636719 23.953125 74.074219 25.058594 74.945312 C 26.125 75.855469 26.660156 77.09375 26.660156 78.65625 C 26.660156 79.710938 26.453125 80.675781 26.035156 81.546875 C 25.644531 82.457031 25.128906 83.265625 24.492188 83.96875 C 23.839844 84.683594 23.054688 85.363281 22.128906 86 C 21.230469 86.625 20.304688 87.183594 19.355469 87.679688 C 17.429688 88.65625 16.359375 89.144531 16.152344 89.144531 C 15.984375 89.144531 15.898438 89.058594 15.898438 88.890625 C 15.898438 88.824219 15.925781 88.765625 15.976562 88.714844 C 16.640625 88.324219 17.453125 87.824219 18.417969 87.210938 C 19.042969 86.808594 19.773438 86.246094 20.605469 85.53125 C 21.414062 84.855469 22.039062 84.214844 22.480469 83.617188 C 22.9375 83.03125 23.351562 82.300781 23.730469 81.429688 C 24.054688 80.558594 24.21875 79.699219 24.21875 78.851562 C 24.21875 77.589844 23.90625 76.488281 23.28125 75.550781 C 22.65625 74.613281 21.828125 74.144531 20.800781 74.144531 C 20.070312 74.144531 19.445312 74.378906 18.925781 74.847656 C 18.367188 75.328125 17.960938 75.933594 17.714844 76.664062 C 17.960938 76.558594 18.191406 76.507812 18.398438 76.507812 C 18.945312 76.507812 19.414062 76.703125 19.804688 77.09375 C 20.195312 77.511719 20.390625 77.984375 20.390625 78.519531 C 20.390625 79.078125 20.203125 79.582031 19.824219 80.023438 C 19.421875 80.425781 18.945312 80.628906 18.398438 80.628906 C 17.8125 80.628906 17.285156 80.425781 16.816406 80.023438 C 16.375 79.582031 16.152344 79.078125 16.152344 78.519531 C 16.152344 77.179688 16.609375 76.03125 17.519531 75.082031 C 18.417969 74.117188 19.511719 73.636719 20.800781 73.636719 Z M 20.800781 73.636719 "
       style=" stroke:none;fill-rule:nonzero;fill:rgb(0%,0%,0%);fill-opacity:1;" />
    <path
       id="path46"
       d="M 23.496094 31.269531 C 23.496094 31.269531 23.535156 31.269531 23.613281 31.269531 C 23.664062 31.257812 23.710938 31.25 23.75 31.25 C 25.207031 31.25 26.40625 31.765625 27.34375 32.792969 C 28.28125 33.808594 28.75 34.996094 28.75 36.347656 C 28.75 38.027344 28.054688 39.394531 26.660156 40.449219 C 26.296875 40.738281 25.820312 40.972656 25.234375 41.152344 C 25.300781 42 25.332031 42.683594 25.332031 43.203125 C 25.332031 43.308594 25.320312 43.6875 25.292969 44.335938 C 25.242188 45.546875 24.824219 46.597656 24.042969 47.480469 C 23.289062 48.355469 22.351562 48.789062 21.230469 48.789062 C 20.175781 48.789062 19.277344 48.417969 18.535156 47.675781 C 17.792969 46.921875 17.421875 46.011719 17.421875 44.941406 C 17.421875 44.382812 17.636719 43.90625 18.066406 43.515625 C 18.507812 43.125 19.023438 42.929688 19.609375 42.929688 C 20.128906 42.929688 20.566406 43.132812 20.917969 43.535156 C 21.28125 43.914062 21.464844 44.382812 21.464844 44.941406 C 21.464844 45.449219 21.28125 45.886719 20.917969 46.25 C 20.554688 46.617188 20.117188 46.796875 19.609375 46.796875 C 19.402344 46.796875 19.199219 46.757812 19.003906 46.679688 C 19.578125 47.527344 20.339844 47.949219 21.289062 47.949219 C 22.1875 47.949219 22.921875 47.585938 23.496094 46.855469 C 24.09375 46.101562 24.421875 45.222656 24.472656 44.21875 C 24.5 43.59375 24.511719 43.238281 24.511719 43.144531 C 24.511719 42.417969 24.484375 41.816406 24.433594 41.347656 C 23.78125 41.453125 23.203125 41.503906 22.695312 41.503906 C 20.886719 41.503906 19.34375 40.789062 18.066406 39.355469 C 16.816406 37.910156 16.191406 36.191406 16.191406 34.199219 C 16.191406 33.785156 16.230469 33.359375 16.308594 32.929688 C 16.386719 32.578125 16.484375 32.195312 16.601562 31.777344 C 16.667969 31.542969 16.84375 31.167969 17.128906 30.644531 C 17.234375 30.488281 17.351562 30.292969 17.480469 30.058594 C 17.609375 29.824219 17.703125 29.667969 17.753906 29.589844 C 17.882812 29.328125 18.136719 28.976562 18.515625 28.535156 C 18.621094 28.417969 18.726562 28.289062 18.835938 28.144531 C 18.949219 28 19.042969 27.882812 19.121094 27.792969 C 19.199219 27.703125 19.257812 27.628906 19.296875 27.578125 C 19.335938 27.527344 19.628906 27.179688 20.175781 26.542969 C 20.304688 26.414062 20.433594 26.273438 20.554688 26.125 C 20.679688 25.972656 20.78125 25.855469 20.859375 25.773438 C 20.9375 25.6875 20.996094 25.625 21.035156 25.585938 C 20.566406 24.035156 20.273438 22.800781 20.15625 21.875 C 20.066406 21.132812 20.019531 20.117188 20.019531 18.828125 C 20.019531 17.695312 20.28125 16.632812 20.800781 15.644531 C 21.308594 14.617188 22.019531 13.777344 22.929688 13.125 C 22.996094 13.085938 23.058594 13.066406 23.125 13.066406 C 23.214844 13.066406 23.28125 13.085938 23.320312 13.125 C 24.023438 13.972656 24.628906 15.070312 25.136719 16.425781 C 25.65625 17.78125 25.917969 19.011719 25.917969 20.117188 C 25.917969 21.367188 25.617188 22.539062 25.019531 23.632812 C 24.34375 24.792969 23.46875 25.988281 22.402344 27.226562 C 22.675781 28.085938 23.039062 29.433594 23.496094 31.269531 Z M 25.15625 40.351562 C 25.832031 40.105469 26.359375 39.683594 26.738281 39.082031 C 27.15625 38.511719 27.363281 37.867188 27.363281 37.148438 C 27.363281 36.226562 27.050781 35.40625 26.425781 34.6875 C 25.789062 33.945312 24.972656 33.53125 23.984375 33.4375 C 24.542969 36.1875 24.933594 38.492188 25.15625 40.351562 Z M 17.597656 35.839844 C 17.597656 37.128906 18.117188 38.261719 19.160156 39.238281 C 20.226562 40.191406 21.425781 40.664062 22.753906 40.664062 C 23.300781 40.664062 23.835938 40.625 24.355469 40.546875 C 24.148438 38.570312 23.738281 36.199219 23.125 33.4375 C 22.382812 33.515625 21.789062 33.777344 21.347656 34.21875 C 20.917969 34.675781 20.703125 35.191406 20.703125 35.761719 C 20.703125 36.753906 21.230469 37.554688 22.285156 38.164062 C 22.375 38.257812 22.421875 38.355469 22.421875 38.457031 C 22.421875 38.5625 22.375 38.660156 22.285156 38.75 C 22.207031 38.84375 22.109375 38.886719 21.992188 38.886719 C 21.980469 38.886719 21.921875 38.875 21.816406 38.847656 C 21.074219 38.445312 20.5 37.925781 20.097656 37.285156 C 19.71875 36.609375 19.53125 35.925781 19.53125 35.234375 C 19.53125 34.335938 19.8125 33.523438 20.371094 32.792969 C 20.957031 32.066406 21.71875 31.597656 22.65625 31.386719 C 22.292969 29.929688 21.992188 28.789062 21.757812 27.96875 C 21.550781 28.203125 21.300781 28.488281 21.007812 28.820312 C 20.714844 29.152344 20.539062 29.347656 20.488281 29.414062 C 20.019531 30.027344 19.660156 30.5 19.414062 30.839844 C 18.972656 31.453125 18.644531 31.980469 18.4375 32.421875 C 18.214844 32.917969 18.019531 33.457031 17.851562 34.042969 C 17.683594 34.605469 17.597656 35.203125 17.597656 35.839844 Z M 24.121094 15.976562 C 23.144531 16.457031 22.375 17.148438 21.816406 18.046875 C 21.242188 18.972656 20.957031 19.96875 20.957031 21.035156 C 20.957031 21.972656 21.191406 23.234375 21.660156 24.824219 C 22.597656 23.691406 23.300781 22.644531 23.769531 21.679688 C 24.265625 20.664062 24.511719 19.601562 24.511719 18.496094 C 24.511719 17.664062 24.382812 16.824219 24.121094 15.976562 Z M 24.121094 15.976562 "
       style=" stroke:none;fill-rule:nonzero;fill:rgb(0%,0%,0%);fill-opacity:1;" />
    <path
       id="path48"
       d="M 44.871094 3.75 L 44.871094 3.941406 C 44.625 3.953125 44.449219 4.011719 44.34375 4.121094 C 44.242188 4.226562 44.109375 4.476562 43.949219 4.871094 L 41.730469 10.480469 L 41.582031 10.480469 L 39.121094 4.988281 C 38.925781 4.550781 38.765625 4.269531 38.636719 4.144531 C 38.503906 4.023438 38.3125 3.953125 38.058594 3.941406 L 38.058594 3.75 L 40.71875 3.75 L 40.71875 3.941406 C 40.535156 3.953125 40.4375 3.960938 40.429688 3.960938 C 40.125 3.980469 39.96875 4.082031 39.96875 4.269531 C 39.96875 4.402344 40.105469 4.773438 40.378906 5.378906 L 41.890625 8.761719 L 43.359375 5.089844 C 43.488281 4.769531 43.550781 4.527344 43.550781 4.359375 C 43.550781 4.21875 43.496094 4.117188 43.390625 4.054688 C 43.285156 3.992188 43.09375 3.953125 42.820312 3.941406 L 42.820312 3.75 Z M 44.871094 3.75 "
       style=" stroke:none;fill-rule:nonzero;fill:rgb(0%,0%,0%);fill-opacity:1;" />
    <path
       id="path50"
       d="M 57.832031 3.75 L 57.832031 3.941406 C 57.585938 3.953125 57.410156 4.011719 57.304688 4.121094 C 57.203125 4.226562 57.070312 4.476562 56.910156 4.871094 L 54.691406 10.480469 L 54.542969 10.480469 L 52.082031 4.988281 C 51.886719 4.550781 51.726562 4.269531 51.597656 4.144531 C 51.464844 4.023438 51.273438 3.953125 51.019531 3.941406 L 51.019531 3.75 L 53.679688 3.75 L 53.679688 3.941406 C 53.496094 3.953125 53.398438 3.960938 53.390625 3.960938 C 53.085938 3.980469 52.929688 4.082031 52.929688 4.269531 C 52.929688 4.402344 53.066406 4.773438 53.339844 5.378906 L 54.851562 8.761719 L 56.320312 5.089844 C 56.449219 4.769531 56.511719 4.527344 56.511719 4.359375 C 56.511719 4.21875 56.457031 4.117188 56.351562 4.054688 C 56.246094 3.992188 56.054688 3.953125 55.78125 3.941406 L 55.78125 3.75 Z M 59.042969 9.28125 L 59.042969 4.839844 C 59.042969 4.472656 58.984375 4.238281 58.875 4.136719 C 58.765625 4.03125 58.496094 3.964844 58.070312 3.941406 L 58.070312 3.75 L 61.042969 3.75 L 61.042969 3.941406 C 60.621094 3.960938 60.351562 4.023438 60.234375 4.128906 C 60.121094 4.238281 60.0625 4.472656 60.0625 4.839844 L 60.0625 9.28125 C 60.0625 9.648438 60.121094 9.886719 60.242188 9.996094 C 60.359375 10.105469 60.628906 10.167969 61.042969 10.179688 L 61.042969 10.371094 L 58.070312 10.371094 L 58.070312 10.179688 C 58.492188 10.167969 58.757812 10.105469 58.871094 10 C 58.984375 9.894531 59.042969 9.652344 59.042969 9.28125 Z M 59.042969 9.28125 "
       style=" stroke:none;fill-rule:nonzero;fill:rgb(0%,0%,0%);fill-opacity:1;" />
    <path
       id="path52"
       d="M 10.058594 47.183594 C 10.058594 41.339844 6.039062 35.664062 6.039062 30.066406 C 6.039062 27.25 7.132812 24.511719 10.515625 22.0625 C 10.5625 22.03125 10.585938 21.980469 10.585938 21.949219 C 10.585938 21.855469 10.335938 21.773438 10.152344 21.773438 C 10.058594 21.773438 9.898438 21.785156 9.785156 21.855469 C 5.398438 25 3.933594 28.636719 3.933594 32.3125 C 3.933594 38.238281 8.230469 43.957031 8.230469 49.632812 C 8.230469 52.453125 7.132812 55.105469 3.75 57.558594 L 3.75 57.722656 C 7.132812 60.171875 8.230469 62.828125 8.230469 65.644531 C 8.230469 71.324219 3.933594 77.042969 3.933594 82.964844 C 3.933594 86.640625 5.398438 90.277344 9.785156 93.421875 C 9.898438 93.492188 10.058594 93.503906 10.152344 93.503906 C 10.335938 93.503906 10.585938 93.421875 10.585938 93.328125 C 10.585938 93.300781 10.5625 93.246094 10.515625 93.21875 C 7.132812 90.765625 6.039062 88.03125 6.039062 85.210938 C 6.039062 79.613281 10.058594 73.9375 10.058594 68.097656 C 10.058594 64.378906 8.597656 60.824219 4.300781 57.640625 C 8.597656 54.453125 10.058594 50.898438 10.058594 47.183594 Z M 10.058594 47.183594 "
       style=" stroke:none;fill-rule:evenodd;fill:rgb(0%,0%,0%);fill-opacity:1;" />
  </g>
</svg>
