<?xml version="1.0" encoding="UTF-8" standalone="no"?>
<svg
   xmlns:dc="http://purl.org/dc/elements/1.1/"
   xmlns:cc="http://creativecommons.org/ns#"
   xmlns:rdf="http://www.w3.org/1999/02/22-rdf-syntax-ns#"
   xmlns:svg="http://www.w3.org/2000/svg"
   xmlns="http://www.w3.org/2000/svg"
   xmlns:sodipodi="http://sodipodi.sourceforge.net/DTD/sodipodi-0.dtd"
   xmlns:inkscape="http://www.inkscape.org/namespaces/inkscape"
   inkscape:version="1.0 (4035a4f, 2020-05-01)"
   sodipodi:docname="cadences_plagale.svg"
   id="svg53"
   version="1.2"
   viewBox="0 0 75 100"
   height="100pt"
   width="75pt">
  <metadata
     id="metadata59">
    <rdf:RDF>
      <cc:Work
         rdf:about="">
        <dc:format>image/svg+xml</dc:format>
        <dc:type
           rdf:resource="http://purl.org/dc/dcmitype/StillImage" />
        <dc:title></dc:title>
      </cc:Work>
    </rdf:RDF>
  </metadata>
  <defs
     id="defs57" />
  <sodipodi:namedview
     inkscape:current-layer="svg53"
     inkscape:window-maximized="0"
     inkscape:window-y="23"
     inkscape:window-x="0"
     inkscape:cy="66.666667"
     inkscape:cx="50"
     inkscape:zoom="4.8525"
     showgrid="false"
     id="namedview55"
     inkscape:window-height="480"
     inkscape:window-width="741"
     inkscape:pageshadow="2"
     inkscape:pageopacity="0"
     guidetolerance="10"
     gridtolerance="10"
     objecttolerance="10"
     borderopacity="1"
     bordercolor="#666666"
     pagecolor="#ffffff" />
  <g
     id="surface3442">
    <path
       id="path10"
       d="M 12.152344 21.386719 L 65.777344 21.386719 M 12.152344 26.386719 L 65.777344 26.386719 M 12.152344 31.386719 L 65.777344 31.386719 M 12.152344 36.386719 L 65.777344 36.386719 M 12.152344 41.386719 L 65.777344 41.386719 "
       style="fill:none;stroke-width:0.400025;stroke-linecap:butt;stroke-linejoin:bevel;stroke:rgb(0%,0%,0%);stroke-opacity:1;stroke-miterlimit:10;" />
    <path
       id="path12"
       d="M 12.152344 73.886719 L 65.777344 73.886719 M 12.152344 78.890625 L 65.777344 78.890625 M 12.152344 83.890625 L 65.777344 83.890625 M 12.152344 88.890625 L 65.777344 88.890625 M 12.152344 93.890625 L 65.777344 93.890625 "
       style="fill:none;stroke-width:0.400025;stroke-linecap:butt;stroke-linejoin:bevel;stroke:rgb(0%,0%,0%);stroke-opacity:1;stroke-miterlimit:10;" />
    <path
       id="path14"
       d="M 12.550781 21.386719 L 12.550781 93.890625 "
       style="fill:none;stroke-width:0.80005;stroke-linecap:butt;stroke-linejoin:bevel;stroke:rgb(0%,0%,0%);stroke-opacity:1;stroke-miterlimit:10;" />
    <path
       id="path16"
       d="M 65.375 21.386719 L 65.375 93.890625 "
       style="fill:none;stroke-width:0.80005;stroke-linecap:butt;stroke-linejoin:bevel;stroke:rgb(0%,0%,0%);stroke-opacity:1;stroke-miterlimit:10;" />
    <path
       id="path18"
       d="M 44.398438 38.117188 L 44.398438 13.886719 "
       style="fill:none;stroke-width:0.650041;stroke-linecap:round;stroke-linejoin:bevel;stroke:rgb(0%,0%,0%);stroke-opacity:1;stroke-miterlimit:10;" />
    <path
       id="path20"
       d="M 57.90625 40.617188 L 57.90625 13.886719 "
       style="fill:none;stroke-width:0.650041;stroke-linecap:round;stroke-linejoin:bevel;stroke:rgb(0%,0%,0%);stroke-opacity:1;stroke-miterlimit:10;" />
    <path
       id="path22"
       d="M 44.398438 95.621094 L 44.398438 78.890625 "
       style="fill:none;stroke-width:0.650041;stroke-linecap:round;stroke-linejoin:bevel;stroke:rgb(0%,0%,0%);stroke-opacity:1;stroke-miterlimit:10;" />
    <path
       id="path24"
       d="M 57.90625 85.621094 L 57.90625 70.136719 "
       style="fill:none;stroke-width:0.650041;stroke-linecap:round;stroke-linejoin:bevel;stroke:rgb(0%,0%,0%);stroke-opacity:1;stroke-miterlimit:10;" />
    <path
       id="path26"
       d="M 44.089844 27.578125 C 44.089844 27.355469 44.003906 27.167969 43.835938 27.011719 C 43.664062 26.839844 43.46875 26.757812 43.25 26.757812 C 42.859375 26.757812 42.070312 27.148438 40.886719 27.929688 C 39.660156 28.722656 38.914062 29.289062 38.640625 29.628906 C 38.496094 29.808594 38.425781 30 38.425781 30.195312 C 38.425781 30.414062 38.507812 30.605469 38.679688 30.761719 C 38.835938 30.929688 39.03125 31.015625 39.265625 31.015625 C 39.640625 31.015625 40.4375 30.625 41.648438 29.84375 C 42.84375 29.0625 43.585938 28.496094 43.875 28.144531 C 44.015625 27.972656 44.089844 27.785156 44.089844 27.578125 Z M 43.054688 26.132812 C 44.171875 26.132812 44.734375 26.613281 44.734375 27.578125 C 44.734375 28.046875 44.597656 28.59375 44.324219 29.21875 C 44.050781 29.828125 43.683594 30.296875 43.230469 30.625 C 42.226562 31.300781 40.96875 31.640625 39.460938 31.640625 C 38.339844 31.640625 37.78125 31.15625 37.78125 30.195312 C 37.78125 29.765625 37.917969 29.222656 38.191406 28.574219 C 38.449219 27.949219 38.816406 27.472656 39.285156 27.148438 C 40.285156 26.46875 41.542969 26.132812 43.054688 26.132812 Z M 43.054688 26.132812 "
       style=" stroke:none;fill-rule:nonzero;fill:rgb(0%,0%,0%);fill-opacity:1;" />
    <path
       id="path28"
       d="M 44.089844 32.578125 C 44.089844 32.355469 44.003906 32.167969 43.835938 32.011719 C 43.664062 31.839844 43.46875 31.757812 43.25 31.757812 C 42.859375 31.757812 42.070312 32.148438 40.886719 32.929688 C 39.660156 33.722656 38.914062 34.289062 38.640625 34.628906 C 38.496094 34.8125 38.425781 35 38.425781 35.195312 C 38.425781 35.417969 38.507812 35.605469 38.679688 35.761719 C 38.835938 35.929688 39.03125 36.015625 39.265625 36.015625 C 39.640625 36.015625 40.4375 35.625 41.648438 34.84375 C 42.84375 34.0625 43.585938 33.496094 43.875 33.144531 C 44.015625 32.972656 44.089844 32.785156 44.089844 32.578125 Z M 43.054688 31.132812 C 44.171875 31.132812 44.734375 31.613281 44.734375 32.578125 C 44.734375 33.046875 44.597656 33.59375 44.324219 34.21875 C 44.050781 34.832031 43.683594 35.300781 43.230469 35.625 C 42.226562 36.300781 40.96875 36.640625 39.460938 36.640625 C 38.339844 36.640625 37.78125 36.160156 37.78125 35.195312 C 37.78125 34.765625 37.917969 34.226562 38.191406 33.574219 C 38.449219 32.949219 38.816406 32.472656 39.285156 32.148438 C 40.285156 31.46875 41.542969 31.132812 43.054688 31.132812 Z M 43.054688 31.132812 "
       style=" stroke:none;fill-rule:nonzero;fill:rgb(0%,0%,0%);fill-opacity:1;" />
    <path
       id="path30"
       d="M 44.089844 37.578125 C 44.089844 37.355469 44.003906 37.167969 43.835938 37.011719 C 43.664062 36.84375 43.46875 36.757812 43.25 36.757812 C 42.859375 36.757812 42.070312 37.148438 40.886719 37.929688 C 39.660156 38.722656 38.914062 39.289062 38.640625 39.628906 C 38.496094 39.8125 38.425781 40 38.425781 40.195312 C 38.425781 40.417969 38.507812 40.605469 38.679688 40.761719 C 38.835938 40.929688 39.03125 41.015625 39.265625 41.015625 C 39.640625 41.015625 40.4375 40.625 41.648438 39.84375 C 42.84375 39.0625 43.585938 38.496094 43.875 38.144531 C 44.015625 37.976562 44.089844 37.785156 44.089844 37.578125 Z M 43.054688 36.132812 C 44.171875 36.132812 44.734375 36.613281 44.734375 37.578125 C 44.734375 38.046875 44.597656 38.59375 44.324219 39.21875 C 44.050781 39.832031 43.683594 40.300781 43.230469 40.625 C 42.226562 41.300781 40.96875 41.640625 39.460938 41.640625 C 38.339844 41.640625 37.78125 41.160156 37.78125 40.195312 C 37.78125 39.765625 37.917969 39.226562 38.191406 38.574219 C 38.449219 37.949219 38.816406 37.472656 39.285156 37.148438 C 40.285156 36.472656 41.542969 36.132812 43.054688 36.132812 Z M 43.054688 36.132812 "
       style=" stroke:none;fill-rule:nonzero;fill:rgb(0%,0%,0%);fill-opacity:1;" />
    <path
       id="path32"
       d="M 44.089844 95.082031 C 44.089844 94.859375 44.003906 94.671875 43.835938 94.515625 C 43.664062 94.34375 43.46875 94.261719 43.25 94.261719 C 42.859375 94.261719 42.070312 94.652344 40.886719 95.433594 C 39.660156 96.226562 38.914062 96.792969 38.640625 97.132812 C 38.496094 97.316406 38.425781 97.503906 38.425781 97.699219 C 38.425781 97.921875 38.507812 98.109375 38.679688 98.265625 C 38.835938 98.433594 39.03125 98.519531 39.265625 98.519531 C 39.640625 98.519531 40.4375 98.128906 41.648438 97.347656 C 42.84375 96.566406 43.585938 96 43.875 95.648438 C 44.015625 95.476562 44.089844 95.289062 44.089844 95.082031 Z M 43.054688 93.636719 C 44.171875 93.636719 44.734375 94.117188 44.734375 95.082031 C 44.734375 95.550781 44.597656 96.097656 44.324219 96.722656 C 44.050781 97.335938 43.683594 97.804688 43.230469 98.128906 C 42.226562 98.804688 40.96875 99.144531 39.460938 99.144531 C 38.339844 99.144531 37.78125 98.664062 37.78125 97.699219 C 37.78125 97.269531 37.917969 96.730469 38.191406 96.078125 C 38.449219 95.453125 38.816406 94.976562 39.285156 94.652344 C 40.285156 93.972656 41.542969 93.636719 43.054688 93.636719 Z M 43.054688 93.636719 "
       style=" stroke:none;fill-rule:nonzero;fill:rgb(0%,0%,0%);fill-opacity:1;" />
    <path
       id="path34"
       d="M 57.597656 27.578125 C 57.597656 27.355469 57.511719 27.167969 57.34375 27.011719 C 57.171875 26.839844 56.976562 26.757812 56.757812 26.757812 C 56.367188 26.757812 55.578125 27.148438 54.394531 27.929688 C 53.167969 28.722656 52.421875 29.289062 52.148438 29.628906 C 52.003906 29.808594 51.933594 30 51.933594 30.195312 C 51.933594 30.414062 52.015625 30.605469 52.1875 30.761719 C 52.34375 30.929688 52.539062 31.015625 52.773438 31.015625 C 53.148438 31.015625 53.945312 30.625 55.15625 29.84375 C 56.351562 29.0625 57.09375 28.496094 57.382812 28.144531 C 57.523438 27.972656 57.597656 27.785156 57.597656 27.578125 Z M 56.5625 26.132812 C 57.679688 26.132812 58.242188 26.613281 58.242188 27.578125 C 58.242188 28.046875 58.105469 28.59375 57.832031 29.21875 C 57.558594 29.828125 57.191406 30.296875 56.738281 30.625 C 55.734375 31.300781 54.476562 31.640625 52.96875 31.640625 C 51.847656 31.640625 51.289062 31.15625 51.289062 30.195312 C 51.289062 29.765625 51.425781 29.222656 51.699219 28.574219 C 51.957031 27.949219 52.324219 27.472656 52.792969 27.148438 C 53.792969 26.46875 55.050781 26.132812 56.5625 26.132812 Z M 56.5625 26.132812 "
       style=" stroke:none;fill-rule:nonzero;fill:rgb(0%,0%,0%);fill-opacity:1;" />
    <path
       id="path36"
       d="M 57.597656 35.078125 C 57.597656 34.855469 57.511719 34.667969 57.34375 34.511719 C 57.171875 34.34375 56.976562 34.257812 56.757812 34.257812 C 56.367188 34.257812 55.578125 34.648438 54.394531 35.429688 C 53.167969 36.222656 52.421875 36.789062 52.148438 37.128906 C 52.003906 37.3125 51.933594 37.5 51.933594 37.695312 C 51.933594 37.917969 52.015625 38.105469 52.1875 38.261719 C 52.34375 38.429688 52.539062 38.515625 52.773438 38.515625 C 53.148438 38.515625 53.945312 38.125 55.15625 37.34375 C 56.351562 36.5625 57.09375 35.996094 57.382812 35.644531 C 57.523438 35.476562 57.597656 35.285156 57.597656 35.078125 Z M 56.5625 33.632812 C 57.679688 33.632812 58.242188 34.113281 58.242188 35.078125 C 58.242188 35.546875 58.105469 36.09375 57.832031 36.71875 C 57.558594 37.332031 57.191406 37.800781 56.738281 38.125 C 55.734375 38.800781 54.476562 39.140625 52.96875 39.140625 C 51.847656 39.140625 51.289062 38.660156 51.289062 37.695312 C 51.289062 37.265625 51.425781 36.726562 51.699219 36.074219 C 51.957031 35.449219 52.324219 34.972656 52.792969 34.648438 C 53.792969 33.972656 55.050781 33.632812 56.5625 33.632812 Z M 56.5625 33.632812 "
       style=" stroke:none;fill-rule:nonzero;fill:rgb(0%,0%,0%);fill-opacity:1;" />
    <path
       id="path38"
       d="M 57.597656 40.078125 C 57.597656 39.855469 57.511719 39.667969 57.34375 39.511719 C 57.171875 39.34375 56.976562 39.257812 56.757812 39.257812 C 56.367188 39.257812 55.578125 39.648438 54.394531 40.429688 C 53.167969 41.222656 52.421875 41.789062 52.148438 42.128906 C 52.003906 42.3125 51.933594 42.5 51.933594 42.695312 C 51.933594 42.917969 52.015625 43.105469 52.1875 43.261719 C 52.34375 43.429688 52.539062 43.515625 52.773438 43.515625 C 53.148438 43.515625 53.945312 43.125 55.15625 42.34375 C 56.351562 41.5625 57.09375 40.996094 57.382812 40.644531 C 57.523438 40.476562 57.597656 40.285156 57.597656 40.078125 Z M 56.5625 38.632812 C 57.679688 38.632812 58.242188 39.113281 58.242188 40.078125 C 58.242188 40.546875 58.105469 41.09375 57.832031 41.71875 C 57.558594 42.332031 57.191406 42.800781 56.738281 43.125 C 55.734375 43.800781 54.476562 44.140625 52.96875 44.140625 C 51.847656 44.140625 51.289062 43.660156 51.289062 42.695312 C 51.289062 42.265625 51.425781 41.726562 51.699219 41.074219 C 51.957031 40.449219 52.324219 39.972656 52.792969 39.648438 C 53.792969 38.972656 55.050781 38.632812 56.5625 38.632812 Z M 56.5625 38.632812 "
       style=" stroke:none;fill-rule:nonzero;fill:rgb(0%,0%,0%);fill-opacity:1;" />
    <path
       id="path40"
       d="M 57.597656 85.082031 C 57.597656 84.859375 57.511719 84.671875 57.34375 84.515625 C 57.171875 84.34375 56.976562 84.261719 56.757812 84.261719 C 56.367188 84.261719 55.578125 84.652344 54.394531 85.433594 C 53.167969 86.226562 52.421875 86.792969 52.148438 87.132812 C 52.003906 87.3125 51.933594 87.503906 51.933594 87.699219 C 51.933594 87.917969 52.015625 88.109375 52.1875 88.265625 C 52.34375 88.433594 52.539062 88.519531 52.773438 88.519531 C 53.148438 88.519531 53.945312 88.128906 55.15625 87.347656 C 56.351562 86.566406 57.09375 86 57.382812 85.648438 C 57.523438 85.476562 57.597656 85.289062 57.597656 85.082031 Z M 56.5625 83.636719 C 57.679688 83.636719 58.242188 84.117188 58.242188 85.082031 C 58.242188 85.550781 58.105469 86.097656 57.832031 86.722656 C 57.558594 87.332031 57.191406 87.800781 56.738281 88.128906 C 55.734375 88.804688 54.476562 89.144531 52.96875 89.144531 C 51.847656 89.144531 51.289062 88.660156 51.289062 87.699219 C 51.289062 87.269531 51.425781 86.726562 51.699219 86.078125 C 51.957031 85.453125 52.324219 84.976562 52.792969 84.652344 C 53.792969 83.972656 55.050781 83.636719 56.5625 83.636719 Z M 56.5625 83.636719 "
       style=" stroke:none;fill-rule:nonzero;fill:rgb(0%,0%,0%);fill-opacity:1;" />
    <path
       id="path42"
       d="M 23.496094 31.269531 C 23.496094 31.269531 23.535156 31.269531 23.613281 31.269531 C 23.664062 31.253906 23.710938 31.25 23.75 31.25 C 25.207031 31.25 26.40625 31.761719 27.34375 32.792969 C 28.28125 33.808594 28.75 34.992188 28.75 36.347656 C 28.75 38.027344 28.054688 39.394531 26.660156 40.449219 C 26.296875 40.734375 25.820312 40.96875 25.234375 41.152344 C 25.300781 42 25.332031 42.683594 25.332031 43.203125 C 25.332031 43.308594 25.320312 43.683594 25.292969 44.335938 C 25.242188 45.546875 24.824219 46.59375 24.042969 47.480469 C 23.289062 48.351562 22.351562 48.789062 21.230469 48.789062 C 20.175781 48.789062 19.277344 48.417969 18.535156 47.675781 C 17.792969 46.921875 17.421875 46.007812 17.421875 44.941406 C 17.421875 44.382812 17.636719 43.90625 18.066406 43.515625 C 18.507812 43.125 19.023438 42.929688 19.609375 42.929688 C 20.128906 42.929688 20.566406 43.132812 20.917969 43.535156 C 21.28125 43.914062 21.464844 44.382812 21.464844 44.941406 C 21.464844 45.449219 21.28125 45.886719 20.917969 46.25 C 20.554688 46.613281 20.117188 46.796875 19.609375 46.796875 C 19.402344 46.796875 19.199219 46.757812 19.003906 46.679688 C 19.578125 47.527344 20.339844 47.949219 21.289062 47.949219 C 22.1875 47.949219 22.921875 47.585938 23.496094 46.855469 C 24.09375 46.101562 24.421875 45.222656 24.472656 44.21875 C 24.5 43.59375 24.511719 43.234375 24.511719 43.144531 C 24.511719 42.414062 24.484375 41.816406 24.433594 41.347656 C 23.78125 41.453125 23.203125 41.503906 22.695312 41.503906 C 20.886719 41.503906 19.34375 40.789062 18.066406 39.355469 C 16.816406 37.910156 16.191406 36.191406 16.191406 34.199219 C 16.191406 33.78125 16.230469 33.359375 16.308594 32.929688 C 16.386719 32.578125 16.484375 32.191406 16.601562 31.777344 C 16.667969 31.542969 16.84375 31.164062 17.128906 30.644531 C 17.234375 30.488281 17.351562 30.292969 17.480469 30.058594 C 17.609375 29.824219 17.703125 29.667969 17.753906 29.589844 C 17.882812 29.328125 18.136719 28.976562 18.515625 28.535156 C 18.621094 28.417969 18.726562 28.285156 18.835938 28.144531 C 18.949219 28 19.042969 27.882812 19.121094 27.792969 C 19.199219 27.699219 19.257812 27.628906 19.296875 27.578125 C 19.335938 27.523438 19.628906 27.179688 20.175781 26.542969 C 20.304688 26.410156 20.433594 26.273438 20.554688 26.121094 C 20.679688 25.972656 20.78125 25.855469 20.859375 25.769531 C 20.9375 25.6875 20.996094 25.625 21.035156 25.585938 C 20.566406 24.035156 20.273438 22.796875 20.15625 21.875 C 20.066406 21.132812 20.019531 20.117188 20.019531 18.828125 C 20.019531 17.695312 20.28125 16.632812 20.800781 15.644531 C 21.308594 14.613281 22.019531 13.773438 22.929688 13.125 C 22.996094 13.085938 23.058594 13.066406 23.125 13.066406 C 23.214844 13.066406 23.28125 13.085938 23.320312 13.125 C 24.023438 13.96875 24.628906 15.070312 25.136719 16.425781 C 25.65625 17.777344 25.917969 19.007812 25.917969 20.117188 C 25.917969 21.367188 25.617188 22.539062 25.019531 23.632812 C 24.34375 24.789062 23.46875 25.988281 22.402344 27.226562 C 22.675781 28.085938 23.039062 29.433594 23.496094 31.269531 Z M 25.15625 40.351562 C 25.832031 40.105469 26.359375 39.679688 26.738281 39.082031 C 27.15625 38.507812 27.363281 37.863281 27.363281 37.148438 C 27.363281 36.222656 27.050781 35.402344 26.425781 34.6875 C 25.789062 33.945312 24.972656 33.527344 23.984375 33.4375 C 24.542969 36.183594 24.933594 38.488281 25.15625 40.351562 Z M 17.597656 35.839844 C 17.597656 37.128906 18.117188 38.261719 19.160156 39.238281 C 20.226562 40.1875 21.425781 40.664062 22.753906 40.664062 C 23.300781 40.664062 23.835938 40.625 24.355469 40.546875 C 24.148438 38.566406 23.738281 36.199219 23.125 33.4375 C 22.382812 33.515625 21.789062 33.777344 21.347656 34.21875 C 20.917969 34.675781 20.703125 35.1875 20.703125 35.761719 C 20.703125 36.75 21.230469 37.550781 22.285156 38.164062 C 22.375 38.253906 22.421875 38.351562 22.421875 38.457031 C 22.421875 38.5625 22.375 38.660156 22.285156 38.75 C 22.207031 38.839844 22.109375 38.886719 21.992188 38.886719 C 21.980469 38.886719 21.921875 38.875 21.816406 38.847656 C 21.074219 38.445312 20.5 37.921875 20.097656 37.285156 C 19.71875 36.609375 19.53125 35.925781 19.53125 35.234375 C 19.53125 34.335938 19.8125 33.519531 20.371094 32.792969 C 20.957031 32.0625 21.71875 31.59375 22.65625 31.386719 C 22.292969 29.925781 21.992188 28.789062 21.757812 27.96875 C 21.550781 28.203125 21.300781 28.484375 21.007812 28.816406 C 20.714844 29.148438 20.539062 29.347656 20.488281 29.414062 C 20.019531 30.023438 19.660156 30.5 19.414062 30.839844 C 18.972656 31.449219 18.644531 31.976562 18.4375 32.421875 C 18.214844 32.914062 18.019531 33.457031 17.851562 34.042969 C 17.683594 34.601562 17.597656 35.203125 17.597656 35.839844 Z M 24.121094 15.976562 C 23.144531 16.457031 22.375 17.148438 21.816406 18.046875 C 21.242188 18.96875 20.957031 19.964844 20.957031 21.035156 C 20.957031 21.972656 21.191406 23.234375 21.660156 24.824219 C 22.597656 23.691406 23.300781 22.640625 23.769531 21.679688 C 24.265625 20.664062 24.511719 19.601562 24.511719 18.496094 C 24.511719 17.660156 24.382812 16.820312 24.121094 15.976562 Z M 24.121094 15.976562 "
       style=" stroke:none;fill-rule:nonzero;fill:rgb(0%,0%,0%);fill-opacity:1;" />
    <path
       id="path44"
       d="M 27.578125 77.113281 C 27.382812 76.917969 27.285156 76.675781 27.285156 76.390625 C 27.285156 76.101562 27.382812 75.863281 27.578125 75.667969 C 27.773438 75.472656 28.015625 75.375 28.300781 75.375 C 28.585938 75.375 28.828125 75.472656 29.023438 75.667969 C 29.21875 75.863281 29.316406 76.101562 29.316406 76.390625 C 29.316406 76.675781 29.21875 76.917969 29.023438 77.113281 C 28.828125 77.308594 28.585938 77.40625 28.300781 77.40625 C 28.015625 77.40625 27.773438 77.308594 27.578125 77.113281 Z M 27.578125 82.113281 C 27.382812 81.917969 27.285156 81.675781 27.285156 81.390625 C 27.285156 81.101562 27.382812 80.863281 27.578125 80.667969 C 27.773438 80.472656 28.015625 80.375 28.300781 80.375 C 28.585938 80.375 28.828125 80.472656 29.023438 80.667969 C 29.21875 80.863281 29.316406 81.101562 29.316406 81.390625 C 29.316406 81.675781 29.21875 81.917969 29.023438 82.113281 C 28.828125 82.308594 28.585938 82.40625 28.300781 82.40625 C 28.015625 82.40625 27.773438 82.308594 27.578125 82.113281 Z M 20.800781 73.632812 C 22.53125 73.632812 23.953125 74.070312 25.058594 74.941406 C 26.125 75.855469 26.660156 77.09375 26.660156 78.65625 C 26.660156 79.710938 26.453125 80.671875 26.035156 81.546875 C 25.644531 82.457031 25.128906 83.265625 24.492188 83.96875 C 23.839844 84.683594 23.054688 85.359375 22.128906 86 C 21.230469 86.625 20.304688 87.183594 19.355469 87.679688 C 17.429688 88.65625 16.359375 89.144531 16.152344 89.144531 C 15.984375 89.144531 15.898438 89.058594 15.898438 88.890625 C 15.898438 88.824219 15.925781 88.765625 15.976562 88.714844 C 16.640625 88.324219 17.453125 87.820312 18.417969 87.210938 C 19.042969 86.804688 19.773438 86.246094 20.605469 85.53125 C 21.414062 84.851562 22.039062 84.214844 22.480469 83.617188 C 22.9375 83.03125 23.351562 82.300781 23.730469 81.429688 C 24.054688 80.554688 24.21875 79.695312 24.21875 78.851562 C 24.21875 77.585938 23.90625 76.488281 23.28125 75.550781 C 22.65625 74.609375 21.828125 74.140625 20.800781 74.140625 C 20.070312 74.140625 19.445312 74.375 18.925781 74.84375 C 18.367188 75.328125 17.960938 75.933594 17.714844 76.664062 C 17.960938 76.558594 18.191406 76.507812 18.398438 76.507812 C 18.945312 76.507812 19.414062 76.703125 19.804688 77.09375 C 20.195312 77.507812 20.390625 77.984375 20.390625 78.519531 C 20.390625 79.078125 20.203125 79.578125 19.824219 80.023438 C 19.421875 80.425781 18.945312 80.628906 18.398438 80.628906 C 17.8125 80.628906 17.285156 80.425781 16.816406 80.023438 C 16.375 79.578125 16.152344 79.078125 16.152344 78.519531 C 16.152344 77.175781 16.609375 76.03125 17.519531 75.082031 C 18.417969 74.117188 19.511719 73.632812 20.800781 73.632812 Z M 20.800781 73.632812 "
       style=" stroke:none;fill-rule:nonzero;fill:rgb(0%,0%,0%);fill-opacity:1;" />
    <path
       id="path46"
       d="M 39.082031 9.277344 L 39.082031 4.839844 C 39.082031 4.472656 39.027344 4.238281 38.914062 4.132812 C 38.804688 4.03125 38.539062 3.964844 38.109375 3.9375 L 38.109375 3.75 L 41.082031 3.75 L 41.082031 3.9375 C 40.660156 3.957031 40.390625 4.023438 40.277344 4.128906 C 40.160156 4.234375 40.101562 4.472656 40.101562 4.839844 L 40.101562 9.277344 C 40.101562 9.644531 40.160156 9.882812 40.28125 9.992188 C 40.402344 10.101562 40.667969 10.164062 41.082031 10.179688 L 41.082031 10.367188 L 38.109375 10.367188 L 38.109375 10.179688 C 38.53125 10.164062 38.796875 10.105469 38.910156 10 C 39.023438 9.890625 39.082031 9.652344 39.082031 9.277344 Z M 48.136719 3.75 L 48.136719 3.9375 C 47.890625 3.953125 47.714844 4.011719 47.609375 4.117188 C 47.507812 4.226562 47.375 4.476562 47.214844 4.867188 L 44.996094 10.476562 L 44.847656 10.476562 L 42.386719 4.988281 C 42.191406 4.546875 42.03125 4.265625 41.902344 4.144531 C 41.769531 4.019531 41.578125 3.953125 41.324219 3.9375 L 41.324219 3.75 L 43.984375 3.75 L 43.984375 3.9375 C 43.800781 3.953125 43.703125 3.957031 43.695312 3.957031 C 43.390625 3.976562 43.234375 4.082031 43.234375 4.269531 C 43.234375 4.402344 43.371094 4.773438 43.644531 5.378906 L 45.15625 8.757812 L 46.625 5.089844 C 46.753906 4.769531 46.816406 4.523438 46.816406 4.359375 C 46.816406 4.21875 46.761719 4.117188 46.65625 4.054688 C 46.550781 3.988281 46.359375 3.953125 46.085938 3.9375 L 46.085938 3.75 Z M 48.136719 3.75 "
       style=" stroke:none;fill-rule:nonzero;fill:rgb(0%,0%,0%);fill-opacity:1;" />
    <path
       id="path48"
       d="M 55.089844 9.277344 L 55.089844 4.839844 C 55.089844 4.472656 55.03125 4.238281 54.921875 4.132812 C 54.8125 4.03125 54.542969 3.964844 54.117188 3.9375 L 54.117188 3.75 L 57.089844 3.75 L 57.089844 3.9375 C 56.667969 3.957031 56.398438 4.023438 56.28125 4.128906 C 56.167969 4.234375 56.109375 4.472656 56.109375 4.839844 L 56.109375 9.277344 C 56.109375 9.644531 56.167969 9.882812 56.289062 9.992188 C 56.40625 10.101562 56.675781 10.164062 57.089844 10.179688 L 57.089844 10.367188 L 54.117188 10.367188 L 54.117188 10.179688 C 54.539062 10.164062 54.804688 10.105469 54.917969 10 C 55.03125 9.890625 55.089844 9.652344 55.089844 9.277344 Z M 55.089844 9.277344 "
       style=" stroke:none;fill-rule:nonzero;fill:rgb(0%,0%,0%);fill-opacity:1;" />
    <path
       id="path50"
       d="M 10.058594 47.179688 C 10.058594 41.339844 6.039062 35.660156 6.039062 30.066406 C 6.039062 27.246094 7.132812 24.511719 10.515625 22.058594 C 10.5625 22.027344 10.585938 21.976562 10.585938 21.945312 C 10.585938 21.855469 10.335938 21.773438 10.152344 21.773438 C 10.058594 21.773438 9.898438 21.785156 9.785156 21.855469 C 5.398438 25 3.933594 28.636719 3.933594 32.3125 C 3.933594 38.234375 8.230469 43.953125 8.230469 49.632812 C 8.230469 52.449219 7.132812 55.105469 3.75 57.554688 L 3.75 57.71875 C 7.132812 60.171875 8.230469 62.824219 8.230469 65.644531 C 8.230469 71.320312 3.933594 77.039062 3.933594 82.964844 C 3.933594 86.640625 5.398438 90.273438 9.785156 93.421875 C 9.898438 93.492188 10.058594 93.5 10.152344 93.5 C 10.335938 93.5 10.585938 93.421875 10.585938 93.328125 C 10.585938 93.296875 10.5625 93.246094 10.515625 93.214844 C 7.132812 90.765625 6.039062 88.027344 6.039062 85.210938 C 6.039062 79.613281 10.058594 73.9375 10.058594 68.09375 C 10.058594 64.378906 8.597656 60.824219 4.300781 57.636719 C 8.597656 54.453125 10.058594 50.898438 10.058594 47.179688 Z M 10.058594 47.179688 "
       style=" stroke:none;fill-rule:evenodd;fill:rgb(0%,0%,0%);fill-opacity:1;" />
  </g>
</svg>
