<?xml version="1.0" encoding="UTF-8" standalone="no"?>
<svg
   xmlns:dc="http://purl.org/dc/elements/1.1/"
   xmlns:cc="http://creativecommons.org/ns#"
   xmlns:rdf="http://www.w3.org/1999/02/22-rdf-syntax-ns#"
   xmlns:svg="http://www.w3.org/2000/svg"
   xmlns="http://www.w3.org/2000/svg"
   xmlns:sodipodi="http://sodipodi.sourceforge.net/DTD/sodipodi-0.dtd"
   xmlns:inkscape="http://www.inkscape.org/namespaces/inkscape"
   inkscape:version="1.0 (4035a4f, 2020-05-01)"
   sodipodi:docname="cadences_perfect.svg"
   id="svg61"
   version="1.2"
   viewBox="0 0 85 100"
   height="100pt"
   width="85pt">
  <metadata
     id="metadata67">
    <rdf:RDF>
      <cc:Work
         rdf:about="">
        <dc:format>image/svg+xml</dc:format>
        <dc:type
           rdf:resource="http://purl.org/dc/dcmitype/StillImage" />
        <dc:title></dc:title>
      </cc:Work>
    </rdf:RDF>
  </metadata>
  <defs
     id="defs65" />
  <sodipodi:namedview
     inkscape:current-layer="svg61"
     inkscape:window-maximized="0"
     inkscape:window-y="23"
     inkscape:window-x="0"
     inkscape:cy="66.666667"
     inkscape:cx="56.666667"
     inkscape:zoom="4.8525"
     showgrid="false"
     id="namedview63"
     inkscape:window-height="480"
     inkscape:window-width="741"
     inkscape:pageshadow="2"
     inkscape:pageopacity="0"
     guidetolerance="10"
     gridtolerance="10"
     objecttolerance="10"
     borderopacity="1"
     bordercolor="#666666"
     pagecolor="#ffffff" />
  <g
     id="surface3243">
    <path
       id="path10"
       d="M 12.152344 21.386719 L 77.195312 21.386719 M 12.152344 26.386719 L 77.195312 26.386719 M 12.152344 31.386719 L 77.195312 31.386719 M 12.152344 36.386719 L 77.195312 36.386719 M 12.152344 41.390625 L 77.195312 41.390625 "
       style="fill:none;stroke-width:0.400025;stroke-linecap:butt;stroke-linejoin:bevel;stroke:rgb(0%,0%,0%);stroke-opacity:1;stroke-miterlimit:10;" />
    <path
       id="path12"
       d="M 12.152344 73.890625 L 77.195312 73.890625 M 12.152344 78.890625 L 77.195312 78.890625 M 12.152344 83.890625 L 77.195312 83.890625 M 12.152344 88.890625 L 77.195312 88.890625 M 12.152344 93.890625 L 77.195312 93.890625 "
       style="fill:none;stroke-width:0.400025;stroke-linecap:butt;stroke-linejoin:bevel;stroke:rgb(0%,0%,0%);stroke-opacity:1;stroke-miterlimit:10;" />
    <path
       id="path14"
       d="M 12.550781 21.386719 L 12.550781 93.890625 "
       style="fill:none;stroke-width:0.80005;stroke-linecap:butt;stroke-linejoin:bevel;stroke:rgb(0%,0%,0%);stroke-opacity:1;stroke-miterlimit:10;" />
    <path
       id="path16"
       d="M 76.796875 21.386719 L 76.796875 93.890625 "
       style="fill:none;stroke-width:0.80005;stroke-linecap:butt;stroke-linejoin:bevel;stroke:rgb(0%,0%,0%);stroke-opacity:1;stroke-miterlimit:10;" />
    <path
       id="path18"
       d="M 70.140625 40.621094 L 70.140625 13.886719 "
       style="fill:none;stroke-width:0.650041;stroke-linecap:round;stroke-linejoin:bevel;stroke:rgb(0%,0%,0%);stroke-opacity:1;stroke-miterlimit:10;" />
    <path
       id="path20"
       d="M 57.449219 43.121094 L 57.449219 15.761719 "
       style="fill:none;stroke-width:0.650041;stroke-linecap:round;stroke-linejoin:bevel;stroke:rgb(0%,0%,0%);stroke-opacity:1;stroke-miterlimit:10;" />
    <path
       id="path22"
       d="M 70.140625 85.625 L 70.140625 70.140625 "
       style="fill:none;stroke-width:0.650041;stroke-linecap:round;stroke-linejoin:bevel;stroke:rgb(0%,0%,0%);stroke-opacity:1;stroke-miterlimit:10;" />
    <path
       id="path24"
       d="M 51.15625 77.175781 L 51.15625 93.890625 "
       style="fill:none;stroke-width:0.650041;stroke-linecap:round;stroke-linejoin:bevel;stroke:rgb(0%,0%,0%);stroke-opacity:1;stroke-miterlimit:10;" />
    <path
       id="path26"
       d="M 69.832031 27.578125 C 69.832031 27.359375 69.746094 27.167969 69.578125 27.011719 C 69.410156 26.84375 69.214844 26.757812 68.992188 26.757812 C 68.601562 26.757812 67.8125 27.148438 66.628906 27.929688 C 65.40625 28.726562 64.65625 29.292969 64.382812 29.628906 C 64.238281 29.8125 64.167969 30 64.167969 30.195312 C 64.167969 30.417969 64.253906 30.605469 64.421875 30.761719 C 64.578125 30.933594 64.773438 31.015625 65.007812 31.015625 C 65.386719 31.015625 66.179688 30.625 67.390625 29.84375 C 68.589844 29.0625 69.332031 28.496094 69.617188 28.144531 C 69.761719 27.976562 69.832031 27.789062 69.832031 27.578125 Z M 68.796875 26.132812 C 69.917969 26.132812 70.476562 26.617188 70.476562 27.578125 C 70.476562 28.046875 70.339844 28.59375 70.066406 29.21875 C 69.792969 29.832031 69.429688 30.300781 68.972656 30.625 C 67.96875 31.304688 66.714844 31.640625 65.203125 31.640625 C 64.082031 31.640625 63.523438 31.160156 63.523438 30.195312 C 63.523438 29.765625 63.660156 29.226562 63.933594 28.574219 C 64.195312 27.949219 64.558594 27.476562 65.027344 27.148438 C 66.03125 26.472656 67.285156 26.132812 68.796875 26.132812 Z M 68.796875 26.132812 "
       style=" stroke:none;fill-rule:nonzero;fill:rgb(0%,0%,0%);fill-opacity:1;" />
    <path
       id="path28"
       d="M 69.832031 35.078125 C 69.832031 34.859375 69.746094 34.667969 69.578125 34.511719 C 69.410156 34.34375 69.214844 34.257812 68.992188 34.257812 C 68.601562 34.257812 67.8125 34.648438 66.628906 35.429688 C 65.40625 36.226562 64.65625 36.792969 64.382812 37.132812 C 64.238281 37.3125 64.167969 37.503906 64.167969 37.699219 C 64.167969 37.917969 64.253906 38.109375 64.421875 38.265625 C 64.578125 38.433594 64.773438 38.519531 65.007812 38.519531 C 65.386719 38.519531 66.179688 38.128906 67.390625 37.347656 C 68.589844 36.566406 69.332031 35.996094 69.617188 35.644531 C 69.761719 35.476562 69.832031 35.289062 69.832031 35.078125 Z M 68.796875 33.632812 C 69.917969 33.632812 70.476562 34.117188 70.476562 35.078125 C 70.476562 35.546875 70.339844 36.09375 70.066406 36.722656 C 69.792969 37.332031 69.429688 37.800781 68.972656 38.128906 C 67.96875 38.804688 66.714844 39.144531 65.203125 39.144531 C 64.082031 39.144531 63.523438 38.660156 63.523438 37.699219 C 63.523438 37.269531 63.660156 36.726562 63.933594 36.074219 C 64.195312 35.449219 64.558594 34.976562 65.027344 34.648438 C 66.03125 33.972656 67.285156 33.632812 68.796875 33.632812 Z M 68.796875 33.632812 "
       style=" stroke:none;fill-rule:nonzero;fill:rgb(0%,0%,0%);fill-opacity:1;" />
    <path
       id="path30"
       d="M 57.140625 30.078125 C 57.140625 29.859375 57.054688 29.667969 56.886719 29.511719 C 56.714844 29.34375 56.519531 29.257812 56.300781 29.257812 C 55.910156 29.257812 55.121094 29.648438 53.9375 30.429688 C 52.710938 31.226562 51.964844 31.792969 51.691406 32.128906 C 51.546875 32.3125 51.476562 32.5 51.476562 32.695312 C 51.476562 32.917969 51.558594 33.105469 51.730469 33.261719 C 51.886719 33.433594 52.082031 33.515625 52.316406 33.515625 C 52.691406 33.515625 53.488281 33.125 54.699219 32.34375 C 55.894531 31.5625 56.636719 30.996094 56.925781 30.644531 C 57.066406 30.476562 57.140625 30.289062 57.140625 30.078125 Z M 56.105469 28.632812 C 57.222656 28.632812 57.785156 29.117188 57.785156 30.078125 C 57.785156 30.546875 57.648438 31.09375 57.375 31.71875 C 57.101562 32.332031 56.734375 32.800781 56.28125 33.125 C 55.277344 33.804688 54.019531 34.140625 52.511719 34.140625 C 51.390625 34.140625 50.832031 33.660156 50.832031 32.695312 C 50.832031 32.265625 50.96875 31.726562 51.242188 31.074219 C 51.5 30.449219 51.867188 29.976562 52.335938 29.648438 C 53.335938 28.972656 54.59375 28.632812 56.105469 28.632812 Z M 56.105469 28.632812 "
       style=" stroke:none;fill-rule:nonzero;fill:rgb(0%,0%,0%);fill-opacity:1;" />
    <path
       id="path32"
       d="M 57.140625 35.078125 C 57.140625 34.859375 57.054688 34.667969 56.886719 34.511719 C 56.714844 34.34375 56.519531 34.257812 56.300781 34.257812 C 55.910156 34.257812 55.121094 34.648438 53.9375 35.429688 C 52.710938 36.226562 51.964844 36.792969 51.691406 37.132812 C 51.546875 37.3125 51.476562 37.503906 51.476562 37.699219 C 51.476562 37.917969 51.558594 38.109375 51.730469 38.265625 C 51.886719 38.433594 52.082031 38.519531 52.316406 38.519531 C 52.691406 38.519531 53.488281 38.128906 54.699219 37.347656 C 55.894531 36.566406 56.636719 35.996094 56.925781 35.644531 C 57.066406 35.476562 57.140625 35.289062 57.140625 35.078125 Z M 56.105469 33.632812 C 57.222656 33.632812 57.785156 34.117188 57.785156 35.078125 C 57.785156 35.546875 57.648438 36.09375 57.375 36.722656 C 57.101562 37.332031 56.734375 37.800781 56.28125 38.128906 C 55.277344 38.804688 54.019531 39.144531 52.511719 39.144531 C 51.390625 39.144531 50.832031 38.660156 50.832031 37.699219 C 50.832031 37.269531 50.96875 36.726562 51.242188 36.074219 C 51.5 35.449219 51.867188 34.976562 52.335938 34.648438 C 53.335938 33.972656 54.59375 33.632812 56.105469 33.632812 Z M 56.105469 33.632812 "
       style=" stroke:none;fill-rule:nonzero;fill:rgb(0%,0%,0%);fill-opacity:1;" />
    <path
       id="path34"
       d="M 69.832031 40.082031 C 69.832031 39.859375 69.746094 39.671875 69.578125 39.515625 C 69.410156 39.34375 69.214844 39.261719 68.992188 39.261719 C 68.601562 39.261719 67.8125 39.652344 66.628906 40.433594 C 65.40625 41.226562 64.65625 41.792969 64.382812 42.132812 C 64.238281 42.3125 64.167969 42.503906 64.167969 42.699219 C 64.167969 42.917969 64.253906 43.109375 64.421875 43.265625 C 64.578125 43.433594 64.773438 43.519531 65.007812 43.519531 C 65.386719 43.519531 66.179688 43.128906 67.390625 42.347656 C 68.589844 41.566406 69.332031 41 69.617188 40.648438 C 69.761719 40.476562 69.832031 40.289062 69.832031 40.082031 Z M 68.796875 38.636719 C 69.917969 38.636719 70.476562 39.117188 70.476562 40.082031 C 70.476562 40.550781 70.339844 41.097656 70.066406 41.722656 C 69.792969 42.332031 69.429688 42.800781 68.972656 43.128906 C 67.96875 43.804688 66.714844 44.144531 65.203125 44.144531 C 64.082031 44.144531 63.523438 43.660156 63.523438 42.699219 C 63.523438 42.269531 63.660156 41.726562 63.933594 41.078125 C 64.195312 40.453125 64.558594 39.976562 65.027344 39.652344 C 66.03125 38.972656 67.285156 38.636719 68.796875 38.636719 Z M 68.796875 38.636719 "
       style=" stroke:none;fill-rule:nonzero;fill:rgb(0%,0%,0%);fill-opacity:1;" />
    <path
       id="path36"
       d="M 57.140625 42.582031 C 57.140625 42.359375 57.054688 42.171875 56.886719 42.015625 C 56.714844 41.84375 56.519531 41.761719 56.300781 41.761719 C 55.910156 41.761719 55.121094 42.152344 53.9375 42.933594 C 52.710938 43.726562 51.964844 44.292969 51.691406 44.632812 C 51.546875 44.8125 51.476562 45.003906 51.476562 45.199219 C 51.476562 45.417969 51.558594 45.609375 51.730469 45.765625 C 51.886719 45.933594 52.082031 46.019531 52.316406 46.019531 C 52.691406 46.019531 53.488281 45.628906 54.699219 44.847656 C 55.894531 44.066406 56.636719 43.5 56.925781 43.148438 C 57.066406 42.976562 57.140625 42.789062 57.140625 42.582031 Z M 56.105469 41.136719 C 57.222656 41.136719 57.785156 41.617188 57.785156 42.582031 C 57.785156 43.050781 57.648438 43.597656 57.375 44.222656 C 57.101562 44.832031 56.734375 45.300781 56.28125 45.628906 C 55.277344 46.304688 54.019531 46.644531 52.511719 46.644531 C 51.390625 46.644531 50.832031 46.160156 50.832031 45.199219 C 50.832031 44.769531 50.96875 44.226562 51.242188 43.578125 C 51.5 42.953125 51.867188 42.476562 52.335938 42.152344 C 53.335938 41.472656 54.59375 41.136719 56.105469 41.136719 Z M 56.105469 41.136719 "
       style=" stroke:none;fill-rule:nonzero;fill:rgb(0%,0%,0%);fill-opacity:1;" />
    <path
       id="path38"
       d="M 69.832031 85.082031 C 69.832031 84.863281 69.746094 84.671875 69.578125 84.515625 C 69.410156 84.347656 69.214844 84.261719 68.992188 84.261719 C 68.601562 84.261719 67.8125 84.652344 66.628906 85.433594 C 65.40625 86.230469 64.65625 86.796875 64.382812 87.132812 C 64.238281 87.316406 64.167969 87.503906 64.167969 87.699219 C 64.167969 87.921875 64.253906 88.109375 64.421875 88.265625 C 64.578125 88.4375 64.773438 88.519531 65.007812 88.519531 C 65.386719 88.519531 66.179688 88.128906 67.390625 87.347656 C 68.589844 86.566406 69.332031 86 69.617188 85.648438 C 69.761719 85.480469 69.832031 85.292969 69.832031 85.082031 Z M 68.796875 83.636719 C 69.917969 83.636719 70.476562 84.121094 70.476562 85.082031 C 70.476562 85.550781 70.339844 86.097656 70.066406 86.722656 C 69.792969 87.335938 69.429688 87.804688 68.972656 88.128906 C 67.96875 88.808594 66.714844 89.144531 65.203125 89.144531 C 64.082031 89.144531 63.523438 88.664062 63.523438 87.699219 C 63.523438 87.269531 63.660156 86.730469 63.933594 86.078125 C 64.195312 85.453125 64.558594 84.980469 65.027344 84.652344 C 66.03125 83.976562 67.285156 83.636719 68.796875 83.636719 Z M 68.796875 83.636719 "
       style=" stroke:none;fill-rule:nonzero;fill:rgb(0%,0%,0%);fill-opacity:1;" />
    <path
       id="path40"
       d="M 57.140625 75.082031 C 57.140625 74.859375 57.054688 74.671875 56.886719 74.515625 C 56.714844 74.347656 56.519531 74.261719 56.300781 74.261719 C 55.910156 74.261719 55.121094 74.652344 53.9375 75.433594 C 52.710938 76.226562 51.964844 76.792969 51.691406 77.132812 C 51.546875 77.316406 51.476562 77.503906 51.476562 77.699219 C 51.476562 77.921875 51.558594 78.109375 51.730469 78.265625 C 51.886719 78.4375 52.082031 78.519531 52.316406 78.519531 C 52.691406 78.519531 53.488281 78.128906 54.699219 77.347656 C 55.894531 76.566406 56.636719 76 56.925781 75.648438 C 57.066406 75.480469 57.140625 75.289062 57.140625 75.082031 Z M 56.105469 73.636719 C 57.222656 73.636719 57.785156 74.117188 57.785156 75.082031 C 57.785156 75.550781 57.648438 76.097656 57.375 76.722656 C 57.101562 77.335938 56.734375 77.804688 56.28125 78.128906 C 55.277344 78.808594 54.019531 79.144531 52.511719 79.144531 C 51.390625 79.144531 50.832031 78.664062 50.832031 77.699219 C 50.832031 77.269531 50.96875 76.730469 51.242188 76.078125 C 51.5 75.453125 51.867188 74.976562 52.335938 74.652344 C 53.335938 73.976562 54.59375 73.636719 56.105469 73.636719 Z M 56.105469 73.636719 "
       style=" stroke:none;fill-rule:nonzero;fill:rgb(0%,0%,0%);fill-opacity:1;" />
    <path
       id="path42"
       d="M 23.496094 31.269531 C 23.496094 31.269531 23.535156 31.269531 23.613281 31.269531 C 23.664062 31.257812 23.710938 31.25 23.75 31.25 C 25.207031 31.25 26.40625 31.765625 27.34375 32.792969 C 28.28125 33.808594 28.75 34.996094 28.75 36.347656 C 28.75 38.03125 28.054688 39.398438 26.660156 40.453125 C 26.296875 40.738281 25.820312 40.972656 25.234375 41.15625 C 25.300781 42 25.332031 42.683594 25.332031 43.207031 C 25.332031 43.308594 25.320312 43.6875 25.292969 44.339844 C 25.242188 45.550781 24.824219 46.597656 24.042969 47.484375 C 23.289062 48.355469 22.351562 48.792969 21.230469 48.792969 C 20.175781 48.792969 19.277344 48.421875 18.535156 47.679688 C 17.792969 46.921875 17.421875 46.011719 17.421875 44.945312 C 17.421875 44.382812 17.636719 43.910156 18.066406 43.519531 C 18.507812 43.128906 19.023438 42.933594 19.609375 42.933594 C 20.128906 42.933594 20.566406 43.132812 20.917969 43.539062 C 21.28125 43.914062 21.464844 44.382812 21.464844 44.945312 C 21.464844 45.453125 21.28125 45.886719 20.917969 46.253906 C 20.554688 46.617188 20.117188 46.800781 19.609375 46.800781 C 19.402344 46.800781 19.199219 46.761719 19.003906 46.683594 C 19.578125 47.527344 20.339844 47.953125 21.289062 47.953125 C 22.1875 47.953125 22.921875 47.585938 23.496094 46.859375 C 24.09375 46.101562 24.421875 45.222656 24.472656 44.222656 C 24.5 43.597656 24.511719 43.238281 24.511719 43.148438 C 24.511719 42.417969 24.484375 41.820312 24.433594 41.351562 C 23.78125 41.453125 23.203125 41.507812 22.695312 41.507812 C 20.886719 41.507812 19.34375 40.789062 18.066406 39.359375 C 16.816406 37.914062 16.191406 36.191406 16.191406 34.199219 C 16.191406 33.785156 16.230469 33.359375 16.308594 32.929688 C 16.386719 32.578125 16.484375 32.195312 16.601562 31.777344 C 16.667969 31.542969 16.84375 31.167969 17.128906 30.644531 C 17.234375 30.488281 17.351562 30.292969 17.480469 30.058594 C 17.609375 29.824219 17.703125 29.667969 17.753906 29.589844 C 17.882812 29.332031 18.136719 28.980469 18.515625 28.535156 C 18.621094 28.417969 18.726562 28.289062 18.835938 28.144531 C 18.949219 28.003906 19.042969 27.886719 19.121094 27.792969 C 19.199219 27.703125 19.257812 27.632812 19.296875 27.578125 C 19.335938 27.527344 19.628906 27.183594 20.175781 26.542969 C 20.304688 26.414062 20.433594 26.273438 20.554688 26.125 C 20.679688 25.972656 20.78125 25.855469 20.859375 25.773438 C 20.9375 25.6875 20.996094 25.625 21.035156 25.585938 C 20.566406 24.039062 20.273438 22.800781 20.15625 21.875 C 20.066406 21.132812 20.019531 20.117188 20.019531 18.828125 C 20.019531 17.695312 20.28125 16.636719 20.800781 15.644531 C 21.308594 14.617188 22.019531 13.777344 22.929688 13.125 C 22.996094 13.085938 23.058594 13.066406 23.125 13.066406 C 23.214844 13.066406 23.28125 13.085938 23.320312 13.125 C 24.023438 13.972656 24.628906 15.070312 25.136719 16.425781 C 25.65625 17.78125 25.917969 19.011719 25.917969 20.117188 C 25.917969 21.367188 25.617188 22.539062 25.019531 23.632812 C 24.34375 24.792969 23.46875 25.992188 22.402344 27.226562 C 22.675781 28.085938 23.039062 29.433594 23.496094 31.269531 Z M 25.15625 40.355469 C 25.832031 40.105469 26.359375 39.683594 26.738281 39.085938 C 27.15625 38.511719 27.363281 37.867188 27.363281 37.152344 C 27.363281 36.226562 27.050781 35.40625 26.425781 34.6875 C 25.789062 33.945312 24.972656 33.53125 23.984375 33.4375 C 24.542969 36.1875 24.933594 38.492188 25.15625 40.355469 Z M 17.597656 35.839844 C 17.597656 37.132812 18.117188 38.265625 19.160156 39.242188 C 20.226562 40.191406 21.425781 40.667969 22.753906 40.667969 C 23.300781 40.667969 23.835938 40.628906 24.355469 40.550781 C 24.148438 38.570312 23.738281 36.199219 23.125 33.4375 C 22.382812 33.515625 21.789062 33.777344 21.347656 34.21875 C 20.917969 34.675781 20.703125 35.191406 20.703125 35.761719 C 20.703125 36.753906 21.230469 37.554688 22.285156 38.167969 C 22.375 38.257812 22.421875 38.355469 22.421875 38.460938 C 22.421875 38.5625 22.375 38.660156 22.285156 38.753906 C 22.207031 38.84375 22.109375 38.890625 21.992188 38.890625 C 21.980469 38.890625 21.921875 38.875 21.816406 38.851562 C 21.074219 38.445312 20.5 37.925781 20.097656 37.289062 C 19.71875 36.609375 19.53125 35.925781 19.53125 35.234375 C 19.53125 34.335938 19.8125 33.523438 20.371094 32.792969 C 20.957031 32.066406 21.71875 31.597656 22.65625 31.386719 C 22.292969 29.929688 21.992188 28.789062 21.757812 27.96875 C 21.550781 28.203125 21.300781 28.488281 21.007812 28.820312 C 20.714844 29.152344 20.539062 29.351562 20.488281 29.414062 C 20.019531 30.027344 19.660156 30.503906 19.414062 30.839844 C 18.972656 31.453125 18.644531 31.980469 18.4375 32.421875 C 18.214844 32.917969 18.019531 33.457031 17.851562 34.042969 C 17.683594 34.605469 17.597656 35.203125 17.597656 35.839844 Z M 24.121094 15.976562 C 23.144531 16.460938 22.375 17.148438 21.816406 18.046875 C 21.242188 18.972656 20.957031 19.96875 20.957031 21.035156 C 20.957031 21.972656 21.191406 23.238281 21.660156 24.824219 C 22.597656 23.691406 23.300781 22.644531 23.769531 21.679688 C 24.265625 20.664062 24.511719 19.605469 24.511719 18.496094 C 24.511719 17.664062 24.382812 16.824219 24.121094 15.976562 Z M 24.121094 15.976562 "
       style=" stroke:none;fill-rule:nonzero;fill:rgb(0%,0%,0%);fill-opacity:1;" />
    <path
       id="path44"
       d="M 27.578125 77.113281 C 27.382812 76.917969 27.285156 76.675781 27.285156 76.390625 C 27.285156 76.105469 27.382812 75.863281 27.578125 75.667969 C 27.773438 75.472656 28.015625 75.375 28.300781 75.375 C 28.585938 75.375 28.828125 75.472656 29.023438 75.667969 C 29.21875 75.863281 29.316406 76.105469 29.316406 76.390625 C 29.316406 76.675781 29.21875 76.917969 29.023438 77.113281 C 28.828125 77.308594 28.585938 77.40625 28.300781 77.40625 C 28.015625 77.40625 27.773438 77.308594 27.578125 77.113281 Z M 27.578125 82.113281 C 27.382812 81.917969 27.285156 81.679688 27.285156 81.390625 C 27.285156 81.105469 27.382812 80.863281 27.578125 80.667969 C 27.773438 80.472656 28.015625 80.375 28.300781 80.375 C 28.585938 80.375 28.828125 80.472656 29.023438 80.667969 C 29.21875 80.863281 29.316406 81.105469 29.316406 81.390625 C 29.316406 81.679688 29.21875 81.917969 29.023438 82.113281 C 28.828125 82.308594 28.585938 82.40625 28.300781 82.40625 C 28.015625 82.40625 27.773438 82.308594 27.578125 82.113281 Z M 20.800781 73.636719 C 22.53125 73.636719 23.953125 74.074219 25.058594 74.945312 C 26.125 75.855469 26.660156 77.09375 26.660156 78.65625 C 26.660156 79.710938 26.453125 80.675781 26.035156 81.546875 C 25.644531 82.460938 25.128906 83.265625 24.492188 83.96875 C 23.839844 84.6875 23.054688 85.363281 22.128906 86 C 21.230469 86.625 20.304688 87.1875 19.355469 87.679688 C 17.429688 88.65625 16.359375 89.144531 16.152344 89.144531 C 15.984375 89.144531 15.898438 89.0625 15.898438 88.890625 C 15.898438 88.828125 15.925781 88.769531 15.976562 88.714844 C 16.640625 88.324219 17.453125 87.824219 18.417969 87.210938 C 19.042969 86.808594 19.773438 86.25 20.605469 85.53125 C 21.414062 84.855469 22.039062 84.21875 22.480469 83.617188 C 22.9375 83.03125 23.351562 82.304688 23.730469 81.429688 C 24.054688 80.558594 24.21875 79.699219 24.21875 78.851562 C 24.21875 77.589844 23.90625 76.488281 23.28125 75.550781 C 22.65625 74.613281 21.828125 74.144531 20.800781 74.144531 C 20.070312 74.144531 19.445312 74.378906 18.925781 74.847656 C 18.367188 75.328125 17.960938 75.933594 17.714844 76.664062 C 17.960938 76.558594 18.191406 76.507812 18.398438 76.507812 C 18.945312 76.507812 19.414062 76.703125 19.804688 77.09375 C 20.195312 77.511719 20.390625 77.988281 20.390625 78.519531 C 20.390625 79.082031 20.203125 79.582031 19.824219 80.023438 C 19.421875 80.429688 18.945312 80.628906 18.398438 80.628906 C 17.8125 80.628906 17.285156 80.429688 16.816406 80.023438 C 16.375 79.582031 16.152344 79.082031 16.152344 78.519531 C 16.152344 77.179688 16.609375 76.03125 17.519531 75.082031 C 18.417969 74.117188 19.511719 73.636719 20.800781 73.636719 Z M 20.800781 73.636719 "
       style=" stroke:none;fill-rule:nonzero;fill:rgb(0%,0%,0%);fill-opacity:1;" />
    <path
       id="path46"
       d="M 38.570312 21.640625 C 38.960938 21.640625 39.292969 21.597656 39.570312 21.503906 C 39.84375 21.414062 40.019531 21.367188 40.097656 21.367188 C 40.1875 21.367188 40.257812 21.394531 40.3125 21.445312 C 40.351562 21.484375 40.375 21.53125 40.390625 21.582031 C 40.390625 21.609375 40.375 21.648438 40.351562 21.699219 L 34.664062 28.300781 L 38.003906 28.300781 L 38.003906 25.683594 C 38.003906 25.515625 38.050781 25.371094 38.140625 25.253906 C 38.296875 25.125 38.429688 25.046875 38.53125 25.019531 C 38.703125 24.941406 38.910156 24.761719 39.15625 24.472656 C 39.367188 24.238281 39.613281 23.828125 39.902344 23.242188 C 39.941406 23.164062 40 23.125 40.078125 23.125 C 40.234375 23.125 40.324219 23.21875 40.351562 23.398438 L 40.351562 28.300781 L 41.777344 28.300781 C 41.957031 28.300781 42.0625 28.398438 42.089844 28.59375 C 42.089844 28.789062 41.984375 28.886719 41.777344 28.886719 L 40.351562 28.886719 L 40.351562 29.042969 C 40.351562 29.566406 40.480469 30.007812 40.742188 30.371094 C 41.039062 30.738281 41.390625 30.917969 41.796875 30.917969 C 41.953125 30.917969 42.03125 30.996094 42.03125 31.152344 C 42.03125 31.308594 41.953125 31.386719 41.796875 31.386719 C 41.523438 31.386719 41.078125 31.347656 40.46875 31.269531 C 39.90625 31.179688 39.472656 31.132812 39.15625 31.132812 C 38.832031 31.132812 38.394531 31.179688 37.847656 31.269531 C 37.261719 31.347656 36.828125 31.386719 36.539062 31.386719 C 36.382812 31.386719 36.304688 31.308594 36.304688 31.152344 C 36.304688 30.996094 36.382812 30.917969 36.539062 30.917969 C 36.945312 30.917969 37.296875 30.738281 37.59375 30.371094 C 37.867188 30.007812 38.003906 29.566406 38.003906 29.042969 L 38.003906 28.886719 L 34.664062 28.886719 C 34.445312 28.886719 34.289062 28.835938 34.195312 28.730469 C 34.09375 28.652344 34.039062 28.550781 34.039062 28.417969 C 34.039062 28.378906 34.136719 28.242188 34.332031 28.007812 C 34.554688 27.75 34.789062 27.429688 35.035156 27.050781 C 35.324219 26.609375 35.597656 26.152344 35.855469 25.683594 C 36.144531 25.152344 36.371094 24.539062 36.539062 23.847656 C 36.734375 23.144531 36.832031 22.429688 36.832031 21.699219 C 36.832031 21.492188 36.925781 21.386719 37.105469 21.386719 C 37.144531 21.386719 37.230469 21.40625 37.359375 21.445312 C 37.398438 21.460938 37.480469 21.480469 37.605469 21.503906 C 37.730469 21.53125 37.828125 21.558594 37.90625 21.582031 C 38.140625 21.621094 38.363281 21.640625 38.570312 21.640625 Z M 38.570312 21.640625 "
       style=" stroke:none;fill-rule:nonzero;fill:rgb(0%,0%,0%);fill-opacity:1;" />
    <path
       id="path48"
       d="M 38.570312 31.640625 C 38.960938 31.640625 39.292969 31.597656 39.570312 31.503906 C 39.84375 31.414062 40.019531 31.367188 40.097656 31.367188 C 40.1875 31.367188 40.257812 31.394531 40.3125 31.445312 C 40.351562 31.484375 40.375 31.53125 40.390625 31.582031 C 40.390625 31.609375 40.375 31.648438 40.351562 31.699219 L 34.664062 38.304688 L 38.003906 38.304688 L 38.003906 35.683594 C 38.003906 35.515625 38.050781 35.371094 38.140625 35.253906 C 38.296875 35.125 38.429688 35.046875 38.53125 35.019531 C 38.703125 34.941406 38.910156 34.761719 39.15625 34.472656 C 39.367188 34.238281 39.613281 33.828125 39.902344 33.242188 C 39.941406 33.164062 40 33.125 40.078125 33.125 C 40.234375 33.125 40.324219 33.21875 40.351562 33.398438 L 40.351562 38.304688 L 41.777344 38.304688 C 41.957031 38.304688 42.0625 38.402344 42.089844 38.597656 C 42.089844 38.792969 41.984375 38.890625 41.777344 38.890625 L 40.351562 38.890625 L 40.351562 39.046875 C 40.351562 39.566406 40.480469 40.007812 40.742188 40.375 C 41.039062 40.738281 41.390625 40.921875 41.796875 40.921875 C 41.953125 40.921875 42.03125 41 42.03125 41.15625 C 42.03125 41.3125 41.953125 41.390625 41.796875 41.390625 C 41.523438 41.390625 41.078125 41.351562 40.46875 41.273438 C 39.90625 41.179688 39.472656 41.136719 39.15625 41.136719 C 38.832031 41.136719 38.394531 41.179688 37.847656 41.273438 C 37.261719 41.351562 36.828125 41.390625 36.539062 41.390625 C 36.382812 41.390625 36.304688 41.3125 36.304688 41.15625 C 36.304688 41 36.382812 40.921875 36.539062 40.921875 C 36.945312 40.921875 37.296875 40.738281 37.59375 40.375 C 37.867188 40.007812 38.003906 39.566406 38.003906 39.046875 L 38.003906 38.890625 L 34.664062 38.890625 C 34.445312 38.890625 34.289062 38.835938 34.195312 38.734375 C 34.09375 38.65625 34.039062 38.550781 34.039062 38.421875 C 34.039062 38.382812 34.136719 38.246094 34.332031 38.011719 C 34.554688 37.75 34.789062 37.429688 35.035156 37.054688 C 35.324219 36.609375 35.597656 36.152344 35.855469 35.683594 C 36.144531 35.152344 36.371094 34.539062 36.539062 33.847656 C 36.734375 33.144531 36.832031 32.429688 36.832031 31.699219 C 36.832031 31.492188 36.925781 31.386719 37.105469 31.386719 C 37.144531 31.386719 37.230469 31.40625 37.359375 31.445312 C 37.398438 31.460938 37.480469 31.480469 37.605469 31.503906 C 37.730469 31.53125 37.828125 31.558594 37.90625 31.582031 C 38.140625 31.621094 38.363281 31.640625 38.570312 31.640625 Z M 38.570312 31.640625 "
       style=" stroke:none;fill-rule:nonzero;fill:rgb(0%,0%,0%);fill-opacity:1;" />
    <path
       id="path50"
       d="M 38.570312 74.144531 C 38.960938 74.144531 39.292969 74.097656 39.570312 74.007812 C 39.84375 73.917969 40.019531 73.871094 40.097656 73.871094 C 40.1875 73.871094 40.257812 73.898438 40.3125 73.949219 C 40.351562 73.988281 40.375 74.035156 40.390625 74.085938 C 40.390625 74.113281 40.375 74.152344 40.351562 74.203125 L 34.664062 80.804688 L 38.003906 80.804688 L 38.003906 78.1875 C 38.003906 78.019531 38.050781 77.875 38.140625 77.757812 C 38.296875 77.628906 38.429688 77.550781 38.53125 77.523438 C 38.703125 77.445312 38.910156 77.261719 39.15625 76.976562 C 39.367188 76.742188 39.613281 76.332031 39.902344 75.746094 C 39.941406 75.667969 40 75.628906 40.078125 75.628906 C 40.234375 75.628906 40.324219 75.71875 40.351562 75.902344 L 40.351562 80.804688 L 41.777344 80.804688 C 41.957031 80.804688 42.0625 80.902344 42.089844 81.097656 C 42.089844 81.292969 41.984375 81.390625 41.777344 81.390625 L 40.351562 81.390625 L 40.351562 81.546875 C 40.351562 82.070312 40.480469 82.511719 40.742188 82.875 C 41.039062 83.242188 41.390625 83.421875 41.796875 83.421875 C 41.953125 83.421875 42.03125 83.5 42.03125 83.65625 C 42.03125 83.8125 41.953125 83.890625 41.796875 83.890625 C 41.523438 83.890625 41.078125 83.851562 40.46875 83.773438 C 39.90625 83.683594 39.472656 83.636719 39.15625 83.636719 C 38.832031 83.636719 38.394531 83.683594 37.847656 83.773438 C 37.261719 83.851562 36.828125 83.890625 36.539062 83.890625 C 36.382812 83.890625 36.304688 83.8125 36.304688 83.65625 C 36.304688 83.5 36.382812 83.421875 36.539062 83.421875 C 36.945312 83.421875 37.296875 83.242188 37.59375 82.875 C 37.867188 82.511719 38.003906 82.070312 38.003906 81.546875 L 38.003906 81.390625 L 34.664062 81.390625 C 34.445312 81.390625 34.289062 81.339844 34.195312 81.234375 C 34.09375 81.15625 34.039062 81.054688 34.039062 80.921875 C 34.039062 80.882812 34.136719 80.746094 34.332031 80.511719 C 34.554688 80.253906 34.789062 79.933594 35.035156 79.554688 C 35.324219 79.113281 35.597656 78.65625 35.855469 78.1875 C 36.144531 77.652344 36.371094 77.042969 36.539062 76.351562 C 36.734375 75.648438 36.832031 74.933594 36.832031 74.203125 C 36.832031 73.996094 36.925781 73.890625 37.105469 73.890625 C 37.144531 73.890625 37.230469 73.910156 37.359375 73.949219 C 37.398438 73.960938 37.480469 73.980469 37.605469 74.007812 C 37.730469 74.035156 37.828125 74.058594 37.90625 74.085938 C 38.140625 74.125 38.363281 74.144531 38.570312 74.144531 Z M 38.570312 74.144531 "
       style=" stroke:none;fill-rule:nonzero;fill:rgb(0%,0%,0%);fill-opacity:1;" />
    <path
       id="path52"
       d="M 38.570312 84.144531 C 38.960938 84.144531 39.292969 84.101562 39.570312 84.007812 C 39.84375 83.917969 40.019531 83.871094 40.097656 83.871094 C 40.1875 83.871094 40.257812 83.898438 40.3125 83.949219 C 40.351562 83.988281 40.375 84.035156 40.390625 84.085938 C 40.390625 84.113281 40.375 84.152344 40.351562 84.203125 L 34.664062 90.804688 L 38.003906 90.804688 L 38.003906 88.1875 C 38.003906 88.019531 38.050781 87.875 38.140625 87.757812 C 38.296875 87.628906 38.429688 87.550781 38.53125 87.523438 C 38.703125 87.445312 38.910156 87.265625 39.15625 86.976562 C 39.367188 86.742188 39.613281 86.332031 39.902344 85.746094 C 39.941406 85.667969 40 85.628906 40.078125 85.628906 C 40.234375 85.628906 40.324219 85.722656 40.351562 85.902344 L 40.351562 90.804688 L 41.777344 90.804688 C 41.957031 90.804688 42.0625 90.902344 42.089844 91.097656 C 42.089844 91.292969 41.984375 91.390625 41.777344 91.390625 L 40.351562 91.390625 L 40.351562 91.546875 C 40.351562 92.070312 40.480469 92.511719 40.742188 92.875 C 41.039062 93.242188 41.390625 93.421875 41.796875 93.421875 C 41.953125 93.421875 42.03125 93.5 42.03125 93.65625 C 42.03125 93.8125 41.953125 93.890625 41.796875 93.890625 C 41.523438 93.890625 41.078125 93.851562 40.46875 93.773438 C 39.90625 93.683594 39.472656 93.636719 39.15625 93.636719 C 38.832031 93.636719 38.394531 93.683594 37.847656 93.773438 C 37.261719 93.851562 36.828125 93.890625 36.539062 93.890625 C 36.382812 93.890625 36.304688 93.8125 36.304688 93.65625 C 36.304688 93.5 36.382812 93.421875 36.539062 93.421875 C 36.945312 93.421875 37.296875 93.242188 37.59375 92.875 C 37.867188 92.511719 38.003906 92.070312 38.003906 91.546875 L 38.003906 91.390625 L 34.664062 91.390625 C 34.445312 91.390625 34.289062 91.339844 34.195312 91.234375 C 34.09375 91.15625 34.039062 91.054688 34.039062 90.921875 C 34.039062 90.882812 34.136719 90.746094 34.332031 90.511719 C 34.554688 90.253906 34.789062 89.933594 35.035156 89.554688 C 35.324219 89.113281 35.597656 88.65625 35.855469 88.1875 C 36.144531 87.65625 36.371094 87.042969 36.539062 86.351562 C 36.734375 85.648438 36.832031 84.933594 36.832031 84.203125 C 36.832031 83.996094 36.925781 83.890625 37.105469 83.890625 C 37.144531 83.890625 37.230469 83.910156 37.359375 83.949219 C 37.398438 83.964844 37.480469 83.984375 37.605469 84.007812 C 37.730469 84.035156 37.828125 84.0625 37.90625 84.085938 C 38.140625 84.125 38.363281 84.144531 38.570312 84.144531 Z M 38.570312 84.144531 "
       style=" stroke:none;fill-rule:nonzero;fill:rgb(0%,0%,0%);fill-opacity:1;" />
    <path
       id="path54"
       d="M 67.324219 9.28125 L 67.324219 4.839844 C 67.324219 4.472656 67.269531 4.238281 67.160156 4.136719 C 67.046875 4.03125 66.78125 3.96875 66.351562 3.941406 L 66.351562 3.75 L 69.324219 3.75 L 69.324219 3.941406 C 68.902344 3.960938 68.636719 4.023438 68.519531 4.128906 C 68.402344 4.238281 68.34375 4.472656 68.34375 4.839844 L 68.34375 9.28125 C 68.34375 9.648438 68.402344 9.886719 68.523438 9.996094 C 68.644531 10.105469 68.910156 10.167969 69.324219 10.179688 L 69.324219 10.371094 L 66.351562 10.371094 L 66.351562 10.179688 C 66.773438 10.167969 67.039062 10.109375 67.152344 10 C 67.265625 9.894531 67.324219 9.652344 67.324219 9.28125 Z M 67.324219 9.28125 "
       style=" stroke:none;fill-rule:nonzero;fill:rgb(0%,0%,0%);fill-opacity:1;" />
    <path
       id="path56"
       d="M 57.921875 3.75 L 57.921875 3.941406 C 57.675781 3.953125 57.5 4.015625 57.394531 4.121094 C 57.292969 4.226562 57.160156 4.476562 57 4.871094 L 54.78125 10.480469 L 54.632812 10.480469 L 52.171875 4.992188 C 51.976562 4.550781 51.816406 4.269531 51.6875 4.144531 C 51.554688 4.023438 51.363281 3.953125 51.109375 3.941406 L 51.109375 3.75 L 53.769531 3.75 L 53.769531 3.941406 C 53.585938 3.953125 53.488281 3.960938 53.480469 3.960938 C 53.175781 3.980469 53.019531 4.085938 53.019531 4.269531 C 53.019531 4.402344 53.15625 4.773438 53.429688 5.378906 L 54.941406 8.761719 L 56.410156 5.089844 C 56.539062 4.769531 56.601562 4.527344 56.601562 4.359375 C 56.601562 4.222656 56.546875 4.121094 56.441406 4.054688 C 56.335938 3.992188 56.144531 3.953125 55.871094 3.941406 L 55.871094 3.75 Z M 57.921875 3.75 "
       style=" stroke:none;fill-rule:nonzero;fill:rgb(0%,0%,0%);fill-opacity:1;" />
    <path
       id="path58"
       d="M 10.058594 47.183594 C 10.058594 41.34375 6.039062 35.664062 6.039062 30.066406 C 6.039062 27.25 7.132812 24.511719 10.515625 22.0625 C 10.5625 22.03125 10.585938 21.980469 10.585938 21.949219 C 10.585938 21.859375 10.335938 21.777344 10.152344 21.777344 C 10.058594 21.777344 9.898438 21.785156 9.785156 21.859375 C 5.398438 25.003906 3.933594 28.636719 3.933594 32.316406 C 3.933594 38.238281 8.230469 43.957031 8.230469 49.632812 C 8.230469 52.453125 7.132812 55.109375 3.75 57.558594 L 3.75 57.722656 C 7.132812 60.171875 8.230469 62.828125 8.230469 65.644531 C 8.230469 71.324219 3.933594 77.042969 3.933594 82.964844 C 3.933594 86.640625 5.398438 90.277344 9.785156 93.421875 C 9.898438 93.492188 10.058594 93.503906 10.152344 93.503906 C 10.335938 93.503906 10.585938 93.421875 10.585938 93.332031 C 10.585938 93.300781 10.5625 93.25 10.515625 93.21875 C 7.132812 90.765625 6.039062 88.03125 6.039062 85.210938 C 6.039062 79.617188 10.058594 73.9375 10.058594 68.097656 C 10.058594 64.378906 8.597656 60.824219 4.300781 57.640625 C 8.597656 54.453125 10.058594 50.898438 10.058594 47.183594 Z M 10.058594 47.183594 "
       style=" stroke:none;fill-rule:evenodd;fill:rgb(0%,0%,0%);fill-opacity:1;" />
  </g>
</svg>
