<?xml version="1.0" encoding="UTF-8" standalone="no"?>
<svg
   xmlns:dc="http://purl.org/dc/elements/1.1/"
   xmlns:cc="http://creativecommons.org/ns#"
   xmlns:rdf="http://www.w3.org/1999/02/22-rdf-syntax-ns#"
   xmlns:svg="http://www.w3.org/2000/svg"
   xmlns="http://www.w3.org/2000/svg"
   xmlns:sodipodi="http://sodipodi.sourceforge.net/DTD/sodipodi-0.dtd"
   xmlns:inkscape="http://www.inkscape.org/namespaces/inkscape"
   inkscape:version="1.0 (4035a4f, 2020-05-01)"
   sodipodi:docname="cadences_2.svg"
   id="svg211"
   version="1.2"
   viewBox="0 0 120 100"
   height="100pt"
   width="120pt">
  <metadata
     id="metadata217">
    <rdf:RDF>
      <cc:Work
         rdf:about="">
        <dc:format>image/svg+xml</dc:format>
        <dc:type
           rdf:resource="http://purl.org/dc/dcmitype/StillImage" />
        <dc:title></dc:title>
      </cc:Work>
    </rdf:RDF>
  </metadata>
  <defs
     id="defs215" />
  <sodipodi:namedview
     inkscape:current-layer="surface3113"
     inkscape:window-maximized="1"
     inkscape:window-y="23"
     inkscape:window-x="0"
     inkscape:cy="155.96631"
     inkscape:cx="327.99761"
     inkscape:zoom="1.0326333"
     showgrid="false"
     id="namedview213"
     inkscape:window-height="855"
     inkscape:window-width="1440"
     inkscape:pageshadow="2"
     inkscape:pageopacity="0"
     guidetolerance="10"
     gridtolerance="10"
     objecttolerance="10"
     borderopacity="1"
     bordercolor="#666666"
     pagecolor="#ffffff" />
  <g
     id="surface3113">
    <path
       id="path14"
       d="m 12.152344,21.38674 h 92.105466 m -92.105466,5 h 92.105466 m -92.105466,5 h 92.105466 m -92.105466,5 h 92.105466 m -92.105466,5 h 92.105466"
       style="fill:none;stroke:#000000;stroke-width:0.378178;stroke-linecap:butt;stroke-linejoin:bevel;stroke-miterlimit:10;stroke-opacity:1" />
    <path
       id="path16"
       d="m 12.152344,73.88674 h 92.437496 m -92.437496,5.00391 h 92.437496 m -92.437496,5 h 92.437496 m -92.437496,5 h 92.437496 m -92.437496,5 h 92.437496"
       style="fill:none;stroke:#000000;stroke-width:0.378858;stroke-linecap:butt;stroke-linejoin:bevel;stroke-miterlimit:10;stroke-opacity:1" />
    <path
       id="path30"
       d="M 12.550782,21.38674 V 93.89065"
       style="fill:none;stroke:#000000;stroke-width:0.80005;stroke-linecap:butt;stroke-linejoin:bevel;stroke-miterlimit:10;stroke-opacity:1" />
    <path
       id="path32"
       d="M 104.25781,21.38674 V 93.89065"
       style="fill:none;stroke:#000000;stroke-width:0.80005;stroke-linecap:butt;stroke-linejoin:bevel;stroke-miterlimit:10;stroke-opacity:1" />
    <path
       id="path52"
       d="M 83.871094,40.61721 V 13.88674"
       style="fill:none;stroke:#000000;stroke-width:0.650041;stroke-linecap:round;stroke-linejoin:bevel;stroke-miterlimit:10;stroke-opacity:1" />
    <path
       id="path54"
       d="M 57.449219,38.11721 V 13.88674"
       style="fill:none;stroke:#000000;stroke-width:0.650041;stroke-linecap:round;stroke-linejoin:bevel;stroke-miterlimit:10;stroke-opacity:1" />
    <path
       id="path56"
       d="M 83.871094,85.62112 V 70.13674"
       style="fill:none;stroke:#000000;stroke-width:0.650041;stroke-linecap:round;stroke-linejoin:bevel;stroke-miterlimit:10;stroke-opacity:1" />
    <path
       id="path58"
       d="M 57.449219,95.62112 V 78.89065"
       style="fill:none;stroke:#000000;stroke-width:0.650041;stroke-linecap:round;stroke-linejoin:bevel;stroke-miterlimit:10;stroke-opacity:1" />
    <path
       id="path90"
       d="m 83.5625,27.57815 c 0,-0.22266 -0.08594,-0.41016 -0.253906,-0.56641 -0.167968,-0.17187 -0.363281,-0.2539 -0.585937,-0.2539 -0.390625,0 -1.179688,0.39062 -2.363281,1.17187 -1.222657,0.79297 -1.972657,1.35938 -2.246094,1.69922 -0.144532,0.17969 -0.214844,0.3711 -0.214844,0.56641 0,0.21875 0.08594,0.41015 0.253906,0.5664 0.15625,0.16797 0.351563,0.25391 0.585938,0.25391 0.378906,0 1.171875,-0.39062 2.382812,-1.17187 1.199219,-0.78125 1.941406,-1.34766 2.226563,-1.69922 0.144531,-0.17188 0.214843,-0.35938 0.214843,-0.56641 z m -1.035156,-1.44531 c 1.121094,0 1.679688,0.48047 1.679688,1.44531 0,0.46875 -0.136719,1.01563 -0.410156,1.64063 -0.273438,0.60937 -0.636719,1.07812 -1.09375,1.40625 -1.003907,0.67578 -2.257813,1.01562 -3.769532,1.01562 -1.121094,0 -1.679687,-0.48437 -1.679687,-1.44531 0,-0.42969 0.136719,-0.97266 0.410156,-1.6211 0.261719,-0.625 0.625,-1.10156 1.09375,-1.42578 1.003906,-0.67968 2.257813,-1.01562 3.769531,-1.01562 z m 0,0"
       style="fill:#000000;fill-opacity:1;fill-rule:nonzero;stroke:none" />
    <path
       id="path92"
       d="m 83.5625,35.07815 c 0,-0.22266 -0.08594,-0.41016 -0.253906,-0.56641 -0.167968,-0.16796 -0.363281,-0.2539 -0.585937,-0.2539 -0.390625,0 -1.179688,0.39062 -2.363281,1.17187 -1.222657,0.79297 -1.972657,1.35938 -2.246094,1.69922 -0.144532,0.1836 -0.214844,0.3711 -0.214844,0.56641 0,0.22265 0.08594,0.41015 0.253906,0.5664 0.15625,0.16797 0.351563,0.25391 0.585938,0.25391 0.378906,0 1.171875,-0.39062 2.382812,-1.17187 1.199219,-0.78125 1.941406,-1.34766 2.226563,-1.69922 0.144531,-0.16797 0.214843,-0.35938 0.214843,-0.56641 z m -1.035156,-1.44531 c 1.121094,0 1.679688,0.48047 1.679688,1.44531 0,0.46875 -0.136719,1.01563 -0.410156,1.64063 -0.273438,0.61328 -0.636719,1.08203 -1.09375,1.40625 -1.003907,0.67578 -2.257813,1.01562 -3.769532,1.01562 -1.121094,0 -1.679687,-0.48047 -1.679687,-1.44531 0,-0.42969 0.136719,-0.96875 0.410156,-1.6211 0.261719,-0.625 0.625,-1.10156 1.09375,-1.42578 1.003906,-0.67578 2.257813,-1.01562 3.769531,-1.01562 z m 0,0"
       style="fill:#000000;fill-opacity:1;fill-rule:nonzero;stroke:none" />
    <path
       id="path94"
       d="m 83.5625,40.07815 c 0,-0.22266 -0.08594,-0.41016 -0.253906,-0.56641 -0.167968,-0.16796 -0.363281,-0.2539 -0.585937,-0.2539 -0.390625,0 -1.179688,0.39062 -2.363281,1.17187 -1.222657,0.79297 -1.972657,1.35938 -2.246094,1.69922 -0.144532,0.1836 -0.214844,0.3711 -0.214844,0.56641 0,0.22265 0.08594,0.41015 0.253906,0.5664 0.15625,0.16797 0.351563,0.25391 0.585938,0.25391 0.378906,0 1.171875,-0.39062 2.382812,-1.17187 1.199219,-0.78125 1.941406,-1.34766 2.226563,-1.69922 0.144531,-0.16797 0.214843,-0.35938 0.214843,-0.56641 z m -1.035156,-1.44531 c 1.121094,0 1.679688,0.48047 1.679688,1.44531 0,0.46875 -0.136719,1.01563 -0.410156,1.64063 -0.273438,0.61328 -0.636719,1.08203 -1.09375,1.40625 -1.003907,0.67578 -2.257813,1.01562 -3.769532,1.01562 -1.121094,0 -1.679687,-0.48047 -1.679687,-1.44531 0,-0.42969 0.136719,-0.96875 0.410156,-1.6211 0.261719,-0.625 0.625,-1.10156 1.09375,-1.42578 1.003906,-0.67578 2.257813,-1.01562 3.769531,-1.01562 z m 0,0"
       style="fill:#000000;fill-opacity:1;fill-rule:nonzero;stroke:none" />
    <path
       id="path96"
       d="m 57.140626,27.57815 c 0,-0.22266 -0.08594,-0.41016 -0.253907,-0.56641 -0.171875,-0.17187 -0.367187,-0.2539 -0.585937,-0.2539 -0.390625,0 -1.179688,0.39062 -2.363282,1.17187 -1.226562,0.79297 -1.972656,1.35938 -2.246093,1.69922 -0.144531,0.17969 -0.214844,0.3711 -0.214844,0.56641 0,0.21875 0.08203,0.41015 0.253906,0.5664 0.15625,0.16797 0.351563,0.25391 0.585938,0.25391 0.375,0 1.171875,-0.39062 2.382812,-1.17187 1.195313,-0.78125 1.9375,-1.34766 2.226563,-1.69922 0.140625,-0.17188 0.214844,-0.35938 0.214844,-0.56641 z m -1.035157,-1.44531 c 1.117188,0 1.679688,0.48047 1.679688,1.44531 0,0.46875 -0.136719,1.01563 -0.410157,1.64063 -0.273437,0.60937 -0.640624,1.07812 -1.09375,1.40625 -1.003906,0.67578 -2.261718,1.01562 -3.769531,1.01562 -1.121093,0 -1.679687,-0.48437 -1.679687,-1.44531 0,-0.42969 0.136718,-0.97266 0.410156,-1.6211 0.257812,-0.625 0.625,-1.10156 1.09375,-1.42578 1,-0.67968 2.257812,-1.01562 3.769531,-1.01562 z m 0,0"
       style="fill:#000000;fill-opacity:1;fill-rule:nonzero;stroke:none" />
    <path
       id="path98"
       d="m 57.140626,32.57815 c 0,-0.22266 -0.08594,-0.41016 -0.253907,-0.56641 -0.171875,-0.17187 -0.367187,-0.2539 -0.585937,-0.2539 -0.390625,0 -1.179688,0.39062 -2.363282,1.17187 -1.226562,0.79297 -1.972656,1.35938 -2.246093,1.69922 -0.144531,0.1836 -0.214844,0.3711 -0.214844,0.56641 0,0.22265 0.08203,0.41015 0.253906,0.5664 0.15625,0.16797 0.351563,0.25391 0.585938,0.25391 0.375,0 1.171875,-0.39062 2.382812,-1.17187 1.195313,-0.78125 1.9375,-1.34766 2.226563,-1.69922 0.140625,-0.17188 0.214844,-0.35938 0.214844,-0.56641 z m -1.035157,-1.44531 c 1.117188,0 1.679688,0.48047 1.679688,1.44531 0,0.46875 -0.136719,1.01563 -0.410157,1.64063 -0.273437,0.61328 -0.640624,1.08203 -1.09375,1.40625 -1.003906,0.67578 -2.261718,1.01562 -3.769531,1.01562 -1.121093,0 -1.679687,-0.48047 -1.679687,-1.44531 0,-0.42969 0.136718,-0.96875 0.410156,-1.6211 0.257812,-0.625 0.625,-1.10156 1.09375,-1.42578 1,-0.67968 2.257812,-1.01562 3.769531,-1.01562 z m 0,0"
       style="fill:#000000;fill-opacity:1;fill-rule:nonzero;stroke:none" />
    <path
       id="path100"
       d="m 57.140626,37.57815 c 0,-0.22266 -0.08594,-0.41016 -0.253907,-0.56641 -0.171875,-0.16796 -0.367187,-0.2539 -0.585937,-0.2539 -0.390625,0 -1.179688,0.39062 -2.363282,1.17187 -1.226562,0.79297 -1.972656,1.35938 -2.246093,1.69922 -0.144531,0.1836 -0.214844,0.3711 -0.214844,0.56641 0,0.22265 0.08203,0.41015 0.253906,0.5664 0.15625,0.16797 0.351563,0.25391 0.585938,0.25391 0.375,0 1.171875,-0.39062 2.382812,-1.17187 1.195313,-0.78125 1.9375,-1.34766 2.226563,-1.69922 0.140625,-0.16797 0.214844,-0.35938 0.214844,-0.56641 z m -1.035157,-1.44531 c 1.117188,0 1.679688,0.48047 1.679688,1.44531 0,0.46875 -0.136719,1.01563 -0.410157,1.64063 -0.273437,0.61328 -0.640624,1.08203 -1.09375,1.40625 -1.003906,0.67578 -2.261718,1.01562 -3.769531,1.01562 -1.121093,0 -1.679687,-0.48047 -1.679687,-1.44531 0,-0.42969 0.136718,-0.96875 0.410156,-1.6211 0.257812,-0.625 0.625,-1.10156 1.09375,-1.42578 1,-0.67578 2.257812,-1.01562 3.769531,-1.01562 z m 0,0"
       style="fill:#000000;fill-opacity:1;fill-rule:nonzero;stroke:none" />
    <path
       id="path102"
       d="m 83.5625,85.08206 c 0,-0.22266 -0.08594,-0.41016 -0.253906,-0.56641 -0.167968,-0.17187 -0.363281,-0.25391 -0.585937,-0.25391 -0.390625,0 -1.179688,0.39063 -2.363281,1.17188 -1.222657,0.79297 -1.972657,1.35937 -2.246094,1.69922 -0.144532,0.17969 -0.214844,0.37109 -0.214844,0.5664 0,0.21875 0.08594,0.41016 0.253906,0.56641 0.15625,0.16797 0.351563,0.25391 0.585938,0.25391 0.378906,0 1.171875,-0.39063 2.382812,-1.17188 1.199219,-0.78125 1.941406,-1.34765 2.226563,-1.69922 0.144531,-0.17187 0.214843,-0.35937 0.214843,-0.5664 z m -1.035156,-1.44532 c 1.121094,0 1.679688,0.48047 1.679688,1.44532 0,0.46875 -0.136719,1.01562 -0.410156,1.64062 -0.273438,0.60938 -0.636719,1.07813 -1.09375,1.40625 -1.003907,0.67578 -2.257813,1.01563 -3.769532,1.01563 -1.121094,0 -1.679687,-0.48438 -1.679687,-1.44532 0,-0.42968 0.136719,-0.97265 0.410156,-1.62109 0.261719,-0.625 0.625,-1.10156 1.09375,-1.42578 1.003906,-0.67969 2.257813,-1.01563 3.769531,-1.01563 z m 0,0"
       style="fill:#000000;fill-opacity:1;fill-rule:nonzero;stroke:none" />
    <path
       id="path104"
       d="m 57.140626,95.08206 c 0,-0.22266 -0.08594,-0.41016 -0.253907,-0.56641 -0.171875,-0.17187 -0.367187,-0.25391 -0.585937,-0.25391 -0.390625,0 -1.179688,0.39063 -2.363282,1.17188 -1.226562,0.79297 -1.972656,1.35937 -2.246093,1.69922 -0.144531,0.18359 -0.214844,0.37109 -0.214844,0.5664 0,0.22266 0.08203,0.41016 0.253906,0.56641 0.15625,0.16797 0.351563,0.25391 0.585938,0.25391 0.375,0 1.171875,-0.39063 2.382812,-1.17188 1.195313,-0.78125 1.9375,-1.34765 2.226563,-1.69922 0.140625,-0.17187 0.214844,-0.35937 0.214844,-0.5664 z m -1.035157,-1.44532 c 1.117188,0 1.679688,0.48047 1.679688,1.44532 0,0.46875 -0.136719,1.01562 -0.410157,1.64062 -0.273437,0.61328 -0.640624,1.08203 -1.09375,1.40625 -1.003906,0.67578 -2.261718,1.01563 -3.769531,1.01563 -1.121093,0 -1.679687,-0.48047 -1.679687,-1.44532 0,-0.42968 0.136718,-0.96875 0.410156,-1.62109 0.257812,-0.625 0.625,-1.10156 1.09375,-1.42578 1,-0.67969 2.257812,-1.01563 3.769531,-1.01563 z m 0,0"
       style="fill:#000000;fill-opacity:1;fill-rule:nonzero;stroke:none" />
    <path
       id="path142"
       d="m 23.496094,31.26956 c 0,0 0.03906,0 0.117188,0 0.05078,-0.0156 0.09766,-0.0195 0.136718,-0.0195 1.457032,0 2.65625,0.51171 3.59375,1.54296 0.9375,1.01563 1.40625,2.19922 1.40625,3.55469 0,1.67969 -0.695312,3.04688 -2.089843,4.10156 -0.363281,0.28516 -0.839844,0.51954 -1.425781,0.70313 0.06641,0.84766 0.09766,1.53125 0.09766,2.05078 0,0.10547 -0.01172,0.48047 -0.03906,1.13281 -0.05078,1.21094 -0.46875,2.25782 -1.25,3.14453 -0.753906,0.8711 -1.691406,1.3086 -2.8125,1.3086 -1.054687,0 -1.953125,-0.3711 -2.695312,-1.11328 -0.742188,-0.75391 -1.113281,-1.66797 -1.113281,-2.73438 0,-0.55859 0.214843,-1.03515 0.644531,-1.42578 0.441406,-0.39062 0.957031,-0.58594 1.542969,-0.58594 0.519531,0 0.957031,0.20313 1.308593,0.60547 0.363281,0.37891 0.546875,0.84766 0.546875,1.40625 0,0.50781 -0.183594,0.94531 -0.546875,1.3086 -0.363281,0.36328 -0.800781,0.54687 -1.308593,0.54687 -0.207032,0 -0.410157,-0.0391 -0.605469,-0.11719 0.574219,0.84766 1.335937,1.26953 2.285156,1.26953 0.898437,0 1.632813,-0.36328 2.207031,-1.09375 0.597656,-0.7539 0.925782,-1.63281 0.976563,-2.63671 0.02734,-0.625 0.03906,-0.98438 0.03906,-1.07422 0,-0.73047 -0.02734,-1.32813 -0.07813,-1.79688 -0.652344,0.10547 -1.230468,0.15625 -1.738281,0.15625 -1.808594,0 -3.351563,-0.71484 -4.628906,-2.14844 -1.25,-1.44531 -1.875,-3.16406 -1.875,-5.15625 0,-0.41796 0.03906,-0.83984 0.117187,-1.26953 0.07813,-0.35156 0.175782,-0.73828 0.292969,-1.15234 0.06641,-0.23438 0.242187,-0.61328 0.527344,-1.13281 0.105469,-0.15625 0.222656,-0.35157 0.351562,-0.58594 0.128907,-0.23438 0.222657,-0.39063 0.273438,-0.46875 0.128906,-0.26172 0.382812,-0.61328 0.761719,-1.05469 0.105468,-0.11719 0.210937,-0.25 0.320312,-0.39062 0.113281,-0.14453 0.207031,-0.26172 0.285156,-0.35157 0.07813,-0.0937 0.136719,-0.16406 0.175782,-0.21484 0.03906,-0.0547 0.332031,-0.39844 0.878906,-1.03516 0.128906,-0.13281 0.257812,-0.26953 0.378906,-0.42187 0.125,-0.14844 0.226562,-0.26563 0.304688,-0.35156 0.07812,-0.082 0.136718,-0.14453 0.175781,-0.1836 -0.46875,-1.55078 -0.761719,-2.78906 -0.878907,-3.71093 -0.08984,-0.74219 -0.136718,-1.75782 -0.136718,-3.04688 0,-1.13281 0.261718,-2.19531 0.78125,-3.18359 0.507812,-1.03125 1.21875,-1.8711 2.128906,-2.51953 0.06641,-0.0391 0.128906,-0.0586 0.195312,-0.0586 0.08984,0 0.15625,0.0195 0.195313,0.0586 0.703125,0.84375 1.308594,1.94531 1.816406,3.30078 0.519531,1.35156 0.78125,2.58203 0.78125,3.6914 0,1.25 -0.300781,2.42188 -0.898437,3.51563 -0.675782,1.15625 -1.550782,2.35547 -2.617188,3.59375 0.273438,0.85937 0.636719,2.20703 1.09375,4.04297 z m 1.660156,9.08203 c 0.675782,-0.2461 1.203126,-0.67188 1.582032,-1.26953 0.417968,-0.57422 0.625,-1.21875 0.625,-1.9336 0,-0.92578 -0.3125,-1.74609 -0.9375,-2.46093 -0.636719,-0.74219 -1.453125,-1.16016 -2.441406,-1.25 0.558593,2.74609 0.949218,5.05078 1.171874,6.91406 z m -7.558593,-4.51172 c 0,1.28906 0.519531,2.42187 1.5625,3.39844 1.066406,0.94922 2.265625,1.42578 3.59375,1.42578 0.546875,0 1.082031,-0.0391 1.601562,-0.11719 -0.207031,-1.98047 -0.617187,-4.34766 -1.230469,-7.10937 -0.742187,0.0781 -1.335937,0.33984 -1.777343,0.78125 -0.429688,0.45703 -0.644531,0.96875 -0.644531,1.54296 0,0.98829 0.527343,1.78907 1.582031,2.40235 0.08984,0.0898 0.136719,0.1875 0.136719,0.29297 0,0.10547 -0.04688,0.20312 -0.136719,0.29297 -0.07813,0.0898 -0.175781,0.13671 -0.292969,0.13671 -0.01172,0 -0.07031,-0.0117 -0.175781,-0.0391 C 21.074219,38.4453 20.5,37.92186 20.097657,37.28514 19.71875,36.60936 19.53125,35.92577 19.53125,35.23436 c 0,-0.89844 0.28125,-1.71484 0.839844,-2.44141 0.585938,-0.73046 1.347656,-1.19921 2.285156,-1.40625 -0.363281,-1.46093 -0.664062,-2.59765 -0.898437,-3.41796 -0.207031,0.23437 -0.457031,0.51562 -0.75,0.84765 -0.292969,0.33203 -0.46875,0.53125 -0.519531,0.59766 -0.46875,0.60937 -0.828125,1.08594 -1.074219,1.42578 -0.441406,0.60937 -0.769531,1.13672 -0.976563,1.58203 -0.222656,0.49219 -0.417968,1.03516 -0.585937,1.62109 -0.167969,0.5586 -0.253906,1.16016 -0.253906,1.79688 z m 6.523437,-19.86328 c -0.976562,0.48047 -1.746094,1.17187 -2.304687,2.07031 -0.574219,0.92188 -0.859375,1.91797 -0.859375,2.98828 0,0.9375 0.234375,2.19922 0.703125,3.78906 0.9375,-1.13281 1.640625,-2.18359 2.109375,-3.14453 0.496094,-1.01562 0.742187,-2.07812 0.742187,-3.18359 0,-0.83594 -0.128906,-1.67578 -0.390625,-2.51953 z m 0,0"
       style="fill:#000000;fill-opacity:1;fill-rule:nonzero;stroke:none" />
    <path
       id="path144"
       d="m 27.578126,77.11331 c -0.195313,-0.19532 -0.292969,-0.4375 -0.292969,-0.72266 0,-0.28906 0.09766,-0.52734 0.292969,-0.72266 0.195312,-0.19531 0.4375,-0.29296 0.722656,-0.29296 0.285156,0 0.527344,0.0976 0.722656,0.29296 0.195312,0.19532 0.292969,0.4336 0.292969,0.72266 0,0.28516 -0.09766,0.52734 -0.292969,0.72266 -0.195312,0.19531 -0.4375,0.29297 -0.722656,0.29297 -0.285156,0 -0.527344,-0.0977 -0.722656,-0.29297 z m 0,5 c -0.195313,-0.19532 -0.292969,-0.4375 -0.292969,-0.72266 0,-0.28906 0.09766,-0.52734 0.292969,-0.72266 0.195312,-0.19531 0.4375,-0.29296 0.722656,-0.29296 0.285156,0 0.527344,0.0976 0.722656,0.29296 0.195312,0.19532 0.292969,0.4336 0.292969,0.72266 0,0.28516 -0.09766,0.52734 -0.292969,0.72266 -0.195312,0.19531 -0.4375,0.29297 -0.722656,0.29297 -0.285156,0 -0.527344,-0.0977 -0.722656,-0.29297 z m -6.777344,-8.48047 c 1.730468,0 3.152344,0.4375 4.257812,1.30859 1.066406,0.91406 1.601563,2.15235 1.601563,3.71485 0,1.05468 -0.207031,2.01562 -0.625,2.89062 -0.390625,0.91016 -0.90625,1.71875 -1.542969,2.42188 -0.652344,0.71484 -1.4375,1.39062 -2.363281,2.03125 -0.898438,0.625 -1.824219,1.18359 -2.773438,1.67968 -1.925781,0.97657 -2.996093,1.46485 -3.203125,1.46485 -0.167968,0 -0.253906,-0.0859 -0.253906,-0.25391 0,-0.0664 0.02734,-0.125 0.07813,-0.17578 0.664063,-0.39063 1.476563,-0.89453 2.441406,-1.50391 0.625,-0.40625 1.355469,-0.96484 2.1875,-1.67968 0.808594,-0.67969 1.433594,-1.31641 1.875,-1.91407 0.457031,-0.58593 0.871094,-1.3164 1.25,-2.1875 0.324219,-0.875 0.488281,-1.73437 0.488281,-2.57812 0,-1.26563 -0.3125,-2.36328 -0.9375,-3.30078 -0.625,-0.94141 -1.453124,-1.41016 -2.480468,-1.41016 -0.730469,0 -1.355469,0.23438 -1.875,0.70313 -0.558594,0.48437 -0.964844,1.08984 -1.210938,1.82031 0.246094,-0.10547 0.476563,-0.15625 0.683594,-0.15625 0.546875,0 1.015625,0.19531 1.40625,0.58594 0.390625,0.41406 0.585938,0.89062 0.585938,1.42578 0,0.55859 -0.1875,1.05859 -0.566407,1.5039 -0.402343,0.40235 -0.878906,0.60547 -1.425781,0.60547 -0.585938,0 -1.113281,-0.20312 -1.582031,-0.60547 -0.441407,-0.44531 -0.664063,-0.94531 -0.664063,-1.5039 0,-1.34375 0.457032,-2.48828 1.367188,-3.4375 0.898437,-0.96485 1.992187,-1.44922 3.28125,-1.44922 z m 0,0"
       style="fill:#000000;fill-opacity:1;fill-rule:nonzero;stroke:none" />
    <path
       id="path162"
       d="m 38.570313,21.64065 c 0.390625,0 0.722656,-0.0469 1,-0.13672 0.273437,-0.0937 0.449219,-0.13672 0.527344,-0.13672 0.08984,0 0.160156,0.0234 0.214843,0.0781 0.03906,0.0391 0.0625,0.082 0.07813,0.13672 0,0.0234 -0.01563,0.0625 -0.03906,0.11718 l -5.6875,6.60157 h 3.339844 v -2.61719 c 0,-0.17188 0.04687,-0.3125 0.136719,-0.42969 0.15625,-0.13281 0.289062,-0.21094 0.390624,-0.23437 0.171876,-0.0781 0.378907,-0.26172 0.625,-0.54688 0.210938,-0.23437 0.457032,-0.64453 0.746094,-1.23047 0.03906,-0.0781 0.09766,-0.11718 0.175782,-0.11718 0.15625,0 0.246093,0.0898 0.273437,0.27343 v 4.90235 h 1.425781 c 0.179688,0 0.285156,0.0977 0.3125,0.29297 0,0.19531 -0.105468,0.29296 -0.3125,0.29296 H 40.35157 v 0.15625 c 0,0.51954 0.128906,0.96094 0.390625,1.32813 0.296875,0.36328 0.648438,0.54687 1.054688,0.54687 0.15625,0 0.234374,0.0781 0.234374,0.23438 0,0.15625 -0.07812,0.23437 -0.234374,0.23437 -0.273438,0 -0.71875,-0.0391 -1.328126,-0.11718 -0.5625,-0.0937 -0.996093,-0.13672 -1.3125,-0.13672 -0.324218,0 -0.761718,0.043 -1.308593,0.13672 -0.585938,0.0781 -1.019531,0.11718 -1.308594,0.11718 -0.15625,0 -0.234375,-0.0781 -0.234375,-0.23437 0,-0.15625 0.07813,-0.23438 0.234375,-0.23438 0.40625,0 0.757813,-0.18359 1.054687,-0.54687 0.273438,-0.36719 0.410157,-0.80859 0.410157,-1.32813 V 28.88671 H 34.66407 c -0.21875,0 -0.375,-0.0547 -0.46875,-0.15625 -0.101563,-0.0781 -0.15625,-0.18359 -0.15625,-0.3125 0,-0.0391 0.09766,-0.17578 0.292969,-0.41015 0.222656,-0.26172 0.457031,-0.58203 0.703125,-0.95703 0.289062,-0.44532 0.5625,-0.89844 0.820312,-1.36719 0.289063,-0.53516 0.515625,-1.14844 0.683594,-1.83594 0.195313,-0.70312 0.292969,-1.42187 0.292969,-2.14844 0,-0.21093 0.09375,-0.3125 0.273437,-0.3125 0.03906,0 0.125,0.0195 0.253907,0.0586 0.03906,0.0117 0.121093,0.0312 0.246093,0.0586 0.125,0.0234 0.222657,0.0508 0.300781,0.0781 0.234376,0.0391 0.457032,0.0586 0.664063,0.0586 z m 0,0"
       style="fill:#000000;fill-opacity:1;fill-rule:nonzero;stroke:none" />
    <path
       id="path164"
       d="m 38.570313,31.64065 c 0.390625,0 0.722656,-0.0469 1,-0.13672 0.273437,-0.0937 0.449219,-0.13672 0.527344,-0.13672 0.08984,0 0.160156,0.0234 0.214843,0.0781 0.03906,0.0391 0.0625,0.082 0.07813,0.13672 0,0.0234 -0.01563,0.0625 -0.03906,0.11718 l -5.6875,6.60157 h 3.339844 v -2.61719 c 0,-0.16797 0.04687,-0.3125 0.136719,-0.42969 0.15625,-0.1289 0.289062,-0.20703 0.390624,-0.23437 0.171876,-0.0781 0.378907,-0.26172 0.625,-0.54688 0.210938,-0.23437 0.457032,-0.64453 0.746094,-1.23047 0.03906,-0.0781 0.09766,-0.11718 0.175782,-0.11718 0.15625,0 0.246093,0.0898 0.273437,0.27343 v 4.90235 h 1.425781 c 0.179688,0 0.285156,0.0977 0.3125,0.29297 0,0.19531 -0.105468,0.29296 -0.3125,0.29296 H 40.35157 v 0.15625 c 0,0.51954 0.128906,0.96485 0.390625,1.32813 0.296875,0.36328 0.648438,0.54687 1.054688,0.54687 0.15625,0 0.234374,0.0781 0.234374,0.23438 0,0.15625 -0.07812,0.23437 -0.234374,0.23437 -0.273438,0 -0.71875,-0.0391 -1.328126,-0.11718 -0.5625,-0.0898 -0.996093,-0.13672 -1.3125,-0.13672 -0.324218,0 -0.761718,0.0469 -1.308593,0.13672 -0.585938,0.0781 -1.019531,0.11718 -1.308594,0.11718 -0.15625,0 -0.234375,-0.0781 -0.234375,-0.23437 0,-0.15625 0.07813,-0.23438 0.234375,-0.23438 0.40625,0 0.757813,-0.18359 1.054687,-0.54687 0.273438,-0.36328 0.410157,-0.80859 0.410157,-1.32813 V 38.88671 H 34.66407 c -0.21875,0 -0.375,-0.0508 -0.46875,-0.15625 -0.101563,-0.0781 -0.15625,-0.18359 -0.15625,-0.3125 0,-0.0391 0.09766,-0.17578 0.292969,-0.41015 0.222656,-0.26172 0.457031,-0.57813 0.703125,-0.95703 0.289062,-0.44141 0.5625,-0.89844 0.820312,-1.36719 0.289063,-0.53516 0.515625,-1.14453 0.683594,-1.83594 0.195313,-0.70312 0.292969,-1.42187 0.292969,-2.14844 0,-0.21093 0.09375,-0.3125 0.273437,-0.3125 0.03906,0 0.125,0.0195 0.253907,0.0586 0.03906,0.0117 0.121093,0.0312 0.246093,0.0586 0.125,0.0234 0.222657,0.0508 0.300781,0.0781 0.234376,0.0391 0.457032,0.0586 0.664063,0.0586 z m 0,0"
       style="fill:#000000;fill-opacity:1;fill-rule:nonzero;stroke:none" />
    <path
       id="path166"
       d="m 38.570313,74.14065 c 0.390625,0 0.722656,-0.043 1,-0.13672 0.273437,-0.0898 0.449219,-0.13672 0.527344,-0.13672 0.08984,0 0.160156,0.0274 0.214843,0.0781 0.03906,0.0391 0.0625,0.0859 0.07813,0.13672 0,0.0273 -0.01563,0.0664 -0.03906,0.11718 l -5.6875,6.60547 h 3.339844 V 78.1875 c 0,-0.17188 0.04687,-0.3125 0.136719,-0.42969 0.15625,-0.13281 0.289062,-0.21094 0.390624,-0.23438 0.171876,-0.0781 0.378907,-0.26172 0.625,-0.54687 0.210938,-0.23438 0.457032,-0.64453 0.746094,-1.23047 0.03906,-0.0781 0.09766,-0.11719 0.175782,-0.11719 0.15625,0 0.246093,0.0899 0.273437,0.27344 v 4.90234 h 1.425781 c 0.179688,0 0.285156,0.0977 0.3125,0.29297 0,0.19531 -0.105468,0.29297 -0.3125,0.29297 H 40.35157 v 0.15625 c 0,0.51953 0.128906,0.96094 0.390625,1.32813 0.296875,0.36328 0.648438,0.54687 1.054688,0.54687 0.15625,0 0.234374,0.0781 0.234374,0.23438 0,0.15625 -0.07812,0.23437 -0.234374,0.23437 -0.273438,0 -0.71875,-0.0391 -1.328126,-0.11719 -0.5625,-0.0937 -0.996093,-0.13672 -1.3125,-0.13672 -0.324218,0 -0.761718,0.043 -1.308593,0.13672 -0.585938,0.0781 -1.019531,0.11719 -1.308594,0.11719 -0.15625,0 -0.234375,-0.0781 -0.234375,-0.23437 0,-0.15625 0.07813,-0.23438 0.234375,-0.23438 0.40625,0 0.757813,-0.18359 1.054687,-0.54687 0.273438,-0.36719 0.410157,-0.8086 0.410157,-1.32813 V 81.39062 H 34.66407 c -0.21875,0 -0.375,-0.0547 -0.46875,-0.15625 -0.101563,-0.0781 -0.15625,-0.18359 -0.15625,-0.3125 0,-0.0391 0.09766,-0.17578 0.292969,-0.41016 0.222656,-0.26171 0.457031,-0.58203 0.703125,-0.95703 0.289062,-0.44531 0.5625,-0.89843 0.820312,-1.36718 0.289063,-0.53516 0.515625,-1.14844 0.683594,-1.83594 0.195313,-0.70313 0.292969,-1.42188 0.292969,-2.15235 0,-0.20703 0.09375,-0.3125 0.273437,-0.3125 0.03906,0 0.125,0.0195 0.253907,0.0586 0.03906,0.0156 0.121093,0.0351 0.246093,0.0586 0.125,0.0274 0.222657,0.0547 0.300781,0.0781 0.234376,0.0391 0.457032,0.0586 0.664063,0.0586 z m 0,0"
       style="fill:#000000;fill-opacity:1;fill-rule:nonzero;stroke:none" />
    <path
       id="path168"
       d="m 38.570313,84.14456 c 0.390625,0 0.722656,-0.0469 1,-0.13672 0.273437,-0.0937 0.449219,-0.13672 0.527344,-0.13672 0.08984,0 0.160156,0.0234 0.214843,0.0781 0.03906,0.0391 0.0625,0.082 0.07813,0.13672 0,0.0234 -0.01563,0.0625 -0.03906,0.11719 l -5.6875,6.60156 h 3.339844 v -2.61718 c 0,-0.17188 0.04687,-0.3125 0.136719,-0.42969 0.15625,-0.13281 0.289062,-0.21094 0.390624,-0.23438 0.171876,-0.0781 0.378907,-0.26172 0.625,-0.54687 0.210938,-0.23438 0.457032,-0.64453 0.746094,-1.23047 0.03906,-0.0781 0.09766,-0.11719 0.175782,-0.11719 0.15625,0 0.246093,0.0899 0.273437,0.27344 v 4.90234 h 1.425781 c 0.179688,0 0.285156,0.0977 0.3125,0.29297 0,0.19531 -0.105468,0.29297 -0.3125,0.29297 H 40.35157 v 0.15625 c 0,0.51953 0.128906,0.96094 0.390625,1.32813 0.296875,0.36328 0.648438,0.54687 1.054688,0.54687 0.15625,0 0.234374,0.0781 0.234374,0.23438 0,0.15625 -0.07812,0.23437 -0.234374,0.23437 -0.273438,0 -0.71875,-0.0391 -1.328126,-0.11719 -0.5625,-0.0937 -0.996093,-0.13672 -1.3125,-0.13672 -0.324218,0 -0.761718,0.043 -1.308593,0.13672 -0.585938,0.0781 -1.019531,0.11719 -1.308594,0.11719 -0.15625,0 -0.234375,-0.0781 -0.234375,-0.23437 0,-0.15625 0.07813,-0.23438 0.234375,-0.23438 0.40625,0 0.757813,-0.18359 1.054687,-0.54687 0.273438,-0.36719 0.410157,-0.8086 0.410157,-1.32813 V 91.39063 H 34.66407 c -0.21875,0 -0.375,-0.0547 -0.46875,-0.15625 -0.101563,-0.0781 -0.15625,-0.18359 -0.15625,-0.3125 0,-0.0391 0.09766,-0.17578 0.292969,-0.41016 0.222656,-0.26171 0.457031,-0.58203 0.703125,-0.95703 0.289062,-0.44531 0.5625,-0.89843 0.820312,-1.36718 0.289063,-0.53516 0.515625,-1.14844 0.683594,-1.83594 0.195313,-0.70313 0.292969,-1.42188 0.292969,-2.14844 0,-0.21094 0.09375,-0.3125 0.273437,-0.3125 0.03906,0 0.125,0.0195 0.253907,0.0586 0.03906,0.0117 0.121093,0.0312 0.246093,0.0586 0.125,0.0234 0.222657,0.0508 0.300781,0.0781 0.234376,0.0391 0.457032,0.0586 0.664063,0.0586 z m 0,0"
       style="fill:#000000;fill-opacity:1;fill-rule:nonzero;stroke:none" />
    <path
       id="path190"
       d="m 81.054688,9.2773701 v -4.4375 c 0,-0.36719 -0.05469,-0.60156 -0.164062,-0.70703 -0.113282,-0.10156 -0.378907,-0.16797 -0.808594,-0.19531 v -0.1875 h 2.972656 v 0.1875 c -0.421875,0.0195 -0.6875,0.0859 -0.804688,0.1914 -0.117187,0.10547 -0.175781,0.34375 -0.175781,0.71094 v 4.4375 c 0,0.36719 0.05859,0.60547 0.179688,0.71484 C 82.375,10.10159 82.640626,10.16409 83.054688,10.17971 v 0.1875 h -2.972656 v -0.1875 c 0.421875,-0.0156 0.6875,-0.0742 0.800781,-0.17968 0.113281,-0.1093799 0.171875,-0.3476599 0.171875,-0.7226599 z m 0,0"
       style="fill:#000000;fill-opacity:1;fill-rule:nonzero;stroke:none" />
    <path
       id="path192"
       d="m 52.132813,9.2773701 v -4.4375 c 0,-0.36719 -0.05469,-0.60156 -0.167969,-0.70703 -0.109375,-0.10156 -0.375,-0.16797 -0.804687,-0.19531 v -0.1875 h 2.972656 v 0.1875 c -0.421875,0.0195 -0.691406,0.0859 -0.804687,0.1914 -0.117188,0.10547 -0.175782,0.34375 -0.175782,0.71094 v 4.4375 c 0,0.36719 0.05859,0.60547 0.179688,0.71484 0.121094,0.1093799 0.386718,0.1718799 0.800781,0.1874999 v 0.1875 h -2.972656 v -0.1875 c 0.421875,-0.0156 0.6875,-0.0742 0.800781,-0.17968 0.113281,-0.1093799 0.171875,-0.3476599 0.171875,-0.7226599 z m 9.054687,-5.52734 v 0.1875 c -0.246093,0.0156 -0.421874,0.0742 -0.527343,0.17968 -0.101563,0.10938 -0.234375,0.35938 -0.394531,0.75 L 58.046876,10.47659 H 57.898438 L 55.4375,4.9883101 c -0.195312,-0.44141 -0.355468,-0.72266 -0.484374,-0.84375 -0.132813,-0.125 -0.324219,-0.19141 -0.578126,-0.20703 v -0.1875 h 2.660157 v 0.1875 c -0.183594,0.0156 -0.28125,0.0195 -0.289063,0.0195 -0.304687,0.0195 -0.460937,0.125 -0.460937,0.3125 0,0.13281 0.136719,0.5039 0.410156,1.10937 l 1.511719,3.37891 1.46875,-3.66797 c 0.128906,-0.32031 0.191406,-0.56641 0.191406,-0.73047 0,-0.14062 -0.05469,-0.24219 -0.160156,-0.30469 -0.105469,-0.0664 -0.296875,-0.10156 -0.570313,-0.11718 v -0.1875 z m 0,0"
       style="fill:#000000;fill-opacity:1;fill-rule:nonzero;stroke:none" />
    <path
       id="path204"
       d="m 10.058594,47.17971 c 0,-5.83984 -4.0195309,-11.51953 -4.0195309,-17.11328 0,-2.82031 1.09375,-5.55469 4.4765629,-8.00781 0.04687,-0.0312 0.07031,-0.082 0.07031,-0.11328 0,-0.0898 -0.25,-0.17188 -0.433594,-0.17188 -0.09375,0 -0.2539059,0.0117 -0.3671869,0.082 C 5.3984361,25 3.9335921,28.63671 3.9335921,32.3125 c 0,5.92187 4.296875,11.64062 4.296875,17.32031 0,2.8164 -1.097656,5.47265 -4.480469,7.92187 v 0.16407 c 3.382813,2.45312 4.480469,5.10546 4.480469,7.92578 0,5.67578 -4.296875,11.39453 -4.296875,17.32031 0,3.67578 1.464844,7.30859 5.851563,10.45703 0.113281,0.0703 0.2734369,0.0781 0.3671869,0.0781 0.183594,0 0.433594,-0.0781 0.433594,-0.17188 0,-0.0312 -0.02344,-0.082 -0.07031,-0.11328 -3.3828129,-2.44922 -4.4765629,-5.1875 -4.4765629,-8.00391 0,-5.59765 4.0195309,-11.27343 4.0195309,-17.11718 0,-3.71485 -1.4609369,-7.26954 -5.7578119,-10.45704 4.296875,-3.18359 5.7578119,-6.73828 5.7578119,-10.45703 z m 0,0"
       style="fill:#000000;fill-opacity:1;fill-rule:evenodd;stroke:none" />
  </g>
</svg>
