<?xml version="1.0" encoding="UTF-8" standalone="no"?>
<svg
   xmlns:dc="http://purl.org/dc/elements/1.1/"
   xmlns:cc="http://creativecommons.org/ns#"
   xmlns:rdf="http://www.w3.org/1999/02/22-rdf-syntax-ns#"
   xmlns:svg="http://www.w3.org/2000/svg"
   xmlns="http://www.w3.org/2000/svg"
   xmlns:sodipodi="http://sodipodi.sourceforge.net/DTD/sodipodi-0.dtd"
   xmlns:inkscape="http://www.inkscape.org/namespaces/inkscape"
   inkscape:version="1.0 (4035a4f, 2020-05-01)"
   sodipodi:docname="cadences_half.svg"
   id="svg53"
   version="1.2"
   viewBox="0 0 75 100"
   height="100pt"
   width="75pt">
  <metadata
     id="metadata59">
    <rdf:RDF>
      <cc:Work
         rdf:about="">
        <dc:format>image/svg+xml</dc:format>
        <dc:type
           rdf:resource="http://purl.org/dc/dcmitype/StillImage" />
        <dc:title></dc:title>
      </cc:Work>
    </rdf:RDF>
  </metadata>
  <defs
     id="defs57" />
  <sodipodi:namedview
     inkscape:current-layer="svg53"
     inkscape:window-maximized="0"
     inkscape:window-y="23"
     inkscape:window-x="0"
     inkscape:cy="66.666667"
     inkscape:cx="50"
     inkscape:zoom="4.8525"
     showgrid="false"
     id="namedview55"
     inkscape:window-height="480"
     inkscape:window-width="741"
     inkscape:pageshadow="2"
     inkscape:pageopacity="0"
     guidetolerance="10"
     gridtolerance="10"
     objecttolerance="10"
     borderopacity="1"
     bordercolor="#666666"
     pagecolor="#ffffff" />
  <g
     id="surface3126">
    <path
       id="path10"
       d="M 12.152344 21.386719 L 65.214844 21.386719 M 12.152344 26.386719 L 65.214844 26.386719 M 12.152344 31.390625 L 65.214844 31.390625 M 12.152344 36.390625 L 65.214844 36.390625 M 12.152344 41.390625 L 65.214844 41.390625 "
       style="fill:none;stroke-width:0.400025;stroke-linecap:butt;stroke-linejoin:bevel;stroke:rgb(0%,0%,0%);stroke-opacity:1;stroke-miterlimit:10;" />
    <path
       id="path12"
       d="M 12.152344 73.890625 L 65.214844 73.890625 M 12.152344 78.890625 L 65.214844 78.890625 M 12.152344 83.890625 L 65.214844 83.890625 M 12.152344 88.890625 L 65.214844 88.890625 M 12.152344 93.894531 L 65.214844 93.894531 "
       style="fill:none;stroke-width:0.400025;stroke-linecap:butt;stroke-linejoin:bevel;stroke:rgb(0%,0%,0%);stroke-opacity:1;stroke-miterlimit:10;" />
    <path
       id="path14"
       d="M 12.550781 21.386719 L 12.550781 93.894531 "
       style="fill:none;stroke-width:0.80005;stroke-linecap:butt;stroke-linejoin:bevel;stroke:rgb(0%,0%,0%);stroke-opacity:1;stroke-miterlimit:10;" />
    <path
       id="path16"
       d="M 64.8125 21.386719 L 64.8125 93.894531 "
       style="fill:none;stroke-width:0.80005;stroke-linecap:butt;stroke-linejoin:bevel;stroke:rgb(0%,0%,0%);stroke-opacity:1;stroke-miterlimit:10;" />
    <path
       id="path18"
       d="M 44.398438 38.121094 L 44.398438 13.886719 "
       style="fill:none;stroke-width:0.650041;stroke-linecap:round;stroke-linejoin:bevel;stroke:rgb(0%,0%,0%);stroke-opacity:1;stroke-miterlimit:10;" />
    <path
       id="path20"
       d="M 57.625 43.121094 L 57.625 15.761719 "
       style="fill:none;stroke-width:0.650041;stroke-linecap:round;stroke-linejoin:bevel;stroke:rgb(0%,0%,0%);stroke-opacity:1;stroke-miterlimit:10;" />
    <path
       id="path22"
       d="M 38.105469 79.675781 L 38.105469 95.769531 "
       style="fill:none;stroke-width:0.650041;stroke-linecap:round;stroke-linejoin:bevel;stroke:rgb(0%,0%,0%);stroke-opacity:1;stroke-miterlimit:10;" />
    <path
       id="path24"
       d="M 51.332031 77.175781 L 51.332031 93.894531 "
       style="fill:none;stroke-width:0.650041;stroke-linecap:round;stroke-linejoin:bevel;stroke:rgb(0%,0%,0%);stroke-opacity:1;stroke-miterlimit:10;" />
    <path
       id="path26"
       d="M 44.089844 27.578125 C 44.089844 27.359375 44.003906 27.167969 43.835938 27.011719 C 43.664062 26.84375 43.46875 26.757812 43.25 26.757812 C 42.859375 26.757812 42.070312 27.148438 40.886719 27.929688 C 39.660156 28.726562 38.914062 29.292969 38.640625 29.632812 C 38.496094 29.8125 38.425781 30.003906 38.425781 30.199219 C 38.425781 30.417969 38.507812 30.609375 38.679688 30.765625 C 38.835938 30.933594 39.03125 31.019531 39.265625 31.019531 C 39.640625 31.019531 40.4375 30.628906 41.648438 29.847656 C 42.84375 29.066406 43.585938 28.5 43.875 28.148438 C 44.015625 27.976562 44.089844 27.789062 44.089844 27.578125 Z M 43.054688 26.132812 C 44.171875 26.132812 44.734375 26.617188 44.734375 27.578125 C 44.734375 28.050781 44.597656 28.597656 44.324219 29.222656 C 44.050781 29.832031 43.683594 30.300781 43.230469 30.628906 C 42.226562 31.304688 40.96875 31.644531 39.460938 31.644531 C 38.339844 31.644531 37.78125 31.160156 37.78125 30.199219 C 37.78125 29.769531 37.917969 29.226562 38.191406 28.578125 C 38.449219 27.949219 38.816406 27.476562 39.285156 27.148438 C 40.285156 26.472656 41.542969 26.132812 43.054688 26.132812 Z M 43.054688 26.132812 "
       style=" stroke:none;fill-rule:nonzero;fill:rgb(0%,0%,0%);fill-opacity:1;" />
    <path
       id="path28"
       d="M 44.089844 32.582031 C 44.089844 32.359375 44.003906 32.171875 43.835938 32.015625 C 43.664062 31.84375 43.46875 31.761719 43.25 31.761719 C 42.859375 31.761719 42.070312 32.152344 40.886719 32.933594 C 39.660156 33.726562 38.914062 34.292969 38.640625 34.632812 C 38.496094 34.8125 38.425781 35.003906 38.425781 35.199219 C 38.425781 35.417969 38.507812 35.609375 38.679688 35.765625 C 38.835938 35.933594 39.03125 36.019531 39.265625 36.019531 C 39.640625 36.019531 40.4375 35.628906 41.648438 34.847656 C 42.84375 34.066406 43.585938 33.5 43.875 33.148438 C 44.015625 32.976562 44.089844 32.789062 44.089844 32.582031 Z M 43.054688 31.136719 C 44.171875 31.136719 44.734375 31.617188 44.734375 32.582031 C 44.734375 33.050781 44.597656 33.597656 44.324219 34.222656 C 44.050781 34.832031 43.683594 35.300781 43.230469 35.628906 C 42.226562 36.304688 40.96875 36.644531 39.460938 36.644531 C 38.339844 36.644531 37.78125 36.160156 37.78125 35.199219 C 37.78125 34.769531 37.917969 34.226562 38.191406 33.578125 C 38.449219 32.953125 38.816406 32.476562 39.285156 32.152344 C 40.285156 31.472656 41.542969 31.136719 43.054688 31.136719 Z M 43.054688 31.136719 "
       style=" stroke:none;fill-rule:nonzero;fill:rgb(0%,0%,0%);fill-opacity:1;" />
    <path
       id="path30"
       d="M 44.089844 37.582031 C 44.089844 37.359375 44.003906 37.171875 43.835938 37.015625 C 43.664062 36.84375 43.46875 36.761719 43.25 36.761719 C 42.859375 36.761719 42.070312 37.152344 40.886719 37.933594 C 39.660156 38.726562 38.914062 39.292969 38.640625 39.632812 C 38.496094 39.8125 38.425781 40.003906 38.425781 40.199219 C 38.425781 40.417969 38.507812 40.609375 38.679688 40.765625 C 38.835938 40.933594 39.03125 41.019531 39.265625 41.019531 C 39.640625 41.019531 40.4375 40.628906 41.648438 39.847656 C 42.84375 39.066406 43.585938 38.5 43.875 38.148438 C 44.015625 37.976562 44.089844 37.789062 44.089844 37.582031 Z M 43.054688 36.136719 C 44.171875 36.136719 44.734375 36.617188 44.734375 37.582031 C 44.734375 38.050781 44.597656 38.597656 44.324219 39.222656 C 44.050781 39.832031 43.683594 40.300781 43.230469 40.628906 C 42.226562 41.304688 40.96875 41.644531 39.460938 41.644531 C 38.339844 41.644531 37.78125 41.160156 37.78125 40.199219 C 37.78125 39.769531 37.917969 39.226562 38.191406 38.578125 C 38.449219 37.953125 38.816406 37.476562 39.285156 37.152344 C 40.285156 36.472656 41.542969 36.136719 43.054688 36.136719 Z M 43.054688 36.136719 "
       style=" stroke:none;fill-rule:nonzero;fill:rgb(0%,0%,0%);fill-opacity:1;" />
    <path
       id="path32"
       d="M 57.316406 30.082031 C 57.316406 29.859375 57.230469 29.671875 57.0625 29.515625 C 56.890625 29.34375 56.695312 29.261719 56.476562 29.261719 C 56.085938 29.261719 55.296875 29.652344 54.113281 30.433594 C 52.886719 31.226562 52.140625 31.792969 51.867188 32.132812 C 51.722656 32.3125 51.652344 32.503906 51.652344 32.699219 C 51.652344 32.917969 51.734375 33.109375 51.90625 33.265625 C 52.0625 33.433594 52.257812 33.519531 52.492188 33.519531 C 52.867188 33.519531 53.664062 33.128906 54.875 32.347656 C 56.070312 31.566406 56.8125 31 57.101562 30.648438 C 57.242188 30.476562 57.316406 30.289062 57.316406 30.082031 Z M 56.28125 28.636719 C 57.398438 28.636719 57.960938 29.117188 57.960938 30.082031 C 57.960938 30.550781 57.824219 31.097656 57.550781 31.722656 C 57.277344 32.332031 56.910156 32.800781 56.457031 33.128906 C 55.453125 33.804688 54.195312 34.144531 52.6875 34.144531 C 51.566406 34.144531 51.007812 33.660156 51.007812 32.699219 C 51.007812 32.269531 51.144531 31.726562 51.417969 31.078125 C 51.675781 30.453125 52.042969 29.976562 52.511719 29.652344 C 53.511719 28.972656 54.769531 28.636719 56.28125 28.636719 Z M 56.28125 28.636719 "
       style=" stroke:none;fill-rule:nonzero;fill:rgb(0%,0%,0%);fill-opacity:1;" />
    <path
       id="path34"
       d="M 57.316406 35.082031 C 57.316406 34.859375 57.230469 34.671875 57.0625 34.515625 C 56.890625 34.34375 56.695312 34.261719 56.476562 34.261719 C 56.085938 34.261719 55.296875 34.652344 54.113281 35.433594 C 52.886719 36.226562 52.140625 36.792969 51.867188 37.132812 C 51.722656 37.3125 51.652344 37.503906 51.652344 37.699219 C 51.652344 37.917969 51.734375 38.109375 51.90625 38.265625 C 52.0625 38.433594 52.257812 38.519531 52.492188 38.519531 C 52.867188 38.519531 53.664062 38.128906 54.875 37.347656 C 56.070312 36.566406 56.8125 36 57.101562 35.648438 C 57.242188 35.476562 57.316406 35.289062 57.316406 35.082031 Z M 56.28125 33.636719 C 57.398438 33.636719 57.960938 34.117188 57.960938 35.082031 C 57.960938 35.550781 57.824219 36.097656 57.550781 36.722656 C 57.277344 37.332031 56.910156 37.800781 56.457031 38.128906 C 55.453125 38.804688 54.195312 39.144531 52.6875 39.144531 C 51.566406 39.144531 51.007812 38.660156 51.007812 37.699219 C 51.007812 37.269531 51.144531 36.726562 51.417969 36.078125 C 51.675781 35.453125 52.042969 34.976562 52.511719 34.652344 C 53.511719 33.972656 54.769531 33.636719 56.28125 33.636719 Z M 56.28125 33.636719 "
       style=" stroke:none;fill-rule:nonzero;fill:rgb(0%,0%,0%);fill-opacity:1;" />
    <path
       id="path36"
       d="M 57.316406 42.582031 C 57.316406 42.359375 57.230469 42.171875 57.0625 42.015625 C 56.890625 41.84375 56.695312 41.761719 56.476562 41.761719 C 56.085938 41.761719 55.296875 42.152344 54.113281 42.933594 C 52.886719 43.726562 52.140625 44.292969 51.867188 44.632812 C 51.722656 44.8125 51.652344 45.003906 51.652344 45.199219 C 51.652344 45.417969 51.734375 45.609375 51.90625 45.765625 C 52.0625 45.933594 52.257812 46.019531 52.492188 46.019531 C 52.867188 46.019531 53.664062 45.628906 54.875 44.847656 C 56.070312 44.066406 56.8125 43.5 57.101562 43.148438 C 57.242188 42.976562 57.316406 42.789062 57.316406 42.582031 Z M 56.28125 41.136719 C 57.398438 41.136719 57.960938 41.617188 57.960938 42.582031 C 57.960938 43.050781 57.824219 43.597656 57.550781 44.222656 C 57.277344 44.832031 56.910156 45.300781 56.457031 45.628906 C 55.453125 46.304688 54.195312 46.644531 52.6875 46.644531 C 51.566406 46.644531 51.007812 46.160156 51.007812 45.199219 C 51.007812 44.769531 51.144531 44.226562 51.417969 43.578125 C 51.675781 42.953125 52.042969 42.476562 52.511719 42.152344 C 53.511719 41.472656 54.769531 41.136719 56.28125 41.136719 Z M 56.28125 41.136719 "
       style=" stroke:none;fill-rule:nonzero;fill:rgb(0%,0%,0%);fill-opacity:1;" />
    <path
       id="path38"
       d="M 44.089844 77.582031 C 44.089844 77.363281 44.003906 77.171875 43.835938 77.015625 C 43.664062 76.847656 43.46875 76.761719 43.25 76.761719 C 42.859375 76.761719 42.070312 77.152344 40.886719 77.933594 C 39.660156 78.730469 38.914062 79.296875 38.640625 79.632812 C 38.496094 79.816406 38.425781 80.003906 38.425781 80.199219 C 38.425781 80.421875 38.507812 80.609375 38.679688 80.765625 C 38.835938 80.9375 39.03125 81.019531 39.265625 81.019531 C 39.640625 81.019531 40.4375 80.628906 41.648438 79.847656 C 42.84375 79.066406 43.585938 78.5 43.875 78.148438 C 44.015625 77.980469 44.089844 77.792969 44.089844 77.582031 Z M 43.054688 76.136719 C 44.171875 76.136719 44.734375 76.621094 44.734375 77.582031 C 44.734375 78.050781 44.597656 78.597656 44.324219 79.222656 C 44.050781 79.835938 43.683594 80.304688 43.230469 80.628906 C 42.226562 81.308594 40.96875 81.644531 39.460938 81.644531 C 38.339844 81.644531 37.78125 81.164062 37.78125 80.199219 C 37.78125 79.769531 37.917969 79.230469 38.191406 78.578125 C 38.449219 77.953125 38.816406 77.480469 39.285156 77.152344 C 40.285156 76.476562 41.542969 76.136719 43.054688 76.136719 Z M 43.054688 76.136719 "
       style=" stroke:none;fill-rule:nonzero;fill:rgb(0%,0%,0%);fill-opacity:1;" />
    <path
       id="path40"
       d="M 57.316406 75.082031 C 57.316406 74.863281 57.230469 74.671875 57.0625 74.515625 C 56.890625 74.347656 56.695312 74.261719 56.476562 74.261719 C 56.085938 74.261719 55.296875 74.652344 54.113281 75.433594 C 52.886719 76.230469 52.140625 76.796875 51.867188 77.132812 C 51.722656 77.316406 51.652344 77.503906 51.652344 77.699219 C 51.652344 77.921875 51.734375 78.109375 51.90625 78.265625 C 52.0625 78.4375 52.257812 78.519531 52.492188 78.519531 C 52.867188 78.519531 53.664062 78.128906 54.875 77.347656 C 56.070312 76.566406 56.8125 76 57.101562 75.648438 C 57.242188 75.480469 57.316406 75.292969 57.316406 75.082031 Z M 56.28125 73.636719 C 57.398438 73.636719 57.960938 74.121094 57.960938 75.082031 C 57.960938 75.550781 57.824219 76.097656 57.550781 76.722656 C 57.277344 77.335938 56.910156 77.804688 56.457031 78.128906 C 55.453125 78.808594 54.195312 79.144531 52.6875 79.144531 C 51.566406 79.144531 51.007812 78.664062 51.007812 77.699219 C 51.007812 77.269531 51.144531 76.730469 51.417969 76.078125 C 51.675781 75.453125 52.042969 74.980469 52.511719 74.652344 C 53.511719 73.976562 54.769531 73.636719 56.28125 73.636719 Z M 56.28125 73.636719 "
       style=" stroke:none;fill-rule:nonzero;fill:rgb(0%,0%,0%);fill-opacity:1;" />
    <path
       id="path42"
       d="M 23.496094 31.273438 C 23.496094 31.273438 23.535156 31.273438 23.613281 31.273438 C 23.664062 31.257812 23.710938 31.253906 23.75 31.253906 C 25.207031 31.253906 26.40625 31.765625 27.34375 32.796875 C 28.28125 33.8125 28.75 34.996094 28.75 36.351562 C 28.75 38.03125 28.054688 39.398438 26.660156 40.453125 C 26.296875 40.738281 25.820312 40.972656 25.234375 41.15625 C 25.300781 42 25.332031 42.683594 25.332031 43.207031 C 25.332031 43.308594 25.320312 43.6875 25.292969 44.339844 C 25.242188 45.550781 24.824219 46.597656 24.042969 47.484375 C 23.289062 48.355469 22.351562 48.792969 21.230469 48.792969 C 20.175781 48.792969 19.277344 48.421875 18.535156 47.679688 C 17.792969 46.921875 17.421875 46.011719 17.421875 44.945312 C 17.421875 44.382812 17.636719 43.910156 18.066406 43.519531 C 18.507812 43.128906 19.023438 42.933594 19.609375 42.933594 C 20.128906 42.933594 20.566406 43.132812 20.917969 43.539062 C 21.28125 43.914062 21.464844 44.382812 21.464844 44.945312 C 21.464844 45.453125 21.28125 45.886719 20.917969 46.253906 C 20.554688 46.617188 20.117188 46.800781 19.609375 46.800781 C 19.402344 46.800781 19.199219 46.761719 19.003906 46.683594 C 19.578125 47.527344 20.339844 47.953125 21.289062 47.953125 C 22.1875 47.953125 22.921875 47.585938 23.496094 46.859375 C 24.09375 46.101562 24.421875 45.222656 24.472656 44.222656 C 24.5 43.597656 24.511719 43.238281 24.511719 43.148438 C 24.511719 42.417969 24.484375 41.820312 24.433594 41.351562 C 23.78125 41.453125 23.203125 41.507812 22.695312 41.507812 C 20.886719 41.507812 19.34375 40.789062 18.066406 39.359375 C 16.816406 37.914062 16.191406 36.195312 16.191406 34.203125 C 16.191406 33.785156 16.230469 33.363281 16.308594 32.933594 C 16.386719 32.582031 16.484375 32.195312 16.601562 31.78125 C 16.667969 31.546875 16.84375 31.167969 17.128906 30.648438 C 17.234375 30.492188 17.351562 30.296875 17.480469 30.0625 C 17.609375 29.828125 17.703125 29.671875 17.753906 29.59375 C 17.882812 29.332031 18.136719 28.980469 18.515625 28.539062 C 18.621094 28.421875 18.726562 28.289062 18.835938 28.148438 C 18.949219 28.003906 19.042969 27.886719 19.121094 27.792969 C 19.199219 27.703125 19.257812 27.632812 19.296875 27.578125 C 19.335938 27.527344 19.628906 27.183594 20.175781 26.542969 C 20.304688 26.414062 20.433594 26.273438 20.554688 26.125 C 20.679688 25.976562 20.78125 25.859375 20.859375 25.773438 C 20.9375 25.6875 20.996094 25.625 21.035156 25.585938 C 20.566406 24.039062 20.273438 22.800781 20.15625 21.875 C 20.066406 21.132812 20.019531 20.117188 20.019531 18.828125 C 20.019531 17.695312 20.28125 16.636719 20.800781 15.644531 C 21.308594 14.617188 22.019531 13.777344 22.929688 13.125 C 22.996094 13.085938 23.058594 13.066406 23.125 13.066406 C 23.214844 13.066406 23.28125 13.085938 23.320312 13.125 C 24.023438 13.972656 24.628906 15.074219 25.136719 16.425781 C 25.65625 17.78125 25.917969 19.011719 25.917969 20.117188 C 25.917969 21.367188 25.617188 22.539062 25.019531 23.632812 C 24.34375 24.792969 23.46875 25.992188 22.402344 27.226562 C 22.675781 28.089844 23.039062 29.4375 23.496094 31.273438 Z M 25.15625 40.355469 C 25.832031 40.105469 26.359375 39.683594 26.738281 39.085938 C 27.15625 38.511719 27.363281 37.867188 27.363281 37.152344 C 27.363281 36.226562 27.050781 35.40625 26.425781 34.691406 C 25.789062 33.949219 24.972656 33.53125 23.984375 33.441406 C 24.542969 36.1875 24.933594 38.492188 25.15625 40.355469 Z M 17.597656 35.84375 C 17.597656 37.132812 18.117188 38.265625 19.160156 39.242188 C 20.226562 40.191406 21.425781 40.667969 22.753906 40.667969 C 23.300781 40.667969 23.835938 40.628906 24.355469 40.550781 C 24.148438 38.570312 23.738281 36.199219 23.125 33.441406 C 22.382812 33.519531 21.789062 33.777344 21.347656 34.222656 C 20.917969 34.675781 20.703125 35.191406 20.703125 35.765625 C 20.703125 36.753906 21.230469 37.554688 22.285156 38.167969 C 22.375 38.257812 22.421875 38.355469 22.421875 38.460938 C 22.421875 38.5625 22.375 38.660156 22.285156 38.753906 C 22.207031 38.84375 22.109375 38.890625 21.992188 38.890625 C 21.980469 38.890625 21.921875 38.875 21.816406 38.851562 C 21.074219 38.445312 20.5 37.925781 20.097656 37.289062 C 19.71875 36.609375 19.53125 35.925781 19.53125 35.238281 C 19.53125 34.339844 19.8125 33.523438 20.371094 32.796875 C 20.957031 32.066406 21.71875 31.597656 22.65625 31.390625 C 22.292969 29.929688 21.992188 28.792969 21.757812 27.96875 C 21.550781 28.207031 21.300781 28.488281 21.007812 28.820312 C 20.714844 29.152344 20.539062 29.351562 20.488281 29.417969 C 20.019531 30.027344 19.660156 30.503906 19.414062 30.84375 C 18.972656 31.453125 18.644531 31.980469 18.4375 32.425781 C 18.214844 32.917969 18.019531 33.460938 17.851562 34.046875 C 17.683594 34.605469 17.597656 35.203125 17.597656 35.84375 Z M 24.121094 15.976562 C 23.144531 16.460938 22.375 17.148438 21.816406 18.046875 C 21.242188 18.972656 20.957031 19.96875 20.957031 21.035156 C 20.957031 21.972656 21.191406 23.238281 21.660156 24.824219 C 22.597656 23.691406 23.300781 22.644531 23.769531 21.679688 C 24.265625 20.664062 24.511719 19.605469 24.511719 18.496094 C 24.511719 17.664062 24.382812 16.824219 24.121094 15.976562 Z M 24.121094 15.976562 "
       style=" stroke:none;fill-rule:nonzero;fill:rgb(0%,0%,0%);fill-opacity:1;" />
    <path
       id="path44"
       d="M 27.578125 77.113281 C 27.382812 76.917969 27.285156 76.679688 27.285156 76.390625 C 27.285156 76.105469 27.382812 75.863281 27.578125 75.667969 C 27.773438 75.472656 28.015625 75.375 28.300781 75.375 C 28.585938 75.375 28.828125 75.472656 29.023438 75.667969 C 29.21875 75.863281 29.316406 76.105469 29.316406 76.390625 C 29.316406 76.679688 29.21875 76.917969 29.023438 77.113281 C 28.828125 77.308594 28.585938 77.40625 28.300781 77.40625 C 28.015625 77.40625 27.773438 77.308594 27.578125 77.113281 Z M 27.578125 82.113281 C 27.382812 81.917969 27.285156 81.679688 27.285156 81.390625 C 27.285156 81.105469 27.382812 80.863281 27.578125 80.667969 C 27.773438 80.472656 28.015625 80.375 28.300781 80.375 C 28.585938 80.375 28.828125 80.472656 29.023438 80.667969 C 29.21875 80.863281 29.316406 81.105469 29.316406 81.390625 C 29.316406 81.679688 29.21875 81.917969 29.023438 82.113281 C 28.828125 82.308594 28.585938 82.40625 28.300781 82.40625 C 28.015625 82.40625 27.773438 82.308594 27.578125 82.113281 Z M 20.800781 73.636719 C 22.53125 73.636719 23.953125 74.074219 25.058594 74.945312 C 26.125 75.859375 26.660156 77.09375 26.660156 78.65625 C 26.660156 79.710938 26.453125 80.675781 26.035156 81.546875 C 25.644531 82.460938 25.128906 83.265625 24.492188 83.96875 C 23.839844 84.6875 23.054688 85.363281 22.128906 86 C 21.230469 86.625 20.304688 87.1875 19.355469 87.679688 C 17.429688 88.65625 16.359375 89.144531 16.152344 89.144531 C 15.984375 89.144531 15.898438 89.0625 15.898438 88.890625 C 15.898438 88.828125 15.925781 88.769531 15.976562 88.714844 C 16.640625 88.324219 17.453125 87.824219 18.417969 87.210938 C 19.042969 86.808594 19.773438 86.25 20.605469 85.53125 C 21.414062 84.855469 22.039062 84.21875 22.480469 83.617188 C 22.9375 83.03125 23.351562 82.304688 23.730469 81.429688 C 24.054688 80.558594 24.21875 79.699219 24.21875 78.851562 C 24.21875 77.589844 23.90625 76.488281 23.28125 75.550781 C 22.65625 74.613281 21.828125 74.144531 20.800781 74.144531 C 20.070312 74.144531 19.445312 74.378906 18.925781 74.847656 C 18.367188 75.332031 17.960938 75.9375 17.714844 76.664062 C 17.960938 76.5625 18.191406 76.507812 18.398438 76.507812 C 18.945312 76.507812 19.414062 76.703125 19.804688 77.09375 C 20.195312 77.511719 20.390625 77.988281 20.390625 78.519531 C 20.390625 79.082031 20.203125 79.582031 19.824219 80.023438 C 19.421875 80.429688 18.945312 80.628906 18.398438 80.628906 C 17.8125 80.628906 17.285156 80.429688 16.816406 80.023438 C 16.375 79.582031 16.152344 79.082031 16.152344 78.519531 C 16.152344 77.179688 16.609375 76.035156 17.519531 75.082031 C 18.417969 74.121094 19.511719 73.636719 20.800781 73.636719 Z M 20.800781 73.636719 "
       style=" stroke:none;fill-rule:nonzero;fill:rgb(0%,0%,0%);fill-opacity:1;" />
    <path
       id="path46"
       d="M 39.082031 9.28125 L 39.082031 4.839844 C 39.082031 4.476562 39.027344 4.238281 38.914062 4.136719 C 38.804688 4.03125 38.539062 3.96875 38.109375 3.941406 L 38.109375 3.75 L 41.082031 3.75 L 41.082031 3.941406 C 40.660156 3.960938 40.390625 4.023438 40.277344 4.132812 C 40.160156 4.238281 40.101562 4.476562 40.101562 4.839844 L 40.101562 9.28125 C 40.101562 9.648438 40.160156 9.886719 40.28125 9.996094 C 40.402344 10.105469 40.667969 10.167969 41.082031 10.179688 L 41.082031 10.371094 L 38.109375 10.371094 L 38.109375 10.179688 C 38.53125 10.167969 38.796875 10.109375 38.910156 10 C 39.023438 9.894531 39.082031 9.65625 39.082031 9.28125 Z M 48.136719 3.75 L 48.136719 3.941406 C 47.890625 3.953125 47.714844 4.015625 47.609375 4.121094 C 47.507812 4.226562 47.375 4.476562 47.214844 4.871094 L 44.996094 10.480469 L 44.847656 10.480469 L 42.386719 4.992188 C 42.191406 4.550781 42.03125 4.269531 41.902344 4.144531 C 41.769531 4.023438 41.578125 3.953125 41.324219 3.941406 L 41.324219 3.75 L 43.984375 3.75 L 43.984375 3.941406 C 43.800781 3.953125 43.703125 3.960938 43.695312 3.960938 C 43.390625 3.980469 43.234375 4.085938 43.234375 4.269531 C 43.234375 4.40625 43.371094 4.773438 43.644531 5.382812 L 45.15625 8.761719 L 46.625 5.089844 C 46.753906 4.769531 46.816406 4.527344 46.816406 4.363281 C 46.816406 4.222656 46.761719 4.121094 46.65625 4.054688 C 46.550781 3.992188 46.359375 3.953125 46.085938 3.941406 L 46.085938 3.75 Z M 48.136719 3.75 "
       style=" stroke:none;fill-rule:nonzero;fill:rgb(0%,0%,0%);fill-opacity:1;" />
    <path
       id="path48"
       d="M 60.597656 3.75 L 60.597656 3.941406 C 60.351562 3.953125 60.175781 4.015625 60.070312 4.121094 C 59.96875 4.226562 59.835938 4.476562 59.675781 4.871094 L 57.457031 10.480469 L 57.308594 10.480469 L 54.847656 4.992188 C 54.652344 4.550781 54.492188 4.269531 54.363281 4.144531 C 54.230469 4.023438 54.039062 3.953125 53.785156 3.941406 L 53.785156 3.75 L 56.445312 3.75 L 56.445312 3.941406 C 56.261719 3.953125 56.164062 3.960938 56.15625 3.960938 C 55.851562 3.980469 55.695312 4.085938 55.695312 4.269531 C 55.695312 4.40625 55.832031 4.773438 56.105469 5.382812 L 57.617188 8.761719 L 59.085938 5.089844 C 59.214844 4.769531 59.277344 4.527344 59.277344 4.363281 C 59.277344 4.222656 59.222656 4.121094 59.117188 4.054688 C 59.011719 3.992188 58.820312 3.953125 58.546875 3.941406 L 58.546875 3.75 Z M 60.597656 3.75 "
       style=" stroke:none;fill-rule:nonzero;fill:rgb(0%,0%,0%);fill-opacity:1;" />
    <path
       id="path50"
       d="M 10.058594 47.183594 C 10.058594 41.34375 6.039062 35.664062 6.039062 30.070312 C 6.039062 27.25 7.132812 24.511719 10.515625 22.0625 C 10.5625 22.03125 10.585938 21.980469 10.585938 21.949219 C 10.585938 21.859375 10.335938 21.777344 10.152344 21.777344 C 10.058594 21.777344 9.898438 21.785156 9.785156 21.859375 C 5.398438 25.003906 3.933594 28.640625 3.933594 32.316406 C 3.933594 38.238281 8.230469 43.957031 8.230469 49.632812 C 8.230469 52.453125 7.132812 55.109375 3.75 57.558594 L 3.75 57.722656 C 7.132812 60.171875 8.230469 62.828125 8.230469 65.648438 C 8.230469 71.324219 3.933594 77.042969 3.933594 82.964844 C 3.933594 86.640625 5.398438 90.277344 9.785156 93.421875 C 9.898438 93.496094 10.058594 93.503906 10.152344 93.503906 C 10.335938 93.503906 10.585938 93.421875 10.585938 93.332031 C 10.585938 93.300781 10.5625 93.25 10.515625 93.21875 C 7.132812 90.769531 6.039062 88.03125 6.039062 85.210938 C 6.039062 79.617188 10.058594 73.9375 10.058594 68.097656 C 10.058594 64.378906 8.597656 60.828125 4.300781 57.640625 C 8.597656 54.453125 10.058594 50.902344 10.058594 47.183594 Z M 10.058594 47.183594 "
       style=" stroke:none;fill-rule:evenodd;fill:rgb(0%,0%,0%);fill-opacity:1;" />
  </g>
</svg>
