<?xml version="1.0" encoding="UTF-8" standalone="no"?>
<svg
   xmlns:dc="http://purl.org/dc/elements/1.1/"
   xmlns:cc="http://creativecommons.org/ns#"
   xmlns:rdf="http://www.w3.org/1999/02/22-rdf-syntax-ns#"
   xmlns:svg="http://www.w3.org/2000/svg"
   xmlns="http://www.w3.org/2000/svg"
   xmlns:sodipodi="http://sodipodi.sourceforge.net/DTD/sodipodi-0.dtd"
   xmlns:inkscape="http://www.inkscape.org/namespaces/inkscape"
   inkscape:version="1.0 (4035a4f, 2020-05-01)"
   sodipodi:docname="cadences_1.svg"
   id="svg211"
   version="1.2"
   viewBox="0 0 120 100"
   height="100pt"
   width="120pt">
  <metadata
     id="metadata217">
    <rdf:RDF>
      <cc:Work
         rdf:about="">
        <dc:format>image/svg+xml</dc:format>
        <dc:type
           rdf:resource="http://purl.org/dc/dcmitype/StillImage" />
        <dc:title></dc:title>
      </cc:Work>
    </rdf:RDF>
  </metadata>
  <defs
     id="defs215" />
  <sodipodi:namedview
     inkscape:current-layer="surface3113"
     inkscape:window-maximized="1"
     inkscape:window-y="23"
     inkscape:window-x="0"
     inkscape:cy="276.04766"
     inkscape:cx="288.29329"
     inkscape:zoom="1.0326333"
     showgrid="false"
     id="namedview213"
     inkscape:window-height="855"
     inkscape:window-width="1440"
     inkscape:pageshadow="2"
     inkscape:pageopacity="0"
     guidetolerance="10"
     gridtolerance="10"
     objecttolerance="10"
     borderopacity="1"
     bordercolor="#666666"
     pagecolor="#ffffff" />
  <g
     id="surface3113">
    <path
       id="path10"
       d="m 12.152344,21.386719 h 92.105466 m -92.105466,5 h 92.105466 m -92.105466,5 h 92.105466 m -92.105466,5 h 92.105466 m -92.105466,5.003906 h 92.105466"
       style="fill:none;stroke:#000000;stroke-width:0.378178;stroke-linecap:butt;stroke-linejoin:bevel;stroke-miterlimit:10;stroke-opacity:1" />
    <path
       id="path12"
       d="m 12.152344,73.890623 h 92.105466 m -92.105466,5 h 92.105466 m -92.105466,5 h 92.105466 m -92.105466,5 h 92.105466 m -92.105466,5 h 92.105466"
       style="fill:none;stroke:#000000;stroke-width:0.378178;stroke-linecap:butt;stroke-linejoin:bevel;stroke-miterlimit:10;stroke-opacity:1" />
    <path
       id="path26"
       d="M 12.550782,21.386719 V 93.890623"
       style="fill:none;stroke:#000000;stroke-width:0.80005;stroke-linecap:butt;stroke-linejoin:bevel;stroke-miterlimit:10;stroke-opacity:1" />
    <path
       id="path28"
       d="M 104.25781,21.386719 V 93.890623"
       style="fill:none;stroke:#000000;stroke-width:0.80005;stroke-linecap:butt;stroke-linejoin:bevel;stroke-miterlimit:10;stroke-opacity:1" />
    <path
       id="path44"
       d="M 83.871094,40.621094 V 13.886719"
       style="fill:none;stroke:#000000;stroke-width:0.650041;stroke-linecap:round;stroke-linejoin:bevel;stroke-miterlimit:10;stroke-opacity:1" />
    <path
       id="path46"
       d="M 57.449219,43.121094 V 15.761719"
       style="fill:none;stroke:#000000;stroke-width:0.650041;stroke-linecap:round;stroke-linejoin:bevel;stroke-miterlimit:10;stroke-opacity:1" />
    <path
       id="path48"
       d="M 83.871094,85.625003 V 70.140623"
       style="fill:none;stroke:#000000;stroke-width:0.650041;stroke-linecap:round;stroke-linejoin:bevel;stroke-miterlimit:10;stroke-opacity:1" />
    <path
       id="path50"
       d="m 51.15625,77.175783 v 16.71484"
       style="fill:none;stroke:#000000;stroke-width:0.650041;stroke-linecap:round;stroke-linejoin:bevel;stroke-miterlimit:10;stroke-opacity:1" />
    <path
       id="path76"
       d="m 83.5625,27.578125 c 0,-0.21875 -0.08594,-0.410156 -0.253906,-0.566406 -0.167968,-0.167968 -0.363281,-0.253906 -0.585937,-0.253906 -0.390625,0 -1.179688,0.390625 -2.363281,1.171875 -1.222657,0.796875 -1.972657,1.363281 -2.246094,1.699219 -0.144532,0.183594 -0.214844,0.371094 -0.214844,0.566406 0,0.222656 0.08594,0.410156 0.253906,0.566406 0.15625,0.171875 0.351563,0.253906 0.585938,0.253906 0.378906,0 1.171875,-0.390624 2.382812,-1.171874 1.199219,-0.78125 1.941406,-1.347657 2.226563,-1.699219 0.144531,-0.167969 0.214843,-0.355469 0.214843,-0.566407 z m -1.035156,-1.445312 c 1.121094,0 1.679688,0.484375 1.679688,1.445312 0,0.46875 -0.136719,1.015626 -0.410156,1.640626 -0.273438,0.613281 -0.636719,1.082031 -1.09375,1.40625 -1.003907,0.679687 -2.257813,1.015624 -3.769532,1.015624 -1.121094,0 -1.679687,-0.480468 -1.679687,-1.445312 0,-0.429688 0.136719,-0.96875 0.410156,-1.621094 0.261719,-0.625 0.625,-1.097656 1.09375,-1.425781 1.003906,-0.675781 2.257813,-1.015625 3.769531,-1.015625 z m 0,0"
       style="fill:#000000;fill-opacity:1;fill-rule:nonzero;stroke:none" />
    <path
       id="path78"
       d="m 83.5625,35.078125 c 0,-0.21875 -0.08594,-0.410156 -0.253906,-0.566406 -0.167968,-0.167968 -0.363281,-0.253906 -0.585937,-0.253906 -0.390625,0 -1.179688,0.390625 -2.363281,1.171875 -1.222657,0.796875 -1.972657,1.363281 -2.246094,1.703125 -0.144532,0.179688 -0.214844,0.371094 -0.214844,0.566406 0,0.21875 0.08594,0.410156 0.253906,0.566406 0.15625,0.167969 0.351563,0.253907 0.585938,0.253907 0.378906,0 1.171875,-0.390625 2.382812,-1.171875 1.199219,-0.78125 1.941406,-1.351563 2.226563,-1.703125 0.144531,-0.167969 0.214843,-0.355469 0.214843,-0.566407 z m -1.035156,-1.445312 c 1.121094,0 1.679688,0.484375 1.679688,1.445312 0,0.46875 -0.136719,1.015626 -0.410156,1.644532 -0.273438,0.609375 -0.636719,1.078125 -1.09375,1.40625 -1.003907,0.675781 -2.257813,1.015625 -3.769532,1.015625 -1.121094,0 -1.679687,-0.484375 -1.679687,-1.445313 0,-0.429687 0.136719,-0.972656 0.410156,-1.625 0.261719,-0.625 0.625,-1.097656 1.09375,-1.425781 1.003906,-0.675781 2.257813,-1.015625 3.769531,-1.015625 z m 0,0"
       style="fill:#000000;fill-opacity:1;fill-rule:nonzero;stroke:none" />
    <path
       id="path80"
       d="m 83.5625,40.082032 c 0,-0.222657 -0.08594,-0.410157 -0.253906,-0.566407 -0.167968,-0.171874 -0.363281,-0.253906 -0.585937,-0.253906 -0.390625,0 -1.179688,0.390625 -2.363281,1.171875 -1.222657,0.792969 -1.972657,1.359375 -2.246094,1.699219 -0.144532,0.179688 -0.214844,0.371094 -0.214844,0.566406 0,0.21875 0.08594,0.410156 0.253906,0.566406 0.15625,0.167969 0.351563,0.253907 0.585938,0.253907 0.378906,0 1.171875,-0.390625 2.382812,-1.171875 1.199219,-0.78125 1.941406,-1.347656 2.226563,-1.699219 0.144531,-0.171875 0.214843,-0.359375 0.214843,-0.566406 z m -1.035156,-1.445313 c 1.121094,0 1.679688,0.480469 1.679688,1.445313 0,0.46875 -0.136719,1.015625 -0.410156,1.640625 -0.273438,0.609375 -0.636719,1.078125 -1.09375,1.40625 -1.003907,0.675781 -2.257813,1.015625 -3.769532,1.015625 -1.121094,0 -1.679687,-0.484375 -1.679687,-1.445313 0,-0.429687 0.136719,-0.972656 0.410156,-1.621094 0.261719,-0.625 0.625,-1.101562 1.09375,-1.425781 1.003906,-0.679687 2.257813,-1.015625 3.769531,-1.015625 z m 0,0"
       style="fill:#000000;fill-opacity:1;fill-rule:nonzero;stroke:none" />
    <path
       id="path82"
       d="m 57.140626,30.078125 c 0,-0.21875 -0.08594,-0.410156 -0.253907,-0.566406 -0.171875,-0.167968 -0.367187,-0.253906 -0.585937,-0.253906 -0.390625,0 -1.179688,0.390625 -2.363282,1.171875 -1.226562,0.796875 -1.972656,1.363281 -2.246093,1.699219 -0.144531,0.183594 -0.214844,0.371094 -0.214844,0.566406 0,0.222656 0.08203,0.410156 0.253906,0.566406 0.15625,0.171875 0.351563,0.253906 0.585938,0.253906 0.375,0 1.171875,-0.390624 2.382812,-1.171874 1.195313,-0.78125 1.9375,-1.347657 2.226563,-1.699219 0.140625,-0.167969 0.214844,-0.355469 0.214844,-0.566407 z m -1.035157,-1.445312 c 1.117188,0 1.679688,0.484375 1.679688,1.445312 0,0.46875 -0.136719,1.015626 -0.410157,1.640626 -0.273437,0.613281 -0.640624,1.082031 -1.09375,1.40625 -1.003906,0.679687 -2.261718,1.015624 -3.769531,1.015624 -1.121093,0 -1.679687,-0.480468 -1.679687,-1.445312 0,-0.429688 0.136718,-0.96875 0.410156,-1.621094 0.257812,-0.625 0.625,-1.097656 1.09375,-1.425781 1,-0.675781 2.257812,-1.015625 3.769531,-1.015625 z m 0,0"
       style="fill:#000000;fill-opacity:1;fill-rule:nonzero;stroke:none" />
    <path
       id="path84"
       d="m 57.140626,42.582032 c 0,-0.222657 -0.08594,-0.410157 -0.253907,-0.566407 -0.171875,-0.171874 -0.367187,-0.253906 -0.585937,-0.253906 -0.390625,0 -1.179688,0.390625 -2.363282,1.171875 -1.226562,0.792969 -1.972656,1.359375 -2.246093,1.699219 -0.144531,0.179688 -0.214844,0.371094 -0.214844,0.566406 0,0.21875 0.08203,0.410156 0.253906,0.566406 0.15625,0.167969 0.351563,0.253907 0.585938,0.253907 0.375,0 1.171875,-0.390625 2.382812,-1.171875 1.195313,-0.78125 1.9375,-1.347656 2.226563,-1.699219 0.140625,-0.171875 0.214844,-0.359375 0.214844,-0.566406 z m -1.035157,-1.445313 c 1.117188,0 1.679688,0.480469 1.679688,1.445313 0,0.46875 -0.136719,1.015625 -0.410157,1.640625 -0.273437,0.609375 -0.640624,1.078125 -1.09375,1.40625 -1.003906,0.675781 -2.261718,1.015625 -3.769531,1.015625 -1.121093,0 -1.679687,-0.484375 -1.679687,-1.445313 0,-0.429687 0.136718,-0.972656 0.410156,-1.621094 0.257812,-0.625 0.625,-1.101562 1.09375,-1.425781 1,-0.679687 2.257812,-1.015625 3.769531,-1.015625 z m 0,0"
       style="fill:#000000;fill-opacity:1;fill-rule:nonzero;stroke:none" />
    <path
       id="path86"
       d="m 83.5625,85.082033 c 0,-0.21875 -0.08594,-0.41016 -0.253906,-0.56641 -0.167968,-0.16797 -0.363281,-0.2539 -0.585937,-0.2539 -0.390625,0 -1.179688,0.39062 -2.363281,1.17187 -1.222657,0.79688 -1.972657,1.36328 -2.246094,1.69922 -0.144532,0.18359 -0.214844,0.37109 -0.214844,0.56641 0,0.22265 0.08594,0.41015 0.253906,0.5664 0.15625,0.17188 0.351563,0.25391 0.585938,0.25391 0.378906,0 1.171875,-0.39063 2.382812,-1.17188 1.199219,-0.78125 1.941406,-1.34765 2.226563,-1.69922 0.144531,-0.16796 0.214843,-0.35546 0.214843,-0.5664 z m -1.035156,-1.44531 c 1.121094,0 1.679688,0.48437 1.679688,1.44531 0,0.46875 -0.136719,1.01562 -0.410156,1.64062 -0.273438,0.61328 -0.636719,1.08203 -1.09375,1.40625 -1.003907,0.67969 -2.257813,1.01563 -3.769532,1.01563 -1.121094,0 -1.679687,-0.48047 -1.679687,-1.44531 0,-0.42969 0.136719,-0.96875 0.410156,-1.6211 0.261719,-0.625 0.625,-1.09765 1.09375,-1.42578 1.003906,-0.67578 2.257813,-1.01562 3.769531,-1.01562 z m 0,0"
       style="fill:#000000;fill-opacity:1;fill-rule:nonzero;stroke:none" />
    <path
       id="path88"
       d="m 57.140626,75.082033 c 0,-0.22266 -0.08594,-0.41016 -0.253907,-0.56641 -0.171875,-0.16797 -0.367187,-0.2539 -0.585937,-0.2539 -0.390625,0 -1.179688,0.39062 -2.363282,1.17187 -1.226562,0.79297 -1.972656,1.35938 -2.246093,1.69922 -0.144531,0.18359 -0.214844,0.37109 -0.214844,0.56641 0,0.22265 0.08203,0.41015 0.253906,0.5664 0.15625,0.17188 0.351563,0.25391 0.585938,0.25391 0.375,0 1.171875,-0.39063 2.382812,-1.17188 1.195313,-0.78125 1.9375,-1.34765 2.226563,-1.69922 0.140625,-0.16796 0.214844,-0.35937 0.214844,-0.5664 z m -1.035157,-1.44531 c 1.117188,0 1.679688,0.48046 1.679688,1.44531 0,0.46875 -0.136719,1.01562 -0.410157,1.64062 -0.273437,0.61328 -0.640624,1.08203 -1.09375,1.40625 -1.003906,0.67969 -2.261718,1.01563 -3.769531,1.01563 -1.121093,0 -1.679687,-0.48047 -1.679687,-1.44531 0,-0.42969 0.136718,-0.96875 0.410156,-1.6211 0.257812,-0.625 0.625,-1.10156 1.09375,-1.42578 1,-0.67578 2.257812,-1.01562 3.769531,-1.01562 z m 0,0"
       style="fill:#000000;fill-opacity:1;fill-rule:nonzero;stroke:none" />
    <path
       id="path138"
       d="m 23.496094,31.269532 c 0,0 0.03906,0 0.117188,0 0.05078,-0.01172 0.09766,-0.01953 0.136718,-0.01953 1.457032,0 2.65625,0.515624 3.59375,1.542968 0.9375,1.015625 1.40625,2.203125 1.40625,3.554688 0,1.683594 -0.695312,3.050781 -2.089843,4.105468 -0.363281,0.285157 -0.839844,0.519532 -1.425781,0.703126 0.06641,0.84375 0.09766,1.527343 0.09766,2.050781 0,0.101562 -0.01172,0.480469 -0.03906,1.132812 -0.05078,1.210938 -0.46875,2.257813 -1.25,3.144531 -0.753906,0.871094 -1.691406,1.308594 -2.8125,1.308594 -1.054687,0 -1.953125,-0.371094 -2.695312,-1.113281 -0.742188,-0.757813 -1.113281,-1.667969 -1.113281,-2.734375 0,-0.5625 0.214843,-1.035156 0.644531,-1.425781 0.441406,-0.390625 0.957031,-0.585938 1.542969,-0.585938 0.519531,0 0.957031,0.199219 1.308593,0.605469 0.363281,0.375 0.546875,0.84375 0.546875,1.40625 0,0.507812 -0.183594,0.941406 -0.546875,1.308594 -0.363281,0.363281 -0.800781,0.546875 -1.308593,0.546875 -0.207032,0 -0.410157,-0.03906 -0.605469,-0.117188 0.574219,0.84375 1.335937,1.269531 2.285156,1.269531 0.898437,0 1.632813,-0.367187 2.207031,-1.09375 0.597656,-0.757812 0.925782,-1.636718 0.976563,-2.636718 0.02734,-0.625 0.03906,-0.984375 0.03906,-1.074219 0,-0.730469 -0.02734,-1.328125 -0.07813,-1.796875 -0.652344,0.101562 -1.230468,0.15625 -1.738281,0.15625 -1.808594,0 -3.351563,-0.71875 -4.628906,-2.148438 -1.25,-1.445312 -1.875,-3.167968 -1.875,-5.160156 0,-0.414062 0.03906,-0.839844 0.117187,-1.269531 0.07813,-0.351563 0.175782,-0.734375 0.292969,-1.152344 0.06641,-0.234375 0.242187,-0.609375 0.527344,-1.132812 0.105469,-0.15625 0.222656,-0.351563 0.351562,-0.585938 0.128907,-0.234375 0.222657,-0.390625 0.273438,-0.46875 0.128906,-0.257812 0.382812,-0.609375 0.761719,-1.054687 0.105468,-0.117188 0.210937,-0.246094 0.320312,-0.390625 0.113281,-0.140625 0.207031,-0.257813 0.285156,-0.351563 0.07813,-0.08984 0.136719,-0.160156 0.175782,-0.214844 0.03906,-0.05078 0.332031,-0.394531 0.878906,-1.035156 0.128906,-0.128906 0.257812,-0.269531 0.378906,-0.417968 0.125,-0.152344 0.226562,-0.269532 0.304688,-0.351563 0.07812,-0.08594 0.136718,-0.148437 0.175781,-0.1875 -0.46875,-1.546876 -0.761719,-2.785157 -0.878907,-3.710938 -0.08984,-0.742188 -0.136718,-1.757813 -0.136718,-3.046876 0,-1.132812 0.261718,-2.191406 0.78125,-3.183593 0.507812,-1.027344 1.21875,-1.867188 2.128906,-2.519531 0.06641,-0.03906 0.128906,-0.05859 0.195312,-0.05859 0.08984,0 0.15625,0.01953 0.195313,0.05859 0.703125,0.847656 1.308594,1.945312 1.816406,3.300781 0.519531,1.355469 0.78125,2.585937 0.78125,3.691406 0,1.25 -0.300781,2.421875 -0.898437,3.515625 -0.675782,1.160156 -1.550782,2.359375 -2.617188,3.59375 0.273438,0.859375 0.636719,2.207031 1.09375,4.042969 z m 1.660156,9.085937 c 0.675782,-0.25 1.203126,-0.671875 1.582032,-1.269531 0.417968,-0.574219 0.625,-1.21875 0.625,-1.933594 0,-0.925781 -0.3125,-1.746093 -0.9375,-2.464843 -0.636719,-0.742188 -1.453125,-1.15625 -2.441406,-1.25 0.558593,2.75 0.949218,5.054687 1.171874,6.917968 z m -7.558593,-4.515625 c 0,1.292969 0.519531,2.425781 1.5625,3.402344 1.066406,0.949219 2.265625,1.425781 3.59375,1.425781 0.546875,0 1.082031,-0.03906 1.601562,-0.117187 -0.207031,-1.980469 -0.617187,-4.351563 -1.230469,-7.113281 -0.742187,0.07812 -1.335937,0.339843 -1.777343,0.78125 -0.429688,0.457031 -0.644531,0.972656 -0.644531,1.542968 0,0.992188 0.527343,1.792969 1.582031,2.40625 0.08984,0.08984 0.136719,0.1875 0.136719,0.292969 0,0.101563 -0.04688,0.199219 -0.136719,0.292969 -0.07813,0.08984 -0.175781,0.136718 -0.292969,0.136718 -0.01172,0 -0.07031,-0.01562 -0.175781,-0.03906 C 21.074219,38.445313 20.5,37.925782 20.097657,37.289063 19.71875,36.609375 19.53125,35.925782 19.53125,35.234375 c 0,-0.898437 0.28125,-1.710937 0.839844,-2.441406 0.585938,-0.726562 1.347656,-1.195312 2.285156,-1.40625 -0.363281,-1.457031 -0.664062,-2.597656 -0.898437,-3.417968 -0.207031,0.234374 -0.457031,0.519531 -0.75,0.851562 -0.292969,0.332031 -0.46875,0.53125 -0.519531,0.59375 -0.46875,0.613281 -0.828125,1.089844 -1.074219,1.425781 -0.441406,0.613281 -0.769531,1.140625 -0.976563,1.582031 -0.222656,0.496094 -0.417968,1.035157 -0.585937,1.621094 -0.167969,0.5625 -0.253906,1.160156 -0.253906,1.796875 z m 6.523437,-19.863281 c -0.976562,0.484375 -1.746094,1.171875 -2.304687,2.070312 -0.574219,0.925782 -0.859375,1.921876 -0.859375,2.988282 0,0.9375 0.234375,2.203125 0.703125,3.789062 0.9375,-1.132812 1.640625,-2.179687 2.109375,-3.144531 0.496094,-1.015625 0.742187,-2.074219 0.742187,-3.183594 0,-0.832031 -0.128906,-1.671875 -0.390625,-2.519531 z m 0,0"
       style="fill:#000000;fill-opacity:1;fill-rule:nonzero;stroke:none" />
    <path
       id="path140"
       d="m 27.578126,77.113283 c -0.195313,-0.19531 -0.292969,-0.4375 -0.292969,-0.72266 0,-0.28515 0.09766,-0.52734 0.292969,-0.72265 0.195312,-0.19532 0.4375,-0.29297 0.722656,-0.29297 0.285156,0 0.527344,0.0977 0.722656,0.29297 0.195312,0.19531 0.292969,0.4375 0.292969,0.72265 0,0.28516 -0.09766,0.52735 -0.292969,0.72266 -0.195312,0.19531 -0.4375,0.29297 -0.722656,0.29297 -0.285156,0 -0.527344,-0.0977 -0.722656,-0.29297 z m 0,5 c -0.195313,-0.19531 -0.292969,-0.4336 -0.292969,-0.72266 0,-0.28515 0.09766,-0.52734 0.292969,-0.72265 0.195312,-0.19532 0.4375,-0.29297 0.722656,-0.29297 0.285156,0 0.527344,0.0977 0.722656,0.29297 0.195312,0.19531 0.292969,0.4375 0.292969,0.72265 0,0.28906 -0.09766,0.52735 -0.292969,0.72266 -0.195312,0.19531 -0.4375,0.29297 -0.722656,0.29297 -0.285156,0 -0.527344,-0.0977 -0.722656,-0.29297 z m -6.777344,-8.47656 c 1.730468,0 3.152344,0.4375 4.257812,1.30859 1.066406,0.91016 1.601563,2.14844 1.601563,3.71094 0,1.05468 -0.207031,2.01953 -0.625,2.89062 -0.390625,0.91406 -0.90625,1.71875 -1.542969,2.42188 -0.652344,0.71875 -1.4375,1.39453 -2.363281,2.03125 -0.898438,0.625 -1.824219,1.1875 -2.773438,1.67968 -1.925781,0.97657 -2.996093,1.46485 -3.203125,1.46485 -0.167968,0 -0.253906,-0.082 -0.253906,-0.25391 0,-0.0625 0.02734,-0.12109 0.07813,-0.17578 0.664063,-0.39062 1.476563,-0.89062 2.441406,-1.50391 0.625,-0.40234 1.355469,-0.96093 2.1875,-1.67968 0.808594,-0.67578 1.433594,-1.3125 1.875,-1.91407 0.457031,-0.58593 0.871094,-1.3125 1.25,-2.1875 0.324219,-0.87109 0.488281,-1.73046 0.488281,-2.57812 0,-1.26172 -0.3125,-2.36328 -0.9375,-3.30078 -0.625,-0.9375 -1.453124,-1.40625 -2.480468,-1.40625 -0.730469,0 -1.355469,0.23437 -1.875,0.70312 -0.558594,0.48047 -0.964844,1.08594 -1.210938,1.81641 0.246094,-0.10547 0.476563,-0.15625 0.683594,-0.15625 0.546875,0 1.015625,0.19531 1.40625,0.58594 0.390625,0.41797 0.585938,0.89453 0.585938,1.42578 0,0.5625 -0.1875,1.0625 -0.566407,1.5039 -0.402343,0.40625 -0.878906,0.60547 -1.425781,0.60547 -0.585938,0 -1.113281,-0.19922 -1.582031,-0.60547 -0.441407,-0.4414 -0.664063,-0.9414 -0.664063,-1.5039 0,-1.33985 0.457032,-2.48828 1.367188,-3.4375 0.898437,-0.96485 1.992187,-1.44531 3.28125,-1.44531 z m 0,0"
       style="fill:#000000;fill-opacity:1;fill-rule:nonzero;stroke:none" />
    <path
       id="path154"
       d="m 38.570313,21.640625 c 0.390625,0 0.722656,-0.04297 1,-0.136718 0.273437,-0.08984 0.449219,-0.136719 0.527344,-0.136719 0.08984,0 0.160156,0.02734 0.214843,0.07813 0.03906,0.03906 0.0625,0.08594 0.07813,0.136719 0,0.02734 -0.01563,0.06641 -0.03906,0.117187 l -5.6875,6.601563 h 3.339844 v -2.617188 c 0,-0.167969 0.04687,-0.3125 0.136719,-0.429687 0.15625,-0.128906 0.289062,-0.207032 0.390624,-0.234375 0.171876,-0.07813 0.378907,-0.257813 0.625,-0.546875 0.210938,-0.234375 0.457032,-0.644532 0.746094,-1.230469 0.03906,-0.07813 0.09766,-0.117187 0.175782,-0.117187 0.15625,0 0.246093,0.09375 0.273437,0.273437 v 4.902344 h 1.425781 c 0.179688,0 0.285156,0.09766 0.3125,0.292969 0,0.195312 -0.105468,0.292968 -0.3125,0.292968 H 40.35157 v 0.15625 c 0,0.523438 0.128906,0.964844 0.390625,1.328125 0.296875,0.367188 0.648438,0.546875 1.054688,0.546875 0.15625,0 0.234374,0.07813 0.234374,0.234375 0,0.15625 -0.07812,0.234375 -0.234374,0.234375 -0.273438,0 -0.71875,-0.03906 -1.328126,-0.117187 -0.5625,-0.08984 -0.996093,-0.136719 -1.3125,-0.136719 -0.324218,0 -0.761718,0.04687 -1.308593,0.136719 -0.585938,0.07813 -1.019531,0.117187 -1.308594,0.117187 -0.15625,0 -0.234375,-0.07813 -0.234375,-0.234375 0,-0.15625 0.07813,-0.234375 0.234375,-0.234375 0.40625,0 0.757813,-0.179687 1.054687,-0.546875 0.273438,-0.363281 0.410157,-0.804687 0.410157,-1.328125 v -0.15625 H 34.66407 c -0.21875,0 -0.375,-0.05078 -0.46875,-0.15625 -0.101563,-0.07813 -0.15625,-0.179687 -0.15625,-0.3125 0,-0.03906 0.09766,-0.175781 0.292969,-0.410156 0.222656,-0.257812 0.457031,-0.578125 0.703125,-0.957031 0.289062,-0.441407 0.5625,-0.898438 0.820312,-1.367188 0.289063,-0.53125 0.515625,-1.144531 0.683594,-1.835937 0.195313,-0.703125 0.292969,-1.417969 0.292969,-2.148438 0,-0.207031 0.09375,-0.3125 0.273437,-0.3125 0.03906,0 0.125,0.01953 0.253907,0.05859 0.03906,0.01563 0.121093,0.03516 0.246093,0.05859 0.125,0.02734 0.222657,0.05469 0.300781,0.07813 0.234376,0.03906 0.457032,0.05859 0.664063,0.05859 z m 0,0"
       style="fill:#000000;fill-opacity:1;fill-rule:nonzero;stroke:none" />
    <path
       id="path156"
       d="m 38.570313,31.640625 c 0.390625,0 0.722656,-0.04297 1,-0.136718 0.273437,-0.08984 0.449219,-0.136719 0.527344,-0.136719 0.08984,0 0.160156,0.02734 0.214843,0.07813 0.03906,0.03906 0.0625,0.08594 0.07813,0.136719 0,0.02734 -0.01563,0.06641 -0.03906,0.117187 l -5.6875,6.605469 h 3.339844 v -2.621094 c 0,-0.167969 0.04687,-0.3125 0.136719,-0.429687 0.15625,-0.128906 0.289062,-0.207032 0.390624,-0.234375 0.171876,-0.07813 0.378907,-0.257813 0.625,-0.546875 0.210938,-0.234375 0.457032,-0.644532 0.746094,-1.230469 0.03906,-0.07813 0.09766,-0.117187 0.175782,-0.117187 0.15625,0 0.246093,0.09375 0.273437,0.273437 v 4.90625 h 1.425781 c 0.179688,0 0.285156,0.09766 0.3125,0.292969 0,0.195312 -0.105468,0.292968 -0.3125,0.292968 H 40.35157 v 0.15625 c 0,0.519532 0.128906,0.960938 0.390625,1.328126 0.296875,0.363281 0.648438,0.546874 1.054688,0.546874 0.15625,0 0.234374,0.07813 0.234374,0.234376 0,0.15625 -0.07812,0.234374 -0.234374,0.234374 -0.273438,0 -0.71875,-0.03906 -1.328126,-0.117187 -0.5625,-0.09375 -0.996093,-0.136719 -1.3125,-0.136719 -0.324218,0 -0.761718,0.04297 -1.308593,0.136719 -0.585938,0.07813 -1.019531,0.117187 -1.308594,0.117187 -0.15625,0 -0.234375,-0.07812 -0.234375,-0.234374 0,-0.15625 0.07813,-0.234376 0.234375,-0.234376 0.40625,0 0.757813,-0.183593 1.054687,-0.546874 0.273438,-0.367188 0.410157,-0.808594 0.410157,-1.328126 V 38.89063 H 34.66407 c -0.21875,0 -0.375,-0.05469 -0.46875,-0.15625 -0.101563,-0.07812 -0.15625,-0.183593 -0.15625,-0.3125 0,-0.03906 0.09766,-0.175781 0.292969,-0.410156 0.222656,-0.261718 0.457031,-0.582031 0.703125,-0.957031 0.289062,-0.445313 0.5625,-0.902344 0.820312,-1.371094 0.289063,-0.53125 0.515625,-1.144531 0.683594,-1.835937 0.195313,-0.703125 0.292969,-1.417969 0.292969,-2.148438 0,-0.207031 0.09375,-0.3125 0.273437,-0.3125 0.03906,0 0.125,0.01953 0.253907,0.05859 0.03906,0.01563 0.121093,0.03516 0.246093,0.05859 0.125,0.02734 0.222657,0.05469 0.300781,0.07813 0.234376,0.03906 0.457032,0.05859 0.664063,0.05859 z m 0,0"
       style="fill:#000000;fill-opacity:1;fill-rule:nonzero;stroke:none" />
    <path
       id="path158"
       d="m 38.570313,74.144533 c 0.390625,0 0.722656,-0.0469 1,-0.13672 0.273437,-0.0898 0.449219,-0.13672 0.527344,-0.13672 0.08984,0 0.160156,0.0273 0.214843,0.0781 0.03906,0.0391 0.0625,0.0859 0.07813,0.13671 0,0.0273 -0.01563,0.0664 -0.03906,0.11719 l -5.6875,6.60156 h 3.339844 v -2.61718 c 0,-0.16797 0.04687,-0.3125 0.136719,-0.42969 0.15625,-0.12891 0.289062,-0.20703 0.390624,-0.23438 0.171876,-0.0781 0.378907,-0.26171 0.625,-0.54687 0.210938,-0.23438 0.457032,-0.64453 0.746094,-1.23047 0.03906,-0.0781 0.09766,-0.11719 0.175782,-0.11719 0.15625,0 0.246093,0.0898 0.273437,0.27344 v 4.90234 h 1.425781 c 0.179688,0 0.285156,0.0977 0.3125,0.29297 0,0.19532 -0.105468,0.29297 -0.3125,0.29297 H 40.35157 v 0.15625 c 0,0.52344 0.128906,0.96485 0.390625,1.32813 0.296875,0.36718 0.648438,0.54687 1.054688,0.54687 0.15625,0 0.234374,0.0781 0.234374,0.23438 0,0.15625 -0.07812,0.23437 -0.234374,0.23437 -0.273438,0 -0.71875,-0.0391 -1.328126,-0.11719 -0.5625,-0.0898 -0.996093,-0.13671 -1.3125,-0.13671 -0.324218,0 -0.761718,0.0469 -1.308593,0.13671 -0.585938,0.0781 -1.019531,0.11719 -1.308594,0.11719 -0.15625,0 -0.234375,-0.0781 -0.234375,-0.23437 0,-0.15625 0.07813,-0.23438 0.234375,-0.23438 0.40625,0 0.757813,-0.17969 1.054687,-0.54687 0.273438,-0.36328 0.410157,-0.80469 0.410157,-1.32813 v -0.15625 H 34.66407 c -0.21875,0 -0.375,-0.0508 -0.46875,-0.15625 -0.101563,-0.0781 -0.15625,-0.17969 -0.15625,-0.3125 0,-0.0391 0.09766,-0.17578 0.292969,-0.41015 0.222656,-0.25782 0.457031,-0.57813 0.703125,-0.95704 0.289062,-0.4414 0.5625,-0.89843 0.820312,-1.36718 0.289063,-0.53516 0.515625,-1.14453 0.683594,-1.83594 0.195313,-0.70313 0.292969,-1.41797 0.292969,-2.14844 0,-0.20703 0.09375,-0.3125 0.273437,-0.3125 0.03906,0 0.125,0.0195 0.253907,0.0586 0.03906,0.0117 0.121093,0.0312 0.246093,0.0586 0.125,0.0273 0.222657,0.0508 0.300781,0.0781 0.234376,0.0391 0.457032,0.0586 0.664063,0.0586 z m 0,0"
       style="fill:#000000;fill-opacity:1;fill-rule:nonzero;stroke:none" />
    <path
       id="path160"
       d="m 38.570313,84.144533 c 0.390625,0 0.722656,-0.043 1,-0.13672 0.273437,-0.0898 0.449219,-0.13672 0.527344,-0.13672 0.08984,0 0.160156,0.0273 0.214843,0.0781 0.03906,0.0391 0.0625,0.0859 0.07813,0.13671 0,0.0273 -0.01563,0.0664 -0.03906,0.11719 l -5.6875,6.60156 h 3.339844 v -2.61718 c 0,-0.16797 0.04687,-0.3125 0.136719,-0.42969 0.15625,-0.12891 0.289062,-0.20703 0.390624,-0.23438 0.171876,-0.0781 0.378907,-0.25781 0.625,-0.54687 0.210938,-0.23438 0.457032,-0.64453 0.746094,-1.23047 0.03906,-0.0781 0.09766,-0.11719 0.175782,-0.11719 0.15625,0 0.246093,0.0937 0.273437,0.27344 v 4.90234 h 1.425781 c 0.179688,0 0.285156,0.0977 0.3125,0.29297 0,0.19532 -0.105468,0.29297 -0.3125,0.29297 H 40.35157 v 0.15625 c 0,0.52344 0.128906,0.96485 0.390625,1.32813 0.296875,0.36718 0.648438,0.54687 1.054688,0.54687 0.15625,0 0.234374,0.0781 0.234374,0.23438 0,0.15625 -0.07812,0.23437 -0.234374,0.23437 -0.273438,0 -0.71875,-0.0391 -1.328126,-0.11719 -0.5625,-0.0898 -0.996093,-0.13671 -1.3125,-0.13671 -0.324218,0 -0.761718,0.0469 -1.308593,0.13671 -0.585938,0.0781 -1.019531,0.11719 -1.308594,0.11719 -0.15625,0 -0.234375,-0.0781 -0.234375,-0.23437 0,-0.15625 0.07813,-0.23438 0.234375,-0.23438 0.40625,0 0.757813,-0.17969 1.054687,-0.54687 0.273438,-0.36328 0.410157,-0.80469 0.410157,-1.32813 v -0.15625 H 34.66407 c -0.21875,0 -0.375,-0.0508 -0.46875,-0.15625 -0.101563,-0.0781 -0.15625,-0.17969 -0.15625,-0.3125 0,-0.0391 0.09766,-0.17578 0.292969,-0.41015 0.222656,-0.25782 0.457031,-0.57813 0.703125,-0.95704 0.289062,-0.4414 0.5625,-0.89843 0.820312,-1.36718 0.289063,-0.53125 0.515625,-1.14453 0.683594,-1.83594 0.195313,-0.70313 0.292969,-1.41797 0.292969,-2.14844 0,-0.20703 0.09375,-0.3125 0.273437,-0.3125 0.03906,0 0.125,0.0195 0.253907,0.0586 0.03906,0.0156 0.121093,0.0352 0.246093,0.0586 0.125,0.0273 0.222657,0.0547 0.300781,0.0781 0.234376,0.0391 0.457032,0.0586 0.664063,0.0586 z m 0,0"
       style="fill:#000000;fill-opacity:1;fill-rule:nonzero;stroke:none" />
    <path
       id="path186"
       d="m 81.054688,9.2812511 v -4.441407 c 0,-0.367187 -0.05469,-0.601562 -0.164062,-0.703125 -0.113282,-0.105468 -0.378907,-0.167968 -0.808594,-0.195312 v -0.191406 h 2.972656 v 0.191406 c -0.421875,0.01953 -0.6875,0.08203 -0.804688,0.1875 -0.117187,0.109375 -0.175781,0.34375 -0.175781,0.710937 v 4.441407 c 0,0.367187 0.05859,0.605468 0.179688,0.714843 0.121093,0.1093749 0.386719,0.1718749 0.800781,0.1835939 v 0.191406 h -2.972656 v -0.191406 c 0.421875,-0.01172 0.6875,-0.07031 0.800781,-0.179687 0.113281,-0.1054689 0.171875,-0.3476569 0.171875,-0.7187499 z m 0,0"
       style="fill:#000000;fill-opacity:1;fill-rule:nonzero;stroke:none" />
    <path
       id="path188"
       d="m 57.921876,3.7500011 v 0.191406 C 57.675782,3.9531251 57.5,4.0156251 57.394532,4.1210941 57.292969,4.2265631 57.160157,4.4765631 57,4.8710941 L 54.78125,10.480469 H 54.632813 L 52.171876,4.9921881 C 51.976563,4.5507821 51.816407,4.2695321 51.6875,4.1445321 51.554688,4.0234381 51.363282,3.9531251 51.109376,3.9414071 v -0.191406 h 2.660156 v 0.191406 c -0.183594,0.01172 -0.28125,0.01953 -0.289063,0.01953 -0.304687,0.01953 -0.460937,0.125 -0.460937,0.308594 0,0.132812 0.136718,0.503906 0.410156,1.109375 l 1.511719,3.382812 1.46875,-3.671875 c 0.128906,-0.320312 0.191406,-0.5625 0.191406,-0.730469 0,-0.136718 -0.05469,-0.238281 -0.160156,-0.304687 -0.105469,-0.0625 -0.296875,-0.101563 -0.570313,-0.113281 v -0.191406 z m 0,0"
       style="fill:#000000;fill-opacity:1;fill-rule:nonzero;stroke:none" />
    <path
       id="path202"
       d="m 10.058594,47.183594 c 0,-5.839843 -4.0195309,-11.519531 -4.0195309,-17.117187 0,-2.816406 1.09375,-5.554688 4.4765629,-8.003906 0.04687,-0.03125 0.07031,-0.08203 0.07031,-0.113282 0,-0.08984 -0.25,-0.171875 -0.433594,-0.171875 -0.09375,0 -0.2539059,0.0078 -0.3671869,0.08203 -4.386719,3.144532 -5.851563,6.777344 -5.851563,10.457032 0,5.921875 4.296875,11.640625 4.296875,17.316406 0,2.820312 -1.097656,5.476562 -4.480469,7.925781 v 0.164063 c 3.382813,2.449216 4.480469,5.105466 4.480469,7.921876 0,5.67969 -4.296875,11.39844 -4.296875,17.32031 0,3.67578 1.464844,7.3125 5.851563,10.45703 0.113281,0.0703 0.2734369,0.082 0.3671869,0.082 0.183594,0 0.433594,-0.082 0.433594,-0.17187 0,-0.0312 -0.02344,-0.082 -0.07031,-0.11328 -3.3828129,-2.45313 -4.4765629,-5.1875 -4.4765629,-8.00782 0,-5.59375 4.0195309,-11.27343 4.0195309,-17.11328 0,-3.71875 -1.4609369,-7.27343 -5.7578119,-10.457028 4.296875,-3.1875 5.7578119,-6.742187 5.7578119,-10.457031 z m 0,0"
       style="fill:#000000;fill-opacity:1;fill-rule:evenodd;stroke:none" />
  </g>
</svg>
