<?xml version="1.0" encoding="UTF-8" standalone="no"?>
<svg
   xmlns:dc="http://purl.org/dc/elements/1.1/"
   xmlns:cc="http://creativecommons.org/ns#"
   xmlns:rdf="http://www.w3.org/1999/02/22-rdf-syntax-ns#"
   xmlns:svg="http://www.w3.org/2000/svg"
   xmlns="http://www.w3.org/2000/svg"
   xmlns:sodipodi="http://sodipodi.sourceforge.net/DTD/sodipodi-0.dtd"
   xmlns:inkscape="http://www.inkscape.org/namespaces/inkscape"
   inkscape:version="1.0 (4035a4f, 2020-05-01)"
   sodipodi:docname="chords_3.svg"
   id="svg181"
   version="1.2"
   viewBox="0 0 150 50"
   height="50pt"
   width="150pt">
  <metadata
     id="metadata187">
    <rdf:RDF>
      <cc:Work
         rdf:about="">
        <dc:format>image/svg+xml</dc:format>
        <dc:type
           rdf:resource="http://purl.org/dc/dcmitype/StillImage" />
        <dc:title></dc:title>
      </cc:Work>
    </rdf:RDF>
  </metadata>
  <defs
     id="defs185" />
  <sodipodi:namedview
     inkscape:current-layer="surface3255"
     inkscape:window-maximized="1"
     inkscape:window-y="23"
     inkscape:window-x="0"
     inkscape:cy="255.69214"
     inkscape:cx="365.88965"
     inkscape:zoom="0.77369015"
     showgrid="false"
     id="namedview183"
     inkscape:window-height="855"
     inkscape:window-width="1440"
     inkscape:pageshadow="2"
     inkscape:pageopacity="0"
     guidetolerance="10"
     gridtolerance="10"
     objecttolerance="10"
     borderopacity="1"
     bordercolor="#666666"
     pagecolor="#ffffff" />
  <g
     id="surface3255">
    <path
       id="path22"
       d="M 3.7500001,11.128906 H 57.898438 M 3.7500001,15.5625 H 57.898438 M 3.7500001,19.996093 H 57.898438 M 3.7500001,24.429687 H 57.898438 M 3.7500001,28.863281 H 57.898438"
       style="fill:none;stroke:#000000;stroke-width:0.354671;stroke-linecap:butt;stroke-linejoin:bevel;stroke-miterlimit:10;stroke-opacity:1" />
    <path
       id="path24"
       d="m 115.88671,11.128906 h 29.76563 M 115.88671,15.5625 h 29.76563 m -29.76563,4.433593 h 29.76563 m -29.76563,4.433594 h 29.76563 m -29.76563,4.433594 h 29.76563"
       style="fill:none;stroke:#000000;stroke-width:0.354671;stroke-linecap:butt;stroke-linejoin:bevel;stroke-miterlimit:10;stroke-opacity:1" />
    <path
       id="path26"
       d="M 86.710934,11.128906 H 115.88671 M 86.710934,15.5625 h 29.175776 m -29.175776,4.433593 h 29.175776 m -29.175776,4.433594 h 29.175776 m -29.175776,4.433594 h 29.175776"
       style="fill:none;stroke:#000000;stroke-width:0.354671;stroke-linecap:butt;stroke-linejoin:bevel;stroke-miterlimit:10;stroke-opacity:1" />
    <path
       id="path28"
       d="M 57.898438,11.128906 H 86.710934 M 57.898438,15.5625 h 28.812496 m -28.812496,4.433593 h 28.812496 m -28.812496,4.433594 h 28.812496 m -28.812496,4.433594 h 28.812496"
       style="fill:none;stroke:#000000;stroke-width:0.354671;stroke-linecap:butt;stroke-linejoin:bevel;stroke-miterlimit:10;stroke-opacity:1" />
    <path
       id="path46"
       d="M 115.53125,11.128906 V 28.863281"
       style="fill:none;stroke:#000000;stroke-width:0.709342;stroke-linecap:butt;stroke-linejoin:bevel;stroke-miterlimit:10;stroke-opacity:1" />
    <path
       id="path48"
       d="M 86.355464,11.128906 V 28.863281"
       style="fill:none;stroke:#000000;stroke-width:0.709342;stroke-linecap:butt;stroke-linejoin:bevel;stroke-miterlimit:10;stroke-opacity:1" />
    <path
       id="path50"
       d="M 57.542969,11.128906 V 28.863281"
       style="fill:none;stroke:#000000;stroke-width:0.709342;stroke-linecap:butt;stroke-linejoin:bevel;stroke-miterlimit:10;stroke-opacity:1" />
    <path
       id="path52"
       d="M 145.29687,11.128906 V 28.863281"
       style="fill:none;stroke:#000000;stroke-width:0.709342;stroke-linecap:butt;stroke-linejoin:bevel;stroke-miterlimit:10;stroke-opacity:1" />
    <path
       id="path64"
       d="m 32.203125,23.699218 v 1.371094 c 0,0.484375 0.02344,0.871094 0.06641,1.160156 0.382809,-0.324218 0.65234,-0.566406 0.816403,-0.730468 0.183594,-0.183594 0.367187,-0.4375 0.554687,-0.761719 0.183594,-0.320313 0.277344,-0.644531 0.277344,-0.96875 0,-0.324219 -0.07031,-0.601563 -0.210937,-0.832031 -0.136719,-0.230469 -0.320313,-0.34375 -0.550782,-0.34375 -0.277344,0 -0.507812,0.101562 -0.695312,0.308593 -0.171875,0.234375 -0.257813,0.5 -0.257813,0.796875 z M 31.476563,26.871093 31.25,16.324218 c 0.160156,-0.09375 0.324219,-0.140625 0.484375,-0.140625 0.160157,0 0.324219,0.04687 0.484375,0.140625 L 32.082032,22.4375 c 0.472656,-0.40625 1.015624,-0.605469 1.625,-0.605469 0.453124,0 0.828124,0.183593 1.128906,0.550781 0.296875,0.371094 0.449218,0.792969 0.449218,1.265625 0,0.300781 -0.09766,0.617187 -0.292968,0.953125 -0.1875,0.3125 -0.382813,0.554688 -0.589844,0.726562 -0.117188,0.09375 -0.410156,0.324219 -0.882812,0.691407 -0.140626,0.105469 -0.304688,0.226562 -0.496094,0.367187 -0.1875,0.136719 -0.308594,0.222656 -0.355469,0.257813 -0.07813,0.04687 -0.152344,0.140625 -0.222656,0.277343 -0.08203,0.117188 -0.175781,0.214844 -0.277344,0.292969 -0.08203,0.07031 -0.179687,0.105469 -0.292969,0.105469 -0.117187,0 -0.210937,-0.03906 -0.277344,-0.121094 -0.08203,-0.08203 -0.121093,-0.191406 -0.121093,-0.328125 z m 0,0"
       style="fill:#000000;fill-opacity:1;fill-rule:nonzero;stroke:none" />
    <path
       id="path66"
       d="m 27.296875,28.132812 v 1.371094 c 0,0.484375 0.01953,0.871094 0.06641,1.160156 0.382812,-0.324219 0.652343,-0.566406 0.816406,-0.730469 0.183594,-0.183593 0.367187,-0.4375 0.550781,-0.761719 0.1875,-0.320312 0.277344,-0.644531 0.277344,-0.96875 0,-0.324218 -0.06641,-0.601562 -0.207031,-0.832031 -0.136719,-0.230469 -0.324219,-0.34375 -0.554688,-0.34375 -0.277344,0 -0.507812,0.101563 -0.691406,0.308594 -0.171875,0.234375 -0.257813,0.5 -0.257813,0.796875 z M 26.566406,31.304687 26.34375,20.757812 c 0.160156,-0.09375 0.320313,-0.140625 0.484375,-0.140625 0.160157,0 0.324219,0.04687 0.484375,0.140625 l -0.140625,6.113281 c 0.476563,-0.40625 1.019531,-0.605469 1.628907,-0.605469 0.449218,0 0.828124,0.183594 1.125,0.550782 0.300781,0.371094 0.453124,0.792968 0.453124,1.265625 0,0.300781 -0.09766,0.617187 -0.296874,0.953125 -0.183594,0.3125 -0.378907,0.554687 -0.585938,0.726562 -0.117188,0.09375 -0.410156,0.324219 -0.886719,0.691406 -0.136719,0.105469 -0.300781,0.226563 -0.492187,0.367188 -0.191406,0.136719 -0.308594,0.222656 -0.355469,0.257812 -0.07813,0.04688 -0.15625,0.136719 -0.222656,0.277344 -0.08203,0.117188 -0.175781,0.214844 -0.277344,0.292969 -0.08203,0.07031 -0.179687,0.105469 -0.296875,0.105469 -0.113281,0 -0.207031,-0.03906 -0.277344,-0.121094 -0.07813,-0.08203 -0.121094,-0.191406 -0.121094,-0.328125 z m 0,0"
       style="fill:#000000;fill-opacity:1;fill-rule:nonzero;stroke:none" />
    <path
       id="path68"
       d="m 122.01953,29.953124 c 0,0.21875 -0.11328,0.328126 -0.33203,0.328126 -0.21875,0 -0.32813,-0.109376 -0.32813,-0.328126 v -2.5625 l -1.47266,0.554688 V 30.75 c 0,0.21875 -0.10937,0.328124 -0.32812,0.328124 -0.21875,0 -0.32813,-0.109374 -0.32813,-0.328124 V 28.167968 L 118.67578,28.375 c -0.0117,0.01172 -0.0586,0.01953 -0.14063,0.01953 -0.0898,0 -0.17187,-0.03516 -0.24219,-0.105469 -0.0664,-0.06641 -0.10156,-0.148438 -0.10156,-0.242188 v -1.074218 c 0,-0.171875 0.0742,-0.28125 0.22266,-0.328125 l 0.8164,-0.277344 v -2.839844 l -0.55468,0.191407 c -0.0117,0.01172 -0.0586,0.01562 -0.14063,0.01562 -0.0898,0 -0.17187,-0.03516 -0.24219,-0.101562 -0.0664,-0.07031 -0.10156,-0.152344 -0.10156,-0.242188 v -1.074218 c 0,-0.164063 0.0742,-0.265625 0.22266,-0.3125 l 0.8164,-0.3125 v -2.789063 c 0,-0.21875 0.10938,-0.328125 0.32813,-0.328125 0.21875,0 0.32812,0.109375 0.32812,0.328125 v 2.5625 l 1.47266,-0.550781 v -2.808594 c 0,-0.21875 0.10938,-0.328125 0.32813,-0.328125 0.21875,0 0.33203,0.109375 0.33203,0.328125 V 20.6875 l 0.57031,-0.207032 c 0.0117,-0.01172 0.0508,-0.01953 0.12109,-0.01953 0.082,0 0.16797,0.03516 0.25782,0.105469 0.0703,0.07031 0.10546,0.148437 0.10546,0.242187 v 1.074219 c 0,0.160156 -0.082,0.269531 -0.24218,0.328125 l -0.8125,0.277344 v 2.839843 l 0.57031,-0.191406 c 0.0117,-0.01172 0.0508,-0.01563 0.12109,-0.01563 0.082,0 0.16797,0.03516 0.25782,0.105469 0.0703,0.06641 0.10546,0.148438 0.10546,0.242188 v 1.070312 c 0,0.152344 -0.082,0.257812 -0.24218,0.3125 l -0.8125,0.3125 z M 121.35937,22.75 l -1.47266,0.519531 v 2.839843 l 1.47266,-0.519531 z m 0,0"
       style="fill:#000000;fill-opacity:1;fill-rule:nonzero;stroke:none" />
    <path
       id="path70"
       d="m 61.015625,28.132812 v 1.371094 c 0,0.484375 0.02344,0.871094 0.07031,1.160156 0.378906,-0.324219 0.652344,-0.566406 0.8125,-0.730469 0.1875,-0.183593 0.371094,-0.4375 0.554687,-0.761719 0.183594,-0.320312 0.277344,-0.644531 0.277344,-0.96875 0,-0.324218 -0.07031,-0.601562 -0.207031,-0.832031 -0.140625,-0.230469 -0.324219,-0.34375 -0.554688,-0.34375 -0.277344,0 -0.507812,0.101563 -0.691406,0.308594 -0.175781,0.234375 -0.261719,0.5 -0.261719,0.796875 z M 60.289063,31.304687 60.0625,20.757812 c 0.164063,-0.09375 0.324219,-0.140625 0.484375,-0.140625 0.164063,0 0.324219,0.04687 0.488281,0.140625 l -0.140624,6.113281 c 0.472656,-0.40625 1.015624,-0.605469 1.628906,-0.605469 0.449218,0 0.824218,0.183594 1.125,0.550782 0.300781,0.371094 0.449218,0.792968 0.449218,1.265625 0,0.300781 -0.09766,0.617187 -0.292968,0.953125 -0.183594,0.3125 -0.382813,0.554687 -0.589844,0.726562 -0.113281,0.09375 -0.410156,0.324219 -0.882812,0.691406 -0.136719,0.105469 -0.300782,0.226563 -0.492188,0.367188 -0.191406,0.136719 -0.308594,0.222656 -0.355469,0.257812 -0.08203,0.04688 -0.15625,0.136719 -0.226562,0.277344 -0.07813,0.117188 -0.171875,0.214844 -0.277344,0.292969 -0.07813,0.07031 -0.175781,0.105469 -0.292969,0.105469 -0.117187,0 -0.207031,-0.03906 -0.277344,-0.121094 -0.08203,-0.08203 -0.121093,-0.191406 -0.121093,-0.328125 z m 0,0"
       style="fill:#000000;fill-opacity:1;fill-rule:nonzero;stroke:none" />
    <path
       id="path84"
       d="M 34.964844,33.292968 H 46.40625"
       style="fill:none;stroke:#000000;stroke-width:0.709342;stroke-linecap:square;stroke-linejoin:bevel;stroke-miterlimit:10;stroke-opacity:1" />
    <path
       id="path86"
       d="m 122.71875,33.292968 h 11.4414"
       style="fill:none;stroke:#000000;stroke-width:0.709342;stroke-linecap:square;stroke-linejoin:bevel;stroke-miterlimit:10;stroke-opacity:1" />
    <path
       id="path88"
       d="M 90.703124,33.292968 H 102.14062"
       style="fill:none;stroke:#000000;stroke-width:0.709342;stroke-linecap:square;stroke-linejoin:bevel;stroke-miterlimit:10;stroke-opacity:1" />
    <path
       id="path90"
       d="m 63.78125,33.292968 h 11.4375"
       style="fill:none;stroke:#000000;stroke-width:0.709342;stroke-linecap:square;stroke-linejoin:bevel;stroke-miterlimit:10;stroke-opacity:1" />
    <path
       id="path132"
       d="m 40.105469,22.4375 c -0.414063,0 -0.714844,0.144531 -0.902344,0.433593 -0.207031,0.277344 -0.308593,0.652344 -0.308593,1.125 0,0.542969 0.144531,1.007813 0.429687,1.402344 0.289063,0.378906 0.609375,0.644531 0.953125,0.796875 0.3125,0.148438 0.640625,0.222656 0.988281,0.222656 0.402344,0 0.710938,-0.140625 0.917969,-0.429687 0.195312,-0.289063 0.292969,-0.664063 0.292969,-1.128907 0,-0.539062 -0.144531,-1.007812 -0.429688,-1.402343 -0.289062,-0.367188 -0.601562,-0.632813 -0.9375,-0.796875 C 40.773438,22.511718 40.441406,22.4375 40.105469,22.4375 Z m 0.589844,-0.453126 c 1.246093,0 2.285156,0.246094 3.117187,0.730469 0.839844,0.484375 1.261719,1.054688 1.261719,1.714844 0,0.703125 -0.429687,1.28125 -1.296875,1.730469 -0.867188,0.472656 -1.894531,0.710937 -3.082031,0.710937 -1.226563,0 -2.265625,-0.242187 -3.117188,-0.726562 -0.855469,-0.488281 -1.28125,-1.058594 -1.28125,-1.714844 0,-0.707031 0.4375,-1.28125 1.316407,-1.734375 0.863281,-0.472656 1.890624,-0.710938 3.082031,-0.710938 z m 0,0"
       style="fill:#000000;fill-opacity:1;fill-rule:nonzero;stroke:none" />
    <path
       id="path134"
       d="m 40.105469,26.871093 c -0.414063,0 -0.714844,0.144531 -0.902344,0.433594 -0.207031,0.273437 -0.308593,0.652344 -0.308593,1.125 0,0.542969 0.144531,1.007813 0.429687,1.402344 0.289063,0.378906 0.609375,0.644531 0.953125,0.796875 0.3125,0.148437 0.640625,0.222656 0.988281,0.222656 0.402344,0 0.710938,-0.144531 0.917969,-0.429688 0.195312,-0.289062 0.292969,-0.664062 0.292969,-1.128906 0,-0.542968 -0.144531,-1.007812 -0.429688,-1.402344 -0.289062,-0.367187 -0.601562,-0.632812 -0.9375,-0.796874 -0.335937,-0.148438 -0.667969,-0.222657 -1.003906,-0.222657 z m 0.589844,-0.453125 c 1.246093,0 2.285156,0.246094 3.117187,0.730469 0.839844,0.484375 1.261719,1.054687 1.261719,1.714844 0,0.703125 -0.429687,1.28125 -1.296875,1.730469 -0.867188,0.472656 -1.894531,0.710937 -3.082031,0.710937 -1.226563,0 -2.265625,-0.242187 -3.117188,-0.730469 -0.855469,-0.484375 -1.28125,-1.054687 -1.28125,-1.710937 0,-0.707031 0.4375,-1.285157 1.316407,-1.734375 0.863281,-0.472656 1.890624,-0.710938 3.082031,-0.710938 z m 0,0"
       style="fill:#000000;fill-opacity:1;fill-rule:nonzero;stroke:none" />
    <path
       id="path136"
       d="m 40.105469,31.304687 c -0.414063,0 -0.714844,0.144531 -0.902344,0.429687 -0.207031,0.277344 -0.308593,0.652344 -0.308593,1.128907 0,0.542969 0.144531,1.007812 0.429687,1.402343 0.289063,0.378907 0.609375,0.644532 0.953125,0.796876 0.3125,0.148437 0.640625,0.222656 0.988281,0.222656 0.402344,0 0.710938,-0.144532 0.917969,-0.429688 0.195312,-0.289062 0.292969,-0.664062 0.292969,-1.128906 0,-0.542969 -0.144531,-1.007812 -0.429688,-1.402344 -0.289062,-0.367187 -0.601562,-0.632812 -0.9375,-0.796875 -0.335937,-0.148437 -0.667969,-0.222656 -1.003906,-0.222656 z m 0.589844,-0.453125 c 1.246093,0 2.285156,0.242188 3.117187,0.730469 0.839844,0.484375 1.261719,1.054687 1.261719,1.710937 0,0.707032 -0.429687,1.285156 -1.296875,1.734375 -0.867188,0.472657 -1.894531,0.710938 -3.082031,0.710938 -1.226563,0 -2.265625,-0.242188 -3.117188,-0.730469 -0.855469,-0.484375 -1.28125,-1.054688 -1.28125,-1.714844 0,-0.703125 0.4375,-1.28125 1.316407,-1.730468 0.863281,-0.472657 1.890624,-0.710938 3.082031,-0.710938 z m 0,0"
       style="fill:#000000;fill-opacity:1;fill-rule:nonzero;stroke:none" />
    <path
       id="path138"
       d="m 127.85937,22.4375 c -0.41406,0 -0.71484,0.144531 -0.90234,0.433593 -0.20703,0.277344 -0.3086,0.652344 -0.3086,1.125 0,0.542969 0.14453,1.007813 0.4336,1.402344 0.28515,0.378906 0.60547,0.644531 0.94922,0.796875 0.3125,0.148438 0.64062,0.222656 0.98828,0.222656 0.40234,0 0.71093,-0.140625 0.91797,-0.429687 0.19531,-0.289063 0.29296,-0.664063 0.29296,-1.128907 0,-0.539062 -0.14453,-1.007812 -0.42968,-1.402343 -0.28907,-0.367188 -0.60157,-0.632813 -0.9375,-0.796875 -0.33594,-0.148438 -0.66797,-0.222656 -1.00391,-0.222656 z m 0.58984,-0.453126 c 1.2461,0 2.28516,0.246094 3.11719,0.730469 0.84375,0.484375 1.26172,1.054688 1.26172,1.714844 0,0.703125 -0.42969,1.28125 -1.29687,1.730469 -0.86719,0.472656 -1.89454,0.710937 -3.08204,0.710937 -1.22656,0 -2.26562,-0.242187 -3.11718,-0.726562 -0.85547,-0.488281 -1.28125,-1.058594 -1.28125,-1.714844 0,-0.707031 0.4375,-1.28125 1.3164,-1.734375 0.86328,-0.472656 1.89063,-0.710938 3.08203,-0.710938 z m 0,0"
       style="fill:#000000;fill-opacity:1;fill-rule:nonzero;stroke:none" />
    <path
       id="path140"
       d="m 127.85937,26.871093 c -0.41406,0 -0.71484,0.144531 -0.90234,0.433594 -0.20703,0.273437 -0.3086,0.652344 -0.3086,1.125 0,0.542969 0.14453,1.007813 0.4336,1.402344 0.28515,0.378906 0.60547,0.644531 0.94922,0.796875 0.3125,0.148437 0.64062,0.222656 0.98828,0.222656 0.40234,0 0.71093,-0.144531 0.91797,-0.429688 0.19531,-0.289062 0.29296,-0.664062 0.29296,-1.128906 0,-0.542968 -0.14453,-1.007812 -0.42968,-1.402344 -0.28907,-0.367187 -0.60157,-0.632812 -0.9375,-0.796874 -0.33594,-0.148438 -0.66797,-0.222657 -1.00391,-0.222657 z m 0.58984,-0.453125 c 1.2461,0 2.28516,0.246094 3.11719,0.730469 0.84375,0.484375 1.26172,1.054687 1.26172,1.714844 0,0.703125 -0.42969,1.28125 -1.29687,1.730469 -0.86719,0.472656 -1.89454,0.710937 -3.08204,0.710937 -1.22656,0 -2.26562,-0.242187 -3.11718,-0.730469 -0.85547,-0.484375 -1.28125,-1.054687 -1.28125,-1.710937 0,-0.707031 0.4375,-1.285157 1.3164,-1.734375 0.86328,-0.472656 1.89063,-0.710938 3.08203,-0.710938 z m 0,0"
       style="fill:#000000;fill-opacity:1;fill-rule:nonzero;stroke:none" />
    <path
       id="path142"
       d="m 127.85937,31.304687 c -0.41406,0 -0.71484,0.144531 -0.90234,0.429687 -0.20703,0.277344 -0.3086,0.652344 -0.3086,1.128907 0,0.542969 0.14453,1.007812 0.4336,1.402343 0.28515,0.378907 0.60547,0.644532 0.94922,0.796876 0.3125,0.148437 0.64062,0.222656 0.98828,0.222656 0.40234,0 0.71093,-0.144532 0.91797,-0.429688 0.19531,-0.289062 0.29296,-0.664062 0.29296,-1.128906 0,-0.542969 -0.14453,-1.007812 -0.42968,-1.402344 -0.28907,-0.367187 -0.60157,-0.632812 -0.9375,-0.796875 -0.33594,-0.148437 -0.66797,-0.222656 -1.00391,-0.222656 z m 0.58984,-0.453125 c 1.2461,0 2.28516,0.242188 3.11719,0.730469 0.84375,0.484375 1.26172,1.054687 1.26172,1.710937 0,0.707032 -0.42969,1.285156 -1.29687,1.734375 -0.86719,0.472657 -1.89454,0.710938 -3.08204,0.710938 -1.22656,0 -2.26562,-0.242188 -3.11718,-0.730469 -0.85547,-0.484375 -1.28125,-1.054688 -1.28125,-1.714844 0,-0.703125 0.4375,-1.28125 1.3164,-1.730468 0.86328,-0.472657 1.89063,-0.710938 3.08203,-0.710938 z m 0,0"
       style="fill:#000000;fill-opacity:1;fill-rule:nonzero;stroke:none" />
    <path
       id="path144"
       d="m 95.839844,22.4375 c -0.41406,0 -0.71484,0.144531 -0.89844,0.433593 -0.20703,0.277344 -0.3125,0.652344 -0.3125,1.125 0,0.542969 0.14453,1.007813 0.4336,1.402344 0.28906,0.378906 0.60546,0.644531 0.95312,0.796875 0.3125,0.148438 0.64063,0.222656 0.98438,0.222656 0.40625,0 0.71093,-0.140625 0.91796,-0.429687 0.19922,-0.289063 0.29688,-0.664063 0.29688,-1.128907 0,-0.539062 -0.14453,-1.007812 -0.43359,-1.402343 -0.28907,-0.367188 -0.60157,-0.632813 -0.9336,-0.796875 -0.33594,-0.148438 -0.67187,-0.222656 -1.00781,-0.222656 z m 0.58984,-0.453126 c 1.2461,0 2.28516,0.246094 3.11719,0.730469 0.843746,0.484375 1.265626,1.054688 1.265626,1.714844 0,0.703125 -0.4336,1.28125 -1.300786,1.730469 -0.86328,0.472656 -1.89062,0.710937 -3.08203,0.710937 -1.22265,0 -2.26172,-0.242187 -3.11718,-0.726562 -0.85547,-0.488281 -1.28125,-1.058594 -1.28125,-1.714844 0,-0.707031 0.4375,-1.28125 1.3164,-1.734375 0.86719,-0.472656 1.89453,-0.710938 3.08203,-0.710938 z m 0,0"
       style="fill:#000000;fill-opacity:1;fill-rule:nonzero;stroke:none" />
    <path
       id="path146"
       d="m 95.839844,26.871093 c -0.41406,0 -0.71484,0.144531 -0.89844,0.433594 -0.20703,0.273437 -0.3125,0.652344 -0.3125,1.125 0,0.542969 0.14453,1.007813 0.4336,1.402344 0.28906,0.378906 0.60546,0.644531 0.95312,0.796875 0.3125,0.148437 0.64063,0.222656 0.98438,0.222656 0.40625,0 0.71093,-0.144531 0.91796,-0.429688 0.19922,-0.289062 0.29688,-0.664062 0.29688,-1.128906 0,-0.542968 -0.14453,-1.007812 -0.43359,-1.402344 -0.28907,-0.367187 -0.60157,-0.632812 -0.9336,-0.796874 -0.33594,-0.148438 -0.67187,-0.222657 -1.00781,-0.222657 z m 0.58984,-0.453125 c 1.2461,0 2.28516,0.246094 3.11719,0.730469 0.843746,0.484375 1.265626,1.054687 1.265626,1.714844 0,0.703125 -0.4336,1.28125 -1.300786,1.730469 -0.86328,0.472656 -1.89062,0.710937 -3.08203,0.710937 -1.22265,0 -2.26172,-0.242187 -3.11718,-0.730469 -0.85547,-0.484375 -1.28125,-1.054687 -1.28125,-1.710937 0,-0.707031 0.4375,-1.285157 1.3164,-1.734375 0.86719,-0.472656 1.89453,-0.710938 3.08203,-0.710938 z m 0,0"
       style="fill:#000000;fill-opacity:1;fill-rule:nonzero;stroke:none" />
    <path
       id="path148"
       d="m 95.839844,31.304687 c -0.41406,0 -0.71484,0.144531 -0.89844,0.429687 -0.20703,0.277344 -0.3125,0.652344 -0.3125,1.128907 0,0.542969 0.14453,1.007812 0.4336,1.402343 0.28906,0.378907 0.60546,0.644532 0.95312,0.796876 0.3125,0.148437 0.64063,0.222656 0.98438,0.222656 0.40625,0 0.71093,-0.144532 0.91796,-0.429688 0.19922,-0.289062 0.29688,-0.664062 0.29688,-1.128906 0,-0.542969 -0.14453,-1.007812 -0.43359,-1.402344 -0.28907,-0.367187 -0.60157,-0.632812 -0.9336,-0.796875 -0.33594,-0.148437 -0.67187,-0.222656 -1.00781,-0.222656 z m 0.58984,-0.453125 c 1.2461,0 2.28516,0.242188 3.11719,0.730469 0.843746,0.484375 1.265626,1.054687 1.265626,1.710937 0,0.707032 -0.4336,1.285156 -1.300786,1.734375 -0.86328,0.472657 -1.89062,0.710938 -3.08203,0.710938 -1.22265,0 -2.26172,-0.242188 -3.11718,-0.730469 -0.85547,-0.484375 -1.28125,-1.054688 -1.28125,-1.714844 0,-0.703125 0.4375,-1.28125 1.3164,-1.730468 0.86719,-0.472657 1.89453,-0.710938 3.08203,-0.710938 z m 0,0"
       style="fill:#000000;fill-opacity:1;fill-rule:nonzero;stroke:none" />
    <path
       id="path150"
       d="m 68.917969,22.4375 c -0.414063,0 -0.714844,0.144531 -0.898437,0.433593 -0.207032,0.277344 -0.3125,0.652344 -0.3125,1.125 0,0.542969 0.144531,1.007813 0.433593,1.402344 0.289063,0.378906 0.605469,0.644531 0.953125,0.796875 0.3125,0.148438 0.640625,0.222656 0.984375,0.222656 0.40625,0 0.710938,-0.140625 0.917969,-0.429687 0.199219,-0.289063 0.296875,-0.664063 0.296875,-1.128907 0,-0.539062 -0.144531,-1.007812 -0.433594,-1.402343 C 70.570313,23.089843 70.257813,22.824218 69.925782,22.660156 69.589844,22.511718 69.253906,22.4375 68.917969,22.4375 Z m 0.589844,-0.453126 c 1.246093,0 2.285156,0.246094 3.117187,0.730469 0.84375,0.484375 1.265625,1.054688 1.265625,1.714844 0,0.703125 -0.433593,1.28125 -1.300781,1.730469 -0.863281,0.472656 -1.890625,0.710937 -3.082031,0.710937 -1.222657,0 -2.261719,-0.242187 -3.117188,-0.726562 -0.855469,-0.488281 -1.28125,-1.058594 -1.28125,-1.714844 0,-0.707031 0.4375,-1.28125 1.316407,-1.734375 0.867187,-0.472656 1.894531,-0.710938 3.082031,-0.710938 z m 0,0"
       style="fill:#000000;fill-opacity:1;fill-rule:nonzero;stroke:none" />
    <path
       id="path152"
       d="m 68.917969,26.871093 c -0.414063,0 -0.714844,0.144531 -0.898437,0.433594 -0.207032,0.273437 -0.3125,0.652344 -0.3125,1.125 0,0.542969 0.144531,1.007813 0.433593,1.402344 0.289063,0.378906 0.605469,0.644531 0.953125,0.796875 0.3125,0.148437 0.640625,0.222656 0.984375,0.222656 0.40625,0 0.710938,-0.144531 0.917969,-0.429688 0.199219,-0.289062 0.296875,-0.664062 0.296875,-1.128906 0,-0.542968 -0.144531,-1.007812 -0.433594,-1.402344 -0.289062,-0.367187 -0.601562,-0.632812 -0.933593,-0.796874 -0.335938,-0.148438 -0.671876,-0.222657 -1.007813,-0.222657 z m 0.589844,-0.453125 c 1.246093,0 2.285156,0.246094 3.117187,0.730469 0.84375,0.484375 1.265625,1.054687 1.265625,1.714844 0,0.703125 -0.433593,1.28125 -1.300781,1.730469 -0.863281,0.472656 -1.890625,0.710937 -3.082031,0.710937 -1.222657,0 -2.261719,-0.242187 -3.117188,-0.730469 -0.855469,-0.484375 -1.28125,-1.054687 -1.28125,-1.710937 0,-0.707031 0.4375,-1.285157 1.316407,-1.734375 0.867187,-0.472656 1.894531,-0.710938 3.082031,-0.710938 z m 0,0"
       style="fill:#000000;fill-opacity:1;fill-rule:nonzero;stroke:none" />
    <path
       id="path154"
       d="m 68.917969,31.304687 c -0.414063,0 -0.714844,0.144531 -0.898437,0.429687 -0.207032,0.277344 -0.3125,0.652344 -0.3125,1.128907 0,0.542969 0.144531,1.007812 0.433593,1.402343 0.289063,0.378907 0.605469,0.644532 0.953125,0.796876 0.3125,0.148437 0.640625,0.222656 0.984375,0.222656 0.40625,0 0.710938,-0.144532 0.917969,-0.429688 0.199219,-0.289062 0.296875,-0.664062 0.296875,-1.128906 0,-0.542969 -0.144531,-1.007812 -0.433594,-1.402344 -0.289062,-0.367187 -0.601562,-0.632812 -0.933593,-0.796875 -0.335938,-0.148437 -0.671876,-0.222656 -1.007813,-0.222656 z m 0.589844,-0.453125 c 1.246093,0 2.285156,0.242188 3.117187,0.730469 0.84375,0.484375 1.265625,1.054687 1.265625,1.710937 0,0.707032 -0.433593,1.285156 -1.300781,1.734375 -0.863281,0.472657 -1.890625,0.710938 -3.082031,0.710938 -1.222657,0 -2.261719,-0.242188 -3.117188,-0.730469 -0.855469,-0.484375 -1.28125,-1.054688 -1.28125,-1.714844 0,-0.703125 0.4375,-1.28125 1.316407,-1.730468 0.867187,-0.472657 1.894531,-0.710938 3.082031,-0.710938 z m 0,0"
       style="fill:#000000;fill-opacity:1;fill-rule:nonzero;stroke:none" />
    <path
       id="path176"
       d="m 13.097656,19.890624 c 0,0 0.03516,0 0.105469,0 0.04297,-0.01172 0.08594,-0.01562 0.121094,-0.01562 1.292969,0 2.355469,0.453124 3.183594,1.367187 0.832031,0.898437 1.25,1.949219 1.25,3.152344 0,1.488281 -0.621094,2.699219 -1.855469,3.636719 -0.324219,0.253906 -0.742188,0.460937 -1.261719,0.621093 0.05469,0.75 0.08594,1.359375 0.08594,1.820313 0,0.09375 -0.01172,0.425781 -0.03516,1.003906 -0.04687,1.074219 -0.417968,2.003906 -1.109374,2.789062 -0.667969,0.773438 -1.5,1.160157 -2.492188,1.160157 -0.9375,0 -1.7343749,-0.328125 -2.3906249,-0.988281 -0.660156,-0.667969 -0.988281,-1.476563 -0.988281,-2.425782 0,-0.496094 0.191406,-0.917968 0.574218,-1.261718 0.390626,-0.347657 0.847657,-0.519532 1.367188,-0.519532 0.4609379,0 0.8476559,0.179688 1.1601559,0.535156 0.324219,0.335938 0.484375,0.75 0.484375,1.246094 0,0.453125 -0.160156,0.839844 -0.484375,1.160156 -0.324218,0.324219 -0.710937,0.488282 -1.1601559,0.488282 -0.1875,0 -0.363281,-0.03516 -0.539062,-0.105469 0.507812,0.75 1.1835929,1.125 2.0273429,1.125 0.796875,0 1.449219,-0.324219 1.957031,-0.96875 0.53125,-0.671875 0.820313,-1.449219 0.867188,-2.339844 0.02344,-0.550781 0.03516,-0.871093 0.03516,-0.949219 0,-0.648437 -0.02344,-1.179687 -0.07031,-1.59375 -0.578125,0.08984 -1.089844,0.136719 -1.542969,0.136719 -1.605469,0 -2.9726559,-0.632812 -4.1015629,-1.90625 -1.109374,-1.28125 -1.664062,-2.804687 -1.664062,-4.570312 0,-0.371094 0.03516,-0.746094 0.105469,-1.125 0.06641,-0.3125 0.152343,-0.652344 0.257812,-1.023438 0.05859,-0.207031 0.214844,-0.542969 0.46875,-1.003906 0.08984,-0.136719 0.195313,-0.3125 0.3125,-0.519531 0.113281,-0.207032 0.195313,-0.34375 0.242188,-0.414063 0.113281,-0.230469 0.339843,-0.542969 0.671875,-0.9375 0.09375,-0.101562 0.191406,-0.21875 0.289062,-0.34375 0.09766,-0.128906 0.179688,-0.230469 0.25,-0.3125 0.07031,-0.08203 0.121094,-0.144531 0.15625,-0.191406 0.03516,-0.04687 0.292969,-0.351563 0.7773439,-0.917969 0.117188,-0.113281 0.230469,-0.238281 0.339844,-0.371094 0.109375,-0.132812 0.199218,-0.238281 0.269531,-0.3125 0.06641,-0.07422 0.121094,-0.128906 0.152344,-0.164062 -0.414063,-1.375 -0.671875,-2.472656 -0.777344,-3.289062 -0.08203,-0.660157 -0.121094,-1.558594 -0.121094,-2.7031259 0,-1.003906 0.230469,-1.945312 0.691407,-2.824218 0.449218,-0.910156 1.082031,-1.65625 1.886718,-2.234375 0.05859,-0.03125 0.117188,-0.050781 0.175782,-0.050781 0.07812,0 0.136718,0.019531 0.171874,0.050781 0.625,0.753906 1.160157,1.726562 1.609376,2.929687 0.464843,1.199219 0.695312,2.289063 0.695312,3.2734379 0,1.105468 -0.265625,2.144531 -0.796875,3.117187 -0.601563,1.027344 -1.375,2.089844 -2.320313,3.183594 0.242188,0.761719 0.566407,1.957031 0.96875,3.585937 z m 1.472657,8.054688 c 0.601562,-0.222656 1.066406,-0.597656 1.402343,-1.128906 0.371094,-0.507813 0.554688,-1.078125 0.554688,-1.710938 0,-0.820312 -0.277344,-1.550781 -0.832031,-2.183594 C 15.128906,22.261718 14.40625,21.894531 13.53125,21.8125 14.027344,24.25 14.375,26.292968 14.570313,27.945312 Z M 7.8671881,23.941406 c 0,1.144531 0.460937,2.148437 1.386718,3.015625 0.9453129,0.84375 2.0078129,1.265625 3.1874999,1.265625 0.484376,0 0.957032,-0.03516 1.417969,-0.105469 -0.183593,-1.753906 -0.546875,-3.855469 -1.089843,-6.304687 -0.660157,0.07031 -1.183594,0.300781 -1.578126,0.691406 -0.378906,0.40625 -0.570312,0.863281 -0.570312,1.371094 0,0.875 0.46875,1.585937 1.402344,2.128906 0.08203,0.08203 0.121094,0.167968 0.121094,0.261718 0,0.08984 -0.03906,0.175782 -0.121094,0.257813 -0.07031,0.08203 -0.15625,0.121094 -0.257813,0.121094 -0.01172,0 -0.06641,-0.01172 -0.15625,-0.03516 -0.660156,-0.355468 -1.167969,-0.820312 -1.523437,-1.382812 -0.3359379,-0.601562 -0.5039059,-1.207031 -0.5039059,-1.820312 0,-0.796876 0.25,-1.519532 0.7460929,-2.164063 0.519531,-0.648437 1.195313,-1.0625 2.023438,-1.246094 -0.320313,-1.292969 -0.585938,-2.304687 -0.796875,-3.03125 -0.183594,0.207031 -0.40625,0.457031 -0.664063,0.753907 -0.261719,0.292968 -0.414062,0.46875 -0.460937,0.527343 -0.414063,0.542969 -0.7304689,0.964844 -0.9531249,1.265625 -0.390625,0.539063 -0.679688,1.007813 -0.863281,1.402344 -0.195313,0.4375 -0.371094,0.917969 -0.519532,1.4375 -0.152344,0.496094 -0.226562,1.027344 -0.226562,1.589844 z M 13.652344,6.3320311 c -0.867188,0.425781 -1.546875,1.039062 -2.042969,1.835937 -0.507812,0.820313 -0.761719,1.703125 -0.761719,2.6484379 0,0.832031 0.207032,1.949218 0.621094,3.359375 0.832032,-1.003907 1.457032,-1.933594 1.871094,-2.789063 C 13.777344,10.488281 14,9.5468741 14,8.5664061 14,7.8242181 13.882813,7.0820311 13.652344,6.3320311 Z m 0,0"
       style="fill:#000000;fill-opacity:1;fill-rule:nonzero;stroke:none" />
  </g>
</svg>
