<?xml version="1.0" encoding="UTF-8" standalone="no"?>
<svg
   xmlns:dc="http://purl.org/dc/elements/1.1/"
   xmlns:cc="http://creativecommons.org/ns#"
   xmlns:rdf="http://www.w3.org/1999/02/22-rdf-syntax-ns#"
   xmlns:svg="http://www.w3.org/2000/svg"
   xmlns="http://www.w3.org/2000/svg"
   xmlns:sodipodi="http://sodipodi.sourceforge.net/DTD/sodipodi-0.dtd"
   xmlns:inkscape="http://www.inkscape.org/namespaces/inkscape"
   inkscape:version="1.0 (4035a4f, 2020-05-01)"
   sodipodi:docname="chords_2.svg"
   id="svg181"
   version="1.2"
   viewBox="0 0 150 50"
   height="50pt"
   width="150pt">
  <metadata
     id="metadata187">
    <rdf:RDF>
      <cc:Work
         rdf:about="">
        <dc:format>image/svg+xml</dc:format>
        <dc:type
           rdf:resource="http://purl.org/dc/dcmitype/StillImage" />
        <dc:title></dc:title>
      </cc:Work>
    </rdf:RDF>
  </metadata>
  <defs
     id="defs185" />
  <sodipodi:namedview
     inkscape:current-layer="surface3255"
     inkscape:window-maximized="1"
     inkscape:window-y="23"
     inkscape:window-x="0"
     inkscape:cy="255.69214"
     inkscape:cx="365.88965"
     inkscape:zoom="0.77369015"
     showgrid="false"
     id="namedview183"
     inkscape:window-height="855"
     inkscape:window-width="1440"
     inkscape:pageshadow="2"
     inkscape:pageopacity="0"
     guidetolerance="10"
     gridtolerance="10"
     objecttolerance="10"
     borderopacity="1"
     bordercolor="#666666"
     pagecolor="#ffffff" />
  <g
     id="surface3255">
    <path
       id="path16"
       d="M 3.7500001,11.1289 H 64.667969 M 3.7500001,15.56249 H 64.667969 M 3.7500001,19.99609 H 64.667969 M 3.7500001,24.42968 H 64.667969 M 3.7500001,28.86327 H 64.667969"
       style="fill:none;stroke:#000000;stroke-width:0.354671;stroke-linecap:butt;stroke-linejoin:bevel;stroke-miterlimit:10;stroke-opacity:1" />
    <path
       id="path18"
       d="m 105.16016,11.1289 h 40.49218 m -40.49218,4.43359 h 40.49218 m -40.49218,4.4336 h 40.49218 m -40.49218,4.43359 h 40.49218 m -40.49218,4.43359 h 40.49218"
       style="fill:none;stroke:#000000;stroke-width:0.354671;stroke-linecap:butt;stroke-linejoin:bevel;stroke-miterlimit:10;stroke-opacity:1" />
    <path
       id="path20"
       d="m 64.667969,11.1289 h 40.492191 m -40.492191,4.43359 h 40.492191 m -40.492191,4.4336 h 40.492191 m -40.492191,4.43359 h 40.492191 m -40.492191,4.43359 h 40.492191"
       style="fill:none;stroke:#000000;stroke-width:0.354671;stroke-linecap:butt;stroke-linejoin:bevel;stroke-miterlimit:10;stroke-opacity:1" />
    <path
       id="path38"
       d="M 104.80469,11.1289 V 28.86327"
       style="fill:none;stroke:#000000;stroke-width:0.709342;stroke-linecap:butt;stroke-linejoin:bevel;stroke-miterlimit:10;stroke-opacity:1" />
    <path
       id="path40"
       d="M 64.3125,11.1289 V 28.86327"
       style="fill:none;stroke:#000000;stroke-width:0.709342;stroke-linecap:butt;stroke-linejoin:bevel;stroke-miterlimit:10;stroke-opacity:1" />
    <path
       id="path44"
       d="M 145.29688,11.1289 V 28.86327"
       style="fill:none;stroke:#000000;stroke-width:0.709342;stroke-linecap:butt;stroke-linejoin:bevel;stroke-miterlimit:10;stroke-opacity:1" />
    <path
       id="path58"
       d="m 27.296875,28.1328 v 1.3711 c 0,0.48437 0.01953,0.87109 0.06641,1.16015 0.382812,-0.32421 0.652343,-0.5664 0.816406,-0.73046 0.183594,-0.1836 0.367187,-0.4375 0.550781,-0.76172 0.1875,-0.32032 0.277344,-0.64453 0.277344,-0.96875 0,-0.32422 -0.06641,-0.60157 -0.207031,-0.83203 -0.136719,-0.23047 -0.324219,-0.34375 -0.554688,-0.34375 -0.277344,0 -0.507812,0.10156 -0.691406,0.30859 -0.171875,0.23437 -0.257813,0.5 -0.257813,0.79687 z M 26.566406,31.30468 26.34375,20.7578 c 0.160156,-0.0937 0.320313,-0.14062 0.484375,-0.14062 0.160157,0 0.324219,0.0469 0.484375,0.14062 l -0.140625,6.11329 c 0.476563,-0.40625 1.019531,-0.60547 1.628907,-0.60547 0.449218,0 0.828124,0.18359 1.125,0.55078 0.300781,0.37109 0.453124,0.79297 0.453124,1.26562 0,0.30078 -0.09766,0.61719 -0.296874,0.95313 -0.183594,0.3125 -0.378907,0.55469 -0.585938,0.72656 -0.117188,0.0937 -0.410156,0.32422 -0.886719,0.69141 -0.136719,0.10547 -0.300781,0.22656 -0.492187,0.36718 -0.191406,0.13672 -0.308594,0.22266 -0.355469,0.25782 -0.07813,0.0469 -0.15625,0.14062 -0.222656,0.27734 -0.08203,0.11719 -0.175781,0.21484 -0.277344,0.29297 -0.08203,0.0703 -0.179687,0.10547 -0.296875,0.10547 -0.113281,0 -0.207031,-0.0391 -0.277344,-0.1211 -0.07813,-0.082 -0.121094,-0.1914 -0.121094,-0.32812 z m 0,0"
       style="fill:#000000;fill-opacity:1;fill-rule:nonzero;stroke:none" />
    <path
       id="path60"
       d="m 108.27734,12.61718 v 1.36719 c 0,0.48437 0.0234,0.87109 0.0703,1.16015 0.38281,-0.32031 0.65234,-0.5664 0.8125,-0.72656 0.1875,-0.18359 0.37109,-0.4375 0.55468,-0.76172 0.1875,-0.32422 0.27735,-0.64453 0.27735,-0.96875 0,-0.32422 -0.0703,-0.60156 -0.20703,-0.83203 -0.13672,-0.23047 -0.32422,-0.34766 -0.55469,-0.34766 -0.27734,0 -0.50781,0.10547 -0.69141,0.3125 -0.17578,0.23047 -0.26172,0.4961 -0.26172,0.79688 z m -0.72656,3.16797 -0.22656,-10.5468799 c 0.16406,-0.0898 0.32422,-0.13672 0.48828,-0.13672 0.16016,0 0.32031,0.0469 0.48438,0.13672 l -0.14063,6.1132799 c 0.47266,-0.40234 1.01563,-0.60546 1.62891,-0.60546 0.44922,0 0.82422,0.1875 1.125,0.55468 0.30078,0.3711 0.44922,0.79297 0.44922,1.26563 0,0.30078 -0.0977,0.61719 -0.29297,0.95312 -0.1836,0.3086 -0.37891,0.55078 -0.58985,0.72657 -0.11328,0.0898 -0.41015,0.32421 -0.88281,0.6914 -0.13672,0.10547 -0.30078,0.22656 -0.49219,0.36328 -0.1914,0.14063 -0.30859,0.22657 -0.35547,0.26172 -0.082,0.0469 -0.15625,0.13672 -0.22656,0.27735 -0.0781,0.11328 -0.17187,0.21093 -0.27734,0.29296 -0.0781,0.0703 -0.17578,0.10547 -0.29297,0.10547 -0.11328,0 -0.20703,-0.043 -0.27734,-0.12109 -0.082,-0.082 -0.1211,-0.19141 -0.1211,-0.33203 z m 0,0"
       style="fill:#000000;fill-opacity:1;fill-rule:nonzero;stroke:none" />
    <path
       id="path62"
       d="m 67.785156,28.1328 v 1.3711 c 0,0.48437 0.02344,0.87109 0.07031,1.16015 0.382813,-0.32421 0.652344,-0.5664 0.816406,-0.73046 0.183594,-0.1836 0.367188,-0.4375 0.550781,-0.76172 0.1875,-0.32032 0.277344,-0.64453 0.277344,-0.96875 0,-0.32422 -0.06641,-0.60157 -0.207031,-0.83203 -0.136719,-0.23047 -0.324219,-0.34375 -0.554687,-0.34375 -0.277344,0 -0.507813,0.10156 -0.691407,0.30859 -0.171875,0.23437 -0.261719,0.5 -0.261719,0.79687 z M 67.058594,31.30468 66.835938,20.7578 c 0.160156,-0.0937 0.320312,-0.14062 0.484375,-0.14062 0.160156,0 0.320312,0.0469 0.484375,0.14062 l -0.140625,6.11329 c 0.476562,-0.40625 1.015625,-0.60547 1.628906,-0.60547 0.449219,0 0.824219,0.18359 1.125,0.55078 0.300781,0.37109 0.453125,0.79297 0.453125,1.26562 0,0.30078 -0.101562,0.61719 -0.296875,0.95313 -0.183594,0.3125 -0.378906,0.55469 -0.589844,0.72656 -0.113281,0.0937 -0.40625,0.32422 -0.882812,0.69141 -0.136719,0.10547 -0.300781,0.22656 -0.492188,0.36718 -0.191406,0.13672 -0.308593,0.22266 -0.355469,0.25782 -0.08203,0.0469 -0.15625,0.14062 -0.226562,0.27734 -0.07813,0.11719 -0.171875,0.21484 -0.273438,0.29297 -0.08203,0.0703 -0.179687,0.10547 -0.296874,0.10547 -0.113282,0 -0.207032,-0.0391 -0.277344,-0.1211 -0.07813,-0.082 -0.121094,-0.1914 -0.121094,-0.32812 z m 0,0"
       style="fill:#000000;fill-opacity:1;fill-rule:nonzero;stroke:none" />
    <path
       id="path82"
       d="M 30.058594,33.29687 H 41.5"
       style="fill:none;stroke:#000000;stroke-width:0.709342;stroke-linecap:square;stroke-linejoin:bevel;stroke-miterlimit:10;stroke-opacity:1" />
    <path
       id="path104"
       d="m 35.199219,22.43749 c -0.417969,0 -0.71875,0.14453 -0.902344,0.4336 -0.207031,0.27734 -0.3125,0.65234 -0.3125,1.125 0,0.54296 0.144531,1.00781 0.433594,1.40234 0.289063,0.37891 0.605469,0.64453 0.953125,0.79687 0.3125,0.14844 0.640625,0.22266 0.988281,0.22266 0.402344,0 0.710938,-0.14062 0.917969,-0.42969 0.195312,-0.28906 0.292969,-0.66406 0.292969,-1.1289 0,-0.53907 -0.144531,-1.00782 -0.433594,-1.40235 -0.289063,-0.36718 -0.597656,-0.63281 -0.933594,-0.79687 -0.335937,-0.14844 -0.671875,-0.22266 -1.003906,-0.22266 z m 0.585937,-0.44922 c 1.25,0 2.289063,0.24219 3.117188,0.72657 0.84375,0.48437 1.265625,1.05468 1.265625,1.71484 0,0.70312 -0.433594,1.28125 -1.296875,1.73047 -0.867188,0.47265 -1.894531,0.71094 -3.085938,0.71094 -1.222656,0 -2.261718,-0.24219 -3.117187,-0.72657 -0.851563,-0.48828 -1.28125,-1.05859 -1.28125,-1.71484 0,-0.70703 0.441406,-1.28125 1.316406,-1.73438 0.867188,-0.47265 1.894531,-0.70703 3.082031,-0.70703 z m 0,0"
       style="fill:#000000;fill-opacity:1;fill-rule:nonzero;stroke:none" />
    <path
       id="path106"
       d="m 35.199219,26.87109 c -0.417969,0 -0.71875,0.14453 -0.902344,0.43359 -0.207031,0.27344 -0.3125,0.65234 -0.3125,1.125 0,0.54297 0.144531,1.00781 0.433594,1.40234 0.289063,0.37891 0.605469,0.64453 0.953125,0.79688 0.3125,0.14844 0.640625,0.22265 0.988281,0.22265 0.402344,0 0.710938,-0.14453 0.917969,-0.42968 0.195312,-0.28907 0.292969,-0.66407 0.292969,-1.12891 0,-0.54297 -0.144531,-1.00781 -0.433594,-1.40234 C 36.847656,27.52343 36.539063,27.2578 36.203125,27.09374 35.867188,26.9453 35.53125,26.87109 35.199219,26.87109 Z m 0.585937,-0.45313 c 1.25,0 2.289063,0.24609 3.117188,0.73047 0.84375,0.48437 1.265625,1.05469 1.265625,1.71484 0,0.70313 -0.433594,1.28125 -1.296875,1.73047 -0.867188,0.47266 -1.894531,0.71094 -3.085938,0.71094 -1.222656,0 -2.261718,-0.24219 -3.117187,-0.73047 -0.851563,-0.48437 -1.28125,-1.05469 -1.28125,-1.71094 0,-0.70703 0.441406,-1.28515 1.316406,-1.73437 0.867188,-0.47266 1.894531,-0.71094 3.082031,-0.71094 z m 0,0"
       style="fill:#000000;fill-opacity:1;fill-rule:nonzero;stroke:none" />
    <path
       id="path108"
       d="m 35.199219,31.30468 c -0.417969,0 -0.71875,0.14453 -0.902344,0.43359 -0.207031,0.27344 -0.3125,0.64844 -0.3125,1.125 0,0.54297 0.144531,1.00782 0.433594,1.40235 0.289063,0.3789 0.605469,0.64453 0.953125,0.79687 0.3125,0.14844 0.640625,0.22266 0.988281,0.22266 0.402344,0 0.710938,-0.14453 0.917969,-0.42969 0.195312,-0.28906 0.292969,-0.66406 0.292969,-1.12891 0,-0.54296 -0.144531,-1.00781 -0.433594,-1.40234 C 36.847656,31.95702 36.539063,31.6914 36.203125,31.52734 35.867188,31.3789 35.53125,31.30468 35.199219,31.30468 Z m 0.585937,-0.45313 c 1.25,0 2.289063,0.24219 3.117188,0.73047 0.84375,0.48438 1.265625,1.05469 1.265625,1.71485 0,0.70312 -0.433594,1.28125 -1.296875,1.73047 -0.867188,0.47265 -1.894531,0.71093 -3.085938,0.71093 -1.222656,0 -2.261718,-0.24218 -3.117187,-0.73047 -0.851563,-0.48437 -1.28125,-1.05468 -1.28125,-1.71093 0,-0.70703 0.441406,-1.28516 1.316406,-1.73438 0.867188,-0.47265 1.894531,-0.71094 3.082031,-0.71094 z m 0,0"
       style="fill:#000000;fill-opacity:1;fill-rule:nonzero;stroke:none" />
    <path
       id="path120"
       d="m 116.18359,11.35155 c -0.41796,0 -0.71875,0.14454 -0.90234,0.4336 -0.20703,0.27734 -0.3125,0.65234 -0.3125,1.125 0,0.54297 0.14453,1.01172 0.43359,1.40625 0.28907,0.3789 0.60547,0.64453 0.95313,0.79297 0.3125,0.15234 0.64062,0.22656 0.98828,0.22656 0.40234,0 0.70703,-0.14453 0.91797,-0.43359 0.19531,-0.28907 0.29297,-0.66407 0.29297,-1.125 0,-0.54297 -0.14453,-1.01172 -0.4336,-1.40235 -0.28906,-0.37109 -0.60156,-0.63672 -0.93359,-0.79687 -0.33594,-0.14844 -0.67187,-0.22657 -1.00391,-0.22657 z m 0.58594,-0.44921 c 1.2461,0 2.28516,0.24218 3.11719,0.72656 0.84375,0.48437 1.26562,1.05859 1.26562,1.71484 0,0.70703 -0.43359,1.28125 -1.30078,1.73438 -0.86328,0.47265 -1.89062,0.70703 -3.08203,0.70703 -1.22265,0 -2.26172,-0.24219 -3.11719,-0.72656 -0.85156,-0.48438 -1.28125,-1.05469 -1.28125,-1.71485 0,-0.70312 0.44141,-1.28125 1.31641,-1.73047 0.86719,-0.47265 1.89453,-0.71093 3.08203,-0.71093 z m 0,0"
       style="fill:#000000;fill-opacity:1;fill-rule:nonzero;stroke:none" />
    <path
       id="path122"
       d="m 116.18359,15.78515 c -0.41796,0 -0.71875,0.14453 -0.90234,0.43359 -0.20703,0.27735 -0.3125,0.65235 -0.3125,1.125 0,0.54297 0.14453,1.01172 0.43359,1.40235 0.28907,0.38281 0.60547,0.64843 0.95313,0.79687 0.3125,0.15234 0.64062,0.22656 0.98828,0.22656 0.40234,0 0.70703,-0.14453 0.91797,-0.43359 0.19531,-0.28906 0.29297,-0.66406 0.29297,-1.125 0,-0.54297 -0.14453,-1.01172 -0.4336,-1.40234 -0.28906,-0.3711 -0.60156,-0.63672 -0.93359,-0.79688 -0.33594,-0.14844 -0.67187,-0.22656 -1.00391,-0.22656 z m 0.58594,-0.44922 c 1.2461,0 2.28516,0.24219 3.11719,0.72656 0.84375,0.48438 1.26562,1.0586 1.26562,1.71485 0,0.70312 -0.43359,1.28125 -1.30078,1.73437 -0.86328,0.47266 -1.89062,0.70703 -3.08203,0.70703 -1.22265,0 -2.26172,-0.24219 -3.11719,-0.72656 -0.85156,-0.48438 -1.28125,-1.05469 -1.28125,-1.71484 0,-0.70313 0.44141,-1.28125 1.31641,-1.73047 0.86719,-0.47266 1.89453,-0.71094 3.08203,-0.71094 z m 0,0"
       style="fill:#000000;fill-opacity:1;fill-rule:nonzero;stroke:none" />
    <path
       id="path124"
       d="m 116.18359,22.43749 c -0.41796,0 -0.71875,0.14453 -0.90234,0.4336 -0.20703,0.27734 -0.3125,0.65234 -0.3125,1.125 0,0.54296 0.14453,1.00781 0.43359,1.40234 0.28907,0.37891 0.60547,0.64453 0.95313,0.79687 0.3125,0.14844 0.64062,0.22266 0.98828,0.22266 0.40234,0 0.70703,-0.14062 0.91797,-0.42969 0.19531,-0.28906 0.29297,-0.66406 0.29297,-1.1289 0,-0.53907 -0.14453,-1.00782 -0.4336,-1.40235 -0.28906,-0.36718 -0.60156,-0.63281 -0.93359,-0.79687 -0.33594,-0.14844 -0.67187,-0.22266 -1.00391,-0.22266 z m 0.58594,-0.44922 c 1.2461,0 2.28516,0.24219 3.11719,0.72657 0.84375,0.48437 1.26562,1.05468 1.26562,1.71484 0,0.70312 -0.43359,1.28125 -1.30078,1.73047 -0.86328,0.47265 -1.89062,0.71094 -3.08203,0.71094 -1.22265,0 -2.26172,-0.24219 -3.11719,-0.72657 -0.85156,-0.48828 -1.28125,-1.05859 -1.28125,-1.71484 0,-0.70703 0.44141,-1.28125 1.31641,-1.73438 0.86719,-0.47265 1.89453,-0.70703 3.08203,-0.70703 z m 0,0"
       style="fill:#000000;fill-opacity:1;fill-rule:nonzero;stroke:none" />
    <path
       id="path126"
       d="m 75.691406,15.78515 c -0.417968,0 -0.71875,0.14453 -0.902343,0.43359 -0.207031,0.27735 -0.3125,0.65235 -0.3125,1.125 0,0.54297 0.144531,1.01172 0.433593,1.40235 0.289063,0.38281 0.605469,0.64843 0.953126,0.79687 0.3125,0.15234 0.640624,0.22656 0.988281,0.22656 0.402343,0 0.707031,-0.14453 0.917969,-0.43359 0.195312,-0.28906 0.292968,-0.66406 0.292968,-1.125 0,-0.54297 -0.144531,-1.01172 -0.433594,-1.40234 -0.289062,-0.3711 -0.601562,-0.63672 -0.933593,-0.79688 -0.335938,-0.14844 -0.671875,-0.22656 -1.003907,-0.22656 z m 0.585938,-0.44922 c 1.25,0 2.289062,0.24219 3.117188,0.72656 0.84375,0.48438 1.265624,1.0586 1.265624,1.71485 0,0.70312 -0.433593,1.28125 -1.296874,1.73437 -0.867188,0.47266 -1.894532,0.70703 -3.085938,0.70703 -1.222656,0 -2.261719,-0.24219 -3.117188,-0.72656 -0.851562,-0.48438 -1.28125,-1.05469 -1.28125,-1.71484 0,-0.70313 0.441407,-1.28125 1.316407,-1.73047 0.867187,-0.47266 1.894531,-0.71094 3.082031,-0.71094 z m 0,0"
       style="fill:#000000;fill-opacity:1;fill-rule:nonzero;stroke:none" />
    <path
       id="path128"
       d="m 75.691406,22.43749 c -0.417968,0 -0.71875,0.14453 -0.902343,0.4336 -0.207031,0.27734 -0.3125,0.65234 -0.3125,1.125 0,0.54296 0.144531,1.00781 0.433593,1.40234 0.289063,0.37891 0.605469,0.64453 0.953126,0.79687 0.3125,0.14844 0.640624,0.22266 0.988281,0.22266 0.402343,0 0.707031,-0.14062 0.917969,-0.42969 0.195312,-0.28906 0.292968,-0.66406 0.292968,-1.1289 0,-0.53907 -0.144531,-1.00782 -0.433594,-1.40235 -0.289062,-0.36718 -0.601562,-0.63281 -0.933593,-0.79687 -0.335938,-0.14844 -0.671875,-0.22266 -1.003907,-0.22266 z m 0.585938,-0.44922 c 1.25,0 2.289062,0.24219 3.117188,0.72657 0.84375,0.48437 1.265624,1.05468 1.265624,1.71484 0,0.70312 -0.433593,1.28125 -1.296874,1.73047 -0.867188,0.47265 -1.894532,0.71094 -3.085938,0.71094 -1.222656,0 -2.261719,-0.24219 -3.117188,-0.72657 -0.851562,-0.48828 -1.28125,-1.05859 -1.28125,-1.71484 0,-0.70703 0.441407,-1.28125 1.316407,-1.73438 0.867187,-0.47265 1.894531,-0.70703 3.082031,-0.70703 z m 0,0"
       style="fill:#000000;fill-opacity:1;fill-rule:nonzero;stroke:none" />
    <path
       id="path130"
       d="m 75.691406,26.87109 c -0.417968,0 -0.71875,0.14453 -0.902343,0.43359 -0.207031,0.27344 -0.3125,0.65234 -0.3125,1.125 0,0.54297 0.144531,1.00781 0.433593,1.40234 0.289063,0.37891 0.605469,0.64453 0.953126,0.79688 0.3125,0.14844 0.640624,0.22265 0.988281,0.22265 0.402343,0 0.707031,-0.14453 0.917969,-0.42968 0.195312,-0.28907 0.292968,-0.66407 0.292968,-1.12891 0,-0.54297 -0.144531,-1.00781 -0.433594,-1.40234 -0.289062,-0.36719 -0.601562,-0.63282 -0.933593,-0.79688 -0.335938,-0.14844 -0.671875,-0.22265 -1.003907,-0.22265 z m 0.585938,-0.45313 c 1.25,0 2.289062,0.24609 3.117188,0.73047 0.84375,0.48437 1.265624,1.05469 1.265624,1.71484 0,0.70313 -0.433593,1.28125 -1.296874,1.73047 -0.867188,0.47266 -1.894532,0.71094 -3.085938,0.71094 -1.222656,0 -2.261719,-0.24219 -3.117188,-0.73047 -0.851562,-0.48437 -1.28125,-1.05469 -1.28125,-1.71094 0,-0.70703 0.441407,-1.28515 1.316407,-1.73437 0.867187,-0.47266 1.894531,-0.71094 3.082031,-0.71094 z m 0,0"
       style="fill:#000000;fill-opacity:1;fill-rule:nonzero;stroke:none" />
    <path
       id="path174"
       d="m 13.097656,19.89062 c 0,0 0.03516,0 0.105469,0 0.04297,-0.0117 0.08594,-0.0156 0.121094,-0.0156 1.292969,0 2.355469,0.45313 3.183594,1.36719 0.832031,0.89844 1.25,1.94922 1.25,3.15234 0,1.48828 -0.621094,2.69922 -1.855469,3.63672 -0.324219,0.25391 -0.742188,0.46094 -1.261719,0.6211 0.05469,0.75 0.08594,1.35937 0.08594,1.82031 0,0.0937 -0.01172,0.42578 -0.03516,1.0039 -0.04687,1.07422 -0.417968,2.00391 -1.109374,2.78907 -0.667969,0.77343 -1.5,1.16015 -2.492188,1.16015 -0.9375,0 -1.7343749,-0.32812 -2.3906249,-0.98828 -0.660156,-0.66797 -0.988281,-1.47656 -0.988281,-2.42578 0,-0.49609 0.191406,-0.91797 0.574218,-1.26172 0.390626,-0.34765 0.847657,-0.51953 1.367188,-0.51953 0.4609379,0 0.8476559,0.17969 1.1601559,0.53516 0.324219,0.33593 0.484375,0.75 0.484375,1.24609 0,0.45313 -0.160156,0.83984 -0.484375,1.16016 -0.324218,0.32422 -0.710937,0.48828 -1.1601559,0.48828 -0.1875,0 -0.363281,-0.0352 -0.539062,-0.10547 0.507812,0.75 1.1835929,1.125 2.0273429,1.125 0.796875,0 1.449219,-0.32422 1.957031,-0.96875 0.53125,-0.67188 0.820313,-1.44922 0.867188,-2.33984 0.02344,-0.55079 0.03516,-0.8711 0.03516,-0.94922 0,-0.64844 -0.02344,-1.17969 -0.07031,-1.59375 -0.578125,0.0898 -1.089844,0.13672 -1.542969,0.13672 -1.605469,0 -2.9726559,-0.63282 -4.1015629,-1.90625 -1.109374,-1.28125 -1.664062,-2.80469 -1.664062,-4.57032 0,-0.37109 0.035156,-0.74609 0.105469,-1.125 0.066406,-0.3125 0.152343,-0.65234 0.257812,-1.02343 0.058594,-0.20704 0.214844,-0.54297 0.46875,-1.00391 0.089844,-0.13672 0.195313,-0.3125 0.3125,-0.51953 0.113281,-0.20703 0.195313,-0.34375 0.242188,-0.41406 0.113281,-0.23047 0.339843,-0.54297 0.671875,-0.9375 0.09375,-0.10157 0.191406,-0.21875 0.289062,-0.34375 0.097656,-0.12891 0.179688,-0.23047 0.25,-0.3125 0.070313,-0.082 0.121094,-0.14454 0.15625,-0.19141 0.035156,-0.0469 0.292969,-0.35156 0.7773439,-0.91797 0.117188,-0.11328 0.230469,-0.23828 0.339844,-0.37109 0.109375,-0.13282 0.199218,-0.23828 0.269531,-0.3125 0.06641,-0.0742 0.121094,-0.12891 0.152344,-0.16407 -0.414063,-1.375 -0.671875,-2.47265 -0.777344,-3.28906 -0.08203,-0.66015 -0.121094,-1.55859 -0.121094,-2.7031199 0,-1.00391 0.230469,-1.94532 0.691407,-2.82422 0.449218,-0.91016 1.082031,-1.65625 1.886718,-2.23438 0.05859,-0.0312 0.117188,-0.0508 0.175782,-0.0508 0.07812,0 0.136718,0.0195 0.171874,0.0508 0.625,0.75391 1.160157,1.72657 1.609376,2.92969 0.464843,1.19922 0.695312,2.28906 0.695312,3.2734399 0,1.10547 -0.265625,2.14453 -0.796875,3.11719 -0.601563,1.02734 -1.375,2.08984 -2.320313,3.18359 0.242188,0.76172 0.566407,1.95703 0.96875,3.58594 z m 1.472657,8.05468 c 0.601562,-0.22265 1.066406,-0.59765 1.402343,-1.1289 0.371094,-0.50781 0.554688,-1.07813 0.554688,-1.71094 0,-0.82031 -0.277344,-1.55078 -0.832031,-2.18359 -0.566407,-0.66016 -1.289063,-1.02735 -2.164063,-1.10938 0.496094,2.4375 0.84375,4.48047 1.039063,6.13281 z M 7.8671881,23.9414 c 0,1.14453 0.460937,2.14844 1.386718,3.01562 0.9453129,0.84375 2.0078129,1.26563 3.1874999,1.26563 0.484376,0 0.957032,-0.0352 1.417969,-0.10547 -0.183593,-1.75391 -0.546875,-3.85547 -1.089843,-6.30469 -0.660157,0.0703 -1.183594,0.30078 -1.578126,0.69531 -0.378906,0.40235 -0.570312,0.85938 -0.570312,1.36719 0,0.875 0.46875,1.58594 1.402344,2.12891 0.08203,0.082 0.121094,0.16797 0.121094,0.26172 0,0.0898 -0.03906,0.17578 -0.121094,0.25781 -0.07031,0.082 -0.15625,0.12109 -0.257813,0.12109 -0.01172,0 -0.06641,-0.0117 -0.15625,-0.0352 C 10.949219,26.25385 10.441406,25.789 10.085938,25.2265 9.7500001,24.62494 9.5820321,24.01947 9.5820321,23.40619 c 0,-0.79687 0.25,-1.51953 0.7460929,-2.16406 0.519531,-0.64844 1.195313,-1.0625 2.023438,-1.24609 -0.320313,-1.29297 -0.585938,-2.30469 -0.796875,-3.03125 -0.183594,0.20703 -0.40625,0.45703 -0.664063,0.7539 -0.261719,0.29297 -0.414062,0.46875 -0.460937,0.52735 -0.414063,0.54296 -0.7304689,0.96484 -0.9531249,1.26562 -0.390625,0.53906 -0.679688,1.00781 -0.863281,1.40234 -0.195313,0.4375 -0.371094,0.91797 -0.519532,1.4375 -0.152344,0.4961 -0.226562,1.02735 -0.226562,1.58985 z M 13.652344,6.3320201 c -0.867188,0.42578 -1.546875,1.03907 -2.042969,1.83594 -0.507812,0.82031 -0.761719,1.70313 -0.761719,2.6484399 0,0.83203 0.207032,1.94922 0.621094,3.35937 0.832032,-1.0039 1.457032,-1.93359 1.871094,-2.78906 C 13.777344,10.48827 14,9.5468701 14,8.5664001 c 0,-0.74219 -0.117187,-1.48438 -0.347656,-2.23438 z m 0,0"
       style="fill:#000000;fill-opacity:1;fill-rule:nonzero;stroke:none" />
  </g>
</svg>
