<?xml version="1.0" encoding="UTF-8" standalone="no"?>
<svg
   xmlns:dc="http://purl.org/dc/elements/1.1/"
   xmlns:cc="http://creativecommons.org/ns#"
   xmlns:rdf="http://www.w3.org/1999/02/22-rdf-syntax-ns#"
   xmlns:svg="http://www.w3.org/2000/svg"
   xmlns="http://www.w3.org/2000/svg"
   xmlns:sodipodi="http://sodipodi.sourceforge.net/DTD/sodipodi-0.dtd"
   xmlns:inkscape="http://www.inkscape.org/namespaces/inkscape"
   inkscape:version="1.0 (4035a4f, 2020-05-01)"
   sodipodi:docname="chords_types_4.svg"
   id="svg49"
   version="1.2"
   viewBox="0 0 100 50"
   height="50pt"
   width="100pt">
  <metadata
     id="metadata55">
    <rdf:RDF>
      <cc:Work
         rdf:about="">
        <dc:format>image/svg+xml</dc:format>
        <dc:type
           rdf:resource="http://purl.org/dc/dcmitype/StillImage" />
        <dc:title></dc:title>
      </cc:Work>
    </rdf:RDF>
  </metadata>
  <defs
     id="defs53" />
  <sodipodi:namedview
     inkscape:current-layer="svg49"
     inkscape:window-maximized="0"
     inkscape:window-y="23"
     inkscape:window-x="0"
     inkscape:cy="33.333333"
     inkscape:cx="66.666667"
     inkscape:zoom="9.5925"
     showgrid="false"
     id="namedview51"
     inkscape:window-height="480"
     inkscape:window-width="741"
     inkscape:pageshadow="2"
     inkscape:pageopacity="0"
     guidetolerance="10"
     gridtolerance="10"
     objecttolerance="10"
     borderopacity="1"
     bordercolor="#666666"
     pagecolor="#ffffff" />
  <g
     id="surface3695">
    <path
       id="path10"
       d="M 3.75 11.128906 L 49.828125 11.128906 M 3.75 15.5625 L 49.828125 15.5625 M 3.75 19.996094 L 49.828125 19.996094 M 3.75 24.429688 L 49.828125 24.429688 M 3.75 28.863281 L 49.828125 28.863281 "
       style="fill:none;stroke-width:0.354671;stroke-linecap:butt;stroke-linejoin:bevel;stroke:rgb(0%,0%,0%);stroke-opacity:1;stroke-miterlimit:10;" />
    <path
       id="path12"
       d="M 49.828125 11.128906 L 85.46875 11.128906 M 49.828125 15.5625 L 85.46875 15.5625 M 49.828125 19.996094 L 85.46875 19.996094 M 49.828125 24.429688 L 85.46875 24.429688 M 49.828125 28.863281 L 85.46875 28.863281 "
       style="fill:none;stroke-width:0.354671;stroke-linecap:butt;stroke-linejoin:bevel;stroke:rgb(0%,0%,0%);stroke-opacity:1;stroke-miterlimit:10;" />
    <path
       id="path14"
       d="M 49.472656 11.128906 L 49.472656 28.863281 "
       style="fill:none;stroke-width:0.709342;stroke-linecap:butt;stroke-linejoin:bevel;stroke:rgb(0%,0%,0%);stroke-opacity:1;stroke-miterlimit:10;" />
    <path
       id="path16"
       d="M 85.113281 11.128906 L 85.113281 28.863281 "
       style="fill:none;stroke-width:0.709342;stroke-linecap:butt;stroke-linejoin:bevel;stroke:rgb(0%,0%,0%);stroke-opacity:1;stroke-miterlimit:10;" />
    <path
       id="path18"
       d="M 27.296875 19.265625 L 27.296875 20.636719 C 27.296875 21.121094 27.316406 21.507812 27.363281 21.796875 C 27.746094 21.472656 28.015625 21.230469 28.179688 21.070312 C 28.363281 20.882812 28.546875 20.628906 28.730469 20.304688 C 28.917969 19.984375 29.007812 19.660156 29.007812 19.335938 C 29.007812 19.011719 28.941406 18.738281 28.800781 18.503906 C 28.664062 18.273438 28.476562 18.160156 28.246094 18.160156 C 27.96875 18.160156 27.738281 18.261719 27.554688 18.472656 C 27.382812 18.703125 27.296875 18.96875 27.296875 19.265625 Z M 26.566406 22.4375 L 26.34375 11.890625 C 26.503906 11.796875 26.664062 11.75 26.828125 11.75 C 26.988281 11.75 27.152344 11.796875 27.3125 11.890625 L 27.171875 18.003906 C 27.648438 17.597656 28.191406 17.398438 28.800781 17.398438 C 29.25 17.398438 29.628906 17.582031 29.925781 17.953125 C 30.226562 18.320312 30.378906 18.742188 30.378906 19.214844 C 30.378906 19.515625 30.28125 19.832031 30.082031 20.167969 C 29.898438 20.480469 29.703125 20.722656 29.496094 20.894531 C 29.378906 20.988281 29.085938 21.21875 28.609375 21.589844 C 28.472656 21.691406 28.308594 21.8125 28.117188 21.953125 C 27.925781 22.089844 27.808594 22.175781 27.761719 22.210938 C 27.683594 22.257812 27.605469 22.351562 27.539062 22.488281 C 27.457031 22.605469 27.363281 22.703125 27.261719 22.78125 C 27.179688 22.851562 27.082031 22.886719 26.964844 22.886719 C 26.851562 22.886719 26.757812 22.847656 26.6875 22.765625 C 26.609375 22.683594 26.566406 22.574219 26.566406 22.4375 Z M 26.566406 22.4375 "
       style=" stroke:none;fill-rule:nonzero;fill:rgb(0%,0%,0%);fill-opacity:1;" />
    <path
       id="path20"
       d="M 62.984375 19.265625 L 62.949219 20.636719 C 62.949219 21.121094 62.972656 21.507812 63.015625 21.796875 C 64.042969 20.929688 64.558594 20.109375 64.558594 19.335938 C 64.558594 19 64.5 18.726562 64.386719 18.503906 C 64.257812 18.273438 64.078125 18.160156 63.847656 18.160156 C 63.582031 18.160156 63.375 18.261719 63.226562 18.472656 C 63.085938 18.679688 63.003906 18.945312 62.984375 19.265625 Z M 62.21875 22.4375 L 62.167969 20.566406 C 61.914062 20.867188 61.589844 21.183594 61.199219 21.519531 C 60.792969 21.875 60.539062 22.109375 60.4375 22.210938 C 60.390625 22.257812 60.332031 22.351562 60.261719 22.488281 C 60.148438 22.648438 60.066406 22.75 60.019531 22.78125 C 59.929688 22.851562 59.835938 22.886719 59.742188 22.886719 C 59.628906 22.886719 59.535156 22.847656 59.46875 22.765625 C 59.386719 22.683594 59.347656 22.574219 59.347656 22.4375 L 59.121094 11.890625 C 59.28125 11.796875 59.445312 11.75 59.605469 11.75 C 59.765625 11.75 59.929688 11.796875 60.089844 11.890625 L 59.953125 18.003906 C 60.285156 17.597656 60.703125 17.398438 61.199219 17.398438 C 61.558594 17.398438 61.863281 17.523438 62.117188 17.777344 L 61.996094 11.890625 C 62.15625 11.796875 62.320312 11.75 62.480469 11.75 C 62.640625 11.75 62.804688 11.796875 62.964844 11.890625 L 62.84375 18.003906 C 63.316406 17.597656 63.832031 17.398438 64.386719 17.398438 C 64.847656 17.398438 65.238281 17.574219 65.5625 17.933594 C 65.875 18.292969 66.03125 18.714844 66.03125 19.199219 C 66.03125 19.519531 65.933594 19.84375 65.734375 20.167969 C 65.527344 20.480469 65.332031 20.714844 65.148438 20.878906 C 64.949219 21.039062 64.652344 21.269531 64.246094 21.570312 C 63.921875 21.8125 63.644531 22.027344 63.414062 22.210938 C 63.378906 22.234375 63.3125 22.320312 63.207031 22.472656 C 63.125 22.585938 63.035156 22.683594 62.929688 22.765625 C 62.851562 22.847656 62.75 22.886719 62.636719 22.886719 C 62.53125 22.886719 62.433594 22.839844 62.339844 22.75 C 62.261719 22.667969 62.21875 22.5625 62.21875 22.4375 Z M 59.898438 20.636719 C 59.898438 21.027344 59.929688 21.425781 59.988281 21.832031 C 60.816406 21.023438 61.234375 20.191406 61.234375 19.335938 C 61.234375 18.550781 61.039062 18.160156 60.644531 18.160156 C 60.183594 18.160156 59.945312 18.527344 59.933594 19.265625 Z M 59.898438 20.636719 "
       style=" stroke:none;fill-rule:nonzero;fill:rgb(0%,0%,0%);fill-opacity:1;" />
    <path
       id="path22"
       d="M 52.949219 23.699219 L 52.949219 25.070312 C 52.949219 25.554688 52.972656 25.941406 53.019531 26.230469 C 53.398438 25.90625 53.667969 25.664062 53.832031 25.5 C 54.015625 25.316406 54.199219 25.0625 54.386719 24.738281 C 54.570312 24.417969 54.664062 24.09375 54.664062 23.769531 C 54.664062 23.445312 54.59375 23.167969 54.453125 22.9375 C 54.316406 22.707031 54.132812 22.59375 53.902344 22.59375 C 53.625 22.59375 53.394531 22.695312 53.207031 22.902344 C 53.035156 23.136719 52.949219 23.402344 52.949219 23.699219 Z M 52.222656 26.871094 L 51.996094 16.324219 C 52.15625 16.230469 52.320312 16.183594 52.480469 16.183594 C 52.640625 16.183594 52.804688 16.230469 52.964844 16.324219 L 52.828125 22.4375 C 53.300781 22.03125 53.84375 21.832031 54.453125 21.832031 C 54.90625 21.832031 55.28125 22.015625 55.582031 22.382812 C 55.878906 22.753906 56.03125 23.175781 56.03125 23.648438 C 56.03125 23.949219 55.933594 24.265625 55.738281 24.601562 C 55.550781 24.914062 55.355469 25.15625 55.148438 25.328125 C 55.03125 25.421875 54.738281 25.652344 54.265625 26.019531 C 54.125 26.125 53.960938 26.246094 53.769531 26.386719 C 53.582031 26.523438 53.460938 26.609375 53.414062 26.644531 C 53.335938 26.691406 53.261719 26.785156 53.191406 26.921875 C 53.109375 27.039062 53.019531 27.136719 52.914062 27.214844 C 52.832031 27.285156 52.734375 27.320312 52.621094 27.320312 C 52.503906 27.320312 52.410156 27.28125 52.34375 27.199219 C 52.261719 27.117188 52.222656 27.007812 52.222656 26.871094 Z M 52.222656 26.871094 "
       style=" stroke:none;fill-rule:nonzero;fill:rgb(0%,0%,0%);fill-opacity:1;" />
    <path
       id="path24"
       d="M 57.855469 28.132812 L 57.855469 29.503906 C 57.855469 29.988281 57.878906 30.375 57.925781 30.664062 C 58.304688 30.339844 58.578125 30.097656 58.738281 29.933594 C 58.921875 29.75 59.109375 29.496094 59.292969 29.171875 C 59.476562 28.851562 59.570312 28.527344 59.570312 28.203125 C 59.570312 27.878906 59.5 27.601562 59.363281 27.371094 C 59.222656 27.140625 59.039062 27.027344 58.808594 27.027344 C 58.53125 27.027344 58.300781 27.128906 58.117188 27.335938 C 57.941406 27.570312 57.855469 27.835938 57.855469 28.132812 Z M 57.128906 31.304688 L 56.902344 20.757812 C 57.066406 20.664062 57.226562 20.617188 57.386719 20.617188 C 57.550781 20.617188 57.710938 20.664062 57.871094 20.757812 L 57.734375 26.871094 C 58.207031 26.464844 58.75 26.265625 59.363281 26.265625 C 59.8125 26.265625 60.1875 26.449219 60.488281 26.816406 C 60.789062 27.1875 60.9375 27.609375 60.9375 28.082031 C 60.9375 28.382812 60.839844 28.699219 60.644531 29.035156 C 60.460938 29.347656 60.261719 29.589844 60.054688 29.761719 C 59.941406 29.855469 59.644531 30.085938 59.171875 30.453125 C 59.03125 30.558594 58.867188 30.679688 58.679688 30.820312 C 58.488281 30.957031 58.371094 31.042969 58.324219 31.078125 C 58.242188 31.125 58.167969 31.21875 58.097656 31.355469 C 58.015625 31.472656 57.925781 31.570312 57.820312 31.648438 C 57.738281 31.71875 57.640625 31.753906 57.527344 31.753906 C 57.410156 31.753906 57.320312 31.714844 57.25 31.632812 C 57.167969 31.550781 57.128906 31.441406 57.128906 31.304688 Z M 57.128906 31.304688 "
       style=" stroke:none;fill-rule:nonzero;fill:rgb(0%,0%,0%);fill-opacity:1;" />
    <path
       id="path26"
       d="M 30.058594 33.296875 L 41.5 33.296875 "
       style="fill:none;stroke-width:0.709342;stroke-linecap:square;stroke-linejoin:bevel;stroke:rgb(0%,0%,0%);stroke-opacity:1;stroke-miterlimit:10;" />
    <path
       id="path28"
       d="M 65.699219 33.296875 L 77.136719 33.296875 "
       style="fill:none;stroke-width:0.709342;stroke-linecap:square;stroke-linejoin:bevel;stroke:rgb(0%,0%,0%);stroke-opacity:1;stroke-miterlimit:10;" />
    <path
       id="path30"
       d="M 35.199219 18.003906 C 34.78125 18.003906 34.480469 18.148438 34.296875 18.4375 C 34.089844 18.714844 33.984375 19.089844 33.984375 19.5625 C 33.984375 20.105469 34.128906 20.570312 34.417969 20.964844 C 34.707031 21.34375 35.023438 21.609375 35.371094 21.761719 C 35.683594 21.910156 36.011719 21.988281 36.359375 21.988281 C 36.761719 21.988281 37.070312 21.84375 37.277344 21.554688 C 37.472656 21.265625 37.570312 20.890625 37.570312 20.429688 C 37.570312 19.886719 37.425781 19.417969 37.136719 19.023438 C 36.847656 18.65625 36.539062 18.390625 36.203125 18.226562 C 35.867188 18.078125 35.53125 18.003906 35.199219 18.003906 Z M 35.785156 17.554688 C 37.035156 17.554688 38.074219 17.796875 38.902344 18.28125 C 39.746094 18.765625 40.167969 19.335938 40.167969 19.996094 C 40.167969 20.699219 39.734375 21.277344 38.871094 21.726562 C 38.003906 22.199219 36.976562 22.4375 35.785156 22.4375 C 34.5625 22.4375 33.523438 22.195312 32.667969 21.710938 C 31.816406 21.222656 31.386719 20.652344 31.386719 19.996094 C 31.386719 19.289062 31.828125 18.714844 32.703125 18.261719 C 33.570312 17.789062 34.597656 17.554688 35.785156 17.554688 Z M 35.785156 17.554688 "
       style=" stroke:none;fill-rule:nonzero;fill:rgb(0%,0%,0%);fill-opacity:1;" />
    <path
       id="path32"
       d="M 35.199219 22.4375 C 34.78125 22.4375 34.480469 22.582031 34.296875 22.871094 C 34.089844 23.148438 33.984375 23.523438 33.984375 23.996094 C 33.984375 24.539062 34.128906 25.003906 34.417969 25.398438 C 34.707031 25.777344 35.023438 26.042969 35.371094 26.195312 C 35.683594 26.34375 36.011719 26.417969 36.359375 26.417969 C 36.761719 26.417969 37.070312 26.277344 37.277344 25.988281 C 37.472656 25.699219 37.570312 25.324219 37.570312 24.859375 C 37.570312 24.320312 37.425781 23.851562 37.136719 23.457031 C 36.847656 23.089844 36.539062 22.824219 36.203125 22.660156 C 35.867188 22.511719 35.53125 22.4375 35.199219 22.4375 Z M 35.785156 21.988281 C 37.035156 21.988281 38.074219 22.230469 38.902344 22.714844 C 39.746094 23.199219 40.167969 23.769531 40.167969 24.429688 C 40.167969 25.132812 39.734375 25.710938 38.871094 26.160156 C 38.003906 26.632812 36.976562 26.871094 35.785156 26.871094 C 34.5625 26.871094 33.523438 26.628906 32.667969 26.144531 C 31.816406 25.65625 31.386719 25.085938 31.386719 24.429688 C 31.386719 23.722656 31.828125 23.148438 32.703125 22.695312 C 33.570312 22.222656 34.597656 21.988281 35.785156 21.988281 Z M 35.785156 21.988281 "
       style=" stroke:none;fill-rule:nonzero;fill:rgb(0%,0%,0%);fill-opacity:1;" />
    <path
       id="path34"
       d="M 35.199219 26.871094 C 34.78125 26.871094 34.480469 27.015625 34.296875 27.304688 C 34.089844 27.578125 33.984375 27.957031 33.984375 28.429688 C 33.984375 28.972656 34.128906 29.4375 34.417969 29.832031 C 34.707031 30.210938 35.023438 30.476562 35.371094 30.628906 C 35.683594 30.777344 36.011719 30.851562 36.359375 30.851562 C 36.761719 30.851562 37.070312 30.707031 37.277344 30.421875 C 37.472656 30.132812 37.570312 29.757812 37.570312 29.292969 C 37.570312 28.75 37.425781 28.285156 37.136719 27.890625 C 36.847656 27.523438 36.539062 27.257812 36.203125 27.09375 C 35.867188 26.945312 35.53125 26.871094 35.199219 26.871094 Z M 35.785156 26.417969 C 37.035156 26.417969 38.074219 26.664062 38.902344 27.148438 C 39.746094 27.632812 40.167969 28.203125 40.167969 28.863281 C 40.167969 29.566406 39.734375 30.144531 38.871094 30.59375 C 38.003906 31.066406 36.976562 31.304688 35.785156 31.304688 C 34.5625 31.304688 33.523438 31.0625 32.667969 30.574219 C 31.816406 30.089844 31.386719 29.519531 31.386719 28.863281 C 31.386719 28.15625 31.828125 27.578125 32.703125 27.128906 C 33.570312 26.65625 34.597656 26.417969 35.785156 26.417969 Z M 35.785156 26.417969 "
       style=" stroke:none;fill-rule:nonzero;fill:rgb(0%,0%,0%);fill-opacity:1;" />
    <path
       id="path36"
       d="M 35.199219 31.304688 C 34.78125 31.304688 34.480469 31.449219 34.296875 31.738281 C 34.089844 32.011719 33.984375 32.386719 33.984375 32.863281 C 33.984375 33.40625 34.128906 33.871094 34.417969 34.265625 C 34.707031 34.644531 35.023438 34.910156 35.371094 35.0625 C 35.683594 35.210938 36.011719 35.285156 36.359375 35.285156 C 36.761719 35.285156 37.070312 35.140625 37.277344 34.855469 C 37.472656 34.566406 37.570312 34.191406 37.570312 33.726562 C 37.570312 33.183594 37.425781 32.71875 37.136719 32.324219 C 36.847656 31.957031 36.539062 31.691406 36.203125 31.527344 C 35.867188 31.378906 35.53125 31.304688 35.199219 31.304688 Z M 35.785156 30.851562 C 37.035156 30.851562 38.074219 31.09375 38.902344 31.582031 C 39.746094 32.066406 40.167969 32.636719 40.167969 33.296875 C 40.167969 34 39.734375 34.578125 38.871094 35.027344 C 38.003906 35.5 36.976562 35.738281 35.785156 35.738281 C 34.5625 35.738281 33.523438 35.496094 32.667969 35.007812 C 31.816406 34.523438 31.386719 33.953125 31.386719 33.296875 C 31.386719 32.589844 31.828125 32.011719 32.703125 31.5625 C 33.570312 31.089844 34.597656 30.851562 35.785156 30.851562 Z M 35.785156 30.851562 "
       style=" stroke:none;fill-rule:nonzero;fill:rgb(0%,0%,0%);fill-opacity:1;" />
    <path
       id="path38"
       d="M 70.835938 18.003906 C 70.421875 18.003906 70.121094 18.148438 69.9375 18.4375 C 69.730469 18.714844 69.625 19.089844 69.625 19.5625 C 69.625 20.105469 69.769531 20.570312 70.058594 20.964844 C 70.347656 21.34375 70.664062 21.609375 71.011719 21.761719 C 71.320312 21.910156 71.652344 21.988281 71.996094 21.988281 C 72.402344 21.988281 72.707031 21.84375 72.914062 21.554688 C 73.113281 21.265625 73.210938 20.890625 73.210938 20.429688 C 73.210938 19.886719 73.066406 19.417969 72.777344 19.023438 C 72.488281 18.65625 72.175781 18.390625 71.839844 18.226562 C 71.507812 18.078125 71.171875 18.003906 70.835938 18.003906 Z M 71.425781 17.554688 C 72.671875 17.554688 73.710938 17.796875 74.542969 18.28125 C 75.386719 18.765625 75.808594 19.335938 75.808594 19.996094 C 75.808594 20.699219 75.375 21.277344 74.507812 21.726562 C 73.644531 22.199219 72.613281 22.4375 71.425781 22.4375 C 70.203125 22.4375 69.164062 22.195312 68.308594 21.710938 C 67.453125 21.222656 67.027344 20.652344 67.027344 19.996094 C 67.027344 19.289062 67.464844 18.714844 68.34375 18.261719 C 69.210938 17.789062 70.238281 17.554688 71.425781 17.554688 Z M 71.425781 17.554688 "
       style=" stroke:none;fill-rule:nonzero;fill:rgb(0%,0%,0%);fill-opacity:1;" />
    <path
       id="path40"
       d="M 70.835938 22.4375 C 70.421875 22.4375 70.121094 22.582031 69.9375 22.871094 C 69.730469 23.148438 69.625 23.523438 69.625 23.996094 C 69.625 24.539062 69.769531 25.003906 70.058594 25.398438 C 70.347656 25.777344 70.664062 26.042969 71.011719 26.195312 C 71.320312 26.34375 71.652344 26.417969 71.996094 26.417969 C 72.402344 26.417969 72.707031 26.277344 72.914062 25.988281 C 73.113281 25.699219 73.210938 25.324219 73.210938 24.859375 C 73.210938 24.320312 73.066406 23.851562 72.777344 23.457031 C 72.488281 23.089844 72.175781 22.824219 71.839844 22.660156 C 71.507812 22.511719 71.171875 22.4375 70.835938 22.4375 Z M 71.425781 21.988281 C 72.671875 21.988281 73.710938 22.230469 74.542969 22.714844 C 75.386719 23.199219 75.808594 23.769531 75.808594 24.429688 C 75.808594 25.132812 75.375 25.710938 74.507812 26.160156 C 73.644531 26.632812 72.613281 26.871094 71.425781 26.871094 C 70.203125 26.871094 69.164062 26.628906 68.308594 26.144531 C 67.453125 25.65625 67.027344 25.085938 67.027344 24.429688 C 67.027344 23.722656 67.464844 23.148438 68.34375 22.695312 C 69.210938 22.222656 70.238281 21.988281 71.425781 21.988281 Z M 71.425781 21.988281 "
       style=" stroke:none;fill-rule:nonzero;fill:rgb(0%,0%,0%);fill-opacity:1;" />
    <path
       id="path42"
       d="M 70.835938 26.871094 C 70.421875 26.871094 70.121094 27.015625 69.9375 27.304688 C 69.730469 27.578125 69.625 27.957031 69.625 28.429688 C 69.625 28.972656 69.769531 29.4375 70.058594 29.832031 C 70.347656 30.210938 70.664062 30.476562 71.011719 30.628906 C 71.320312 30.777344 71.652344 30.851562 71.996094 30.851562 C 72.402344 30.851562 72.707031 30.707031 72.914062 30.421875 C 73.113281 30.132812 73.210938 29.757812 73.210938 29.292969 C 73.210938 28.75 73.066406 28.285156 72.777344 27.890625 C 72.488281 27.523438 72.175781 27.257812 71.839844 27.09375 C 71.507812 26.945312 71.171875 26.871094 70.835938 26.871094 Z M 71.425781 26.417969 C 72.671875 26.417969 73.710938 26.664062 74.542969 27.148438 C 75.386719 27.632812 75.808594 28.203125 75.808594 28.863281 C 75.808594 29.566406 75.375 30.144531 74.507812 30.59375 C 73.644531 31.066406 72.613281 31.304688 71.425781 31.304688 C 70.203125 31.304688 69.164062 31.0625 68.308594 30.574219 C 67.453125 30.089844 67.027344 29.519531 67.027344 28.863281 C 67.027344 28.15625 67.464844 27.578125 68.34375 27.128906 C 69.210938 26.65625 70.238281 26.417969 71.425781 26.417969 Z M 71.425781 26.417969 "
       style=" stroke:none;fill-rule:nonzero;fill:rgb(0%,0%,0%);fill-opacity:1;" />
    <path
       id="path44"
       d="M 70.835938 31.304688 C 70.421875 31.304688 70.121094 31.449219 69.9375 31.738281 C 69.730469 32.011719 69.625 32.386719 69.625 32.863281 C 69.625 33.40625 69.769531 33.871094 70.058594 34.265625 C 70.347656 34.644531 70.664062 34.910156 71.011719 35.0625 C 71.320312 35.210938 71.652344 35.285156 71.996094 35.285156 C 72.402344 35.285156 72.707031 35.140625 72.914062 34.855469 C 73.113281 34.566406 73.210938 34.191406 73.210938 33.726562 C 73.210938 33.183594 73.066406 32.71875 72.777344 32.324219 C 72.488281 31.957031 72.175781 31.691406 71.839844 31.527344 C 71.507812 31.378906 71.171875 31.304688 70.835938 31.304688 Z M 71.425781 30.851562 C 72.671875 30.851562 73.710938 31.09375 74.542969 31.582031 C 75.386719 32.066406 75.808594 32.636719 75.808594 33.296875 C 75.808594 34 75.375 34.578125 74.507812 35.027344 C 73.644531 35.5 72.613281 35.738281 71.425781 35.738281 C 70.203125 35.738281 69.164062 35.496094 68.308594 35.007812 C 67.453125 34.523438 67.027344 33.953125 67.027344 33.296875 C 67.027344 32.589844 67.464844 32.011719 68.34375 31.5625 C 69.210938 31.089844 70.238281 30.851562 71.425781 30.851562 Z M 71.425781 30.851562 "
       style=" stroke:none;fill-rule:nonzero;fill:rgb(0%,0%,0%);fill-opacity:1;" />
    <path
       id="path46"
       d="M 13.097656 19.890625 C 13.097656 19.890625 13.132812 19.890625 13.203125 19.890625 C 13.246094 19.878906 13.289062 19.875 13.324219 19.875 C 14.617188 19.875 15.679688 20.328125 16.507812 21.242188 C 17.339844 22.140625 17.757812 23.191406 17.757812 24.394531 C 17.757812 25.882812 17.136719 27.09375 15.902344 28.03125 C 15.578125 28.285156 15.160156 28.492188 14.640625 28.652344 C 14.695312 29.402344 14.726562 30.011719 14.726562 30.472656 C 14.726562 30.566406 14.714844 30.898438 14.691406 31.476562 C 14.644531 32.550781 14.273438 33.480469 13.582031 34.265625 C 12.914062 35.039062 12.082031 35.425781 11.089844 35.425781 C 10.152344 35.425781 9.355469 35.097656 8.699219 34.4375 C 8.039062 33.769531 7.710938 32.960938 7.710938 32.011719 C 7.710938 31.515625 7.902344 31.09375 8.285156 30.75 C 8.675781 30.402344 9.132812 30.230469 9.652344 30.230469 C 10.113281 30.230469 10.5 30.410156 10.8125 30.765625 C 11.136719 31.101562 11.296875 31.515625 11.296875 32.011719 C 11.296875 32.464844 11.136719 32.851562 10.8125 33.171875 C 10.488281 33.496094 10.101562 33.660156 9.652344 33.660156 C 9.464844 33.660156 9.289062 33.625 9.113281 33.554688 C 9.621094 34.304688 10.296875 34.679688 11.140625 34.679688 C 11.9375 34.679688 12.589844 34.355469 13.097656 33.710938 C 13.628906 33.039062 13.917969 32.261719 13.964844 31.371094 C 13.988281 30.820312 14 30.5 14 30.421875 C 14 29.773438 13.976562 29.242188 13.929688 28.828125 C 13.351562 28.917969 12.839844 28.964844 12.386719 28.964844 C 10.78125 28.964844 9.414062 28.332031 8.285156 27.058594 C 7.175781 25.777344 6.621094 24.253906 6.621094 22.488281 C 6.621094 22.117188 6.65625 21.742188 6.726562 21.363281 C 6.792969 21.050781 6.878906 20.710938 6.984375 20.339844 C 7.042969 20.132812 7.199219 19.796875 7.453125 19.335938 C 7.542969 19.199219 7.648438 19.023438 7.765625 18.816406 C 7.878906 18.609375 7.960938 18.472656 8.007812 18.402344 C 8.121094 18.171875 8.347656 17.859375 8.679688 17.464844 C 8.773438 17.363281 8.871094 17.246094 8.96875 17.121094 C 9.066406 16.992188 9.148438 16.890625 9.21875 16.808594 C 9.289062 16.726562 9.339844 16.664062 9.375 16.617188 C 9.410156 16.570312 9.667969 16.265625 10.152344 15.699219 C 10.269531 15.585938 10.382812 15.460938 10.492188 15.328125 C 10.601562 15.195312 10.691406 15.089844 10.761719 15.015625 C 10.828125 14.941406 10.882812 14.886719 10.914062 14.851562 C 10.5 13.476562 10.242188 12.378906 10.136719 11.5625 C 10.054688 10.902344 10.015625 10.003906 10.015625 8.859375 C 10.015625 7.855469 10.246094 6.914062 10.707031 6.035156 C 11.15625 5.125 11.789062 4.378906 12.59375 3.800781 C 12.652344 3.769531 12.710938 3.75 12.769531 3.75 C 12.847656 3.75 12.90625 3.769531 12.941406 3.800781 C 13.566406 4.554688 14.101562 5.527344 14.550781 6.730469 C 15.015625 7.929688 15.246094 9.019531 15.246094 10.003906 C 15.246094 11.109375 14.980469 12.148438 14.449219 13.121094 C 13.847656 14.148438 13.074219 15.210938 12.128906 16.304688 C 12.371094 17.066406 12.695312 18.261719 13.097656 19.890625 Z M 14.570312 27.945312 C 15.171875 27.722656 15.636719 27.347656 15.972656 26.816406 C 16.34375 26.308594 16.527344 25.738281 16.527344 25.105469 C 16.527344 24.285156 16.25 23.554688 15.695312 22.921875 C 15.128906 22.261719 14.40625 21.894531 13.53125 21.8125 C 14.027344 24.25 14.375 26.292969 14.570312 27.945312 Z M 7.867188 23.941406 C 7.867188 25.085938 8.328125 26.089844 9.253906 26.957031 C 10.199219 27.800781 11.261719 28.222656 12.441406 28.222656 C 12.925781 28.222656 13.398438 28.1875 13.859375 28.117188 C 13.675781 26.363281 13.3125 24.261719 12.769531 21.8125 C 12.109375 21.882812 11.585938 22.113281 11.191406 22.507812 C 10.8125 22.910156 10.621094 23.367188 10.621094 23.875 C 10.621094 24.75 11.089844 25.460938 12.023438 26.003906 C 12.105469 26.085938 12.144531 26.171875 12.144531 26.265625 C 12.144531 26.355469 12.105469 26.441406 12.023438 26.523438 C 11.953125 26.605469 11.867188 26.644531 11.765625 26.644531 C 11.753906 26.644531 11.699219 26.632812 11.609375 26.609375 C 10.949219 26.253906 10.441406 25.789062 10.085938 25.226562 C 9.75 24.625 9.582031 24.019531 9.582031 23.40625 C 9.582031 22.609375 9.832031 21.886719 10.328125 21.242188 C 10.847656 20.59375 11.523438 20.179688 12.351562 19.996094 C 12.03125 18.703125 11.765625 17.691406 11.554688 16.964844 C 11.371094 17.171875 11.148438 17.421875 10.890625 17.71875 C 10.628906 18.011719 10.476562 18.1875 10.429688 18.246094 C 10.015625 18.789062 9.699219 19.210938 9.476562 19.511719 C 9.085938 20.050781 8.796875 20.519531 8.613281 20.914062 C 8.417969 21.351562 8.242188 21.832031 8.09375 22.351562 C 7.941406 22.847656 7.867188 23.378906 7.867188 23.941406 Z M 13.652344 6.332031 C 12.785156 6.757812 12.105469 7.371094 11.609375 8.167969 C 11.101562 8.988281 10.847656 9.871094 10.847656 10.816406 C 10.847656 11.648438 11.054688 12.765625 11.46875 14.175781 C 12.300781 13.171875 12.925781 12.242188 13.339844 11.386719 C 13.777344 10.488281 14 9.546875 14 8.566406 C 14 7.824219 13.882812 7.082031 13.652344 6.332031 Z M 13.652344 6.332031 "
       style=" stroke:none;fill-rule:nonzero;fill:rgb(0%,0%,0%);fill-opacity:1;" />
  </g>
</svg>
