<?xml version="1.0" encoding="UTF-8" standalone="no"?>
<svg
   xmlns:dc="http://purl.org/dc/elements/1.1/"
   xmlns:cc="http://creativecommons.org/ns#"
   xmlns:rdf="http://www.w3.org/1999/02/22-rdf-syntax-ns#"
   xmlns:svg="http://www.w3.org/2000/svg"
   xmlns="http://www.w3.org/2000/svg"
   xmlns:sodipodi="http://sodipodi.sourceforge.net/DTD/sodipodi-0.dtd"
   xmlns:inkscape="http://www.inkscape.org/namespaces/inkscape"
   inkscape:version="1.0 (4035a4f, 2020-05-01)"
   sodipodi:docname="chords_inversions.svg"
   id="svg45"
   version="1.2"
   viewBox="0 0 110 50"
   height="50pt"
   width="110pt">
  <metadata
     id="metadata51">
    <rdf:RDF>
      <cc:Work
         rdf:about="">
        <dc:format>image/svg+xml</dc:format>
        <dc:type
           rdf:resource="http://purl.org/dc/dcmitype/StillImage" />
        <dc:title></dc:title>
      </cc:Work>
    </rdf:RDF>
  </metadata>
  <defs
     id="defs49" />
  <sodipodi:namedview
     inkscape:current-layer="svg45"
     inkscape:window-maximized="0"
     inkscape:window-y="23"
     inkscape:window-x="0"
     inkscape:cy="33.333333"
     inkscape:cx="73.333333"
     inkscape:zoom="8.7204545"
     showgrid="false"
     id="namedview47"
     inkscape:window-height="480"
     inkscape:window-width="741"
     inkscape:pageshadow="2"
     inkscape:pageopacity="0"
     guidetolerance="10"
     gridtolerance="10"
     objecttolerance="10"
     borderopacity="1"
     bordercolor="#666666"
     pagecolor="#ffffff" />
  <g
     id="surface4253">
    <path
       id="path10"
       d="M 3.75 11.128906 L 44.621094 11.128906 M 3.75 15.5625 L 44.621094 15.5625 M 3.75 19.996094 L 44.621094 19.996094 M 3.75 24.429688 L 44.621094 24.429688 M 3.75 28.863281 L 44.621094 28.863281 "
       style="fill:none;stroke-width:0.354671;stroke-linecap:butt;stroke-linejoin:bevel;stroke:rgb(0%,0%,0%);stroke-opacity:1;stroke-miterlimit:10;" />
    <path
       id="path12"
       d="M 44.621094 11.128906 L 71.3125 11.128906 M 44.621094 15.5625 L 71.3125 15.5625 M 44.621094 19.996094 L 71.3125 19.996094 M 44.621094 24.429688 L 71.3125 24.429688 M 44.621094 28.863281 L 71.3125 28.863281 "
       style="fill:none;stroke-width:0.354671;stroke-linecap:butt;stroke-linejoin:bevel;stroke:rgb(0%,0%,0%);stroke-opacity:1;stroke-miterlimit:10;" />
    <path
       id="path14"
       d="M 71.3125 11.128906 L 98 11.128906 M 71.3125 15.5625 L 98 15.5625 M 71.3125 19.996094 L 98 19.996094 M 71.3125 24.429688 L 98 24.429688 M 71.3125 28.863281 L 98 28.863281 "
       style="fill:none;stroke-width:0.354671;stroke-linecap:butt;stroke-linejoin:bevel;stroke:rgb(0%,0%,0%);stroke-opacity:1;stroke-miterlimit:10;" />
    <path
       id="path16"
       d="M 44.269531 11.128906 L 44.269531 28.863281 "
       style="fill:none;stroke-width:0.709342;stroke-linecap:butt;stroke-linejoin:bevel;stroke:rgb(0%,0%,0%);stroke-opacity:1;stroke-miterlimit:10;" />
    <path
       id="path18"
       d="M 70.957031 11.128906 L 70.957031 28.863281 "
       style="fill:none;stroke-width:0.709342;stroke-linecap:butt;stroke-linejoin:bevel;stroke:rgb(0%,0%,0%);stroke-opacity:1;stroke-miterlimit:10;" />
    <path
       id="path20"
       d="M 97.648438 11.128906 L 97.648438 28.863281 "
       style="fill:none;stroke-width:0.709342;stroke-linecap:butt;stroke-linejoin:bevel;stroke:rgb(0%,0%,0%);stroke-opacity:1;stroke-miterlimit:10;" />
    <path
       id="path22"
       d="M 24.175781 33.296875 L 35.617188 33.296875 "
       style="fill:none;stroke-width:0.709342;stroke-linecap:square;stroke-linejoin:bevel;stroke:rgb(0%,0%,0%);stroke-opacity:1;stroke-miterlimit:10;" />
    <path
       id="path24"
       d="M 80.441406 11.351562 C 80.027344 11.351562 79.726562 11.496094 79.542969 11.785156 C 79.332031 12.0625 79.230469 12.4375 79.230469 12.910156 C 79.230469 13.453125 79.375 13.921875 79.664062 14.316406 C 79.953125 14.695312 80.269531 14.960938 80.617188 15.109375 C 80.925781 15.261719 81.257812 15.335938 81.601562 15.335938 C 82.007812 15.335938 82.3125 15.191406 82.519531 14.902344 C 82.714844 14.613281 82.816406 14.238281 82.816406 13.777344 C 82.816406 13.234375 82.671875 12.765625 82.382812 12.375 C 82.09375 12.003906 81.78125 11.738281 81.445312 11.578125 C 81.113281 11.429688 80.777344 11.351562 80.441406 11.351562 Z M 81.03125 10.902344 C 82.277344 10.902344 83.316406 11.144531 84.148438 11.628906 C 84.992188 12.113281 85.414062 12.6875 85.414062 13.34375 C 85.414062 14.050781 84.980469 14.625 84.113281 15.078125 C 83.246094 15.550781 82.21875 15.785156 81.03125 15.785156 C 79.808594 15.785156 78.769531 15.542969 77.914062 15.058594 C 77.058594 14.574219 76.632812 14.003906 76.632812 13.34375 C 76.632812 12.640625 77.070312 12.0625 77.949219 11.613281 C 78.8125 11.140625 79.84375 10.902344 81.03125 10.902344 Z M 81.03125 10.902344 "
       style=" stroke:none;fill-rule:nonzero;fill:rgb(0%,0%,0%);fill-opacity:1;" />
    <path
       id="path26"
       d="M 29.316406 22.4375 C 28.898438 22.4375 28.601562 22.582031 28.414062 22.871094 C 28.207031 23.148438 28.101562 23.523438 28.101562 23.996094 C 28.101562 24.539062 28.246094 25.003906 28.535156 25.398438 C 28.824219 25.777344 29.140625 26.042969 29.488281 26.195312 C 29.800781 26.34375 30.128906 26.417969 30.476562 26.417969 C 30.878906 26.417969 31.1875 26.277344 31.394531 25.988281 C 31.589844 25.699219 31.6875 25.324219 31.6875 24.859375 C 31.6875 24.320312 31.542969 23.851562 31.253906 23.457031 C 30.964844 23.089844 30.65625 22.824219 30.320312 22.660156 C 29.984375 22.511719 29.652344 22.4375 29.316406 22.4375 Z M 29.90625 21.988281 C 31.152344 21.988281 32.191406 22.230469 33.023438 22.714844 C 33.863281 23.199219 34.285156 23.769531 34.285156 24.429688 C 34.285156 25.132812 33.851562 25.710938 32.988281 26.160156 C 32.121094 26.632812 31.09375 26.871094 29.90625 26.871094 C 28.679688 26.871094 27.640625 26.628906 26.789062 26.144531 C 25.933594 25.65625 25.503906 25.085938 25.503906 24.429688 C 25.503906 23.722656 25.945312 23.148438 26.820312 22.695312 C 27.6875 22.222656 28.714844 21.988281 29.90625 21.988281 Z M 29.90625 21.988281 "
       style=" stroke:none;fill-rule:nonzero;fill:rgb(0%,0%,0%);fill-opacity:1;" />
    <path
       id="path28"
       d="M 29.316406 26.871094 C 28.898438 26.871094 28.601562 27.015625 28.414062 27.304688 C 28.207031 27.582031 28.101562 27.957031 28.101562 28.429688 C 28.101562 28.972656 28.246094 29.4375 28.535156 29.832031 C 28.824219 30.210938 29.140625 30.476562 29.488281 30.628906 C 29.800781 30.777344 30.128906 30.851562 30.476562 30.851562 C 30.878906 30.851562 31.1875 30.707031 31.394531 30.421875 C 31.589844 30.132812 31.6875 29.757812 31.6875 29.292969 C 31.6875 28.75 31.542969 28.285156 31.253906 27.890625 C 30.964844 27.523438 30.65625 27.257812 30.320312 27.09375 C 29.984375 26.945312 29.652344 26.871094 29.316406 26.871094 Z M 29.90625 26.417969 C 31.152344 26.417969 32.191406 26.664062 33.023438 27.148438 C 33.863281 27.632812 34.285156 28.203125 34.285156 28.863281 C 34.285156 29.566406 33.851562 30.144531 32.988281 30.59375 C 32.121094 31.066406 31.09375 31.304688 29.90625 31.304688 C 28.679688 31.304688 27.640625 31.0625 26.789062 30.574219 C 25.933594 30.089844 25.503906 29.519531 25.503906 28.863281 C 25.503906 28.15625 25.945312 27.582031 26.820312 27.128906 C 27.6875 26.65625 28.714844 26.417969 29.90625 26.417969 Z M 29.90625 26.417969 "
       style=" stroke:none;fill-rule:nonzero;fill:rgb(0%,0%,0%);fill-opacity:1;" />
    <path
       id="path30"
       d="M 29.316406 31.304688 C 28.898438 31.304688 28.601562 31.449219 28.414062 31.738281 C 28.207031 32.011719 28.101562 32.390625 28.101562 32.863281 C 28.101562 33.40625 28.246094 33.871094 28.535156 34.265625 C 28.824219 34.644531 29.140625 34.910156 29.488281 35.0625 C 29.800781 35.210938 30.128906 35.285156 30.476562 35.285156 C 30.878906 35.285156 31.1875 35.140625 31.394531 34.855469 C 31.589844 34.566406 31.6875 34.191406 31.6875 33.726562 C 31.6875 33.183594 31.542969 32.71875 31.253906 32.324219 C 30.964844 31.957031 30.65625 31.691406 30.320312 31.527344 C 29.984375 31.378906 29.652344 31.304688 29.316406 31.304688 Z M 29.90625 30.851562 C 31.152344 30.851562 32.191406 31.09375 33.023438 31.582031 C 33.863281 32.066406 34.285156 32.636719 34.285156 33.296875 C 34.285156 34 33.851562 34.578125 32.988281 35.027344 C 32.121094 35.5 31.09375 35.738281 29.90625 35.738281 C 28.679688 35.738281 27.640625 35.496094 26.789062 35.007812 C 25.933594 34.523438 25.503906 33.953125 25.503906 33.296875 C 25.503906 32.589844 25.945312 32.011719 26.820312 31.5625 C 27.6875 31.089844 28.714844 30.851562 29.90625 30.851562 Z M 29.90625 30.851562 "
       style=" stroke:none;fill-rule:nonzero;fill:rgb(0%,0%,0%);fill-opacity:1;" />
    <path
       id="path32"
       d="M 80.441406 15.785156 C 80.027344 15.785156 79.726562 15.929688 79.542969 16.21875 C 79.332031 16.496094 79.230469 16.871094 79.230469 17.34375 C 79.230469 17.886719 79.375 18.355469 79.664062 18.746094 C 79.953125 19.128906 80.269531 19.394531 80.617188 19.542969 C 80.925781 19.695312 81.257812 19.769531 81.601562 19.769531 C 82.007812 19.769531 82.3125 19.625 82.519531 19.335938 C 82.714844 19.046875 82.816406 18.671875 82.816406 18.210938 C 82.816406 17.667969 82.671875 17.199219 82.382812 16.808594 C 82.09375 16.4375 81.78125 16.171875 81.445312 16.011719 C 81.113281 15.863281 80.777344 15.785156 80.441406 15.785156 Z M 81.03125 15.335938 C 82.277344 15.335938 83.316406 15.578125 84.148438 16.0625 C 84.992188 16.546875 85.414062 17.121094 85.414062 17.777344 C 85.414062 18.480469 84.980469 19.058594 84.113281 19.511719 C 83.246094 19.984375 82.21875 20.21875 81.03125 20.21875 C 79.808594 20.21875 78.769531 19.976562 77.914062 19.492188 C 77.058594 19.007812 76.632812 18.4375 76.632812 17.777344 C 76.632812 17.074219 77.070312 16.496094 77.949219 16.046875 C 78.8125 15.574219 79.84375 15.335938 81.03125 15.335938 Z M 81.03125 15.335938 "
       style=" stroke:none;fill-rule:nonzero;fill:rgb(0%,0%,0%);fill-opacity:1;" />
    <path
       id="path34"
       d="M 80.441406 22.4375 C 80.027344 22.4375 79.726562 22.582031 79.542969 22.871094 C 79.332031 23.148438 79.230469 23.523438 79.230469 23.996094 C 79.230469 24.539062 79.375 25.003906 79.664062 25.398438 C 79.953125 25.777344 80.269531 26.042969 80.617188 26.195312 C 80.925781 26.34375 81.257812 26.417969 81.601562 26.417969 C 82.007812 26.417969 82.3125 26.277344 82.519531 25.988281 C 82.714844 25.699219 82.816406 25.324219 82.816406 24.859375 C 82.816406 24.320312 82.671875 23.851562 82.382812 23.457031 C 82.09375 23.089844 81.78125 22.824219 81.445312 22.660156 C 81.113281 22.511719 80.777344 22.4375 80.441406 22.4375 Z M 81.03125 21.988281 C 82.277344 21.988281 83.316406 22.230469 84.148438 22.714844 C 84.992188 23.199219 85.414062 23.769531 85.414062 24.429688 C 85.414062 25.132812 84.980469 25.710938 84.113281 26.160156 C 83.246094 26.632812 82.21875 26.871094 81.03125 26.871094 C 79.808594 26.871094 78.769531 26.628906 77.914062 26.144531 C 77.058594 25.65625 76.632812 25.085938 76.632812 24.429688 C 76.632812 23.722656 77.070312 23.148438 77.949219 22.695312 C 78.8125 22.222656 79.84375 21.988281 81.03125 21.988281 Z M 81.03125 21.988281 "
       style=" stroke:none;fill-rule:nonzero;fill:rgb(0%,0%,0%);fill-opacity:1;" />
    <path
       id="path36"
       d="M 53.753906 15.785156 C 53.335938 15.785156 53.035156 15.929688 52.851562 16.21875 C 52.644531 16.496094 52.539062 16.871094 52.539062 17.34375 C 52.539062 17.886719 52.683594 18.355469 52.972656 18.746094 C 53.261719 19.128906 53.578125 19.394531 53.925781 19.542969 C 54.238281 19.695312 54.566406 19.769531 54.914062 19.769531 C 55.316406 19.769531 55.625 19.625 55.832031 19.335938 C 56.027344 19.046875 56.125 18.671875 56.125 18.210938 C 56.125 17.667969 55.980469 17.199219 55.691406 16.808594 C 55.402344 16.4375 55.09375 16.171875 54.757812 16.011719 C 54.421875 15.863281 54.085938 15.785156 53.753906 15.785156 Z M 54.339844 15.335938 C 55.589844 15.335938 56.628906 15.578125 57.457031 16.0625 C 58.300781 16.546875 58.722656 17.121094 58.722656 17.777344 C 58.722656 18.480469 58.289062 19.058594 57.425781 19.511719 C 56.558594 19.984375 55.53125 20.21875 54.339844 20.21875 C 53.117188 20.21875 52.078125 19.976562 51.222656 19.492188 C 50.371094 19.007812 49.941406 18.4375 49.941406 17.777344 C 49.941406 17.074219 50.382812 16.496094 51.257812 16.046875 C 52.125 15.574219 53.152344 15.335938 54.339844 15.335938 Z M 54.339844 15.335938 "
       style=" stroke:none;fill-rule:nonzero;fill:rgb(0%,0%,0%);fill-opacity:1;" />
    <path
       id="path38"
       d="M 53.753906 22.4375 C 53.335938 22.4375 53.035156 22.582031 52.851562 22.871094 C 52.644531 23.148438 52.539062 23.523438 52.539062 23.996094 C 52.539062 24.539062 52.683594 25.003906 52.972656 25.398438 C 53.261719 25.777344 53.578125 26.042969 53.925781 26.195312 C 54.238281 26.34375 54.566406 26.417969 54.914062 26.417969 C 55.316406 26.417969 55.625 26.277344 55.832031 25.988281 C 56.027344 25.699219 56.125 25.324219 56.125 24.859375 C 56.125 24.320312 55.980469 23.851562 55.691406 23.457031 C 55.402344 23.089844 55.09375 22.824219 54.757812 22.660156 C 54.421875 22.511719 54.085938 22.4375 53.753906 22.4375 Z M 54.339844 21.988281 C 55.589844 21.988281 56.628906 22.230469 57.457031 22.714844 C 58.300781 23.199219 58.722656 23.769531 58.722656 24.429688 C 58.722656 25.132812 58.289062 25.710938 57.425781 26.160156 C 56.558594 26.632812 55.53125 26.871094 54.339844 26.871094 C 53.117188 26.871094 52.078125 26.628906 51.222656 26.144531 C 50.371094 25.65625 49.941406 25.085938 49.941406 24.429688 C 49.941406 23.722656 50.382812 23.148438 51.257812 22.695312 C 52.125 22.222656 53.152344 21.988281 54.339844 21.988281 Z M 54.339844 21.988281 "
       style=" stroke:none;fill-rule:nonzero;fill:rgb(0%,0%,0%);fill-opacity:1;" />
    <path
       id="path40"
       d="M 53.753906 26.871094 C 53.335938 26.871094 53.035156 27.015625 52.851562 27.304688 C 52.644531 27.582031 52.539062 27.957031 52.539062 28.429688 C 52.539062 28.972656 52.683594 29.4375 52.972656 29.832031 C 53.261719 30.210938 53.578125 30.476562 53.925781 30.628906 C 54.238281 30.777344 54.566406 30.851562 54.914062 30.851562 C 55.316406 30.851562 55.625 30.707031 55.832031 30.421875 C 56.027344 30.132812 56.125 29.757812 56.125 29.292969 C 56.125 28.75 55.980469 28.285156 55.691406 27.890625 C 55.402344 27.523438 55.09375 27.257812 54.757812 27.09375 C 54.421875 26.945312 54.085938 26.871094 53.753906 26.871094 Z M 54.339844 26.417969 C 55.589844 26.417969 56.628906 26.664062 57.457031 27.148438 C 58.300781 27.632812 58.722656 28.203125 58.722656 28.863281 C 58.722656 29.566406 58.289062 30.144531 57.425781 30.59375 C 56.558594 31.066406 55.53125 31.304688 54.339844 31.304688 C 53.117188 31.304688 52.078125 31.0625 51.222656 30.574219 C 50.371094 30.089844 49.941406 29.519531 49.941406 28.863281 C 49.941406 28.15625 50.382812 27.582031 51.257812 27.128906 C 52.125 26.65625 53.152344 26.417969 54.339844 26.417969 Z M 54.339844 26.417969 "
       style=" stroke:none;fill-rule:nonzero;fill:rgb(0%,0%,0%);fill-opacity:1;" />
    <path
       id="path42"
       d="M 13.097656 19.890625 C 13.097656 19.890625 13.132812 19.890625 13.203125 19.890625 C 13.246094 19.878906 13.289062 19.875 13.324219 19.875 C 14.617188 19.875 15.679688 20.328125 16.507812 21.242188 C 17.339844 22.140625 17.757812 23.191406 17.757812 24.394531 C 17.757812 25.882812 17.136719 27.09375 15.902344 28.03125 C 15.578125 28.285156 15.160156 28.492188 14.640625 28.652344 C 14.695312 29.402344 14.726562 30.011719 14.726562 30.472656 C 14.726562 30.566406 14.714844 30.898438 14.691406 31.476562 C 14.644531 32.550781 14.273438 33.480469 13.582031 34.265625 C 12.914062 35.039062 12.082031 35.425781 11.089844 35.425781 C 10.152344 35.425781 9.355469 35.097656 8.699219 34.4375 C 8.039062 33.769531 7.710938 32.960938 7.710938 32.011719 C 7.710938 31.515625 7.902344 31.09375 8.285156 30.75 C 8.675781 30.402344 9.132812 30.230469 9.652344 30.230469 C 10.113281 30.230469 10.5 30.410156 10.8125 30.765625 C 11.136719 31.101562 11.296875 31.515625 11.296875 32.011719 C 11.296875 32.464844 11.136719 32.851562 10.8125 33.171875 C 10.488281 33.496094 10.101562 33.660156 9.652344 33.660156 C 9.464844 33.660156 9.289062 33.625 9.113281 33.554688 C 9.621094 34.304688 10.296875 34.679688 11.140625 34.679688 C 11.9375 34.679688 12.589844 34.355469 13.097656 33.710938 C 13.628906 33.039062 13.917969 32.261719 13.964844 31.371094 C 13.988281 30.820312 14 30.5 14 30.421875 C 14 29.773438 13.976562 29.242188 13.929688 28.828125 C 13.351562 28.917969 12.839844 28.964844 12.386719 28.964844 C 10.78125 28.964844 9.414062 28.332031 8.285156 27.0625 C 7.175781 25.777344 6.621094 24.253906 6.621094 22.488281 C 6.621094 22.121094 6.65625 21.742188 6.726562 21.363281 C 6.792969 21.050781 6.878906 20.710938 6.984375 20.339844 C 7.042969 20.132812 7.199219 19.796875 7.453125 19.335938 C 7.542969 19.199219 7.648438 19.023438 7.765625 18.816406 C 7.878906 18.609375 7.960938 18.472656 8.007812 18.402344 C 8.121094 18.171875 8.347656 17.859375 8.679688 17.464844 C 8.773438 17.363281 8.871094 17.246094 8.96875 17.121094 C 9.066406 16.992188 9.148438 16.890625 9.21875 16.808594 C 9.289062 16.726562 9.339844 16.664062 9.375 16.617188 C 9.410156 16.570312 9.667969 16.265625 10.152344 15.699219 C 10.269531 15.585938 10.382812 15.460938 10.492188 15.328125 C 10.601562 15.195312 10.691406 15.089844 10.761719 15.015625 C 10.828125 14.941406 10.882812 14.886719 10.914062 14.851562 C 10.5 13.476562 10.242188 12.378906 10.136719 11.5625 C 10.054688 10.902344 10.015625 10.003906 10.015625 8.859375 C 10.015625 7.855469 10.246094 6.914062 10.707031 6.035156 C 11.15625 5.125 11.789062 4.378906 12.59375 3.800781 C 12.652344 3.769531 12.710938 3.75 12.769531 3.75 C 12.847656 3.75 12.90625 3.769531 12.941406 3.800781 C 13.566406 4.554688 14.101562 5.527344 14.550781 6.730469 C 15.015625 7.929688 15.246094 9.019531 15.246094 10.003906 C 15.246094 11.109375 14.980469 12.148438 14.449219 13.121094 C 13.847656 14.148438 13.074219 15.210938 12.128906 16.304688 C 12.371094 17.066406 12.695312 18.261719 13.097656 19.890625 Z M 14.570312 27.945312 C 15.171875 27.722656 15.636719 27.347656 15.972656 26.816406 C 16.34375 26.308594 16.527344 25.738281 16.527344 25.105469 C 16.527344 24.285156 16.25 23.554688 15.695312 22.921875 C 15.128906 22.261719 14.40625 21.894531 13.53125 21.8125 C 14.027344 24.25 14.375 26.292969 14.570312 27.945312 Z M 7.867188 23.941406 C 7.867188 25.085938 8.328125 26.089844 9.253906 26.957031 C 10.199219 27.800781 11.261719 28.222656 12.441406 28.222656 C 12.925781 28.222656 13.398438 28.1875 13.859375 28.117188 C 13.675781 26.363281 13.3125 24.261719 12.769531 21.8125 C 12.109375 21.882812 11.585938 22.113281 11.191406 22.507812 C 10.8125 22.910156 10.621094 23.367188 10.621094 23.875 C 10.621094 24.75 11.089844 25.460938 12.023438 26.003906 C 12.105469 26.085938 12.144531 26.171875 12.144531 26.265625 C 12.144531 26.355469 12.105469 26.441406 12.023438 26.523438 C 11.953125 26.605469 11.867188 26.644531 11.765625 26.644531 C 11.753906 26.644531 11.699219 26.632812 11.609375 26.609375 C 10.949219 26.253906 10.441406 25.789062 10.085938 25.226562 C 9.75 24.625 9.582031 24.019531 9.582031 23.40625 C 9.582031 22.609375 9.832031 21.886719 10.328125 21.242188 C 10.847656 20.59375 11.523438 20.179688 12.351562 19.996094 C 12.03125 18.703125 11.765625 17.691406 11.554688 16.964844 C 11.371094 17.171875 11.148438 17.421875 10.890625 17.71875 C 10.628906 18.011719 10.476562 18.1875 10.429688 18.246094 C 10.015625 18.789062 9.699219 19.210938 9.476562 19.511719 C 9.085938 20.050781 8.796875 20.519531 8.613281 20.914062 C 8.417969 21.351562 8.242188 21.832031 8.09375 22.351562 C 7.941406 22.847656 7.867188 23.378906 7.867188 23.941406 Z M 13.652344 6.332031 C 12.785156 6.757812 12.105469 7.371094 11.609375 8.167969 C 11.101562 8.988281 10.847656 9.871094 10.847656 10.816406 C 10.847656 11.648438 11.054688 12.765625 11.46875 14.175781 C 12.300781 13.171875 12.925781 12.242188 13.339844 11.386719 C 13.777344 10.488281 14 9.546875 14 8.566406 C 14 7.824219 13.882812 7.082031 13.652344 6.332031 Z M 13.652344 6.332031 "
       style=" stroke:none;fill-rule:nonzero;fill:rgb(0%,0%,0%);fill-opacity:1;" />
  </g>
</svg>
