<?xml version="1.0" encoding="UTF-8" standalone="no"?>
<svg
   xmlns:dc="http://purl.org/dc/elements/1.1/"
   xmlns:cc="http://creativecommons.org/ns#"
   xmlns:rdf="http://www.w3.org/1999/02/22-rdf-syntax-ns#"
   xmlns:svg="http://www.w3.org/2000/svg"
   xmlns="http://www.w3.org/2000/svg"
   xmlns:sodipodi="http://sodipodi.sourceforge.net/DTD/sodipodi-0.dtd"
   xmlns:inkscape="http://www.inkscape.org/namespaces/inkscape"
   inkscape:version="1.0 (4035a4f, 2020-05-01)"
   sodipodi:docname="chords_types_3.svg"
   id="svg69"
   version="1.2"
   viewBox="0 0 150 50"
   height="50pt"
   width="150pt">
  <metadata
     id="metadata75">
    <rdf:RDF>
      <cc:Work
         rdf:about="">
        <dc:format>image/svg+xml</dc:format>
        <dc:type
           rdf:resource="http://purl.org/dc/dcmitype/StillImage" />
        <dc:title></dc:title>
      </cc:Work>
    </rdf:RDF>
  </metadata>
  <defs
     id="defs73" />
  <sodipodi:namedview
     inkscape:current-layer="svg69"
     inkscape:window-maximized="0"
     inkscape:window-y="23"
     inkscape:window-x="0"
     inkscape:cy="33.333333"
     inkscape:cx="100"
     inkscape:zoom="6.395"
     showgrid="false"
     id="namedview71"
     inkscape:window-height="480"
     inkscape:window-width="741"
     inkscape:pageshadow="2"
     inkscape:pageopacity="0"
     guidetolerance="10"
     gridtolerance="10"
     objecttolerance="10"
     borderopacity="1"
     bordercolor="#666666"
     pagecolor="#ffffff" />
  <g
     id="surface3708">
    <path
       id="path10"
       d="M 3.75 11.128906 L 48.15625 11.128906 M 3.75 15.5625 L 48.15625 15.5625 M 3.75 19.996094 L 48.15625 19.996094 M 3.75 24.429688 L 48.15625 24.429688 M 3.75 28.863281 L 48.15625 28.863281 "
       style="fill:none;stroke-width:0.354671;stroke-linecap:butt;stroke-linejoin:bevel;stroke:rgb(0%,0%,0%);stroke-opacity:1;stroke-miterlimit:10;" />
    <path
       id="path12"
       d="M 48.15625 11.128906 L 78.019531 11.128906 M 48.15625 15.5625 L 78.019531 15.5625 M 48.15625 19.996094 L 78.019531 19.996094 M 48.15625 24.429688 L 78.019531 24.429688 M 48.15625 28.863281 L 78.019531 28.863281 "
       style="fill:none;stroke-width:0.354671;stroke-linecap:butt;stroke-linejoin:bevel;stroke:rgb(0%,0%,0%);stroke-opacity:1;stroke-miterlimit:10;" />
    <path
       id="path14"
       d="M 78.019531 11.128906 L 112.789062 11.128906 M 78.019531 15.5625 L 112.789062 15.5625 M 78.019531 19.996094 L 112.789062 19.996094 M 78.019531 24.429688 L 112.789062 24.429688 M 78.019531 28.863281 L 112.789062 28.863281 "
       style="fill:none;stroke-width:0.354671;stroke-linecap:butt;stroke-linejoin:bevel;stroke:rgb(0%,0%,0%);stroke-opacity:1;stroke-miterlimit:10;" />
    <path
       id="path16"
       d="M 112.789062 11.128906 L 143.601562 11.128906 M 112.789062 15.5625 L 143.601562 15.5625 M 112.789062 19.996094 L 143.601562 19.996094 M 112.789062 24.429688 L 143.601562 24.429688 M 112.789062 28.863281 L 143.601562 28.863281 "
       style="fill:none;stroke-width:0.354671;stroke-linecap:butt;stroke-linejoin:bevel;stroke:rgb(0%,0%,0%);stroke-opacity:1;stroke-miterlimit:10;" />
    <path
       id="path18"
       d="M 47.800781 11.128906 L 47.800781 28.863281 "
       style="fill:none;stroke-width:0.709342;stroke-linecap:butt;stroke-linejoin:bevel;stroke:rgb(0%,0%,0%);stroke-opacity:1;stroke-miterlimit:10;" />
    <path
       id="path20"
       d="M 77.664062 11.128906 L 77.664062 28.863281 "
       style="fill:none;stroke-width:0.709342;stroke-linecap:butt;stroke-linejoin:bevel;stroke:rgb(0%,0%,0%);stroke-opacity:1;stroke-miterlimit:10;" />
    <path
       id="path22"
       d="M 112.433594 11.128906 L 112.433594 28.863281 "
       style="fill:none;stroke-width:0.709342;stroke-linecap:butt;stroke-linejoin:bevel;stroke:rgb(0%,0%,0%);stroke-opacity:1;stroke-miterlimit:10;" />
    <path
       id="path24"
       d="M 143.25 11.128906 L 143.25 28.863281 "
       style="fill:none;stroke-width:0.709342;stroke-linecap:butt;stroke-linejoin:bevel;stroke:rgb(0%,0%,0%);stroke-opacity:1;stroke-miterlimit:10;" />
    <path
       id="path26"
       d="M 86.046875 23.699219 L 86.046875 25.070312 C 86.046875 25.554688 86.066406 25.941406 86.113281 26.230469 C 86.496094 25.90625 86.765625 25.664062 86.929688 25.5 C 87.113281 25.316406 87.296875 25.0625 87.480469 24.738281 C 87.667969 24.417969 87.757812 24.09375 87.757812 23.769531 C 87.757812 23.445312 87.691406 23.167969 87.550781 22.9375 C 87.414062 22.707031 87.226562 22.59375 86.996094 22.59375 C 86.71875 22.59375 86.488281 22.695312 86.304688 22.902344 C 86.132812 23.136719 86.046875 23.402344 86.046875 23.699219 Z M 85.316406 26.871094 L 85.09375 16.324219 C 85.253906 16.230469 85.414062 16.183594 85.578125 16.183594 C 85.738281 16.183594 85.902344 16.230469 86.0625 16.324219 L 85.921875 22.4375 C 86.398438 22.03125 86.941406 21.832031 87.550781 21.832031 C 88 21.832031 88.378906 22.015625 88.675781 22.382812 C 88.976562 22.753906 89.128906 23.175781 89.128906 23.648438 C 89.128906 23.949219 89.03125 24.265625 88.832031 24.601562 C 88.648438 24.914062 88.453125 25.15625 88.246094 25.328125 C 88.128906 25.421875 87.835938 25.652344 87.359375 26.019531 C 87.222656 26.125 87.058594 26.246094 86.867188 26.386719 C 86.675781 26.523438 86.558594 26.609375 86.511719 26.644531 C 86.433594 26.691406 86.355469 26.785156 86.289062 26.921875 C 86.207031 27.039062 86.113281 27.136719 86.011719 27.214844 C 85.929688 27.285156 85.832031 27.320312 85.714844 27.320312 C 85.601562 27.320312 85.507812 27.28125 85.4375 27.199219 C 85.359375 27.117188 85.316406 27.007812 85.316406 26.871094 Z M 85.316406 26.871094 "
       style=" stroke:none;fill-rule:nonzero;fill:rgb(0%,0%,0%);fill-opacity:1;" />
    <path
       id="path28"
       d="M 81.136719 28.132812 L 81.136719 29.503906 C 81.136719 29.988281 81.160156 30.375 81.207031 30.664062 C 81.589844 30.339844 81.859375 30.097656 82.019531 29.933594 C 82.207031 29.75 82.390625 29.496094 82.574219 29.171875 C 82.761719 28.851562 82.851562 28.527344 82.851562 28.203125 C 82.851562 27.878906 82.78125 27.601562 82.644531 27.371094 C 82.503906 27.140625 82.320312 27.027344 82.089844 27.027344 C 81.8125 27.027344 81.582031 27.128906 81.398438 27.335938 C 81.222656 27.570312 81.136719 27.835938 81.136719 28.132812 Z M 80.410156 31.304688 L 80.183594 20.757812 C 80.347656 20.664062 80.507812 20.617188 80.671875 20.617188 C 80.832031 20.617188 80.992188 20.664062 81.15625 20.757812 L 81.015625 26.871094 C 81.488281 26.464844 82.03125 26.265625 82.644531 26.265625 C 83.09375 26.265625 83.46875 26.449219 83.769531 26.816406 C 84.070312 27.1875 84.21875 27.609375 84.21875 28.082031 C 84.21875 28.382812 84.121094 28.699219 83.925781 29.035156 C 83.742188 29.347656 83.546875 29.589844 83.335938 29.761719 C 83.222656 29.855469 82.925781 30.085938 82.453125 30.453125 C 82.316406 30.558594 82.152344 30.679688 81.960938 30.820312 C 81.769531 30.957031 81.652344 31.042969 81.605469 31.078125 C 81.523438 31.125 81.449219 31.214844 81.378906 31.355469 C 81.300781 31.472656 81.207031 31.570312 81.101562 31.648438 C 81.023438 31.71875 80.925781 31.753906 80.808594 31.753906 C 80.691406 31.753906 80.601562 31.714844 80.53125 31.632812 C 80.449219 31.550781 80.410156 31.441406 80.410156 31.304688 Z M 80.410156 31.304688 "
       style=" stroke:none;fill-rule:nonzero;fill:rgb(0%,0%,0%);fill-opacity:1;" />
    <path
       id="path30"
       d="M 51.273438 28.132812 L 51.273438 29.503906 C 51.273438 29.988281 51.296875 30.375 51.34375 30.664062 C 51.726562 30.339844 51.996094 30.097656 52.160156 29.933594 C 52.34375 29.75 52.527344 29.496094 52.710938 29.171875 C 52.898438 28.851562 52.988281 28.527344 52.988281 28.203125 C 52.988281 27.878906 52.921875 27.601562 52.78125 27.371094 C 52.644531 27.140625 52.457031 27.027344 52.226562 27.027344 C 51.949219 27.027344 51.71875 27.128906 51.535156 27.335938 C 51.363281 27.570312 51.273438 27.835938 51.273438 28.132812 Z M 50.546875 31.304688 L 50.324219 20.757812 C 50.484375 20.664062 50.644531 20.617188 50.808594 20.617188 C 50.96875 20.617188 51.128906 20.664062 51.292969 20.757812 L 51.152344 26.871094 C 51.628906 26.464844 52.167969 26.265625 52.78125 26.265625 C 53.230469 26.265625 53.605469 26.449219 53.90625 26.816406 C 54.207031 27.1875 54.359375 27.609375 54.359375 28.082031 C 54.359375 28.382812 54.257812 28.699219 54.0625 29.035156 C 53.878906 29.347656 53.683594 29.589844 53.472656 29.761719 C 53.359375 29.855469 53.066406 30.085938 52.589844 30.453125 C 52.453125 30.558594 52.289062 30.679688 52.097656 30.820312 C 51.90625 30.957031 51.789062 31.042969 51.742188 31.078125 C 51.660156 31.125 51.585938 31.214844 51.515625 31.355469 C 51.4375 31.472656 51.34375 31.570312 51.242188 31.648438 C 51.160156 31.71875 51.0625 31.753906 50.945312 31.753906 C 50.832031 31.753906 50.738281 31.714844 50.667969 31.632812 C 50.589844 31.550781 50.546875 31.441406 50.546875 31.304688 Z M 50.546875 31.304688 "
       style=" stroke:none;fill-rule:nonzero;fill:rgb(0%,0%,0%);fill-opacity:1;" />
    <path
       id="path32"
       d="M 118.921875 29.953125 C 118.921875 30.171875 118.8125 30.28125 118.59375 30.28125 C 118.371094 30.28125 118.261719 30.171875 118.261719 29.953125 L 118.261719 27.390625 L 116.789062 27.945312 L 116.789062 30.75 C 116.789062 30.96875 116.679688 31.078125 116.460938 31.078125 C 116.242188 31.078125 116.132812 30.96875 116.132812 30.75 L 116.132812 28.167969 L 115.578125 28.375 C 115.566406 28.386719 115.519531 28.394531 115.441406 28.394531 C 115.347656 28.394531 115.265625 28.359375 115.199219 28.289062 C 115.128906 28.222656 115.09375 28.140625 115.09375 28.046875 L 115.09375 26.972656 C 115.09375 26.800781 115.167969 26.691406 115.320312 26.644531 L 116.132812 26.367188 L 116.132812 23.527344 L 115.578125 23.71875 C 115.566406 23.730469 115.519531 23.734375 115.441406 23.734375 C 115.347656 23.734375 115.265625 23.699219 115.199219 23.632812 C 115.128906 23.5625 115.09375 23.480469 115.09375 23.390625 L 115.09375 22.316406 C 115.09375 22.152344 115.167969 22.050781 115.320312 22.003906 L 116.132812 21.691406 L 116.132812 18.902344 C 116.132812 18.683594 116.242188 18.574219 116.460938 18.574219 C 116.679688 18.574219 116.789062 18.683594 116.789062 18.902344 L 116.789062 21.464844 L 118.261719 20.914062 L 118.261719 18.105469 C 118.261719 17.886719 118.371094 17.777344 118.59375 17.777344 C 118.8125 17.777344 118.921875 17.886719 118.921875 18.105469 L 118.921875 20.6875 L 119.492188 20.480469 C 119.503906 20.46875 119.542969 20.460938 119.613281 20.460938 C 119.695312 20.460938 119.78125 20.496094 119.875 20.566406 C 119.941406 20.636719 119.976562 20.714844 119.976562 20.808594 L 119.976562 21.882812 C 119.976562 22.042969 119.898438 22.152344 119.734375 22.210938 L 118.921875 22.488281 L 118.921875 25.328125 L 119.492188 25.136719 C 119.503906 25.125 119.542969 25.121094 119.613281 25.121094 C 119.695312 25.121094 119.78125 25.15625 119.875 25.226562 C 119.941406 25.292969 119.976562 25.375 119.976562 25.46875 L 119.976562 26.539062 C 119.976562 26.691406 119.898438 26.796875 119.734375 26.851562 L 118.921875 27.164062 Z M 118.261719 22.75 L 116.789062 23.269531 L 116.789062 26.109375 L 118.261719 25.589844 Z M 118.261719 22.75 "
       style=" stroke:none;fill-rule:nonzero;fill:rgb(0%,0%,0%);fill-opacity:1;" />
    <path
       id="path34"
       d="M 24.175781 33.292969 L 35.617188 33.292969 "
       style="fill:none;stroke-width:0.709342;stroke-linecap:square;stroke-linejoin:bevel;stroke:rgb(0%,0%,0%);stroke-opacity:1;stroke-miterlimit:10;" />
    <path
       id="path36"
       d="M 54.039062 33.292969 L 65.480469 33.292969 "
       style="fill:none;stroke-width:0.709342;stroke-linecap:square;stroke-linejoin:bevel;stroke:rgb(0%,0%,0%);stroke-opacity:1;stroke-miterlimit:10;" />
    <path
       id="path38"
       d="M 119.621094 33.292969 L 131.0625 33.292969 "
       style="fill:none;stroke-width:0.709342;stroke-linecap:square;stroke-linejoin:bevel;stroke:rgb(0%,0%,0%);stroke-opacity:1;stroke-miterlimit:10;" />
    <path
       id="path40"
       d="M 88.808594 33.292969 L 100.25 33.292969 "
       style="fill:none;stroke-width:0.709342;stroke-linecap:square;stroke-linejoin:bevel;stroke:rgb(0%,0%,0%);stroke-opacity:1;stroke-miterlimit:10;" />
    <path
       id="path42"
       d="M 29.316406 22.4375 C 28.898438 22.4375 28.601562 22.582031 28.414062 22.871094 C 28.207031 23.148438 28.101562 23.523438 28.101562 23.996094 C 28.101562 24.539062 28.246094 25.003906 28.535156 25.398438 C 28.824219 25.777344 29.140625 26.042969 29.488281 26.195312 C 29.800781 26.34375 30.128906 26.417969 30.476562 26.417969 C 30.878906 26.417969 31.1875 26.277344 31.394531 25.988281 C 31.589844 25.699219 31.6875 25.324219 31.6875 24.859375 C 31.6875 24.320312 31.542969 23.851562 31.253906 23.457031 C 30.964844 23.089844 30.65625 22.824219 30.320312 22.660156 C 29.984375 22.511719 29.652344 22.4375 29.316406 22.4375 Z M 29.90625 21.984375 C 31.152344 21.984375 32.191406 22.230469 33.023438 22.714844 C 33.863281 23.199219 34.285156 23.769531 34.285156 24.429688 C 34.285156 25.132812 33.851562 25.710938 32.988281 26.160156 C 32.121094 26.632812 31.09375 26.871094 29.90625 26.871094 C 28.679688 26.871094 27.640625 26.628906 26.789062 26.144531 C 25.933594 25.65625 25.503906 25.085938 25.503906 24.429688 C 25.503906 23.722656 25.945312 23.148438 26.820312 22.695312 C 27.6875 22.222656 28.714844 21.984375 29.90625 21.984375 Z M 29.90625 21.984375 "
       style=" stroke:none;fill-rule:nonzero;fill:rgb(0%,0%,0%);fill-opacity:1;" />
    <path
       id="path44"
       d="M 29.316406 26.871094 C 28.898438 26.871094 28.601562 27.015625 28.414062 27.304688 C 28.207031 27.578125 28.101562 27.957031 28.101562 28.429688 C 28.101562 28.972656 28.246094 29.4375 28.535156 29.832031 C 28.824219 30.210938 29.140625 30.476562 29.488281 30.628906 C 29.800781 30.777344 30.128906 30.851562 30.476562 30.851562 C 30.878906 30.851562 31.1875 30.707031 31.394531 30.421875 C 31.589844 30.132812 31.6875 29.757812 31.6875 29.292969 C 31.6875 28.75 31.542969 28.285156 31.253906 27.890625 C 30.964844 27.523438 30.65625 27.257812 30.320312 27.09375 C 29.984375 26.945312 29.652344 26.871094 29.316406 26.871094 Z M 29.90625 26.417969 C 31.152344 26.417969 32.191406 26.664062 33.023438 27.148438 C 33.863281 27.632812 34.285156 28.203125 34.285156 28.863281 C 34.285156 29.566406 33.851562 30.144531 32.988281 30.59375 C 32.121094 31.066406 31.09375 31.304688 29.90625 31.304688 C 28.679688 31.304688 27.640625 31.0625 26.789062 30.574219 C 25.933594 30.089844 25.503906 29.519531 25.503906 28.863281 C 25.503906 28.15625 25.945312 27.578125 26.820312 27.128906 C 27.6875 26.65625 28.714844 26.417969 29.90625 26.417969 Z M 29.90625 26.417969 "
       style=" stroke:none;fill-rule:nonzero;fill:rgb(0%,0%,0%);fill-opacity:1;" />
    <path
       id="path46"
       d="M 29.316406 31.304688 C 28.898438 31.304688 28.601562 31.449219 28.414062 31.734375 C 28.207031 32.011719 28.101562 32.386719 28.101562 32.863281 C 28.101562 33.40625 28.246094 33.871094 28.535156 34.265625 C 28.824219 34.644531 29.140625 34.910156 29.488281 35.0625 C 29.800781 35.210938 30.128906 35.285156 30.476562 35.285156 C 30.878906 35.285156 31.1875 35.140625 31.394531 34.855469 C 31.589844 34.566406 31.6875 34.191406 31.6875 33.726562 C 31.6875 33.183594 31.542969 32.71875 31.253906 32.324219 C 30.964844 31.957031 30.65625 31.691406 30.320312 31.527344 C 29.984375 31.378906 29.652344 31.304688 29.316406 31.304688 Z M 29.90625 30.851562 C 31.152344 30.851562 32.191406 31.09375 33.023438 31.582031 C 33.863281 32.066406 34.285156 32.636719 34.285156 33.292969 C 34.285156 34 33.851562 34.578125 32.988281 35.027344 C 32.121094 35.5 31.09375 35.738281 29.90625 35.738281 C 28.679688 35.738281 27.640625 35.496094 26.789062 35.007812 C 25.933594 34.523438 25.503906 33.953125 25.503906 33.292969 C 25.503906 32.589844 25.945312 32.011719 26.820312 31.5625 C 27.6875 31.089844 28.714844 30.851562 29.90625 30.851562 Z M 29.90625 30.851562 "
       style=" stroke:none;fill-rule:nonzero;fill:rgb(0%,0%,0%);fill-opacity:1;" />
    <path
       id="path48"
       d="M 59.179688 22.4375 C 58.761719 22.4375 58.460938 22.582031 58.277344 22.871094 C 58.070312 23.148438 57.964844 23.523438 57.964844 23.996094 C 57.964844 24.539062 58.109375 25.003906 58.398438 25.398438 C 58.6875 25.777344 59.003906 26.042969 59.351562 26.195312 C 59.664062 26.34375 59.992188 26.417969 60.339844 26.417969 C 60.742188 26.417969 61.046875 26.277344 61.257812 25.988281 C 61.453125 25.699219 61.550781 25.324219 61.550781 24.859375 C 61.550781 24.320312 61.40625 23.851562 61.117188 23.457031 C 60.828125 23.089844 60.515625 22.824219 60.183594 22.660156 C 59.847656 22.511719 59.511719 22.4375 59.179688 22.4375 Z M 59.765625 21.984375 C 61.015625 21.984375 62.054688 22.230469 62.882812 22.714844 C 63.726562 23.199219 64.148438 23.769531 64.148438 24.429688 C 64.148438 25.132812 63.714844 25.710938 62.851562 26.160156 C 61.984375 26.632812 60.957031 26.871094 59.765625 26.871094 C 58.542969 26.871094 57.503906 26.628906 56.648438 26.144531 C 55.796875 25.65625 55.367188 25.085938 55.367188 24.429688 C 55.367188 23.722656 55.808594 23.148438 56.683594 22.695312 C 57.550781 22.222656 58.578125 21.984375 59.765625 21.984375 Z M 59.765625 21.984375 "
       style=" stroke:none;fill-rule:nonzero;fill:rgb(0%,0%,0%);fill-opacity:1;" />
    <path
       id="path50"
       d="M 59.179688 26.871094 C 58.761719 26.871094 58.460938 27.015625 58.277344 27.304688 C 58.070312 27.578125 57.964844 27.957031 57.964844 28.429688 C 57.964844 28.972656 58.109375 29.4375 58.398438 29.832031 C 58.6875 30.210938 59.003906 30.476562 59.351562 30.628906 C 59.664062 30.777344 59.992188 30.851562 60.339844 30.851562 C 60.742188 30.851562 61.046875 30.707031 61.257812 30.421875 C 61.453125 30.132812 61.550781 29.757812 61.550781 29.292969 C 61.550781 28.75 61.40625 28.285156 61.117188 27.890625 C 60.828125 27.523438 60.515625 27.257812 60.183594 27.09375 C 59.847656 26.945312 59.511719 26.871094 59.179688 26.871094 Z M 59.765625 26.417969 C 61.015625 26.417969 62.054688 26.664062 62.882812 27.148438 C 63.726562 27.632812 64.148438 28.203125 64.148438 28.863281 C 64.148438 29.566406 63.714844 30.144531 62.851562 30.59375 C 61.984375 31.066406 60.957031 31.304688 59.765625 31.304688 C 58.542969 31.304688 57.503906 31.0625 56.648438 30.574219 C 55.796875 30.089844 55.367188 29.519531 55.367188 28.863281 C 55.367188 28.15625 55.808594 27.578125 56.683594 27.128906 C 57.550781 26.65625 58.578125 26.417969 59.765625 26.417969 Z M 59.765625 26.417969 "
       style=" stroke:none;fill-rule:nonzero;fill:rgb(0%,0%,0%);fill-opacity:1;" />
    <path
       id="path52"
       d="M 59.179688 31.304688 C 58.761719 31.304688 58.460938 31.449219 58.277344 31.734375 C 58.070312 32.011719 57.964844 32.386719 57.964844 32.863281 C 57.964844 33.40625 58.109375 33.871094 58.398438 34.265625 C 58.6875 34.644531 59.003906 34.910156 59.351562 35.0625 C 59.664062 35.210938 59.992188 35.285156 60.339844 35.285156 C 60.742188 35.285156 61.046875 35.140625 61.257812 34.855469 C 61.453125 34.566406 61.550781 34.191406 61.550781 33.726562 C 61.550781 33.183594 61.40625 32.71875 61.117188 32.324219 C 60.828125 31.957031 60.515625 31.691406 60.183594 31.527344 C 59.847656 31.378906 59.511719 31.304688 59.179688 31.304688 Z M 59.765625 30.851562 C 61.015625 30.851562 62.054688 31.09375 62.882812 31.582031 C 63.726562 32.066406 64.148438 32.636719 64.148438 33.292969 C 64.148438 34 63.714844 34.578125 62.851562 35.027344 C 61.984375 35.5 60.957031 35.738281 59.765625 35.738281 C 58.542969 35.738281 57.503906 35.496094 56.648438 35.007812 C 55.796875 34.523438 55.367188 33.953125 55.367188 33.292969 C 55.367188 32.589844 55.808594 32.011719 56.683594 31.5625 C 57.550781 31.089844 58.578125 30.851562 59.765625 30.851562 Z M 59.765625 30.851562 "
       style=" stroke:none;fill-rule:nonzero;fill:rgb(0%,0%,0%);fill-opacity:1;" />
    <path
       id="path54"
       d="M 124.761719 22.4375 C 124.347656 22.4375 124.046875 22.582031 123.863281 22.871094 C 123.652344 23.148438 123.550781 23.523438 123.550781 23.996094 C 123.550781 24.539062 123.695312 25.003906 123.984375 25.398438 C 124.273438 25.777344 124.589844 26.042969 124.9375 26.195312 C 125.246094 26.34375 125.578125 26.417969 125.921875 26.417969 C 126.328125 26.417969 126.632812 26.277344 126.839844 25.988281 C 127.035156 25.699219 127.136719 25.324219 127.136719 24.859375 C 127.136719 24.320312 126.992188 23.851562 126.703125 23.457031 C 126.414062 23.089844 126.101562 22.824219 125.765625 22.660156 C 125.433594 22.511719 125.097656 22.4375 124.761719 22.4375 Z M 125.351562 21.984375 C 126.597656 21.984375 127.636719 22.230469 128.46875 22.714844 C 129.3125 23.199219 129.734375 23.769531 129.734375 24.429688 C 129.734375 25.132812 129.300781 25.710938 128.433594 26.160156 C 127.566406 26.632812 126.539062 26.871094 125.351562 26.871094 C 124.128906 26.871094 123.089844 26.628906 122.234375 26.144531 C 121.378906 25.65625 120.953125 25.085938 120.953125 24.429688 C 120.953125 23.722656 121.390625 23.148438 122.269531 22.695312 C 123.132812 22.222656 124.164062 21.984375 125.351562 21.984375 Z M 125.351562 21.984375 "
       style=" stroke:none;fill-rule:nonzero;fill:rgb(0%,0%,0%);fill-opacity:1;" />
    <path
       id="path56"
       d="M 124.761719 26.871094 C 124.347656 26.871094 124.046875 27.015625 123.863281 27.304688 C 123.652344 27.578125 123.550781 27.957031 123.550781 28.429688 C 123.550781 28.972656 123.695312 29.4375 123.984375 29.832031 C 124.273438 30.210938 124.589844 30.476562 124.9375 30.628906 C 125.246094 30.777344 125.578125 30.851562 125.921875 30.851562 C 126.328125 30.851562 126.632812 30.707031 126.839844 30.421875 C 127.035156 30.132812 127.136719 29.757812 127.136719 29.292969 C 127.136719 28.75 126.992188 28.285156 126.703125 27.890625 C 126.414062 27.523438 126.101562 27.257812 125.765625 27.09375 C 125.433594 26.945312 125.097656 26.871094 124.761719 26.871094 Z M 125.351562 26.417969 C 126.597656 26.417969 127.636719 26.664062 128.46875 27.148438 C 129.3125 27.632812 129.734375 28.203125 129.734375 28.863281 C 129.734375 29.566406 129.300781 30.144531 128.433594 30.59375 C 127.566406 31.066406 126.539062 31.304688 125.351562 31.304688 C 124.128906 31.304688 123.089844 31.0625 122.234375 30.574219 C 121.378906 30.089844 120.953125 29.519531 120.953125 28.863281 C 120.953125 28.15625 121.390625 27.578125 122.269531 27.128906 C 123.132812 26.65625 124.164062 26.417969 125.351562 26.417969 Z M 125.351562 26.417969 "
       style=" stroke:none;fill-rule:nonzero;fill:rgb(0%,0%,0%);fill-opacity:1;" />
    <path
       id="path58"
       d="M 93.949219 22.4375 C 93.53125 22.4375 93.230469 22.582031 93.046875 22.871094 C 92.839844 23.148438 92.734375 23.523438 92.734375 23.996094 C 92.734375 24.539062 92.878906 25.003906 93.167969 25.398438 C 93.457031 25.777344 93.773438 26.042969 94.121094 26.195312 C 94.433594 26.34375 94.761719 26.417969 95.109375 26.417969 C 95.511719 26.417969 95.820312 26.277344 96.027344 25.988281 C 96.222656 25.699219 96.320312 25.324219 96.320312 24.859375 C 96.320312 24.320312 96.175781 23.851562 95.886719 23.457031 C 95.597656 23.089844 95.289062 22.824219 94.953125 22.660156 C 94.617188 22.511719 94.28125 22.4375 93.949219 22.4375 Z M 94.535156 21.984375 C 95.785156 21.984375 96.824219 22.230469 97.652344 22.714844 C 98.496094 23.199219 98.917969 23.769531 98.917969 24.429688 C 98.917969 25.132812 98.484375 25.710938 97.621094 26.160156 C 96.753906 26.632812 95.726562 26.871094 94.535156 26.871094 C 93.3125 26.871094 92.273438 26.628906 91.417969 26.144531 C 90.566406 25.65625 90.136719 25.085938 90.136719 24.429688 C 90.136719 23.722656 90.578125 23.148438 91.453125 22.695312 C 92.320312 22.222656 93.347656 21.984375 94.535156 21.984375 Z M 94.535156 21.984375 "
       style=" stroke:none;fill-rule:nonzero;fill:rgb(0%,0%,0%);fill-opacity:1;" />
    <path
       id="path60"
       d="M 93.949219 26.871094 C 93.53125 26.871094 93.230469 27.015625 93.046875 27.304688 C 92.839844 27.578125 92.734375 27.957031 92.734375 28.429688 C 92.734375 28.972656 92.878906 29.4375 93.167969 29.832031 C 93.457031 30.210938 93.773438 30.476562 94.121094 30.628906 C 94.433594 30.777344 94.761719 30.851562 95.109375 30.851562 C 95.511719 30.851562 95.820312 30.707031 96.027344 30.421875 C 96.222656 30.132812 96.320312 29.757812 96.320312 29.292969 C 96.320312 28.75 96.175781 28.285156 95.886719 27.890625 C 95.597656 27.523438 95.289062 27.257812 94.953125 27.09375 C 94.617188 26.945312 94.28125 26.871094 93.949219 26.871094 Z M 94.535156 26.417969 C 95.785156 26.417969 96.824219 26.664062 97.652344 27.148438 C 98.496094 27.632812 98.917969 28.203125 98.917969 28.863281 C 98.917969 29.566406 98.484375 30.144531 97.621094 30.59375 C 96.753906 31.066406 95.726562 31.304688 94.535156 31.304688 C 93.3125 31.304688 92.273438 31.0625 91.417969 30.574219 C 90.566406 30.089844 90.136719 29.519531 90.136719 28.863281 C 90.136719 28.15625 90.578125 27.578125 91.453125 27.128906 C 92.320312 26.65625 93.347656 26.417969 94.535156 26.417969 Z M 94.535156 26.417969 "
       style=" stroke:none;fill-rule:nonzero;fill:rgb(0%,0%,0%);fill-opacity:1;" />
    <path
       id="path62"
       d="M 124.761719 31.304688 C 124.347656 31.304688 124.046875 31.449219 123.863281 31.734375 C 123.652344 32.011719 123.550781 32.386719 123.550781 32.863281 C 123.550781 33.40625 123.695312 33.871094 123.984375 34.265625 C 124.273438 34.644531 124.589844 34.910156 124.9375 35.0625 C 125.246094 35.210938 125.578125 35.285156 125.921875 35.285156 C 126.328125 35.285156 126.632812 35.140625 126.839844 34.855469 C 127.035156 34.566406 127.136719 34.191406 127.136719 33.726562 C 127.136719 33.183594 126.992188 32.71875 126.703125 32.324219 C 126.414062 31.957031 126.101562 31.691406 125.765625 31.527344 C 125.433594 31.378906 125.097656 31.304688 124.761719 31.304688 Z M 125.351562 30.851562 C 126.597656 30.851562 127.636719 31.09375 128.46875 31.582031 C 129.3125 32.066406 129.734375 32.636719 129.734375 33.292969 C 129.734375 34 129.300781 34.578125 128.433594 35.027344 C 127.566406 35.5 126.539062 35.738281 125.351562 35.738281 C 124.128906 35.738281 123.089844 35.496094 122.234375 35.007812 C 121.378906 34.523438 120.953125 33.953125 120.953125 33.292969 C 120.953125 32.589844 121.390625 32.011719 122.269531 31.5625 C 123.132812 31.089844 124.164062 30.851562 125.351562 30.851562 Z M 125.351562 30.851562 "
       style=" stroke:none;fill-rule:nonzero;fill:rgb(0%,0%,0%);fill-opacity:1;" />
    <path
       id="path64"
       d="M 93.949219 31.304688 C 93.53125 31.304688 93.230469 31.449219 93.046875 31.734375 C 92.839844 32.011719 92.734375 32.386719 92.734375 32.863281 C 92.734375 33.40625 92.878906 33.871094 93.167969 34.265625 C 93.457031 34.644531 93.773438 34.910156 94.121094 35.0625 C 94.433594 35.210938 94.761719 35.285156 95.109375 35.285156 C 95.511719 35.285156 95.820312 35.140625 96.027344 34.855469 C 96.222656 34.566406 96.320312 34.191406 96.320312 33.726562 C 96.320312 33.183594 96.175781 32.71875 95.886719 32.324219 C 95.597656 31.957031 95.289062 31.691406 94.953125 31.527344 C 94.617188 31.378906 94.28125 31.304688 93.949219 31.304688 Z M 94.535156 30.851562 C 95.785156 30.851562 96.824219 31.09375 97.652344 31.582031 C 98.496094 32.066406 98.917969 32.636719 98.917969 33.292969 C 98.917969 34 98.484375 34.578125 97.621094 35.027344 C 96.753906 35.5 95.726562 35.738281 94.535156 35.738281 C 93.3125 35.738281 92.273438 35.496094 91.417969 35.007812 C 90.566406 34.523438 90.136719 33.953125 90.136719 33.292969 C 90.136719 32.589844 90.578125 32.011719 91.453125 31.5625 C 92.320312 31.089844 93.347656 30.851562 94.535156 30.851562 Z M 94.535156 30.851562 "
       style=" stroke:none;fill-rule:nonzero;fill:rgb(0%,0%,0%);fill-opacity:1;" />
    <path
       id="path66"
       d="M 13.097656 19.890625 C 13.097656 19.890625 13.132812 19.890625 13.203125 19.890625 C 13.246094 19.878906 13.289062 19.875 13.324219 19.875 C 14.617188 19.875 15.679688 20.328125 16.507812 21.242188 C 17.339844 22.140625 17.757812 23.191406 17.757812 24.394531 C 17.757812 25.882812 17.136719 27.09375 15.902344 28.03125 C 15.578125 28.285156 15.160156 28.492188 14.640625 28.652344 C 14.695312 29.402344 14.726562 30.011719 14.726562 30.472656 C 14.726562 30.566406 14.714844 30.898438 14.691406 31.476562 C 14.644531 32.550781 14.273438 33.480469 13.582031 34.265625 C 12.914062 35.039062 12.082031 35.425781 11.089844 35.425781 C 10.152344 35.425781 9.355469 35.097656 8.699219 34.4375 C 8.039062 33.769531 7.710938 32.960938 7.710938 32.011719 C 7.710938 31.515625 7.902344 31.09375 8.285156 30.75 C 8.675781 30.402344 9.132812 30.230469 9.652344 30.230469 C 10.113281 30.230469 10.5 30.410156 10.8125 30.765625 C 11.136719 31.101562 11.296875 31.515625 11.296875 32.011719 C 11.296875 32.464844 11.136719 32.851562 10.8125 33.171875 C 10.488281 33.496094 10.101562 33.660156 9.652344 33.660156 C 9.464844 33.660156 9.289062 33.625 9.113281 33.554688 C 9.621094 34.304688 10.296875 34.679688 11.140625 34.679688 C 11.9375 34.679688 12.589844 34.355469 13.097656 33.710938 C 13.628906 33.039062 13.917969 32.261719 13.964844 31.371094 C 13.988281 30.820312 14 30.5 14 30.421875 C 14 29.773438 13.976562 29.242188 13.929688 28.828125 C 13.351562 28.917969 12.839844 28.964844 12.386719 28.964844 C 10.78125 28.964844 9.414062 28.332031 8.285156 27.058594 C 7.175781 25.777344 6.621094 24.253906 6.621094 22.488281 C 6.621094 22.117188 6.65625 21.742188 6.726562 21.363281 C 6.792969 21.050781 6.878906 20.710938 6.984375 20.339844 C 7.042969 20.132812 7.199219 19.796875 7.453125 19.335938 C 7.542969 19.199219 7.648438 19.023438 7.765625 18.816406 C 7.878906 18.609375 7.960938 18.472656 8.007812 18.402344 C 8.121094 18.171875 8.347656 17.859375 8.679688 17.464844 C 8.773438 17.363281 8.871094 17.246094 8.96875 17.121094 C 9.066406 16.992188 9.148438 16.890625 9.21875 16.808594 C 9.289062 16.726562 9.339844 16.664062 9.375 16.617188 C 9.410156 16.570312 9.667969 16.265625 10.152344 15.699219 C 10.269531 15.585938 10.382812 15.460938 10.492188 15.328125 C 10.601562 15.195312 10.691406 15.089844 10.761719 15.015625 C 10.828125 14.941406 10.882812 14.886719 10.914062 14.851562 C 10.5 13.476562 10.242188 12.378906 10.136719 11.5625 C 10.054688 10.902344 10.015625 10.003906 10.015625 8.859375 C 10.015625 7.855469 10.246094 6.914062 10.707031 6.035156 C 11.15625 5.125 11.789062 4.378906 12.59375 3.800781 C 12.652344 3.769531 12.710938 3.75 12.769531 3.75 C 12.847656 3.75 12.90625 3.769531 12.941406 3.800781 C 13.566406 4.554688 14.101562 5.527344 14.550781 6.730469 C 15.015625 7.929688 15.246094 9.019531 15.246094 10.003906 C 15.246094 11.109375 14.980469 12.148438 14.449219 13.121094 C 13.847656 14.148438 13.074219 15.210938 12.128906 16.304688 C 12.371094 17.066406 12.695312 18.261719 13.097656 19.890625 Z M 14.570312 27.945312 C 15.171875 27.722656 15.636719 27.347656 15.972656 26.816406 C 16.34375 26.308594 16.527344 25.738281 16.527344 25.105469 C 16.527344 24.285156 16.25 23.554688 15.695312 22.921875 C 15.128906 22.261719 14.40625 21.894531 13.53125 21.8125 C 14.027344 24.25 14.375 26.292969 14.570312 27.945312 Z M 7.867188 23.941406 C 7.867188 25.085938 8.328125 26.089844 9.253906 26.957031 C 10.199219 27.800781 11.261719 28.222656 12.441406 28.222656 C 12.925781 28.222656 13.398438 28.1875 13.859375 28.117188 C 13.675781 26.363281 13.3125 24.261719 12.769531 21.8125 C 12.109375 21.882812 11.585938 22.113281 11.191406 22.503906 C 10.8125 22.910156 10.621094 23.367188 10.621094 23.875 C 10.621094 24.75 11.089844 25.460938 12.023438 26.003906 C 12.105469 26.085938 12.144531 26.171875 12.144531 26.265625 C 12.144531 26.355469 12.105469 26.441406 12.023438 26.523438 C 11.953125 26.605469 11.867188 26.644531 11.765625 26.644531 C 11.753906 26.644531 11.699219 26.632812 11.609375 26.609375 C 10.949219 26.253906 10.441406 25.789062 10.085938 25.226562 C 9.75 24.625 9.582031 24.019531 9.582031 23.40625 C 9.582031 22.609375 9.832031 21.886719 10.328125 21.242188 C 10.847656 20.59375 11.523438 20.179688 12.351562 19.996094 C 12.03125 18.703125 11.765625 17.691406 11.554688 16.964844 C 11.371094 17.171875 11.148438 17.421875 10.890625 17.71875 C 10.628906 18.011719 10.476562 18.1875 10.429688 18.246094 C 10.015625 18.789062 9.699219 19.210938 9.476562 19.511719 C 9.085938 20.050781 8.796875 20.519531 8.613281 20.914062 C 8.417969 21.351562 8.242188 21.832031 8.09375 22.351562 C 7.941406 22.847656 7.867188 23.378906 7.867188 23.941406 Z M 13.652344 6.332031 C 12.785156 6.757812 12.105469 7.371094 11.609375 8.167969 C 11.101562 8.988281 10.847656 9.871094 10.847656 10.816406 C 10.847656 11.648438 11.054688 12.765625 11.46875 14.175781 C 12.300781 13.171875 12.925781 12.242188 13.339844 11.386719 C 13.777344 10.488281 14 9.546875 14 8.566406 C 14 7.824219 13.882812 7.082031 13.652344 6.332031 Z M 13.652344 6.332031 "
       style=" stroke:none;fill-rule:nonzero;fill:rgb(0%,0%,0%);fill-opacity:1;" />
  </g>
</svg>
