<?xml version="1.0" encoding="UTF-8" standalone="no"?>
<svg
   xmlns:dc="http://purl.org/dc/elements/1.1/"
   xmlns:cc="http://creativecommons.org/ns#"
   xmlns:rdf="http://www.w3.org/1999/02/22-rdf-syntax-ns#"
   xmlns:svg="http://www.w3.org/2000/svg"
   xmlns="http://www.w3.org/2000/svg"
   xmlns:sodipodi="http://sodipodi.sourceforge.net/DTD/sodipodi-0.dtd"
   xmlns:inkscape="http://www.inkscape.org/namespaces/inkscape"
   inkscape:version="1.0 (4035a4f, 2020-05-01)"
   sodipodi:docname="chords_1.svg"
   id="svg181"
   version="1.2"
   viewBox="0 0 150 50"
   height="50pt"
   width="150pt">
  <metadata
     id="metadata187">
    <rdf:RDF>
      <cc:Work
         rdf:about="">
        <dc:format>image/svg+xml</dc:format>
        <dc:type
           rdf:resource="http://purl.org/dc/dcmitype/StillImage" />
        <dc:title></dc:title>
      </cc:Work>
    </rdf:RDF>
  </metadata>
  <defs
     id="defs185" />
  <sodipodi:namedview
     inkscape:current-layer="surface3255"
     inkscape:window-maximized="1"
     inkscape:window-y="23"
     inkscape:window-x="0"
     inkscape:cy="255.69214"
     inkscape:cx="365.88965"
     inkscape:zoom="0.77369015"
     showgrid="false"
     id="namedview183"
     inkscape:window-height="855"
     inkscape:window-width="1440"
     inkscape:pageshadow="2"
     inkscape:pageopacity="0"
     guidetolerance="10"
     gridtolerance="10"
     objecttolerance="10"
     borderopacity="1"
     bordercolor="#666666"
     pagecolor="#ffffff" />
  <g
     id="surface3255">
    <path
       id="path10"
       d="M 3.7500001,11.128901 H 60.507813 m -56.7578129,4.4336 H 60.507813 M 3.7500001,19.996091 H 60.507813 M 3.7500001,24.429681 H 60.507813 m -56.7578129,4.4336 H 60.507813"
       style="fill:none;stroke:#000000;stroke-width:0.354671;stroke-linecap:butt;stroke-linejoin:bevel;stroke-miterlimit:10;stroke-opacity:1" />
    <path
       id="path12"
       d="m 103.07813,11.128901 h 42.57421 m -42.57421,4.4336 h 42.57421 m -42.57421,4.43359 h 42.57421 m -42.57421,4.43359 h 42.57421 m -42.57421,4.4336 h 42.57421"
       style="fill:none;stroke:#000000;stroke-width:0.354671;stroke-linecap:butt;stroke-linejoin:bevel;stroke-miterlimit:10;stroke-opacity:1" />
    <path
       id="path14"
       d="m 60.507813,11.128901 h 42.570317 m -42.570317,4.4336 h 42.570317 m -42.570317,4.43359 h 42.570317 m -42.570317,4.43359 h 42.570317 m -42.570317,4.4336 h 42.570317"
       style="fill:none;stroke:#000000;stroke-width:0.354671;stroke-linecap:butt;stroke-linejoin:bevel;stroke-miterlimit:10;stroke-opacity:1" />
    <path
       id="path34"
       d="m 102.72266,11.128901 v 17.73438"
       style="fill:none;stroke:#000000;stroke-width:0.709342;stroke-linecap:butt;stroke-linejoin:bevel;stroke-miterlimit:10;stroke-opacity:1" />
    <path
       id="path36"
       d="m 60.152344,11.128901 v 17.73438"
       style="fill:none;stroke:#000000;stroke-width:0.709342;stroke-linecap:butt;stroke-linejoin:bevel;stroke-miterlimit:10;stroke-opacity:1" />
    <path
       id="path42"
       d="m 145.29688,11.128901 v 17.73438"
       style="fill:none;stroke:#000000;stroke-width:0.709342;stroke-linecap:butt;stroke-linejoin:bevel;stroke-miterlimit:10;stroke-opacity:1" />
    <path
       id="path80"
       d="M 24.175782,33.296871 H 35.617188"
       style="fill:none;stroke:#000000;stroke-width:0.709342;stroke-linecap:square;stroke-linejoin:bevel;stroke-miterlimit:10;stroke-opacity:1" />
    <path
       id="path96"
       d="m 112.20703,11.351561 c -0.41406,0 -0.71484,0.14453 -0.89844,0.43359 -0.20703,0.27735 -0.3125,0.65235 -0.3125,1.125 0,0.54297 0.14454,1.01172 0.4336,1.40625 0.28906,0.37891 0.60547,0.64453 0.95312,0.79297 0.3125,0.15235 0.64063,0.22656 0.98438,0.22656 0.40625,0 0.71094,-0.14453 0.91797,-0.43359 0.19922,-0.28906 0.29687,-0.66406 0.29687,-1.125 0,-0.54297 -0.14453,-1.01172 -0.43359,-1.40234 -0.28906,-0.3711 -0.60156,-0.63672 -0.9336,-0.79688 -0.33593,-0.14844 -0.67187,-0.22656 -1.00781,-0.22656 z m 0.58985,-0.44922 c 1.24609,0 2.28515,0.24219 3.11718,0.72656 0.84375,0.48438 1.26563,1.0586 1.26563,1.71485 0,0.70703 -0.4336,1.28125 -1.30078,1.73437 -0.86328,0.47266 -1.89063,0.70703 -3.08203,0.70703 -1.22266,0 -2.26172,-0.24218 -3.11719,-0.72656 -0.85547,-0.48437 -1.28125,-1.05469 -1.28125,-1.71484 0,-0.70313 0.4375,-1.28125 1.3164,-1.73047 0.86719,-0.47266 1.89454,-0.71094 3.08204,-0.71094 z m 0,0"
       style="fill:#000000;fill-opacity:1;fill-rule:nonzero;stroke:none" />
    <path
       id="path98"
       d="m 29.316406,22.437501 c -0.417968,0 -0.714843,0.14453 -0.902343,0.43359 -0.207031,0.27734 -0.3125,0.65234 -0.3125,1.125 0,0.54297 0.144531,1.00781 0.433593,1.40234 0.289063,0.37891 0.605469,0.64454 0.953126,0.79688 0.3125,0.14844 0.640624,0.22266 0.988281,0.22266 0.402343,0 0.710937,-0.14063 0.917969,-0.42969 0.195312,-0.28906 0.292968,-0.66406 0.292968,-1.12891 0,-0.53906 -0.144531,-1.00781 -0.433594,-1.40234 -0.289062,-0.36719 -0.597656,-0.63281 -0.933593,-0.79688 -0.335938,-0.14843 -0.667969,-0.22265 -1.003907,-0.22265 z m 0.589844,-0.44922 c 1.246094,0 2.285156,0.24219 3.117188,0.72656 0.839844,0.48438 1.261718,1.05469 1.261718,1.71484 0,0.70313 -0.433593,1.28125 -1.296874,1.73047 -0.867188,0.47266 -1.894532,0.71094 -3.082032,0.71094 -1.226562,0 -2.265625,-0.24219 -3.117187,-0.72656 -0.855469,-0.48828 -1.285157,-1.0586 -1.285157,-1.71485 0,-0.70703 0.441407,-1.28125 1.316407,-1.73437 0.867187,-0.47266 1.894531,-0.70703 3.085937,-0.70703 z m 0,0"
       style="fill:#000000;fill-opacity:1;fill-rule:nonzero;stroke:none" />
    <path
       id="path100"
       d="m 29.316406,26.871091 c -0.417968,0 -0.714843,0.14453 -0.902343,0.43359 -0.207031,0.27735 -0.3125,0.65235 -0.3125,1.125 0,0.54297 0.144531,1.00782 0.433593,1.40235 0.289063,0.3789 0.605469,0.64453 0.953126,0.79687 0.3125,0.14844 0.640624,0.22266 0.988281,0.22266 0.402343,0 0.710937,-0.14453 0.917969,-0.42969 0.195312,-0.28906 0.292968,-0.66406 0.292968,-1.1289 0,-0.54297 -0.144531,-1.00782 -0.433594,-1.40235 -0.289062,-0.36719 -0.597656,-0.63281 -0.933593,-0.79687 -0.335938,-0.14844 -0.667969,-0.22266 -1.003907,-0.22266 z m 0.589844,-0.45312 c 1.246094,0 2.285156,0.24609 3.117188,0.73046 0.839844,0.48438 1.261718,1.05469 1.261718,1.71485 0,0.70312 -0.433593,1.28125 -1.296874,1.73047 -0.867188,0.47265 -1.894532,0.71093 -3.082032,0.71093 -1.226562,0 -2.265625,-0.24218 -3.117187,-0.73046 -0.855469,-0.48438 -1.285157,-1.05469 -1.285157,-1.71094 0,-0.70703 0.441407,-1.28125 1.316407,-1.73438 0.867187,-0.47265 1.894531,-0.71093 3.085937,-0.71093 z m 0,0"
       style="fill:#000000;fill-opacity:1;fill-rule:nonzero;stroke:none" />
    <path
       id="path102"
       d="m 29.316406,31.304681 c -0.417968,0 -0.714843,0.14454 -0.902343,0.4336 -0.207031,0.27344 -0.3125,0.65234 -0.3125,1.125 0,0.54297 0.144531,1.00781 0.433593,1.40234 0.289063,0.37891 0.605469,0.64453 0.953126,0.79688 0.3125,0.14843 0.640624,0.22265 0.988281,0.22265 0.402343,0 0.710937,-0.14453 0.917969,-0.42968 0.195312,-0.28907 0.292968,-0.66407 0.292968,-1.12891 0,-0.54297 -0.144531,-1.00781 -0.433594,-1.40234 -0.289062,-0.36719 -0.597656,-0.63282 -0.933593,-0.79688 -0.335938,-0.14844 -0.667969,-0.22266 -1.003907,-0.22266 z m 0.589844,-0.45312 c 1.246094,0 2.285156,0.24219 3.117188,0.73047 0.839844,0.48437 1.261718,1.05469 1.261718,1.71484 0,0.70313 -0.433593,1.28125 -1.296874,1.73047 -0.867188,0.47266 -1.894532,0.71094 -3.082032,0.71094 -1.226562,0 -2.265625,-0.24219 -3.117187,-0.73047 -0.855469,-0.48438 -1.285157,-1.05469 -1.285157,-1.71094 0,-0.70703 0.441407,-1.28515 1.316407,-1.73437 0.867187,-0.47266 1.894531,-0.71094 3.085937,-0.71094 z m 0,0"
       style="fill:#000000;fill-opacity:1;fill-rule:nonzero;stroke:none" />
    <path
       id="path110"
       d="m 112.20703,15.785151 c -0.41406,0 -0.71484,0.14453 -0.89844,0.4336 -0.20703,0.27734 -0.3125,0.65234 -0.3125,1.125 0,0.54297 0.14454,1.01172 0.4336,1.40234 0.28906,0.38281 0.60547,0.64844 0.95312,0.79688 0.3125,0.15234 0.64063,0.22656 0.98438,0.22656 0.40625,0 0.71094,-0.14453 0.91797,-0.4336 0.19922,-0.28906 0.29687,-0.66406 0.29687,-1.125 0,-0.54296 -0.14453,-1.01171 -0.43359,-1.40234 -0.28906,-0.37109 -0.60156,-0.63672 -0.9336,-0.79687 -0.33593,-0.14844 -0.67187,-0.22657 -1.00781,-0.22657 z m 0.58985,-0.44922 c 1.24609,0 2.28515,0.24219 3.11718,0.72657 0.84375,0.48437 1.26563,1.05859 1.26563,1.71484 0,0.70313 -0.4336,1.28125 -1.30078,1.73438 -0.86328,0.47265 -1.89063,0.70703 -3.08203,0.70703 -1.22266,0 -2.26172,-0.24219 -3.11719,-0.72657 -0.85547,-0.48437 -1.28125,-1.05468 -1.28125,-1.71484 0,-0.70312 0.4375,-1.28125 1.3164,-1.73047 0.86719,-0.47265 1.89454,-0.71094 3.08204,-0.71094 z m 0,0"
       style="fill:#000000;fill-opacity:1;fill-rule:nonzero;stroke:none" />
    <path
       id="path112"
       d="m 112.20703,22.437501 c -0.41406,0 -0.71484,0.14453 -0.89844,0.43359 -0.20703,0.27734 -0.3125,0.65234 -0.3125,1.125 0,0.54297 0.14454,1.00781 0.4336,1.40234 0.28906,0.37891 0.60547,0.64454 0.95312,0.79688 0.3125,0.14844 0.64063,0.22266 0.98438,0.22266 0.40625,0 0.71094,-0.14063 0.91797,-0.42969 0.19922,-0.28906 0.29687,-0.66406 0.29687,-1.12891 0,-0.53906 -0.14453,-1.00781 -0.43359,-1.40234 -0.28906,-0.36719 -0.60156,-0.63281 -0.9336,-0.79688 -0.33593,-0.14843 -0.67187,-0.22265 -1.00781,-0.22265 z m 0.58985,-0.44922 c 1.24609,0 2.28515,0.24219 3.11718,0.72656 0.84375,0.48438 1.26563,1.05469 1.26563,1.71484 0,0.70313 -0.4336,1.28125 -1.30078,1.73047 -0.86328,0.47266 -1.89063,0.71094 -3.08203,0.71094 -1.22266,0 -2.26172,-0.24219 -3.11719,-0.72656 -0.85547,-0.48828 -1.28125,-1.0586 -1.28125,-1.71485 0,-0.70703 0.4375,-1.28125 1.3164,-1.73437 0.86719,-0.47266 1.89454,-0.70703 3.08204,-0.70703 z m 0,0"
       style="fill:#000000;fill-opacity:1;fill-rule:nonzero;stroke:none" />
    <path
       id="path114"
       d="m 69.636719,15.785151 c -0.417969,0 -0.714844,0.14453 -0.902344,0.4336 -0.207031,0.27734 -0.308593,0.65234 -0.308593,1.125 0,0.54297 0.140624,1.01172 0.429687,1.40234 0.289063,0.38281 0.609375,0.64844 0.953125,0.79688 0.3125,0.15234 0.640625,0.22656 0.988281,0.22656 0.402344,0 0.710938,-0.14453 0.917969,-0.4336 0.195312,-0.28906 0.292969,-0.66406 0.292969,-1.125 0,-0.54296 -0.144531,-1.01171 -0.433594,-1.40234 -0.289063,-0.37109 -0.597656,-0.63672 -0.933594,-0.79687 -0.335937,-0.14844 -0.667969,-0.22657 -1.003906,-0.22657 z m 0.589844,-0.44922 c 1.246093,0 2.285156,0.24219 3.117187,0.72657 0.839844,0.48437 1.261719,1.05859 1.261719,1.71484 0,0.70313 -0.433594,1.28125 -1.296875,1.73438 -0.867188,0.47265 -1.894531,0.70703 -3.082031,0.70703 -1.226563,0 -2.265625,-0.24219 -3.117188,-0.72657 -0.855469,-0.48437 -1.285156,-1.05468 -1.285156,-1.71484 0,-0.70312 0.441406,-1.28125 1.316406,-1.73047 0.867188,-0.47265 1.894531,-0.71094 3.085938,-0.71094 z m 0,0"
       style="fill:#000000;fill-opacity:1;fill-rule:nonzero;stroke:none" />
    <path
       id="path116"
       d="m 69.636719,22.437501 c -0.417969,0 -0.714844,0.14453 -0.902344,0.43359 -0.207031,0.27734 -0.308593,0.65234 -0.308593,1.125 0,0.54297 0.140624,1.00781 0.429687,1.40234 0.289063,0.37891 0.609375,0.64454 0.953125,0.79688 0.3125,0.14844 0.640625,0.22266 0.988281,0.22266 0.402344,0 0.710938,-0.14063 0.917969,-0.42969 0.195312,-0.28906 0.292969,-0.66406 0.292969,-1.12891 0,-0.53906 -0.144531,-1.00781 -0.433594,-1.40234 -0.289063,-0.36719 -0.597656,-0.63281 -0.933594,-0.79688 -0.335937,-0.14843 -0.667969,-0.22265 -1.003906,-0.22265 z m 0.589844,-0.44922 c 1.246093,0 2.285156,0.24219 3.117187,0.72656 0.839844,0.48438 1.261719,1.05469 1.261719,1.71484 0,0.70313 -0.433594,1.28125 -1.296875,1.73047 -0.867188,0.47266 -1.894531,0.71094 -3.082031,0.71094 -1.226563,0 -2.265625,-0.24219 -3.117188,-0.72656 -0.855469,-0.48828 -1.285156,-1.0586 -1.285156,-1.71485 0,-0.70703 0.441406,-1.28125 1.316406,-1.73437 0.867188,-0.47266 1.894531,-0.70703 3.085938,-0.70703 z m 0,0"
       style="fill:#000000;fill-opacity:1;fill-rule:nonzero;stroke:none" />
    <path
       id="path118"
       d="m 69.636719,26.871091 c -0.417969,0 -0.714844,0.14453 -0.902344,0.43359 -0.207031,0.27735 -0.308593,0.65235 -0.308593,1.125 0,0.54297 0.140624,1.00782 0.429687,1.40235 0.289063,0.3789 0.609375,0.64453 0.953125,0.79687 0.3125,0.14844 0.640625,0.22266 0.988281,0.22266 0.402344,0 0.710938,-0.14453 0.917969,-0.42969 0.195312,-0.28906 0.292969,-0.66406 0.292969,-1.1289 0,-0.54297 -0.144531,-1.00782 -0.433594,-1.40235 -0.289063,-0.36719 -0.597656,-0.63281 -0.933594,-0.79687 -0.335937,-0.14844 -0.667969,-0.22266 -1.003906,-0.22266 z m 0.589844,-0.45312 c 1.246093,0 2.285156,0.24609 3.117187,0.73046 0.839844,0.48438 1.261719,1.05469 1.261719,1.71485 0,0.70312 -0.433594,1.28125 -1.296875,1.73047 -0.867188,0.47265 -1.894531,0.71093 -3.082031,0.71093 -1.226563,0 -2.265625,-0.24218 -3.117188,-0.73046 -0.855469,-0.48438 -1.285156,-1.05469 -1.285156,-1.71094 0,-0.70703 0.441406,-1.28125 1.316406,-1.73438 0.867188,-0.47265 1.894531,-0.71093 3.085938,-0.71093 z m 0,0"
       style="fill:#000000;fill-opacity:1;fill-rule:nonzero;stroke:none" />
    <path
       id="path172"
       d="m 13.097656,19.890621 c 0,0 0.03516,0 0.105469,0 0.04297,-0.0117 0.08594,-0.0156 0.121094,-0.0156 1.292969,0 2.355469,0.45312 3.183594,1.36718 0.832031,0.89844 1.25,1.94922 1.25,3.15235 0,1.48828 -0.621094,2.69922 -1.855469,3.63672 -0.324219,0.2539 -0.742188,0.46093 -1.261719,0.62109 0.05469,0.75 0.08594,1.35938 0.08594,1.82031 0,0.0937 -0.01172,0.42578 -0.03516,1.00391 -0.04687,1.07422 -0.417968,2.00391 -1.109374,2.78906 -0.667969,0.77344 -1.5,1.16016 -2.492188,1.16016 -0.9375,0 -1.7343749,-0.32813 -2.3906249,-0.98828 -0.660156,-0.66797 -0.988281,-1.47657 -0.988281,-2.42578 0,-0.4961 0.191406,-0.91797 0.574218,-1.26172 0.390626,-0.34766 0.847657,-0.51953 1.367188,-0.51953 0.4609379,0 0.8476559,0.17968 1.1601559,0.53515 0.324219,0.33594 0.484375,0.75 0.484375,1.2461 0,0.45312 -0.160156,0.83984 -0.484375,1.16015 -0.324218,0.32422 -0.710937,0.48828 -1.1601559,0.48828 -0.1875,0 -0.363281,-0.0352 -0.539062,-0.10547 0.507812,0.75 1.1835929,1.125 2.0273429,1.125 0.796875,0 1.449219,-0.32421 1.957031,-0.96875 0.53125,-0.67187 0.820313,-1.44921 0.867188,-2.33984 0.02344,-0.5508 0.03516,-0.87111 0.03516,-0.94924 0,-0.64844 -0.02344,-1.17969 -0.07031,-1.59375 -0.578125,0.0898 -1.089844,0.13672 -1.542969,0.13672 -1.605469,0 -2.9726559,-0.63281 -4.1015629,-1.90234 -1.109374,-1.28516 -1.664062,-2.8086 -1.664062,-4.57422 0,-0.36719 0.035156,-0.7461 0.105469,-1.125 0.066406,-0.3125 0.152343,-0.65235 0.257812,-1.02344 0.058594,-0.20703 0.214844,-0.54297 0.46875,-1.00391 0.089844,-0.13671 0.195313,-0.3125 0.3125,-0.51953 0.113281,-0.20703 0.195313,-0.34375 0.242188,-0.41406 0.113281,-0.23047 0.339843,-0.54297 0.671875,-0.9375 0.09375,-0.10156 0.191406,-0.21875 0.289062,-0.34375 0.097656,-0.12891 0.179688,-0.23047 0.25,-0.3125 0.070313,-0.082 0.121094,-0.14453 0.15625,-0.19141 0.035156,-0.0469 0.292969,-0.35156 0.7773439,-0.91796 0.117188,-0.11329 0.230469,-0.23829 0.339844,-0.3711 0.109375,-0.13281 0.199218,-0.23828 0.269531,-0.3125 0.06641,-0.0742 0.121094,-0.1289 0.152344,-0.16406 -0.414063,-1.375 -0.671875,-2.47266 -0.777344,-3.28906 -0.08203,-0.66016 -0.121094,-1.5586 -0.121094,-2.7031299 0,-1.0039 0.230469,-1.94531 0.691407,-2.824216 0.449218,-0.910156 1.082031,-1.65625 1.886718,-2.234375 0.05859,-0.03125 0.117188,-0.05078 0.175782,-0.05078 0.07812,0 0.136718,0.01953 0.171874,0.05078 0.625,0.753906 1.160157,1.726562 1.609376,2.929687 0.464843,1.199214 0.695312,2.289064 0.695312,3.2734339 0,1.10547 -0.265625,2.14453 -0.796875,3.11719 -0.601563,1.02734 -1.375,2.08984 -2.320313,3.18359 0.242188,0.76172 0.566407,1.95704 0.96875,3.58594 z m 1.472657,8.05469 c 0.601562,-0.22266 1.066406,-0.59766 1.402343,-1.12891 0.371094,-0.50781 0.554688,-1.07812 0.554688,-1.71093 0,-0.82032 -0.277344,-1.55079 -0.832031,-2.1836 -0.566407,-0.66015 -1.289063,-1.02734 -2.164063,-1.10937 0.496094,2.4375 0.84375,4.48047 1.039063,6.13281 z m -6.7031249,-4.00391 c 0,1.14453 0.460937,2.14844 1.386718,3.01563 0.9453129,0.84375 2.0078129,1.26562 3.1874999,1.26562 0.484376,0 0.957032,-0.0352 1.417969,-0.10547 -0.183593,-1.7539 -0.546875,-3.85546 -1.089843,-6.30468 -0.660157,0.0703 -1.183594,0.30078 -1.578126,0.69531 -0.378906,0.40234 -0.570312,0.85937 -0.570312,1.36719 0,0.875 0.46875,1.58593 1.402344,2.1289 0.08203,0.082 0.121094,0.16797 0.121094,0.26172 0,0.0898 -0.03906,0.17578 -0.121094,0.25781 -0.07031,0.082 -0.15625,0.1211 -0.257813,0.1211 -0.01172,0 -0.06641,-0.0117 -0.15625,-0.0352 -0.660156,-0.35547 -1.167969,-0.82031 -1.523437,-1.38281 -0.3359379,-0.60156 -0.5039059,-1.20703 -0.5039059,-1.82031 0,-0.79688 0.25,-1.51953 0.7460929,-2.16407 0.519531,-0.64843 1.195313,-1.0625 2.023438,-1.24609 -0.320313,-1.29297 -0.585938,-2.30469 -0.796875,-3.03125 -0.183594,0.20703 -0.40625,0.45703 -0.664063,0.75391 -0.261719,0.29297 -0.414062,0.46875 -0.460937,0.52734 -0.414063,0.54297 -0.7304689,0.96484 -0.9531249,1.26563 -0.390625,0.53906 -0.679688,1.00781 -0.863281,1.40234 -0.195313,0.4375 -0.371094,0.91797 -0.519532,1.4375 -0.152344,0.49609 -0.226562,1.02734 -0.226562,1.58984 z M 13.652344,6.3320301 c -0.867188,0.425781 -1.546875,1.039062 -2.042969,1.835941 -0.507812,0.82031 -0.761719,1.70312 -0.761719,2.6484299 0,0.83203 0.207032,1.94922 0.621094,3.35938 0.832032,-1.00391 1.457032,-1.9336 1.871094,-2.78906 C 13.777344,10.488281 14,9.5468711 14,8.5664011 c 0,-0.74218 -0.117187,-1.484371 -0.347656,-2.234371 z m 0,0"
       style="fill:#000000;fill-opacity:1;fill-rule:nonzero;stroke:none" />
  </g>
</svg>
