<?xml version="1.0" encoding="UTF-8" standalone="no"?>
<svg
   xmlns:dc="http://purl.org/dc/elements/1.1/"
   xmlns:cc="http://creativecommons.org/ns#"
   xmlns:rdf="http://www.w3.org/1999/02/22-rdf-syntax-ns#"
   xmlns:svg="http://www.w3.org/2000/svg"
   xmlns="http://www.w3.org/2000/svg"
   xmlns:sodipodi="http://sodipodi.sourceforge.net/DTD/sodipodi-0.dtd"
   xmlns:inkscape="http://www.inkscape.org/namespaces/inkscape"
   inkscape:version="1.0 (4035a4f, 2020-05-01)"
   sodipodi:docname="intervals_mel.svg"
   id="svg129"
   version="1.2"
   viewBox="0 0 260 50"
   height="50pt"
   width="260pt">
  <metadata
     id="metadata135">
    <rdf:RDF>
      <cc:Work
         rdf:about="">
        <dc:format>image/svg+xml</dc:format>
        <dc:type
           rdf:resource="http://purl.org/dc/dcmitype/StillImage" />
        <dc:title></dc:title>
      </cc:Work>
    </rdf:RDF>
  </metadata>
  <defs
     id="defs133" />
  <sodipodi:namedview
     inkscape:current-layer="svg129"
     inkscape:window-maximized="0"
     inkscape:window-y="23"
     inkscape:window-x="0"
     inkscape:cy="33.333333"
     inkscape:cx="173.33333"
     inkscape:zoom="3.6894231"
     showgrid="false"
     id="namedview131"
     inkscape:window-height="480"
     inkscape:window-width="741"
     inkscape:pageshadow="2"
     inkscape:pageopacity="0"
     guidetolerance="10"
     gridtolerance="10"
     objecttolerance="10"
     borderopacity="1"
     bordercolor="#666666"
     pagecolor="#ffffff" />
  <g
     id="surface3230">
    <path
       id="path10"
       d="M 28.585938 37.285156 C 31.941406 40.746094 38.652344 40.746094 42.011719 37.285156 C 38.652344 41.453125 31.941406 41.453125 28.585938 37.285156 Z M 28.585938 37.285156 "
       style="fill-rule:evenodd;fill:rgb(0%,0%,0%);fill-opacity:1;stroke-width:0.310337;stroke-linecap:round;stroke-linejoin:round;stroke:rgb(0%,0%,0%);stroke-opacity:1;stroke-miterlimit:10;" />
    <path
       id="path12"
       d="M 61.625 37.285156 C 65.558594 40.199219 72.273438 39.089844 75.0625 35.070312 C 72.390625 39.789062 65.671875 40.898438 61.625 37.285156 Z M 61.625 37.285156 "
       style="fill-rule:evenodd;fill:rgb(0%,0%,0%);fill-opacity:1;stroke-width:0.310337;stroke-linecap:round;stroke-linejoin:round;stroke:rgb(0%,0%,0%);stroke-opacity:1;stroke-miterlimit:10;" />
    <path
       id="path14"
       d="M 94.683594 37.285156 C 99.191406 39.652344 105.910156 37.4375 108.121094 32.851562 C 106.128906 38.109375 99.414062 40.328125 94.683594 37.285156 Z M 94.683594 37.285156 "
       style="fill-rule:evenodd;fill:rgb(0%,0%,0%);fill-opacity:1;stroke-width:0.310337;stroke-linecap:round;stroke-linejoin:round;stroke:rgb(0%,0%,0%);stroke-opacity:1;stroke-miterlimit:10;" />
    <path
       id="path16"
       d="M 160.804688 37.285156 C 166.453125 38.539062 173.171875 34.105469 174.238281 28.417969 C 173.5625 34.699219 166.84375 39.132812 160.804688 37.285156 Z M 160.804688 37.285156 "
       style="fill-rule:evenodd;fill:rgb(0%,0%,0%);fill-opacity:1;stroke-width:0.310337;stroke-linecap:round;stroke-linejoin:round;stroke:rgb(0%,0%,0%);stroke-opacity:1;stroke-miterlimit:10;" />
    <path
       id="path18"
       d="M 127.742188 37.285156 C 132.824219 39.105469 139.542969 35.777344 141.179688 30.636719 C 139.859375 36.414062 133.140625 39.738281 127.742188 37.285156 Z M 127.742188 37.285156 "
       style="fill-rule:evenodd;fill:rgb(0%,0%,0%);fill-opacity:1;stroke-width:0.310337;stroke-linecap:round;stroke-linejoin:round;stroke:rgb(0%,0%,0%);stroke-opacity:1;stroke-miterlimit:10;" />
    <path
       id="path20"
       d="M 127.742188 37.285156 C 132.824219 39.105469 139.542969 35.777344 141.179688 30.636719 C 139.859375 36.414062 133.140625 39.738281 127.742188 37.285156 Z M 127.742188 37.285156 "
       style="fill-rule:evenodd;fill:rgb(0%,0%,0%);fill-opacity:1;stroke-width:0.310337;stroke-linecap:round;stroke-linejoin:round;stroke:rgb(0%,0%,0%);stroke-opacity:1;stroke-miterlimit:10;" />
    <path
       id="path22"
       d="M 193.863281 37.285156 C 200.058594 37.957031 206.777344 32.414062 207.296875 26.203125 C 207.230469 32.960938 200.511719 38.503906 193.863281 37.285156 Z M 193.863281 37.285156 "
       style="fill-rule:evenodd;fill:rgb(0%,0%,0%);fill-opacity:1;stroke-width:0.310337;stroke-linecap:round;stroke-linejoin:round;stroke:rgb(0%,0%,0%);stroke-opacity:1;stroke-miterlimit:10;" />
    <path
       id="path24"
       d="M 231.328125 22.65625 C 231.527344 18.195312 236.039062 14.871094 240.355469 16.003906 C 236.460938 15.441406 231.945312 18.765625 231.328125 22.65625 Z M 231.328125 22.65625 "
       style="fill-rule:evenodd;fill:rgb(0%,0%,0%);fill-opacity:1;stroke-width:0.310337;stroke-linecap:round;stroke-linejoin:round;stroke:rgb(0%,0%,0%);stroke-opacity:1;stroke-miterlimit:10;" />
    <path
       id="path26"
       d="M 3.75 11.128906 L 53.226562 11.128906 M 3.75 15.5625 L 53.226562 15.5625 M 3.75 19.996094 L 53.226562 19.996094 M 3.75 24.429688 L 53.226562 24.429688 M 3.75 28.863281 L 53.226562 28.863281 "
       style="fill:none;stroke-width:0.354671;stroke-linecap:butt;stroke-linejoin:bevel;stroke:rgb(0%,0%,0%);stroke-opacity:1;stroke-miterlimit:10;" />
    <path
       id="path28"
       d="M 86.285156 11.128906 L 119.34375 11.128906 M 86.285156 15.5625 L 119.34375 15.5625 M 86.285156 19.996094 L 119.34375 19.996094 M 86.285156 24.429688 L 119.34375 24.429688 M 86.285156 28.863281 L 119.34375 28.863281 "
       style="fill:none;stroke-width:0.354671;stroke-linecap:butt;stroke-linejoin:bevel;stroke:rgb(0%,0%,0%);stroke-opacity:1;stroke-miterlimit:10;" />
    <path
       id="path30"
       d="M 53.226562 11.128906 L 86.285156 11.128906 M 53.226562 15.5625 L 86.285156 15.5625 M 53.226562 19.996094 L 86.285156 19.996094 M 53.226562 24.429688 L 86.285156 24.429688 M 53.226562 28.863281 L 86.285156 28.863281 "
       style="fill:none;stroke-width:0.354671;stroke-linecap:butt;stroke-linejoin:bevel;stroke:rgb(0%,0%,0%);stroke-opacity:1;stroke-miterlimit:10;" />
    <path
       id="path32"
       d="M 119.34375 11.128906 L 152.40625 11.128906 M 119.34375 15.5625 L 152.40625 15.5625 M 119.34375 19.996094 L 152.40625 19.996094 M 119.34375 24.429688 L 152.40625 24.429688 M 119.34375 28.863281 L 152.40625 28.863281 "
       style="fill:none;stroke-width:0.354671;stroke-linecap:butt;stroke-linejoin:bevel;stroke:rgb(0%,0%,0%);stroke-opacity:1;stroke-miterlimit:10;" />
    <path
       id="path34"
       d="M 152.40625 11.128906 L 185.464844 11.128906 M 152.40625 15.5625 L 185.464844 15.5625 M 152.40625 19.996094 L 185.464844 19.996094 M 152.40625 24.429688 L 185.464844 24.429688 M 152.40625 28.863281 L 185.464844 28.863281 "
       style="fill:none;stroke-width:0.354671;stroke-linecap:butt;stroke-linejoin:bevel;stroke:rgb(0%,0%,0%);stroke-opacity:1;stroke-miterlimit:10;" />
    <path
       id="path36"
       d="M 185.464844 11.128906 L 218.523438 11.128906 M 185.464844 15.5625 L 218.523438 15.5625 M 185.464844 19.996094 L 218.523438 19.996094 M 185.464844 24.429688 L 218.523438 24.429688 M 185.464844 28.863281 L 218.523438 28.863281 "
       style="fill:none;stroke-width:0.354671;stroke-linecap:butt;stroke-linejoin:bevel;stroke:rgb(0%,0%,0%);stroke-opacity:1;stroke-miterlimit:10;" />
    <path
       id="path38"
       d="M 218.523438 11.128906 L 251.582031 11.128906 M 218.523438 15.5625 L 251.582031 15.5625 M 218.523438 19.996094 L 251.582031 19.996094 M 218.523438 24.429688 L 251.582031 24.429688 M 218.523438 28.863281 L 251.582031 28.863281 "
       style="fill:none;stroke-width:0.354671;stroke-linecap:butt;stroke-linejoin:bevel;stroke:rgb(0%,0%,0%);stroke-opacity:1;stroke-miterlimit:10;" />
    <path
       id="path40"
       d="M 85.933594 11.128906 L 85.933594 28.863281 "
       style="fill:none;stroke-width:0.709342;stroke-linecap:butt;stroke-linejoin:bevel;stroke:rgb(0%,0%,0%);stroke-opacity:1;stroke-miterlimit:10;" />
    <path
       id="path42"
       d="M 52.871094 11.128906 L 52.871094 28.863281 "
       style="fill:none;stroke-width:0.709342;stroke-linecap:butt;stroke-linejoin:bevel;stroke:rgb(0%,0%,0%);stroke-opacity:1;stroke-miterlimit:10;" />
    <path
       id="path44"
       d="M 118.992188 11.128906 L 118.992188 28.863281 "
       style="fill:none;stroke-width:0.709342;stroke-linecap:butt;stroke-linejoin:bevel;stroke:rgb(0%,0%,0%);stroke-opacity:1;stroke-miterlimit:10;" />
    <path
       id="path46"
       d="M 152.050781 11.128906 L 152.050781 28.863281 "
       style="fill:none;stroke-width:0.709342;stroke-linecap:butt;stroke-linejoin:bevel;stroke:rgb(0%,0%,0%);stroke-opacity:1;stroke-miterlimit:10;" />
    <path
       id="path48"
       d="M 185.109375 11.128906 L 185.109375 28.863281 "
       style="fill:none;stroke-width:0.709342;stroke-linecap:butt;stroke-linejoin:bevel;stroke:rgb(0%,0%,0%);stroke-opacity:1;stroke-miterlimit:10;" />
    <path
       id="path50"
       d="M 218.167969 11.128906 L 218.167969 28.863281 "
       style="fill:none;stroke-width:0.709342;stroke-linecap:butt;stroke-linejoin:bevel;stroke:rgb(0%,0%,0%);stroke-opacity:1;stroke-miterlimit:10;" />
    <path
       id="path52"
       d="M 251.226562 11.128906 L 251.226562 28.863281 "
       style="fill:none;stroke-width:0.709342;stroke-linecap:butt;stroke-linejoin:bevel;stroke:rgb(0%,0%,0%);stroke-opacity:1;stroke-miterlimit:10;" />
    <path
       id="path54"
       d="M 37.601562 33.296875 L 46.417969 33.296875 "
       style="fill:none;stroke-width:0.709342;stroke-linecap:square;stroke-linejoin:bevel;stroke:rgb(0%,0%,0%);stroke-opacity:1;stroke-miterlimit:10;" />
    <path
       id="path56"
       d="M 24.175781 33.296875 L 32.992188 33.296875 "
       style="fill:none;stroke-width:0.709342;stroke-linecap:square;stroke-linejoin:bevel;stroke:rgb(0%,0%,0%);stroke-opacity:1;stroke-miterlimit:10;" />
    <path
       id="path58"
       d="M 57.21875 33.296875 L 66.035156 33.296875 "
       style="fill:none;stroke-width:0.709342;stroke-linecap:square;stroke-linejoin:bevel;stroke:rgb(0%,0%,0%);stroke-opacity:1;stroke-miterlimit:10;" />
    <path
       id="path60"
       d="M 123.335938 33.296875 L 132.152344 33.296875 "
       style="fill:none;stroke-width:0.709342;stroke-linecap:square;stroke-linejoin:bevel;stroke:rgb(0%,0%,0%);stroke-opacity:1;stroke-miterlimit:10;" />
    <path
       id="path62"
       d="M 90.277344 33.296875 L 99.09375 33.296875 "
       style="fill:none;stroke-width:0.709342;stroke-linecap:square;stroke-linejoin:bevel;stroke:rgb(0%,0%,0%);stroke-opacity:1;stroke-miterlimit:10;" />
    <path
       id="path64"
       d="M 156.394531 33.296875 L 165.210938 33.296875 "
       style="fill:none;stroke-width:0.709342;stroke-linecap:square;stroke-linejoin:bevel;stroke:rgb(0%,0%,0%);stroke-opacity:1;stroke-miterlimit:10;" />
    <path
       id="path66"
       d="M 189.453125 33.296875 L 198.269531 33.296875 "
       style="fill:none;stroke-width:0.709342;stroke-linecap:square;stroke-linejoin:bevel;stroke:rgb(0%,0%,0%);stroke-opacity:1;stroke-miterlimit:10;" />
    <path
       id="path68"
       d="M 222.511719 33.296875 L 231.328125 33.296875 "
       style="fill:none;stroke-width:0.709342;stroke-linecap:square;stroke-linejoin:bevel;stroke:rgb(0%,0%,0%);stroke-opacity:1;stroke-miterlimit:10;" />
    <path
       id="path70"
       d="M 44.800781 32.613281 L 44.800781 17.777344 "
       style="fill:none;stroke-width:0.57634;stroke-linecap:round;stroke-linejoin:bevel;stroke:rgb(0%,0%,0%);stroke-opacity:1;stroke-miterlimit:10;" />
    <path
       id="path72"
       d="M 31.375 32.613281 L 31.375 17.777344 "
       style="fill:none;stroke-width:0.57634;stroke-linecap:round;stroke-linejoin:bevel;stroke:rgb(0%,0%,0%);stroke-opacity:1;stroke-miterlimit:10;" />
    <path
       id="path74"
       d="M 77.851562 30.398438 L 77.851562 15.5625 "
       style="fill:none;stroke-width:0.57634;stroke-linecap:round;stroke-linejoin:bevel;stroke:rgb(0%,0%,0%);stroke-opacity:1;stroke-miterlimit:10;" />
    <path
       id="path76"
       d="M 64.417969 32.613281 L 64.417969 17.777344 "
       style="fill:none;stroke-width:0.57634;stroke-linecap:round;stroke-linejoin:bevel;stroke:rgb(0%,0%,0%);stroke-opacity:1;stroke-miterlimit:10;" />
    <path
       id="path78"
       d="M 110.910156 28.179688 L 110.910156 13.34375 "
       style="fill:none;stroke-width:0.57634;stroke-linecap:round;stroke-linejoin:bevel;stroke:rgb(0%,0%,0%);stroke-opacity:1;stroke-miterlimit:10;" />
    <path
       id="path80"
       d="M 97.476562 32.613281 L 97.476562 17.777344 "
       style="fill:none;stroke-width:0.57634;stroke-linecap:round;stroke-linejoin:bevel;stroke:rgb(0%,0%,0%);stroke-opacity:1;stroke-miterlimit:10;" />
    <path
       id="path82"
       d="M 143.96875 25.964844 L 143.96875 11.128906 "
       style="fill:none;stroke-width:0.57634;stroke-linecap:round;stroke-linejoin:bevel;stroke:rgb(0%,0%,0%);stroke-opacity:1;stroke-miterlimit:10;" />
    <path
       id="path84"
       d="M 177.027344 23.746094 L 177.027344 9.464844 "
       style="fill:none;stroke-width:0.57634;stroke-linecap:round;stroke-linejoin:bevel;stroke:rgb(0%,0%,0%);stroke-opacity:1;stroke-miterlimit:10;" />
    <path
       id="path86"
       d="M 210.085938 21.53125 L 210.085938 7.804688 "
       style="fill:none;stroke-width:0.57634;stroke-linecap:round;stroke-linejoin:bevel;stroke:rgb(0%,0%,0%);stroke-opacity:1;stroke-miterlimit:10;" />
    <path
       id="path88"
       d="M 130.535156 32.613281 L 130.535156 17.777344 "
       style="fill:none;stroke-width:0.57634;stroke-linecap:round;stroke-linejoin:bevel;stroke:rgb(0%,0%,0%);stroke-opacity:1;stroke-miterlimit:10;" />
    <path
       id="path90"
       d="M 196.652344 32.613281 L 196.652344 17.777344 "
       style="fill:none;stroke-width:0.57634;stroke-linecap:round;stroke-linejoin:bevel;stroke:rgb(0%,0%,0%);stroke-opacity:1;stroke-miterlimit:10;" />
    <path
       id="path92"
       d="M 163.59375 32.613281 L 163.59375 17.777344 "
       style="fill:none;stroke-width:0.57634;stroke-linecap:round;stroke-linejoin:bevel;stroke:rgb(0%,0%,0%);stroke-opacity:1;stroke-miterlimit:10;" />
    <path
       id="path94"
       d="M 229.710938 32.613281 L 229.710938 17.777344 "
       style="fill:none;stroke-width:0.57634;stroke-linecap:round;stroke-linejoin:bevel;stroke:rgb(0%,0%,0%);stroke-opacity:1;stroke-miterlimit:10;" />
    <path
       id="path96"
       d="M 237.566406 20.691406 L 237.566406 33.847656 "
       style="fill:none;stroke-width:0.57634;stroke-linecap:round;stroke-linejoin:bevel;stroke:rgb(0%,0%,0%);stroke-opacity:1;stroke-miterlimit:10;" />
    <path
       id="path98"
       d="M 44.527344 32.132812 C 44.527344 31.9375 44.449219 31.769531 44.300781 31.632812 C 44.148438 31.480469 43.976562 31.40625 43.78125 31.40625 C 43.433594 31.40625 42.734375 31.753906 41.683594 32.445312 C 40.601562 33.152344 39.9375 33.652344 39.695312 33.953125 C 39.566406 34.113281 39.503906 34.28125 39.503906 34.457031 C 39.503906 34.652344 39.578125 34.820312 39.726562 34.957031 C 39.867188 35.109375 40.039062 35.183594 40.246094 35.183594 C 40.582031 35.183594 41.285156 34.835938 42.359375 34.144531 C 43.421875 33.449219 44.082031 32.949219 44.335938 32.636719 C 44.460938 32.488281 44.527344 32.320312 44.527344 32.132812 Z M 43.609375 30.851562 C 44.601562 30.851562 45.097656 31.28125 45.097656 32.132812 C 45.097656 32.550781 44.976562 33.035156 44.734375 33.589844 C 44.492188 34.132812 44.167969 34.546875 43.761719 34.835938 C 42.875 35.4375 41.761719 35.738281 40.421875 35.738281 C 39.429688 35.738281 38.933594 35.308594 38.933594 34.457031 C 38.933594 34.074219 39.054688 33.59375 39.296875 33.019531 C 39.527344 32.464844 39.851562 32.042969 40.265625 31.753906 C 41.15625 31.152344 42.269531 30.851562 43.609375 30.851562 Z M 43.609375 30.851562 "
       style=" stroke:none;fill-rule:nonzero;fill:rgb(0%,0%,0%);fill-opacity:1;" />
    <path
       id="path100"
       d="M 31.097656 32.132812 C 31.097656 31.9375 31.023438 31.769531 30.875 31.632812 C 30.722656 31.480469 30.550781 31.40625 30.355469 31.40625 C 30.007812 31.40625 29.308594 31.753906 28.257812 32.445312 C 27.175781 33.152344 26.511719 33.652344 26.269531 33.953125 C 26.140625 34.113281 26.078125 34.28125 26.078125 34.457031 C 26.078125 34.652344 26.152344 34.820312 26.300781 34.957031 C 26.441406 35.109375 26.613281 35.183594 26.820312 35.183594 C 27.15625 35.183594 27.859375 34.835938 28.933594 34.144531 C 29.996094 33.449219 30.65625 32.949219 30.910156 32.636719 C 31.035156 32.488281 31.097656 32.320312 31.097656 32.132812 Z M 30.179688 30.851562 C 31.175781 30.851562 31.671875 31.28125 31.671875 32.132812 C 31.671875 32.550781 31.550781 33.035156 31.308594 33.589844 C 31.066406 34.132812 30.742188 34.546875 30.335938 34.835938 C 29.449219 35.4375 28.335938 35.738281 26.996094 35.738281 C 26.003906 35.738281 25.503906 35.308594 25.503906 34.457031 C 25.503906 34.074219 25.625 33.59375 25.871094 33.019531 C 26.101562 32.464844 26.421875 32.042969 26.839844 31.753906 C 27.726562 31.152344 28.84375 30.851562 30.179688 30.851562 Z M 30.179688 30.851562 "
       style=" stroke:none;fill-rule:nonzero;fill:rgb(0%,0%,0%);fill-opacity:1;" />
    <path
       id="path102"
       d="M 77.574219 29.917969 C 77.574219 29.722656 77.5 29.554688 77.351562 29.414062 C 77.199219 29.265625 77.027344 29.191406 76.832031 29.191406 C 76.484375 29.191406 75.785156 29.535156 74.734375 30.230469 C 73.652344 30.933594 72.988281 31.4375 72.746094 31.738281 C 72.617188 31.898438 72.554688 32.066406 72.554688 32.238281 C 72.554688 32.433594 72.628906 32.601562 72.777344 32.742188 C 72.917969 32.890625 73.089844 32.964844 73.296875 32.964844 C 73.632812 32.964844 74.335938 32.621094 75.410156 31.925781 C 76.472656 31.234375 77.132812 30.730469 77.386719 30.421875 C 77.511719 30.269531 77.574219 30.101562 77.574219 29.917969 Z M 76.65625 28.636719 C 77.652344 28.636719 78.148438 29.0625 78.148438 29.917969 C 78.148438 30.332031 78.027344 30.820312 77.785156 31.371094 C 77.542969 31.914062 77.21875 32.332031 76.8125 32.621094 C 75.925781 33.21875 74.8125 33.519531 73.472656 33.519531 C 72.480469 33.519531 71.980469 33.09375 71.980469 32.238281 C 71.980469 31.859375 72.105469 31.378906 72.347656 30.800781 C 72.578125 30.246094 72.898438 29.824219 73.316406 29.535156 C 74.203125 28.9375 75.320312 28.636719 76.65625 28.636719 Z M 76.65625 28.636719 "
       style=" stroke:none;fill-rule:nonzero;fill:rgb(0%,0%,0%);fill-opacity:1;" />
    <path
       id="path104"
       d="M 64.140625 32.132812 C 64.140625 31.9375 64.066406 31.769531 63.914062 31.632812 C 63.765625 31.480469 63.59375 31.40625 63.394531 31.40625 C 63.050781 31.40625 62.351562 31.753906 61.300781 32.445312 C 60.214844 33.152344 59.550781 33.652344 59.308594 33.953125 C 59.183594 34.113281 59.117188 34.28125 59.117188 34.457031 C 59.117188 34.652344 59.195312 34.820312 59.34375 34.957031 C 59.484375 35.109375 59.65625 35.183594 59.863281 35.183594 C 60.199219 35.183594 60.902344 34.835938 61.976562 34.144531 C 63.039062 33.449219 63.695312 32.949219 63.949219 32.636719 C 64.078125 32.488281 64.140625 32.320312 64.140625 32.132812 Z M 63.222656 30.851562 C 64.214844 30.851562 64.710938 31.28125 64.710938 32.132812 C 64.710938 32.550781 64.589844 33.035156 64.347656 33.589844 C 64.105469 34.132812 63.785156 34.546875 63.378906 34.835938 C 62.488281 35.4375 61.375 35.738281 60.035156 35.738281 C 59.042969 35.738281 58.546875 35.308594 58.546875 34.457031 C 58.546875 34.074219 58.667969 33.59375 58.910156 33.019531 C 59.140625 32.464844 59.464844 32.042969 59.882812 31.753906 C 60.769531 31.152344 61.882812 30.851562 63.222656 30.851562 Z M 63.222656 30.851562 "
       style=" stroke:none;fill-rule:nonzero;fill:rgb(0%,0%,0%);fill-opacity:1;" />
    <path
       id="path106"
       d="M 110.636719 27.703125 C 110.636719 27.503906 110.558594 27.335938 110.410156 27.199219 C 110.261719 27.050781 110.085938 26.972656 109.890625 26.972656 C 109.542969 26.972656 108.84375 27.320312 107.796875 28.011719 C 106.710938 28.71875 106.046875 29.21875 105.804688 29.519531 C 105.675781 29.679688 105.613281 29.847656 105.613281 30.023438 C 105.613281 30.21875 105.6875 30.386719 105.839844 30.523438 C 105.976562 30.675781 106.148438 30.75 106.359375 30.75 C 106.691406 30.75 107.398438 30.402344 108.46875 29.710938 C 109.53125 29.015625 110.191406 28.515625 110.445312 28.203125 C 110.570312 28.054688 110.636719 27.886719 110.636719 27.703125 Z M 109.71875 26.417969 C 110.710938 26.417969 111.207031 26.847656 111.207031 27.703125 C 111.207031 28.117188 111.085938 28.601562 110.84375 29.15625 C 110.601562 29.699219 110.277344 30.113281 109.875 30.402344 C 108.984375 31.003906 107.871094 31.304688 106.53125 31.304688 C 105.539062 31.304688 105.042969 30.875 105.042969 30.023438 C 105.042969 29.640625 105.164062 29.160156 105.40625 28.585938 C 105.636719 28.03125 105.960938 27.609375 106.375 27.320312 C 107.265625 26.71875 108.378906 26.417969 109.71875 26.417969 Z M 109.71875 26.417969 "
       style=" stroke:none;fill-rule:nonzero;fill:rgb(0%,0%,0%);fill-opacity:1;" />
    <path
       id="path108"
       d="M 97.199219 32.132812 C 97.199219 31.9375 97.125 31.769531 96.976562 31.632812 C 96.824219 31.480469 96.652344 31.40625 96.457031 31.40625 C 96.109375 31.40625 95.410156 31.753906 94.359375 32.445312 C 93.273438 33.152344 92.609375 33.652344 92.367188 33.953125 C 92.242188 34.113281 92.179688 34.28125 92.179688 34.457031 C 92.179688 34.652344 92.253906 34.820312 92.402344 34.957031 C 92.542969 35.109375 92.714844 35.183594 92.921875 35.183594 C 93.257812 35.183594 93.960938 34.835938 95.035156 34.144531 C 96.097656 33.449219 96.753906 32.949219 97.011719 32.636719 C 97.136719 32.488281 97.199219 32.320312 97.199219 32.132812 Z M 96.28125 30.851562 C 97.273438 30.851562 97.773438 31.28125 97.773438 32.132812 C 97.773438 32.550781 97.652344 33.035156 97.40625 33.589844 C 97.164062 34.132812 96.84375 34.546875 96.4375 34.835938 C 95.550781 35.4375 94.433594 35.738281 93.097656 35.738281 C 92.101562 35.738281 91.605469 35.308594 91.605469 34.457031 C 91.605469 34.074219 91.726562 33.59375 91.96875 33.019531 C 92.199219 32.464844 92.523438 32.042969 92.941406 31.753906 C 93.828125 31.152344 94.941406 30.851562 96.28125 30.851562 Z M 96.28125 30.851562 "
       style=" stroke:none;fill-rule:nonzero;fill:rgb(0%,0%,0%);fill-opacity:1;" />
    <path
       id="path110"
       d="M 163.320312 32.132812 C 163.320312 31.9375 163.242188 31.769531 163.09375 31.632812 C 162.941406 31.480469 162.769531 31.40625 162.574219 31.40625 C 162.226562 31.40625 161.527344 31.753906 160.476562 32.445312 C 159.394531 33.152344 158.730469 33.652344 158.488281 33.953125 C 158.359375 34.113281 158.296875 34.28125 158.296875 34.457031 C 158.296875 34.652344 158.371094 34.820312 158.519531 34.957031 C 158.660156 35.109375 158.832031 35.183594 159.039062 35.183594 C 159.375 35.183594 160.078125 34.835938 161.152344 34.144531 C 162.214844 33.449219 162.875 32.949219 163.128906 32.636719 C 163.253906 32.488281 163.320312 32.320312 163.320312 32.132812 Z M 162.402344 30.851562 C 163.394531 30.851562 163.890625 31.28125 163.890625 32.132812 C 163.890625 32.550781 163.769531 33.035156 163.527344 33.589844 C 163.285156 34.132812 162.960938 34.546875 162.554688 34.835938 C 161.667969 35.4375 160.554688 35.738281 159.214844 35.738281 C 158.222656 35.738281 157.726562 35.308594 157.726562 34.457031 C 157.726562 34.074219 157.847656 33.59375 158.089844 33.019531 C 158.320312 32.464844 158.644531 32.042969 159.058594 31.753906 C 159.949219 31.152344 161.0625 30.851562 162.402344 30.851562 Z M 162.402344 30.851562 "
       style=" stroke:none;fill-rule:nonzero;fill:rgb(0%,0%,0%);fill-opacity:1;" />
    <path
       id="path112"
       d="M 143.695312 25.484375 C 143.695312 25.289062 143.621094 25.121094 143.46875 24.980469 C 143.320312 24.832031 143.144531 24.757812 142.949219 24.757812 C 142.601562 24.757812 141.90625 25.105469 140.855469 25.796875 C 139.769531 26.5 139.105469 27.003906 138.863281 27.304688 C 138.734375 27.464844 138.671875 27.632812 138.671875 27.804688 C 138.671875 28 138.746094 28.167969 138.898438 28.308594 C 139.035156 28.457031 139.207031 28.53125 139.417969 28.53125 C 139.75 28.53125 140.457031 28.1875 141.53125 27.492188 C 142.589844 26.800781 143.25 26.296875 143.503906 25.988281 C 143.628906 25.835938 143.695312 25.667969 143.695312 25.484375 Z M 142.777344 24.203125 C 143.769531 24.203125 144.265625 24.628906 144.265625 25.484375 C 144.265625 25.898438 144.144531 26.386719 143.902344 26.9375 C 143.660156 27.480469 143.335938 27.898438 142.933594 28.1875 C 142.042969 28.785156 140.929688 29.085938 139.589844 29.085938 C 138.597656 29.085938 138.101562 28.660156 138.101562 27.804688 C 138.101562 27.425781 138.222656 26.945312 138.464844 26.367188 C 138.695312 25.8125 139.019531 25.390625 139.433594 25.105469 C 140.324219 24.503906 141.4375 24.203125 142.777344 24.203125 Z M 142.777344 24.203125 "
       style=" stroke:none;fill-rule:nonzero;fill:rgb(0%,0%,0%);fill-opacity:1;" />
    <path
       id="path114"
       d="M 130.257812 32.132812 C 130.257812 31.9375 130.183594 31.769531 130.035156 31.632812 C 129.882812 31.480469 129.710938 31.40625 129.515625 31.40625 C 129.167969 31.40625 128.46875 31.753906 127.417969 32.445312 C 126.335938 33.152344 125.671875 33.652344 125.425781 33.953125 C 125.300781 34.113281 125.238281 34.28125 125.238281 34.457031 C 125.238281 34.652344 125.3125 34.820312 125.460938 34.957031 C 125.601562 35.109375 125.773438 35.183594 125.980469 35.183594 C 126.316406 35.183594 127.019531 34.835938 128.09375 34.144531 C 129.15625 33.449219 129.816406 32.949219 130.070312 32.636719 C 130.195312 32.488281 130.257812 32.320312 130.257812 32.132812 Z M 129.339844 30.851562 C 130.335938 30.851562 130.832031 31.28125 130.832031 32.132812 C 130.832031 32.550781 130.710938 33.035156 130.46875 33.589844 C 130.226562 34.132812 129.902344 34.546875 129.496094 34.835938 C 128.609375 35.4375 127.496094 35.738281 126.15625 35.738281 C 125.164062 35.738281 124.664062 35.308594 124.664062 34.457031 C 124.664062 34.074219 124.785156 33.59375 125.03125 33.019531 C 125.261719 32.464844 125.582031 32.042969 126 31.753906 C 126.886719 31.152344 128.003906 30.851562 129.339844 30.851562 Z M 129.339844 30.851562 "
       style=" stroke:none;fill-rule:nonzero;fill:rgb(0%,0%,0%);fill-opacity:1;" />
    <path
       id="path116"
       d="M 196.378906 32.132812 C 196.378906 31.9375 196.300781 31.769531 196.152344 31.632812 C 196.003906 31.480469 195.828125 31.40625 195.632812 31.40625 C 195.285156 31.40625 194.589844 31.753906 193.539062 32.445312 C 192.453125 33.152344 191.789062 33.652344 191.546875 33.953125 C 191.417969 34.113281 191.355469 34.28125 191.355469 34.457031 C 191.355469 34.652344 191.429688 34.820312 191.582031 34.957031 C 191.71875 35.109375 191.890625 35.183594 192.101562 35.183594 C 192.433594 35.183594 193.140625 34.835938 194.214844 34.144531 C 195.273438 33.449219 195.933594 32.949219 196.1875 32.636719 C 196.3125 32.488281 196.378906 32.320312 196.378906 32.132812 Z M 195.460938 30.851562 C 196.453125 30.851562 196.949219 31.28125 196.949219 32.132812 C 196.949219 32.550781 196.828125 33.035156 196.585938 33.589844 C 196.34375 34.132812 196.019531 34.546875 195.617188 34.835938 C 194.726562 35.4375 193.613281 35.738281 192.273438 35.738281 C 191.28125 35.738281 190.785156 35.308594 190.785156 34.457031 C 190.785156 34.074219 190.90625 33.59375 191.148438 33.019531 C 191.378906 32.464844 191.703125 32.042969 192.117188 31.753906 C 193.007812 31.152344 194.121094 30.851562 195.460938 30.851562 Z M 195.460938 30.851562 "
       style=" stroke:none;fill-rule:nonzero;fill:rgb(0%,0%,0%);fill-opacity:1;" />
    <path
       id="path118"
       d="M 176.753906 23.269531 C 176.753906 23.070312 176.679688 22.902344 176.527344 22.765625 C 176.378906 22.617188 176.203125 22.539062 176.007812 22.539062 C 175.664062 22.539062 174.964844 22.886719 173.914062 23.578125 C 172.828125 24.285156 172.164062 24.785156 171.921875 25.085938 C 171.792969 25.246094 171.730469 25.414062 171.730469 25.589844 C 171.730469 25.785156 171.804688 25.953125 171.957031 26.089844 C 172.09375 26.242188 172.269531 26.316406 172.476562 26.316406 C 172.8125 26.316406 173.515625 25.96875 174.589844 25.277344 C 175.652344 24.585938 176.308594 24.082031 176.5625 23.769531 C 176.691406 23.621094 176.753906 23.453125 176.753906 23.269531 Z M 175.835938 21.988281 C 176.828125 21.988281 177.324219 22.414062 177.324219 23.269531 C 177.324219 23.683594 177.203125 24.167969 176.960938 24.722656 C 176.71875 25.265625 176.394531 25.679688 175.992188 25.96875 C 175.101562 26.570312 173.988281 26.871094 172.648438 26.871094 C 171.65625 26.871094 171.160156 26.441406 171.160156 25.589844 C 171.160156 25.207031 171.28125 24.726562 171.523438 24.152344 C 171.753906 23.597656 172.078125 23.175781 172.492188 22.886719 C 173.382812 22.285156 174.496094 21.988281 175.835938 21.988281 Z M 175.835938 21.988281 "
       style=" stroke:none;fill-rule:nonzero;fill:rgb(0%,0%,0%);fill-opacity:1;" />
    <path
       id="path120"
       d="M 229.4375 32.132812 C 229.4375 31.9375 229.363281 31.769531 229.210938 31.632812 C 229.0625 31.480469 228.886719 31.40625 228.691406 31.40625 C 228.347656 31.40625 227.648438 31.753906 226.597656 32.445312 C 225.511719 33.152344 224.847656 33.652344 224.605469 33.953125 C 224.476562 34.113281 224.414062 34.28125 224.414062 34.457031 C 224.414062 34.652344 224.488281 34.820312 224.640625 34.957031 C 224.777344 35.109375 224.953125 35.183594 225.160156 35.183594 C 225.492188 35.183594 226.199219 34.835938 227.273438 34.144531 C 228.335938 33.449219 228.992188 32.949219 229.246094 32.636719 C 229.375 32.488281 229.4375 32.320312 229.4375 32.132812 Z M 228.519531 30.851562 C 229.511719 30.851562 230.007812 31.28125 230.007812 32.132812 C 230.007812 32.550781 229.886719 33.035156 229.644531 33.589844 C 229.402344 34.132812 229.078125 34.546875 228.675781 34.835938 C 227.785156 35.4375 226.671875 35.738281 225.332031 35.738281 C 224.339844 35.738281 223.84375 35.308594 223.84375 34.457031 C 223.84375 34.074219 223.964844 33.59375 224.207031 33.019531 C 224.4375 32.464844 224.761719 32.042969 225.175781 31.753906 C 226.066406 31.152344 227.179688 30.851562 228.519531 30.851562 Z M 228.519531 30.851562 "
       style=" stroke:none;fill-rule:nonzero;fill:rgb(0%,0%,0%);fill-opacity:1;" />
    <path
       id="path122"
       d="M 209.8125 21.050781 C 209.8125 20.855469 209.738281 20.6875 209.585938 20.550781 C 209.4375 20.398438 209.265625 20.324219 209.066406 20.324219 C 208.722656 20.324219 208.023438 20.671875 206.972656 21.363281 C 205.886719 22.066406 205.222656 22.570312 204.980469 22.871094 C 204.855469 23.03125 204.789062 23.199219 204.789062 23.371094 C 204.789062 23.566406 204.867188 23.734375 205.015625 23.875 C 205.152344 24.023438 205.328125 24.097656 205.535156 24.097656 C 205.871094 24.097656 206.574219 23.753906 207.648438 23.058594 C 208.710938 22.367188 209.367188 21.863281 209.621094 21.554688 C 209.75 21.402344 209.8125 21.234375 209.8125 21.050781 Z M 208.894531 19.769531 C 209.886719 19.769531 210.382812 20.195312 210.382812 21.050781 C 210.382812 21.46875 210.261719 21.953125 210.019531 22.507812 C 209.777344 23.046875 209.453125 23.464844 209.050781 23.753906 C 208.160156 24.351562 207.046875 24.652344 205.707031 24.652344 C 204.714844 24.652344 204.21875 24.226562 204.21875 23.371094 C 204.21875 22.992188 204.339844 22.511719 204.582031 21.933594 C 204.8125 21.378906 205.136719 20.957031 205.550781 20.671875 C 206.441406 20.070312 207.554688 19.769531 208.894531 19.769531 Z M 208.894531 19.769531 "
       style=" stroke:none;fill-rule:nonzero;fill:rgb(0%,0%,0%);fill-opacity:1;" />
    <path
       id="path124"
       d="M 242.871094 18.835938 C 242.871094 18.636719 242.796875 18.472656 242.648438 18.332031 C 242.496094 18.183594 242.324219 18.105469 242.128906 18.105469 C 241.78125 18.105469 241.082031 18.453125 240.03125 19.144531 C 238.945312 19.851562 238.28125 20.351562 238.039062 20.652344 C 237.914062 20.816406 237.847656 20.980469 237.847656 21.15625 C 237.847656 21.351562 237.925781 21.519531 238.074219 21.65625 C 238.214844 21.808594 238.386719 21.882812 238.59375 21.882812 C 238.929688 21.882812 239.632812 21.535156 240.707031 20.84375 C 241.769531 20.152344 242.425781 19.648438 242.679688 19.335938 C 242.808594 19.1875 242.871094 19.019531 242.871094 18.835938 Z M 241.953125 17.554688 C 242.945312 17.554688 243.441406 17.980469 243.441406 18.835938 C 243.441406 19.25 243.320312 19.734375 243.078125 20.289062 C 242.835938 20.832031 242.515625 21.246094 242.109375 21.535156 C 241.21875 22.136719 240.105469 22.4375 238.765625 22.4375 C 237.773438 22.4375 237.277344 22.007812 237.277344 21.15625 C 237.277344 20.773438 237.398438 20.296875 237.640625 19.71875 C 237.871094 19.164062 238.195312 18.742188 238.613281 18.453125 C 239.5 17.851562 240.613281 17.554688 241.953125 17.554688 Z M 241.953125 17.554688 "
       style=" stroke:none;fill-rule:nonzero;fill:rgb(0%,0%,0%);fill-opacity:1;" />
    <path
       id="path126"
       d="M 13.097656 19.890625 C 13.097656 19.890625 13.132812 19.890625 13.203125 19.890625 C 13.246094 19.878906 13.289062 19.875 13.324219 19.875 C 14.617188 19.875 15.679688 20.328125 16.507812 21.242188 C 17.339844 22.140625 17.757812 23.191406 17.757812 24.394531 C 17.757812 25.882812 17.136719 27.09375 15.902344 28.03125 C 15.578125 28.285156 15.160156 28.492188 14.640625 28.652344 C 14.695312 29.402344 14.726562 30.011719 14.726562 30.472656 C 14.726562 30.566406 14.714844 30.898438 14.691406 31.476562 C 14.644531 32.550781 14.273438 33.480469 13.582031 34.265625 C 12.914062 35.039062 12.082031 35.425781 11.089844 35.425781 C 10.152344 35.425781 9.355469 35.097656 8.699219 34.4375 C 8.039062 33.769531 7.710938 32.960938 7.710938 32.011719 C 7.710938 31.515625 7.902344 31.09375 8.285156 30.75 C 8.675781 30.402344 9.132812 30.230469 9.652344 30.230469 C 10.113281 30.230469 10.5 30.410156 10.8125 30.765625 C 11.136719 31.101562 11.296875 31.515625 11.296875 32.011719 C 11.296875 32.464844 11.136719 32.851562 10.8125 33.171875 C 10.488281 33.496094 10.101562 33.660156 9.652344 33.660156 C 9.464844 33.660156 9.289062 33.625 9.113281 33.554688 C 9.621094 34.304688 10.296875 34.679688 11.140625 34.679688 C 11.9375 34.679688 12.589844 34.355469 13.097656 33.710938 C 13.628906 33.039062 13.917969 32.261719 13.964844 31.371094 C 13.988281 30.820312 14 30.5 14 30.421875 C 14 29.773438 13.976562 29.242188 13.929688 28.828125 C 13.351562 28.917969 12.839844 28.964844 12.386719 28.964844 C 10.78125 28.964844 9.414062 28.332031 8.285156 27.0625 C 7.175781 25.777344 6.621094 24.253906 6.621094 22.488281 C 6.621094 22.121094 6.65625 21.742188 6.726562 21.363281 C 6.792969 21.050781 6.878906 20.710938 6.984375 20.339844 C 7.042969 20.132812 7.199219 19.796875 7.453125 19.335938 C 7.542969 19.199219 7.648438 19.023438 7.765625 18.816406 C 7.878906 18.609375 7.960938 18.472656 8.007812 18.402344 C 8.121094 18.171875 8.347656 17.859375 8.679688 17.464844 C 8.773438 17.363281 8.871094 17.246094 8.96875 17.121094 C 9.066406 16.992188 9.148438 16.890625 9.21875 16.808594 C 9.289062 16.726562 9.339844 16.664062 9.375 16.617188 C 9.410156 16.570312 9.667969 16.265625 10.152344 15.699219 C 10.269531 15.585938 10.382812 15.460938 10.492188 15.328125 C 10.601562 15.195312 10.691406 15.089844 10.761719 15.015625 C 10.828125 14.941406 10.882812 14.886719 10.914062 14.851562 C 10.5 13.476562 10.242188 12.378906 10.136719 11.5625 C 10.054688 10.902344 10.015625 10.003906 10.015625 8.859375 C 10.015625 7.855469 10.246094 6.914062 10.707031 6.035156 C 11.15625 5.125 11.789062 4.378906 12.59375 3.800781 C 12.652344 3.769531 12.710938 3.75 12.769531 3.75 C 12.847656 3.75 12.90625 3.769531 12.941406 3.800781 C 13.566406 4.554688 14.101562 5.527344 14.550781 6.730469 C 15.015625 7.929688 15.246094 9.019531 15.246094 10.003906 C 15.246094 11.109375 14.980469 12.148438 14.449219 13.121094 C 13.847656 14.148438 13.074219 15.210938 12.128906 16.304688 C 12.371094 17.066406 12.695312 18.261719 13.097656 19.890625 Z M 14.570312 27.945312 C 15.171875 27.722656 15.636719 27.347656 15.972656 26.816406 C 16.34375 26.308594 16.527344 25.738281 16.527344 25.105469 C 16.527344 24.285156 16.25 23.554688 15.695312 22.921875 C 15.128906 22.261719 14.40625 21.894531 13.53125 21.8125 C 14.027344 24.25 14.375 26.292969 14.570312 27.945312 Z M 7.867188 23.941406 C 7.867188 25.085938 8.328125 26.089844 9.253906 26.957031 C 10.199219 27.800781 11.261719 28.222656 12.441406 28.222656 C 12.925781 28.222656 13.398438 28.1875 13.859375 28.117188 C 13.675781 26.363281 13.3125 24.261719 12.769531 21.8125 C 12.109375 21.882812 11.585938 22.113281 11.191406 22.507812 C 10.8125 22.910156 10.621094 23.367188 10.621094 23.875 C 10.621094 24.75 11.089844 25.460938 12.023438 26.003906 C 12.105469 26.085938 12.144531 26.171875 12.144531 26.265625 C 12.144531 26.355469 12.105469 26.441406 12.023438 26.523438 C 11.953125 26.605469 11.867188 26.644531 11.765625 26.644531 C 11.753906 26.644531 11.699219 26.632812 11.609375 26.609375 C 10.949219 26.253906 10.441406 25.789062 10.085938 25.226562 C 9.75 24.625 9.582031 24.019531 9.582031 23.40625 C 9.582031 22.609375 9.832031 21.886719 10.328125 21.242188 C 10.847656 20.59375 11.523438 20.179688 12.351562 19.996094 C 12.03125 18.703125 11.765625 17.691406 11.554688 16.964844 C 11.371094 17.171875 11.148438 17.421875 10.890625 17.71875 C 10.628906 18.011719 10.476562 18.1875 10.429688 18.246094 C 10.015625 18.789062 9.699219 19.210938 9.476562 19.511719 C 9.085938 20.050781 8.796875 20.519531 8.613281 20.914062 C 8.417969 21.351562 8.242188 21.832031 8.09375 22.351562 C 7.941406 22.847656 7.867188 23.378906 7.867188 23.941406 Z M 13.652344 6.332031 C 12.785156 6.757812 12.105469 7.371094 11.609375 8.167969 C 11.101562 8.988281 10.847656 9.871094 10.847656 10.816406 C 10.847656 11.648438 11.054688 12.765625 11.46875 14.175781 C 12.300781 13.171875 12.925781 12.242188 13.339844 11.386719 C 13.777344 10.488281 14 9.546875 14 8.566406 C 14 7.824219 13.882812 7.082031 13.652344 6.332031 Z M 13.652344 6.332031 "
       style=" stroke:none;fill-rule:nonzero;fill:rgb(0%,0%,0%);fill-opacity:1;" />
  </g>
</svg>
