<?xml version="1.0" encoding="UTF-8" standalone="no"?>
<svg
   xmlns:dc="http://purl.org/dc/elements/1.1/"
   xmlns:cc="http://creativecommons.org/ns#"
   xmlns:rdf="http://www.w3.org/1999/02/22-rdf-syntax-ns#"
   xmlns:svg="http://www.w3.org/2000/svg"
   xmlns="http://www.w3.org/2000/svg"
   xmlns:sodipodi="http://sodipodi.sourceforge.net/DTD/sodipodi-0.dtd"
   xmlns:inkscape="http://www.inkscape.org/namespaces/inkscape"
   inkscape:version="1.0 (4035a4f, 2020-05-01)"
   sodipodi:docname="intervals_harm.svg"
   id="svg81"
   version="1.2"
   viewBox="0 0 260 50"
   height="50pt"
   width="260pt">
  <metadata
     id="metadata87">
    <rdf:RDF>
      <cc:Work
         rdf:about="">
        <dc:format>image/svg+xml</dc:format>
        <dc:type
           rdf:resource="http://purl.org/dc/dcmitype/StillImage" />
        <dc:title></dc:title>
      </cc:Work>
    </rdf:RDF>
  </metadata>
  <defs
     id="defs85" />
  <sodipodi:namedview
     inkscape:current-layer="svg81"
     inkscape:window-maximized="0"
     inkscape:window-y="23"
     inkscape:window-x="0"
     inkscape:cy="33.333333"
     inkscape:cx="173.33333"
     inkscape:zoom="3.6894231"
     showgrid="false"
     id="namedview83"
     inkscape:window-height="480"
     inkscape:window-width="741"
     inkscape:pageshadow="2"
     inkscape:pageopacity="0"
     guidetolerance="10"
     gridtolerance="10"
     objecttolerance="10"
     borderopacity="1"
     bordercolor="#666666"
     pagecolor="#ffffff" />
  <g
     id="surface3238">
    <path
       id="path10"
       d="M 3.75 11.128906 L 48.460938 11.128906 M 3.75 15.5625 L 48.460938 15.5625 M 3.75 19.996094 L 48.460938 19.996094 M 3.75 24.429688 L 48.460938 24.429688 M 3.75 28.863281 L 48.460938 28.863281 "
       style="fill:none;stroke-width:0.354671;stroke-linecap:butt;stroke-linejoin:bevel;stroke:rgb(0%,0%,0%);stroke-opacity:1;stroke-miterlimit:10;" />
    <path
       id="path12"
       d="M 48.460938 11.128906 L 87.191406 11.128906 M 48.460938 15.5625 L 87.191406 15.5625 M 48.460938 19.996094 L 87.191406 19.996094 M 48.460938 24.429688 L 87.191406 24.429688 M 48.460938 28.863281 L 87.191406 28.863281 "
       style="fill:none;stroke-width:0.354671;stroke-linecap:butt;stroke-linejoin:bevel;stroke:rgb(0%,0%,0%);stroke-opacity:1;stroke-miterlimit:10;" />
    <path
       id="path14"
       d="M 117.71875 11.128906 L 148.246094 11.128906 M 117.71875 15.5625 L 148.246094 15.5625 M 117.71875 19.996094 L 148.246094 19.996094 M 117.71875 24.429688 L 148.246094 24.429688 M 117.71875 28.863281 L 148.246094 28.863281 "
       style="fill:none;stroke-width:0.354671;stroke-linecap:butt;stroke-linejoin:bevel;stroke:rgb(0%,0%,0%);stroke-opacity:1;stroke-miterlimit:10;" />
    <path
       id="path16"
       d="M 87.191406 11.128906 L 117.71875 11.128906 M 87.191406 15.5625 L 117.71875 15.5625 M 87.191406 19.996094 L 117.71875 19.996094 M 87.191406 24.429688 L 117.71875 24.429688 M 87.191406 28.863281 L 117.71875 28.863281 "
       style="fill:none;stroke-width:0.354671;stroke-linecap:butt;stroke-linejoin:bevel;stroke:rgb(0%,0%,0%);stroke-opacity:1;stroke-miterlimit:10;" />
    <path
       id="path18"
       d="M 148.246094 11.128906 L 178.773438 11.128906 M 148.246094 15.5625 L 178.773438 15.5625 M 148.246094 19.996094 L 178.773438 19.996094 M 148.246094 24.429688 L 178.773438 24.429688 M 148.246094 28.863281 L 178.773438 28.863281 "
       style="fill:none;stroke-width:0.354671;stroke-linecap:butt;stroke-linejoin:bevel;stroke:rgb(0%,0%,0%);stroke-opacity:1;stroke-miterlimit:10;" />
    <path
       id="path20"
       d="M 178.773438 11.128906 L 209.300781 11.128906 M 178.773438 15.5625 L 209.300781 15.5625 M 178.773438 19.996094 L 209.300781 19.996094 M 178.773438 24.429688 L 209.300781 24.429688 M 178.773438 28.863281 L 209.300781 28.863281 "
       style="fill:none;stroke-width:0.354671;stroke-linecap:butt;stroke-linejoin:bevel;stroke:rgb(0%,0%,0%);stroke-opacity:1;stroke-miterlimit:10;" />
    <path
       id="path22"
       d="M 209.300781 11.128906 L 239.828125 11.128906 M 209.300781 15.5625 L 239.828125 15.5625 M 209.300781 19.996094 L 239.828125 19.996094 M 209.300781 24.429688 L 239.828125 24.429688 M 209.300781 28.863281 L 239.828125 28.863281 "
       style="fill:none;stroke-width:0.354671;stroke-linecap:butt;stroke-linejoin:bevel;stroke:rgb(0%,0%,0%);stroke-opacity:1;stroke-miterlimit:10;" />
    <path
       id="path24"
       d="M 48.105469 11.128906 L 48.105469 28.863281 "
       style="fill:none;stroke-width:0.709342;stroke-linecap:butt;stroke-linejoin:bevel;stroke:rgb(0%,0%,0%);stroke-opacity:1;stroke-miterlimit:10;" />
    <path
       id="path26"
       d="M 86.835938 11.128906 L 86.835938 28.863281 "
       style="fill:none;stroke-width:0.709342;stroke-linecap:butt;stroke-linejoin:bevel;stroke:rgb(0%,0%,0%);stroke-opacity:1;stroke-miterlimit:10;" />
    <path
       id="path28"
       d="M 117.363281 11.128906 L 117.363281 28.863281 "
       style="fill:none;stroke-width:0.709342;stroke-linecap:butt;stroke-linejoin:bevel;stroke:rgb(0%,0%,0%);stroke-opacity:1;stroke-miterlimit:10;" />
    <path
       id="path30"
       d="M 147.890625 11.128906 L 147.890625 28.863281 "
       style="fill:none;stroke-width:0.709342;stroke-linecap:butt;stroke-linejoin:bevel;stroke:rgb(0%,0%,0%);stroke-opacity:1;stroke-miterlimit:10;" />
    <path
       id="path32"
       d="M 178.417969 11.128906 L 178.417969 28.863281 "
       style="fill:none;stroke-width:0.709342;stroke-linecap:butt;stroke-linejoin:bevel;stroke:rgb(0%,0%,0%);stroke-opacity:1;stroke-miterlimit:10;" />
    <path
       id="path34"
       d="M 208.945312 11.128906 L 208.945312 28.863281 "
       style="fill:none;stroke-width:0.709342;stroke-linecap:butt;stroke-linejoin:bevel;stroke:rgb(0%,0%,0%);stroke-opacity:1;stroke-miterlimit:10;" />
    <path
       id="path36"
       d="M 239.472656 11.128906 L 239.472656 28.863281 "
       style="fill:none;stroke-width:0.709342;stroke-linecap:butt;stroke-linejoin:bevel;stroke:rgb(0%,0%,0%);stroke-opacity:1;stroke-miterlimit:10;" />
    <path
       id="path38"
       d="M 24.175781 33.292969 L 35.617188 33.292969 "
       style="fill:none;stroke-width:0.709342;stroke-linecap:square;stroke-linejoin:bevel;stroke:rgb(0%,0%,0%);stroke-opacity:1;stroke-miterlimit:10;" />
    <path
       id="path40"
       d="M 52.449219 33.292969 L 63.890625 33.292969 "
       style="fill:none;stroke-width:0.709342;stroke-linecap:square;stroke-linejoin:bevel;stroke:rgb(0%,0%,0%);stroke-opacity:1;stroke-miterlimit:10;" />
    <path
       id="path42"
       d="M 121.710938 33.292969 L 133.152344 33.292969 "
       style="fill:none;stroke-width:0.709342;stroke-linecap:square;stroke-linejoin:bevel;stroke:rgb(0%,0%,0%);stroke-opacity:1;stroke-miterlimit:10;" />
    <path
       id="path44"
       d="M 91.183594 33.292969 L 102.625 33.292969 "
       style="fill:none;stroke-width:0.709342;stroke-linecap:square;stroke-linejoin:bevel;stroke:rgb(0%,0%,0%);stroke-opacity:1;stroke-miterlimit:10;" />
    <path
       id="path46"
       d="M 152.238281 33.292969 L 163.675781 33.292969 "
       style="fill:none;stroke-width:0.709342;stroke-linecap:square;stroke-linejoin:bevel;stroke:rgb(0%,0%,0%);stroke-opacity:1;stroke-miterlimit:10;" />
    <path
       id="path48"
       d="M 182.765625 33.292969 L 194.203125 33.292969 "
       style="fill:none;stroke-width:0.709342;stroke-linecap:square;stroke-linejoin:bevel;stroke:rgb(0%,0%,0%);stroke-opacity:1;stroke-miterlimit:10;" />
    <path
       id="path50"
       d="M 213.289062 33.292969 L 224.730469 33.292969 "
       style="fill:none;stroke-width:0.709342;stroke-linecap:square;stroke-linejoin:bevel;stroke:rgb(0%,0%,0%);stroke-opacity:1;stroke-miterlimit:10;" />
    <path
       id="path52"
       d="M 29.316406 31.304688 C 28.898438 31.304688 28.601562 31.449219 28.414062 31.734375 C 28.207031 32.011719 28.101562 32.386719 28.101562 32.863281 C 28.101562 33.40625 28.246094 33.871094 28.535156 34.265625 C 28.824219 34.644531 29.140625 34.910156 29.488281 35.0625 C 29.800781 35.210938 30.128906 35.285156 30.476562 35.285156 C 30.878906 35.285156 31.1875 35.140625 31.394531 34.855469 C 31.589844 34.566406 31.6875 34.191406 31.6875 33.726562 C 31.6875 33.183594 31.542969 32.71875 31.253906 32.324219 C 30.964844 31.957031 30.65625 31.691406 30.320312 31.527344 C 29.984375 31.378906 29.652344 31.304688 29.316406 31.304688 Z M 29.90625 30.851562 C 31.152344 30.851562 32.191406 31.09375 33.023438 31.582031 C 33.863281 32.066406 34.285156 32.636719 34.285156 33.292969 C 34.285156 34 33.851562 34.578125 32.988281 35.027344 C 32.121094 35.5 31.09375 35.738281 29.90625 35.738281 C 28.679688 35.738281 27.640625 35.496094 26.789062 35.007812 C 25.933594 34.523438 25.503906 33.953125 25.503906 33.292969 C 25.503906 32.589844 25.945312 32.011719 26.820312 31.5625 C 27.6875 31.089844 28.714844 30.851562 29.90625 30.851562 Z M 29.90625 30.851562 "
       style=" stroke:none;fill-rule:nonzero;fill:rgb(0%,0%,0%);fill-opacity:1;" />
    <path
       id="path54"
       d="M 65.796875 29.085938 C 65.378906 29.085938 65.078125 29.230469 64.894531 29.519531 C 64.6875 29.796875 64.582031 30.171875 64.582031 30.644531 C 64.582031 31.1875 64.726562 31.65625 65.015625 32.046875 C 65.304688 32.429688 65.621094 32.695312 65.96875 32.84375 C 66.28125 32.996094 66.609375 33.070312 66.957031 33.070312 C 67.359375 33.070312 67.664062 32.925781 67.875 32.636719 C 68.070312 32.347656 68.167969 31.972656 68.167969 31.511719 C 68.167969 30.96875 68.023438 30.5 67.734375 30.109375 C 67.445312 29.738281 67.132812 29.472656 66.800781 29.3125 C 66.464844 29.160156 66.128906 29.085938 65.796875 29.085938 Z M 66.382812 28.636719 C 67.632812 28.636719 68.671875 28.878906 69.5 29.363281 C 70.34375 29.847656 70.765625 30.421875 70.765625 31.078125 C 70.765625 31.78125 70.332031 32.359375 69.464844 32.808594 C 68.601562 33.285156 67.574219 33.519531 66.382812 33.519531 C 65.160156 33.519531 64.121094 33.277344 63.265625 32.792969 C 62.414062 32.308594 61.984375 31.734375 61.984375 31.078125 C 61.984375 30.375 62.425781 29.796875 63.300781 29.347656 C 64.167969 28.875 65.195312 28.636719 66.382812 28.636719 Z M 66.382812 28.636719 "
       style=" stroke:none;fill-rule:nonzero;fill:rgb(0%,0%,0%);fill-opacity:1;" />
    <path
       id="path56"
       d="M 57.589844 31.304688 C 57.175781 31.304688 56.875 31.449219 56.691406 31.734375 C 56.480469 32.011719 56.378906 32.386719 56.378906 32.863281 C 56.378906 33.40625 56.523438 33.871094 56.8125 34.265625 C 57.101562 34.644531 57.417969 34.910156 57.765625 35.0625 C 58.074219 35.210938 58.40625 35.285156 58.75 35.285156 C 59.15625 35.285156 59.460938 35.140625 59.667969 34.855469 C 59.863281 34.566406 59.964844 34.191406 59.964844 33.726562 C 59.964844 33.183594 59.820312 32.71875 59.53125 32.324219 C 59.242188 31.957031 58.929688 31.691406 58.59375 31.527344 C 58.261719 31.378906 57.925781 31.304688 57.589844 31.304688 Z M 58.179688 30.851562 C 59.425781 30.851562 60.464844 31.09375 61.296875 31.582031 C 62.140625 32.066406 62.5625 32.636719 62.5625 33.292969 C 62.5625 34 62.128906 34.578125 61.261719 35.027344 C 60.394531 35.5 59.367188 35.738281 58.179688 35.738281 C 56.957031 35.738281 55.917969 35.496094 55.0625 35.007812 C 54.207031 34.523438 53.78125 33.953125 53.78125 33.292969 C 53.78125 32.589844 54.21875 32.011719 55.097656 31.5625 C 55.960938 31.089844 56.992188 30.851562 58.179688 30.851562 Z M 58.179688 30.851562 "
       style=" stroke:none;fill-rule:nonzero;fill:rgb(0%,0%,0%);fill-opacity:1;" />
    <path
       id="path58"
       d="M 126.847656 24.652344 C 126.433594 24.652344 126.132812 24.796875 125.949219 25.085938 C 125.742188 25.363281 125.636719 25.738281 125.636719 26.210938 C 125.636719 26.753906 125.78125 27.222656 126.070312 27.613281 C 126.359375 27.996094 126.675781 28.261719 127.023438 28.410156 C 127.335938 28.5625 127.664062 28.636719 128.011719 28.636719 C 128.414062 28.636719 128.71875 28.492188 128.925781 28.203125 C 129.125 27.914062 129.222656 27.539062 129.222656 27.078125 C 129.222656 26.535156 129.078125 26.066406 128.789062 25.675781 C 128.5 25.304688 128.1875 25.039062 127.855469 24.878906 C 127.519531 24.726562 127.183594 24.652344 126.847656 24.652344 Z M 127.4375 24.203125 C 128.683594 24.203125 129.722656 24.445312 130.554688 24.929688 C 131.398438 25.414062 131.820312 25.988281 131.820312 26.644531 C 131.820312 27.347656 131.386719 27.925781 130.519531 28.375 C 129.65625 28.851562 128.628906 29.085938 127.4375 29.085938 C 126.214844 29.085938 125.175781 28.84375 124.320312 28.359375 C 123.464844 27.875 123.039062 27.304688 123.039062 26.644531 C 123.039062 25.941406 123.476562 25.363281 124.355469 24.914062 C 125.222656 24.441406 126.25 24.203125 127.4375 24.203125 Z M 127.4375 24.203125 "
       style=" stroke:none;fill-rule:nonzero;fill:rgb(0%,0%,0%);fill-opacity:1;" />
    <path
       id="path60"
       d="M 96.324219 26.871094 C 95.90625 26.871094 95.605469 27.015625 95.421875 27.304688 C 95.214844 27.578125 95.109375 27.957031 95.109375 28.429688 C 95.109375 28.972656 95.253906 29.4375 95.542969 29.832031 C 95.832031 30.210938 96.148438 30.476562 96.496094 30.628906 C 96.808594 30.777344 97.136719 30.851562 97.484375 30.851562 C 97.886719 30.851562 98.191406 30.707031 98.402344 30.421875 C 98.597656 30.132812 98.695312 29.757812 98.695312 29.292969 C 98.695312 28.75 98.550781 28.285156 98.261719 27.890625 C 97.972656 27.523438 97.660156 27.257812 97.328125 27.09375 C 96.992188 26.945312 96.65625 26.871094 96.324219 26.871094 Z M 96.910156 26.417969 C 98.15625 26.417969 99.195312 26.664062 100.027344 27.148438 C 100.871094 27.632812 101.292969 28.203125 101.292969 28.863281 C 101.292969 29.566406 100.859375 30.144531 99.992188 30.59375 C 99.128906 31.066406 98.101562 31.304688 96.910156 31.304688 C 95.6875 31.304688 94.648438 31.0625 93.792969 30.574219 C 92.941406 30.089844 92.511719 29.519531 92.511719 28.863281 C 92.511719 28.15625 92.949219 27.578125 93.828125 27.128906 C 94.695312 26.65625 95.722656 26.417969 96.910156 26.417969 Z M 96.910156 26.417969 "
       style=" stroke:none;fill-rule:nonzero;fill:rgb(0%,0%,0%);fill-opacity:1;" />
    <path
       id="path62"
       d="M 126.847656 31.304688 C 126.433594 31.304688 126.132812 31.449219 125.949219 31.734375 C 125.742188 32.011719 125.636719 32.386719 125.636719 32.863281 C 125.636719 33.40625 125.78125 33.871094 126.070312 34.265625 C 126.359375 34.644531 126.675781 34.910156 127.023438 35.0625 C 127.335938 35.210938 127.664062 35.285156 128.011719 35.285156 C 128.414062 35.285156 128.71875 35.140625 128.925781 34.855469 C 129.125 34.566406 129.222656 34.191406 129.222656 33.726562 C 129.222656 33.183594 129.078125 32.71875 128.789062 32.324219 C 128.5 31.957031 128.1875 31.691406 127.855469 31.527344 C 127.519531 31.378906 127.183594 31.304688 126.847656 31.304688 Z M 127.4375 30.851562 C 128.683594 30.851562 129.722656 31.09375 130.554688 31.582031 C 131.398438 32.066406 131.820312 32.636719 131.820312 33.292969 C 131.820312 34 131.386719 34.578125 130.519531 35.027344 C 129.65625 35.5 128.628906 35.738281 127.4375 35.738281 C 126.214844 35.738281 125.175781 35.496094 124.320312 35.007812 C 123.464844 34.523438 123.039062 33.953125 123.039062 33.292969 C 123.039062 32.589844 123.476562 32.011719 124.355469 31.5625 C 125.222656 31.089844 126.25 30.851562 127.4375 30.851562 Z M 127.4375 30.851562 "
       style=" stroke:none;fill-rule:nonzero;fill:rgb(0%,0%,0%);fill-opacity:1;" />
    <path
       id="path64"
       d="M 96.324219 31.304688 C 95.90625 31.304688 95.605469 31.449219 95.421875 31.734375 C 95.214844 32.011719 95.109375 32.386719 95.109375 32.863281 C 95.109375 33.40625 95.253906 33.871094 95.542969 34.265625 C 95.832031 34.644531 96.148438 34.910156 96.496094 35.0625 C 96.808594 35.210938 97.136719 35.285156 97.484375 35.285156 C 97.886719 35.285156 98.191406 35.140625 98.402344 34.855469 C 98.597656 34.566406 98.695312 34.191406 98.695312 33.726562 C 98.695312 33.183594 98.550781 32.71875 98.261719 32.324219 C 97.972656 31.957031 97.660156 31.691406 97.328125 31.527344 C 96.992188 31.378906 96.65625 31.304688 96.324219 31.304688 Z M 96.910156 30.851562 C 98.15625 30.851562 99.195312 31.09375 100.027344 31.582031 C 100.871094 32.066406 101.292969 32.636719 101.292969 33.292969 C 101.292969 34 100.859375 34.578125 99.992188 35.027344 C 99.128906 35.5 98.101562 35.738281 96.910156 35.738281 C 95.6875 35.738281 94.648438 35.496094 93.792969 35.007812 C 92.941406 34.523438 92.511719 33.953125 92.511719 33.292969 C 92.511719 32.589844 92.949219 32.011719 93.828125 31.5625 C 94.695312 31.089844 95.722656 30.851562 96.910156 30.851562 Z M 96.910156 30.851562 "
       style=" stroke:none;fill-rule:nonzero;fill:rgb(0%,0%,0%);fill-opacity:1;" />
    <path
       id="path66"
       d="M 157.375 22.4375 C 156.960938 22.4375 156.660156 22.582031 156.476562 22.871094 C 156.269531 23.148438 156.164062 23.523438 156.164062 23.996094 C 156.164062 24.539062 156.308594 25.003906 156.597656 25.398438 C 156.886719 25.777344 157.203125 26.042969 157.550781 26.195312 C 157.863281 26.34375 158.191406 26.417969 158.535156 26.417969 C 158.941406 26.417969 159.246094 26.277344 159.453125 25.988281 C 159.652344 25.699219 159.75 25.324219 159.75 24.859375 C 159.75 24.320312 159.605469 23.851562 159.316406 23.457031 C 159.027344 23.089844 158.714844 22.824219 158.382812 22.660156 C 158.046875 22.511719 157.710938 22.4375 157.375 22.4375 Z M 157.964844 21.984375 C 159.210938 21.984375 160.25 22.230469 161.082031 22.714844 C 161.925781 23.199219 162.347656 23.769531 162.347656 24.429688 C 162.347656 25.132812 161.914062 25.710938 161.046875 26.160156 C 160.183594 26.632812 159.15625 26.871094 157.964844 26.871094 C 156.742188 26.871094 155.703125 26.628906 154.847656 26.144531 C 153.992188 25.65625 153.566406 25.085938 153.566406 24.429688 C 153.566406 23.722656 154.003906 23.148438 154.882812 22.695312 C 155.75 22.222656 156.777344 21.984375 157.964844 21.984375 Z M 157.964844 21.984375 "
       style=" stroke:none;fill-rule:nonzero;fill:rgb(0%,0%,0%);fill-opacity:1;" />
    <path
       id="path68"
       d="M 157.375 31.304688 C 156.960938 31.304688 156.660156 31.449219 156.476562 31.734375 C 156.269531 32.011719 156.164062 32.386719 156.164062 32.863281 C 156.164062 33.40625 156.308594 33.871094 156.597656 34.265625 C 156.886719 34.644531 157.203125 34.910156 157.550781 35.0625 C 157.863281 35.210938 158.191406 35.285156 158.535156 35.285156 C 158.941406 35.285156 159.246094 35.140625 159.453125 34.855469 C 159.652344 34.566406 159.75 34.191406 159.75 33.726562 C 159.75 33.183594 159.605469 32.71875 159.316406 32.324219 C 159.027344 31.957031 158.714844 31.691406 158.382812 31.527344 C 158.046875 31.378906 157.710938 31.304688 157.375 31.304688 Z M 157.964844 30.851562 C 159.210938 30.851562 160.25 31.09375 161.082031 31.582031 C 161.925781 32.066406 162.347656 32.636719 162.347656 33.292969 C 162.347656 34 161.914062 34.578125 161.046875 35.027344 C 160.183594 35.5 159.15625 35.738281 157.964844 35.738281 C 156.742188 35.738281 155.703125 35.496094 154.847656 35.007812 C 153.992188 34.523438 153.566406 33.953125 153.566406 33.292969 C 153.566406 32.589844 154.003906 32.011719 154.882812 31.5625 C 155.75 31.089844 156.777344 30.851562 157.964844 30.851562 Z M 157.964844 30.851562 "
       style=" stroke:none;fill-rule:nonzero;fill:rgb(0%,0%,0%);fill-opacity:1;" />
    <path
       id="path70"
       d="M 187.902344 20.21875 C 187.488281 20.21875 187.1875 20.363281 187.003906 20.652344 C 186.796875 20.929688 186.691406 21.304688 186.691406 21.777344 C 186.691406 22.320312 186.835938 22.789062 187.125 23.179688 C 187.414062 23.5625 187.730469 23.828125 188.078125 23.976562 C 188.386719 24.128906 188.71875 24.203125 189.0625 24.203125 C 189.46875 24.203125 189.773438 24.058594 189.980469 23.769531 C 190.179688 23.480469 190.277344 23.105469 190.277344 22.644531 C 190.277344 22.101562 190.132812 21.632812 189.84375 21.242188 C 189.554688 20.871094 189.242188 20.605469 188.90625 20.445312 C 188.574219 20.296875 188.238281 20.21875 187.902344 20.21875 Z M 188.492188 19.769531 C 189.738281 19.769531 190.777344 20.011719 191.609375 20.496094 C 192.453125 20.980469 192.875 21.554688 192.875 22.210938 C 192.875 22.914062 192.441406 23.492188 191.574219 23.941406 C 190.710938 24.417969 189.683594 24.652344 188.492188 24.652344 C 187.269531 24.652344 186.230469 24.410156 185.375 23.925781 C 184.519531 23.441406 184.09375 22.871094 184.09375 22.210938 C 184.09375 21.507812 184.53125 20.929688 185.410156 20.480469 C 186.277344 20.007812 187.304688 19.769531 188.492188 19.769531 Z M 188.492188 19.769531 "
       style=" stroke:none;fill-rule:nonzero;fill:rgb(0%,0%,0%);fill-opacity:1;" />
    <path
       id="path72"
       d="M 187.902344 31.304688 C 187.488281 31.304688 187.1875 31.449219 187.003906 31.734375 C 186.796875 32.011719 186.691406 32.386719 186.691406 32.863281 C 186.691406 33.40625 186.835938 33.871094 187.125 34.265625 C 187.414062 34.644531 187.730469 34.910156 188.078125 35.0625 C 188.386719 35.210938 188.71875 35.285156 189.0625 35.285156 C 189.46875 35.285156 189.773438 35.140625 189.980469 34.855469 C 190.179688 34.566406 190.277344 34.191406 190.277344 33.726562 C 190.277344 33.183594 190.132812 32.71875 189.84375 32.324219 C 189.554688 31.957031 189.242188 31.691406 188.90625 31.527344 C 188.574219 31.378906 188.238281 31.304688 187.902344 31.304688 Z M 188.492188 30.851562 C 189.738281 30.851562 190.777344 31.09375 191.609375 31.582031 C 192.453125 32.066406 192.875 32.636719 192.875 33.292969 C 192.875 34 192.441406 34.578125 191.574219 35.027344 C 190.710938 35.5 189.683594 35.738281 188.492188 35.738281 C 187.269531 35.738281 186.230469 35.496094 185.375 35.007812 C 184.519531 34.523438 184.09375 33.953125 184.09375 33.292969 C 184.09375 32.589844 184.53125 32.011719 185.410156 31.5625 C 186.277344 31.089844 187.304688 30.851562 188.492188 30.851562 Z M 188.492188 30.851562 "
       style=" stroke:none;fill-rule:nonzero;fill:rgb(0%,0%,0%);fill-opacity:1;" />
    <path
       id="path74"
       d="M 218.429688 18.003906 C 218.015625 18.003906 217.714844 18.148438 217.53125 18.4375 C 217.324219 18.714844 217.21875 19.089844 217.21875 19.5625 C 217.21875 20.105469 217.363281 20.570312 217.652344 20.964844 C 217.941406 21.34375 218.257812 21.609375 218.605469 21.761719 C 218.914062 21.910156 219.246094 21.984375 219.589844 21.984375 C 219.996094 21.984375 220.300781 21.84375 220.507812 21.554688 C 220.707031 21.265625 220.804688 20.890625 220.804688 20.425781 C 220.804688 19.886719 220.660156 19.417969 220.371094 19.023438 C 220.082031 18.65625 219.769531 18.390625 219.433594 18.226562 C 219.101562 18.078125 218.765625 18.003906 218.429688 18.003906 Z M 219.019531 17.554688 C 220.265625 17.554688 221.304688 17.796875 222.136719 18.28125 C 222.980469 18.765625 223.402344 19.335938 223.402344 19.996094 C 223.402344 20.699219 222.96875 21.277344 222.101562 21.726562 C 221.238281 22.199219 220.207031 22.4375 219.019531 22.4375 C 217.796875 22.4375 216.757812 22.195312 215.902344 21.710938 C 215.046875 21.222656 214.621094 20.652344 214.621094 19.996094 C 214.621094 19.289062 215.058594 18.714844 215.9375 18.261719 C 216.804688 17.789062 217.832031 17.554688 219.019531 17.554688 Z M 219.019531 17.554688 "
       style=" stroke:none;fill-rule:nonzero;fill:rgb(0%,0%,0%);fill-opacity:1;" />
    <path
       id="path76"
       d="M 218.429688 31.304688 C 218.015625 31.304688 217.714844 31.449219 217.53125 31.734375 C 217.324219 32.011719 217.21875 32.386719 217.21875 32.863281 C 217.21875 33.40625 217.363281 33.871094 217.652344 34.265625 C 217.941406 34.644531 218.257812 34.910156 218.605469 35.0625 C 218.914062 35.210938 219.246094 35.285156 219.589844 35.285156 C 219.996094 35.285156 220.300781 35.140625 220.507812 34.855469 C 220.707031 34.566406 220.804688 34.191406 220.804688 33.726562 C 220.804688 33.183594 220.660156 32.71875 220.371094 32.324219 C 220.082031 31.957031 219.769531 31.691406 219.433594 31.527344 C 219.101562 31.378906 218.765625 31.304688 218.429688 31.304688 Z M 219.019531 30.851562 C 220.265625 30.851562 221.304688 31.09375 222.136719 31.582031 C 222.980469 32.066406 223.402344 32.636719 223.402344 33.292969 C 223.402344 34 222.96875 34.578125 222.101562 35.027344 C 221.238281 35.5 220.207031 35.738281 219.019531 35.738281 C 217.796875 35.738281 216.757812 35.496094 215.902344 35.007812 C 215.046875 34.523438 214.621094 33.953125 214.621094 33.292969 C 214.621094 32.589844 215.058594 32.011719 215.9375 31.5625 C 216.804688 31.089844 217.832031 30.851562 219.019531 30.851562 Z M 219.019531 30.851562 "
       style=" stroke:none;fill-rule:nonzero;fill:rgb(0%,0%,0%);fill-opacity:1;" />
    <path
       id="path78"
       d="M 13.097656 19.890625 C 13.097656 19.890625 13.132812 19.890625 13.203125 19.890625 C 13.246094 19.878906 13.289062 19.875 13.324219 19.875 C 14.617188 19.875 15.679688 20.328125 16.507812 21.242188 C 17.339844 22.140625 17.757812 23.191406 17.757812 24.394531 C 17.757812 25.882812 17.136719 27.09375 15.902344 28.03125 C 15.578125 28.285156 15.160156 28.492188 14.640625 28.652344 C 14.695312 29.402344 14.726562 30.011719 14.726562 30.472656 C 14.726562 30.566406 14.714844 30.898438 14.691406 31.476562 C 14.644531 32.550781 14.273438 33.480469 13.582031 34.265625 C 12.914062 35.039062 12.082031 35.425781 11.089844 35.425781 C 10.152344 35.425781 9.355469 35.097656 8.699219 34.4375 C 8.039062 33.769531 7.710938 32.960938 7.710938 32.011719 C 7.710938 31.515625 7.902344 31.09375 8.285156 30.75 C 8.675781 30.402344 9.132812 30.230469 9.652344 30.230469 C 10.113281 30.230469 10.5 30.410156 10.8125 30.765625 C 11.136719 31.101562 11.296875 31.515625 11.296875 32.011719 C 11.296875 32.464844 11.136719 32.851562 10.8125 33.171875 C 10.488281 33.496094 10.101562 33.660156 9.652344 33.660156 C 9.464844 33.660156 9.289062 33.625 9.113281 33.554688 C 9.621094 34.304688 10.296875 34.679688 11.140625 34.679688 C 11.9375 34.679688 12.589844 34.355469 13.097656 33.710938 C 13.628906 33.039062 13.917969 32.261719 13.964844 31.371094 C 13.988281 30.820312 14 30.5 14 30.421875 C 14 29.773438 13.976562 29.242188 13.929688 28.828125 C 13.351562 28.917969 12.839844 28.964844 12.386719 28.964844 C 10.78125 28.964844 9.414062 28.332031 8.285156 27.058594 C 7.175781 25.777344 6.621094 24.253906 6.621094 22.488281 C 6.621094 22.117188 6.65625 21.742188 6.726562 21.363281 C 6.792969 21.050781 6.878906 20.710938 6.984375 20.339844 C 7.042969 20.132812 7.199219 19.796875 7.453125 19.335938 C 7.542969 19.199219 7.648438 19.023438 7.765625 18.816406 C 7.878906 18.609375 7.960938 18.472656 8.007812 18.402344 C 8.121094 18.171875 8.347656 17.859375 8.679688 17.464844 C 8.773438 17.363281 8.871094 17.246094 8.96875 17.121094 C 9.066406 16.992188 9.148438 16.890625 9.21875 16.808594 C 9.289062 16.726562 9.339844 16.664062 9.375 16.617188 C 9.410156 16.570312 9.667969 16.265625 10.152344 15.699219 C 10.269531 15.585938 10.382812 15.460938 10.492188 15.328125 C 10.601562 15.195312 10.691406 15.089844 10.761719 15.015625 C 10.828125 14.941406 10.882812 14.886719 10.914062 14.851562 C 10.5 13.476562 10.242188 12.378906 10.136719 11.5625 C 10.054688 10.902344 10.015625 10.003906 10.015625 8.859375 C 10.015625 7.855469 10.246094 6.914062 10.707031 6.035156 C 11.15625 5.125 11.789062 4.378906 12.59375 3.800781 C 12.652344 3.769531 12.710938 3.75 12.769531 3.75 C 12.847656 3.75 12.90625 3.769531 12.941406 3.800781 C 13.566406 4.554688 14.101562 5.527344 14.550781 6.730469 C 15.015625 7.929688 15.246094 9.019531 15.246094 10.003906 C 15.246094 11.109375 14.980469 12.148438 14.449219 13.121094 C 13.847656 14.148438 13.074219 15.210938 12.128906 16.304688 C 12.371094 17.066406 12.695312 18.261719 13.097656 19.890625 Z M 14.570312 27.945312 C 15.171875 27.722656 15.636719 27.347656 15.972656 26.816406 C 16.34375 26.308594 16.527344 25.738281 16.527344 25.105469 C 16.527344 24.285156 16.25 23.554688 15.695312 22.921875 C 15.128906 22.261719 14.40625 21.894531 13.53125 21.8125 C 14.027344 24.25 14.375 26.292969 14.570312 27.945312 Z M 7.867188 23.941406 C 7.867188 25.085938 8.328125 26.089844 9.253906 26.957031 C 10.199219 27.800781 11.261719 28.222656 12.441406 28.222656 C 12.925781 28.222656 13.398438 28.1875 13.859375 28.117188 C 13.675781 26.363281 13.3125 24.261719 12.769531 21.8125 C 12.109375 21.882812 11.585938 22.113281 11.191406 22.503906 C 10.8125 22.910156 10.621094 23.367188 10.621094 23.875 C 10.621094 24.75 11.089844 25.460938 12.023438 26.003906 C 12.105469 26.085938 12.144531 26.171875 12.144531 26.265625 C 12.144531 26.355469 12.105469 26.441406 12.023438 26.523438 C 11.953125 26.605469 11.867188 26.644531 11.765625 26.644531 C 11.753906 26.644531 11.699219 26.632812 11.609375 26.609375 C 10.949219 26.253906 10.441406 25.789062 10.085938 25.226562 C 9.75 24.625 9.582031 24.019531 9.582031 23.40625 C 9.582031 22.609375 9.832031 21.886719 10.328125 21.242188 C 10.847656 20.59375 11.523438 20.179688 12.351562 19.996094 C 12.03125 18.703125 11.765625 17.691406 11.554688 16.964844 C 11.371094 17.171875 11.148438 17.421875 10.890625 17.71875 C 10.628906 18.011719 10.476562 18.1875 10.429688 18.246094 C 10.015625 18.789062 9.699219 19.210938 9.476562 19.511719 C 9.085938 20.050781 8.796875 20.519531 8.613281 20.914062 C 8.417969 21.351562 8.242188 21.832031 8.09375 22.351562 C 7.941406 22.847656 7.867188 23.378906 7.867188 23.941406 Z M 13.652344 6.332031 C 12.785156 6.757812 12.105469 7.371094 11.609375 8.167969 C 11.101562 8.988281 10.847656 9.871094 10.847656 10.816406 C 10.847656 11.648438 11.054688 12.765625 11.46875 14.175781 C 12.300781 13.171875 12.925781 12.242188 13.339844 11.386719 C 13.777344 10.488281 14 9.546875 14 8.566406 C 14 7.824219 13.882812 7.082031 13.652344 6.332031 Z M 13.652344 6.332031 "
       style=" stroke:none;fill-rule:nonzero;fill:rgb(0%,0%,0%);fill-opacity:1;" />
  </g>
</svg>
