<?xml version="1.0" encoding="UTF-8" standalone="no"?>
<svg
   xmlns:dc="http://purl.org/dc/elements/1.1/"
   xmlns:cc="http://creativecommons.org/ns#"
   xmlns:rdf="http://www.w3.org/1999/02/22-rdf-syntax-ns#"
   xmlns:svg="http://www.w3.org/2000/svg"
   xmlns="http://www.w3.org/2000/svg"
   xmlns:sodipodi="http://sodipodi.sourceforge.net/DTD/sodipodi-0.dtd"
   xmlns:inkscape="http://www.inkscape.org/namespaces/inkscape"
   inkscape:version="1.0 (4035a4f, 2020-05-01)"
   sodipodi:docname="intervals_3.svg"
   id="svg325"
   version="1.2"
   viewBox="0 0 320 50"
   height="50pt"
   width="320pt">
  <metadata
     id="metadata331">
    <rdf:RDF>
      <cc:Work
         rdf:about="">
        <dc:format>image/svg+xml</dc:format>
        <dc:type
           rdf:resource="http://purl.org/dc/dcmitype/StillImage" />
        <dc:title></dc:title>
      </cc:Work>
    </rdf:RDF>
  </metadata>
  <defs
     id="defs329" />
  <sodipodi:namedview
     inkscape:current-layer="surface3543"
     inkscape:window-maximized="1"
     inkscape:window-y="23"
     inkscape:window-x="0"
     inkscape:cy="238.00434"
     inkscape:cx="416.96607"
     inkscape:zoom="0.66277682"
     showgrid="false"
     id="namedview327"
     inkscape:window-height="855"
     inkscape:window-width="1440"
     inkscape:pageshadow="2"
     inkscape:pageopacity="0"
     guidetolerance="10"
     gridtolerance="10"
     objecttolerance="10"
     borderopacity="1"
     bordercolor="#666666"
     pagecolor="#ffffff" />
  <g
     id="surface3543">
    <path
       id="path66"
       d="M 3.7500001,12.07028 H 70.386719 m -66.6367189,5 H 70.386719 m -66.6367189,5 H 70.386719 M 3.7500001,27.07419 H 70.386719 m -66.6367189,5 H 70.386719"
       style="fill:none;stroke:#000000;stroke-width:0.400025;stroke-linecap:butt;stroke-linejoin:bevel;stroke-miterlimit:10;stroke-opacity:1" />
    <path
       id="path68"
       d="m 70.386719,12.07028 h 46.843751 m -46.843751,5 h 46.843751 m -46.843751,5 h 46.843751 m -46.843751,5.00391 h 46.843751 m -46.843751,5 h 46.843751"
       style="fill:none;stroke:#000000;stroke-width:0.400025;stroke-linecap:butt;stroke-linejoin:bevel;stroke-miterlimit:10;stroke-opacity:1" />
    <path
       id="path70"
       d="m 117.23047,12.07028 h 37.58984 m -37.58984,5 h 37.58984 m -37.58984,5 h 37.58984 m -37.58984,5.00391 h 37.58984 m -37.58984,5 h 37.58984"
       style="fill:none;stroke:#000000;stroke-width:0.400025;stroke-linecap:butt;stroke-linejoin:bevel;stroke-miterlimit:10;stroke-opacity:1" />
    <path
       id="path72"
       d="m 154.82031,12.07028 h 37.58985 m -37.58985,5 h 37.58985 m -37.58985,5 h 37.58985 m -37.58985,5.00391 h 37.58985 m -37.58985,5 h 37.58985"
       style="fill:none;stroke:#000000;stroke-width:0.400025;stroke-linecap:butt;stroke-linejoin:bevel;stroke-miterlimit:10;stroke-opacity:1" />
    <path
       id="path74"
       d="M 192.41016,12.07028 H 230 m -37.58984,5 H 230 m -37.58984,5 H 230 m -37.58984,5.00391 H 230 m -37.58984,5 H 230"
       style="fill:none;stroke:#000000;stroke-width:0.400025;stroke-linecap:butt;stroke-linejoin:bevel;stroke-miterlimit:10;stroke-opacity:1" />
    <path
       id="path76"
       d="m 230,12.07028 h 37.58984 m -37.58984,5 h 37.58984 m -37.58984,5 h 37.58984 M 230,27.07419 h 37.58984 m -37.58984,5 h 37.58984"
       style="fill:none;stroke:#000000;stroke-width:0.400025;stroke-linecap:butt;stroke-linejoin:bevel;stroke-miterlimit:10;stroke-opacity:1" />
    <path
       id="path78"
       d="m 267.58984,12.07028 h 37.1875 m -37.1875,5 h 37.1875 m -37.1875,5 h 37.1875 m -37.1875,5.00391 h 37.1875 m -37.1875,5 h 37.1875"
       style="fill:none;stroke:#000000;stroke-width:0.351585;stroke-linecap:butt;stroke-linejoin:bevel;stroke-miterlimit:10;stroke-opacity:1" />
    <path
       id="path104"
       d="M 69.988282,12.07028 V 32.07419"
       style="fill:none;stroke:#000000;stroke-width:0.80005;stroke-linecap:butt;stroke-linejoin:bevel;stroke-miterlimit:10;stroke-opacity:1" />
    <path
       id="path106"
       d="M 116.83203,12.07028 V 32.07419"
       style="fill:none;stroke:#000000;stroke-width:0.80005;stroke-linecap:butt;stroke-linejoin:bevel;stroke-miterlimit:10;stroke-opacity:1" />
    <path
       id="path108"
       d="M 154.42188,12.07028 V 32.07419"
       style="fill:none;stroke:#000000;stroke-width:0.80005;stroke-linecap:butt;stroke-linejoin:bevel;stroke-miterlimit:10;stroke-opacity:1" />
    <path
       id="path110"
       d="M 192.01172,12.07028 V 32.07419"
       style="fill:none;stroke:#000000;stroke-width:0.80005;stroke-linecap:butt;stroke-linejoin:bevel;stroke-miterlimit:10;stroke-opacity:1" />
    <path
       id="path112"
       d="M 229.60156,12.07028 V 32.07419"
       style="fill:none;stroke:#000000;stroke-width:0.80005;stroke-linecap:butt;stroke-linejoin:bevel;stroke-miterlimit:10;stroke-opacity:1" />
    <path
       id="path114"
       d="M 267.19141,12.07028 V 32.07419"
       style="fill:none;stroke:#000000;stroke-width:0.80005;stroke-linecap:butt;stroke-linejoin:bevel;stroke-miterlimit:10;stroke-opacity:1" />
    <path
       id="path120"
       d="M 304.77734,12.07028 V 32.07419"
       style="fill:none;stroke:#000000;stroke-width:0.80005;stroke-linecap:butt;stroke-linejoin:bevel;stroke-miterlimit:10;stroke-opacity:1" />
    <path
       id="path152"
       d="M 39.839844,37.07419 H 52.742188"
       style="fill:none;stroke:#000000;stroke-width:0.80005;stroke-linecap:square;stroke-linejoin:bevel;stroke-miterlimit:10;stroke-opacity:1" />
    <path
       id="path154"
       d="m 74.886719,37.07419 h 12.90625"
       style="fill:none;stroke:#000000;stroke-width:0.80005;stroke-linecap:square;stroke-linejoin:bevel;stroke-miterlimit:10;stroke-opacity:1" />
    <path
       id="path156"
       d="m 121.73047,37.07419 h 12.90625"
       style="fill:none;stroke:#000000;stroke-width:0.80005;stroke-linecap:square;stroke-linejoin:bevel;stroke-miterlimit:10;stroke-opacity:1" />
    <path
       id="path158"
       d="m 159.32031,37.07419 h 12.90625"
       style="fill:none;stroke:#000000;stroke-width:0.80005;stroke-linecap:square;stroke-linejoin:bevel;stroke-miterlimit:10;stroke-opacity:1" />
    <path
       id="path160"
       d="m 196.91016,37.07419 h 12.90625"
       style="fill:none;stroke:#000000;stroke-width:0.80005;stroke-linecap:square;stroke-linejoin:bevel;stroke-miterlimit:10;stroke-opacity:1" />
    <path
       id="path162"
       d="m 234.5,37.07419 h 12.90234"
       style="fill:none;stroke:#000000;stroke-width:0.80005;stroke-linecap:square;stroke-linejoin:bevel;stroke-miterlimit:10;stroke-opacity:1" />
    <path
       id="path164"
       d="m 272.08984,37.07419 h 12.90235"
       style="fill:none;stroke:#000000;stroke-width:0.80005;stroke-linecap:square;stroke-linejoin:bevel;stroke-miterlimit:10;stroke-opacity:1" />
    <path
       id="path276"
       d="m 45.636719,34.8281 c -0.46875,0 -0.808594,0.16015 -1.015625,0.48828 -0.234375,0.3125 -0.351562,0.73437 -0.351562,1.26953 0,0.60937 0.160156,1.13672 0.488281,1.58203 0.324219,0.42969 0.683593,0.72656 1.074219,0.89844 0.351562,0.16797 0.722656,0.2539 1.113281,0.2539 0.453125,0 0.800781,-0.16406 1.035156,-0.48828 0.21875,-0.32812 0.332031,-0.75 0.332031,-1.26953 0,-0.61328 -0.164062,-1.14062 -0.488281,-1.58203 -0.328125,-0.41797 -0.679687,-0.71875 -1.054687,-0.89844 -0.378907,-0.17187 -0.757813,-0.2539 -1.132813,-0.2539 z m 0.664063,-0.50782 c 1.40625,0 2.578124,0.27344 3.515624,0.82032 0.949219,0.54687 1.425782,1.1914 1.425782,1.93359 0,0.79297 -0.488282,1.44531 -1.464844,1.95313 -0.976562,0.53125 -2.136719,0.80078 -3.476562,0.80078 -1.382813,0 -2.554688,-0.27344 -3.515626,-0.82032 -0.964843,-0.54687 -1.445312,-1.1914 -1.445312,-1.93359 0,-0.79687 0.492188,-1.44531 1.484375,-1.95312 0.976563,-0.53516 2.132813,-0.80079 3.476563,-0.80079 z m 0,0"
       style="fill:#000000;fill-opacity:1;fill-rule:nonzero;stroke:none" />
    <path
       id="path278"
       d="m 89.9375,32.3281 c -0.46875,0 -0.804687,0.16015 -1.015625,0.48828 -0.234375,0.3125 -0.351562,0.73437 -0.351562,1.26953 0,0.60937 0.164062,1.13672 0.488281,1.58203 0.328125,0.42969 0.683594,0.72656 1.074219,0.89844 0.351562,0.16797 0.722656,0.2539 1.113281,0.2539 0.457031,0 0.800781,-0.16406 1.035156,-0.48828 0.222656,-0.32812 0.332032,-0.75 0.332032,-1.26953 0,-0.61328 -0.160157,-1.14062 -0.488282,-1.58203 -0.324218,-0.41797 -0.675781,-0.71875 -1.054687,-0.89844 -0.375,-0.17187 -0.753907,-0.2539 -1.132813,-0.2539 z m 0.664063,-0.50782 c 1.40625,0 2.578125,0.27344 3.515625,0.82032 0.953125,0.54687 1.429687,1.1914 1.429687,1.93359 0,0.79297 -0.492187,1.44531 -1.46875,1.95313 -0.976562,0.53125 -2.132812,0.80078 -3.476562,0.80078 -1.378907,0 -2.550781,-0.27344 -3.515625,-0.82032 -0.960938,-0.54687 -1.445313,-1.1914 -1.445313,-1.93359 0,-0.79687 0.496094,-1.44531 1.484375,-1.95312 0.976563,-0.53516 2.136719,-0.80079 3.476563,-0.80079 z m 0,0"
       style="fill:#000000;fill-opacity:1;fill-rule:nonzero;stroke:none" />
    <path
       id="path280"
       d="m 80.683594,34.8281 c -0.46875,0 -0.804688,0.16015 -1.015625,0.48828 -0.234375,0.3125 -0.351563,0.73437 -0.351563,1.26953 0,0.60937 0.164063,1.13672 0.488282,1.58203 0.328125,0.42969 0.683594,0.72656 1.074218,0.89844 0.351563,0.16797 0.722657,0.2539 1.113282,0.2539 0.457031,0 0.804687,-0.16406 1.039062,-0.48828 0.21875,-0.32812 0.332032,-0.75 0.332032,-1.26953 0,-0.61328 -0.164063,-1.14062 -0.488282,-1.58203 -0.328125,-0.41797 -0.679687,-0.71875 -1.058594,-0.89844 -0.375,-0.17187 -0.753906,-0.2539 -1.132812,-0.2539 z m 0.664062,-0.50782 c 1.40625,0 2.582032,0.27344 3.519532,0.82032 0.949218,0.54687 1.425781,1.1914 1.425781,1.93359 0,0.79297 -0.488281,1.44531 -1.464844,1.95313 -0.976562,0.53125 -2.136719,0.80078 -3.480469,0.80078 -1.378906,0 -2.550781,-0.27344 -3.515624,-0.82032 -0.960938,-0.54687 -1.445313,-1.1914 -1.445313,-1.93359 0,-0.79687 0.496094,-1.44531 1.484375,-1.95312 0.976562,-0.53516 2.136719,-0.80079 3.476562,-0.80079 z m 0,0"
       style="fill:#000000;fill-opacity:1;fill-rule:nonzero;stroke:none" />
    <path
       id="path282"
       d="m 127.52734,29.8281 c -0.46875,0 -0.80468,0.16015 -1.01562,0.48828 -0.23438,0.3125 -0.35156,0.73437 -0.35156,1.26953 0,0.60937 0.16406,1.13672 0.48828,1.58203 0.32812,0.42969 0.68359,0.72656 1.07422,0.89844 0.35156,0.16797 0.72265,0.2539 1.11328,0.2539 0.45703,0 0.80078,-0.16406 1.03515,-0.48828 0.22266,-0.32812 0.33204,-0.75 0.33204,-1.26953 0,-0.61328 -0.16016,-1.14062 -0.48829,-1.58203 -0.32421,-0.41797 -0.67578,-0.71875 -1.05468,-0.89844 -0.375,-0.17187 -0.75391,-0.2539 -1.13282,-0.2539 z m 0.66407,-0.50782 c 1.40625,0 2.57812,0.27344 3.51562,0.82032 0.95313,0.54687 1.42578,1.1914 1.42578,1.93359 0,0.79297 -0.48828,1.44531 -1.46484,1.95313 -0.97656,0.53125 -2.13281,0.80078 -3.47656,0.80078 -1.37891,0 -2.55078,-0.27344 -3.51563,-0.82032 -0.96094,-0.54687 -1.44531,-1.1914 -1.44531,-1.93359 0,-0.79687 0.49609,-1.44531 1.48437,-1.95312 0.97657,-0.53516 2.13672,-0.80079 3.47657,-0.80079 z m 0,0"
       style="fill:#000000;fill-opacity:1;fill-rule:nonzero;stroke:none" />
    <path
       id="path284"
       d="m 127.52734,34.8281 c -0.46875,0 -0.80468,0.16015 -1.01562,0.48828 -0.23438,0.3125 -0.35156,0.73437 -0.35156,1.26953 0,0.60937 0.16406,1.13672 0.48828,1.58203 0.32812,0.42969 0.68359,0.72656 1.07422,0.89844 0.35156,0.16797 0.72265,0.2539 1.11328,0.2539 0.45703,0 0.80078,-0.16406 1.03515,-0.48828 0.22266,-0.32812 0.33204,-0.75 0.33204,-1.26953 0,-0.61328 -0.16016,-1.14062 -0.48829,-1.58203 -0.32421,-0.41797 -0.67578,-0.71875 -1.05468,-0.89844 -0.375,-0.17187 -0.75391,-0.2539 -1.13282,-0.2539 z m 0.66407,-0.50782 c 1.40625,0 2.57812,0.27344 3.51562,0.82032 0.95313,0.54687 1.42578,1.1914 1.42578,1.93359 0,0.79297 -0.48828,1.44531 -1.46484,1.95313 -0.97656,0.53125 -2.13281,0.80078 -3.47656,0.80078 -1.37891,0 -2.55078,-0.27344 -3.51563,-0.82032 -0.96094,-0.54687 -1.44531,-1.1914 -1.44531,-1.93359 0,-0.79687 0.49609,-1.44531 1.48437,-1.95312 0.97657,-0.53516 2.13672,-0.80079 3.47657,-0.80079 z m 0,0"
       style="fill:#000000;fill-opacity:1;fill-rule:nonzero;stroke:none" />
    <path
       id="path286"
       d="m 165.11719,27.3281 c -0.46875,0 -0.80469,0.16015 -1.01563,0.48828 -0.23437,0.3125 -0.35156,0.73437 -0.35156,1.26953 0,0.60937 0.16406,1.13672 0.48828,1.58203 0.32813,0.42969 0.6836,0.72656 1.07422,0.89844 0.35156,0.16797 0.72266,0.2539 1.11328,0.2539 0.45703,0 0.80078,-0.16406 1.03516,-0.48828 0.22265,-0.32812 0.33203,-0.75 0.33203,-1.26953 0,-0.61328 -0.16016,-1.14062 -0.48828,-1.58203 -0.32422,-0.41797 -0.67578,-0.71875 -1.05469,-0.89844 -0.375,-0.17187 -0.75391,-0.2539 -1.13281,-0.2539 z m 0.66406,-0.50782 c 1.40625,0 2.57813,0.27344 3.51563,0.82032 0.95312,0.54687 1.42578,1.1914 1.42578,1.93359 0,0.79297 -0.48828,1.44531 -1.46485,1.95313 -0.97656,0.53125 -2.13281,0.80078 -3.47656,0.80078 -1.37891,0 -2.55078,-0.27344 -3.51562,-0.82032 -0.96094,-0.54687 -1.44532,-1.1914 -1.44532,-1.93359 0,-0.79687 0.4961,-1.44531 1.48438,-1.95312 0.97656,-0.53516 2.13672,-0.80079 3.47656,-0.80079 z m 0,0"
       style="fill:#000000;fill-opacity:1;fill-rule:nonzero;stroke:none" />
    <path
       id="path288"
       d="m 165.11719,34.8281 c -0.46875,0 -0.80469,0.16015 -1.01563,0.48828 -0.23437,0.3125 -0.35156,0.73437 -0.35156,1.26953 0,0.60937 0.16406,1.13672 0.48828,1.58203 0.32813,0.42969 0.6836,0.72656 1.07422,0.89844 0.35156,0.16797 0.72266,0.2539 1.11328,0.2539 0.45703,0 0.80078,-0.16406 1.03516,-0.48828 0.22265,-0.32812 0.33203,-0.75 0.33203,-1.26953 0,-0.61328 -0.16016,-1.14062 -0.48828,-1.58203 -0.32422,-0.41797 -0.67578,-0.71875 -1.05469,-0.89844 -0.375,-0.17187 -0.75391,-0.2539 -1.13281,-0.2539 z m 0.66406,-0.50782 c 1.40625,0 2.57813,0.27344 3.51563,0.82032 0.95312,0.54687 1.42578,1.1914 1.42578,1.93359 0,0.79297 -0.48828,1.44531 -1.46485,1.95313 -0.97656,0.53125 -2.13281,0.80078 -3.47656,0.80078 -1.37891,0 -2.55078,-0.27344 -3.51562,-0.82032 -0.96094,-0.54687 -1.44532,-1.1914 -1.44532,-1.93359 0,-0.79687 0.4961,-1.44531 1.48438,-1.95312 0.97656,-0.53516 2.13672,-0.80079 3.47656,-0.80079 z m 0,0"
       style="fill:#000000;fill-opacity:1;fill-rule:nonzero;stroke:none" />
    <path
       id="path290"
       d="m 202.70703,24.8281 c -0.46875,0 -0.80469,0.16015 -1.01562,0.48828 -0.23438,0.3125 -0.35157,0.73437 -0.35157,1.26953 0,0.60937 0.16407,1.13672 0.48829,1.58203 0.32812,0.42969 0.68359,0.72656 1.07421,0.89844 0.35157,0.16797 0.72266,0.2539 1.11329,0.2539 0.45703,0 0.80078,-0.16406 1.03515,-0.48828 0.22266,-0.32812 0.33203,-0.75 0.33203,-1.26953 0,-0.61328 -0.16015,-1.14062 -0.48828,-1.58203 -0.32422,-0.41797 -0.67578,-0.71875 -1.05469,-0.89844 -0.375,-0.17187 -0.7539,-0.2539 -1.13281,-0.2539 z m 0.66406,-0.50782 c 1.40625,0 2.57813,0.27344 3.51563,0.82032 0.95312,0.54687 1.42578,1.1914 1.42578,1.93359 0,0.79297 -0.48828,1.44531 -1.46484,1.95313 -0.97657,0.53125 -2.13282,0.80078 -3.47657,0.80078 -1.3789,0 -2.55078,-0.27344 -3.51562,-0.82032 -0.96094,-0.54687 -1.44531,-1.1914 -1.44531,-1.93359 0,-0.79687 0.49609,-1.44531 1.48437,-1.95312 0.97656,-0.53516 2.13672,-0.80079 3.47656,-0.80079 z m 0,0"
       style="fill:#000000;fill-opacity:1;fill-rule:nonzero;stroke:none" />
    <path
       id="path292"
       d="m 202.70703,34.8281 c -0.46875,0 -0.80469,0.16015 -1.01562,0.48828 -0.23438,0.3125 -0.35157,0.73437 -0.35157,1.26953 0,0.60937 0.16407,1.13672 0.48829,1.58203 0.32812,0.42969 0.68359,0.72656 1.07421,0.89844 0.35157,0.16797 0.72266,0.2539 1.11329,0.2539 0.45703,0 0.80078,-0.16406 1.03515,-0.48828 0.22266,-0.32812 0.33203,-0.75 0.33203,-1.26953 0,-0.61328 -0.16015,-1.14062 -0.48828,-1.58203 -0.32422,-0.41797 -0.67578,-0.71875 -1.05469,-0.89844 -0.375,-0.17187 -0.7539,-0.2539 -1.13281,-0.2539 z m 0.66406,-0.50782 c 1.40625,0 2.57813,0.27344 3.51563,0.82032 0.95312,0.54687 1.42578,1.1914 1.42578,1.93359 0,0.79297 -0.48828,1.44531 -1.46484,1.95313 -0.97657,0.53125 -2.13282,0.80078 -3.47657,0.80078 -1.3789,0 -2.55078,-0.27344 -3.51562,-0.82032 -0.96094,-0.54687 -1.44531,-1.1914 -1.44531,-1.93359 0,-0.79687 0.49609,-1.44531 1.48437,-1.95312 0.97656,-0.53516 2.13672,-0.80079 3.47656,-0.80079 z m 0,0"
       style="fill:#000000;fill-opacity:1;fill-rule:nonzero;stroke:none" />
    <path
       id="path294"
       d="m 240.29688,22.32419 c -0.46875,0 -0.8086,0.16406 -1.01563,0.48828 -0.23437,0.3125 -0.35156,0.73828 -0.35156,1.27344 0,0.60937 0.16406,1.13672 0.48828,1.58203 0.32422,0.42969 0.68359,0.72656 1.07422,0.89844 0.35156,0.16797 0.72265,0.2539 1.11328,0.2539 0.45703,0 0.80078,-0.16406 1.03516,-0.48828 0.22265,-0.32812 0.33203,-0.75 0.33203,-1.26953 0,-0.61328 -0.16016,-1.14062 -0.48828,-1.58203 -0.32422,-0.41797 -0.67579,-0.71875 -1.05469,-0.90234 -0.375,-0.16797 -0.75391,-0.25391 -1.13281,-0.25391 z m 0.66406,-0.50781 c 1.40625,0 2.57812,0.27344 3.51562,0.82031 0.95313,0.55078 1.42578,1.19531 1.42578,1.9375 0,0.79297 -0.48828,1.44531 -1.46484,1.95313 -0.97656,0.53125 -2.13281,0.80078 -3.47656,0.80078 -1.37891,0 -2.55078,-0.27344 -3.51563,-0.82032 C 236.48047,25.96091 236,25.31638 236,24.57419 c 0,-0.79687 0.49609,-1.44922 1.48438,-1.95703 0.97656,-0.53125 2.13671,-0.80078 3.47656,-0.80078 z m 0,0"
       style="fill:#000000;fill-opacity:1;fill-rule:nonzero;stroke:none" />
    <path
       id="path296"
       d="m 240.29688,34.8281 c -0.46875,0 -0.8086,0.16015 -1.01563,0.48828 -0.23437,0.3125 -0.35156,0.73437 -0.35156,1.26953 0,0.60937 0.16406,1.13672 0.48828,1.58203 0.32422,0.42969 0.68359,0.72656 1.07422,0.89844 0.35156,0.16797 0.72265,0.2539 1.11328,0.2539 0.45703,0 0.80078,-0.16406 1.03516,-0.48828 0.22265,-0.32812 0.33203,-0.75 0.33203,-1.26953 0,-0.61328 -0.16016,-1.14062 -0.48828,-1.58203 -0.32422,-0.41797 -0.67579,-0.71875 -1.05469,-0.89844 -0.375,-0.17187 -0.75391,-0.2539 -1.13281,-0.2539 z m 0.66406,-0.50782 c 1.40625,0 2.57812,0.27344 3.51562,0.82032 0.95313,0.54687 1.42578,1.1914 1.42578,1.93359 0,0.79297 -0.48828,1.44531 -1.46484,1.95313 -0.97656,0.53125 -2.13281,0.80078 -3.47656,0.80078 -1.37891,0 -2.55078,-0.27344 -3.51563,-0.82032 C 236.48047,38.46091 236,37.81638 236,37.07419 c 0,-0.79687 0.49609,-1.44531 1.48438,-1.95312 0.97656,-0.53516 2.13671,-0.80079 3.47656,-0.80079 z m 0,0"
       style="fill:#000000;fill-opacity:1;fill-rule:nonzero;stroke:none" />
    <path
       id="path302"
       d="m 277.88672,19.82419 c -0.46875,0 -0.80859,0.16406 -1.01563,0.48828 -0.23437,0.3125 -0.35156,0.73828 -0.35156,1.26953 0,0.61328 0.16406,1.14063 0.48828,1.58594 0.32422,0.42969 0.6836,0.72656 1.07422,0.89844 0.35156,0.16797 0.72266,0.2539 1.11328,0.2539 0.45703,0 0.80078,-0.16406 1.03516,-0.48828 0.22266,-0.32812 0.33203,-0.75 0.33203,-1.27343 0,-0.60938 -0.16406,-1.13672 -0.48828,-1.58204 -0.32422,-0.41406 -0.67578,-0.71484 -1.05469,-0.89843 -0.3789,-0.16797 -0.7539,-0.25391 -1.13281,-0.25391 z m 0.66406,-0.50781 c 1.40625,0 2.57813,0.27344 3.51563,0.82031 0.95312,0.54688 1.42578,1.19141 1.42578,1.93359 0,0.79688 -0.48828,1.44922 -1.46485,1.95704 -0.97656,0.53125 -2.13671,0.80078 -3.47656,0.80078 -1.3789,0 -2.55078,-0.27344 -3.51562,-0.82032 -0.96485,-0.54687 -1.44532,-1.19531 -1.44532,-1.9375 0,-0.79296 0.4961,-1.44531 1.48438,-1.95312 0.97656,-0.53125 2.13672,-0.80078 3.47656,-0.80078 z m 0,0"
       style="fill:#000000;fill-opacity:1;fill-rule:nonzero;stroke:none" />
    <path
       id="path304"
       d="m 277.88672,34.8281 c -0.46875,0 -0.80859,0.16015 -1.01563,0.48828 -0.23437,0.3125 -0.35156,0.73437 -0.35156,1.26953 0,0.60937 0.16406,1.13672 0.48828,1.58203 0.32422,0.42969 0.6836,0.72656 1.07422,0.89844 0.35156,0.16797 0.72266,0.2539 1.11328,0.2539 0.45703,0 0.80078,-0.16406 1.03516,-0.48828 0.22266,-0.32812 0.33203,-0.75 0.33203,-1.26953 0,-0.61328 -0.16406,-1.14062 -0.48828,-1.58203 -0.32422,-0.41797 -0.67578,-0.71875 -1.05469,-0.89844 -0.3789,-0.17187 -0.7539,-0.2539 -1.13281,-0.2539 z m 0.66406,-0.50782 c 1.40625,0 2.57813,0.27344 3.51563,0.82032 0.95312,0.54687 1.42578,1.1914 1.42578,1.93359 0,0.79297 -0.48828,1.44531 -1.46485,1.95313 -0.97656,0.53125 -2.13671,0.80078 -3.47656,0.80078 -1.3789,0 -2.55078,-0.27344 -3.51562,-0.82032 -0.96485,-0.54687 -1.44532,-1.1914 -1.44532,-1.93359 0,-0.79687 0.4961,-1.44531 1.48438,-1.95312 0.97656,-0.53516 2.13672,-0.80079 3.47656,-0.80079 z m 0,0"
       style="fill:#000000;fill-opacity:1;fill-rule:nonzero;stroke:none" />
    <path
       id="path310"
       d="m 14.292969,21.9531 c 0,0 0.03906,0 0.117187,0 0.05078,-0.0117 0.09766,-0.0195 0.136719,-0.0195 1.457031,0 2.65625,0.51562 3.59375,1.54687 0.9375,1.01563 1.40625,2.19922 1.40625,3.55469 0,1.67969 -0.695312,3.04687 -2.089843,4.10156 -0.363282,0.28516 -0.839844,0.51953 -1.425782,0.70313 0.06641,0.84375 0.09766,1.52734 0.09766,2.05078 0,0.10156 -0.01172,0.48047 -0.03906,1.13281 -0.05078,1.21094 -0.46875,2.25781 -1.25,3.14453 -0.753906,0.87109 -1.691406,1.30859 -2.8125,1.30859 -1.054688,0 -1.953125,-0.37109 -2.6953119,-1.11328 -0.742188,-0.75781 -1.113282,-1.66797 -1.113282,-2.73437 0,-0.5625 0.214844,-1.03516 0.644532,-1.42578 0.441406,-0.39063 0.957031,-0.58594 1.5429679,-0.58594 0.519532,0 0.957032,0.19922 1.308594,0.60547 0.363281,0.375 0.546875,0.84375 0.546875,1.40625 0,0.50781 -0.183594,0.9414 -0.546875,1.30859 -0.363281,0.36328 -0.800781,0.54688 -1.308594,0.54688 -0.207031,0 -0.4101559,-0.0391 -0.6054679,-0.11719 0.5742179,0.84375 1.3359369,1.26953 2.2851559,1.26953 0.898437,0 1.632812,-0.36719 2.207031,-1.09375 0.597656,-0.75781 0.925781,-1.63672 0.976563,-2.63672 0.02734,-0.625 0.03906,-0.98437 0.03906,-1.07422 0,-0.73047 -0.02734,-1.32812 -0.07813,-1.79687 -0.652344,0.10156 -1.230469,0.15625 -1.738281,0.15625 -1.808594,0 -3.351563,-0.71875 -4.6289059,-2.14844 -1.25,-1.44531 -1.875,-3.16406 -1.875,-5.15625 0,-0.41797 0.039062,-0.83984 0.117187,-1.26953 0.078125,-0.35156 0.175781,-0.73828 0.292969,-1.15625 0.066406,-0.23438 0.242187,-0.60938 0.527344,-1.13281 0.105468,-0.15625 0.222656,-0.35157 0.351562,-0.58594 0.128906,-0.23438 0.222656,-0.39063 0.273438,-0.46875 0.128906,-0.25781 0.382812,-0.60938 0.761718,-1.05469 0.105469,-0.11719 0.210938,-0.24609 0.320313,-0.39062 0.113281,-0.14063 0.207031,-0.25782 0.285156,-0.35157 0.078125,-0.0898 0.1367189,-0.16015 0.1757809,-0.21484 0.03906,-0.0508 0.332032,-0.39453 0.878906,-1.03516 0.128907,-0.1289 0.257813,-0.26953 0.382813,-0.41796 0.121094,-0.14844 0.222656,-0.26563 0.300781,-0.35157 0.07813,-0.0859 0.136719,-0.14843 0.175782,-0.1875 -0.46875,-1.54687 -0.761719,-2.78515 -0.878907,-3.71093 -0.08984,-0.74219 -0.136719,-1.75782 -0.136719,-3.0468799 0,-1.13281 0.261719,-2.19141 0.78125,-3.18359 0.507813,-1.02735 1.21875,-1.86719 2.128907,-2.51953 0.06641,-0.0391 0.128906,-0.0586 0.195312,-0.0586 0.08984,0 0.15625,0.0195 0.195313,0.0586 0.703125,0.84765 1.308594,1.94921 1.816406,3.30078 0.519531,1.35547 0.78125,2.58593 0.78125,3.6913999 0,1.25 -0.300781,2.42188 -0.898438,3.51563 -0.675781,1.16015 -1.550781,2.35937 -2.617187,3.59375 0.273437,0.85937 0.636719,2.20703 1.09375,4.04297 z m 1.660156,9.08593 c 0.675781,-0.25 1.203125,-0.67187 1.582031,-1.26953 0.417969,-0.57422 0.625,-1.21875 0.625,-1.93359 0,-0.92578 -0.3125,-1.74609 -0.9375,-2.46094 -0.636718,-0.74219 -1.453124,-1.16015 -2.441406,-1.25 0.558594,2.7461 0.949219,5.05078 1.171875,6.91406 z M 8.3945321,26.52732 c 0,1.28906 0.519531,2.42187 1.5625,3.39843 1.0664059,0.94922 2.2656239,1.42578 3.5937499,1.42578 0.546874,0 1.082031,-0.0391 1.601562,-0.11718 -0.207031,-1.98047 -0.617188,-4.35157 -1.230469,-7.10938 -0.742187,0.0781 -1.335937,0.33594 -1.777343,0.78125 C 11.714844,25.35935 11.5,25.87497 11.5,26.44919 c 0,0.98828 0.527344,1.78906 1.582032,2.40234 0.08984,0.0899 0.136718,0.1875 0.136718,0.29297 0,0.10157 -0.04687,0.19922 -0.136718,0.29297 -0.07813,0.0899 -0.175782,0.13672 -0.292969,0.13672 -0.01172,0 -0.07031,-0.0156 -0.175781,-0.0391 -0.742188,-0.40625 -1.316407,-0.92578 -1.71875,-1.5625 -0.378907,-0.67969 -0.566407,-1.36328 -0.566407,-2.05078 0,-0.89844 0.28125,-1.71485 0.839844,-2.44141 0.585937,-0.73047 1.347656,-1.19922 2.285156,-1.41016 -0.363281,-1.45703 -0.664062,-2.59765 -0.898437,-3.41796 -0.207032,0.23437 -0.457032,0.51953 -0.75,0.85156 -0.292969,0.33203 -0.46875,0.53125 -0.519532,0.59375 -0.46875,0.61328 -0.828124,1.08984 -1.074218,1.42578 -0.4414059,0.61328 -0.7695319,1.14062 -0.9765629,1.58203 -0.222656,0.49609 -0.417969,1.03906 -0.585937,1.625 -0.167969,0.55859 -0.253906,1.15625 -0.253906,1.79688 z M 14.917969,6.6601301 c -0.976563,0.48437 -1.746094,1.17187 -2.304687,2.07031 -0.574219,0.92578 -0.859376,1.9218799 -0.859376,2.9882799 0,0.9375 0.234376,2.20313 0.703126,3.78906 0.9375,-1.13281 1.640624,-2.17968 2.109374,-3.14453 0.496094,-1.01562 0.742188,-2.07422 0.742188,-3.1835899 0,-0.83203 -0.128906,-1.67188 -0.390625,-2.51953 z m 0,0"
       style="fill:#000000;fill-opacity:1;fill-rule:nonzero;stroke:none" />
    <path
       id="path320"
       d="m 29.082032,12.32419 c 0.390624,0 0.722656,-0.043 0.996093,-0.13672 0.273438,-0.0898 0.449219,-0.13672 0.527344,-0.13672 0.08984,0 0.160156,0.0273 0.214844,0.0781 0.03906,0.0391 0.0625,0.0859 0.07813,0.13672 0,0.0273 -0.01563,0.0664 -0.03906,0.11718 l -5.6875,6.60157 h 3.339844 v -2.61719 c 0,-0.16797 0.04687,-0.3125 0.136719,-0.42969 0.15625,-0.1289 0.289062,-0.20703 0.394531,-0.23437 0.167969,-0.0781 0.375,-0.25782 0.625,-0.54688 0.207031,-0.23437 0.453125,-0.64453 0.742187,-1.23047 0.03906,-0.0781 0.09766,-0.11718 0.175782,-0.11718 0.15625,0 0.246094,0.0937 0.273437,0.27343 v 4.90235 h 1.425781 c 0.179688,0 0.285157,0.0976 0.3125,0.29297 0,0.19531 -0.105468,0.29296 -0.3125,0.29296 h -1.425781 v 0.15625 c 0,0.52344 0.128907,0.96485 0.390625,1.32813 0.296875,0.36719 0.648438,0.54687 1.054688,0.54687 0.15625,0 0.234375,0.0781 0.234375,0.23438 0,0.15625 -0.07813,0.23437 -0.234375,0.23437 -0.273438,0 -0.71875,-0.0391 -1.328125,-0.11718 -0.5625,-0.0899 -0.996094,-0.13672 -1.308594,-0.13672 -0.328125,0 -0.765625,0.0469 -1.3125,0.13672 -0.585937,0.0781 -1.019531,0.11718 -1.308594,0.11718 -0.15625,0 -0.234375,-0.0781 -0.234375,-0.23437 0,-0.15625 0.07813,-0.23438 0.234375,-0.23438 0.40625,0 0.757813,-0.17968 1.054688,-0.54687 0.273437,-0.36328 0.410156,-0.80469 0.410156,-1.32813 v -0.15625 h -3.339844 c -0.21875,0 -0.375,-0.0508 -0.46875,-0.15625 -0.101562,-0.0781 -0.15625,-0.17968 -0.15625,-0.3125 0,-0.0391 0.09766,-0.17578 0.292969,-0.41015 0.222656,-0.25781 0.457031,-0.57813 0.703125,-0.95703 0.289063,-0.44141 0.5625,-0.89844 0.820313,-1.36719 0.289062,-0.53125 0.515624,-1.14453 0.683593,-1.83594 0.195313,-0.70312 0.292969,-1.41797 0.292969,-2.14844 0,-0.20703 0.09375,-0.3125 0.273438,-0.3125 0.03906,0 0.125,0.0195 0.253906,0.0586 0.03906,0.0156 0.121094,0.0352 0.246094,0.0586 0.125,0.0273 0.222656,0.0547 0.300781,0.0781 0.234375,0.0391 0.457031,0.0586 0.667969,0.0586 z m 0,0"
       style="fill:#000000;fill-opacity:1;fill-rule:nonzero;stroke:none" />
    <path
       id="path322"
       d="m 29.082032,22.32419 c 0.390624,0 0.722656,-0.043 0.996093,-0.13672 0.273438,-0.0898 0.449219,-0.13672 0.527344,-0.13672 0.08984,0 0.160156,0.0274 0.214844,0.0781 0.03906,0.0391 0.0625,0.0859 0.07813,0.13672 0,0.0273 -0.01563,0.0664 -0.03906,0.11718 l -5.6875,6.60547 h 3.339844 v -2.61718 c 0,-0.17188 0.04687,-0.3125 0.136719,-0.42969 0.15625,-0.13281 0.289062,-0.21094 0.394531,-0.23438 0.167969,-0.0781 0.375,-0.26172 0.625,-0.54687 0.207031,-0.23438 0.453125,-0.64453 0.742187,-1.23047 0.03906,-0.0781 0.09766,-0.11719 0.175782,-0.11719 0.15625,0 0.246094,0.0899 0.273437,0.27344 v 4.90234 h 1.425781 c 0.179688,0 0.285157,0.0977 0.3125,0.29297 0,0.19531 -0.105468,0.29297 -0.3125,0.29297 h -1.425781 v 0.15625 c 0,0.51953 0.128907,0.96094 0.390625,1.32813 0.296875,0.36328 0.648438,0.54687 1.054688,0.54687 0.15625,0 0.234375,0.0781 0.234375,0.23438 0,0.15625 -0.07813,0.23437 -0.234375,0.23437 -0.273438,0 -0.71875,-0.0391 -1.328125,-0.11719 -0.5625,-0.0937 -0.996094,-0.13672 -1.308594,-0.13672 -0.328125,0 -0.765625,0.043 -1.3125,0.13672 -0.585937,0.0781 -1.019531,0.11719 -1.308594,0.11719 -0.15625,0 -0.234375,-0.0781 -0.234375,-0.23437 0,-0.15625 0.07813,-0.23438 0.234375,-0.23438 0.40625,0 0.757813,-0.18359 1.054688,-0.54687 0.273437,-0.36719 0.410156,-0.8086 0.410156,-1.32813 v -0.15625 h -3.339844 c -0.21875,0 -0.375,-0.0547 -0.46875,-0.15625 -0.101562,-0.0781 -0.15625,-0.18359 -0.15625,-0.3125 0,-0.0391 0.09766,-0.17578 0.292969,-0.41016 0.222656,-0.26171 0.457031,-0.58203 0.703125,-0.95703 0.289063,-0.44531 0.5625,-0.89843 0.820313,-1.36718 0.289062,-0.53516 0.515624,-1.14844 0.683593,-1.83594 0.195313,-0.70313 0.292969,-1.42188 0.292969,-2.15235 0,-0.20703 0.09375,-0.3125 0.273438,-0.3125 0.03906,0 0.125,0.0195 0.253906,0.0586 0.03906,0.0156 0.121094,0.0351 0.246094,0.0586 0.125,0.0274 0.222656,0.0547 0.300781,0.0781 0.234375,0.0391 0.457031,0.0586 0.667969,0.0586 z m 0,0"
       style="fill:#000000;fill-opacity:1;fill-rule:nonzero;stroke:none" />
  </g>
</svg>
