<?xml version="1.0" encoding="UTF-8" standalone="no"?>
<svg
   xmlns:dc="http://purl.org/dc/elements/1.1/"
   xmlns:cc="http://creativecommons.org/ns#"
   xmlns:rdf="http://www.w3.org/1999/02/22-rdf-syntax-ns#"
   xmlns:svg="http://www.w3.org/2000/svg"
   xmlns="http://www.w3.org/2000/svg"
   xmlns:sodipodi="http://sodipodi.sourceforge.net/DTD/sodipodi-0.dtd"
   xmlns:inkscape="http://www.inkscape.org/namespaces/inkscape"
   inkscape:version="1.0 (4035a4f, 2020-05-01)"
   sodipodi:docname="intervals_1.svg"
   id="svg325"
   version="1.2"
   viewBox="0 0 320 50"
   height="50pt"
   width="320pt">
  <metadata
     id="metadata331">
    <rdf:RDF>
      <cc:Work
         rdf:about="">
        <dc:format>image/svg+xml</dc:format>
        <dc:type
           rdf:resource="http://purl.org/dc/dcmitype/StillImage" />
        <dc:title></dc:title>
      </cc:Work>
    </rdf:RDF>
  </metadata>
  <defs
     id="defs329" />
  <sodipodi:namedview
     inkscape:current-layer="surface3543"
     inkscape:window-maximized="1"
     inkscape:window-y="23"
     inkscape:window-x="0"
     inkscape:cy="238.00434"
     inkscape:cx="416.96607"
     inkscape:zoom="0.66277682"
     showgrid="false"
     id="namedview327"
     inkscape:window-height="855"
     inkscape:window-width="1440"
     inkscape:pageshadow="2"
     inkscape:pageopacity="0"
     guidetolerance="10"
     gridtolerance="10"
     objecttolerance="10"
     borderopacity="1"
     bordercolor="#666666"
     pagecolor="#ffffff" />
  <g
     id="surface3543">
    <path
       id="path10"
       d="m 44.8125,41.574214 c 3.941406,4.078126 11.828125,4.078126 15.773438,0 -3.945313,4.878907 -11.832032,4.878907 -15.773438,0 z m 0,0"
       style="fill:#000000;fill-opacity:1;fill-rule:evenodd;stroke:#000000;stroke-width:0.350022;stroke-linecap:round;stroke-linejoin:round;stroke-miterlimit:10;stroke-opacity:1" />
    <path
       id="path12"
       d="m 83.34375,41.574214 c 4.59375,3.460938 12.484375,2.210938 15.785156,-2.5 -3.175781,5.5 -11.066406,6.75 -15.785156,2.5 z m 0,0"
       style="fill:#000000;fill-opacity:1;fill-rule:evenodd;stroke:#000000;stroke-width:0.350022;stroke-linecap:round;stroke-linejoin:round;stroke-miterlimit:10;stroke-opacity:1" />
    <path
       id="path14"
       d="m 121.89453,41.574214 c 5.24219,2.839844 13.13281,0.339844 15.78516,-5 -2.41016,6.101563 -10.30078,8.601563 -15.78516,5 z m 0,0"
       style="fill:#000000;fill-opacity:1;fill-rule:evenodd;stroke:#000000;stroke-width:0.350022;stroke-linecap:round;stroke-linejoin:round;stroke-miterlimit:10;stroke-opacity:1" />
    <path
       id="path22"
       d="m 160.44531,41.574214 c 5.88672,2.210938 13.78125,-1.539062 15.78516,-7.5 -1.66016,6.683594 -9.55469,10.433594 -15.78516,7.5 z m 0,0"
       style="fill:#000000;fill-opacity:1;fill-rule:evenodd;stroke:#000000;stroke-width:0.350022;stroke-linecap:round;stroke-linejoin:round;stroke-miterlimit:10;stroke-opacity:1" />
    <path
       id="path24"
       d="m 198.99609,41.574214 c 6.52344,1.566407 14.41797,-3.433593 15.78516,-10 -0.94141,7.242188 -8.83203,12.242188 -15.78516,10 z m 0,0"
       style="fill:#000000;fill-opacity:1;fill-rule:evenodd;stroke:#000000;stroke-width:0.350022;stroke-linecap:round;stroke-linejoin:round;stroke-miterlimit:10;stroke-opacity:1" />
    <path
       id="path26"
       d="m 237.54688,41.574214 c 7.14062,0.902344 15.03125,-5.347656 15.78906,-12.5 -0.26172,7.78125 -8.15235,14.03125 -15.78906,12.5 z m 0,0"
       style="fill:#000000;fill-opacity:1;fill-rule:evenodd;stroke:#000000;stroke-width:0.350022;stroke-linecap:round;stroke-linejoin:round;stroke-miterlimit:10;stroke-opacity:1" />
    <path
       id="path36"
       d="m 281.07422,25.070308 c 0.36719,-5.234375 5.77734,-8.984375 10.8125,-7.5 -4.58203,-0.828125 -9.98828,2.921875 -10.8125,7.5 z m 0,0"
       style="fill:#000000;fill-opacity:1;fill-rule:evenodd;stroke:#000000;stroke-width:0.350022;stroke-linecap:round;stroke-linejoin:round;stroke-miterlimit:10;stroke-opacity:1" />
    <path
       id="path38"
       d="M 3.7500001,12.070308 H 73.871094 m -70.1210939,5 H 73.871094 m -70.1210939,5 H 73.871094 m -70.1210939,5 H 73.871094 M 3.7500001,32.074214 H 73.871094"
       style="fill:none;stroke:#000000;stroke-width:0.400025;stroke-linecap:butt;stroke-linejoin:bevel;stroke-miterlimit:10;stroke-opacity:1" />
    <path
       id="path40"
       d="m 73.871094,12.070308 h 38.550786 m -38.550786,5 h 38.550786 m -38.550786,5 h 38.550786 m -38.550786,5 h 38.550786 m -38.550786,5.003906 h 38.550786"
       style="fill:none;stroke:#000000;stroke-width:0.400025;stroke-linecap:butt;stroke-linejoin:bevel;stroke-miterlimit:10;stroke-opacity:1" />
    <path
       id="path42"
       d="m 112.42188,12.070308 h 38.55078 m -38.55078,5 h 38.55078 m -38.55078,5 h 38.55078 m -38.55078,5 h 38.55078 m -38.55078,5.003906 h 38.55078"
       style="fill:none;stroke:#000000;stroke-width:0.400025;stroke-linecap:butt;stroke-linejoin:bevel;stroke-miterlimit:10;stroke-opacity:1" />
    <path
       id="path50"
       d="m 150.97266,12.070308 h 38.55078 m -38.55078,5 h 38.55078 m -38.55078,5 h 38.55078 m -38.55078,5 h 38.55078 m -38.55078,5.003906 h 38.55078"
       style="fill:none;stroke:#000000;stroke-width:0.400025;stroke-linecap:butt;stroke-linejoin:bevel;stroke-miterlimit:10;stroke-opacity:1" />
    <path
       id="path52"
       d="m 189.52344,12.070308 h 38.55469 m -38.55469,5 h 38.55469 m -38.55469,5 h 38.55469 m -38.55469,5 h 38.55469 m -38.55469,5.003906 h 38.55469"
       style="fill:none;stroke:#000000;stroke-width:0.400025;stroke-linecap:butt;stroke-linejoin:bevel;stroke-miterlimit:10;stroke-opacity:1" />
    <path
       id="path54"
       d="m 228.07813,12.070308 h 38.55078 m -38.55078,5 h 38.55078 m -38.55078,5 h 38.55078 m -38.55078,5 h 38.55078 m -38.55078,5.003906 h 38.55078"
       style="fill:none;stroke:#000000;stroke-width:0.400025;stroke-linecap:butt;stroke-linejoin:bevel;stroke-miterlimit:10;stroke-opacity:1" />
    <path
       id="path56"
       d="m 266.62891,12.070308 h 38.14843 m -38.14843,5 h 38.14843 m -38.14843,5 h 38.14843 m -38.14843,5 h 38.14843 m -38.14843,5.003906 h 38.14843"
       style="fill:none;stroke:#000000;stroke-width:0.352596;stroke-linecap:butt;stroke-linejoin:bevel;stroke-miterlimit:10;stroke-opacity:1" />
    <path
       id="path80"
       d="M 73.46875,12.070308 V 32.074214"
       style="fill:none;stroke:#000000;stroke-width:0.80005;stroke-linecap:butt;stroke-linejoin:bevel;stroke-miterlimit:10;stroke-opacity:1" />
    <path
       id="path82"
       d="M 112.02344,12.070308 V 32.074214"
       style="fill:none;stroke:#000000;stroke-width:0.80005;stroke-linecap:butt;stroke-linejoin:bevel;stroke-miterlimit:10;stroke-opacity:1" />
    <path
       id="path88"
       d="M 150.57422,12.070308 V 32.074214"
       style="fill:none;stroke:#000000;stroke-width:0.80005;stroke-linecap:butt;stroke-linejoin:bevel;stroke-miterlimit:10;stroke-opacity:1" />
    <path
       id="path90"
       d="M 189.125,12.070308 V 32.074214"
       style="fill:none;stroke:#000000;stroke-width:0.80005;stroke-linecap:butt;stroke-linejoin:bevel;stroke-miterlimit:10;stroke-opacity:1" />
    <path
       id="path92"
       d="M 227.67578,12.070308 V 32.074214"
       style="fill:none;stroke:#000000;stroke-width:0.80005;stroke-linecap:butt;stroke-linejoin:bevel;stroke-miterlimit:10;stroke-opacity:1" />
    <path
       id="path94"
       d="M 266.22656,12.070308 V 32.074214"
       style="fill:none;stroke:#000000;stroke-width:0.80005;stroke-linecap:butt;stroke-linejoin:bevel;stroke-miterlimit:10;stroke-opacity:1" />
    <path
       id="path116"
       d="M 304.77734,12.070308 V 32.074214"
       style="fill:none;stroke:#000000;stroke-width:0.80005;stroke-linecap:butt;stroke-linejoin:bevel;stroke-miterlimit:10;stroke-opacity:1" />
    <path
       id="path122"
       d="M 39.839844,37.074214 H 49.78125"
       style="fill:none;stroke:#000000;stroke-width:0.80005;stroke-linecap:square;stroke-linejoin:bevel;stroke-miterlimit:10;stroke-opacity:1" />
    <path
       id="path124"
       d="m 78.371094,37.074214 h 9.945312"
       style="fill:none;stroke:#000000;stroke-width:0.80005;stroke-linecap:square;stroke-linejoin:bevel;stroke-miterlimit:10;stroke-opacity:1" />
    <path
       id="path126"
       d="m 55.613282,37.074214 h 9.945312"
       style="fill:none;stroke:#000000;stroke-width:0.80005;stroke-linecap:square;stroke-linejoin:bevel;stroke-miterlimit:10;stroke-opacity:1" />
    <path
       id="path128"
       d="m 116.92188,37.074214 h 9.94531"
       style="fill:none;stroke:#000000;stroke-width:0.80005;stroke-linecap:square;stroke-linejoin:bevel;stroke-miterlimit:10;stroke-opacity:1" />
    <path
       id="path134"
       d="m 155.47266,37.074214 h 9.94531"
       style="fill:none;stroke:#000000;stroke-width:0.80005;stroke-linecap:square;stroke-linejoin:bevel;stroke-miterlimit:10;stroke-opacity:1" />
    <path
       id="path136"
       d="m 194.02344,37.074214 h 9.94531"
       style="fill:none;stroke:#000000;stroke-width:0.80005;stroke-linecap:square;stroke-linejoin:bevel;stroke-miterlimit:10;stroke-opacity:1" />
    <path
       id="path138"
       d="m 232.57813,37.074214 h 9.9414"
       style="fill:none;stroke:#000000;stroke-width:0.80005;stroke-linecap:square;stroke-linejoin:bevel;stroke-miterlimit:10;stroke-opacity:1" />
    <path
       id="path140"
       d="m 271.12891,37.074214 h 9.94531"
       style="fill:none;stroke:#000000;stroke-width:0.80005;stroke-linecap:square;stroke-linejoin:bevel;stroke-miterlimit:10;stroke-opacity:1" />
    <path
       id="path168"
       d="M 47.957032,36.304683 V 19.570308"
       style="fill:none;stroke:#000000;stroke-width:0.650041;stroke-linecap:round;stroke-linejoin:bevel;stroke-miterlimit:10;stroke-opacity:1" />
    <path
       id="path170"
       d="M 86.488282,36.304683 V 19.570308"
       style="fill:none;stroke:#000000;stroke-width:0.650041;stroke-linecap:round;stroke-linejoin:bevel;stroke-miterlimit:10;stroke-opacity:1" />
    <path
       id="path172"
       d="M 63.734375,36.304683 V 19.570308"
       style="fill:none;stroke:#000000;stroke-width:0.650041;stroke-linecap:round;stroke-linejoin:bevel;stroke-miterlimit:10;stroke-opacity:1" />
    <path
       id="path174"
       d="M 102.27344,33.804683 V 17.070308"
       style="fill:none;stroke:#000000;stroke-width:0.650041;stroke-linecap:round;stroke-linejoin:bevel;stroke-miterlimit:10;stroke-opacity:1" />
    <path
       id="path186"
       d="M 140.82813,31.304683 V 14.570308"
       style="fill:none;stroke:#000000;stroke-width:0.650041;stroke-linecap:round;stroke-linejoin:bevel;stroke-miterlimit:10;stroke-opacity:1" />
    <path
       id="path188"
       d="M 125.04297,36.304683 V 19.570308"
       style="fill:none;stroke:#000000;stroke-width:0.650041;stroke-linecap:round;stroke-linejoin:bevel;stroke-miterlimit:10;stroke-opacity:1" />
    <path
       id="path190"
       d="M 179.37891,28.804683 V 12.070308"
       style="fill:none;stroke:#000000;stroke-width:0.650041;stroke-linecap:round;stroke-linejoin:bevel;stroke-miterlimit:10;stroke-opacity:1" />
    <path
       id="path192"
       d="M 163.59375,36.304683 V 19.570308"
       style="fill:none;stroke:#000000;stroke-width:0.650041;stroke-linecap:round;stroke-linejoin:bevel;stroke-miterlimit:10;stroke-opacity:1" />
    <path
       id="path194"
       d="M 217.92969,26.304683 V 10.195308"
       style="fill:none;stroke:#000000;stroke-width:0.650041;stroke-linecap:round;stroke-linejoin:bevel;stroke-miterlimit:10;stroke-opacity:1" />
    <path
       id="path196"
       d="M 202.14453,36.304683 V 19.570308"
       style="fill:none;stroke:#000000;stroke-width:0.650041;stroke-linecap:round;stroke-linejoin:bevel;stroke-miterlimit:10;stroke-opacity:1" />
    <path
       id="path198"
       d="M 256.48047,23.804683 V 8.3203081"
       style="fill:none;stroke:#000000;stroke-width:0.650041;stroke-linecap:round;stroke-linejoin:bevel;stroke-miterlimit:10;stroke-opacity:1" />
    <path
       id="path200"
       d="M 240.69531,36.304683 V 19.570308"
       style="fill:none;stroke:#000000;stroke-width:0.650041;stroke-linecap:round;stroke-linejoin:bevel;stroke-miterlimit:10;stroke-opacity:1" />
    <path
       id="path216"
       d="m 288.73828,22.855464 v 14.84375"
       style="fill:none;stroke:#000000;stroke-width:0.650041;stroke-linecap:round;stroke-linejoin:bevel;stroke-miterlimit:10;stroke-opacity:1" />
    <path
       id="path218"
       d="M 279.24609,36.304683 V 19.570308"
       style="fill:none;stroke:#000000;stroke-width:0.650041;stroke-linecap:round;stroke-linejoin:bevel;stroke-miterlimit:10;stroke-opacity:1" />
    <path
       id="path224"
       d="m 47.648438,35.765621 c 0,-0.222657 -0.08594,-0.410157 -0.253906,-0.566407 -0.171876,-0.171874 -0.367188,-0.253906 -0.585938,-0.253906 -0.390625,0 -1.179688,0.390625 -2.363281,1.171875 -1.226563,0.792969 -1.972657,1.359375 -2.246094,1.699219 -0.144531,0.179688 -0.214844,0.371094 -0.214844,0.566406 0,0.21875 0.08203,0.410156 0.253907,0.566406 0.15625,0.167969 0.351562,0.253907 0.585937,0.253907 0.375,0 1.171875,-0.390625 2.382813,-1.171875 1.195312,-0.78125 1.9375,-1.347656 2.226562,-1.699219 0.140625,-0.171875 0.214844,-0.359375 0.214844,-0.566406 z m -1.035156,-1.445313 c 1.117187,0 1.679687,0.480469 1.679687,1.445313 0,0.46875 -0.136719,1.015625 -0.410156,1.640625 -0.273438,0.609375 -0.640625,1.078125 -1.09375,1.40625 -1.003907,0.675781 -2.261719,1.015625 -3.769531,1.015625 -1.121094,0 -1.679688,-0.484375 -1.679688,-1.445313 0,-0.429687 0.136719,-0.972656 0.410156,-1.621094 0.257813,-0.625 0.625,-1.101562 1.09375,-1.425781 1,-0.679687 2.257813,-1.015625 3.769532,-1.015625 z m 0,0"
       style="fill:#000000;fill-opacity:1;fill-rule:nonzero;stroke:none" />
    <path
       id="path226"
       d="m 86.179688,35.765621 c 0,-0.222657 -0.08594,-0.410157 -0.253906,-0.566407 -0.167969,-0.171874 -0.363282,-0.253906 -0.585938,-0.253906 -0.390625,0 -1.179688,0.390625 -2.363281,1.171875 -1.222657,0.792969 -1.972657,1.359375 -2.246094,1.699219 -0.144531,0.179688 -0.214844,0.371094 -0.214844,0.566406 0,0.21875 0.08594,0.410156 0.253907,0.566406 0.15625,0.167969 0.351562,0.253907 0.585937,0.253907 0.378906,0 1.171875,-0.390625 2.382813,-1.171875 1.199218,-0.78125 1.941406,-1.347656 2.226562,-1.699219 0.144531,-0.171875 0.214844,-0.359375 0.214844,-0.566406 z m -1.035156,-1.445313 c 1.121093,0 1.679687,0.480469 1.679687,1.445313 0,0.46875 -0.136719,1.015625 -0.410156,1.640625 -0.273438,0.609375 -0.636719,1.078125 -1.09375,1.40625 -1.003907,0.675781 -2.257813,1.015625 -3.769531,1.015625 -1.121094,0 -1.679688,-0.484375 -1.679688,-1.445313 0,-0.429687 0.136719,-0.972656 0.410156,-1.621094 0.261719,-0.625 0.625,-1.101562 1.09375,-1.425781 1.003906,-0.679687 2.257813,-1.015625 3.769532,-1.015625 z m 0,0"
       style="fill:#000000;fill-opacity:1;fill-rule:nonzero;stroke:none" />
    <path
       id="path228"
       d="m 63.421875,35.765621 c 0,-0.222657 -0.08203,-0.410157 -0.253906,-0.566407 C 63,35.02734 62.804688,34.945308 62.582032,34.945308 c -0.390626,0 -1.175782,0.390625 -2.363282,1.171875 -1.222656,0.792969 -1.972656,1.359375 -2.246094,1.699219 -0.140624,0.179688 -0.214843,0.371094 -0.214843,0.566406 0,0.21875 0.08594,0.410156 0.253906,0.566406 0.15625,0.167969 0.351563,0.253907 0.585937,0.253907 0.378907,0 1.171876,-0.390625 2.382813,-1.171875 1.199219,-0.78125 1.941406,-1.347656 2.226563,-1.699219 0.144531,-0.171875 0.214843,-0.359375 0.214843,-0.566406 z m -1.035156,-1.445313 c 1.121094,0 1.679687,0.480469 1.679687,1.445313 0,0.46875 -0.136718,1.015625 -0.410156,1.640625 -0.273437,0.609375 -0.636718,1.078125 -1.09375,1.40625 -1,0.675781 -2.257812,1.015625 -3.769531,1.015625 -1.117187,0 -1.679687,-0.484375 -1.679687,-1.445313 0,-0.429687 0.136718,-0.972656 0.410156,-1.621094 0.261718,-0.625 0.625,-1.101562 1.09375,-1.425781 1.003906,-0.679687 2.261718,-1.015625 3.769531,-1.015625 z m 0,0"
       style="fill:#000000;fill-opacity:1;fill-rule:nonzero;stroke:none" />
    <path
       id="path230"
       d="m 124.73047,35.765621 c 0,-0.222657 -0.0859,-0.410157 -0.25391,-0.566407 -0.16797,-0.171874 -0.36328,-0.253906 -0.58593,-0.253906 -0.39063,0 -1.17969,0.390625 -2.36329,1.171875 -1.22265,0.792969 -1.97265,1.359375 -2.24609,1.699219 -0.14453,0.179688 -0.21484,0.371094 -0.21484,0.566406 0,0.21875 0.0859,0.410156 0.2539,0.566406 0.15625,0.167969 0.35157,0.253907 0.58594,0.253907 0.37891,0 1.17188,-0.390625 2.38281,-1.171875 1.19922,-0.78125 1.94141,-1.347656 2.22657,-1.699219 0.14453,-0.171875 0.21484,-0.359375 0.21484,-0.566406 z m -1.03516,-1.445313 c 1.1211,0 1.67969,0.480469 1.67969,1.445313 0,0.46875 -0.13672,1.015625 -0.41016,1.640625 -0.27343,0.609375 -0.63671,1.078125 -1.09375,1.40625 -1.0039,0.675781 -2.25781,1.015625 -3.76953,1.015625 -1.12109,0 -1.67968,-0.484375 -1.67968,-1.445313 0,-0.429687 0.13671,-0.972656 0.41015,-1.621094 0.26172,-0.625 0.625,-1.101562 1.09375,-1.425781 1.00391,-0.679687 2.25781,-1.015625 3.76953,-1.015625 z m 0,0"
       style="fill:#000000;fill-opacity:1;fill-rule:nonzero;stroke:none" />
    <path
       id="path232"
       d="m 101.96484,33.265621 c 0,-0.222657 -0.0859,-0.410157 -0.2539,-0.566407 -0.16797,-0.171874 -0.36328,-0.253906 -0.58594,-0.253906 -0.39062,0 -1.179687,0.390625 -2.363281,1.171875 -1.222656,0.792969 -1.972656,1.359375 -2.246094,1.699219 -0.144531,0.179688 -0.214843,0.371094 -0.214843,0.566406 0,0.21875 0.08594,0.410156 0.253906,0.566406 0.15625,0.167969 0.351562,0.253907 0.585937,0.253907 0.378907,0 1.171875,-0.390625 2.382813,-1.171875 1.199222,-0.78125 1.941402,-1.347656 2.226562,-1.699219 0.14453,-0.171875 0.21484,-0.359375 0.21484,-0.566406 z m -1.03515,-1.445313 c 1.12109,0 1.67969,0.480469 1.67969,1.445313 0,0.46875 -0.13672,1.015625 -0.41016,1.640625 -0.27344,0.609375 -0.63672,1.078125 -1.09375,1.40625 -1.00391,0.675781 -2.257814,1.015625 -3.769532,1.015625 -1.121094,0 -1.679688,-0.484375 -1.679688,-1.445313 0,-0.429687 0.136719,-0.972656 0.410156,-1.621094 0.261719,-0.625 0.625,-1.101562 1.09375,-1.425781 1.003907,-0.679687 2.257813,-1.015625 3.769534,-1.015625 z m 0,0"
       style="fill:#000000;fill-opacity:1;fill-rule:nonzero;stroke:none" />
    <path
       id="path244"
       d="m 163.28125,35.765621 c 0,-0.222657 -0.082,-0.410157 -0.25391,-0.566407 -0.16796,-0.171874 -0.36328,-0.253906 -0.58593,-0.253906 -0.39063,0 -1.17578,0.390625 -2.36328,1.171875 -1.22266,0.792969 -1.97266,1.359375 -2.2461,1.699219 -0.14062,0.179688 -0.21484,0.371094 -0.21484,0.566406 0,0.21875 0.0859,0.410156 0.2539,0.566406 0.15625,0.167969 0.35157,0.253907 0.58594,0.253907 0.37891,0 1.17188,-0.390625 2.38281,-1.171875 1.19922,-0.78125 1.94141,-1.347656 2.22657,-1.699219 0.14453,-0.171875 0.21484,-0.359375 0.21484,-0.566406 z m -1.03516,-1.445313 c 1.1211,0 1.67969,0.480469 1.67969,1.445313 0,0.46875 -0.13672,1.015625 -0.41015,1.640625 -0.27344,0.609375 -0.63672,1.078125 -1.09375,1.40625 -1,0.675781 -2.25782,1.015625 -3.76954,1.015625 -1.11718,0 -1.67968,-0.484375 -1.67968,-1.445313 0,-0.429687 0.13672,-0.972656 0.41015,-1.621094 0.26172,-0.625 0.625,-1.101562 1.09375,-1.425781 1.00391,-0.679687 2.26172,-1.015625 3.76953,-1.015625 z m 0,0"
       style="fill:#000000;fill-opacity:1;fill-rule:nonzero;stroke:none" />
    <path
       id="path246"
       d="m 140.51563,30.765621 c 0,-0.222657 -0.082,-0.410157 -0.25391,-0.566407 -0.16797,-0.171874 -0.36328,-0.253906 -0.58594,-0.253906 -0.39062,0 -1.17578,0.390625 -2.36328,1.171875 -1.22266,0.792969 -1.97266,1.359375 -2.24609,1.699219 -0.14453,0.179688 -0.21485,0.371094 -0.21485,0.566406 0,0.21875 0.0859,0.410156 0.25391,0.566406 0.15625,0.167969 0.35156,0.253907 0.58594,0.253907 0.3789,0 1.17187,-0.390625 2.38281,-1.171875 1.19922,-0.78125 1.94141,-1.347656 2.22656,-1.699219 0.14453,-0.171875 0.21485,-0.359375 0.21485,-0.566406 z m -1.03516,-1.445313 c 1.12109,0 1.67969,0.480469 1.67969,1.445313 0,0.46875 -0.13672,1.015625 -0.41016,1.640625 -0.27344,0.609375 -0.63672,1.078125 -1.09375,1.40625 -1,0.675781 -2.25781,1.015625 -3.76953,1.015625 -1.12109,0 -1.67969,-0.484375 -1.67969,-1.445313 0,-0.429687 0.13672,-0.972656 0.41016,-1.621094 0.26172,-0.625 0.625,-1.101562 1.09375,-1.425781 1.0039,-0.679687 2.25781,-1.015625 3.76953,-1.015625 z m 0,0"
       style="fill:#000000;fill-opacity:1;fill-rule:nonzero;stroke:none" />
    <path
       id="path248"
       d="m 201.83594,35.765621 c 0,-0.222657 -0.0859,-0.410157 -0.25391,-0.566407 -0.17187,-0.171874 -0.36719,-0.253906 -0.58594,-0.253906 -0.39062,0 -1.17968,0.390625 -2.36718,1.171875 -1.22266,0.792969 -1.97266,1.359375 -2.2461,1.699219 -0.14062,0.179688 -0.21484,0.371094 -0.21484,0.566406 0,0.21875 0.0859,0.410156 0.25391,0.566406 0.15625,0.167969 0.35156,0.253907 0.58593,0.253907 0.37891,0 1.17188,-0.390625 2.38282,-1.171875 1.19921,-0.78125 1.9414,-1.347656 2.23046,-1.699219 0.14063,-0.171875 0.21485,-0.359375 0.21485,-0.566406 z m -1.03516,-1.445313 c 1.11719,0 1.67969,0.480469 1.67969,1.445313 0,0.46875 -0.13672,1.015625 -0.41016,1.640625 -0.27343,0.609375 -0.64062,1.078125 -1.09375,1.40625 -1.0039,0.675781 -2.26172,1.015625 -3.77343,1.015625 -1.11719,0 -1.67969,-0.484375 -1.67969,-1.445313 0,-0.429687 0.13672,-0.972656 0.41015,-1.621094 0.26172,-0.625 0.625,-1.101562 1.09375,-1.425781 1.00391,-0.679687 2.26172,-1.015625 3.77344,-1.015625 z m 0,0"
       style="fill:#000000;fill-opacity:1;fill-rule:nonzero;stroke:none" />
    <path
       id="path250"
       d="m 179.06641,28.265621 c 0,-0.222657 -0.082,-0.410157 -0.25391,-0.566407 -0.16797,-0.171874 -0.36328,-0.253906 -0.58594,-0.253906 -0.39062,0 -1.17578,0.390625 -2.36328,1.171875 -1.22265,0.792969 -1.97265,1.359375 -2.24609,1.699219 -0.14063,0.179688 -0.21485,0.371094 -0.21485,0.566406 0,0.21875 0.0859,0.410156 0.25391,0.566406 0.15625,0.167969 0.35156,0.253907 0.58594,0.253907 0.3789,0 1.17187,-0.390625 2.38281,-1.171875 1.19922,-0.78125 1.94141,-1.347656 2.22656,-1.699219 0.14453,-0.171875 0.21485,-0.359375 0.21485,-0.566406 z m -1.03516,-1.449219 c 1.12109,0 1.67969,0.484375 1.67969,1.449219 0,0.46875 -0.13672,1.015625 -0.41016,1.640625 -0.27344,0.609375 -0.63672,1.078125 -1.09375,1.40625 -1,0.675781 -2.25781,1.015625 -3.76953,1.015625 -1.11719,0 -1.67969,-0.484375 -1.67969,-1.445313 0,-0.429687 0.13672,-0.972656 0.41016,-1.621094 0.26172,-0.625 0.625,-1.101562 1.09375,-1.425781 1.00391,-0.679687 2.26172,-1.019531 3.76953,-1.019531 z m 0,0"
       style="fill:#000000;fill-opacity:1;fill-rule:nonzero;stroke:none" />
    <path
       id="path252"
       d="m 240.38672,35.765621 c 0,-0.222657 -0.0859,-0.410157 -0.25391,-0.566407 -0.17187,-0.171874 -0.36718,-0.253906 -0.58593,-0.253906 -0.39063,0 -1.17969,0.390625 -2.36329,1.171875 -1.22656,0.792969 -1.97265,1.359375 -2.24609,1.699219 -0.14453,0.179688 -0.21484,0.371094 -0.21484,0.566406 0,0.21875 0.082,0.410156 0.2539,0.566406 0.15625,0.167969 0.35157,0.253907 0.58594,0.253907 0.375,0 1.17188,-0.390625 2.38281,-1.171875 1.19532,-0.78125 1.9375,-1.347656 2.22657,-1.699219 0.14062,-0.171875 0.21484,-0.359375 0.21484,-0.566406 z m -1.03516,-1.445313 c 1.11719,0 1.67969,0.480469 1.67969,1.445313 0,0.46875 -0.13672,1.015625 -0.41016,1.640625 -0.27343,0.609375 -0.64062,1.078125 -1.09375,1.40625 -1.0039,0.675781 -2.26171,1.015625 -3.76953,1.015625 -1.12109,0 -1.67968,-0.484375 -1.67968,-1.445313 0,-0.429687 0.13671,-0.972656 0.41015,-1.621094 0.25781,-0.625 0.625,-1.101562 1.09375,-1.425781 1,-0.679687 2.25781,-1.015625 3.76953,-1.015625 z m 0,0"
       style="fill:#000000;fill-opacity:1;fill-rule:nonzero;stroke:none" />
    <path
       id="path254"
       d="m 217.62109,25.761714 c 0,-0.21875 -0.0859,-0.410156 -0.2539,-0.566406 -0.17188,-0.167968 -0.36719,-0.253906 -0.58594,-0.253906 -0.39062,0 -1.17969,0.390625 -2.36328,1.171875 -1.22656,0.796875 -1.97656,1.363281 -2.25,1.703125 -0.14063,0.179688 -0.21484,0.371094 -0.21484,0.566406 0,0.21875 0.0859,0.410156 0.2539,0.566406 0.15625,0.167969 0.35156,0.253907 0.58594,0.253907 0.37891,0 1.17578,-0.390625 2.38672,-1.171875 1.19531,-0.78125 1.9375,-1.351563 2.22656,-1.703125 0.14063,-0.167969 0.21484,-0.355469 0.21484,-0.566407 z m -1.03515,-1.445312 c 1.11719,0 1.67969,0.484375 1.67969,1.445312 0,0.46875 -0.13672,1.015626 -0.41016,1.644532 -0.27344,0.609375 -0.64063,1.078125 -1.09375,1.40625 -1.00391,0.675781 -2.26172,1.015625 -3.77344,1.015625 -1.11719,0 -1.67969,-0.484375 -1.67969,-1.445313 0,-0.429687 0.13672,-0.972656 0.41016,-1.625 0.26172,-0.625 0.625,-1.097656 1.09375,-1.425781 1.00391,-0.675781 2.26172,-1.015625 3.77344,-1.015625 z m 0,0"
       style="fill:#000000;fill-opacity:1;fill-rule:nonzero;stroke:none" />
    <path
       id="path256"
       d="m 278.9375,35.765621 c 0,-0.222657 -0.0859,-0.410157 -0.25391,-0.566407 -0.16796,-0.171874 -0.36328,-0.253906 -0.58593,-0.253906 -0.39063,0 -1.17969,0.390625 -2.36328,1.171875 -1.22657,0.792969 -1.97266,1.359375 -2.2461,1.699219 -0.14453,0.179688 -0.21484,0.371094 -0.21484,0.566406 0,0.21875 0.082,0.410156 0.2539,0.566406 0.15625,0.167969 0.35157,0.253907 0.58594,0.253907 0.375,0 1.17188,-0.390625 2.38281,-1.171875 1.19922,-0.78125 1.94141,-1.347656 2.22657,-1.699219 0.14453,-0.171875 0.21484,-0.359375 0.21484,-0.566406 z m -1.03516,-1.445313 c 1.1211,0 1.67969,0.480469 1.67969,1.445313 0,0.46875 -0.13672,1.015625 -0.41015,1.640625 -0.27344,0.609375 -0.63672,1.078125 -1.09375,1.40625 -1.00391,0.675781 -2.25782,1.015625 -3.76954,1.015625 -1.12109,0 -1.67968,-0.484375 -1.67968,-1.445313 0,-0.429687 0.13672,-0.972656 0.41015,-1.621094 0.25782,-0.625 0.625,-1.101562 1.09375,-1.425781 1.00391,-0.679687 2.25782,-1.015625 3.76953,-1.015625 z m 0,0"
       style="fill:#000000;fill-opacity:1;fill-rule:nonzero;stroke:none" />
    <path
       id="path258"
       d="m 256.17188,23.261714 c 0,-0.21875 -0.0859,-0.410156 -0.25391,-0.566406 -0.17188,-0.167968 -0.36719,-0.253906 -0.58594,-0.253906 -0.39062,0 -1.17969,0.390625 -2.36328,1.171875 -1.22656,0.796875 -1.97266,1.363281 -2.24609,1.699219 -0.14453,0.183594 -0.21485,0.371094 -0.21485,0.566406 0,0.222656 0.082,0.410156 0.25391,0.566406 0.15625,0.171875 0.35156,0.253906 0.58594,0.253906 0.375,0 1.17187,-0.390624 2.38281,-1.171874 1.19531,-0.78125 1.9375,-1.347657 2.22656,-1.699219 0.14063,-0.167969 0.21485,-0.355469 0.21485,-0.566407 z m -1.03516,-1.445312 c 1.11719,0 1.67969,0.484375 1.67969,1.445312 0,0.46875 -0.13672,1.015626 -0.41016,1.640626 -0.27344,0.613281 -0.64062,1.082031 -1.09375,1.40625 -1.00391,0.679687 -2.26172,1.019531 -3.76953,1.019531 -1.12109,0 -1.67969,-0.484375 -1.67969,-1.449219 0,-0.429688 0.13672,-0.96875 0.41016,-1.621094 0.25781,-0.625 0.625,-1.097656 1.09375,-1.425781 1,-0.675781 2.25781,-1.015625 3.76953,-1.015625 z m 0,0"
       style="fill:#000000;fill-opacity:1;fill-rule:nonzero;stroke:none" />
    <path
       id="path298"
       d="m 294.72266,20.761714 c 0,-0.21875 -0.0859,-0.410156 -0.25391,-0.566406 -0.16797,-0.167968 -0.36328,-0.253906 -0.58594,-0.253906 -0.39062,0 -1.17968,0.390625 -2.36328,1.171875 -1.22265,0.796875 -1.97265,1.363281 -2.24609,1.699219 -0.14453,0.183594 -0.21485,0.371094 -0.21485,0.566406 0,0.222656 0.0859,0.410156 0.25391,0.566406 0.15625,0.171875 0.35156,0.253906 0.58594,0.253906 0.3789,0 1.17187,-0.390624 2.38281,-1.171874 1.19922,-0.78125 1.94141,-1.347657 2.22656,-1.699219 0.14453,-0.167969 0.21485,-0.355469 0.21485,-0.566407 z m -1.03516,-1.445312 c 1.12109,0 1.67969,0.484375 1.67969,1.445312 0,0.46875 -0.13672,1.015626 -0.41016,1.640626 -0.27344,0.613281 -0.63672,1.082031 -1.09375,1.40625 -1.0039,0.679687 -2.25781,1.015624 -3.76953,1.015624 -1.12109,0 -1.67969,-0.480468 -1.67969,-1.445312 0,-0.429688 0.13672,-0.96875 0.41016,-1.621094 0.26172,-0.625 0.625,-1.097656 1.09375,-1.425781 1.00391,-0.675781 2.25781,-1.015625 3.76953,-1.015625 z m 0,0"
       style="fill:#000000;fill-opacity:1;fill-rule:nonzero;stroke:none" />
    <path
       id="path306"
       d="m 14.292969,21.953121 c 0,0 0.03906,0 0.117187,0 0.05078,-0.01172 0.09766,-0.01953 0.136719,-0.01953 1.457031,0 2.65625,0.515624 3.59375,1.542968 0.9375,1.015625 1.40625,2.203125 1.40625,3.554688 0,1.683594 -0.695312,3.050781 -2.089843,4.105468 -0.363282,0.285157 -0.839844,0.519532 -1.425782,0.703126 0.06641,0.84375 0.09766,1.527343 0.09766,2.050781 0,0.101562 -0.01172,0.480469 -0.03906,1.132812 -0.05078,1.210938 -0.46875,2.257813 -1.25,3.144531 -0.753906,0.871094 -1.691406,1.308594 -2.8125,1.308594 -1.054688,0 -1.953125,-0.371094 -2.6953119,-1.113281 -0.742188,-0.757813 -1.113282,-1.667969 -1.113282,-2.734375 0,-0.5625 0.214844,-1.035156 0.644532,-1.425781 0.441406,-0.390625 0.957031,-0.585938 1.5429679,-0.585938 0.519532,0 0.957032,0.199219 1.308594,0.605469 0.363281,0.375 0.546875,0.84375 0.546875,1.40625 0,0.507812 -0.183594,0.941406 -0.546875,1.308594 -0.363281,0.363281 -0.800781,0.546875 -1.308594,0.546875 -0.207031,0 -0.4101559,-0.03906 -0.6054679,-0.117188 0.5742179,0.84375 1.3359369,1.269531 2.2851559,1.269531 0.898437,0 1.632812,-0.367187 2.207031,-1.09375 0.597656,-0.757812 0.925781,-1.636718 0.976563,-2.636718 0.02734,-0.625 0.03906,-0.984375 0.03906,-1.074219 0,-0.730469 -0.02734,-1.328125 -0.07813,-1.796875 -0.652344,0.101562 -1.230469,0.15625 -1.738281,0.15625 -1.808594,0 -3.351563,-0.71875 -4.6289059,-2.148438 -1.25,-1.445312 -1.875,-3.167968 -1.875,-5.160156 0,-0.414062 0.039062,-0.839844 0.117187,-1.269531 0.078125,-0.351563 0.175781,-0.734375 0.292969,-1.152344 0.066406,-0.234375 0.242187,-0.609375 0.527344,-1.132812 0.105468,-0.15625 0.222656,-0.351563 0.351562,-0.585938 0.128906,-0.234375 0.222656,-0.390625 0.273438,-0.46875 0.128906,-0.257812 0.382812,-0.609375 0.761718,-1.054687 0.105469,-0.117188 0.210938,-0.246094 0.320313,-0.390625 0.113281,-0.140625 0.207031,-0.257813 0.285156,-0.351563 0.078125,-0.08984 0.1367189,-0.160156 0.1757809,-0.214844 0.03906,-0.05078 0.332032,-0.394531 0.878906,-1.035156 0.128907,-0.128906 0.257813,-0.269531 0.382813,-0.417968 0.121094,-0.152344 0.222656,-0.269532 0.300781,-0.351563 0.07813,-0.08594 0.136719,-0.148437 0.175782,-0.1875 -0.468749,-1.546876 -0.761718,-2.785157 -0.878906,-3.710938 -0.08984,-0.742188 -0.136719,-1.757813 -0.136719,-3.0468759 0,-1.132812 0.261719,-2.191406 0.78125,-3.183593 0.507813,-1.027344 1.21875,-1.867188 2.128907,-2.519531 0.06641,-0.03906 0.128906,-0.05859 0.195312,-0.05859 0.08984,0 0.15625,0.01953 0.195313,0.05859 0.703125,0.847656 1.308594,1.945312 1.816406,3.300781 0.519531,1.355469 0.78125,2.585937 0.78125,3.6914059 0,1.25 -0.300781,2.421875 -0.898438,3.515625 -0.675781,1.160156 -1.550781,2.359375 -2.617187,3.59375 0.273437,0.859375 0.636719,2.207031 1.09375,4.042969 z m 1.660156,9.085937 c 0.675781,-0.25 1.203125,-0.671875 1.582031,-1.269531 0.417969,-0.574219 0.625,-1.21875 0.625,-1.933594 0,-0.925781 -0.3125,-1.746093 -0.9375,-2.464843 -0.636718,-0.742188 -1.453124,-1.15625 -2.441406,-1.25 0.558594,2.75 0.949219,5.054687 1.171875,6.917968 z M 8.3945321,26.523433 c 0,1.292969 0.519531,2.425781 1.5625,3.402344 1.0664059,0.949219 2.2656239,1.425781 3.5937499,1.425781 0.546874,0 1.082031,-0.03906 1.601562,-0.117187 -0.207031,-1.980469 -0.617188,-4.351563 -1.230469,-7.113281 -0.742187,0.07812 -1.335937,0.339843 -1.777343,0.78125 C 11.714844,25.359371 11.5,25.874996 11.5,26.445308 c 0,0.992188 0.527344,1.792969 1.582032,2.40625 0.08984,0.08984 0.136718,0.1875 0.136718,0.292969 0,0.101563 -0.04687,0.199219 -0.136718,0.292969 -0.07813,0.08984 -0.175782,0.136718 -0.292969,0.136718 -0.01172,0 -0.07031,-0.01562 -0.175781,-0.03906 -0.742188,-0.40625 -1.316407,-0.925781 -1.71875,-1.5625 -0.378907,-0.679688 -0.566407,-1.363281 -0.566407,-2.054688 0,-0.898437 0.28125,-1.710937 0.839844,-2.441406 0.585937,-0.726562 1.347656,-1.195312 2.285156,-1.40625 -0.363281,-1.457031 -0.664062,-2.597656 -0.898437,-3.417968 -0.207032,0.234374 -0.457032,0.519531 -0.75,0.851562 -0.292969,0.332031 -0.46875,0.53125 -0.519532,0.59375 -0.46875,0.613281 -0.828124,1.089844 -1.074218,1.425781 -0.4414059,0.613281 -0.7695319,1.140625 -0.9765629,1.582031 -0.222656,0.496094 -0.417969,1.035157 -0.585937,1.621094 -0.167969,0.5625 -0.253906,1.160156 -0.253906,1.796875 z M 14.917969,6.6601521 c -0.976563,0.484375 -1.746094,1.171875 -2.304687,2.070312 -0.574219,0.925782 -0.859376,1.9218759 -0.859376,2.9882819 0,0.9375 0.234376,2.203125 0.703126,3.789062 0.9375,-1.132812 1.640624,-2.179687 2.109374,-3.144531 0.496094,-1.015625 0.742188,-2.074219 0.742188,-3.1835939 0,-0.832031 -0.128906,-1.671875 -0.390625,-2.519531 z m 0,0"
       style="fill:#000000;fill-opacity:1;fill-rule:nonzero;stroke:none" />
    <path
       id="path312"
       d="m 29.082032,12.324214 c 0.390624,0 0.722656,-0.04297 0.996093,-0.136718 0.273438,-0.08984 0.449219,-0.136719 0.527344,-0.136719 0.08984,0 0.160156,0.02734 0.214844,0.07813 0.03906,0.03906 0.0625,0.08594 0.07813,0.136719 0,0.02734 -0.01563,0.06641 -0.03906,0.117187 l -5.6875,6.601563 h 3.339844 v -2.617188 c 0,-0.167969 0.04687,-0.3125 0.136719,-0.429687 0.15625,-0.128906 0.289062,-0.207032 0.394531,-0.234375 0.167969,-0.07813 0.375,-0.257813 0.625,-0.546875 0.207031,-0.234375 0.453125,-0.644532 0.742187,-1.230469 0.03906,-0.07813 0.09766,-0.117187 0.175782,-0.117187 0.15625,0 0.246094,0.09375 0.273437,0.273437 v 4.902344 h 1.425781 c 0.179688,0 0.285157,0.09766 0.3125,0.292969 0,0.195312 -0.105468,0.292968 -0.3125,0.292968 h -1.425781 v 0.15625 c 0,0.523438 0.128907,0.964844 0.390625,1.328125 0.296875,0.367188 0.648438,0.546875 1.054688,0.546875 0.15625,0 0.234375,0.07813 0.234375,0.234375 0,0.15625 -0.07813,0.234375 -0.234375,0.234375 -0.273438,0 -0.71875,-0.03906 -1.328125,-0.117187 -0.5625,-0.08984 -0.996094,-0.136719 -1.308594,-0.136719 -0.328125,0 -0.765625,0.04687 -1.3125,0.136719 -0.585937,0.07813 -1.019531,0.117187 -1.308594,0.117187 -0.15625,0 -0.234375,-0.07813 -0.234375,-0.234375 0,-0.15625 0.07813,-0.234375 0.234375,-0.234375 0.40625,0 0.757813,-0.179687 1.054688,-0.546875 0.273437,-0.363281 0.410156,-0.804687 0.410156,-1.328125 v -0.15625 h -3.339844 c -0.21875,0 -0.375,-0.05078 -0.46875,-0.15625 -0.101562,-0.07813 -0.15625,-0.179687 -0.15625,-0.3125 0,-0.03906 0.09766,-0.175781 0.292969,-0.410156 0.222656,-0.257812 0.457031,-0.578125 0.703125,-0.957031 0.289063,-0.441407 0.5625,-0.898438 0.820313,-1.367188 0.289062,-0.53125 0.515624,-1.144531 0.683593,-1.835937 0.195313,-0.703125 0.292969,-1.417969 0.292969,-2.148438 0,-0.207031 0.09375,-0.3125 0.273438,-0.3125 0.03906,0 0.125,0.01953 0.253906,0.05859 0.03906,0.01563 0.121094,0.03516 0.246094,0.05859 0.125,0.02734 0.222656,0.05469 0.300781,0.07813 0.234375,0.03906 0.457031,0.05859 0.667969,0.05859 z m 0,0"
       style="fill:#000000;fill-opacity:1;fill-rule:nonzero;stroke:none" />
    <path
       id="path314"
       d="m 29.082032,22.324214 c 0.390624,0 0.722656,-0.04297 0.996093,-0.136718 0.273438,-0.08984 0.449219,-0.136719 0.527344,-0.136719 0.08984,0 0.160156,0.02734 0.214844,0.07813 0.03906,0.03906 0.0625,0.08594 0.07813,0.136719 0,0.02734 -0.01563,0.06641 -0.03906,0.117187 l -5.6875,6.605469 h 3.339844 v -2.621094 c 0,-0.167969 0.04687,-0.3125 0.136719,-0.429687 0.15625,-0.128906 0.289062,-0.207032 0.394531,-0.234375 0.167969,-0.07813 0.375,-0.257813 0.625,-0.546875 0.207031,-0.234375 0.453125,-0.644532 0.742187,-1.230469 0.03906,-0.07813 0.09766,-0.117187 0.175782,-0.117187 0.15625,0 0.246094,0.09375 0.273437,0.273437 v 4.90625 h 1.425781 c 0.179688,0 0.285157,0.09766 0.3125,0.292969 0,0.195312 -0.105468,0.292968 -0.3125,0.292968 h -1.425781 v 0.15625 c 0,0.519532 0.128907,0.960938 0.390625,1.328126 0.296875,0.363281 0.648438,0.546874 1.054688,0.546874 0.15625,0 0.234375,0.07813 0.234375,0.234376 0,0.15625 -0.07813,0.234374 -0.234375,0.234374 -0.273438,0 -0.71875,-0.03906 -1.328125,-0.117187 -0.5625,-0.09375 -0.996094,-0.136719 -1.308594,-0.136719 -0.328125,0 -0.765625,0.04297 -1.3125,0.136719 -0.585937,0.07813 -1.019531,0.117187 -1.308594,0.117187 -0.15625,0 -0.234375,-0.07812 -0.234375,-0.234374 0,-0.15625 0.07813,-0.234376 0.234375,-0.234376 0.40625,0 0.757813,-0.183593 1.054688,-0.546874 0.273437,-0.367188 0.410156,-0.808594 0.410156,-1.328126 v -0.15625 h -3.339844 c -0.21875,0 -0.375,-0.05469 -0.46875,-0.15625 -0.101562,-0.07812 -0.15625,-0.183593 -0.15625,-0.3125 0,-0.03906 0.09766,-0.175781 0.292969,-0.410156 0.222656,-0.261718 0.457031,-0.582031 0.703125,-0.957031 0.289063,-0.445313 0.5625,-0.902344 0.820313,-1.371094 0.289062,-0.53125 0.515624,-1.144531 0.683593,-1.835937 0.195313,-0.703125 0.292969,-1.417969 0.292969,-2.148438 0,-0.207031 0.09375,-0.3125 0.273438,-0.3125 0.03906,0 0.125,0.01953 0.253906,0.05859 0.03906,0.01563 0.121094,0.03516 0.246094,0.05859 0.125,0.02734 0.222656,0.05469 0.300781,0.07813 0.234375,0.03906 0.457031,0.05859 0.667969,0.05859 z m 0,0"
       style="fill:#000000;fill-opacity:1;fill-rule:nonzero;stroke:none" />
  </g>
</svg>
