<?xml version="1.0" encoding="UTF-8" standalone="no"?>
<svg
   xmlns:dc="http://purl.org/dc/elements/1.1/"
   xmlns:cc="http://creativecommons.org/ns#"
   xmlns:rdf="http://www.w3.org/1999/02/22-rdf-syntax-ns#"
   xmlns:svg="http://www.w3.org/2000/svg"
   xmlns="http://www.w3.org/2000/svg"
   xmlns:sodipodi="http://sodipodi.sourceforge.net/DTD/sodipodi-0.dtd"
   xmlns:inkscape="http://www.inkscape.org/namespaces/inkscape"
   inkscape:version="1.0 (4035a4f, 2020-05-01)"
   sodipodi:docname="intervals_2.svg"
   id="svg325"
   version="1.2"
   viewBox="0 0 320 50"
   height="50pt"
   width="320pt">
  <metadata
     id="metadata331">
    <rdf:RDF>
      <cc:Work
         rdf:about="">
        <dc:format>image/svg+xml</dc:format>
        <dc:type
           rdf:resource="http://purl.org/dc/dcmitype/StillImage" />
        <dc:title></dc:title>
      </cc:Work>
    </rdf:RDF>
  </metadata>
  <defs
     id="defs329" />
  <sodipodi:namedview
     inkscape:current-layer="surface3543"
     inkscape:window-maximized="1"
     inkscape:window-y="23"
     inkscape:window-x="0"
     inkscape:cy="238.00434"
     inkscape:cx="416.96607"
     inkscape:zoom="0.66277682"
     showgrid="false"
     id="namedview327"
     inkscape:window-height="855"
     inkscape:window-width="1440"
     inkscape:pageshadow="2"
     inkscape:pageopacity="0"
     guidetolerance="10"
     gridtolerance="10"
     objecttolerance="10"
     borderopacity="1"
     bordercolor="#666666"
     pagecolor="#ffffff" />
  <g
     id="surface3543">
    <path
       id="path16"
       d="m 44.8125,17.57029 c 5.765625,-2.39063 12.652344,1.35937 13.773438,7.5 -1.503906,-5.4375 -8.390625,-9.1875 -13.773438,-7.5 z m 0,0"
       style="fill:#000000;fill-opacity:1;fill-rule:evenodd;stroke:#000000;stroke-width:0.350022;stroke-linecap:round;stroke-linejoin:round;stroke-miterlimit:10;stroke-opacity:1" />
    <path
       id="path18"
       d="m 79.34375,29.07029 c 0.753906,7.15625 8.648438,13.40625 15.785156,12.5 -7.636718,1.53125 -15.527343,-4.71875 -15.785156,-12.5 z m 0,0"
       style="fill:#000000;fill-opacity:1;fill-rule:evenodd;stroke:#000000;stroke-width:0.350022;stroke-linecap:round;stroke-linejoin:round;stroke-miterlimit:10;stroke-opacity:1" />
    <path
       id="path20"
       d="m 117.89453,31.57029 c 1.36719,6.5664 9.26172,11.57031 15.78516,10 -6.95313,2.24609 -14.84375,-2.75781 -15.78516,-10 z m 0,0"
       style="fill:#000000;fill-opacity:1;fill-rule:evenodd;stroke:#000000;stroke-width:0.350022;stroke-linecap:round;stroke-linejoin:round;stroke-miterlimit:10;stroke-opacity:1" />
    <path
       id="path28"
       d="m 156.44531,34.07029 c 2.00391,5.96094 9.89844,9.71094 15.78516,7.5 -6.23047,2.93359 -14.125,-0.81641 -15.78516,-7.5 z m 0,0"
       style="fill:#000000;fill-opacity:1;fill-rule:evenodd;stroke:#000000;stroke-width:0.350022;stroke-linecap:round;stroke-linejoin:round;stroke-miterlimit:10;stroke-opacity:1" />
    <path
       id="path30"
       d="m 194.99609,36.57029 c 2.65235,5.33984 10.54297,7.83984 15.78516,5 -5.48437,3.60547 -13.375,1.10156 -15.78516,-5 z m 0,0"
       style="fill:#000000;fill-opacity:1;fill-rule:evenodd;stroke:#000000;stroke-width:0.350022;stroke-linecap:round;stroke-linejoin:round;stroke-miterlimit:10;stroke-opacity:1" />
    <path
       id="path32"
       d="m 233.54688,39.07029 c 3.30078,4.71094 11.19531,5.96094 15.78515,2.5 -4.71875,4.25 -12.60937,3 -15.78515,-2.5 z m 0,0"
       style="fill:#000000;fill-opacity:1;fill-rule:evenodd;stroke:#000000;stroke-width:0.350022;stroke-linecap:round;stroke-linejoin:round;stroke-miterlimit:10;stroke-opacity:1" />
    <path
       id="path34"
       d="m 272.10156,41.57029 c 4.44532,4.60156 13.33594,4.60156 17.78516,0 -4.44922,5.40234 -13.33984,5.40234 -17.78516,0 z m 0,0"
       style="fill:#000000;fill-opacity:1;fill-rule:evenodd;stroke:#000000;stroke-width:0.350022;stroke-linecap:round;stroke-linejoin:round;stroke-miterlimit:10;stroke-opacity:1" />
    <path
       id="path44"
       d="M 3.7500001,12.07029 H 69.871094 m -66.1210939,5 H 69.871094 m -66.1210939,5 H 69.871094 m -66.1210939,5 H 69.871094 m -66.1210939,5 H 69.871094"
       style="fill:none;stroke:#000000;stroke-width:0.400025;stroke-linecap:butt;stroke-linejoin:bevel;stroke-miterlimit:10;stroke-opacity:1" />
    <path
       id="path46"
       d="m 69.871094,12.07029 h 38.550786 m -38.550786,5 h 38.550786 m -38.550786,5 h 38.550786 m -38.550786,5 h 38.550786 m -38.550786,5 h 38.550786"
       style="fill:none;stroke:#000000;stroke-width:0.400025;stroke-linecap:butt;stroke-linejoin:bevel;stroke-miterlimit:10;stroke-opacity:1" />
    <path
       id="path48"
       d="m 108.42188,12.07029 h 38.55078 m -38.55078,5 h 38.55078 m -38.55078,5 h 38.55078 m -38.55078,5 h 38.55078 m -38.55078,5 h 38.55078"
       style="fill:none;stroke:#000000;stroke-width:0.400025;stroke-linecap:butt;stroke-linejoin:bevel;stroke-miterlimit:10;stroke-opacity:1" />
    <path
       id="path58"
       d="m 146.97266,12.07029 h 38.55078 m -38.55078,5 h 38.55078 m -38.55078,5 h 38.55078 m -38.55078,5 h 38.55078 m -38.55078,5 h 38.55078"
       style="fill:none;stroke:#000000;stroke-width:0.400025;stroke-linecap:butt;stroke-linejoin:bevel;stroke-miterlimit:10;stroke-opacity:1" />
    <path
       id="path60"
       d="m 185.52344,12.07029 h 38.55078 m -38.55078,5 h 38.55078 m -38.55078,5 h 38.55078 m -38.55078,5 h 38.55078 m -38.55078,5 h 38.55078"
       style="fill:none;stroke:#000000;stroke-width:0.400025;stroke-linecap:butt;stroke-linejoin:bevel;stroke-miterlimit:10;stroke-opacity:1" />
    <path
       id="path62"
       d="m 224.07422,12.07029 h 38.55469 m -38.55469,5 h 38.55469 m -38.55469,5 h 38.55469 m -38.55469,5 h 38.55469 m -38.55469,5 h 38.55469"
       style="fill:none;stroke:#000000;stroke-width:0.400025;stroke-linecap:butt;stroke-linejoin:bevel;stroke-miterlimit:10;stroke-opacity:1" />
    <path
       id="path64"
       d="m 262.62891,12.07029 h 42.14843 m -42.14843,5 h 42.14843 m -42.14843,5 h 42.14843 m -42.14843,5 h 42.14843 m -42.14843,5 h 42.14843"
       style="fill:none;stroke:#000000;stroke-width:0.356389;stroke-linecap:butt;stroke-linejoin:bevel;stroke-miterlimit:10;stroke-opacity:1" />
    <path
       id="path84"
       d="m 69.46875,12.07029 v 20"
       style="fill:none;stroke:#000000;stroke-width:0.80005;stroke-linecap:butt;stroke-linejoin:bevel;stroke-miterlimit:10;stroke-opacity:1" />
    <path
       id="path86"
       d="m 108.01953,12.07029 v 20"
       style="fill:none;stroke:#000000;stroke-width:0.80005;stroke-linecap:butt;stroke-linejoin:bevel;stroke-miterlimit:10;stroke-opacity:1" />
    <path
       id="path96"
       d="m 146.57422,12.07029 v 20"
       style="fill:none;stroke:#000000;stroke-width:0.80005;stroke-linecap:butt;stroke-linejoin:bevel;stroke-miterlimit:10;stroke-opacity:1" />
    <path
       id="path98"
       d="m 185.125,12.07029 v 20"
       style="fill:none;stroke:#000000;stroke-width:0.80005;stroke-linecap:butt;stroke-linejoin:bevel;stroke-miterlimit:10;stroke-opacity:1" />
    <path
       id="path100"
       d="m 223.67578,12.07029 v 20"
       style="fill:none;stroke:#000000;stroke-width:0.80005;stroke-linecap:butt;stroke-linejoin:bevel;stroke-miterlimit:10;stroke-opacity:1" />
    <path
       id="path102"
       d="m 262.22656,12.07029 v 20"
       style="fill:none;stroke:#000000;stroke-width:0.80005;stroke-linecap:butt;stroke-linejoin:bevel;stroke-miterlimit:10;stroke-opacity:1" />
    <path
       id="path118"
       d="m 304.77734,12.07029 v 20"
       style="fill:none;stroke:#000000;stroke-width:0.80005;stroke-linecap:butt;stroke-linejoin:bevel;stroke-miterlimit:10;stroke-opacity:1" />
    <path
       id="path130"
       d="m 53.613282,37.07029 h 9.945312"
       style="fill:none;stroke:#000000;stroke-width:0.80005;stroke-linecap:square;stroke-linejoin:bevel;stroke-miterlimit:10;stroke-opacity:1" />
    <path
       id="path132"
       d="m 90.15625,37.07029 h 9.94531"
       style="fill:none;stroke:#000000;stroke-width:0.80005;stroke-linecap:square;stroke-linejoin:bevel;stroke-miterlimit:10;stroke-opacity:1" />
    <path
       id="path142"
       d="m 128.70703,37.07029 h 9.94531"
       style="fill:none;stroke:#000000;stroke-width:0.80005;stroke-linecap:square;stroke-linejoin:bevel;stroke-miterlimit:10;stroke-opacity:1" />
    <path
       id="path144"
       d="m 167.25781,37.07029 h 9.94532"
       style="fill:none;stroke:#000000;stroke-width:0.80005;stroke-linecap:square;stroke-linejoin:bevel;stroke-miterlimit:10;stroke-opacity:1" />
    <path
       id="path146"
       d="m 205.80859,37.07029 h 9.94532"
       style="fill:none;stroke:#000000;stroke-width:0.80005;stroke-linecap:square;stroke-linejoin:bevel;stroke-miterlimit:10;stroke-opacity:1" />
    <path
       id="path148"
       d="m 267.12891,37.07029 h 9.9414"
       style="fill:none;stroke:#000000;stroke-width:0.80005;stroke-linecap:square;stroke-linejoin:bevel;stroke-miterlimit:10;stroke-opacity:1" />
    <path
       id="path150"
       d="m 244.36328,37.07029 h 9.94141"
       style="fill:none;stroke:#000000;stroke-width:0.80005;stroke-linecap:square;stroke-linejoin:bevel;stroke-miterlimit:10;stroke-opacity:1" />
    <path
       id="path166"
       d="m 284.91406,37.07029 h 9.94532"
       style="fill:none;stroke:#000000;stroke-width:0.80005;stroke-linecap:square;stroke-linejoin:bevel;stroke-miterlimit:10;stroke-opacity:1" />
    <path
       id="path176"
       d="M 41.664063,22.85544 V 37.69529"
       style="fill:none;stroke:#000000;stroke-width:0.650041;stroke-linecap:round;stroke-linejoin:bevel;stroke-miterlimit:10;stroke-opacity:1" />
    <path
       id="path178"
       d="M 82.488282,23.80076 V 8.3202901"
       style="fill:none;stroke:#000000;stroke-width:0.650041;stroke-linecap:round;stroke-linejoin:bevel;stroke-miterlimit:10;stroke-opacity:1" />
    <path
       id="path180"
       d="M 121.04297,26.30076 V 10.19529"
       style="fill:none;stroke:#000000;stroke-width:0.650041;stroke-linecap:round;stroke-linejoin:bevel;stroke-miterlimit:10;stroke-opacity:1" />
    <path
       id="path182"
       d="M 61.734375,36.30466 V 19.57029"
       style="fill:none;stroke:#000000;stroke-width:0.650041;stroke-linecap:round;stroke-linejoin:bevel;stroke-miterlimit:10;stroke-opacity:1" />
    <path
       id="path184"
       d="M 98.273438,36.30466 V 19.57029"
       style="fill:none;stroke:#000000;stroke-width:0.650041;stroke-linecap:round;stroke-linejoin:bevel;stroke-miterlimit:10;stroke-opacity:1" />
    <path
       id="path202"
       d="M 159.59375,28.80076 V 12.07029"
       style="fill:none;stroke:#000000;stroke-width:0.650041;stroke-linecap:round;stroke-linejoin:bevel;stroke-miterlimit:10;stroke-opacity:1" />
    <path
       id="path204"
       d="M 136.82813,36.30466 V 19.57029"
       style="fill:none;stroke:#000000;stroke-width:0.650041;stroke-linecap:round;stroke-linejoin:bevel;stroke-miterlimit:10;stroke-opacity:1" />
    <path
       id="path206"
       d="M 198.14453,31.30076 V 14.57029"
       style="fill:none;stroke:#000000;stroke-width:0.650041;stroke-linecap:round;stroke-linejoin:bevel;stroke-miterlimit:10;stroke-opacity:1" />
    <path
       id="path208"
       d="M 175.37891,36.30466 V 19.57029"
       style="fill:none;stroke:#000000;stroke-width:0.650041;stroke-linecap:round;stroke-linejoin:bevel;stroke-miterlimit:10;stroke-opacity:1" />
    <path
       id="path210"
       d="M 213.92969,36.30466 V 19.57029"
       style="fill:none;stroke:#000000;stroke-width:0.650041;stroke-linecap:round;stroke-linejoin:bevel;stroke-miterlimit:10;stroke-opacity:1" />
    <path
       id="path212"
       d="M 252.48047,36.30466 V 19.57029"
       style="fill:none;stroke:#000000;stroke-width:0.650041;stroke-linecap:round;stroke-linejoin:bevel;stroke-miterlimit:10;stroke-opacity:1" />
    <path
       id="path214"
       d="M 236.69531,33.80466 V 17.07029"
       style="fill:none;stroke:#000000;stroke-width:0.650041;stroke-linecap:round;stroke-linejoin:bevel;stroke-miterlimit:10;stroke-opacity:1" />
    <path
       id="path220"
       d="M 293.03125,36.30466 V 19.57029"
       style="fill:none;stroke:#000000;stroke-width:0.650041;stroke-linecap:round;stroke-linejoin:bevel;stroke-miterlimit:10;stroke-opacity:1" />
    <path
       id="path222"
       d="M 275.24609,36.30466 V 19.57029"
       style="fill:none;stroke:#000000;stroke-width:0.650041;stroke-linecap:round;stroke-linejoin:bevel;stroke-miterlimit:10;stroke-opacity:1" />
    <path
       id="path234"
       d="m 47.648438,20.76169 c 0,-0.22265 -0.08594,-0.41015 -0.253906,-0.5664 -0.171876,-0.16797 -0.367188,-0.25391 -0.585938,-0.25391 -0.390625,0 -1.179688,0.39063 -2.363281,1.17188 -1.226563,0.79297 -1.972657,1.35937 -2.246094,1.69922 -0.144531,0.18359 -0.214844,0.37109 -0.214844,0.5664 0,0.22266 0.08203,0.41016 0.253907,0.56641 0.15625,0.16797 0.351562,0.2539 0.585937,0.2539 0.375,0 1.171875,-0.39062 2.382813,-1.17187 1.195312,-0.78125 1.9375,-1.34766 2.226562,-1.69922 0.140625,-0.16797 0.214844,-0.35937 0.214844,-0.56641 z m -1.035156,-1.44531 c 1.117187,0 1.679687,0.48047 1.679687,1.44531 0,0.46875 -0.136719,1.01563 -0.410156,1.64063 -0.273438,0.61328 -0.640625,1.08203 -1.09375,1.40625 -1.003907,0.67578 -2.261719,1.01562 -3.769531,1.01562 -1.121094,0 -1.679688,-0.48046 -1.679688,-1.44531 0,-0.42969 0.136719,-0.96875 0.410156,-1.62109 0.257813,-0.625 0.625,-1.10156 1.09375,-1.42578 1,-0.67578 2.257813,-1.01563 3.769532,-1.01563 z m 0,0"
       style="fill:#000000;fill-opacity:1;fill-rule:nonzero;stroke:none" />
    <path
       id="path236"
       d="m 82.179688,23.26169 c 0,-0.22265 -0.08594,-0.41015 -0.253906,-0.5664 -0.167969,-0.16797 -0.363282,-0.25391 -0.585938,-0.25391 -0.390625,0 -1.179688,0.39063 -2.363281,1.17188 -1.222657,0.79297 -1.972657,1.35937 -2.246094,1.69922 -0.144531,0.18359 -0.214844,0.37109 -0.214844,0.5664 0,0.22266 0.08203,0.41016 0.253907,0.56641 0.15625,0.16797 0.351562,0.2539 0.585937,0.2539 0.378906,0 1.171875,-0.39062 2.382813,-1.17187 1.199218,-0.78125 1.941406,-1.34766 2.226562,-1.69922 0.144531,-0.16797 0.214844,-0.35937 0.214844,-0.56641 z m -1.035156,-1.44531 c 1.121093,0 1.679687,0.48047 1.679687,1.44531 0,0.46875 -0.136719,1.01563 -0.410156,1.64063 -0.273438,0.61328 -0.636719,1.08203 -1.09375,1.40625 -1.003907,0.67578 -2.257813,1.01562 -3.769531,1.01562 -1.121094,0 -1.679688,-0.48046 -1.679688,-1.44531 0,-0.42969 0.136719,-0.96875 0.410156,-1.62109 0.257813,-0.625 0.625,-1.10156 1.09375,-1.42578 1.003906,-0.67578 2.257813,-1.01563 3.769532,-1.01563 z m 0,0"
       style="fill:#000000;fill-opacity:1;fill-rule:nonzero;stroke:none" />
    <path
       id="path238"
       d="m 61.421875,35.76169 c 0,-0.21875 -0.08203,-0.41015 -0.253906,-0.5664 C 61,35.02732 60.804688,34.94138 60.582032,34.94138 c -0.390626,0 -1.175782,0.39063 -2.363282,1.17188 -1.222656,0.79687 -1.972656,1.36328 -2.246094,1.69922 -0.140624,0.18359 -0.214843,0.37109 -0.214843,0.5664 0,0.22266 0.08594,0.41016 0.253906,0.56641 0.15625,0.17187 0.351563,0.2539 0.585937,0.2539 0.378907,0 1.171876,-0.39062 2.382813,-1.17187 1.199219,-0.78125 1.941406,-1.34766 2.226563,-1.69922 0.144531,-0.16797 0.214843,-0.35547 0.214843,-0.56641 z m -1.035156,-1.44531 c 1.121094,0 1.679687,0.48047 1.679687,1.44531 0,0.46875 -0.136718,1.01563 -0.410156,1.64063 -0.273437,0.61328 -0.636718,1.08203 -1.09375,1.40625 -1,0.67969 -2.257812,1.01562 -3.769531,1.01562 -1.117187,0 -1.679687,-0.48046 -1.679687,-1.44531 0,-0.42969 0.136718,-0.96875 0.410156,-1.62109 0.261718,-0.625 0.625,-1.09766 1.09375,-1.42578 1.003906,-0.67578 2.261718,-1.01563 3.769531,-1.01563 z m 0,0"
       style="fill:#000000;fill-opacity:1;fill-rule:nonzero;stroke:none" />
    <path
       id="path240"
       d="m 120.73047,25.76169 c 0,-0.22265 -0.0859,-0.41015 -0.25391,-0.5664 -0.16797,-0.16797 -0.36328,-0.25391 -0.58593,-0.25391 -0.39063,0 -1.17969,0.39063 -2.36329,1.17188 -1.22265,0.79297 -1.97265,1.35937 -2.24609,1.69922 -0.14453,0.18359 -0.21484,0.37109 -0.21484,0.5664 0,0.22266 0.0859,0.41016 0.2539,0.56641 0.15625,0.16797 0.35157,0.2539 0.58594,0.2539 0.37891,0 1.17188,-0.39062 2.38281,-1.17187 1.19922,-0.78125 1.94141,-1.34766 2.22657,-1.69922 0.14453,-0.16797 0.21484,-0.35937 0.21484,-0.56641 z m -1.03516,-1.44531 c 1.1211,0 1.67969,0.48047 1.67969,1.44531 0,0.46875 -0.13672,1.01563 -0.41016,1.64063 -0.27343,0.61328 -0.63671,1.08203 -1.09375,1.40625 -1.0039,0.67578 -2.25781,1.01562 -3.76953,1.01562 -1.12109,0 -1.67968,-0.48046 -1.67968,-1.44531 0,-0.42969 0.13671,-0.96875 0.41015,-1.62109 0.26172,-0.625 0.625,-1.10156 1.09375,-1.42578 1.00391,-0.67578 2.25781,-1.01563 3.76953,-1.01563 z m 0,0"
       style="fill:#000000;fill-opacity:1;fill-rule:nonzero;stroke:none" />
    <path
       id="path242"
       d="m 97.964844,35.76169 c 0,-0.21875 -0.08594,-0.41015 -0.253906,-0.5664 -0.167969,-0.16797 -0.363282,-0.25391 -0.585938,-0.25391 -0.390625,0 -1.179687,0.39063 -2.363281,1.17188 -1.222656,0.79687 -1.972656,1.36328 -2.246094,1.69922 -0.144531,0.18359 -0.214843,0.37109 -0.214843,0.5664 0,0.22266 0.08594,0.41016 0.253906,0.56641 0.15625,0.17187 0.351562,0.2539 0.585937,0.2539 0.378907,0 1.171875,-0.39062 2.382813,-1.17187 1.199218,-0.78125 1.941406,-1.34766 2.226562,-1.69922 0.144532,-0.16797 0.214844,-0.35547 0.214844,-0.56641 z m -1.035156,-1.44531 c 1.121094,0 1.679687,0.48047 1.679687,1.44531 0,0.46875 -0.136719,1.01563 -0.410156,1.64063 -0.273437,0.61328 -0.636719,1.08203 -1.09375,1.40625 -1.003906,0.67969 -2.257813,1.01562 -3.769531,1.01562 -1.121094,0 -1.679688,-0.48046 -1.679688,-1.44531 0,-0.42969 0.136719,-0.96875 0.410156,-1.62109 0.261719,-0.625 0.625,-1.09766 1.09375,-1.42578 1.003907,-0.67578 2.257813,-1.01563 3.769532,-1.01563 z m 0,0"
       style="fill:#000000;fill-opacity:1;fill-rule:nonzero;stroke:none" />
    <path
       id="path260"
       d="m 159.28125,28.26169 c 0,-0.22265 -0.082,-0.41015 -0.25391,-0.5664 -0.16796,-0.16797 -0.36328,-0.25391 -0.58593,-0.25391 -0.39063,0 -1.17578,0.39063 -2.36328,1.17188 -1.22266,0.79297 -1.97266,1.35937 -2.2461,1.69922 -0.14062,0.18359 -0.21484,0.37109 -0.21484,0.5664 0,0.22266 0.0859,0.41016 0.2539,0.56641 0.15625,0.16797 0.35157,0.2539 0.58594,0.2539 0.37891,0 1.17188,-0.39062 2.38281,-1.17187 1.19922,-0.78125 1.94141,-1.34766 2.22657,-1.69922 0.14453,-0.16797 0.21484,-0.35937 0.21484,-0.56641 z m -1.03516,-1.44531 c 1.1211,0 1.67969,0.48047 1.67969,1.44531 0,0.46875 -0.13672,1.01563 -0.41015,1.64063 -0.27344,0.61328 -0.63672,1.08203 -1.09375,1.40625 -1,0.67578 -2.25782,1.01562 -3.76954,1.01562 -1.11718,0 -1.67968,-0.48046 -1.67968,-1.44531 0,-0.42969 0.13672,-0.96875 0.41015,-1.62109 0.26172,-0.625 0.625,-1.10156 1.09375,-1.42578 1.00391,-0.67578 2.26172,-1.01563 3.76953,-1.01563 z m 0,0"
       style="fill:#000000;fill-opacity:1;fill-rule:nonzero;stroke:none" />
    <path
       id="path262"
       d="m 136.51563,35.76169 c 0,-0.21875 -0.0859,-0.41015 -0.25391,-0.5664 -0.16797,-0.16797 -0.36328,-0.25391 -0.58594,-0.25391 -0.39062,0 -1.17969,0.39063 -2.36328,1.17188 -1.22266,0.79687 -1.97266,1.36328 -2.24609,1.69922 -0.14453,0.18359 -0.21485,0.37109 -0.21485,0.5664 0,0.22266 0.0859,0.41016 0.25391,0.56641 0.15625,0.17187 0.35156,0.2539 0.58594,0.2539 0.3789,0 1.17187,-0.39062 2.38281,-1.17187 1.19922,-0.78125 1.94141,-1.34766 2.22656,-1.69922 0.14453,-0.16797 0.21485,-0.35547 0.21485,-0.56641 z m -1.03516,-1.44531 c 1.12109,0 1.67969,0.48047 1.67969,1.44531 0,0.46875 -0.13672,1.01563 -0.41016,1.64063 -0.27344,0.61328 -0.63672,1.08203 -1.09375,1.40625 -1.00391,0.67969 -2.25781,1.01562 -3.76953,1.01562 -1.12109,0 -1.67969,-0.48046 -1.67969,-1.44531 0,-0.42969 0.13672,-0.96875 0.41016,-1.62109 0.26172,-0.625 0.625,-1.09766 1.09375,-1.42578 1.0039,-0.67578 2.25781,-1.01563 3.76953,-1.01563 z m 0,0"
       style="fill:#000000;fill-opacity:1;fill-rule:nonzero;stroke:none" />
    <path
       id="path264"
       d="m 197.83203,30.76169 c 0,-0.22265 -0.082,-0.41015 -0.2539,-0.5664 -0.16797,-0.16797 -0.36329,-0.25391 -0.58594,-0.25391 -0.39063,0 -1.17578,0.39063 -2.36328,1.17188 -1.22266,0.79297 -1.97266,1.35937 -2.2461,1.69922 -0.14062,0.18359 -0.21484,0.37109 -0.21484,0.5664 0,0.22266 0.0859,0.41016 0.25391,0.56641 0.15625,0.16797 0.35156,0.2539 0.58593,0.2539 0.37891,0 1.17188,-0.39062 2.38282,-1.17187 1.19921,-0.78125 1.9414,-1.34766 2.22656,-1.69922 0.14453,-0.16797 0.21484,-0.35937 0.21484,-0.56641 z m -1.03515,-1.44531 c 1.12109,0 1.67968,0.48047 1.67968,1.44531 0,0.46875 -0.13672,1.01563 -0.41015,1.64063 -0.27344,0.61328 -0.63672,1.08203 -1.09375,1.40625 -1,0.67578 -2.25782,1.01562 -3.76953,1.01562 -1.11719,0 -1.67969,-0.48046 -1.67969,-1.44531 0,-0.42969 0.13672,-0.96875 0.41015,-1.62109 0.26172,-0.625 0.625,-1.10156 1.09375,-1.42578 1.00391,-0.67578 2.26172,-1.01563 3.76954,-1.01563 z m 0,0"
       style="fill:#000000;fill-opacity:1;fill-rule:nonzero;stroke:none" />
    <path
       id="path266"
       d="m 175.06641,35.76169 c 0,-0.21875 -0.082,-0.41015 -0.25391,-0.5664 -0.16797,-0.16797 -0.36328,-0.25391 -0.58594,-0.25391 -0.39062,0 -1.17578,0.39063 -2.36328,1.17188 -1.22265,0.79687 -1.97265,1.36328 -2.24609,1.69922 -0.14063,0.18359 -0.21485,0.37109 -0.21485,0.5664 0,0.22266 0.0859,0.41016 0.25391,0.56641 0.15625,0.17187 0.35156,0.2539 0.58594,0.2539 0.3789,0 1.17187,-0.39062 2.38281,-1.17187 1.19922,-0.78125 1.94141,-1.34766 2.22656,-1.69922 0.14453,-0.16797 0.21485,-0.35547 0.21485,-0.56641 z m -1.03516,-1.44531 c 1.12109,0 1.67969,0.48047 1.67969,1.44531 0,0.46875 -0.13672,1.01563 -0.41016,1.64063 -0.27344,0.61328 -0.63672,1.08203 -1.09375,1.40625 -1,0.67969 -2.25781,1.01562 -3.76953,1.01562 -1.11719,0 -1.67969,-0.48046 -1.67969,-1.44531 0,-0.42969 0.13672,-0.96875 0.41016,-1.62109 0.26172,-0.625 0.625,-1.09766 1.09375,-1.42578 1.00391,-0.67578 2.26172,-1.01563 3.76953,-1.01563 z m 0,0"
       style="fill:#000000;fill-opacity:1;fill-rule:nonzero;stroke:none" />
    <path
       id="path268"
       d="m 236.38672,33.26169 c 0,-0.22265 -0.0859,-0.41015 -0.25391,-0.5664 -0.17187,-0.16797 -0.36718,-0.25391 -0.58593,-0.25391 -0.39063,0 -1.17969,0.39063 -2.36329,1.17188 -1.22656,0.79297 -1.97265,1.35937 -2.24609,1.69922 -0.14453,0.18359 -0.21484,0.37109 -0.21484,0.5664 0,0.22266 0.082,0.41016 0.2539,0.56641 0.15625,0.17187 0.35157,0.2539 0.58594,0.2539 0.375,0 1.17188,-0.39062 2.38281,-1.17187 1.19532,-0.78125 1.9375,-1.34766 2.22657,-1.69922 0.14062,-0.16797 0.21484,-0.35937 0.21484,-0.56641 z m -1.03516,-1.44531 c 1.11719,0 1.67969,0.48047 1.67969,1.44531 0,0.46875 -0.13672,1.01563 -0.41016,1.64063 -0.27343,0.61328 -0.64062,1.08203 -1.09375,1.40625 -1.0039,0.67969 -2.26171,1.01562 -3.76953,1.01562 -1.12109,0 -1.67968,-0.48046 -1.67968,-1.44531 0,-0.42969 0.13671,-0.96875 0.41015,-1.62109 0.25781,-0.625 0.625,-1.10156 1.09375,-1.42578 1,-0.67578 2.25781,-1.01563 3.76953,-1.01563 z m 0,0"
       style="fill:#000000;fill-opacity:1;fill-rule:nonzero;stroke:none" />
    <path
       id="path270"
       d="m 213.62109,35.76169 c 0,-0.21875 -0.0859,-0.41015 -0.2539,-0.5664 -0.17188,-0.16797 -0.36719,-0.25391 -0.58985,-0.25391 -0.39062,0 -1.17578,0.39063 -2.36328,1.17188 -1.22265,0.79687 -1.97265,1.36328 -2.24609,1.69922 -0.14063,0.18359 -0.21484,0.37109 -0.21484,0.5664 0,0.22266 0.0859,0.41016 0.2539,0.56641 0.15625,0.17187 0.35156,0.2539 0.58594,0.2539 0.37891,0 1.17187,-0.39062 2.38281,-1.17187 1.19922,-0.78125 1.94141,-1.34766 2.23047,-1.69922 0.14063,-0.16797 0.21484,-0.35547 0.21484,-0.56641 z m -1.03906,-1.44531 c 1.1211,0 1.6836,0.48047 1.6836,1.44531 0,0.46875 -0.13672,1.01563 -0.41016,1.64063 -0.27344,0.61328 -0.64063,1.08203 -1.09766,1.40625 -1,0.67969 -2.25781,1.01562 -3.76953,1.01562 -1.11719,0 -1.67969,-0.48046 -1.67969,-1.44531 0,-0.42969 0.13672,-0.96875 0.41016,-1.62109 0.26172,-0.625 0.625,-1.09766 1.09375,-1.42578 1.00391,-0.67578 2.26172,-1.01563 3.76953,-1.01563 z m 0,0"
       style="fill:#000000;fill-opacity:1;fill-rule:nonzero;stroke:none" />
    <path
       id="path272"
       d="m 274.9375,35.76169 c 0,-0.21875 -0.0859,-0.41015 -0.25391,-0.5664 -0.17187,-0.16797 -0.36718,-0.25391 -0.58593,-0.25391 -0.39063,0 -1.17969,0.39063 -2.36328,1.17188 -1.22657,0.79687 -1.97266,1.36328 -2.2461,1.69922 -0.14453,0.18359 -0.21484,0.37109 -0.21484,0.5664 0,0.22266 0.082,0.41016 0.2539,0.56641 0.15625,0.17187 0.35157,0.2539 0.58594,0.2539 0.375,0 1.17188,-0.39062 2.38281,-1.17187 1.19532,-0.78125 1.9375,-1.34766 2.22657,-1.69922 0.14453,-0.16797 0.21484,-0.35547 0.21484,-0.56641 z m -1.03516,-1.44531 c 1.1211,0 1.67969,0.48047 1.67969,1.44531 0,0.46875 -0.13672,1.01563 -0.41015,1.64063 -0.27344,0.61328 -0.64063,1.08203 -1.09375,1.40625 -1.00391,0.67969 -2.26172,1.01562 -3.76954,1.01562 -1.12109,0 -1.67968,-0.48046 -1.67968,-1.44531 0,-0.42969 0.13672,-0.96875 0.41015,-1.62109 0.25782,-0.625 0.625,-1.09766 1.09375,-1.42578 1,-0.67578 2.25782,-1.01563 3.76953,-1.01563 z m 0,0"
       style="fill:#000000;fill-opacity:1;fill-rule:nonzero;stroke:none" />
    <path
       id="path274"
       d="m 252.17188,35.76169 c 0,-0.21875 -0.0859,-0.41015 -0.25391,-0.5664 -0.17188,-0.16797 -0.36719,-0.25391 -0.58594,-0.25391 -0.39062,0 -1.17969,0.39063 -2.36328,1.17188 -1.22656,0.79687 -1.97266,1.36328 -2.24609,1.69922 -0.14453,0.18359 -0.21485,0.37109 -0.21485,0.5664 0,0.22266 0.082,0.41016 0.25391,0.56641 0.15625,0.17187 0.35156,0.2539 0.58594,0.2539 0.375,0 1.17187,-0.39062 2.38281,-1.17187 1.19531,-0.78125 1.9375,-1.34766 2.22656,-1.69922 0.14063,-0.16797 0.21485,-0.35547 0.21485,-0.56641 z m -1.03516,-1.44531 c 1.11719,0 1.67969,0.48047 1.67969,1.44531 0,0.46875 -0.13672,1.01563 -0.41016,1.64063 -0.27344,0.61328 -0.64062,1.08203 -1.09375,1.40625 -1.00391,0.67969 -2.26172,1.01562 -3.76953,1.01562 -1.12109,0 -1.67969,-0.48046 -1.67969,-1.44531 0,-0.42969 0.13672,-0.96875 0.41016,-1.62109 0.25781,-0.625 0.625,-1.09766 1.09375,-1.42578 1,-0.67578 2.25781,-1.01563 3.76953,-1.01563 z m 0,0"
       style="fill:#000000;fill-opacity:1;fill-rule:nonzero;stroke:none" />
    <path
       id="path300"
       d="m 292.72266,35.76169 c 0,-0.21875 -0.0859,-0.41015 -0.25391,-0.5664 -0.16797,-0.16797 -0.36328,-0.25391 -0.58594,-0.25391 -0.39062,0 -1.17968,0.39063 -2.36328,1.17188 -1.22656,0.79687 -1.97265,1.36328 -2.24609,1.69922 -0.14453,0.18359 -0.21485,0.37109 -0.21485,0.5664 0,0.22266 0.082,0.41016 0.25391,0.56641 0.15625,0.17187 0.35156,0.2539 0.58594,0.2539 0.375,0 1.17187,-0.39062 2.38281,-1.17187 1.19922,-0.78125 1.94141,-1.34766 2.22656,-1.69922 0.14453,-0.16797 0.21485,-0.35547 0.21485,-0.56641 z m -1.03516,-1.44531 c 1.12109,0 1.67969,0.48047 1.67969,1.44531 0,0.46875 -0.13672,1.01563 -0.41016,1.64063 -0.27344,0.61328 -0.63672,1.08203 -1.09375,1.40625 -1.0039,0.67969 -2.25781,1.01562 -3.76953,1.01562 -1.12109,0 -1.67969,-0.48046 -1.67969,-1.44531 0,-0.42969 0.13672,-0.96875 0.41016,-1.62109 0.25781,-0.625 0.625,-1.09766 1.09375,-1.42578 1.00391,-0.67578 2.25781,-1.01563 3.76953,-1.01563 z m 0,0"
       style="fill:#000000;fill-opacity:1;fill-rule:nonzero;stroke:none" />
    <path
       id="path308"
       d="m 14.292969,21.9531 c 0,0 0.03906,0 0.117187,0 0.05078,-0.0117 0.09766,-0.0195 0.136719,-0.0195 1.457031,0 2.65625,0.51562 3.59375,1.54297 0.9375,1.01562 1.40625,2.19922 1.40625,3.55469 0,1.67968 -0.695312,3.04687 -2.089843,4.10156 -0.363282,0.28515 -0.839844,0.51953 -1.425782,0.70312 0.06641,0.84766 0.09766,1.53125 0.09766,2.05078 0,0.10547 -0.01172,0.48047 -0.03906,1.13282 -0.05078,1.21093 -0.46875,2.26172 -1.25,3.14453 -0.753906,0.875 -1.691406,1.30859 -2.8125,1.30859 -1.054688,0 -1.953125,-0.37109 -2.6953119,-1.11328 -0.742188,-0.75391 -1.113282,-1.66406 -1.113282,-2.73437 0,-0.5586 0.214844,-1.03516 0.644532,-1.42579 0.441406,-0.39062 0.957031,-0.58593 1.5429679,-0.58593 0.519532,0 0.957032,0.20312 1.308594,0.60547 0.363281,0.3789 0.546875,0.84765 0.546875,1.40625 0,0.50781 -0.183594,0.94531 -0.546875,1.30859 -0.363281,0.36719 -0.800781,0.54687 -1.308594,0.54687 -0.207031,0 -0.4101559,-0.0391 -0.6054679,-0.11718 0.5742179,0.84765 1.3359369,1.26953 2.2851559,1.26953 0.898437,0 1.632812,-0.36328 2.207031,-1.09375 0.597656,-0.75391 0.925781,-1.63281 0.976563,-2.63672 0.02734,-0.625 0.03906,-0.98438 0.03906,-1.07422 0,-0.73047 -0.02734,-1.32812 -0.07813,-1.79687 -0.652344,0.10546 -1.230469,0.15625 -1.738281,0.15625 -1.808594,0 -3.351563,-0.71485 -4.6289059,-2.14844 -1.25,-1.44531 -1.875,-3.16406 -1.875,-5.15625 0,-0.41797 0.039062,-0.83985 0.117187,-1.26953 0.078125,-0.35157 0.175781,-0.73438 0.292969,-1.15235 0.066406,-0.23437 0.242187,-0.61328 0.527344,-1.13281 0.105468,-0.15625 0.222656,-0.35156 0.351562,-0.58594 0.128906,-0.23437 0.222656,-0.39062 0.273438,-0.46875 0.128906,-0.26172 0.382812,-0.61328 0.761718,-1.05468 0.105469,-0.11719 0.210938,-0.2461 0.320313,-0.39063 0.113281,-0.14453 0.207031,-0.26172 0.285156,-0.35156 0.078125,-0.0898 0.1367189,-0.16406 0.1757809,-0.21485 0.03906,-0.0508 0.332032,-0.39843 0.878906,-1.03515 0.128907,-0.12891 0.257813,-0.26953 0.382813,-0.42188 0.121094,-0.14843 0.222656,-0.26562 0.300781,-0.35156 0.07813,-0.082 0.136719,-0.14453 0.175782,-0.18359 -0.46875,-1.55078 -0.761719,-2.78907 -0.878907,-3.71094 -0.08984,-0.74219 -0.136719,-1.75781 -0.136719,-3.0468799 0,-1.13281 0.261719,-2.19531 0.78125,-3.18359 0.507813,-1.03125 1.21875,-1.87109 2.128907,-2.51953 0.06641,-0.0391 0.128906,-0.0586 0.195312,-0.0586 0.08984,0 0.15625,0.0195 0.195313,0.0586 0.703125,0.84375 1.308594,1.94531 1.816406,3.30078 0.519531,1.35156 0.78125,2.58203 0.78125,3.6914099 0,1.25 -0.300781,2.42187 -0.898438,3.51562 -0.675781,1.16016 -1.550781,2.35547 -2.617187,3.59375 0.273437,0.85938 0.636719,2.20703 1.09375,4.04297 z m 1.660156,9.08203 c 0.675781,-0.24609 1.203125,-0.67187 1.582031,-1.26953 0.417969,-0.57422 0.625,-1.21875 0.625,-1.93359 0,-0.92578 -0.3125,-1.7461 -0.9375,-2.46094 -0.636718,-0.74219 -1.453124,-1.16016 -2.441406,-1.25 0.558594,2.74609 0.949219,5.05078 1.171875,6.91406 z M 8.3945321,26.52341 c 0,1.28907 0.519531,2.42188 1.5625,3.39844 1.0664059,0.94922 2.2656239,1.42578 3.5937499,1.42578 0.546874,0 1.082031,-0.0391 1.601562,-0.11719 -0.207031,-1.98046 -0.617188,-4.34765 -1.230469,-7.10937 -0.742187,0.0781 -1.335937,0.33984 -1.777343,0.78125 C 11.714844,25.35935 11.5,25.87107 11.5,26.44529 c 0,0.98828 0.527344,1.78906 1.582032,2.40234 0.08984,0.0898 0.136718,0.1875 0.136718,0.29297 0,0.10547 -0.04687,0.20313 -0.136718,0.29297 -0.07813,0.0898 -0.175782,0.13672 -0.292969,0.13672 -0.01172,0 -0.07031,-0.0117 -0.175781,-0.0391 -0.742188,-0.40235 -1.316407,-0.92579 -1.71875,-1.5625 -0.378907,-0.67579 -0.566407,-1.35938 -0.566407,-2.05079 0,-0.89843 0.28125,-1.71093 0.839844,-2.4414 0.585937,-0.73047 1.347656,-1.19922 2.285156,-1.40625 -0.363281,-1.45703 -0.664062,-2.59766 -0.898437,-3.41797 -0.207032,0.23437 -0.457032,0.51562 -0.75,0.84766 -0.292969,0.33203 -0.46875,0.53125 -0.519532,0.59765 -0.46875,0.61328 -0.828124,1.08594 -1.074218,1.42578 -0.4414059,0.61328 -0.7695319,1.14063 -0.9765629,1.58203 -0.222656,0.4961 -0.417969,1.03516 -0.585937,1.6211 -0.167969,0.55859 -0.253906,1.16015 -0.253906,1.79687 z M 14.917969,6.6601301 c -0.976563,0.48047 -1.746094,1.17188 -2.304687,2.07031 -0.574219,0.92188 -0.859376,1.9179699 -0.859376,2.9882899 0,0.9375 0.234376,2.19921 0.703126,3.78906 0.9375,-1.13281 1.640624,-2.1836 2.109374,-3.14453 0.496094,-1.01563 0.742188,-2.07813 0.742188,-3.1835999 0,-0.83593 -0.128906,-1.67578 -0.390625,-2.51953 z m 0,0"
       style="fill:#000000;fill-opacity:1;fill-rule:nonzero;stroke:none" />
    <path
       id="path316"
       d="m 29.082032,12.32419 c 0.390624,0 0.722656,-0.0469 0.996093,-0.13671 0.273438,-0.0937 0.449219,-0.13672 0.527344,-0.13672 0.08984,0 0.160156,0.0234 0.214844,0.0781 0.03906,0.0391 0.0625,0.082 0.07813,0.13672 0,0.0234 -0.01563,0.0625 -0.03906,0.11719 l -5.6875,6.60156 h 3.339844 v -2.61719 c 0,-0.16797 0.04687,-0.3125 0.136719,-0.42968 0.15625,-0.12891 0.289062,-0.20704 0.394531,-0.23438 0.167969,-0.0781 0.375,-0.26172 0.625,-0.54687 0.207031,-0.23438 0.453125,-0.64454 0.742187,-1.23047 0.03906,-0.0781 0.09766,-0.11719 0.175782,-0.11719 0.15625,0 0.246094,0.0898 0.273437,0.27344 v 4.90234 h 1.425781 c 0.179688,0 0.285157,0.0977 0.3125,0.29297 0,0.19531 -0.105468,0.29297 -0.3125,0.29297 h -1.425781 v 0.15625 c 0,0.51953 0.128907,0.96484 0.390625,1.32812 0.296875,0.36328 0.648438,0.54688 1.054688,0.54688 0.15625,0 0.234375,0.0781 0.234375,0.23437 0,0.15625 -0.07813,0.23438 -0.234375,0.23438 -0.273438,0 -0.71875,-0.0391 -1.328125,-0.11719 -0.5625,-0.0898 -0.996094,-0.13672 -1.308594,-0.13672 -0.328125,0 -0.765625,0.0469 -1.3125,0.13672 -0.585937,0.0781 -1.019531,0.11719 -1.308594,0.11719 -0.15625,0 -0.234375,-0.0781 -0.234375,-0.23438 0,-0.15625 0.07813,-0.23437 0.234375,-0.23437 0.40625,0 0.757813,-0.1836 1.054688,-0.54688 0.273437,-0.36328 0.410156,-0.80859 0.410156,-1.32812 v -0.15625 h -3.339844 c -0.21875,0 -0.375,-0.0508 -0.46875,-0.15625 -0.101562,-0.0781 -0.15625,-0.1836 -0.15625,-0.3125 0,-0.0391 0.09766,-0.17578 0.292969,-0.41016 0.222656,-0.26172 0.457031,-0.57812 0.703125,-0.95703 0.289063,-0.44141 0.5625,-0.89844 0.820313,-1.36719 0.289062,-0.53515 0.515624,-1.14453 0.683593,-1.83593 0.195313,-0.70313 0.292969,-1.42188 0.292969,-2.14844 0,-0.21094 0.09375,-0.3125 0.273438,-0.3125 0.03906,0 0.125,0.0195 0.253906,0.0586 0.03906,0.0117 0.121094,0.0312 0.246094,0.0586 0.125,0.0234 0.222656,0.0508 0.300781,0.0781 0.234375,0.0391 0.457031,0.0586 0.667969,0.0586 z m 0,0"
       style="fill:#000000;fill-opacity:1;fill-rule:nonzero;stroke:none" />
    <path
       id="path318"
       d="m 29.082032,22.32419 c 0.390624,0 0.722656,-0.0469 0.996093,-0.13671 0.273438,-0.0898 0.449219,-0.13672 0.527344,-0.13672 0.08984,0 0.160156,0.0273 0.214844,0.0781 0.03906,0.0391 0.0625,0.0859 0.07813,0.13672 0,0.0273 -0.01563,0.0664 -0.03906,0.11719 l -5.6875,6.60156 h 3.339844 v -2.61719 c 0,-0.16797 0.04687,-0.3125 0.136719,-0.42968 0.15625,-0.12891 0.289062,-0.20704 0.394531,-0.23438 0.167969,-0.0781 0.375,-0.26172 0.625,-0.54687 0.207031,-0.23438 0.453125,-0.64454 0.742187,-1.23047 0.03906,-0.0781 0.09766,-0.11719 0.175782,-0.11719 0.15625,0 0.246094,0.0898 0.273437,0.27344 v 4.90234 h 1.425781 c 0.179688,0 0.285157,0.0977 0.3125,0.29297 0,0.19531 -0.105468,0.29297 -0.3125,0.29297 h -1.425781 v 0.15625 c 0,0.51953 0.128907,0.96484 0.390625,1.32812 0.296875,0.36328 0.648438,0.54688 1.054688,0.54688 0.15625,0 0.234375,0.0781 0.234375,0.23437 0,0.15625 -0.07813,0.23438 -0.234375,0.23438 -0.273438,0 -0.71875,-0.0391 -1.328125,-0.11719 -0.5625,-0.0898 -0.996094,-0.13672 -1.308594,-0.13672 -0.328125,0 -0.765625,0.0469 -1.3125,0.13672 -0.585937,0.0781 -1.019531,0.11719 -1.308594,0.11719 -0.15625,0 -0.234375,-0.0781 -0.234375,-0.23438 0,-0.15625 0.07813,-0.23437 0.234375,-0.23437 0.40625,0 0.757813,-0.1836 1.054688,-0.54688 0.273437,-0.36328 0.410156,-0.80859 0.410156,-1.32812 v -0.15625 h -3.339844 c -0.21875,0 -0.375,-0.0508 -0.46875,-0.15625 -0.101562,-0.0781 -0.15625,-0.1836 -0.15625,-0.3125 0,-0.0391 0.09766,-0.17578 0.292969,-0.41016 0.222656,-0.26172 0.457031,-0.57812 0.703125,-0.95703 0.289063,-0.44141 0.5625,-0.89844 0.820313,-1.36719 0.289062,-0.53515 0.515624,-1.14453 0.683593,-1.83593 0.195313,-0.70313 0.292969,-1.41797 0.292969,-2.14844 0,-0.20703 0.09375,-0.3125 0.273438,-0.3125 0.03906,0 0.125,0.0195 0.253906,0.0586 0.03906,0.0117 0.121094,0.0312 0.246094,0.0586 0.125,0.0273 0.222656,0.0508 0.300781,0.0781 0.234375,0.0391 0.457031,0.0586 0.667969,0.0586 z m 0,0"
       style="fill:#000000;fill-opacity:1;fill-rule:nonzero;stroke:none" />
  </g>
</svg>
