<?xml version="1.0" encoding="UTF-8" standalone="no"?>
<svg
   xmlns:dc="http://purl.org/dc/elements/1.1/"
   xmlns:cc="http://creativecommons.org/ns#"
   xmlns:rdf="http://www.w3.org/1999/02/22-rdf-syntax-ns#"
   xmlns:svg="http://www.w3.org/2000/svg"
   xmlns="http://www.w3.org/2000/svg"
   xmlns:sodipodi="http://sodipodi.sourceforge.net/DTD/sodipodi-0.dtd"
   xmlns:inkscape="http://www.inkscape.org/namespaces/inkscape"
   inkscape:version="1.0 (4035a4f, 2020-05-01)"
   sodipodi:docname="logo.svg"
   id="svg33"
   version="1.2"
   viewBox="0 0 55 30"
   height="30pt"
   width="55pt">
  <metadata
     id="metadata39">
    <rdf:RDF>
      <cc:Work
         rdf:about="">
        <dc:format>image/svg+xml</dc:format>
        <dc:type
           rdf:resource="http://purl.org/dc/dcmitype/StillImage" />
        <dc:title></dc:title>
      </cc:Work>
    </rdf:RDF>
  </metadata>
  <defs
     id="defs37" />
  <sodipodi:namedview
     inkscape:current-layer="svg33"
     inkscape:window-maximized="1"
     inkscape:window-y="23"
     inkscape:window-x="0"
     inkscape:cy="20"
     inkscape:cx="36.666667"
     inkscape:zoom="16.175"
     showgrid="false"
     id="namedview35"
     inkscape:window-height="855"
     inkscape:window-width="1440"
     inkscape:pageshadow="2"
     inkscape:pageopacity="0"
     guidetolerance="10"
     gridtolerance="10"
     objecttolerance="10"
     borderopacity="1"
     bordercolor="#666666"
     pagecolor="#ffffff" />
  <g
     id="surface3523">
    <path
       id="path10"
       d="M 3.75 5.339844 L 49.1875 5.339844 M 3.75 10.339844 L 49.1875 10.339844 M 3.75 15.339844 L 49.1875 15.339844 M 3.75 20.339844 L 49.1875 20.339844 M 3.75 25.339844 L 49.1875 25.339844 "
       style="fill:none;stroke-width:0.301649;stroke-linecap:butt;stroke-linejoin:bevel;stroke:rgb(0%,0%,0%);stroke-opacity:1;stroke-miterlimit:10;" />
    <path
       id="path12"
       d="M 33.449219 19.398438 L 33.449219 5.339844 "
       style="fill:none;stroke-width:0.65;stroke-linecap:round;stroke-linejoin:bevel;stroke:rgb(0%,0%,0%);stroke-opacity:1;stroke-miterlimit:10;" />
    <path
       id="path14"
       d="M 23.835938 24.398438 L 23.835938 10.339844 "
       style="fill:none;stroke-width:0.65;stroke-linecap:round;stroke-linejoin:bevel;stroke:rgb(0%,0%,0%);stroke-opacity:1;stroke-miterlimit:10;" />
    <path
       id="path16"
       d="M 14.222656 19.398438 L 14.222656 5.339844 "
       style="fill:none;stroke-width:0.65;stroke-linecap:round;stroke-linejoin:bevel;stroke:rgb(0%,0%,0%);stroke-opacity:1;stroke-miterlimit:10;" />
    <path
       id="path18"
       d="M 43.0625 24.398438 L 43.0625 10.339844 "
       style="fill:none;stroke-width:0.65;stroke-linecap:round;stroke-linejoin:bevel;stroke:rgb(0%,0%,0%);stroke-opacity:1;stroke-miterlimit:10;" />
    <path
       id="path20"
       d="M 31.585938 17.585938 C 32.210938 17.585938 32.738281 17.746094 33.167969 18.074219 C 33.570312 18.425781 33.773438 18.867188 33.773438 19.402344 C 33.773438 20.300781 33.308594 21.140625 32.386719 21.921875 C 31.449219 22.703125 30.445312 23.09375 29.378906 23.09375 C 28.753906 23.09375 28.226562 22.929688 27.796875 22.605469 C 27.390625 22.253906 27.191406 21.808594 27.191406 21.277344 C 27.191406 20.378906 27.660156 19.539062 28.597656 18.757812 C 29.507812 17.976562 30.503906 17.585938 31.585938 17.585938 Z M 31.585938 17.585938 "
       style=" stroke:none;fill-rule:nonzero;fill:rgb(0%,0%,0%);fill-opacity:1;" />
    <path
       id="path22"
       d="M 12.359375 17.585938 C 12.984375 17.585938 13.511719 17.746094 13.941406 18.074219 C 14.34375 18.425781 14.546875 18.867188 14.546875 19.402344 C 14.546875 20.300781 14.085938 21.140625 13.160156 21.921875 C 12.222656 22.703125 11.21875 23.09375 10.152344 23.09375 C 9.527344 23.09375 9 22.929688 8.570312 22.605469 C 8.167969 22.253906 7.964844 21.808594 7.964844 21.277344 C 7.964844 20.378906 8.433594 19.539062 9.371094 18.757812 C 10.28125 17.976562 11.277344 17.585938 12.359375 17.585938 Z M 12.359375 17.585938 "
       style=" stroke:none;fill-rule:nonzero;fill:rgb(0%,0%,0%);fill-opacity:1;" />
    <path
       id="path24"
       d="M 41.199219 22.585938 C 41.824219 22.585938 42.351562 22.746094 42.78125 23.074219 C 43.183594 23.425781 43.386719 23.867188 43.386719 24.402344 C 43.386719 25.300781 42.921875 26.140625 42 26.921875 C 41.0625 27.703125 40.058594 28.09375 38.992188 28.09375 C 38.367188 28.09375 37.839844 27.929688 37.410156 27.605469 C 37.003906 27.253906 36.804688 26.808594 36.804688 26.277344 C 36.804688 25.378906 37.273438 24.539062 38.210938 23.757812 C 39.121094 22.976562 40.117188 22.585938 41.199219 22.585938 Z M 41.199219 22.585938 "
       style=" stroke:none;fill-rule:nonzero;fill:rgb(0%,0%,0%);fill-opacity:1;" />
    <path
       id="path26"
       d="M 21.972656 22.585938 C 22.597656 22.585938 23.125 22.746094 23.554688 23.074219 C 23.957031 23.425781 24.160156 23.867188 24.160156 24.402344 C 24.160156 25.300781 23.699219 26.140625 22.773438 26.921875 C 21.835938 27.703125 20.832031 28.09375 19.765625 28.09375 C 19.140625 28.09375 18.613281 27.929688 18.183594 27.605469 C 17.78125 27.253906 17.578125 26.808594 17.578125 26.277344 C 17.578125 25.378906 18.046875 24.539062 18.984375 23.757812 C 19.894531 22.976562 20.890625 22.585938 21.972656 22.585938 Z M 21.972656 22.585938 "
       style=" stroke:none;fill-rule:nonzero;fill:rgb(0%,0%,0%);fill-opacity:1;" />
    <path
       id="path28"
       d="M 33.125 3.75 L 43.386719 9.089844 L 43.386719 11.589844 L 33.125 6.25 Z M 33.125 3.75 "
       style=" stroke:none;fill-rule:evenodd;fill:rgb(0%,0%,0%);fill-opacity:1;" />
    <path
       id="path30"
       d="M 13.898438 3.75 L 24.160156 9.089844 L 24.160156 11.589844 L 13.898438 6.25 Z M 13.898438 3.75 "
       style=" stroke:none;fill-rule:evenodd;fill:rgb(0%,0%,0%);fill-opacity:1;" />
  </g>
</svg>
