<?xml version="1.0" encoding="UTF-8" standalone="no"?>
<svg
   xmlns:dc="http://purl.org/dc/elements/1.1/"
   xmlns:cc="http://creativecommons.org/ns#"
   xmlns:rdf="http://www.w3.org/1999/02/22-rdf-syntax-ns#"
   xmlns:svg="http://www.w3.org/2000/svg"
   xmlns="http://www.w3.org/2000/svg"
   xmlns:sodipodi="http://sodipodi.sourceforge.net/DTD/sodipodi-0.dtd"
   xmlns:inkscape="http://www.inkscape.org/namespaces/inkscape"
   inkscape:version="1.0 (4035a4f, 2020-05-01)"
   sodipodi:docname="rhythms_ternary_4.svg"
   id="svg153"
   version="1.2"
   viewBox="0 0 400 50"
   height="50pt"
   width="400pt">
  <metadata
     id="metadata159">
    <rdf:RDF>
      <cc:Work
         rdf:about="">
        <dc:format>image/svg+xml</dc:format>
        <dc:type
           rdf:resource="http://purl.org/dc/dcmitype/StillImage" />
        <dc:title></dc:title>
      </cc:Work>
    </rdf:RDF>
  </metadata>
  <defs
     id="defs157" />
  <sodipodi:namedview
     inkscape:current-layer="svg153"
     inkscape:window-maximized="0"
     inkscape:window-y="23"
     inkscape:window-x="0"
     inkscape:cy="33.333333"
     inkscape:cx="266.66667"
     inkscape:zoom="2.398125"
     showgrid="false"
     id="namedview155"
     inkscape:window-height="480"
     inkscape:window-width="745"
     inkscape:pageshadow="2"
     inkscape:pageopacity="0"
     guidetolerance="10"
     gridtolerance="10"
     objecttolerance="10"
     borderopacity="1"
     bordercolor="#666666"
     pagecolor="#ffffff" />
  <g
     id="surface4592">
    <path
       id="path10"
       d="M 3.75 12.070312 L 96.054688 12.070312 M 3.75 17.070312 L 96.054688 17.070312 M 3.75 22.070312 L 96.054688 22.070312 M 3.75 27.070312 L 96.054688 27.070312 M 3.75 32.070312 L 96.054688 32.070312 "
       style="fill:none;stroke-width:0.4;stroke-linecap:butt;stroke-linejoin:bevel;stroke:rgb(0%,0%,0%);stroke-opacity:1;stroke-miterlimit:10;" />
    <path
       id="path12"
       d="M 96.054688 12.070312 L 153.6875 12.070312 M 96.054688 17.070312 L 153.6875 17.070312 M 96.054688 22.070312 L 153.6875 22.070312 M 96.054688 27.070312 L 153.6875 27.070312 M 96.054688 32.070312 L 153.6875 32.070312 "
       style="fill:none;stroke-width:0.4;stroke-linecap:butt;stroke-linejoin:bevel;stroke:rgb(0%,0%,0%);stroke-opacity:1;stroke-miterlimit:10;" />
    <path
       id="path14"
       d="M 153.6875 12.070312 L 212.472656 12.070312 M 153.6875 17.070312 L 212.472656 17.070312 M 153.6875 22.070312 L 212.472656 22.070312 M 153.6875 27.070312 L 212.472656 27.070312 M 153.6875 32.070312 L 212.472656 32.070312 "
       style="fill:none;stroke-width:0.4;stroke-linecap:butt;stroke-linejoin:bevel;stroke:rgb(0%,0%,0%);stroke-opacity:1;stroke-miterlimit:10;" />
    <path
       id="path16"
       d="M 212.472656 12.070312 L 277.9375 12.070312 M 212.472656 17.070312 L 277.9375 17.070312 M 212.472656 22.070312 L 277.9375 22.070312 M 212.472656 27.070312 L 277.9375 27.070312 M 212.472656 32.070312 L 277.9375 32.070312 "
       style="fill:none;stroke-width:0.4;stroke-linecap:butt;stroke-linejoin:bevel;stroke:rgb(0%,0%,0%);stroke-opacity:1;stroke-miterlimit:10;" />
    <path
       id="path18"
       d="M 277.9375 12.070312 L 335.574219 12.070312 M 277.9375 17.070312 L 335.574219 17.070312 M 277.9375 22.070312 L 335.574219 22.070312 M 277.9375 27.070312 L 335.574219 27.070312 M 277.9375 32.070312 L 335.574219 32.070312 "
       style="fill:none;stroke-width:0.4;stroke-linecap:butt;stroke-linejoin:bevel;stroke:rgb(0%,0%,0%);stroke-opacity:1;stroke-miterlimit:10;" />
    <path
       id="path20"
       d="M 335.574219 12.070312 L 396.234375 12.070312 M 335.574219 17.070312 L 396.234375 17.070312 M 335.574219 22.070312 L 396.234375 22.070312 M 335.574219 27.070312 L 396.234375 27.070312 M 335.574219 32.070312 L 396.234375 32.070312 "
       style="fill:none;stroke-width:0.4;stroke-linecap:butt;stroke-linejoin:bevel;stroke:rgb(0%,0%,0%);stroke-opacity:1;stroke-miterlimit:10;" />
    <path
       id="path22"
       d="M 95.652344 12.070312 L 95.652344 32.070312 "
       style="fill:none;stroke-width:0.800001;stroke-linecap:butt;stroke-linejoin:bevel;stroke:rgb(0%,0%,0%);stroke-opacity:1;stroke-miterlimit:10;" />
    <path
       id="path24"
       d="M 153.289062 12.070312 L 153.289062 32.070312 "
       style="fill:none;stroke-width:0.800001;stroke-linecap:butt;stroke-linejoin:bevel;stroke:rgb(0%,0%,0%);stroke-opacity:1;stroke-miterlimit:10;" />
    <path
       id="path26"
       d="M 212.070312 12.070312 L 212.070312 32.070312 "
       style="fill:none;stroke-width:0.800001;stroke-linecap:butt;stroke-linejoin:bevel;stroke:rgb(0%,0%,0%);stroke-opacity:1;stroke-miterlimit:10;" />
    <path
       id="path28"
       d="M 277.539062 12.070312 L 277.539062 32.070312 "
       style="fill:none;stroke-width:0.800001;stroke-linecap:butt;stroke-linejoin:bevel;stroke:rgb(0%,0%,0%);stroke-opacity:1;stroke-miterlimit:10;" />
    <path
       id="path30"
       d="M 335.171875 12.070312 L 335.171875 32.070312 "
       style="fill:none;stroke-width:0.800001;stroke-linecap:butt;stroke-linejoin:bevel;stroke:rgb(0%,0%,0%);stroke-opacity:1;stroke-miterlimit:10;" />
    <path
       id="path32"
       d="M 395.835938 12.070312 L 395.835938 32.070312 "
       style="fill:none;stroke-width:0.800001;stroke-linecap:butt;stroke-linejoin:bevel;stroke:rgb(0%,0%,0%);stroke-opacity:1;stroke-miterlimit:10;" />
    <path
       id="path34"
       d="M 47.042969 23.628906 L 47.042969 10.820312 "
       style="fill:none;stroke-width:0.65;stroke-linecap:round;stroke-linejoin:bevel;stroke:rgb(0%,0%,0%);stroke-opacity:1;stroke-miterlimit:10;" />
    <path
       id="path36"
       d="M 66.320312 23.628906 L 66.320312 8.320312 "
       style="fill:none;stroke-width:0.65;stroke-linecap:round;stroke-linejoin:bevel;stroke:rgb(0%,0%,0%);stroke-opacity:1;stroke-miterlimit:10;" />
    <path
       id="path38"
       d="M 56.683594 23.628906 L 56.683594 10.820312 "
       style="fill:none;stroke-width:0.65;stroke-linecap:round;stroke-linejoin:bevel;stroke:rgb(0%,0%,0%);stroke-opacity:1;stroke-miterlimit:10;" />
    <path
       id="path40"
       d="M 85.125 23.628906 L 85.125 8.320312 "
       style="fill:none;stroke-width:0.65;stroke-linecap:round;stroke-linejoin:bevel;stroke:rgb(0%,0%,0%);stroke-opacity:1;stroke-miterlimit:10;" />
    <path
       id="path42"
       d="M 108.3125 23.628906 L 108.3125 8.320312 "
       style="fill:none;stroke-width:0.65;stroke-linecap:round;stroke-linejoin:bevel;stroke:rgb(0%,0%,0%);stroke-opacity:1;stroke-miterlimit:10;" />
    <path
       id="path44"
       d="M 138.160156 23.628906 L 138.160156 8.320312 "
       style="fill:none;stroke-width:0.65;stroke-linecap:round;stroke-linejoin:bevel;stroke:rgb(0%,0%,0%);stroke-opacity:1;stroke-miterlimit:10;" />
    <path
       id="path46"
       d="M 125.523438 23.628906 L 125.523438 8.320312 "
       style="fill:none;stroke-width:0.65;stroke-linecap:round;stroke-linejoin:bevel;stroke:rgb(0%,0%,0%);stroke-opacity:1;stroke-miterlimit:10;" />
    <path
       id="path48"
       d="M 178.945312 23.800781 L 178.945312 8.320312 "
       style="fill:none;stroke-width:0.65;stroke-linecap:round;stroke-linejoin:bevel;stroke:rgb(0%,0%,0%);stroke-opacity:1;stroke-miterlimit:10;" />
    <path
       id="path50"
       d="M 165.945312 23.628906 L 165.945312 8.320312 "
       style="fill:none;stroke-width:0.65;stroke-linecap:round;stroke-linejoin:bevel;stroke:rgb(0%,0%,0%);stroke-opacity:1;stroke-miterlimit:10;" />
    <path
       id="path52"
       d="M 201.542969 23.628906 L 201.542969 8.320312 "
       style="fill:none;stroke-width:0.65;stroke-linecap:round;stroke-linejoin:bevel;stroke:rgb(0%,0%,0%);stroke-opacity:1;stroke-miterlimit:10;" />
    <path
       id="path54"
       d="M 224.730469 23.628906 L 224.730469 8.320312 "
       style="fill:none;stroke-width:0.65;stroke-linecap:round;stroke-linejoin:bevel;stroke:rgb(0%,0%,0%);stroke-opacity:1;stroke-miterlimit:10;" />
    <path
       id="path56"
       d="M 237.367188 23.628906 L 237.367188 8.320312 "
       style="fill:none;stroke-width:0.65;stroke-linecap:round;stroke-linejoin:bevel;stroke:rgb(0%,0%,0%);stroke-opacity:1;stroke-miterlimit:10;" />
    <path
       id="path58"
       d="M 271.746094 23.628906 L 271.746094 10.820312 "
       style="fill:none;stroke-width:0.65;stroke-linecap:round;stroke-linejoin:bevel;stroke:rgb(0%,0%,0%);stroke-opacity:1;stroke-miterlimit:10;" />
    <path
       id="path60"
       d="M 260.097656 23.628906 L 260.097656 10.820312 "
       style="fill:none;stroke-width:0.65;stroke-linecap:round;stroke-linejoin:bevel;stroke:rgb(0%,0%,0%);stroke-opacity:1;stroke-miterlimit:10;" />
    <path
       id="path62"
       d="M 290.195312 23.628906 L 290.195312 8.320312 "
       style="fill:none;stroke-width:0.65;stroke-linecap:round;stroke-linejoin:bevel;stroke:rgb(0%,0%,0%);stroke-opacity:1;stroke-miterlimit:10;" />
    <path
       id="path64"
       d="M 302.832031 23.628906 L 302.832031 8.320312 "
       style="fill:none;stroke-width:0.65;stroke-linecap:round;stroke-linejoin:bevel;stroke:rgb(0%,0%,0%);stroke-opacity:1;stroke-miterlimit:10;" />
    <path
       id="path66"
       d="M 323.820312 23.628906 L 323.820312 8.320312 "
       style="fill:none;stroke-width:0.65;stroke-linecap:round;stroke-linejoin:bevel;stroke:rgb(0%,0%,0%);stroke-opacity:1;stroke-miterlimit:10;" />
    <path
       id="path68"
       d="M 347.832031 23.628906 L 347.832031 10.820312 "
       style="fill:none;stroke-width:0.65;stroke-linecap:round;stroke-linejoin:bevel;stroke:rgb(0%,0%,0%);stroke-opacity:1;stroke-miterlimit:10;" />
    <path
       id="path70"
       d="M 358.710938 23.628906 L 358.710938 10.820312 "
       style="fill:none;stroke-width:0.65;stroke-linecap:round;stroke-linejoin:bevel;stroke:rgb(0%,0%,0%);stroke-opacity:1;stroke-miterlimit:10;" />
    <path
       id="path72"
       d="M 380.46875 23.628906 L 380.46875 8.320312 "
       style="fill:none;stroke-width:0.65;stroke-linecap:round;stroke-linejoin:bevel;stroke:rgb(0%,0%,0%);stroke-opacity:1;stroke-miterlimit:10;" />
    <path
       id="path74"
       d="M 369.589844 23.628906 L 369.589844 10.820312 "
       style="fill:none;stroke-width:0.65;stroke-linecap:round;stroke-linejoin:bevel;stroke:rgb(0%,0%,0%);stroke-opacity:1;stroke-miterlimit:10;" />
    <path
       id="path76"
       d="M 45.179688 21.816406 C 45.804688 21.816406 46.332031 21.976562 46.761719 22.304688 C 47.167969 22.65625 47.367188 23.097656 47.367188 23.632812 C 47.367188 24.53125 46.90625 25.371094 45.980469 26.152344 C 45.042969 26.933594 44.042969 27.324219 42.972656 27.324219 C 42.347656 27.324219 41.820312 27.160156 41.390625 26.835938 C 40.988281 26.484375 40.785156 26.039062 40.785156 25.507812 C 40.785156 24.609375 41.253906 23.769531 42.191406 22.988281 C 43.105469 22.207031 44.101562 21.816406 45.179688 21.816406 Z M 45.179688 21.816406 "
       style=" stroke:none;fill-rule:nonzero;fill:rgb(0%,0%,0%);fill-opacity:1;" />
    <path
       id="path78"
       d="M 64.457031 21.816406 C 65.082031 21.816406 65.609375 21.976562 66.039062 22.304688 C 66.441406 22.65625 66.644531 23.097656 66.644531 23.632812 C 66.644531 24.53125 66.183594 25.371094 65.257812 26.152344 C 64.320312 26.933594 63.316406 27.324219 62.25 27.324219 C 61.625 27.324219 61.097656 27.160156 60.667969 26.835938 C 60.265625 26.484375 60.0625 26.039062 60.0625 25.507812 C 60.0625 24.609375 60.53125 23.769531 61.46875 22.988281 C 62.378906 22.207031 63.375 21.816406 64.457031 21.816406 Z M 64.457031 21.816406 "
       style=" stroke:none;fill-rule:nonzero;fill:rgb(0%,0%,0%);fill-opacity:1;" />
    <path
       id="path80"
       d="M 54.820312 21.816406 C 55.445312 21.816406 55.972656 21.976562 56.402344 22.304688 C 56.804688 22.65625 57.007812 23.097656 57.007812 23.632812 C 57.007812 24.53125 56.542969 25.371094 55.621094 26.152344 C 54.683594 26.933594 53.679688 27.324219 52.613281 27.324219 C 51.988281 27.324219 51.460938 27.160156 51.03125 26.835938 C 50.625 26.484375 50.425781 26.039062 50.425781 25.507812 C 50.425781 24.609375 50.894531 23.769531 51.832031 22.988281 C 52.742188 22.207031 53.738281 21.816406 54.820312 21.816406 Z M 54.820312 21.816406 "
       style=" stroke:none;fill-rule:nonzero;fill:rgb(0%,0%,0%);fill-opacity:1;" />
    <path
       id="path82"
       d="M 83.261719 21.816406 C 83.886719 21.816406 84.414062 21.976562 84.84375 22.304688 C 85.246094 22.65625 85.449219 23.097656 85.449219 23.632812 C 85.449219 24.53125 84.984375 25.371094 84.0625 26.152344 C 83.125 26.933594 82.121094 27.324219 81.054688 27.324219 C 80.429688 27.324219 79.902344 27.160156 79.472656 26.835938 C 79.066406 26.484375 78.867188 26.039062 78.867188 25.507812 C 78.867188 24.609375 79.335938 23.769531 80.273438 22.988281 C 81.183594 22.207031 82.179688 21.816406 83.261719 21.816406 Z M 83.261719 21.816406 "
       style=" stroke:none;fill-rule:nonzero;fill:rgb(0%,0%,0%);fill-opacity:1;" />
    <path
       id="path84"
       d="M 106.449219 21.816406 C 107.074219 21.816406 107.601562 21.976562 108.03125 22.304688 C 108.433594 22.65625 108.636719 23.097656 108.636719 23.632812 C 108.636719 24.53125 108.171875 25.371094 107.25 26.152344 C 106.3125 26.933594 105.308594 27.324219 104.242188 27.324219 C 103.617188 27.324219 103.089844 27.160156 102.660156 26.835938 C 102.253906 26.484375 102.054688 26.039062 102.054688 25.507812 C 102.054688 24.609375 102.523438 23.769531 103.460938 22.988281 C 104.371094 22.207031 105.367188 21.816406 106.449219 21.816406 Z M 106.449219 21.816406 "
       style=" stroke:none;fill-rule:nonzero;fill:rgb(0%,0%,0%);fill-opacity:1;" />
    <path
       id="path86"
       d="M 123.660156 21.816406 C 124.285156 21.816406 124.8125 21.976562 125.242188 22.304688 C 125.644531 22.65625 125.847656 23.097656 125.847656 23.632812 C 125.847656 24.53125 125.382812 25.371094 124.460938 26.152344 C 123.523438 26.933594 122.519531 27.324219 121.453125 27.324219 C 120.828125 27.324219 120.300781 27.160156 119.871094 26.835938 C 119.464844 26.484375 119.265625 26.039062 119.265625 25.507812 C 119.265625 24.609375 119.734375 23.769531 120.671875 22.988281 C 121.582031 22.207031 122.578125 21.816406 123.660156 21.816406 Z M 123.660156 21.816406 "
       style=" stroke:none;fill-rule:nonzero;fill:rgb(0%,0%,0%);fill-opacity:1;" />
    <path
       id="path88"
       d="M 136.296875 21.816406 C 136.921875 21.816406 137.449219 21.976562 137.878906 22.304688 C 138.28125 22.65625 138.484375 23.097656 138.484375 23.632812 C 138.484375 24.53125 138.019531 25.371094 137.097656 26.152344 C 136.160156 26.933594 135.15625 27.324219 134.089844 27.324219 C 133.464844 27.324219 132.9375 27.160156 132.507812 26.835938 C 132.101562 26.484375 131.902344 26.039062 131.902344 25.507812 C 131.902344 24.609375 132.371094 23.769531 133.308594 22.988281 C 134.21875 22.207031 135.214844 21.816406 136.296875 21.816406 Z M 136.296875 21.816406 "
       style=" stroke:none;fill-rule:nonzero;fill:rgb(0%,0%,0%);fill-opacity:1;" />
    <path
       id="path90"
       d="M 164.082031 21.816406 C 164.707031 21.816406 165.234375 21.976562 165.664062 22.304688 C 166.066406 22.65625 166.269531 23.097656 166.269531 23.632812 C 166.269531 24.53125 165.808594 25.371094 164.882812 26.152344 C 163.945312 26.933594 162.941406 27.324219 161.875 27.324219 C 161.25 27.324219 160.722656 27.160156 160.292969 26.835938 C 159.890625 26.484375 159.6875 26.039062 159.6875 25.507812 C 159.6875 24.609375 160.15625 23.769531 161.09375 22.988281 C 162.003906 22.207031 163 21.816406 164.082031 21.816406 Z M 164.082031 21.816406 "
       style=" stroke:none;fill-rule:nonzero;fill:rgb(0%,0%,0%);fill-opacity:1;" />
    <path
       id="path92"
       d="M 178.632812 23.261719 C 178.632812 23.039062 178.546875 22.851562 178.378906 22.695312 C 178.210938 22.523438 178.015625 22.441406 177.792969 22.441406 C 177.402344 22.441406 176.613281 22.832031 175.429688 23.613281 C 174.207031 24.40625 173.457031 24.972656 173.183594 25.3125 C 173.039062 25.492188 172.96875 25.683594 172.96875 25.878906 C 172.96875 26.097656 173.054688 26.289062 173.222656 26.445312 C 173.378906 26.613281 173.574219 26.699219 173.808594 26.699219 C 174.1875 26.699219 174.980469 26.308594 176.191406 25.527344 C 177.390625 24.746094 178.132812 24.179688 178.417969 23.828125 C 178.5625 23.65625 178.632812 23.46875 178.632812 23.261719 Z M 177.597656 21.816406 C 178.71875 21.816406 179.277344 22.296875 179.277344 23.261719 C 179.277344 23.730469 179.140625 24.277344 178.867188 24.902344 C 178.59375 25.511719 178.230469 25.980469 177.773438 26.308594 C 176.769531 26.984375 175.515625 27.324219 174.003906 27.324219 C 172.882812 27.324219 172.324219 26.839844 172.324219 25.878906 C 172.324219 25.449219 172.460938 24.90625 172.734375 24.257812 C 172.996094 23.632812 173.359375 23.15625 173.828125 22.832031 C 174.832031 22.152344 176.085938 21.816406 177.597656 21.816406 Z M 177.597656 21.816406 "
       style=" stroke:none;fill-rule:nonzero;fill:rgb(0%,0%,0%);fill-opacity:1;" />
    <path
       id="path94"
       d="M 199.679688 21.816406 C 200.304688 21.816406 200.832031 21.976562 201.261719 22.304688 C 201.664062 22.65625 201.867188 23.097656 201.867188 23.632812 C 201.867188 24.53125 201.402344 25.371094 200.480469 26.152344 C 199.542969 26.933594 198.539062 27.324219 197.472656 27.324219 C 196.847656 27.324219 196.320312 27.160156 195.890625 26.835938 C 195.484375 26.484375 195.285156 26.039062 195.285156 25.507812 C 195.285156 24.609375 195.753906 23.769531 196.691406 22.988281 C 197.601562 22.207031 198.597656 21.816406 199.679688 21.816406 Z M 199.679688 21.816406 "
       style=" stroke:none;fill-rule:nonzero;fill:rgb(0%,0%,0%);fill-opacity:1;" />
    <path
       id="path96"
       d="M 235.503906 21.816406 C 236.128906 21.816406 236.65625 21.976562 237.085938 22.304688 C 237.488281 22.65625 237.691406 23.097656 237.691406 23.632812 C 237.691406 24.53125 237.230469 25.371094 236.304688 26.152344 C 235.367188 26.933594 234.363281 27.324219 233.296875 27.324219 C 232.671875 27.324219 232.144531 27.160156 231.714844 26.835938 C 231.3125 26.484375 231.109375 26.039062 231.109375 25.507812 C 231.109375 24.609375 231.578125 23.769531 232.515625 22.988281 C 233.425781 22.207031 234.421875 21.816406 235.503906 21.816406 Z M 235.503906 21.816406 "
       style=" stroke:none;fill-rule:nonzero;fill:rgb(0%,0%,0%);fill-opacity:1;" />
    <path
       id="path98"
       d="M 222.867188 21.816406 C 223.492188 21.816406 224.019531 21.976562 224.449219 22.304688 C 224.851562 22.65625 225.054688 23.097656 225.054688 23.632812 C 225.054688 24.53125 224.589844 25.371094 223.667969 26.152344 C 222.730469 26.933594 221.726562 27.324219 220.660156 27.324219 C 220.035156 27.324219 219.507812 27.160156 219.078125 26.835938 C 218.671875 26.484375 218.472656 26.039062 218.472656 25.507812 C 218.472656 24.609375 218.941406 23.769531 219.878906 22.988281 C 220.789062 22.207031 221.785156 21.816406 222.867188 21.816406 Z M 222.867188 21.816406 "
       style=" stroke:none;fill-rule:nonzero;fill:rgb(0%,0%,0%);fill-opacity:1;" />
    <path
       id="path100"
       d="M 258.234375 21.816406 C 258.859375 21.816406 259.386719 21.976562 259.816406 22.304688 C 260.21875 22.65625 260.421875 23.097656 260.421875 23.632812 C 260.421875 24.53125 259.957031 25.371094 259.035156 26.152344 C 258.097656 26.933594 257.09375 27.324219 256.027344 27.324219 C 255.402344 27.324219 254.875 27.160156 254.445312 26.835938 C 254.039062 26.484375 253.839844 26.039062 253.839844 25.507812 C 253.839844 24.609375 254.308594 23.769531 255.246094 22.988281 C 256.15625 22.207031 257.152344 21.816406 258.234375 21.816406 Z M 258.234375 21.816406 "
       style=" stroke:none;fill-rule:nonzero;fill:rgb(0%,0%,0%);fill-opacity:1;" />
    <path
       id="path102"
       d="M 269.882812 21.816406 C 270.507812 21.816406 271.035156 21.976562 271.464844 22.304688 C 271.867188 22.65625 272.070312 23.097656 272.070312 23.632812 C 272.070312 24.53125 271.609375 25.371094 270.683594 26.152344 C 269.746094 26.933594 268.742188 27.324219 267.675781 27.324219 C 267.050781 27.324219 266.523438 27.160156 266.09375 26.835938 C 265.691406 26.484375 265.488281 26.039062 265.488281 25.507812 C 265.488281 24.609375 265.957031 23.769531 266.894531 22.988281 C 267.804688 22.207031 268.800781 21.816406 269.882812 21.816406 Z M 269.882812 21.816406 "
       style=" stroke:none;fill-rule:nonzero;fill:rgb(0%,0%,0%);fill-opacity:1;" />
    <path
       id="path104"
       d="M 288.332031 21.816406 C 288.957031 21.816406 289.484375 21.976562 289.914062 22.304688 C 290.320312 22.65625 290.519531 23.097656 290.519531 23.632812 C 290.519531 24.53125 290.058594 25.371094 289.132812 26.152344 C 288.195312 26.933594 287.195312 27.324219 286.125 27.324219 C 285.5 27.324219 284.972656 27.160156 284.542969 26.835938 C 284.140625 26.484375 283.9375 26.039062 283.9375 25.507812 C 283.9375 24.609375 284.40625 23.769531 285.34375 22.988281 C 286.257812 22.207031 287.253906 21.816406 288.332031 21.816406 Z M 288.332031 21.816406 "
       style=" stroke:none;fill-rule:nonzero;fill:rgb(0%,0%,0%);fill-opacity:1;" />
    <path
       id="path106"
       d="M 300.96875 21.816406 C 301.59375 21.816406 302.121094 21.976562 302.550781 22.304688 C 302.957031 22.65625 303.15625 23.097656 303.15625 23.632812 C 303.15625 24.53125 302.695312 25.371094 301.769531 26.152344 C 300.832031 26.933594 299.832031 27.324219 298.761719 27.324219 C 298.136719 27.324219 297.609375 27.160156 297.179688 26.835938 C 296.777344 26.484375 296.574219 26.039062 296.574219 25.507812 C 296.574219 24.609375 297.042969 23.769531 297.980469 22.988281 C 298.894531 22.207031 299.890625 21.816406 300.96875 21.816406 Z M 300.96875 21.816406 "
       style=" stroke:none;fill-rule:nonzero;fill:rgb(0%,0%,0%);fill-opacity:1;" />
    <path
       id="path108"
       d="M 321.957031 21.816406 C 322.582031 21.816406 323.109375 21.976562 323.539062 22.304688 C 323.941406 22.65625 324.144531 23.097656 324.144531 23.632812 C 324.144531 24.53125 323.679688 25.371094 322.757812 26.152344 C 321.820312 26.933594 320.816406 27.324219 319.75 27.324219 C 319.125 27.324219 318.597656 27.160156 318.167969 26.835938 C 317.761719 26.484375 317.5625 26.039062 317.5625 25.507812 C 317.5625 24.609375 318.03125 23.769531 318.96875 22.988281 C 319.878906 22.207031 320.875 21.816406 321.957031 21.816406 Z M 321.957031 21.816406 "
       style=" stroke:none;fill-rule:nonzero;fill:rgb(0%,0%,0%);fill-opacity:1;" />
    <path
       id="path110"
       d="M 345.96875 21.816406 C 346.59375 21.816406 347.121094 21.976562 347.550781 22.304688 C 347.953125 22.65625 348.15625 23.097656 348.15625 23.632812 C 348.15625 24.53125 347.691406 25.371094 346.769531 26.152344 C 345.832031 26.933594 344.828125 27.324219 343.761719 27.324219 C 343.136719 27.324219 342.609375 27.160156 342.179688 26.835938 C 341.773438 26.484375 341.574219 26.039062 341.574219 25.507812 C 341.574219 24.609375 342.042969 23.769531 342.980469 22.988281 C 343.890625 22.207031 344.886719 21.816406 345.96875 21.816406 Z M 345.96875 21.816406 "
       style=" stroke:none;fill-rule:nonzero;fill:rgb(0%,0%,0%);fill-opacity:1;" />
    <path
       id="path112"
       d="M 367.726562 21.816406 C 368.351562 21.816406 368.878906 21.976562 369.308594 22.304688 C 369.710938 22.65625 369.914062 23.097656 369.914062 23.632812 C 369.914062 24.53125 369.449219 25.371094 368.527344 26.152344 C 367.589844 26.933594 366.585938 27.324219 365.519531 27.324219 C 364.894531 27.324219 364.367188 27.160156 363.9375 26.835938 C 363.53125 26.484375 363.332031 26.039062 363.332031 25.507812 C 363.332031 24.609375 363.800781 23.769531 364.738281 22.988281 C 365.648438 22.207031 366.644531 21.816406 367.726562 21.816406 Z M 367.726562 21.816406 "
       style=" stroke:none;fill-rule:nonzero;fill:rgb(0%,0%,0%);fill-opacity:1;" />
    <path
       id="path114"
       d="M 356.847656 21.816406 C 357.472656 21.816406 358 21.976562 358.429688 22.304688 C 358.832031 22.65625 359.035156 23.097656 359.035156 23.632812 C 359.035156 24.53125 358.570312 25.371094 357.648438 26.152344 C 356.710938 26.933594 355.707031 27.324219 354.640625 27.324219 C 354.015625 27.324219 353.488281 27.160156 353.058594 26.835938 C 352.652344 26.484375 352.453125 26.039062 352.453125 25.507812 C 352.453125 24.609375 352.921875 23.769531 353.859375 22.988281 C 354.769531 22.207031 355.765625 21.816406 356.847656 21.816406 Z M 356.847656 21.816406 "
       style=" stroke:none;fill-rule:nonzero;fill:rgb(0%,0%,0%);fill-opacity:1;" />
    <path
       id="path116"
       d="M 378.605469 21.816406 C 379.230469 21.816406 379.757812 21.976562 380.1875 22.304688 C 380.589844 22.65625 380.792969 23.097656 380.792969 23.632812 C 380.792969 24.53125 380.328125 25.371094 379.40625 26.152344 C 378.46875 26.933594 377.464844 27.324219 376.398438 27.324219 C 375.773438 27.324219 375.246094 27.160156 374.816406 26.835938 C 374.410156 26.484375 374.210938 26.039062 374.210938 25.507812 C 374.210938 24.609375 374.679688 23.769531 375.617188 22.988281 C 376.527344 22.207031 377.523438 21.816406 378.605469 21.816406 Z M 378.605469 21.816406 "
       style=" stroke:none;fill-rule:nonzero;fill:rgb(0%,0%,0%);fill-opacity:1;" />
    <path
       id="path118"
       d="M 14.292969 21.953125 C 14.292969 21.953125 14.332031 21.953125 14.410156 21.953125 C 14.460938 21.9375 14.507812 21.933594 14.546875 21.933594 C 16.003906 21.933594 17.203125 22.445312 18.140625 23.476562 C 19.078125 24.492188 19.546875 25.675781 19.546875 27.03125 C 19.546875 28.710938 18.851562 30.078125 17.457031 31.132812 C 17.09375 31.417969 16.617188 31.652344 16.03125 31.835938 C 16.097656 32.679688 16.128906 33.363281 16.128906 33.886719 C 16.128906 33.988281 16.117188 34.367188 16.089844 35.019531 C 16.039062 36.230469 15.621094 37.277344 14.839844 38.164062 C 14.085938 39.035156 13.148438 39.472656 12.027344 39.472656 C 10.972656 39.472656 10.074219 39.101562 9.332031 38.359375 C 8.589844 37.601562 8.21875 36.691406 8.21875 35.625 C 8.21875 35.0625 8.433594 34.589844 8.863281 34.199219 C 9.304688 33.808594 9.820312 33.613281 10.40625 33.613281 C 10.925781 33.613281 11.363281 33.8125 11.714844 34.21875 C 12.078125 34.59375 12.261719 35.0625 12.261719 35.625 C 12.261719 36.132812 12.078125 36.566406 11.714844 36.933594 C 11.351562 37.296875 10.914062 37.480469 10.40625 37.480469 C 10.199219 37.480469 9.996094 37.441406 9.800781 37.363281 C 10.375 38.207031 11.136719 38.632812 12.085938 38.632812 C 12.984375 38.632812 13.71875 38.265625 14.292969 37.539062 C 14.890625 36.78125 15.21875 35.902344 15.269531 34.902344 C 15.296875 34.277344 15.308594 33.917969 15.308594 33.828125 C 15.308594 33.097656 15.28125 32.5 15.230469 32.03125 C 14.578125 32.132812 14 32.1875 13.492188 32.1875 C 11.683594 32.1875 10.140625 31.46875 8.863281 30.039062 C 7.613281 28.59375 6.988281 26.875 6.988281 24.882812 C 6.988281 24.464844 7.027344 24.042969 7.105469 23.613281 C 7.183594 23.261719 7.28125 22.875 7.398438 22.460938 C 7.464844 22.226562 7.640625 21.847656 7.925781 21.328125 C 8.03125 21.171875 8.148438 20.976562 8.277344 20.742188 C 8.40625 20.507812 8.5 20.351562 8.550781 20.273438 C 8.679688 20.011719 8.933594 19.660156 9.3125 19.21875 C 9.417969 19.101562 9.523438 18.96875 9.632812 18.828125 C 9.746094 18.683594 9.839844 18.566406 9.917969 18.476562 C 9.996094 18.382812 10.054688 18.3125 10.09375 18.261719 C 10.132812 18.207031 10.425781 17.863281 10.972656 17.226562 C 11.101562 17.09375 11.230469 16.957031 11.351562 16.804688 C 11.476562 16.65625 11.578125 16.539062 11.65625 16.453125 C 11.734375 16.371094 11.792969 16.308594 11.832031 16.269531 C 11.363281 14.71875 11.070312 13.480469 10.953125 12.558594 C 10.863281 11.816406 10.816406 10.800781 10.816406 9.511719 C 10.816406 8.378906 11.078125 7.316406 11.597656 6.328125 C 12.105469 5.296875 12.816406 4.457031 13.726562 3.808594 C 13.792969 3.769531 13.855469 3.75 13.921875 3.75 C 14.011719 3.75 14.078125 3.769531 14.117188 3.808594 C 14.820312 4.652344 15.425781 5.753906 15.933594 7.109375 C 16.453125 8.460938 16.714844 9.691406 16.714844 10.800781 C 16.714844 12.050781 16.414062 13.222656 15.816406 14.316406 C 15.140625 15.472656 14.265625 16.671875 13.199219 17.910156 C 13.472656 18.769531 13.835938 20.117188 14.292969 21.953125 Z M 15.953125 31.035156 C 16.628906 30.785156 17.15625 30.363281 17.535156 29.765625 C 17.953125 29.191406 18.160156 28.546875 18.160156 27.832031 C 18.160156 26.90625 17.847656 26.085938 17.222656 25.371094 C 16.585938 24.628906 15.769531 24.210938 14.78125 24.121094 C 15.339844 26.867188 15.730469 29.171875 15.953125 31.035156 Z M 8.394531 26.523438 C 8.394531 27.8125 8.914062 28.945312 9.957031 29.921875 C 11.023438 30.871094 12.222656 31.347656 13.550781 31.347656 C 14.097656 31.347656 14.632812 31.308594 15.152344 31.230469 C 14.945312 29.25 14.535156 26.878906 13.921875 24.121094 C 13.179688 24.199219 12.585938 24.457031 12.144531 24.902344 C 11.714844 25.355469 11.5 25.871094 11.5 26.445312 C 11.5 27.433594 12.027344 28.234375 13.082031 28.847656 C 13.171875 28.9375 13.21875 29.035156 13.21875 29.140625 C 13.21875 29.242188 13.171875 29.339844 13.082031 29.433594 C 13.003906 29.523438 12.90625 29.570312 12.789062 29.570312 C 12.777344 29.570312 12.71875 29.554688 12.613281 29.53125 C 11.871094 29.125 11.296875 28.605469 10.894531 27.96875 C 10.515625 27.289062 10.328125 26.605469 10.328125 25.917969 C 10.328125 25.019531 10.609375 24.203125 11.167969 23.476562 C 11.753906 22.746094 12.515625 22.277344 13.453125 22.070312 C 13.089844 20.609375 12.789062 19.472656 12.554688 18.652344 C 12.347656 18.886719 12.09375 19.167969 11.800781 19.5 C 11.507812 19.832031 11.335938 20.03125 11.285156 20.097656 C 10.816406 20.707031 10.457031 21.183594 10.210938 21.523438 C 9.769531 22.132812 9.441406 22.660156 9.234375 23.105469 C 9.011719 23.597656 8.816406 24.140625 8.648438 24.726562 C 8.480469 25.285156 8.394531 25.882812 8.394531 26.523438 Z M 14.917969 6.660156 C 13.941406 7.140625 13.171875 7.832031 12.613281 8.730469 C 12.039062 9.652344 11.753906 10.648438 11.753906 11.71875 C 11.753906 12.65625 11.988281 13.917969 12.457031 15.507812 C 13.394531 14.375 14.097656 13.324219 14.566406 12.363281 C 15.0625 11.347656 15.308594 10.285156 15.308594 9.179688 C 15.308594 8.34375 15.179688 7.503906 14.917969 6.660156 Z M 14.917969 6.660156 "
       style=" stroke:none;fill-rule:nonzero;fill:rgb(0%,0%,0%);fill-opacity:1;" />
    <path
       id="path120"
       d="M 28.277344 16.953125 C 27.785156 16.953125 27.476562 17.148438 27.359375 17.539062 C 27.269531 17.824219 27.222656 18.304688 27.222656 18.984375 L 27.222656 19.570312 C 27.222656 20.246094 27.269531 20.726562 27.359375 21.015625 C 27.476562 21.40625 27.785156 21.601562 28.277344 21.601562 C 28.824219 21.601562 29.171875 21.371094 29.3125 20.917969 C 29.445312 20.488281 29.507812 19.941406 29.507812 19.277344 C 29.507812 18.507812 29.4375 17.929688 29.292969 17.539062 C 29.136719 17.148438 28.800781 16.953125 28.277344 16.953125 Z M 27.222656 16.757812 C 27.613281 16.601562 27.964844 16.507812 28.277344 16.484375 C 29.320312 16.484375 30.152344 16.71875 30.777344 17.1875 C 31.378906 17.667969 31.675781 18.359375 31.675781 19.257812 C 31.675781 20.167969 31.371094 20.871094 30.757812 21.367188 C 30.148438 21.835938 29.320312 22.070312 28.277344 22.070312 C 27.210938 22.070312 26.378906 21.574219 25.777344 20.585938 C 25.179688 19.59375 24.878906 18.421875 24.878906 17.070312 C 24.878906 15.742188 25.230469 14.570312 25.933594 13.554688 C 26.652344 12.5625 27.570312 12.070312 28.6875 12.070312 C 29.417969 12.070312 30.0625 12.257812 30.621094 12.636719 C 31.167969 13.011719 31.441406 13.507812 31.441406 14.121094 C 31.441406 14.496094 31.3125 14.808594 31.050781 15.058594 C 30.816406 15.316406 30.519531 15.449219 30.152344 15.449219 C 29.789062 15.449219 29.476562 15.316406 29.214844 15.058594 C 28.957031 14.796875 28.824219 14.484375 28.824219 14.121094 C 28.824219 13.976562 28.957031 13.8125 29.214844 13.632812 C 29.476562 13.476562 29.605469 13.3125 29.605469 13.144531 C 29.605469 12.960938 29.515625 12.8125 29.332031 12.695312 C 29.125 12.589844 28.910156 12.539062 28.6875 12.539062 C 28.089844 12.539062 27.691406 12.777344 27.496094 13.261719 C 27.289062 13.730469 27.183594 14.414062 27.183594 15.3125 C 27.183594 15.570312 27.191406 15.8125 27.203125 16.035156 C 27.21875 16.253906 27.222656 16.496094 27.222656 16.757812 Z M 27.222656 16.757812 "
       style=" stroke:none;fill-rule:nonzero;fill:rgb(0%,0%,0%);fill-opacity:1;" />
    <path
       id="path122"
       d="M 29.710938 26.308594 C 30.363281 25.589844 30.6875 24.914062 30.6875 24.277344 C 30.6875 23.742188 30.460938 23.320312 30.003906 23.007812 C 29.5625 22.695312 29.015625 22.539062 28.363281 22.539062 C 27.910156 22.539062 27.542969 22.679688 27.269531 22.96875 C 26.996094 23.253906 26.859375 23.578125 26.859375 23.945312 C 26.859375 24.398438 27.0625 24.75 27.464844 25 Z M 30.316406 26.640625 C 31.425781 27.277344 31.976562 28.128906 31.976562 29.199219 C 31.976562 29.992188 31.644531 30.664062 30.980469 31.210938 C 30.316406 31.78125 29.386719 32.070312 28.1875 32.070312 C 27.171875 32.070312 26.320312 31.808594 25.628906 31.289062 C 24.902344 30.765625 24.535156 30.097656 24.535156 29.277344 C 24.535156 28.976562 24.628906 28.65625 24.808594 28.320312 C 24.980469 28.019531 25.148438 27.785156 25.316406 27.617188 C 25.394531 27.511719 25.644531 27.265625 26.058594 26.875 C 25.253906 26.300781 24.84375 25.589844 24.828125 24.746094 C 24.828125 24.027344 25.148438 23.398438 25.785156 22.851562 C 26.425781 22.328125 27.285156 22.070312 28.363281 22.070312 C 29.222656 22.070312 29.980469 22.265625 30.628906 22.65625 C 31.253906 23.046875 31.566406 23.585938 31.566406 24.277344 C 31.542969 24.980469 31.125 25.765625 30.316406 26.640625 Z M 26.664062 27.226562 C 25.859375 27.941406 25.441406 28.625 25.414062 29.277344 C 25.414062 29.941406 25.695312 30.492188 26.253906 30.9375 C 26.789062 31.378906 27.433594 31.601562 28.1875 31.601562 C 28.722656 31.601562 29.140625 31.429688 29.4375 31.09375 C 29.75 30.78125 29.90625 30.394531 29.90625 29.941406 C 29.90625 29.378906 29.679688 28.96875 29.222656 28.710938 Z M 26.664062 27.226562 "
       style=" stroke:none;fill-rule:nonzero;fill:rgb(0%,0%,0%);fill-opacity:1;" />
    <path
       id="path124"
       d="M 46.71875 9.570312 L 57.007812 9.570312 L 57.007812 12.070312 L 46.71875 12.070312 Z M 46.71875 9.570312 "
       style=" stroke:none;fill-rule:evenodd;fill:rgb(0%,0%,0%);fill-opacity:1;" />
    <path
       id="path126"
       d="M 259.769531 9.570312 L 272.070312 9.570312 L 272.070312 12.070312 L 259.769531 12.070312 Z M 259.769531 9.570312 "
       style=" stroke:none;fill-rule:evenodd;fill:rgb(0%,0%,0%);fill-opacity:1;" />
    <path
       id="path128"
       d="M 347.503906 9.570312 L 369.914062 9.570312 L 369.914062 12.070312 L 347.503906 12.070312 Z M 347.503906 9.570312 "
       style=" stroke:none;fill-rule:evenodd;fill:rgb(0%,0%,0%);fill-opacity:1;" />
    <path
       id="path130"
       d="M 84.796875 13.320312 L 84.796875 8.320312 L 85.421875 8.320312 C 85.421875 9.0625 85.566406 9.804688 85.851562 10.546875 C 86.164062 11.351562 86.511719 12.054688 86.886719 12.65625 C 87.160156 13.085938 87.570312 13.742188 88.117188 14.628906 C 88.535156 15.304688 88.886719 16.015625 89.171875 16.757812 C 89.460938 17.5 89.601562 18.242188 89.601562 18.984375 C 89.601562 20.335938 89.324219 21.71875 88.761719 23.125 C 88.671875 23.28125 88.546875 23.359375 88.390625 23.359375 C 88.261719 23.359375 88.144531 23.304688 88.039062 23.203125 C 87.960938 23.125 87.921875 23.027344 87.921875 22.910156 L 87.921875 22.8125 C 88.484375 21.523438 88.761719 20.246094 88.761719 18.984375 C 88.761719 18.332031 88.566406 17.628906 88.175781 16.875 C 87.785156 16.105469 87.390625 15.492188 86.984375 15.039062 C 86.53125 14.503906 86.007812 13.929688 85.421875 13.320312 Z M 84.796875 13.320312 "
       style=" stroke:none;fill-rule:nonzero;fill:rgb(0%,0%,0%);fill-opacity:1;" />
    <path
       id="path132"
       d="M 125.195312 13.320312 L 125.195312 8.320312 L 125.820312 8.320312 C 125.820312 9.0625 125.964844 9.804688 126.25 10.546875 C 126.5625 11.351562 126.910156 12.054688 127.285156 12.65625 C 127.558594 13.085938 127.96875 13.742188 128.515625 14.628906 C 128.933594 15.304688 129.285156 16.015625 129.570312 16.757812 C 129.859375 17.5 130 18.242188 130 18.984375 C 130 20.335938 129.722656 21.71875 129.160156 23.125 C 129.070312 23.28125 128.945312 23.359375 128.789062 23.359375 C 128.660156 23.359375 128.542969 23.304688 128.4375 23.203125 C 128.359375 23.125 128.320312 23.027344 128.320312 22.910156 L 128.320312 22.8125 C 128.882812 21.523438 129.160156 20.246094 129.160156 18.984375 C 129.160156 18.332031 128.964844 17.628906 128.574219 16.875 C 128.183594 16.105469 127.789062 15.492188 127.382812 15.039062 C 126.929688 14.503906 126.40625 13.929688 125.820312 13.320312 Z M 125.195312 13.320312 "
       style=" stroke:none;fill-rule:nonzero;fill:rgb(0%,0%,0%);fill-opacity:1;" />
    <path
       id="path134"
       d="M 165.621094 13.320312 L 165.621094 8.320312 L 166.246094 8.320312 C 166.246094 9.0625 166.386719 9.804688 166.675781 10.546875 C 166.988281 11.351562 167.332031 12.054688 167.710938 12.65625 C 167.984375 13.085938 168.394531 13.742188 168.941406 14.628906 C 169.355469 15.304688 169.707031 16.015625 169.996094 16.757812 C 170.28125 17.5 170.425781 18.242188 170.425781 18.984375 C 170.425781 20.335938 170.144531 21.71875 169.585938 23.125 C 169.492188 23.28125 169.371094 23.359375 169.214844 23.359375 C 169.082031 23.359375 168.964844 23.304688 168.863281 23.203125 C 168.785156 23.125 168.746094 23.027344 168.746094 22.910156 L 168.746094 22.8125 C 169.304688 21.523438 169.585938 20.246094 169.585938 18.984375 C 169.585938 18.332031 169.390625 17.628906 169 16.875 C 168.609375 16.105469 168.210938 15.492188 167.808594 15.039062 C 167.351562 14.503906 166.832031 13.929688 166.246094 13.320312 Z M 165.621094 13.320312 "
       style=" stroke:none;fill-rule:nonzero;fill:rgb(0%,0%,0%);fill-opacity:1;" />
    <path
       id="path136"
       d="M 201.214844 13.320312 L 201.214844 8.320312 L 201.839844 8.320312 C 201.839844 9.0625 201.984375 9.804688 202.269531 10.546875 C 202.582031 11.351562 202.929688 12.054688 203.304688 12.65625 C 203.578125 13.085938 203.988281 13.742188 204.535156 14.628906 C 204.953125 15.304688 205.304688 16.015625 205.589844 16.757812 C 205.878906 17.5 206.019531 18.242188 206.019531 18.984375 C 206.019531 20.335938 205.742188 21.71875 205.179688 23.125 C 205.089844 23.28125 204.964844 23.359375 204.808594 23.359375 C 204.679688 23.359375 204.5625 23.304688 204.457031 23.203125 C 204.378906 23.125 204.339844 23.027344 204.339844 22.910156 L 204.339844 22.8125 C 204.902344 21.523438 205.179688 20.246094 205.179688 18.984375 C 205.179688 18.332031 204.984375 17.628906 204.59375 16.875 C 204.203125 16.105469 203.808594 15.492188 203.402344 15.039062 C 202.949219 14.503906 202.425781 13.929688 201.839844 13.320312 Z M 201.214844 13.320312 "
       style=" stroke:none;fill-rule:nonzero;fill:rgb(0%,0%,0%);fill-opacity:1;" />
    <path
       id="path138"
       d="M 224.402344 13.320312 L 224.402344 8.320312 L 225.027344 8.320312 C 225.027344 9.0625 225.171875 9.804688 225.457031 10.546875 C 225.769531 11.351562 226.117188 12.054688 226.492188 12.65625 C 226.765625 13.085938 227.175781 13.742188 227.722656 14.628906 C 228.140625 15.304688 228.492188 16.015625 228.777344 16.757812 C 229.066406 17.5 229.207031 18.242188 229.207031 18.984375 C 229.207031 20.335938 228.929688 21.71875 228.367188 23.125 C 228.277344 23.28125 228.152344 23.359375 227.996094 23.359375 C 227.867188 23.359375 227.75 23.304688 227.644531 23.203125 C 227.566406 23.125 227.527344 23.027344 227.527344 22.910156 L 227.527344 22.8125 C 228.089844 21.523438 228.367188 20.246094 228.367188 18.984375 C 228.367188 18.332031 228.171875 17.628906 227.78125 16.875 C 227.390625 16.105469 226.996094 15.492188 226.589844 15.039062 C 226.136719 14.503906 225.613281 13.929688 225.027344 13.320312 Z M 224.402344 13.320312 "
       style=" stroke:none;fill-rule:nonzero;fill:rgb(0%,0%,0%);fill-opacity:1;" />
    <path
       id="path140"
       d="M 289.871094 13.320312 L 289.871094 8.320312 L 290.496094 8.320312 C 290.496094 9.0625 290.640625 9.804688 290.925781 10.546875 C 291.238281 11.351562 291.582031 12.054688 291.960938 12.65625 C 292.234375 13.085938 292.644531 13.742188 293.191406 14.628906 C 293.609375 15.304688 293.960938 16.015625 294.246094 16.757812 C 294.53125 17.5 294.675781 18.242188 294.675781 18.984375 C 294.675781 20.335938 294.394531 21.71875 293.835938 23.125 C 293.746094 23.28125 293.621094 23.359375 293.464844 23.359375 C 293.335938 23.359375 293.21875 23.304688 293.113281 23.203125 C 293.035156 23.125 292.996094 23.027344 292.996094 22.910156 L 292.996094 22.8125 C 293.554688 21.523438 293.835938 20.246094 293.835938 18.984375 C 293.835938 18.332031 293.640625 17.628906 293.25 16.875 C 292.859375 16.105469 292.460938 15.492188 292.058594 15.039062 C 291.601562 14.503906 291.082031 13.929688 290.496094 13.320312 Z M 289.871094 13.320312 "
       style=" stroke:none;fill-rule:nonzero;fill:rgb(0%,0%,0%);fill-opacity:1;" />
    <path
       id="path142"
       d="M 68.726562 25.371094 C 68.503906 25.148438 68.394531 24.882812 68.394531 24.570312 C 68.394531 24.257812 68.503906 23.988281 68.726562 23.769531 C 68.949219 23.546875 69.214844 23.4375 69.527344 23.4375 C 69.839844 23.4375 70.105469 23.546875 70.328125 23.769531 C 70.550781 23.988281 70.660156 24.257812 70.660156 24.570312 C 70.660156 24.882812 70.550781 25.148438 70.328125 25.371094 C 70.105469 25.589844 69.839844 25.703125 69.527344 25.703125 C 69.214844 25.703125 68.949219 25.589844 68.726562 25.371094 Z M 68.726562 25.371094 "
       style=" stroke:none;fill-rule:nonzero;fill:rgb(0%,0%,0%);fill-opacity:1;" />
    <path
       id="path144"
       d="M 140.566406 25.371094 C 140.34375 25.148438 140.234375 24.882812 140.234375 24.570312 C 140.234375 24.257812 140.34375 23.988281 140.566406 23.769531 C 140.789062 23.546875 141.054688 23.4375 141.367188 23.4375 C 141.679688 23.4375 141.945312 23.546875 142.167969 23.769531 C 142.390625 23.988281 142.5 24.257812 142.5 24.570312 C 142.5 24.882812 142.390625 25.148438 142.167969 25.371094 C 141.945312 25.589844 141.679688 25.703125 141.367188 25.703125 C 141.054688 25.703125 140.789062 25.589844 140.566406 25.371094 Z M 140.566406 25.371094 "
       style=" stroke:none;fill-rule:nonzero;fill:rgb(0%,0%,0%);fill-opacity:1;" />
    <path
       id="path146"
       d="M 239.773438 25.371094 C 239.550781 25.148438 239.441406 24.882812 239.441406 24.570312 C 239.441406 24.257812 239.550781 23.988281 239.773438 23.769531 C 239.996094 23.546875 240.261719 23.4375 240.574219 23.4375 C 240.886719 23.4375 241.152344 23.546875 241.375 23.769531 C 241.597656 23.988281 241.707031 24.257812 241.707031 24.570312 C 241.707031 24.882812 241.597656 25.148438 241.375 25.371094 C 241.152344 25.589844 240.886719 25.703125 240.574219 25.703125 C 240.261719 25.703125 239.996094 25.589844 239.773438 25.371094 Z M 239.773438 25.371094 "
       style=" stroke:none;fill-rule:nonzero;fill:rgb(0%,0%,0%);fill-opacity:1;" />
    <path
       id="path148"
       d="M 305.242188 25.371094 C 305.019531 25.148438 304.910156 24.882812 304.910156 24.570312 C 304.910156 24.257812 305.019531 23.988281 305.242188 23.769531 C 305.460938 23.546875 305.730469 23.4375 306.042969 23.4375 C 306.355469 23.4375 306.621094 23.546875 306.84375 23.769531 C 307.0625 23.988281 307.175781 24.257812 307.175781 24.570312 C 307.175781 24.882812 307.0625 25.148438 306.84375 25.371094 C 306.621094 25.589844 306.355469 25.703125 306.042969 25.703125 C 305.730469 25.703125 305.460938 25.589844 305.242188 25.371094 Z M 305.242188 25.371094 "
       style=" stroke:none;fill-rule:nonzero;fill:rgb(0%,0%,0%);fill-opacity:1;" />
    <path
       id="path150"
       d="M 382.875 25.371094 C 382.652344 25.148438 382.542969 24.882812 382.542969 24.570312 C 382.542969 24.257812 382.652344 23.988281 382.875 23.769531 C 383.097656 23.546875 383.363281 23.4375 383.675781 23.4375 C 383.988281 23.4375 384.253906 23.546875 384.476562 23.769531 C 384.699219 23.988281 384.808594 24.257812 384.808594 24.570312 C 384.808594 24.882812 384.699219 25.148438 384.476562 25.371094 C 384.253906 25.589844 383.988281 25.703125 383.675781 25.703125 C 383.363281 25.703125 383.097656 25.589844 382.875 25.371094 Z M 382.875 25.371094 "
       style=" stroke:none;fill-rule:nonzero;fill:rgb(0%,0%,0%);fill-opacity:1;" />
  </g>
</svg>
