<?xml version="1.0" encoding="UTF-8" standalone="no"?>
<svg
   xmlns:dc="http://purl.org/dc/elements/1.1/"
   xmlns:cc="http://creativecommons.org/ns#"
   xmlns:rdf="http://www.w3.org/1999/02/22-rdf-syntax-ns#"
   xmlns:svg="http://www.w3.org/2000/svg"
   xmlns="http://www.w3.org/2000/svg"
   xmlns:sodipodi="http://sodipodi.sourceforge.net/DTD/sodipodi-0.dtd"
   xmlns:inkscape="http://www.inkscape.org/namespaces/inkscape"
   inkscape:version="1.0 (4035a4f, 2020-05-01)"
   sodipodi:docname="ternary_rhythms_1.svg"
   id="svg733"
   version="1.2"
   viewBox="0 0 430 50"
   height="50pt"
   width="430pt">
  <metadata
     id="metadata739">
    <rdf:RDF>
      <cc:Work
         rdf:about="">
        <dc:format>image/svg+xml</dc:format>
        <dc:type
           rdf:resource="http://purl.org/dc/dcmitype/StillImage" />
        <dc:title></dc:title>
      </cc:Work>
    </rdf:RDF>
  </metadata>
  <defs
     id="defs737" />
  <sodipodi:namedview
     inkscape:current-layer="surface3248"
     inkscape:window-maximized="1"
     inkscape:window-y="23"
     inkscape:window-x="0"
     inkscape:cy="561.33337"
     inkscape:cx="396.66667"
     inkscape:zoom="0.57630637"
     showgrid="false"
     id="namedview735"
     inkscape:window-height="855"
     inkscape:window-width="1440"
     inkscape:pageshadow="2"
     inkscape:pageopacity="0"
     guidetolerance="10"
     gridtolerance="10"
     objecttolerance="10"
     borderopacity="1"
     bordercolor="#666666"
     pagecolor="#ffffff" />
  <g
     id="surface3248">
    <path
       id="path12"
       d="m 3.75,12.070308 h 63.429688 m -63.429688,5 h 63.429688 m -63.429688,5 H 67.179688 M 3.75,27.074214 h 63.429688 m -63.429688,5 h 63.429688"
       style="fill:none;stroke:#000000;stroke-width:0.400025;stroke-linecap:butt;stroke-linejoin:bevel;stroke-miterlimit:10;stroke-opacity:1" />
    <path
       id="path14"
       d="m 67.179688,12.070308 h 47.886722 m -47.886722,5 h 47.886722 m -47.886722,5 h 47.886722 m -47.886722,5.003906 h 47.886722 m -47.886722,5 h 47.886722"
       style="fill:none;stroke:#000000;stroke-width:0.400025;stroke-linecap:butt;stroke-linejoin:bevel;stroke-miterlimit:10;stroke-opacity:1" />
    <path
       id="path16"
       d="m 115.06641,12.070308 h 71.38281 m -71.38281,5 h 71.38281 m -71.38281,5 h 71.38281 m -71.38281,5.003906 h 71.38281 m -71.38281,5 h 71.38281"
       style="fill:none;stroke:#000000;stroke-width:0.400025;stroke-linecap:butt;stroke-linejoin:bevel;stroke-miterlimit:10;stroke-opacity:1" />
    <path
       id="path22"
       d="m 186.44922,12.070308 h 40.23047 m -40.23047,5 h 40.23047 m -40.23047,5 h 40.23047 m -40.23047,5.003906 h 40.23047 m -40.23047,5 h 40.23047"
       style="fill:none;stroke:#000000;stroke-width:0.400025;stroke-linecap:butt;stroke-linejoin:bevel;stroke-miterlimit:10;stroke-opacity:1" />
    <path
       id="path24"
       d="m 226.67969,12.070308 h 48.0625 m -48.0625,5 h 48.0625 m -48.0625,5 h 48.0625 m -48.0625,5.003906 h 48.0625 m -48.0625,5 h 48.0625"
       style="fill:none;stroke:#000000;stroke-width:0.400025;stroke-linecap:butt;stroke-linejoin:bevel;stroke-miterlimit:10;stroke-opacity:1" />
    <path
       id="path38"
       d="m 274.74219,12.070308 h 40.41015 m -40.41015,5 h 40.41015 m -40.41015,5 h 40.41015 m -40.41015,5.003906 h 40.41015 m -40.41015,5 h 40.41015"
       style="fill:none;stroke:#000000;stroke-width:0.400025;stroke-linecap:butt;stroke-linejoin:bevel;stroke-miterlimit:10;stroke-opacity:1" />
    <path
       id="path40"
       d="m 315.15234,12.070308 h 48.2461 m -48.2461,5 h 48.2461 m -48.2461,5 h 48.2461 m -48.2461,5.003906 h 48.2461 m -48.2461,5 h 48.2461"
       style="fill:none;stroke:#000000;stroke-width:0.400025;stroke-linecap:butt;stroke-linejoin:bevel;stroke-miterlimit:10;stroke-opacity:1" />
    <path
       id="path42"
       d="m 363.39844,12.070308 h 55.3164 m -55.3164,5 h 55.3164 m -55.3164,5 h 55.3164 m -55.3164,5.003906 h 55.3164 m -55.3164,5 h 55.3164"
       style="fill:none;stroke:#000000;stroke-width:0.367008;stroke-linecap:butt;stroke-linejoin:bevel;stroke-miterlimit:10;stroke-opacity:1" />
    <path
       id="path76"
       d="M 66.78125,12.070308 V 32.074214"
       style="fill:none;stroke:#000000;stroke-width:0.80005;stroke-linecap:butt;stroke-linejoin:bevel;stroke-miterlimit:10;stroke-opacity:1" />
    <path
       id="path78"
       d="M 114.66406,12.070308 V 32.074214"
       style="fill:none;stroke:#000000;stroke-width:0.80005;stroke-linecap:butt;stroke-linejoin:bevel;stroke-miterlimit:10;stroke-opacity:1" />
    <path
       id="path82"
       d="M 186.04688,12.070308 V 32.074214"
       style="fill:none;stroke:#000000;stroke-width:0.80005;stroke-linecap:butt;stroke-linejoin:bevel;stroke-miterlimit:10;stroke-opacity:1" />
    <path
       id="path84"
       d="M 226.27734,12.070308 V 32.074214"
       style="fill:none;stroke:#000000;stroke-width:0.80005;stroke-linecap:butt;stroke-linejoin:bevel;stroke-miterlimit:10;stroke-opacity:1" />
    <path
       id="path96"
       d="M 274.34375,12.070308 V 32.074214"
       style="fill:none;stroke:#000000;stroke-width:0.80005;stroke-linecap:butt;stroke-linejoin:bevel;stroke-miterlimit:10;stroke-opacity:1" />
    <path
       id="path98"
       d="M 314.75391,12.070308 V 32.074214"
       style="fill:none;stroke:#000000;stroke-width:0.80005;stroke-linecap:butt;stroke-linejoin:bevel;stroke-miterlimit:10;stroke-opacity:1" />
    <path
       id="path100"
       d="M 363,12.070308 V 32.074214"
       style="fill:none;stroke:#000000;stroke-width:0.80005;stroke-linecap:butt;stroke-linejoin:bevel;stroke-miterlimit:10;stroke-opacity:1" />
    <path
       id="path102"
       d="M 418.71484,12.070308 V 32.074214"
       style="fill:none;stroke:#000000;stroke-width:0.80005;stroke-linecap:butt;stroke-linejoin:bevel;stroke-miterlimit:10;stroke-opacity:1" />
    <path
       id="path140"
       d="M 47.40625,23.804683 V 8.320308"
       style="fill:none;stroke:#000000;stroke-width:0.650041;stroke-linecap:round;stroke-linejoin:bevel;stroke-miterlimit:10;stroke-opacity:1" />
    <path
       id="path142"
       d="M 79.441406,23.632808 V 8.320308"
       style="fill:none;stroke:#000000;stroke-width:0.650041;stroke-linecap:round;stroke-linejoin:bevel;stroke-miterlimit:10;stroke-opacity:1" />
    <path
       id="path144"
       d="M 106.82813,23.632808 V 8.320308"
       style="fill:none;stroke:#000000;stroke-width:0.650041;stroke-linecap:round;stroke-linejoin:bevel;stroke-miterlimit:10;stroke-opacity:1" />
    <path
       id="path146"
       d="M 93.132813,23.632808 V 8.320308"
       style="fill:none;stroke:#000000;stroke-width:0.650041;stroke-linecap:round;stroke-linejoin:bevel;stroke-miterlimit:10;stroke-opacity:1" />
    <path
       id="path160"
       d="m 159.125,23.632808 v -12.8125"
       style="fill:none;stroke:#000000;stroke-width:0.650041;stroke-linecap:round;stroke-linejoin:bevel;stroke-miterlimit:10;stroke-opacity:1" />
    <path
       id="path162"
       d="m 148.52344,23.632808 v -12.8125"
       style="fill:none;stroke:#000000;stroke-width:0.650041;stroke-linecap:round;stroke-linejoin:bevel;stroke-miterlimit:10;stroke-opacity:1" />
    <path
       id="path164"
       d="m 137.92188,23.632808 v -12.8125"
       style="fill:none;stroke:#000000;stroke-width:0.650041;stroke-linecap:round;stroke-linejoin:bevel;stroke-miterlimit:10;stroke-opacity:1" />
    <path
       id="path166"
       d="m 127.32422,23.632808 v -12.8125"
       style="fill:none;stroke:#000000;stroke-width:0.650041;stroke-linecap:round;stroke-linejoin:bevel;stroke-miterlimit:10;stroke-opacity:1" />
    <path
       id="path168"
       d="m 180.32422,23.632808 v -12.8125"
       style="fill:none;stroke:#000000;stroke-width:0.650041;stroke-linecap:round;stroke-linejoin:bevel;stroke-miterlimit:10;stroke-opacity:1" />
    <path
       id="path170"
       d="m 169.72266,23.632808 v -12.8125"
       style="fill:none;stroke:#000000;stroke-width:0.650041;stroke-linecap:round;stroke-linejoin:bevel;stroke-miterlimit:10;stroke-opacity:1" />
    <path
       id="path172"
       d="M 219.34766,23.632808 V 8.320308"
       style="fill:none;stroke:#000000;stroke-width:0.650041;stroke-linecap:round;stroke-linejoin:bevel;stroke-miterlimit:10;stroke-opacity:1" />
    <path
       id="path174"
       d="M 199.06641,23.804683 V 8.320308"
       style="fill:none;stroke:#000000;stroke-width:0.650041;stroke-linecap:round;stroke-linejoin:bevel;stroke-miterlimit:10;stroke-opacity:1" />
    <path
       id="path176"
       d="m 268.61719,23.632808 v -12.8125"
       style="fill:none;stroke:#000000;stroke-width:0.650041;stroke-linecap:round;stroke-linejoin:bevel;stroke-miterlimit:10;stroke-opacity:1" />
    <path
       id="path178"
       d="m 259.39844,23.632808 v -12.8125"
       style="fill:none;stroke:#000000;stroke-width:0.650041;stroke-linecap:round;stroke-linejoin:bevel;stroke-miterlimit:10;stroke-opacity:1" />
    <path
       id="path180"
       d="M 239.29688,23.804683 V 8.320308"
       style="fill:none;stroke:#000000;stroke-width:0.650041;stroke-linecap:round;stroke-linejoin:bevel;stroke-miterlimit:10;stroke-opacity:1" />
    <path
       id="path228"
       d="M 300.10938,23.804683 V 8.320308"
       style="fill:none;stroke:#000000;stroke-width:0.650041;stroke-linecap:round;stroke-linejoin:bevel;stroke-miterlimit:10;stroke-opacity:1" />
    <path
       id="path230"
       d="M 287,23.632808 V 8.320308"
       style="fill:none;stroke:#000000;stroke-width:0.650041;stroke-linecap:round;stroke-linejoin:bevel;stroke-miterlimit:10;stroke-opacity:1" />
    <path
       id="path232"
       d="M 347.32813,23.804683 V 8.320308"
       style="fill:none;stroke:#000000;stroke-width:0.650041;stroke-linecap:round;stroke-linejoin:bevel;stroke-miterlimit:10;stroke-opacity:1" />
    <path
       id="path234"
       d="m 337.28125,23.632808 v -12.8125"
       style="fill:none;stroke:#000000;stroke-width:0.650041;stroke-linecap:round;stroke-linejoin:bevel;stroke-miterlimit:10;stroke-opacity:1" />
    <path
       id="path236"
       d="m 327.41406,23.632808 v -12.8125"
       style="fill:none;stroke:#000000;stroke-width:0.650041;stroke-linecap:round;stroke-linejoin:bevel;stroke-miterlimit:10;stroke-opacity:1" />
    <path
       id="path238"
       d="M 375.65625,23.632808 V 8.320308"
       style="fill:none;stroke:#000000;stroke-width:0.650041;stroke-linecap:round;stroke-linejoin:bevel;stroke-miterlimit:10;stroke-opacity:1" />
    <path
       id="path240"
       d="m 412.98828,23.632808 v -12.8125"
       style="fill:none;stroke:#000000;stroke-width:0.650041;stroke-linecap:round;stroke-linejoin:bevel;stroke-miterlimit:10;stroke-opacity:1" />
    <path
       id="path242"
       d="m 404.10156,23.632808 v -12.8125"
       style="fill:none;stroke:#000000;stroke-width:0.650041;stroke-linecap:round;stroke-linejoin:bevel;stroke-miterlimit:10;stroke-opacity:1" />
    <path
       id="path244"
       d="M 389.87891,23.632808 V 8.320308"
       style="fill:none;stroke:#000000;stroke-width:0.650041;stroke-linecap:round;stroke-linejoin:bevel;stroke-miterlimit:10;stroke-opacity:1" />
    <path
       id="path368"
       d="m 47.097656,23.261714 c 0,-0.21875 -0.08594,-0.410156 -0.253906,-0.566406 -0.167968,-0.167968 -0.363281,-0.253906 -0.585937,-0.253906 -0.390625,0 -1.179688,0.390625 -2.363281,1.171875 -1.222657,0.796875 -1.972657,1.363281 -2.246094,1.699219 -0.144532,0.183594 -0.214844,0.371094 -0.214844,0.566406 0,0.222656 0.08594,0.410156 0.253906,0.570312 0.15625,0.167969 0.351563,0.253907 0.585938,0.253907 0.378906,0 1.171875,-0.394531 2.382812,-1.175781 1.199219,-0.78125 1.941406,-1.347657 2.226563,-1.699219 0.144531,-0.167969 0.214843,-0.355469 0.214843,-0.566407 z M 46.0625,21.816402 c 1.121094,0 1.679688,0.484375 1.679688,1.445312 0,0.46875 -0.136719,1.015626 -0.410156,1.640626 -0.273438,0.613281 -0.636719,1.082031 -1.09375,1.40625 -1.003907,0.679687 -2.257813,1.019531 -3.769532,1.019531 -1.121094,0 -1.679687,-0.484375 -1.679687,-1.449219 0,-0.429688 0.136719,-0.96875 0.410156,-1.621094 0.261719,-0.625 0.625,-1.097656 1.09375,-1.425781 1.003906,-0.675781 2.257813,-1.015625 3.769531,-1.015625 z m 0,0"
       style="fill:#000000;fill-opacity:1;fill-rule:nonzero;stroke:none" />
    <path
       id="path370"
       d="m 91.269532,21.816402 c 0.625,0 1.152343,0.164062 1.582031,0.488281 0.40625,0.351563 0.605469,0.796875 0.605469,1.328125 0,0.898438 -0.460938,1.738282 -1.386719,2.519532 -0.9375,0.785156 -1.9375,1.175781 -3.007813,1.175781 -0.625,0 -1.152344,-0.164063 -1.582031,-0.488281 C 87.078125,26.488277 86.875,26.042964 86.875,25.507808 c 0,-0.898437 0.46875,-1.738281 1.40625,-2.519531 0.914063,-0.78125 1.910156,-1.171875 2.988282,-1.171875 z m 0,0"
       style="fill:#000000;fill-opacity:1;fill-rule:nonzero;stroke:none" />
    <path
       id="path372"
       d="m 77.578125,21.816402 c 0.625,0 1.152344,0.164062 1.582031,0.488281 0.402344,0.351563 0.605469,0.796875 0.605469,1.328125 0,0.898438 -0.464843,1.738282 -1.386719,2.519532 -0.9375,0.785156 -1.941406,1.175781 -3.007812,1.175781 -0.625,0 -1.152344,-0.164063 -1.582031,-0.488281 -0.40625,-0.351563 -0.605469,-0.796876 -0.605469,-1.332032 0,-0.898437 0.46875,-1.738281 1.40625,-2.519531 0.910156,-0.78125 1.90625,-1.171875 2.988281,-1.171875 z m 0,0"
       style="fill:#000000;fill-opacity:1;fill-rule:nonzero;stroke:none" />
    <path
       id="path374"
       d="m 125.46094,21.816402 c 0.625,0 1.15234,0.164062 1.58203,0.488281 0.40234,0.351563 0.60547,0.796875 0.60547,1.328125 0,0.898438 -0.46094,1.738282 -1.38672,2.519532 -0.9375,0.785156 -1.94141,1.175781 -3.00781,1.175781 -0.625,0 -1.15235,-0.164063 -1.58203,-0.488281 -0.40625,-0.351563 -0.60547,-0.796876 -0.60547,-1.332032 0,-0.898437 0.46875,-1.738281 1.40625,-2.519531 0.91015,-0.78125 1.90625,-1.171875 2.98828,-1.171875 z m 0,0"
       style="fill:#000000;fill-opacity:1;fill-rule:nonzero;stroke:none" />
    <path
       id="path376"
       d="m 104.96484,21.816402 c 0.625,0 1.15235,0.164062 1.58204,0.488281 0.40625,0.351563 0.60546,0.796875 0.60546,1.328125 0,0.898438 -0.46093,1.738282 -1.38671,2.519532 -0.9375,0.785156 -1.94141,1.175781 -3.00782,1.175781 -0.625,0 -1.15234,-0.164063 -1.58203,-0.488281 -0.40234,-0.351563 -0.60547,-0.796876 -0.60547,-1.332032 0,-0.898437 0.46875,-1.738281 1.40625,-2.519531 0.91016,-0.78125 1.90625,-1.171875 2.98828,-1.171875 z m 0,0"
       style="fill:#000000;fill-opacity:1;fill-rule:nonzero;stroke:none" />
    <path
       id="path390"
       d="m 157.26172,21.816402 c 0.625,0 1.15234,0.164062 1.58203,0.488281 0.40234,0.351563 0.60547,0.796875 0.60547,1.328125 0,0.898438 -0.46484,1.738282 -1.38672,2.519532 -0.9375,0.785156 -1.94141,1.175781 -3.01172,1.175781 -0.625,0 -1.15234,-0.164063 -1.58203,-0.488281 -0.40234,-0.351563 -0.60547,-0.796876 -0.60547,-1.332032 0,-0.898437 0.46875,-1.738281 1.40625,-2.519531 0.91406,-0.78125 1.91016,-1.171875 2.99219,-1.171875 z m 0,0"
       style="fill:#000000;fill-opacity:1;fill-rule:nonzero;stroke:none" />
    <path
       id="path392"
       d="m 146.66016,21.816402 c 0.625,0 1.15234,0.164062 1.58203,0.488281 0.40234,0.351563 0.60547,0.796875 0.60547,1.328125 0,0.898438 -0.46094,1.738282 -1.38672,2.519532 -0.9375,0.785156 -1.94141,1.175781 -3.00781,1.175781 -0.625,0 -1.15235,-0.164063 -1.58204,-0.488281 -0.40234,-0.351563 -0.60546,-0.796876 -0.60546,-1.332032 0,-0.898437 0.46875,-1.738281 1.40625,-2.519531 0.91015,-0.78125 1.90625,-1.171875 2.98828,-1.171875 z m 0,0"
       style="fill:#000000;fill-opacity:1;fill-rule:nonzero;stroke:none" />
    <path
       id="path394"
       d="m 136.05859,21.816402 c 0.625,0 1.15235,0.164062 1.58204,0.488281 0.40625,0.351563 0.60546,0.796875 0.60546,1.328125 0,0.898438 -0.46093,1.738282 -1.38671,2.519532 -0.9375,0.785156 -1.9375,1.175781 -3.00782,1.175781 -0.625,0 -1.15234,-0.164063 -1.58203,-0.488281 -0.40234,-0.351563 -0.60547,-0.796876 -0.60547,-1.332032 0,-0.898437 0.46875,-1.738281 1.40625,-2.519531 0.91407,-0.78125 1.91016,-1.171875 2.98828,-1.171875 z m 0,0"
       style="fill:#000000;fill-opacity:1;fill-rule:nonzero;stroke:none" />
    <path
       id="path396"
       d="m 198.75781,23.261714 c 0,-0.21875 -0.0859,-0.410156 -0.2539,-0.566406 -0.16797,-0.167968 -0.36328,-0.253906 -0.58594,-0.253906 -0.39063,0 -1.17969,0.390625 -2.36328,1.171875 -1.22266,0.796875 -1.97266,1.363281 -2.2461,1.699219 -0.14453,0.183594 -0.21484,0.371094 -0.21484,0.566406 0,0.222656 0.0859,0.410156 0.25391,0.570312 0.15625,0.167969 0.35156,0.253907 0.58593,0.253907 0.37891,0 1.17188,-0.394531 2.38282,-1.175781 1.19922,-0.78125 1.9414,-1.347657 2.22656,-1.699219 0.14453,-0.167969 0.21484,-0.355469 0.21484,-0.566407 z m -1.03515,-1.445312 c 1.12109,0 1.67968,0.484375 1.67968,1.445312 0,0.46875 -0.13671,1.015626 -0.41015,1.640626 -0.27344,0.613281 -0.63672,1.082031 -1.09375,1.40625 -1.00391,0.679687 -2.25781,1.019531 -3.76953,1.019531 -1.1211,0 -1.67969,-0.484375 -1.67969,-1.449219 0,-0.429688 0.13672,-0.96875 0.41016,-1.621094 0.26171,-0.625 0.625,-1.097656 1.09375,-1.425781 1.0039,-0.675781 2.25781,-1.015625 3.76953,-1.015625 z m 0,0"
       style="fill:#000000;fill-opacity:1;fill-rule:nonzero;stroke:none" />
    <path
       id="path398"
       d="m 178.46094,21.816402 c 0.625,0 1.15234,0.164062 1.58203,0.488281 0.40234,0.351563 0.60547,0.796875 0.60547,1.328125 0,0.898438 -0.46485,1.738282 -1.38672,2.519532 -0.9375,0.785156 -1.94141,1.175781 -3.00781,1.175781 -0.625,0 -1.15235,-0.164063 -1.58203,-0.488281 -0.40625,-0.351563 -0.60547,-0.796876 -0.60547,-1.332032 0,-0.898437 0.46875,-1.738281 1.40625,-2.519531 0.91015,-0.78125 1.90625,-1.171875 2.98828,-1.171875 z m 0,0"
       style="fill:#000000;fill-opacity:1;fill-rule:nonzero;stroke:none" />
    <path
       id="path400"
       d="m 167.85938,21.816402 c 0.625,0 1.15234,0.164062 1.58203,0.488281 0.40234,0.351563 0.60547,0.796875 0.60547,1.328125 0,0.898438 -0.46094,1.738282 -1.38672,2.519532 -0.9375,0.785156 -1.94141,1.175781 -3.00782,1.175781 -0.625,0 -1.15234,-0.164063 -1.58203,-0.488281 -0.40234,-0.351563 -0.60547,-0.796876 -0.60547,-1.332032 0,-0.898437 0.46875,-1.738281 1.40625,-2.519531 0.91016,-0.78125 1.90625,-1.171875 2.98829,-1.171875 z m 0,0"
       style="fill:#000000;fill-opacity:1;fill-rule:nonzero;stroke:none" />
    <path
       id="path402"
       d="m 238.98828,23.261714 c 0,-0.21875 -0.0859,-0.410156 -0.2539,-0.566406 -0.16797,-0.167968 -0.36329,-0.253906 -0.58594,-0.253906 -0.39063,0 -1.17969,0.390625 -2.36328,1.171875 -1.22266,0.796875 -1.97266,1.363281 -2.2461,1.699219 -0.14453,0.183594 -0.21484,0.371094 -0.21484,0.566406 0,0.222656 0.0859,0.410156 0.25391,0.570312 0.15625,0.167969 0.35156,0.253907 0.58593,0.253907 0.37891,0 1.17188,-0.394531 2.38282,-1.175781 1.19921,-0.78125 1.9414,-1.347657 2.22656,-1.699219 0.14453,-0.167969 0.21484,-0.355469 0.21484,-0.566407 z m -1.03515,-1.445312 c 1.12109,0 1.67968,0.484375 1.67968,1.445312 0,0.46875 -0.13672,1.015626 -0.41015,1.640626 -0.27344,0.613281 -0.63672,1.082031 -1.09375,1.40625 -1.00391,0.679687 -2.25782,1.019531 -3.76953,1.019531 -1.1211,0 -1.67969,-0.484375 -1.67969,-1.449219 0,-0.429688 0.13672,-0.96875 0.41015,-1.621094 0.26172,-0.625 0.625,-1.097656 1.09375,-1.425781 1.00391,-0.675781 2.25782,-1.015625 3.76954,-1.015625 z m 0,0"
       style="fill:#000000;fill-opacity:1;fill-rule:nonzero;stroke:none" />
    <path
       id="path404"
       d="m 217.48438,21.816402 c 0.625,0 1.15234,0.164062 1.58203,0.488281 0.40625,0.351563 0.60547,0.796875 0.60547,1.328125 0,0.898438 -0.46094,1.738282 -1.38672,2.519532 -0.9375,0.785156 -1.9375,1.175781 -3.00782,1.175781 -0.625,0 -1.15234,-0.164063 -1.58203,-0.488281 -0.40234,-0.351563 -0.60547,-0.796876 -0.60547,-1.332032 0,-0.898437 0.46875,-1.738281 1.40625,-2.519531 0.91407,-0.78125 1.91016,-1.171875 2.98829,-1.171875 z m 0,0"
       style="fill:#000000;fill-opacity:1;fill-rule:nonzero;stroke:none" />
    <path
       id="path406"
       d="m 266.75391,21.816402 c 0.625,0 1.15234,0.164062 1.58203,0.488281 0.40234,0.351563 0.60547,0.796875 0.60547,1.328125 0,0.898438 -0.46094,1.738282 -1.38672,2.519532 -0.9375,0.785156 -1.94141,1.175781 -3.00781,1.175781 -0.625,0 -1.15235,-0.164063 -1.58204,-0.488281 -0.40234,-0.351563 -0.60546,-0.796876 -0.60546,-1.332032 0,-0.898437 0.46875,-1.738281 1.40625,-2.519531 0.91015,-0.78125 1.90625,-1.171875 2.98828,-1.171875 z m 0,0"
       style="fill:#000000;fill-opacity:1;fill-rule:nonzero;stroke:none" />
    <path
       id="path408"
       d="m 257.53516,21.816402 c 0.625,0 1.15234,0.164062 1.58203,0.488281 0.40234,0.351563 0.60547,0.796875 0.60547,1.328125 0,0.898438 -0.46094,1.738282 -1.38672,2.519532 -0.9375,0.785156 -1.94141,1.175781 -3.00781,1.175781 -0.625,0 -1.15235,-0.164063 -1.58204,-0.488281 -0.40234,-0.351563 -0.60546,-0.796876 -0.60546,-1.332032 0,-0.898437 0.46875,-1.738281 1.40625,-2.519531 0.91015,-0.78125 1.90625,-1.171875 2.98828,-1.171875 z m 0,0"
       style="fill:#000000;fill-opacity:1;fill-rule:nonzero;stroke:none" />
    <path
       id="path458"
       d="m 299.80078,23.261714 c 0,-0.21875 -0.0859,-0.410156 -0.2539,-0.566406 -0.17188,-0.167968 -0.36719,-0.253906 -0.58594,-0.253906 -0.39063,0 -1.17969,0.390625 -2.36719,1.171875 -1.22266,0.796875 -1.97266,1.363281 -2.24609,1.699219 -0.14063,0.183594 -0.21485,0.371094 -0.21485,0.566406 0,0.222656 0.0859,0.410156 0.25391,0.570312 0.15625,0.167969 0.35156,0.253907 0.58594,0.253907 0.3789,0 1.17187,-0.394531 2.38281,-1.175781 1.19922,-0.78125 1.94141,-1.347657 2.23047,-1.699219 0.14062,-0.167969 0.21484,-0.355469 0.21484,-0.566407 z m -1.03515,-1.445312 c 1.11718,0 1.67968,0.484375 1.67968,1.445312 0,0.46875 -0.13672,1.015626 -0.41015,1.640626 -0.27344,0.613281 -0.64063,1.082031 -1.09375,1.40625 -1.00391,0.679687 -2.26172,1.019531 -3.77344,1.019531 -1.11719,0 -1.67969,-0.484375 -1.67969,-1.449219 0,-0.429688 0.13672,-0.96875 0.41016,-1.621094 0.26172,-0.625 0.625,-1.097656 1.09375,-1.425781 1.0039,-0.675781 2.26172,-1.015625 3.77344,-1.015625 z m 0,0"
       style="fill:#000000;fill-opacity:1;fill-rule:nonzero;stroke:none" />
    <path
       id="path460"
       d="m 285.13672,21.816402 c 0.625,0 1.15234,0.164062 1.58203,0.488281 0.40625,0.351563 0.60547,0.796875 0.60547,1.328125 0,0.898438 -0.46094,1.738282 -1.38672,2.519532 -0.9375,0.785156 -1.9375,1.175781 -3.00781,1.175781 -0.625,0 -1.15235,-0.164063 -1.58203,-0.488281 -0.40235,-0.351563 -0.60547,-0.796876 -0.60547,-1.332032 0,-0.898437 0.46875,-1.738281 1.40625,-2.519531 0.91406,-0.78125 1.91015,-1.171875 2.98828,-1.171875 z m 0,0"
       style="fill:#000000;fill-opacity:1;fill-rule:nonzero;stroke:none" />
    <path
       id="path462"
       d="m 347.01953,23.261714 c 0,-0.21875 -0.0859,-0.410156 -0.2539,-0.566406 -0.17188,-0.167968 -0.36719,-0.253906 -0.58594,-0.253906 -0.39063,0 -1.17969,0.390625 -2.36328,1.171875 -1.22657,0.796875 -1.97266,1.363281 -2.2461,1.699219 -0.14453,0.183594 -0.21484,0.371094 -0.21484,0.566406 0,0.222656 0.082,0.410156 0.25391,0.570312 0.15625,0.167969 0.35156,0.253907 0.58593,0.253907 0.375,0 1.17188,-0.394531 2.38282,-1.175781 1.19531,-0.78125 1.9375,-1.347657 2.22656,-1.699219 0.14062,-0.167969 0.21484,-0.355469 0.21484,-0.566407 z m -1.03515,-1.445312 c 1.11718,0 1.67968,0.484375 1.67968,1.445312 0,0.46875 -0.13672,1.015626 -0.41015,1.640626 -0.27344,0.613281 -0.64063,1.082031 -1.09375,1.40625 -1.00391,0.679687 -2.26172,1.019531 -3.76953,1.019531 -1.1211,0 -1.67969,-0.484375 -1.67969,-1.449219 0,-0.429688 0.13672,-0.96875 0.41015,-1.621094 0.25782,-0.625 0.625,-1.097656 1.09375,-1.425781 1,-0.675781 2.25782,-1.015625 3.76954,-1.015625 z m 0,0"
       style="fill:#000000;fill-opacity:1;fill-rule:nonzero;stroke:none" />
    <path
       id="path464"
       d="m 335.41797,21.816402 c 0.625,0 1.15234,0.164062 1.58203,0.488281 0.40234,0.351563 0.60547,0.796875 0.60547,1.328125 0,0.898438 -0.46484,1.738282 -1.38672,2.519532 -0.9375,0.785156 -1.94141,1.175781 -3.00781,1.175781 -0.625,0 -1.15235,-0.164063 -1.58203,-0.488281 -0.40625,-0.351563 -0.60547,-0.796876 -0.60547,-1.332032 0,-0.898437 0.46875,-1.738281 1.40625,-2.519531 0.91015,-0.78125 1.90625,-1.171875 2.98828,-1.171875 z m 0,0"
       style="fill:#000000;fill-opacity:1;fill-rule:nonzero;stroke:none" />
    <path
       id="path466"
       d="m 325.55078,21.816402 c 0.625,0 1.15235,0.164062 1.58203,0.488281 0.40235,0.351563 0.60547,0.796875 0.60547,1.328125 0,0.898438 -0.46484,1.738282 -1.38672,2.519532 -0.9375,0.785156 -1.9414,1.175781 -3.00781,1.175781 -0.625,0 -1.15234,-0.164063 -1.58203,-0.488281 -0.40625,-0.351563 -0.60547,-0.796876 -0.60547,-1.332032 0,-0.898437 0.46875,-1.738281 1.40625,-2.519531 0.91016,-0.78125 1.90625,-1.171875 2.98828,-1.171875 z m 0,0"
       style="fill:#000000;fill-opacity:1;fill-rule:nonzero;stroke:none" />
    <path
       id="path468"
       d="m 388.01563,21.816402 c 0.625,0 1.15234,0.164062 1.58203,0.488281 0.40234,0.351563 0.60547,0.796875 0.60547,1.328125 0,0.898438 -0.46094,1.738282 -1.38672,2.519532 -0.9375,0.785156 -1.94141,1.175781 -3.00782,1.175781 -0.625,0 -1.15234,-0.164063 -1.58203,-0.488281 -0.40234,-0.351563 -0.60547,-0.796876 -0.60547,-1.332032 0,-0.898437 0.46875,-1.738281 1.40625,-2.519531 0.91016,-0.78125 1.90625,-1.171875 2.98829,-1.171875 z m 0,0"
       style="fill:#000000;fill-opacity:1;fill-rule:nonzero;stroke:none" />
    <path
       id="path470"
       d="m 373.79297,21.816402 c 0.625,0 1.15234,0.164062 1.58203,0.488281 0.40625,0.351563 0.60547,0.796875 0.60547,1.328125 0,0.898438 -0.46094,1.738282 -1.38672,2.519532 -0.9375,0.785156 -1.94141,1.175781 -3.00781,1.175781 -0.625,0 -1.15235,-0.164063 -1.58203,-0.488281 -0.40235,-0.351563 -0.60547,-0.796876 -0.60547,-1.332032 0,-0.898437 0.46875,-1.738281 1.40625,-2.519531 0.91015,-0.78125 1.90625,-1.171875 2.98828,-1.171875 z m 0,0"
       style="fill:#000000;fill-opacity:1;fill-rule:nonzero;stroke:none" />
    <path
       id="path472"
       d="m 411.125,21.816402 c 0.625,0 1.15234,0.164062 1.58203,0.488281 0.40625,0.351563 0.60547,0.796875 0.60547,1.328125 0,0.898438 -0.46094,1.738282 -1.38672,2.519532 -0.9375,0.785156 -1.9375,1.175781 -3.00781,1.175781 -0.625,0 -1.15234,-0.164063 -1.58203,-0.488281 -0.40235,-0.351563 -0.60547,-0.796876 -0.60547,-1.332032 0,-0.898437 0.46875,-1.738281 1.40625,-2.519531 0.91406,-0.78125 1.91016,-1.171875 2.98828,-1.171875 z m 0,0"
       style="fill:#000000;fill-opacity:1;fill-rule:nonzero;stroke:none" />
    <path
       id="path474"
       d="m 402.23828,21.816402 c 0.625,0 1.15235,0.164062 1.58203,0.488281 0.40235,0.351563 0.60547,0.796875 0.60547,1.328125 0,0.898438 -0.46094,1.738282 -1.38672,2.519532 -0.9375,0.785156 -1.9414,1.175781 -3.00781,1.175781 -0.625,0 -1.15234,-0.164063 -1.58203,-0.488281 -0.40625,-0.351563 -0.60547,-0.796876 -0.60547,-1.332032 0,-0.898437 0.46875,-1.738281 1.40625,-2.519531 0.91016,-0.78125 1.90625,-1.171875 2.98828,-1.171875 z m 0,0"
       style="fill:#000000;fill-opacity:1;fill-rule:nonzero;stroke:none" />
    <path
       id="path596"
       d="m 14.292969,21.953121 c 0,0 0.03906,0 0.117187,0 0.05078,-0.01172 0.09766,-0.01953 0.136719,-0.01953 1.457031,0 2.65625,0.515624 3.59375,1.542968 0.9375,1.015625 1.40625,2.203125 1.40625,3.558594 0,1.679688 -0.695312,3.046875 -2.089843,4.101562 -0.363282,0.285157 -0.839844,0.519532 -1.425782,0.703126 0.06641,0.84375 0.09766,1.527343 0.09766,2.050781 0,0.101562 -0.01172,0.480469 -0.03906,1.132812 -0.05078,1.210938 -0.46875,2.257813 -1.25,3.144531 -0.753906,0.871094 -1.691406,1.308594 -2.8125,1.308594 -1.054688,0 -1.953125,-0.371094 -2.695312,-1.113281 -0.742194,-0.757814 -1.113288,-1.66797 -1.113288,-2.734376 0,-0.5625 0.214844,-1.035156 0.644532,-1.425781 0.441406,-0.390625 0.957031,-0.585938 1.542968,-0.585938 0.519532,0 0.957032,0.199219 1.308594,0.605469 0.363281,0.375 0.546875,0.84375 0.546875,1.40625 0,0.507812 -0.183594,0.941406 -0.546875,1.308594 -0.363281,0.363281 -0.800781,0.546875 -1.308594,0.546875 -0.207031,0 -0.410156,-0.03906 -0.605468,-0.117188 0.574218,0.84375 1.335937,1.269531 2.285156,1.269531 0.898437,0 1.632812,-0.367187 2.207031,-1.09375 0.597656,-0.757812 0.925781,-1.636718 0.976563,-2.636718 0.02734,-0.625 0.03906,-0.984375 0.03906,-1.074219 0,-0.730469 -0.02734,-1.328125 -0.07813,-1.796875 -0.652344,0.101562 -1.230469,0.15625 -1.738281,0.15625 -1.808594,0 -3.351563,-0.71875 -4.628906,-2.148438 -1.25,-1.445312 -1.875,-3.164062 -1.875,-5.160156 0,-0.414062 0.039062,-0.839844 0.117187,-1.269531 C 7.183594,23.261714 7.28125,22.878902 7.398438,22.460933 7.464844,22.226558 7.640625,21.851558 7.925782,21.328121 8.03125,21.171871 8.148438,20.976558 8.277344,20.742183 8.40625,20.507808 8.5,20.351558 8.550782,20.273433 8.679688,20.015621 8.933594,19.664058 9.3125,19.218746 c 0.105469,-0.117188 0.210938,-0.246094 0.320313,-0.390625 0.113281,-0.140625 0.207031,-0.257813 0.285156,-0.351563 0.078125,-0.08984 0.136719,-0.160156 0.175781,-0.214844 0.03906,-0.05078 0.332032,-0.394531 0.878906,-1.035156 0.128907,-0.128906 0.257813,-0.269531 0.382813,-0.417968 0.121094,-0.148438 0.222656,-0.265626 0.300781,-0.351563 0.07813,-0.08594 0.136719,-0.148437 0.175782,-0.1875 -0.46875,-1.546875 -0.761719,-2.785156 -0.878907,-3.710937 -0.08984,-0.742188 -0.136719,-1.757813 -0.136719,-3.046876 0,-1.132812 0.261719,-2.191406 0.78125,-3.183593 C 12.105469,5.300777 12.816406,4.460933 13.726563,3.80859 13.792973,3.76953 13.855469,3.75 13.921875,3.75 c 0.08984,0 0.15625,0.01953 0.195313,0.05859 0.703125,0.847656 1.308594,1.945312 1.816406,3.300781 0.519531,1.355469 0.78125,2.585937 0.78125,3.691406 0,1.25 -0.300781,2.421875 -0.898438,3.515625 -0.675781,1.160156 -1.550781,2.359375 -2.617187,3.59375 0.273437,0.859375 0.636719,2.207031 1.09375,4.042969 z m 1.660156,9.085937 c 0.675781,-0.25 1.203125,-0.671875 1.582031,-1.269531 0.417969,-0.574219 0.625,-1.21875 0.625,-1.933594 0,-0.925781 -0.3125,-1.746093 -0.9375,-2.464843 -0.636718,-0.742188 -1.453124,-1.15625 -2.441406,-1.25 0.558594,2.75 0.949219,5.054687 1.171875,6.917968 z M 8.394532,26.52734 c 0,1.289062 0.519531,2.421874 1.5625,3.398437 1.066406,0.949219 2.265624,1.425781 3.59375,1.425781 0.546874,0 1.082031,-0.03906 1.601562,-0.117187 -0.207031,-1.980469 -0.617188,-4.351563 -1.230469,-7.113281 -0.742187,0.07812 -1.335937,0.339843 -1.777343,0.78125 C 11.714844,25.359371 11.5,25.874996 11.5,26.449214 c 0,0.988282 0.527344,1.789063 1.582032,2.402344 0.08984,0.08984 0.136718,0.1875 0.136718,0.292969 0,0.101563 -0.04687,0.199219 -0.136718,0.292969 -0.07813,0.08984 -0.175782,0.136718 -0.292969,0.136718 -0.01172,0 -0.07031,-0.01562 -0.175781,-0.03906 -0.742188,-0.40625 -1.316407,-0.925781 -1.71875,-1.5625 -0.378907,-0.679688 -0.566407,-1.363281 -0.566407,-2.054688 0,-0.898437 0.28125,-1.710937 0.839844,-2.441406 0.585937,-0.726562 1.347656,-1.195312 2.285156,-1.40625 -0.363281,-1.457031 -0.664062,-2.597656 -0.898437,-3.417968 -0.207032,0.234374 -0.457032,0.519531 -0.75,0.851562 -0.292969,0.332031 -0.46875,0.53125 -0.519532,0.59375 -0.46875,0.613281 -0.828124,1.089844 -1.074218,1.425781 C 9.769532,22.136716 9.441406,22.66406 9.234375,23.105466 9.011719,23.60156 8.816406,24.140623 8.648438,24.72656 8.480469,25.28906 8.394532,25.886716 8.394532,26.527342 Z M 14.917969,6.660152 c -0.976563,0.484375 -1.746094,1.171875 -2.304687,2.070312 -0.574219,0.925782 -0.859376,1.921876 -0.859376,2.988282 0,0.9375 0.234376,2.203125 0.703126,3.789062 0.9375,-1.132812 1.640624,-2.179687 2.109374,-3.144531 0.496094,-1.015625 0.742188,-2.074219 0.742188,-3.183594 0,-0.832031 -0.128906,-1.671875 -0.390625,-2.519531 z m 0,0"
       style="fill:#000000;fill-opacity:1;fill-rule:nonzero;stroke:none" />
    <path
       id="path606"
       d="m 28.28125,16.953121 c -0.496094,0 -0.800781,0.195312 -0.917968,0.585937 -0.09375,0.289063 -0.136719,0.769532 -0.136719,1.445313 v 0.585937 c 0,0.679688 0.04297,1.160156 0.136719,1.445313 0.117187,0.390625 0.421874,0.585937 0.917968,0.585937 0.546875,0 0.890625,-0.226562 1.035156,-0.683594 0.128907,-0.429687 0.195313,-0.976562 0.195313,-1.640624 0,-0.765626 -0.07422,-1.347657 -0.214844,-1.738282 -0.15625,-0.390625 -0.496093,-0.585937 -1.015625,-0.585937 z m -1.054687,-0.195313 c 0.390625,-0.15625 0.742187,-0.246094 1.054687,-0.273437 1.039063,0 1.875,0.234375 2.5,0.703125 0.597656,0.484375 0.898438,1.171875 0.898438,2.070312 0,0.914063 -0.308594,1.617188 -0.917969,2.109375 -0.613281,0.46875 -1.441406,0.703125 -2.480469,0.703125 -1.070312,0 -1.902344,-0.492187 -2.5,-1.484375 -0.601562,-0.988281 -0.898437,-2.160156 -0.898437,-3.515625 0,-1.328125 0.351562,-2.5 1.054687,-3.515625 0.714844,-0.988281 1.632813,-1.484375 2.753906,-1.484375 0.726563,0 1.371094,0.191406 1.933594,0.566406 0.546875,0.378907 0.820313,0.875 0.820313,1.484376 0,0.378906 -0.132813,0.691406 -0.390625,0.9375 -0.234375,0.261718 -0.535156,0.390624 -0.898438,0.390624 -0.367187,0 -0.679687,-0.128906 -0.9375,-0.390624 -0.261718,-0.257813 -0.390625,-0.570313 -0.390625,-0.9375 0,-0.140626 0.128907,-0.304688 0.390625,-0.488282 0.257813,-0.15625 0.390625,-0.316406 0.390625,-0.488281 0,-0.179687 -0.09375,-0.332031 -0.273437,-0.449219 -0.210938,-0.101562 -0.425782,-0.15625 -0.644532,-0.15625 -0.601562,0 -0.996093,0.242188 -1.191406,0.722656 -0.210937,0.46875 -0.3125,1.152344 -0.3125,2.050782 0,0.261718 0.0039,0.503906 0.01953,0.722656 0.01172,0.222656 0.01953,0.464844 0.01953,0.722656 z m 0,0"
       style="fill:#000000;fill-opacity:1;fill-rule:nonzero;stroke:none" />
    <path
       id="path608"
       d="m 29.714844,26.30859 c 0.648438,-0.714844 0.976562,-1.390626 0.976562,-2.03125 0,-0.53125 -0.230468,-0.957032 -0.683593,-1.269532 -0.445313,-0.3125 -0.992188,-0.46875 -1.640625,-0.46875 -0.457032,0 -0.820313,0.144532 -1.09375,0.429688 -0.273438,0.289062 -0.410156,0.613281 -0.410156,0.976562 0,0.457032 0.199218,0.808594 0.605468,1.054688 z m 0.605469,0.335937 c 1.105469,0.636719 1.660156,1.488281 1.660156,2.558594 0,0.792969 -0.332031,1.464843 -0.996094,2.011719 -0.664062,0.570312 -1.597656,0.859374 -2.792969,0.859374 -1.015624,0 -1.871093,-0.261718 -2.558593,-0.78125 -0.730469,-0.523437 -1.09375,-1.191406 -1.09375,-2.011718 0,-0.300782 0.08984,-0.621094 0.273437,-0.957032 0.167969,-0.300781 0.335938,-0.535156 0.507813,-0.703124 0.07813,-0.105469 0.324219,-0.351563 0.742187,-0.742188 -0.808594,-0.574219 -1.21875,-1.285156 -1.230468,-2.132812 0,-0.714844 0.316406,-1.347657 0.957031,-1.894532 0.636719,-0.519531 1.496093,-0.78125 2.578125,-0.78125 0.859375,0 1.613281,0.195313 2.265625,0.585938 0.625,0.390625 0.9375,0.933594 0.9375,1.621094 -0.02734,0.703124 -0.445313,1.492187 -1.25,2.367187 z m -3.652344,0.585937 c -0.808594,0.714844 -1.226563,1.398438 -1.25,2.050782 0,0.664062 0.277344,1.214844 0.839844,1.660156 0.53125,0.441406 1.175781,0.664062 1.933593,0.664062 0.53125,0 0.949219,-0.171874 1.25,-0.507812 0.3125,-0.3125 0.46875,-0.699219 0.46875,-1.152344 0,-0.5625 -0.230468,-0.972656 -0.683593,-1.230468 z m 0,0"
       style="fill:#000000;fill-opacity:1;fill-rule:nonzero;stroke:none" />
    <path
       id="path628"
       d="m 158.79688,9.570308 h 21.85156 v 2.5 h -21.85156 z m 0,0"
       style="fill:#000000;fill-opacity:1;fill-rule:evenodd;stroke:none" />
    <path
       id="path630"
       d="m 127,9.570308 h 21.84766 v 2.5 H 127 Z m 0,0"
       style="fill:#000000;fill-opacity:1;fill-rule:evenodd;stroke:none" />
    <path
       id="path632"
       d="m 259.07422,9.570308 h 9.86719 v 2.5 h -9.86719 z m 0,0"
       style="fill:#000000;fill-opacity:1;fill-rule:evenodd;stroke:none" />
    <path
       id="path642"
       d="m 327.08594,9.570308 h 10.51953 v 2.5 h -10.51953 z m 0,0"
       style="fill:#000000;fill-opacity:1;fill-rule:evenodd;stroke:none" />
    <path
       id="path644"
       d="m 403.77734,9.570308 h 9.53907 v 2.5 h -9.53907 z m 0,0"
       style="fill:#000000;fill-opacity:1;fill-rule:evenodd;stroke:none" />
    <path
       id="path706"
       d="m 49.816406,25.37109 c -0.222656,-0.21875 -0.332031,-0.488282 -0.332031,-0.800782 0,-0.3125 0.109375,-0.578125 0.332031,-0.800781 0.21875,-0.21875 0.488282,-0.332031 0.800782,-0.332031 0.3125,0 0.578125,0.113281 0.800781,0.332031 0.21875,0.222656 0.332031,0.488281 0.332031,0.800781 0,0.3125 -0.113281,0.582032 -0.332031,0.800782 -0.222656,0.222656 -0.488281,0.332031 -0.800781,0.332031 -0.3125,0 -0.582032,-0.109375 -0.800782,-0.332031 z m 0,0"
       style="fill:#000000;fill-opacity:1;fill-rule:nonzero;stroke:none" />
  </g>
</svg>
