<?xml version="1.0" encoding="UTF-8" standalone="no"?>
<svg
   xmlns:dc="http://purl.org/dc/elements/1.1/"
   xmlns:cc="http://creativecommons.org/ns#"
   xmlns:rdf="http://www.w3.org/1999/02/22-rdf-syntax-ns#"
   xmlns:svg="http://www.w3.org/2000/svg"
   xmlns="http://www.w3.org/2000/svg"
   xmlns:sodipodi="http://sodipodi.sourceforge.net/DTD/sodipodi-0.dtd"
   xmlns:inkscape="http://www.inkscape.org/namespaces/inkscape"
   inkscape:version="1.0 (4035a4f, 2020-05-01)"
   sodipodi:docname="ternary_rhythms_4.svg"
   id="svg733"
   version="1.2"
   viewBox="0 0 430 50"
   height="50pt"
   width="430pt">
  <metadata
     id="metadata739">
    <rdf:RDF>
      <cc:Work
         rdf:about="">
        <dc:format>image/svg+xml</dc:format>
        <dc:type
           rdf:resource="http://purl.org/dc/dcmitype/StillImage" />
        <dc:title></dc:title>
      </cc:Work>
    </rdf:RDF>
  </metadata>
  <defs
     id="defs737" />
  <sodipodi:namedview
     inkscape:current-layer="surface3248"
     inkscape:window-maximized="1"
     inkscape:window-y="23"
     inkscape:window-x="0"
     inkscape:cy="561.33337"
     inkscape:cx="396.66667"
     inkscape:zoom="0.57630637"
     showgrid="false"
     id="namedview735"
     inkscape:window-height="855"
     inkscape:window-width="1440"
     inkscape:pageshadow="2"
     inkscape:pageopacity="0"
     guidetolerance="10"
     gridtolerance="10"
     objecttolerance="10"
     borderopacity="1"
     bordercolor="#666666"
     pagecolor="#ffffff" />
  <g
     id="surface3248">
    <path
       id="path54"
       d="m 3.75,12.07029 h 96.117188 m -96.117188,5 h 96.117188 m -96.117188,5 h 96.117188 m -96.117188,5 h 96.117188 m -96.117188,5 h 96.117188"
       style="fill:none;stroke:#000000;stroke-width:0.400025;stroke-linecap:butt;stroke-linejoin:bevel;stroke-miterlimit:10;stroke-opacity:1" />
    <path
       id="path58"
       d="m 99.867188,12.07029 h 61.449222 m -61.449222,5 h 61.449222 m -61.449222,5 h 61.449222 m -61.449222,5 h 61.449222 m -61.449222,5 h 61.449222"
       style="fill:none;stroke:#000000;stroke-width:0.400025;stroke-linecap:butt;stroke-linejoin:bevel;stroke-miterlimit:10;stroke-opacity:1" />
    <path
       id="path62"
       d="m 161.31641,12.07029 h 62.59765 m -62.59765,5 h 62.59765 m -62.59765,5 h 62.59765 m -62.59765,5 h 62.59765 m -62.59765,5 h 62.59765"
       style="fill:none;stroke:#000000;stroke-width:0.400025;stroke-linecap:butt;stroke-linejoin:bevel;stroke-miterlimit:10;stroke-opacity:1" />
    <path
       id="path66"
       d="m 223.91406,12.07029 h 69.27735 m -69.27735,5 h 69.27735 m -69.27735,5 h 69.27735 m -69.27735,5 h 69.27735 m -69.27735,5 h 69.27735"
       style="fill:none;stroke:#000000;stroke-width:0.400025;stroke-linecap:butt;stroke-linejoin:bevel;stroke-miterlimit:10;stroke-opacity:1" />
    <path
       id="path70"
       d="m 293.19141,12.07029 h 61.44922 m -61.44922,5 h 61.44922 m -61.44922,5 h 61.44922 m -61.44922,5 h 61.44922 m -61.44922,5 h 61.44922"
       style="fill:none;stroke:#000000;stroke-width:0.400025;stroke-linecap:butt;stroke-linejoin:bevel;stroke-miterlimit:10;stroke-opacity:1" />
    <path
       id="path74"
       d="m 354.64063,12.07029 h 64.07421 m -64.07421,5 h 64.07421 m -64.07421,5 h 64.07421 m -64.07421,5 h 64.07421 m -64.07421,5 h 64.07421"
       style="fill:none;stroke:#000000;stroke-width:0.371043;stroke-linecap:butt;stroke-linejoin:bevel;stroke-miterlimit:10;stroke-opacity:1" />
    <path
       id="path118"
       d="m 99.46875,12.07029 v 20"
       style="fill:none;stroke:#000000;stroke-width:0.80005;stroke-linecap:butt;stroke-linejoin:bevel;stroke-miterlimit:10;stroke-opacity:1" />
    <path
       id="path122"
       d="m 160.91406,12.07029 v 20"
       style="fill:none;stroke:#000000;stroke-width:0.80005;stroke-linecap:butt;stroke-linejoin:bevel;stroke-miterlimit:10;stroke-opacity:1" />
    <path
       id="path126"
       d="m 223.51172,12.07029 v 20"
       style="fill:none;stroke:#000000;stroke-width:0.80005;stroke-linecap:butt;stroke-linejoin:bevel;stroke-miterlimit:10;stroke-opacity:1" />
    <path
       id="path130"
       d="m 292.79297,12.07029 v 20"
       style="fill:none;stroke:#000000;stroke-width:0.80005;stroke-linecap:butt;stroke-linejoin:bevel;stroke-miterlimit:10;stroke-opacity:1" />
    <path
       id="path134"
       d="m 354.23828,12.07029 v 20"
       style="fill:none;stroke:#000000;stroke-width:0.80005;stroke-linecap:butt;stroke-linejoin:bevel;stroke-miterlimit:10;stroke-opacity:1" />
    <path
       id="path138"
       d="m 418.71484,12.07029 v 20"
       style="fill:none;stroke:#000000;stroke-width:0.80005;stroke-linecap:butt;stroke-linejoin:bevel;stroke-miterlimit:10;stroke-opacity:1" />
    <path
       id="path282"
       d="M 47.046875,23.63279 V 10.82029"
       style="fill:none;stroke:#000000;stroke-width:0.650041;stroke-linecap:round;stroke-linejoin:bevel;stroke-miterlimit:10;stroke-opacity:1" />
    <path
       id="path290"
       d="M 68.253906,23.63279 V 8.32029"
       style="fill:none;stroke:#000000;stroke-width:0.650041;stroke-linecap:round;stroke-linejoin:bevel;stroke-miterlimit:10;stroke-opacity:1" />
    <path
       id="path292"
       d="M 57.648438,23.63279 V 10.82029"
       style="fill:none;stroke:#000000;stroke-width:0.650041;stroke-linecap:round;stroke-linejoin:bevel;stroke-miterlimit:10;stroke-opacity:1" />
    <path
       id="path298"
       d="M 112.125,23.63279 V 8.32029"
       style="fill:none;stroke:#000000;stroke-width:0.650041;stroke-linecap:round;stroke-linejoin:bevel;stroke-miterlimit:10;stroke-opacity:1" />
    <path
       id="path300"
       d="M 88.9375,23.63279 V 8.32029"
       style="fill:none;stroke:#000000;stroke-width:0.650041;stroke-linecap:round;stroke-linejoin:bevel;stroke-miterlimit:10;stroke-opacity:1" />
    <path
       id="path306"
       d="M 143.69141,23.63279 V 8.32029"
       style="fill:none;stroke:#000000;stroke-width:0.650041;stroke-linecap:round;stroke-linejoin:bevel;stroke-miterlimit:10;stroke-opacity:1" />
    <path
       id="path308"
       d="M 131.05469,23.63279 V 8.32029"
       style="fill:none;stroke:#000000;stroke-width:0.650041;stroke-linecap:round;stroke-linejoin:bevel;stroke-miterlimit:10;stroke-opacity:1" />
    <path
       id="path316"
       d="M 186.57422,23.80076 V 8.32029"
       style="fill:none;stroke:#000000;stroke-width:0.650041;stroke-linecap:round;stroke-linejoin:bevel;stroke-miterlimit:10;stroke-opacity:1" />
    <path
       id="path318"
       d="M 173.57422,23.63279 V 8.32029"
       style="fill:none;stroke:#000000;stroke-width:0.650041;stroke-linecap:round;stroke-linejoin:bevel;stroke-miterlimit:10;stroke-opacity:1" />
    <path
       id="path324"
       d="M 236.17188,23.63279 V 8.32029"
       style="fill:none;stroke:#000000;stroke-width:0.650041;stroke-linecap:round;stroke-linejoin:bevel;stroke-miterlimit:10;stroke-opacity:1" />
    <path
       id="path326"
       d="M 212.98047,23.63279 V 8.32029"
       style="fill:none;stroke:#000000;stroke-width:0.650041;stroke-linecap:round;stroke-linejoin:bevel;stroke-miterlimit:10;stroke-opacity:1" />
    <path
       id="path334"
       d="M 273.42188,23.63279 V 10.82029"
       style="fill:none;stroke:#000000;stroke-width:0.650041;stroke-linecap:round;stroke-linejoin:bevel;stroke-miterlimit:10;stroke-opacity:1" />
    <path
       id="path336"
       d="M 248.80859,23.63279 V 8.32029"
       style="fill:none;stroke:#000000;stroke-width:0.650041;stroke-linecap:round;stroke-linejoin:bevel;stroke-miterlimit:10;stroke-opacity:1" />
    <path
       id="path340"
       d="M 305.45313,23.63279 V 8.32029"
       style="fill:none;stroke:#000000;stroke-width:0.650041;stroke-linecap:round;stroke-linejoin:bevel;stroke-miterlimit:10;stroke-opacity:1" />
    <path
       id="path342"
       d="M 286.03516,23.63279 V 10.82029"
       style="fill:none;stroke:#000000;stroke-width:0.650041;stroke-linecap:round;stroke-linejoin:bevel;stroke-miterlimit:10;stroke-opacity:1" />
    <path
       id="path350"
       d="M 341.16797,23.63279 V 8.32029"
       style="fill:none;stroke:#000000;stroke-width:0.650041;stroke-linecap:round;stroke-linejoin:bevel;stroke-miterlimit:10;stroke-opacity:1" />
    <path
       id="path352"
       d="M 318.08984,23.63279 V 8.32029"
       style="fill:none;stroke:#000000;stroke-width:0.650041;stroke-linecap:round;stroke-linejoin:bevel;stroke-miterlimit:10;stroke-opacity:1" />
    <path
       id="path358"
       d="M 378.54688,23.63279 V 10.82029"
       style="fill:none;stroke:#000000;stroke-width:0.650041;stroke-linecap:round;stroke-linejoin:bevel;stroke-miterlimit:10;stroke-opacity:1" />
    <path
       id="path360"
       d="M 366.89844,23.63279 V 10.82029"
       style="fill:none;stroke:#000000;stroke-width:0.650041;stroke-linecap:round;stroke-linejoin:bevel;stroke-miterlimit:10;stroke-opacity:1" />
    <path
       id="path364"
       d="M 401.84766,23.63279 V 8.32029"
       style="fill:none;stroke:#000000;stroke-width:0.650041;stroke-linecap:round;stroke-linejoin:bevel;stroke-miterlimit:10;stroke-opacity:1" />
    <path
       id="path366"
       d="M 390.19531,23.63279 V 10.82029"
       style="fill:none;stroke:#000000;stroke-width:0.650041;stroke-linecap:round;stroke-linejoin:bevel;stroke-miterlimit:10;stroke-opacity:1" />
    <path
       id="path508"
       d="m 45.183594,21.81638 c 0.625,0 1.152344,0.16406 1.582031,0.48828 0.402344,0.35156 0.605469,0.79297 0.605469,1.32813 0,0.89843 -0.460938,1.73828 -1.386719,2.51953 -0.9375,0.78125 -1.941406,1.17187 -3.007812,1.17187 -0.625,0 -1.152344,-0.16406 -1.582031,-0.48828 -0.402344,-0.35156 -0.605469,-0.79297 -0.605469,-1.32812 0,-0.89844 0.46875,-1.73828 1.40625,-2.51953 0.910156,-0.78125 1.90625,-1.17188 2.988281,-1.17188 z m 0,0"
       style="fill:#000000;fill-opacity:1;fill-rule:nonzero;stroke:none" />
    <path
       id="path512"
       d="m 87.074219,21.81638 c 0.625,0 1.152344,0.16406 1.582031,0.48828 0.402344,0.35156 0.605469,0.79297 0.605469,1.32813 0,0.89843 -0.460937,1.73828 -1.386719,2.51953 -0.9375,0.78125 -1.941406,1.17187 -3.007812,1.17187 -0.625,0 -1.152344,-0.16406 -1.582032,-0.48828 -0.402343,-0.35156 -0.605468,-0.79297 -0.605468,-1.32812 0,-0.89844 0.46875,-1.73828 1.40625,-2.51953 0.910156,-0.78125 1.90625,-1.17188 2.988281,-1.17188 z m 0,0"
       style="fill:#000000;fill-opacity:1;fill-rule:nonzero;stroke:none" />
    <path
       id="path514"
       d="m 66.390625,21.81638 c 0.625,0 1.152344,0.16406 1.582031,0.48828 0.402344,0.35156 0.605469,0.79297 0.605469,1.32813 0,0.89843 -0.464843,1.73828 -1.386719,2.51953 -0.9375,0.78125 -1.941406,1.17187 -3.007812,1.17187 -0.625,0 -1.15625,-0.16406 -1.585938,-0.48828 -0.402343,-0.35156 -0.605468,-0.79297 -0.605468,-1.32812 0,-0.89844 0.46875,-1.73828 1.410156,-2.51953 0.910156,-0.78125 1.90625,-1.17188 2.988281,-1.17188 z m 0,0"
       style="fill:#000000;fill-opacity:1;fill-rule:nonzero;stroke:none" />
    <path
       id="path516"
       d="m 55.785156,21.81638 c 0.625,0 1.152344,0.16406 1.582032,0.48828 0.40625,0.35156 0.605468,0.79297 0.605468,1.32813 0,0.89843 -0.460937,1.73828 -1.386718,2.51953 -0.9375,0.78125 -1.9375,1.17187 -3.007813,1.17187 -0.625,0 -1.152343,-0.16406 -1.582031,-0.48828 -0.402344,-0.35156 -0.605469,-0.79297 -0.605469,-1.32812 0,-0.89844 0.46875,-1.73828 1.40625,-2.51953 0.914063,-0.78125 1.910157,-1.17188 2.988281,-1.17188 z m 0,0"
       style="fill:#000000;fill-opacity:1;fill-rule:nonzero;stroke:none" />
    <path
       id="path524"
       d="m 110.26172,21.81638 c 0.625,0 1.15234,0.16406 1.58203,0.48828 0.40625,0.35156 0.60547,0.79297 0.60547,1.32813 0,0.89843 -0.46094,1.73828 -1.38672,2.51953 -0.9375,0.78125 -1.9375,1.17187 -3.00781,1.17187 -0.625,0 -1.15235,-0.16406 -1.58203,-0.48828 -0.40235,-0.35156 -0.60547,-0.79297 -0.60547,-1.32812 0,-0.89844 0.46875,-1.73828 1.40625,-2.51953 0.91406,-0.78125 1.91015,-1.17188 2.98828,-1.17188 z m 0,0"
       style="fill:#000000;fill-opacity:1;fill-rule:nonzero;stroke:none" />
    <path
       id="path532"
       d="m 141.82813,21.81638 c 0.625,0 1.15234,0.16406 1.58203,0.48828 0.40625,0.35156 0.60547,0.79297 0.60547,1.32813 0,0.89843 -0.46094,1.73828 -1.38672,2.51953 -0.9375,0.78125 -1.9375,1.17187 -3.00782,1.17187 -0.625,0 -1.15234,-0.16406 -1.58203,-0.48828 -0.40234,-0.35156 -0.60547,-0.79297 -0.60547,-1.32812 0,-0.89844 0.46875,-1.73828 1.40625,-2.51953 0.91407,-0.78125 1.91016,-1.17188 2.98829,-1.17188 z m 0,0"
       style="fill:#000000;fill-opacity:1;fill-rule:nonzero;stroke:none" />
    <path
       id="path534"
       d="m 129.19141,21.81638 c 0.625,0 1.15234,0.16406 1.58203,0.48828 0.40234,0.35156 0.60547,0.79297 0.60547,1.32813 0,0.89843 -0.46094,1.73828 -1.38672,2.51953 -0.9375,0.78125 -1.94141,1.17187 -3.00781,1.17187 -0.625,0 -1.15235,-0.16406 -1.58204,-0.48828 -0.40234,-0.35156 -0.60546,-0.79297 -0.60546,-1.32812 0,-0.89844 0.46875,-1.73828 1.40625,-2.51953 0.91015,-0.78125 1.90625,-1.17188 2.98828,-1.17188 z m 0,0"
       style="fill:#000000;fill-opacity:1;fill-rule:nonzero;stroke:none" />
    <path
       id="path538"
       d="m 186.26172,23.26169 c 0,-0.22265 -0.082,-0.41015 -0.25391,-0.5664 -0.16797,-0.16797 -0.36328,-0.25391 -0.58593,-0.25391 -0.39063,0 -1.17579,0.39063 -2.36329,1.17188 -1.22265,0.79296 -1.97265,1.35937 -2.24609,1.69921 -0.14062,0.1836 -0.21484,0.3711 -0.21484,0.56641 0,0.22266 0.0859,0.41016 0.2539,0.56641 0.15625,0.16797 0.35157,0.2539 0.58594,0.2539 0.37891,0 1.17188,-0.39062 2.38281,-1.17187 1.19922,-0.78125 1.94141,-1.34766 2.22657,-1.69922 0.14453,-0.16797 0.21484,-0.35938 0.21484,-0.56641 z m -1.03516,-1.44531 c 1.1211,0 1.67969,0.48047 1.67969,1.44531 0,0.46875 -0.13672,1.01563 -0.41016,1.64063 -0.27343,0.61328 -0.63671,1.08203 -1.09375,1.40625 -1,0.67578 -2.25781,1.01562 -3.76953,1.01562 -1.11718,0 -1.67968,-0.48047 -1.67968,-1.44531 0,-0.42969 0.13671,-0.96875 0.41015,-1.62109 0.26172,-0.625 0.625,-1.10157 1.09375,-1.42578 1.00391,-0.67579 2.26172,-1.01563 3.76953,-1.01563 z m 0,0"
       style="fill:#000000;fill-opacity:1;fill-rule:nonzero;stroke:none" />
    <path
       id="path540"
       d="m 171.71094,21.81638 c 0.625,0 1.15234,0.16406 1.58203,0.48828 0.40234,0.35156 0.60547,0.79297 0.60547,1.32813 0,0.89843 -0.46094,1.73828 -1.38672,2.51953 -0.9375,0.78125 -1.94141,1.17187 -3.00781,1.17187 -0.625,0 -1.15235,-0.16406 -1.58203,-0.48828 -0.40625,-0.35156 -0.60547,-0.79297 -0.60547,-1.32812 0,-0.89844 0.46875,-1.73828 1.40625,-2.51953 0.91015,-0.78125 1.90625,-1.17188 2.98828,-1.17188 z m 0,0"
       style="fill:#000000;fill-opacity:1;fill-rule:nonzero;stroke:none" />
    <path
       id="path550"
       d="m 234.30859,21.81638 c 0.625,0 1.15235,0.16406 1.58204,0.48828 0.40234,0.35156 0.60546,0.79297 0.60546,1.32813 0,0.89843 -0.46484,1.73828 -1.38671,2.51953 -0.9375,0.78125 -1.94141,1.17187 -3.00782,1.17187 -0.625,0 -1.15234,-0.16406 -1.58203,-0.48828 -0.40625,-0.35156 -0.60547,-0.79297 -0.60547,-1.32812 0,-0.89844 0.46875,-1.73828 1.40625,-2.51953 0.91016,-0.78125 1.90625,-1.17188 2.98828,-1.17188 z m 0,0"
       style="fill:#000000;fill-opacity:1;fill-rule:nonzero;stroke:none" />
    <path
       id="path552"
       d="m 211.11719,21.81638 c 0.625,0 1.15234,0.16406 1.58203,0.48828 0.40625,0.35156 0.60547,0.79297 0.60547,1.32813 0,0.89843 -0.46094,1.73828 -1.38672,2.51953 -0.9375,0.78125 -1.9375,1.17187 -3.00781,1.17187 -0.625,0 -1.15235,-0.16406 -1.58203,-0.48828 -0.40235,-0.35156 -0.60547,-0.79297 -0.60547,-1.32812 0,-0.89844 0.46875,-1.73828 1.40625,-2.51953 0.91406,-0.78125 1.91015,-1.17188 2.98828,-1.17188 z m 0,0"
       style="fill:#000000;fill-opacity:1;fill-rule:nonzero;stroke:none" />
    <path
       id="path556"
       d="m 271.55859,21.81638 c 0.625,0 1.15235,0.16406 1.58204,0.48828 0.40234,0.35156 0.60546,0.79297 0.60546,1.32813 0,0.89843 -0.46484,1.73828 -1.38671,2.51953 -0.9375,0.78125 -1.94141,1.17187 -3.00782,1.17187 -0.625,0 -1.15234,-0.16406 -1.58203,-0.48828 -0.40625,-0.35156 -0.60547,-0.79297 -0.60547,-1.32812 0,-0.89844 0.46875,-1.73828 1.40625,-2.51953 0.91016,-0.78125 1.90625,-1.17188 2.98828,-1.17188 z m 0,0"
       style="fill:#000000;fill-opacity:1;fill-rule:nonzero;stroke:none" />
    <path
       id="path558"
       d="m 246.94531,21.81638 c 0.625,0 1.15235,0.16406 1.58203,0.48828 0.40625,0.35156 0.60547,0.79297 0.60547,1.32813 0,0.89843 -0.46093,1.73828 -1.38672,2.51953 -0.9375,0.78125 -1.9414,1.17187 -3.00781,1.17187 -0.625,0 -1.15234,-0.16406 -1.58203,-0.48828 -0.40234,-0.35156 -0.60547,-0.79297 -0.60547,-1.32812 0,-0.89844 0.46875,-1.73828 1.40625,-2.51953 0.91016,-0.78125 1.90625,-1.17188 2.98828,-1.17188 z m 0,0"
       style="fill:#000000;fill-opacity:1;fill-rule:nonzero;stroke:none" />
    <path
       id="path566"
       d="m 303.58984,21.81638 c 0.625,0 1.15235,0.16406 1.58204,0.48828 0.40234,0.35156 0.60546,0.79297 0.60546,1.32813 0,0.89843 -0.46484,1.73828 -1.38671,2.51953 -0.9375,0.78125 -1.94141,1.17187 -3.01172,1.17187 -0.625,0 -1.15235,-0.16406 -1.58203,-0.48828 -0.40235,-0.35156 -0.60547,-0.79297 -0.60547,-1.32812 0,-0.89844 0.46875,-1.73828 1.40625,-2.51953 0.91406,-0.78125 1.91015,-1.17188 2.99218,-1.17188 z m 0,0"
       style="fill:#000000;fill-opacity:1;fill-rule:nonzero;stroke:none" />
    <path
       id="path568"
       d="m 284.17188,21.81638 c 0.625,0 1.15234,0.16406 1.58203,0.48828 0.40625,0.35156 0.60547,0.79297 0.60547,1.32813 0,0.89843 -0.46094,1.73828 -1.38672,2.51953 -0.9375,0.78125 -1.94141,1.17187 -3.00782,1.17187 -0.625,0 -1.15234,-0.16406 -1.58203,-0.48828 -0.40234,-0.35156 -0.60547,-0.79297 -0.60547,-1.32812 0,-0.89844 0.46875,-1.73828 1.40625,-2.51953 0.91016,-0.78125 1.90625,-1.17188 2.98829,-1.17188 z m 0,0"
       style="fill:#000000;fill-opacity:1;fill-rule:nonzero;stroke:none" />
    <path
       id="path574"
       d="m 339.30469,21.81638 c 0.625,0 1.15234,0.16406 1.58203,0.48828 0.40625,0.35156 0.60547,0.79297 0.60547,1.32813 0,0.89843 -0.46094,1.73828 -1.38672,2.51953 -0.9375,0.78125 -1.9375,1.17187 -3.00781,1.17187 -0.625,0 -1.15235,-0.16406 -1.58203,-0.48828 -0.40235,-0.35156 -0.60547,-0.79297 -0.60547,-1.32812 0,-0.89844 0.46875,-1.73828 1.40625,-2.51953 0.91406,-0.78125 1.91015,-1.17188 2.98828,-1.17188 z m 0,0"
       style="fill:#000000;fill-opacity:1;fill-rule:nonzero;stroke:none" />
    <path
       id="path576"
       d="m 316.22656,21.81638 c 0.625,0 1.15235,0.16406 1.58203,0.48828 0.40235,0.35156 0.60547,0.79297 0.60547,1.32813 0,0.89843 -0.46093,1.73828 -1.38672,2.51953 -0.9375,0.78125 -1.9414,1.17187 -3.00781,1.17187 -0.625,0 -1.15234,-0.16406 -1.58203,-0.48828 -0.40234,-0.35156 -0.60547,-0.79297 -0.60547,-1.32812 0,-0.89844 0.46875,-1.73828 1.40625,-2.51953 0.91016,-0.78125 1.90625,-1.17188 2.98828,-1.17188 z m 0,0"
       style="fill:#000000;fill-opacity:1;fill-rule:nonzero;stroke:none" />
    <path
       id="path582"
       d="m 388.33203,21.81638 c 0.625,0 1.15235,0.16406 1.58203,0.48828 0.40625,0.35156 0.60547,0.79297 0.60547,1.32813 0,0.89843 -0.46094,1.73828 -1.38672,2.51953 -0.9375,0.78125 -1.9375,1.17187 -3.00781,1.17187 -0.625,0 -1.15234,-0.16406 -1.58203,-0.48828 -0.40234,-0.35156 -0.60547,-0.79297 -0.60547,-1.32812 0,-0.89844 0.46875,-1.73828 1.40625,-2.51953 0.91406,-0.78125 1.91016,-1.17188 2.98828,-1.17188 z m 0,0"
       style="fill:#000000;fill-opacity:1;fill-rule:nonzero;stroke:none" />
    <path
       id="path584"
       d="m 376.68359,21.81638 c 0.625,0 1.15235,0.16406 1.58204,0.48828 0.40625,0.35156 0.60546,0.79297 0.60546,1.32813 0,0.89843 -0.46093,1.73828 -1.38671,2.51953 -0.9375,0.78125 -1.94141,1.17187 -3.00782,1.17187 -0.625,0 -1.15234,-0.16406 -1.58203,-0.48828 -0.40234,-0.35156 -0.60547,-0.79297 -0.60547,-1.32812 0,-0.89844 0.46875,-1.73828 1.40625,-2.51953 0.91016,-0.78125 1.90625,-1.17188 2.98828,-1.17188 z m 0,0"
       style="fill:#000000;fill-opacity:1;fill-rule:nonzero;stroke:none" />
    <path
       id="path586"
       d="m 365.03516,21.81638 c 0.625,0 1.15234,0.16406 1.58203,0.48828 0.40234,0.35156 0.60547,0.79297 0.60547,1.32813 0,0.89843 -0.46094,1.73828 -1.38672,2.51953 -0.9375,0.78125 -1.94141,1.17187 -3.00781,1.17187 -0.625,0 -1.15235,-0.16406 -1.58204,-0.48828 -0.40234,-0.35156 -0.60546,-0.79297 -0.60546,-1.32812 0,-0.89844 0.46875,-1.73828 1.40625,-2.51953 0.91015,-0.78125 1.90625,-1.17188 2.98828,-1.17188 z m 0,0"
       style="fill:#000000;fill-opacity:1;fill-rule:nonzero;stroke:none" />
    <path
       id="path592"
       d="m 399.98438,21.81638 c 0.625,0 1.15234,0.16406 1.58203,0.48828 0.40234,0.35156 0.60547,0.79297 0.60547,1.32813 0,0.89843 -0.46485,1.73828 -1.38672,2.51953 -0.9375,0.78125 -1.94141,1.17187 -3.01172,1.17187 -0.625,0 -1.15235,-0.16406 -1.58203,-0.48828 -0.40235,-0.35156 -0.60547,-0.79297 -0.60547,-1.32812 0,-0.89844 0.46875,-1.73828 1.40625,-2.51953 0.91406,-0.78125 1.91015,-1.17188 2.99219,-1.17188 z m 0,0"
       style="fill:#000000;fill-opacity:1;fill-rule:nonzero;stroke:none" />
    <path
       id="path604"
       d="m 14.292969,21.9531 c 0,0 0.03906,0 0.117187,0 0.05078,-0.0117 0.09766,-0.0195 0.136719,-0.0195 1.457031,0 2.65625,0.51562 3.59375,1.54297 0.9375,1.01562 1.40625,2.19922 1.40625,3.55468 0,1.67969 -0.695312,3.04688 -2.089843,4.10157 -0.363282,0.28906 -0.839844,0.52343 -1.425782,0.70312 0.06641,0.84766 0.09766,1.53125 0.09766,2.05078 0,0.10547 -0.01172,0.48438 -0.03906,1.13282 -0.05078,1.21093 -0.46875,2.26171 -1.25,3.14453 -0.753906,0.875 -1.691406,1.30859 -2.8125,1.30859 -1.054688,0 -1.953125,-0.37109 -2.695312,-1.11328 C 8.58985,37.60547 8.218756,36.69532 8.218756,35.625 c 0,-0.55859 0.214844,-1.03515 0.644532,-1.42578 0.441406,-0.39062 0.957031,-0.58593 1.542968,-0.58593 0.519532,0 0.957032,0.20312 1.308594,0.60546 0.363281,0.37891 0.546875,0.84766 0.546875,1.40625 0,0.50782 -0.183594,0.94532 -0.546875,1.3086 -0.363281,0.36719 -0.800781,0.54687 -1.308594,0.54687 -0.207031,0 -0.410156,-0.0391 -0.605468,-0.11718 0.574218,0.84765 1.335937,1.26953 2.285156,1.26953 0.898437,0 1.632812,-0.36328 2.207031,-1.09375 0.597656,-0.75391 0.925781,-1.63282 0.976563,-2.63672 0.02734,-0.625 0.03906,-0.98047 0.03906,-1.07422 0,-0.72656 -0.02734,-1.32813 -0.07813,-1.79688 -0.652344,0.10547 -1.230469,0.15625 -1.738281,0.15625 -1.808594,0 -3.351563,-0.71484 -4.628906,-2.14843 -1.25,-1.44532 -1.875,-3.16407 -1.875,-5.15625 0,-0.41797 0.039062,-0.83985 0.117187,-1.26953 0.078125,-0.35157 0.175781,-0.73438 0.292969,-1.15235 0.066406,-0.23437 0.242187,-0.61328 0.527344,-1.13281 0.105468,-0.15625 0.222656,-0.35156 0.351562,-0.58594 0.128906,-0.23437 0.222656,-0.39062 0.273438,-0.46875 0.128906,-0.26172 0.382812,-0.61328 0.761718,-1.05469 0.105469,-0.11718 0.210938,-0.24609 0.320313,-0.39062 0.113281,-0.14453 0.207031,-0.26172 0.285156,-0.35156 0.078125,-0.0899 0.136719,-0.16407 0.175781,-0.21485 0.03906,-0.0508 0.332032,-0.39843 0.878906,-1.03515 0.128907,-0.12891 0.257813,-0.26953 0.382813,-0.42188 0.121094,-0.14844 0.222656,-0.26562 0.300781,-0.35156 0.07813,-0.082 0.136719,-0.14453 0.175782,-0.18359 -0.46875,-1.55079 -0.761719,-2.78516 -0.878907,-3.71094 -0.08984,-0.74219 -0.136719,-1.75781 -0.136719,-3.04688 0,-1.13281 0.261719,-2.19531 0.78125,-3.18359 0.507813,-1.03125 1.21875,-1.87109 2.128907,-2.51953 0.06641,-0.0391 0.128906,-0.0586 0.195312,-0.0586 0.08984,0 0.15625,0.0195 0.195313,0.0586 0.703125,0.84375 1.308594,1.94531 1.816406,3.30078 0.519531,1.35156 0.78125,2.58594 0.78125,3.69141 0,1.25 -0.300781,2.42187 -0.898438,3.51562 -0.675781,1.16016 -1.550781,2.35547 -2.617187,3.59375 0.273437,0.85938 0.636719,2.20703 1.09375,4.04297 z m 1.660156,9.08203 c 0.675781,-0.24609 1.203125,-0.67187 1.582031,-1.26953 0.417969,-0.57422 0.625,-1.21875 0.625,-1.93359 0,-0.92579 -0.3125,-1.7461 -0.9375,-2.46094 -0.636718,-0.74219 -1.453124,-1.16016 -2.441406,-1.25 0.558594,2.74609 0.949219,5.05078 1.171875,6.91406 z M 8.394532,26.52341 c 0,1.28906 0.519531,2.42188 1.5625,3.39844 1.066406,0.94922 2.265624,1.42578 3.59375,1.42578 0.546874,0 1.082031,-0.0391 1.601562,-0.11719 -0.207031,-1.98047 -0.617188,-4.34765 -1.230469,-7.10937 -0.742187,0.0781 -1.335937,0.33984 -1.777343,0.78125 C 11.714844,25.35935 11.5,25.87107 11.5,26.44529 c 0,0.98828 0.527344,1.78906 1.582032,2.40234 0.08984,0.0898 0.136718,0.1875 0.136718,0.29297 0,0.10547 -0.04687,0.20312 -0.136718,0.29297 -0.07813,0.0898 -0.175782,0.13672 -0.292969,0.13672 -0.01172,0 -0.07031,-0.0117 -0.175781,-0.0391 -0.742188,-0.40234 -1.316407,-0.92578 -1.71875,-1.5625 -0.378907,-0.67578 -0.566407,-1.35937 -0.566407,-2.05078 0,-0.89843 0.28125,-1.71093 0.839844,-2.4414 0.585937,-0.73047 1.347656,-1.19922 2.285156,-1.40625 -0.363281,-1.45703 -0.664062,-2.59766 -0.898437,-3.41797 -0.207032,0.23437 -0.457032,0.51562 -0.75,0.84765 -0.292969,0.33204 -0.46875,0.53125 -0.519532,0.59766 -0.46875,0.61328 -0.828124,1.08594 -1.074218,1.42578 -0.441406,0.61328 -0.769532,1.14063 -0.976563,1.58203 -0.222656,0.4961 -0.417969,1.03516 -0.585937,1.6211 -0.167969,0.55859 -0.253906,1.16015 -0.253906,1.79687 z M 14.917969,6.66013 c -0.976563,0.48047 -1.746094,1.17188 -2.304687,2.07031 -0.574219,0.92188 -0.859376,1.92188 -0.859376,2.98828 0,0.9375 0.234376,2.19922 0.703126,3.78907 0.9375,-1.13282 1.640624,-2.17969 2.109374,-3.14453 0.496094,-1.01563 0.742188,-2.07813 0.742188,-3.1836 0,-0.83594 -0.128906,-1.67578 -0.390625,-2.51953 z m 0,0"
       style="fill:#000000;fill-opacity:1;fill-rule:nonzero;stroke:none" />
    <path
       id="path622"
       d="m 28.28125,16.9531 c -0.496094,0 -0.800781,0.19531 -0.917968,0.58594 -0.09375,0.28515 -0.136719,0.76953 -0.136719,1.44531 v 0.58594 c 0,0.67578 0.04297,1.16015 0.136719,1.44531 0.117187,0.39062 0.421874,0.58594 0.917968,0.58594 0.546875,0 0.890625,-0.22657 1.035156,-0.6836 0.128907,-0.42968 0.195313,-0.97656 0.195313,-1.64062 0,-0.76953 -0.07422,-1.34766 -0.214844,-1.73828 -0.15625,-0.39063 -0.496093,-0.58594 -1.015625,-0.58594 z m -1.054687,-0.19531 c 0.390625,-0.15625 0.742187,-0.2461 1.054687,-0.27344 1.039063,0 1.875,0.23437 2.5,0.70312 0.597656,0.48047 0.898438,1.17188 0.898438,2.07032 0,0.91015 -0.308594,1.61328 -0.917969,2.10937 -0.613281,0.46875 -1.441406,0.70313 -2.480469,0.70313 -1.070312,0 -1.902344,-0.4961 -2.5,-1.48438 -0.601562,-0.98828 -0.898437,-2.16015 -0.898437,-3.51562 0,-1.32813 0.351562,-2.5 1.054687,-3.51563 0.714844,-0.98828 1.632813,-1.48437 2.753906,-1.48437 0.726563,0 1.371094,0.1875 1.933594,0.5664 0.546875,0.37891 0.820313,0.8711 0.820313,1.48438 0,0.3789 -0.132813,0.6914 -0.390625,0.9375 -0.234375,0.26172 -0.535156,0.39062 -0.898438,0.39062 -0.367187,0 -0.679687,-0.1289 -0.9375,-0.39062 -0.261718,-0.26172 -0.390625,-0.57422 -0.390625,-0.9375 0,-0.14453 0.128907,-0.30469 0.390625,-0.48828 0.257813,-0.15625 0.390625,-0.32032 0.390625,-0.48828 0,-0.1836 -0.09375,-0.33204 -0.273437,-0.44922 -0.210938,-0.10547 -0.425782,-0.15625 -0.644532,-0.15625 -0.601562,0 -0.996093,0.24218 -1.191406,0.72265 -0.210937,0.46875 -0.3125,1.15235 -0.3125,2.05078 0,0.26172 0.0039,0.5 0.01953,0.72266 0.01172,0.22266 0.01953,0.46094 0.01953,0.72266 z m 0,0"
       style="fill:#000000;fill-opacity:1;fill-rule:nonzero;stroke:none" />
    <path
       id="path624"
       d="m 29.714844,26.30857 c 0.648438,-0.71485 0.976562,-1.39453 0.976562,-2.03125 0,-0.53516 -0.230468,-0.95703 -0.683593,-1.26953 -0.445313,-0.3125 -0.992188,-0.46875 -1.640625,-0.46875 -0.457032,0 -0.820313,0.14453 -1.09375,0.42968 -0.273438,0.28516 -0.410156,0.61329 -0.410156,0.97657 0,0.45703 0.199218,0.80859 0.605468,1.05468 z m 0.605469,0.33203 c 1.105469,0.63672 1.660156,1.49219 1.660156,2.55859 0,0.79297 -0.332031,1.46485 -0.996094,2.01172 -0.664062,0.57422 -1.597656,0.85938 -2.792969,0.85938 -1.015624,0 -1.871093,-0.25782 -2.558593,-0.78125 -0.730469,-0.51953 -1.09375,-1.19141 -1.09375,-2.01172 0,-0.30078 0.08984,-0.61719 0.273437,-0.95703 0.167969,-0.30078 0.335938,-0.53516 0.507813,-0.70313 0.07813,-0.10547 0.324219,-0.35156 0.742187,-0.74219 -0.808594,-0.57421 -1.21875,-1.28125 -1.230468,-2.1289 0,-0.71485 0.316406,-1.34766 0.957031,-1.89453 0.636719,-0.51953 1.496093,-0.78125 2.578125,-0.78125 0.859375,0 1.613281,0.19531 2.265625,0.58593 0.625,0.39063 0.9375,0.92969 0.9375,1.6211 -0.02734,0.70312 -0.445313,1.49219 -1.25,2.36328 z m -3.652344,0.58594 c -0.808594,0.71484 -1.226563,1.39843 -1.25,2.05078 0,0.66406 0.277344,1.21875 0.839844,1.66015 0.53125,0.44532 1.175781,0.66407 1.933593,0.66407 0.53125,0 0.949219,-0.16797 1.25,-0.50782 0.3125,-0.3125 0.46875,-0.69531 0.46875,-1.15234 0,-0.55859 -0.230468,-0.96875 -0.683593,-1.23047 z m 0,0"
       style="fill:#000000;fill-opacity:1;fill-rule:nonzero;stroke:none" />
    <path
       id="path652"
       d="m 46.722656,9.57029 h 11.25 v 2.5 h -11.25 z m 0,0"
       style="fill:#000000;fill-opacity:1;fill-rule:evenodd;stroke:none" />
    <path
       id="path658"
       d="m 273.09766,9.57029 h 13.26172 v 2.5 h -13.26172 z m 0,0"
       style="fill:#000000;fill-opacity:1;fill-rule:evenodd;stroke:none" />
    <path
       id="path660"
       d="m 366.57422,9.57029 h 23.94922 v 2.5 h -23.94922 z m 0,0"
       style="fill:#000000;fill-opacity:1;fill-rule:evenodd;stroke:none" />
    <path
       id="path684"
       d="m 88.613282,13.32029 v -5 h 0.625 c 0,0.74218 0.144531,1.48437 0.429687,2.22656 0.3125,0.80859 0.65625,1.51172 1.035156,2.10937 0.273438,0.42969 0.683594,1.08594 1.230469,1.97266 0.417969,0.67578 0.769531,1.38672 1.054688,2.12891 0.285156,0.74218 0.429687,1.48437 0.429687,2.22656 0,1.35547 -0.28125,2.73437 -0.839844,4.14062 -0.08984,0.15625 -0.214843,0.23438 -0.371093,0.23438 -0.128907,0 -0.246094,-0.0508 -0.351563,-0.15625 -0.07813,-0.0781 -0.117187,-0.17578 -0.117187,-0.29297 v -0.0977 c 0.558593,-1.28906 0.839843,-2.5664 0.839843,-3.82812 0,-0.65234 -0.195312,-1.35547 -0.585937,-2.10938 -0.390625,-0.76953 -0.789063,-1.3789 -1.191406,-1.83593 -0.457032,-0.53516 -0.976563,-1.10547 -1.5625,-1.71875 z m 0,0"
       style="fill:#000000;fill-opacity:1;fill-rule:nonzero;stroke:none" />
    <path
       id="path686"
       d="m 130.73047,13.32029 v -5 h 0.625 c 0,0.74218 0.14453,1.48437 0.42969,2.22656 0.3125,0.80859 0.65625,1.51172 1.03515,2.10937 0.27344,0.42969 0.6836,1.08594 1.23047,1.97266 0.41797,0.67578 0.76953,1.38672 1.05469,2.12891 0.28516,0.74218 0.42969,1.48437 0.42969,2.22656 0,1.35547 -0.28125,2.73437 -0.83985,4.14062 -0.0898,0.15625 -0.21484,0.23438 -0.37109,0.23438 -0.12891,0 -0.24609,-0.0508 -0.35156,-0.15625 -0.0781,-0.0781 -0.11719,-0.17578 -0.11719,-0.29297 v -0.0977 c 0.55859,-1.28906 0.83984,-2.5664 0.83984,-3.82812 0,-0.65234 -0.19531,-1.35547 -0.58593,-2.10938 -0.39063,-0.76953 -0.78907,-1.3789 -1.19141,-1.83593 -0.45703,-0.53516 -0.97656,-1.10547 -1.5625,-1.71875 z m 0,0"
       style="fill:#000000;fill-opacity:1;fill-rule:nonzero;stroke:none" />
    <path
       id="path688"
       d="m 173.25,13.32029 v -5 h 0.625 c 0,0.74218 0.14063,1.48437 0.42969,2.22656 0.3125,0.80859 0.65625,1.51172 1.03515,2.10937 0.27344,0.42969 0.6836,1.08594 1.23047,1.97266 0.41407,0.67578 0.76563,1.38672 1.05469,2.12891 0.28516,0.74218 0.42969,1.48437 0.42969,2.22656 0,1.35547 -0.28125,2.73437 -0.83985,4.14062 -0.0937,0.15625 -0.21484,0.23438 -0.37109,0.23438 -0.13281,0 -0.25,-0.0508 -0.35156,-0.15625 -0.0781,-0.0781 -0.11719,-0.17578 -0.11719,-0.29297 v -0.0977 c 0.55859,-1.28906 0.83984,-2.5664 0.83984,-3.82812 0,-0.65234 -0.19531,-1.35547 -0.58593,-2.10938 -0.39063,-0.76953 -0.78907,-1.3789 -1.19141,-1.83593 -0.45703,-0.53516 -0.97656,-1.10547 -1.5625,-1.71875 z m 0,0"
       style="fill:#000000;fill-opacity:1;fill-rule:nonzero;stroke:none" />
    <path
       id="path692"
       d="m 235.84766,13.32029 v -5 h 0.625 c 0,0.74218 0.14062,1.48437 0.42968,2.22656 0.3125,0.80859 0.65625,1.51172 1.03516,2.10937 0.27344,0.42969 0.68359,1.08594 1.23047,1.97266 0.41406,0.67578 0.76562,1.38672 1.05469,2.12891 0.28515,0.74218 0.42968,1.48437 0.42968,2.22656 0,1.35547 -0.28125,2.73437 -0.83984,4.14062 -0.0937,0.15625 -0.21484,0.23438 -0.37109,0.23438 -0.13282,0 -0.25,-0.0508 -0.35157,-0.15625 -0.0781,-0.0781 -0.11718,-0.17578 -0.11718,-0.29297 v -0.0977 c 0.55859,-1.28906 0.83984,-2.5664 0.83984,-3.82812 0,-0.65234 -0.19531,-1.35547 -0.58594,-2.10938 -0.39062,-0.76953 -0.78906,-1.3789 -1.1914,-1.83593 -0.45703,-0.53516 -0.97657,-1.10547 -1.5625,-1.71875 z m 0,0"
       style="fill:#000000;fill-opacity:1;fill-rule:nonzero;stroke:none" />
    <path
       id="path694"
       d="m 212.65625,13.32029 v -5 h 0.625 c 0,0.74218 0.14453,1.48437 0.42969,2.22656 0.3125,0.80859 0.66015,1.51172 1.03515,2.10937 0.27344,0.42969 0.6836,1.08594 1.23047,1.97266 0.41797,0.67578 0.76953,1.38672 1.05469,2.12891 0.28906,0.74218 0.42969,1.48437 0.42969,2.22656 0,1.35547 -0.27735,2.73437 -0.83985,4.14062 -0.0898,0.15625 -0.21484,0.23438 -0.37109,0.23438 -0.12891,0 -0.24609,-0.0508 -0.35156,-0.15625 -0.0781,-0.0781 -0.11719,-0.17578 -0.11719,-0.29297 v -0.0977 c 0.5625,-1.28906 0.83984,-2.5664 0.83984,-3.82812 0,-0.65234 -0.19531,-1.35547 -0.58593,-2.10938 -0.39063,-0.76953 -0.78516,-1.3789 -1.19141,-1.83593 -0.45312,-0.53516 -0.97656,-1.10547 -1.5625,-1.71875 z m 0,0"
       style="fill:#000000;fill-opacity:1;fill-rule:nonzero;stroke:none" />
    <path
       id="path700"
       d="m 305.125,13.32029 v -5 h 0.625 c 0,0.74218 0.14453,1.48437 0.42969,2.22656 0.3125,0.80859 0.66015,1.51172 1.03515,2.10937 0.27344,0.42969 0.6836,1.08594 1.23047,1.97266 0.41797,0.67578 0.76953,1.38672 1.05469,2.12891 0.28906,0.74218 0.42969,1.48437 0.42969,2.22656 0,1.35547 -0.27735,2.73437 -0.83985,4.14062 -0.0898,0.15625 -0.21484,0.23438 -0.37109,0.23438 -0.12891,0 -0.24609,-0.0508 -0.35156,-0.15625 C 308.28909,23.125 308.25,23.02732 308.25,22.91013 v -0.0977 c 0.5625,-1.28906 0.83984,-2.5664 0.83984,-3.82812 0,-0.65234 -0.19531,-1.35547 -0.58593,-2.10938 -0.39063,-0.76953 -0.78516,-1.3789 -1.19141,-1.83593 -0.45312,-0.53516 -0.97656,-1.10547 -1.5625,-1.71875 z m 0,0"
       style="fill:#000000;fill-opacity:1;fill-rule:nonzero;stroke:none" />
    <path
       id="path716"
       d="m 70.660156,25.37107 c -0.222656,-0.22266 -0.332031,-0.48828 -0.332031,-0.80078 0,-0.3125 0.109375,-0.57813 0.332031,-0.80078 0.21875,-0.22266 0.488282,-0.33204 0.800782,-0.33204 0.3125,0 0.578125,0.10938 0.800781,0.33204 0.222656,0.22265 0.332031,0.48828 0.332031,0.80078 0,0.3125 -0.109375,0.57812 -0.332031,0.80078 -0.222656,0.22265 -0.488281,0.33203 -0.800781,0.33203 -0.3125,0 -0.582032,-0.10938 -0.800782,-0.33203 z m 0,0"
       style="fill:#000000;fill-opacity:1;fill-rule:nonzero;stroke:none" />
    <path
       id="path718"
       d="m 146.10156,25.37107 c -0.22265,-0.22266 -0.33203,-0.48828 -0.33203,-0.80078 0,-0.3125 0.10938,-0.57813 0.33203,-0.80078 0.21875,-0.22266 0.48828,-0.33204 0.80078,-0.33204 0.3125,0 0.57813,0.10938 0.80079,0.33204 0.21875,0.22265 0.33203,0.48828 0.33203,0.80078 0,0.3125 -0.11328,0.57812 -0.33203,0.80078 -0.22266,0.22265 -0.48829,0.33203 -0.80079,0.33203 -0.3125,0 -0.58203,-0.10938 -0.80078,-0.33203 z m 0,0"
       style="fill:#000000;fill-opacity:1;fill-rule:nonzero;stroke:none" />
    <path
       id="path722"
       d="m 251.21484,25.37107 c -0.21875,-0.22266 -0.33203,-0.48828 -0.33203,-0.80078 0,-0.3125 0.11328,-0.57813 0.33203,-0.80078 0.22266,-0.22266 0.48829,-0.33204 0.80079,-0.33204 0.3125,0 0.58203,0.10938 0.80078,0.33204 0.22265,0.22265 0.33203,0.48828 0.33203,0.80078 0,0.3125 -0.10938,0.57812 -0.33203,0.80078 -0.21875,0.22265 -0.48828,0.33203 -0.80078,0.33203 -0.3125,0 -0.57813,-0.10938 -0.80079,-0.33203 z m 0,0"
       style="fill:#000000;fill-opacity:1;fill-rule:nonzero;stroke:none" />
    <path
       id="path724"
       d="m 320.49609,25.37107 c -0.21875,-0.22266 -0.33203,-0.48828 -0.33203,-0.80078 0,-0.3125 0.11328,-0.57813 0.33203,-0.80078 0.22266,-0.22266 0.48829,-0.33204 0.80079,-0.33204 0.3125,0 0.58203,0.10938 0.80078,0.33204 0.22265,0.22265 0.33203,0.48828 0.33203,0.80078 0,0.3125 -0.10938,0.57812 -0.33203,0.80078 -0.21875,0.22265 -0.48828,0.33203 -0.80078,0.33203 -0.3125,0 -0.57813,-0.10938 -0.80079,-0.33203 z m 0,0"
       style="fill:#000000;fill-opacity:1;fill-rule:nonzero;stroke:none" />
    <path
       id="path728"
       d="m 404.25391,25.37107 c -0.22266,-0.22266 -0.33203,-0.48828 -0.33203,-0.80078 0,-0.3125 0.10937,-0.57813 0.33203,-0.80078 0.21875,-0.22266 0.48828,-0.33204 0.80078,-0.33204 0.3125,0 0.57812,0.10938 0.80078,0.33204 0.21875,0.22265 0.33203,0.48828 0.33203,0.80078 0,0.3125 -0.11328,0.57812 -0.33203,0.80078 -0.22266,0.22265 -0.48828,0.33203 -0.80078,0.33203 -0.3125,0 -0.58203,-0.10938 -0.80078,-0.33203 z m 0,0"
       style="fill:#000000;fill-opacity:1;fill-rule:nonzero;stroke:none" />
  </g>
</svg>
