<?xml version="1.0" encoding="UTF-8" standalone="no"?>
<svg
   xmlns:dc="http://purl.org/dc/elements/1.1/"
   xmlns:cc="http://creativecommons.org/ns#"
   xmlns:rdf="http://www.w3.org/1999/02/22-rdf-syntax-ns#"
   xmlns:svg="http://www.w3.org/2000/svg"
   xmlns="http://www.w3.org/2000/svg"
   xmlns:sodipodi="http://sodipodi.sourceforge.net/DTD/sodipodi-0.dtd"
   xmlns:inkscape="http://www.inkscape.org/namespaces/inkscape"
   inkscape:version="1.0 (4035a4f, 2020-05-01)"
   sodipodi:docname="rhythms_binary_2.svg"
   id="svg101"
   version="1.2"
   viewBox="0 0 200 50"
   height="50pt"
   width="200pt">
  <metadata
     id="metadata107">
    <rdf:RDF>
      <cc:Work
         rdf:about="">
        <dc:format>image/svg+xml</dc:format>
        <dc:type
           rdf:resource="http://purl.org/dc/dcmitype/StillImage" />
        <dc:title></dc:title>
      </cc:Work>
    </rdf:RDF>
  </metadata>
  <defs
     id="defs105" />
  <sodipodi:namedview
     inkscape:current-layer="svg101"
     inkscape:window-maximized="0"
     inkscape:window-y="23"
     inkscape:window-x="0"
     inkscape:cy="33.333333"
     inkscape:cx="133.33333"
     inkscape:zoom="4.79625"
     showgrid="false"
     id="namedview103"
     inkscape:window-height="480"
     inkscape:window-width="741"
     inkscape:pageshadow="2"
     inkscape:pageopacity="0"
     guidetolerance="10"
     gridtolerance="10"
     objecttolerance="10"
     borderopacity="1"
     bordercolor="#666666"
     pagecolor="#ffffff" />
  <g
     id="surface3238">
    <path
       id="path10"
       d="M 3.75 16.394531 L 69.316406 16.394531 M 3.75 20.828125 L 69.316406 20.828125 M 3.75 25.261719 L 69.316406 25.261719 M 3.75 29.695312 L 69.316406 29.695312 M 3.75 34.128906 L 69.316406 34.128906 "
       style="fill:none;stroke-width:0.354671;stroke-linecap:butt;stroke-linejoin:bevel;stroke:rgb(0%,0%,0%);stroke-opacity:1;stroke-miterlimit:10;" />
    <path
       id="path12"
       d="M 69.316406 16.394531 L 130.472656 16.394531 M 69.316406 20.828125 L 130.472656 20.828125 M 69.316406 25.261719 L 130.472656 25.261719 M 69.316406 29.695312 L 130.472656 29.695312 M 69.316406 34.128906 L 130.472656 34.128906 "
       style="fill:none;stroke-width:0.354671;stroke-linecap:butt;stroke-linejoin:bevel;stroke:rgb(0%,0%,0%);stroke-opacity:1;stroke-miterlimit:10;" />
    <path
       id="path14"
       d="M 130.472656 16.394531 L 188.308594 16.394531 M 130.472656 20.828125 L 188.308594 20.828125 M 130.472656 25.261719 L 188.308594 25.261719 M 130.472656 29.695312 L 188.308594 29.695312 M 130.472656 34.128906 L 188.308594 34.128906 "
       style="fill:none;stroke-width:0.354671;stroke-linecap:butt;stroke-linejoin:bevel;stroke:rgb(0%,0%,0%);stroke-opacity:1;stroke-miterlimit:10;" />
    <path
       id="path16"
       d="M 68.960938 16.394531 L 68.960938 34.128906 "
       style="fill:none;stroke-width:0.709342;stroke-linecap:butt;stroke-linejoin:bevel;stroke:rgb(0%,0%,0%);stroke-opacity:1;stroke-miterlimit:10;" />
    <path
       id="path18"
       d="M 130.121094 16.394531 L 130.121094 34.128906 "
       style="fill:none;stroke-width:0.709342;stroke-linecap:butt;stroke-linejoin:bevel;stroke:rgb(0%,0%,0%);stroke-opacity:1;stroke-miterlimit:10;" />
    <path
       id="path20"
       d="M 187.953125 16.394531 L 187.953125 34.128906 "
       style="fill:none;stroke-width:0.709342;stroke-linecap:butt;stroke-linejoin:bevel;stroke:rgb(0%,0%,0%);stroke-opacity:1;stroke-miterlimit:10;" />
    <path
       id="path22"
       d="M 42.945312 26.796875 L 42.945312 13.070312 "
       style="fill:none;stroke-width:0.57634;stroke-linecap:round;stroke-linejoin:bevel;stroke:rgb(0%,0%,0%);stroke-opacity:1;stroke-miterlimit:10;" />
    <path
       id="path24"
       d="M 63.859375 26.796875 L 63.859375 13.070312 "
       style="fill:none;stroke-width:0.57634;stroke-linecap:round;stroke-linejoin:bevel;stroke:rgb(0%,0%,0%);stroke-opacity:1;stroke-miterlimit:10;" />
    <path
       id="path26"
       d="M 53.402344 26.796875 L 53.402344 13.070312 "
       style="fill:none;stroke-width:0.57634;stroke-linecap:round;stroke-linejoin:bevel;stroke:rgb(0%,0%,0%);stroke-opacity:1;stroke-miterlimit:10;" />
    <path
       id="path28"
       d="M 80.183594 26.648438 L 80.183594 13.070312 "
       style="fill:none;stroke-width:0.57634;stroke-linecap:round;stroke-linejoin:bevel;stroke:rgb(0%,0%,0%);stroke-opacity:1;stroke-miterlimit:10;" />
    <path
       id="path30"
       d="M 98.128906 26.648438 L 98.128906 13.070312 "
       style="fill:none;stroke-width:0.57634;stroke-linecap:round;stroke-linejoin:bevel;stroke:rgb(0%,0%,0%);stroke-opacity:1;stroke-miterlimit:10;" />
    <path
       id="path32"
       d="M 89.15625 26.648438 L 89.15625 13.070312 "
       style="fill:none;stroke-width:0.57634;stroke-linecap:round;stroke-linejoin:bevel;stroke:rgb(0%,0%,0%);stroke-opacity:1;stroke-miterlimit:10;" />
    <path
       id="path34"
       d="M 116.070312 26.648438 L 116.070312 13.070312 "
       style="fill:none;stroke-width:0.57634;stroke-linecap:round;stroke-linejoin:bevel;stroke:rgb(0%,0%,0%);stroke-opacity:1;stroke-miterlimit:10;" />
    <path
       id="path36"
       d="M 107.097656 26.648438 L 107.097656 13.070312 "
       style="fill:none;stroke-width:0.57634;stroke-linecap:round;stroke-linejoin:bevel;stroke:rgb(0%,0%,0%);stroke-opacity:1;stroke-miterlimit:10;" />
    <path
       id="path38"
       d="M 141.34375 26.648438 L 141.34375 13.070312 "
       style="fill:none;stroke-width:0.57634;stroke-linecap:round;stroke-linejoin:bevel;stroke:rgb(0%,0%,0%);stroke-opacity:1;stroke-miterlimit:10;" />
    <path
       id="path40"
       d="M 125.042969 26.648438 L 125.042969 13.070312 "
       style="fill:none;stroke-width:0.57634;stroke-linecap:round;stroke-linejoin:bevel;stroke:rgb(0%,0%,0%);stroke-opacity:1;stroke-miterlimit:10;" />
    <path
       id="path42"
       d="M 158.566406 26.648438 L 158.566406 13.070312 "
       style="fill:none;stroke-width:0.57634;stroke-linecap:round;stroke-linejoin:bevel;stroke:rgb(0%,0%,0%);stroke-opacity:1;stroke-miterlimit:10;" />
    <path
       id="path44"
       d="M 175.789062 26.648438 L 175.789062 13.070312 "
       style="fill:none;stroke-width:0.57634;stroke-linecap:round;stroke-linejoin:bevel;stroke:rgb(0%,0%,0%);stroke-opacity:1;stroke-miterlimit:10;" />
    <path
       id="path46"
       d="M 53.125 26.320312 C 53.125 26.121094 53.050781 25.957031 52.902344 25.816406 C 52.75 25.667969 52.578125 25.59375 52.382812 25.59375 C 52.035156 25.59375 51.335938 25.9375 50.285156 26.632812 C 49.203125 27.335938 48.539062 27.835938 48.296875 28.136719 C 48.167969 28.300781 48.105469 28.464844 48.105469 28.640625 C 48.105469 28.835938 48.179688 29.003906 48.328125 29.140625 C 48.46875 29.292969 48.640625 29.367188 48.847656 29.367188 C 49.183594 29.367188 49.886719 29.019531 50.960938 28.328125 C 52.023438 27.636719 52.683594 27.132812 52.9375 26.820312 C 53.0625 26.671875 53.125 26.503906 53.125 26.320312 Z M 52.210938 25.039062 C 53.203125 25.039062 53.699219 25.464844 53.699219 26.320312 C 53.699219 26.734375 53.578125 27.21875 53.335938 27.773438 C 53.09375 28.316406 52.769531 28.730469 52.363281 29.019531 C 51.476562 29.621094 50.363281 29.921875 49.023438 29.921875 C 48.03125 29.921875 47.535156 29.496094 47.535156 28.640625 C 47.535156 28.257812 47.65625 27.78125 47.898438 27.203125 C 48.128906 26.648438 48.449219 26.226562 48.867188 25.9375 C 49.753906 25.335938 50.871094 25.039062 52.210938 25.039062 Z M 52.210938 25.039062 "
       style=" stroke:none;fill-rule:nonzero;fill:rgb(0%,0%,0%);fill-opacity:1;" />
    <path
       id="path48"
       d="M 42.671875 26.320312 C 42.671875 26.121094 42.59375 25.957031 42.445312 25.816406 C 42.296875 25.667969 42.121094 25.59375 41.925781 25.59375 C 41.578125 25.59375 40.882812 25.9375 39.832031 26.632812 C 38.746094 27.335938 38.082031 27.835938 37.839844 28.136719 C 37.710938 28.300781 37.648438 28.464844 37.648438 28.640625 C 37.648438 28.835938 37.722656 29.003906 37.875 29.140625 C 38.011719 29.292969 38.183594 29.367188 38.394531 29.367188 C 38.726562 29.367188 39.433594 29.019531 40.503906 28.328125 C 41.566406 27.636719 42.226562 27.132812 42.480469 26.820312 C 42.605469 26.671875 42.671875 26.503906 42.671875 26.320312 Z M 41.753906 25.039062 C 42.746094 25.039062 43.242188 25.464844 43.242188 26.320312 C 43.242188 26.734375 43.121094 27.21875 42.878906 27.773438 C 42.636719 28.316406 42.3125 28.730469 41.910156 29.019531 C 41.019531 29.621094 39.90625 29.921875 38.566406 29.921875 C 37.574219 29.921875 37.078125 29.496094 37.078125 28.640625 C 37.078125 28.257812 37.199219 27.78125 37.441406 27.203125 C 37.671875 26.648438 37.996094 26.226562 38.410156 25.9375 C 39.300781 25.335938 40.414062 25.039062 41.753906 25.039062 Z M 41.753906 25.039062 "
       style=" stroke:none;fill-rule:nonzero;fill:rgb(0%,0%,0%);fill-opacity:1;" />
    <path
       id="path50"
       d="M 63.582031 26.320312 C 63.582031 26.121094 63.507812 25.957031 63.359375 25.816406 C 63.207031 25.667969 63.035156 25.59375 62.839844 25.59375 C 62.492188 25.59375 61.792969 25.9375 60.742188 26.632812 C 59.65625 27.335938 58.996094 27.835938 58.75 28.136719 C 58.625 28.300781 58.5625 28.464844 58.5625 28.640625 C 58.5625 28.835938 58.636719 29.003906 58.785156 29.140625 C 58.925781 29.292969 59.097656 29.367188 59.304688 29.367188 C 59.640625 29.367188 60.34375 29.019531 61.417969 28.328125 C 62.480469 27.636719 63.140625 27.132812 63.394531 26.820312 C 63.519531 26.671875 63.582031 26.503906 63.582031 26.320312 Z M 62.664062 25.039062 C 63.660156 25.039062 64.15625 25.464844 64.15625 26.320312 C 64.15625 26.734375 64.035156 27.21875 63.792969 27.773438 C 63.546875 28.316406 63.226562 28.730469 62.820312 29.019531 C 61.933594 29.621094 60.816406 29.921875 59.480469 29.921875 C 58.484375 29.921875 57.988281 29.496094 57.988281 28.640625 C 57.988281 28.257812 58.109375 27.78125 58.351562 27.203125 C 58.585938 26.648438 58.90625 26.226562 59.324219 25.9375 C 60.210938 25.335938 61.328125 25.039062 62.664062 25.039062 Z M 62.664062 25.039062 "
       style=" stroke:none;fill-rule:nonzero;fill:rgb(0%,0%,0%);fill-opacity:1;" />
    <path
       id="path52"
       d="M 87.503906 25.039062 C 88.058594 25.039062 88.527344 25.183594 88.90625 25.46875 C 89.265625 25.78125 89.445312 26.175781 89.445312 26.648438 C 89.445312 27.445312 89.035156 28.191406 88.214844 28.882812 C 87.382812 29.574219 86.492188 29.921875 85.546875 29.921875 C 84.992188 29.921875 84.523438 29.777344 84.144531 29.488281 C 83.785156 29.175781 83.605469 28.785156 83.605469 28.3125 C 83.605469 27.515625 84.023438 26.769531 84.855469 26.078125 C 85.664062 25.382812 86.546875 25.039062 87.503906 25.039062 Z M 87.503906 25.039062 "
       style=" stroke:none;fill-rule:nonzero;fill:rgb(0%,0%,0%);fill-opacity:1;" />
    <path
       id="path54"
       d="M 78.53125 25.039062 C 79.085938 25.039062 79.554688 25.183594 79.933594 25.46875 C 80.292969 25.78125 80.472656 26.175781 80.472656 26.648438 C 80.472656 27.445312 80.0625 28.191406 79.242188 28.882812 C 78.410156 29.574219 77.523438 29.921875 76.574219 29.921875 C 76.019531 29.921875 75.554688 29.777344 75.171875 29.488281 C 74.816406 29.175781 74.636719 28.785156 74.636719 28.3125 C 74.636719 27.515625 75.050781 26.769531 75.882812 26.078125 C 76.691406 25.382812 77.574219 25.039062 78.53125 25.039062 Z M 78.53125 25.039062 "
       style=" stroke:none;fill-rule:nonzero;fill:rgb(0%,0%,0%);fill-opacity:1;" />
    <path
       id="path56"
       d="M 105.449219 25.039062 C 106 25.039062 106.46875 25.183594 106.851562 25.46875 C 107.207031 25.78125 107.386719 26.175781 107.386719 26.648438 C 107.386719 27.445312 106.976562 28.191406 106.15625 28.882812 C 105.328125 29.574219 104.4375 29.921875 103.492188 29.921875 C 102.9375 29.921875 102.46875 29.777344 102.085938 29.488281 C 101.730469 29.175781 101.550781 28.785156 101.550781 28.3125 C 101.550781 27.515625 101.964844 26.769531 102.796875 26.078125 C 103.605469 25.382812 104.488281 25.039062 105.449219 25.039062 Z M 105.449219 25.039062 "
       style=" stroke:none;fill-rule:nonzero;fill:rgb(0%,0%,0%);fill-opacity:1;" />
    <path
       id="path58"
       d="M 96.476562 25.039062 C 97.03125 25.039062 97.496094 25.183594 97.878906 25.46875 C 98.238281 25.78125 98.414062 26.175781 98.414062 26.648438 C 98.414062 27.445312 98.003906 28.191406 97.1875 28.882812 C 96.355469 29.574219 95.464844 29.921875 94.519531 29.921875 C 93.964844 29.921875 93.496094 29.777344 93.117188 29.488281 C 92.757812 29.175781 92.578125 28.785156 92.578125 28.3125 C 92.578125 27.515625 92.996094 26.769531 93.824219 26.078125 C 94.632812 25.382812 95.515625 25.039062 96.476562 25.039062 Z M 96.476562 25.039062 "
       style=" stroke:none;fill-rule:nonzero;fill:rgb(0%,0%,0%);fill-opacity:1;" />
    <path
       id="path60"
       d="M 123.390625 25.039062 C 123.945312 25.039062 124.414062 25.183594 124.792969 25.46875 C 125.152344 25.78125 125.332031 26.175781 125.332031 26.648438 C 125.332031 27.445312 124.921875 28.191406 124.101562 28.882812 C 123.269531 29.574219 122.378906 29.921875 121.433594 29.921875 C 120.878906 29.921875 120.414062 29.777344 120.03125 29.488281 C 119.671875 29.175781 119.496094 28.785156 119.496094 28.3125 C 119.496094 27.515625 119.910156 26.769531 120.742188 26.078125 C 121.550781 25.382812 122.433594 25.039062 123.390625 25.039062 Z M 123.390625 25.039062 "
       style=" stroke:none;fill-rule:nonzero;fill:rgb(0%,0%,0%);fill-opacity:1;" />
    <path
       id="path62"
       d="M 114.417969 25.039062 C 114.972656 25.039062 115.441406 25.183594 115.820312 25.46875 C 116.179688 25.78125 116.359375 26.175781 116.359375 26.648438 C 116.359375 27.445312 115.949219 28.191406 115.128906 28.882812 C 114.296875 29.574219 113.410156 29.921875 112.460938 29.921875 C 111.90625 29.921875 111.441406 29.777344 111.058594 29.488281 C 110.703125 29.175781 110.523438 28.785156 110.523438 28.3125 C 110.523438 27.515625 110.9375 26.769531 111.769531 26.078125 C 112.578125 25.382812 113.460938 25.039062 114.417969 25.039062 Z M 114.417969 25.039062 "
       style=" stroke:none;fill-rule:nonzero;fill:rgb(0%,0%,0%);fill-opacity:1;" />
    <path
       id="path64"
       d="M 139.691406 25.039062 C 140.246094 25.039062 140.710938 25.183594 141.09375 25.46875 C 141.453125 25.78125 141.628906 26.175781 141.628906 26.648438 C 141.628906 27.445312 141.21875 28.191406 140.402344 28.882812 C 139.570312 29.574219 138.679688 29.921875 137.734375 29.921875 C 137.179688 29.921875 136.710938 29.777344 136.332031 29.488281 C 135.972656 29.175781 135.792969 28.785156 135.792969 28.3125 C 135.792969 27.515625 136.210938 26.769531 137.039062 26.078125 C 137.847656 25.382812 138.730469 25.039062 139.691406 25.039062 Z M 139.691406 25.039062 "
       style=" stroke:none;fill-rule:nonzero;fill:rgb(0%,0%,0%);fill-opacity:1;" />
    <path
       id="path66"
       d="M 156.914062 25.039062 C 157.46875 25.039062 157.933594 25.183594 158.316406 25.46875 C 158.675781 25.78125 158.851562 26.175781 158.851562 26.648438 C 158.851562 27.445312 158.441406 28.191406 157.625 28.882812 C 156.792969 29.574219 155.902344 29.921875 154.957031 29.921875 C 154.402344 29.921875 153.933594 29.777344 153.554688 29.488281 C 153.195312 29.175781 153.015625 28.785156 153.015625 28.3125 C 153.015625 27.515625 153.433594 26.769531 154.265625 26.078125 C 155.070312 25.382812 155.957031 25.039062 156.914062 25.039062 Z M 156.914062 25.039062 "
       style=" stroke:none;fill-rule:nonzero;fill:rgb(0%,0%,0%);fill-opacity:1;" />
    <path
       id="path68"
       d="M 174.136719 25.039062 C 174.691406 25.039062 175.160156 25.183594 175.539062 25.46875 C 175.898438 25.78125 176.078125 26.175781 176.078125 26.648438 C 176.078125 27.445312 175.667969 28.191406 174.847656 28.882812 C 174.015625 29.574219 173.125 29.921875 172.179688 29.921875 C 171.625 29.921875 171.15625 29.777344 170.777344 29.488281 C 170.417969 29.175781 170.238281 28.785156 170.238281 28.3125 C 170.238281 27.515625 170.65625 26.769531 171.488281 26.078125 C 172.296875 25.382812 173.179688 25.039062 174.136719 25.039062 Z M 174.136719 25.039062 "
       style=" stroke:none;fill-rule:nonzero;fill:rgb(0%,0%,0%);fill-opacity:1;" />
    <path
       id="path70"
       d="M 13.097656 25.160156 C 13.097656 25.160156 13.132812 25.160156 13.203125 25.160156 C 13.246094 25.148438 13.289062 25.140625 13.324219 25.140625 C 14.617188 25.140625 15.679688 25.597656 16.507812 26.507812 C 17.339844 27.410156 17.757812 28.460938 17.757812 29.660156 C 17.757812 31.152344 17.136719 32.363281 15.902344 33.296875 C 15.578125 33.550781 15.160156 33.761719 14.640625 33.921875 C 14.695312 34.671875 14.726562 35.277344 14.726562 35.738281 C 14.726562 35.832031 14.714844 36.167969 14.691406 36.746094 C 14.644531 37.816406 14.273438 38.746094 13.582031 39.53125 C 12.914062 40.304688 12.082031 40.691406 11.089844 40.691406 C 10.152344 40.691406 9.355469 40.363281 8.699219 39.707031 C 8.039062 39.035156 7.710938 38.226562 7.710938 37.28125 C 7.710938 36.785156 7.902344 36.363281 8.285156 36.015625 C 8.675781 35.671875 9.132812 35.496094 9.652344 35.496094 C 10.113281 35.496094 10.5 35.675781 10.8125 36.035156 C 11.136719 36.371094 11.296875 36.785156 11.296875 37.28125 C 11.296875 37.730469 11.136719 38.117188 10.8125 38.441406 C 10.488281 38.765625 10.101562 38.925781 9.652344 38.925781 C 9.464844 38.925781 9.289062 38.890625 9.113281 38.824219 C 9.621094 39.574219 10.296875 39.949219 11.140625 39.949219 C 11.9375 39.949219 12.589844 39.625 13.097656 38.980469 C 13.628906 38.308594 13.917969 37.53125 13.964844 36.640625 C 13.988281 36.085938 14 35.769531 14 35.6875 C 14 35.042969 13.976562 34.511719 13.929688 34.09375 C 13.351562 34.1875 12.839844 34.234375 12.386719 34.234375 C 10.78125 34.234375 9.414062 33.597656 8.285156 32.328125 C 7.175781 31.046875 6.621094 29.523438 6.621094 27.757812 C 6.621094 27.386719 6.65625 27.011719 6.726562 26.632812 C 6.792969 26.320312 6.878906 25.980469 6.984375 25.609375 C 7.042969 25.402344 7.199219 25.066406 7.453125 24.605469 C 7.542969 24.464844 7.648438 24.292969 7.765625 24.085938 C 7.878906 23.878906 7.960938 23.738281 8.007812 23.667969 C 8.121094 23.4375 8.347656 23.125 8.679688 22.734375 C 8.773438 22.628906 8.871094 22.515625 8.96875 22.386719 C 9.066406 22.261719 9.148438 22.15625 9.21875 22.078125 C 9.289062 21.996094 9.339844 21.933594 9.375 21.886719 C 9.410156 21.839844 9.667969 21.535156 10.152344 20.96875 C 10.269531 20.851562 10.382812 20.726562 10.492188 20.59375 C 10.601562 20.460938 10.691406 20.359375 10.761719 20.285156 C 10.828125 20.207031 10.882812 20.152344 10.914062 20.121094 C 10.5 18.746094 10.242188 17.648438 10.136719 16.828125 C 10.054688 16.171875 10.015625 15.269531 10.015625 14.128906 C 10.015625 13.121094 10.246094 12.183594 10.707031 11.304688 C 11.15625 10.390625 11.789062 9.648438 12.59375 9.070312 C 12.652344 9.035156 12.710938 9.019531 12.769531 9.019531 C 12.847656 9.019531 12.90625 9.035156 12.941406 9.070312 C 13.566406 9.820312 14.101562 10.796875 14.550781 11.996094 C 15.015625 13.199219 15.246094 14.289062 15.246094 15.269531 C 15.246094 16.378906 14.980469 17.417969 14.449219 18.386719 C 13.847656 19.414062 13.074219 20.476562 12.128906 21.574219 C 12.371094 22.335938 12.695312 23.53125 13.097656 25.160156 Z M 14.570312 33.210938 C 15.171875 32.992188 15.636719 32.617188 15.972656 32.085938 C 16.34375 31.578125 16.527344 31.007812 16.527344 30.371094 C 16.527344 29.550781 16.25 28.824219 15.695312 28.191406 C 15.128906 27.53125 14.40625 27.160156 13.53125 27.082031 C 14.027344 29.515625 14.375 31.5625 14.570312 33.210938 Z M 7.867188 29.210938 C 7.867188 30.355469 8.328125 31.359375 9.253906 32.222656 C 10.199219 33.066406 11.261719 33.488281 12.441406 33.488281 C 12.925781 33.488281 13.398438 33.453125 13.859375 33.386719 C 13.675781 31.628906 13.3125 29.527344 12.769531 27.082031 C 12.109375 27.152344 11.585938 27.382812 11.191406 27.773438 C 10.8125 28.179688 10.621094 28.632812 10.621094 29.140625 C 10.621094 30.019531 11.089844 30.730469 12.023438 31.273438 C 12.105469 31.351562 12.144531 31.441406 12.144531 31.53125 C 12.144531 31.625 12.105469 31.710938 12.023438 31.792969 C 11.953125 31.871094 11.867188 31.914062 11.765625 31.914062 C 11.753906 31.914062 11.699219 31.902344 11.609375 31.878906 C 10.949219 31.519531 10.441406 31.058594 10.085938 30.492188 C 9.75 29.890625 9.582031 29.285156 9.582031 28.675781 C 9.582031 27.878906 9.832031 27.15625 10.328125 26.507812 C 10.847656 25.863281 11.523438 25.449219 12.351562 25.261719 C 12.03125 23.96875 11.765625 22.960938 11.554688 22.230469 C 11.371094 22.441406 11.148438 22.691406 10.890625 22.984375 C 10.628906 23.28125 10.476562 23.457031 10.429688 23.515625 C 10.015625 24.054688 9.699219 24.476562 9.476562 24.777344 C 9.085938 25.320312 8.796875 25.789062 8.613281 26.179688 C 8.417969 26.621094 8.242188 27.097656 8.09375 27.617188 C 7.941406 28.113281 7.867188 28.644531 7.867188 29.210938 Z M 13.652344 11.597656 C 12.785156 12.027344 12.105469 12.636719 11.609375 13.433594 C 11.101562 14.253906 10.847656 15.136719 10.847656 16.085938 C 10.847656 16.914062 11.054688 18.035156 11.46875 19.445312 C 12.300781 18.441406 12.925781 17.511719 13.339844 16.65625 C 13.777344 15.753906 14 14.8125 14 13.832031 C 14 13.09375 13.882812 12.347656 13.652344 11.597656 Z M 13.652344 11.597656 "
       style=" stroke:none;fill-rule:nonzero;fill:rgb(0%,0%,0%);fill-opacity:1;" />
    <path
       id="path72"
       d="M 26.207031 16.621094 C 26.554688 16.621094 26.847656 16.582031 27.089844 16.5 C 27.332031 16.417969 27.488281 16.378906 27.558594 16.378906 C 27.640625 16.378906 27.703125 16.402344 27.75 16.449219 C 27.785156 16.484375 27.808594 16.523438 27.820312 16.570312 C 27.820312 16.59375 27.808594 16.625 27.785156 16.671875 L 22.746094 22.527344 L 25.707031 22.527344 L 25.707031 20.207031 C 25.707031 20.054688 25.746094 19.929688 25.828125 19.824219 C 25.964844 19.710938 26.082031 19.640625 26.171875 19.617188 C 26.324219 19.546875 26.507812 19.386719 26.726562 19.132812 C 26.914062 18.925781 27.132812 18.5625 27.386719 18.042969 C 27.421875 17.972656 27.472656 17.9375 27.542969 17.9375 C 27.679688 17.9375 27.761719 18.019531 27.785156 18.179688 L 27.785156 22.527344 L 29.046875 22.527344 C 29.210938 22.527344 29.300781 22.613281 29.324219 22.785156 C 29.324219 22.960938 29.234375 23.046875 29.046875 23.046875 L 27.785156 23.046875 L 27.785156 23.183594 C 27.785156 23.644531 27.898438 24.039062 28.128906 24.363281 C 28.394531 24.683594 28.707031 24.847656 29.066406 24.847656 C 29.203125 24.847656 29.273438 24.917969 29.273438 25.054688 C 29.273438 25.195312 29.203125 25.261719 29.066406 25.261719 C 28.824219 25.261719 28.429688 25.226562 27.886719 25.160156 C 27.390625 25.078125 27.003906 25.039062 26.726562 25.039062 C 26.4375 25.039062 26.050781 25.078125 25.566406 25.160156 C 25.046875 25.226562 24.660156 25.261719 24.40625 25.261719 C 24.269531 25.261719 24.199219 25.195312 24.199219 25.054688 C 24.199219 24.917969 24.269531 24.847656 24.40625 24.847656 C 24.765625 24.847656 25.078125 24.683594 25.34375 24.363281 C 25.585938 24.039062 25.707031 23.644531 25.707031 23.183594 L 25.707031 23.046875 L 22.746094 23.046875 C 22.546875 23.046875 22.410156 23 22.328125 22.90625 C 22.238281 22.839844 22.191406 22.746094 22.191406 22.628906 C 22.191406 22.597656 22.277344 22.476562 22.449219 22.265625 C 22.644531 22.035156 22.855469 21.753906 23.074219 21.417969 C 23.328125 21.027344 23.570312 20.621094 23.800781 20.207031 C 24.054688 19.734375 24.257812 19.191406 24.40625 18.578125 C 24.582031 17.953125 24.667969 17.320312 24.667969 16.671875 C 24.667969 16.488281 24.746094 16.394531 24.910156 16.394531 C 24.945312 16.394531 25.019531 16.414062 25.132812 16.449219 C 25.167969 16.460938 25.242188 16.476562 25.351562 16.5 C 25.460938 16.523438 25.550781 16.546875 25.621094 16.570312 C 25.828125 16.605469 26.023438 16.621094 26.207031 16.621094 Z M 26.207031 16.621094 "
       style=" stroke:none;fill-rule:nonzero;fill:rgb(0%,0%,0%);fill-opacity:1;" />
    <path
       id="path74"
       d="M 26.207031 25.488281 C 26.554688 25.488281 26.847656 25.449219 27.089844 25.367188 C 27.332031 25.285156 27.488281 25.246094 27.558594 25.246094 C 27.640625 25.246094 27.703125 25.269531 27.75 25.316406 C 27.785156 25.347656 27.808594 25.390625 27.820312 25.4375 C 27.820312 25.460938 27.808594 25.492188 27.785156 25.539062 L 22.746094 31.394531 L 25.707031 31.394531 L 25.707031 29.074219 C 25.707031 28.921875 25.746094 28.796875 25.828125 28.691406 C 25.964844 28.578125 26.082031 28.507812 26.171875 28.484375 C 26.324219 28.414062 26.507812 28.253906 26.726562 28 C 26.914062 27.792969 27.132812 27.425781 27.386719 26.90625 C 27.421875 26.839844 27.472656 26.804688 27.542969 26.804688 C 27.679688 26.804688 27.761719 26.886719 27.785156 27.046875 L 27.785156 31.394531 L 29.046875 31.394531 C 29.210938 31.394531 29.300781 31.480469 29.324219 31.652344 C 29.324219 31.828125 29.234375 31.914062 29.046875 31.914062 L 27.785156 31.914062 L 27.785156 32.050781 C 27.785156 32.511719 27.898438 32.90625 28.128906 33.230469 C 28.394531 33.550781 28.707031 33.714844 29.066406 33.714844 C 29.203125 33.714844 29.273438 33.785156 29.273438 33.921875 C 29.273438 34.058594 29.203125 34.128906 29.066406 34.128906 C 28.824219 34.128906 28.429688 34.09375 27.886719 34.027344 C 27.390625 33.945312 27.003906 33.90625 26.726562 33.90625 C 26.4375 33.90625 26.050781 33.945312 25.566406 34.027344 C 25.046875 34.09375 24.660156 34.128906 24.40625 34.128906 C 24.269531 34.128906 24.199219 34.058594 24.199219 33.921875 C 24.199219 33.785156 24.269531 33.714844 24.40625 33.714844 C 24.765625 33.714844 25.078125 33.550781 25.34375 33.230469 C 25.585938 32.90625 25.707031 32.511719 25.707031 32.050781 L 25.707031 31.914062 L 22.746094 31.914062 C 22.546875 31.914062 22.410156 31.867188 22.328125 31.773438 C 22.238281 31.703125 22.191406 31.613281 22.191406 31.496094 C 22.191406 31.460938 22.277344 31.339844 22.449219 31.132812 C 22.644531 30.902344 22.855469 30.621094 23.074219 30.285156 C 23.328125 29.890625 23.570312 29.488281 23.800781 29.074219 C 24.054688 28.597656 24.257812 28.058594 24.40625 27.445312 C 24.582031 26.820312 24.667969 26.1875 24.667969 25.539062 C 24.667969 25.355469 24.746094 25.261719 24.910156 25.261719 C 24.945312 25.261719 25.019531 25.28125 25.132812 25.316406 C 25.167969 25.328125 25.242188 25.34375 25.351562 25.367188 C 25.460938 25.390625 25.550781 25.414062 25.621094 25.4375 C 25.828125 25.46875 26.023438 25.488281 26.207031 25.488281 Z M 26.207031 25.488281 "
       style=" stroke:none;fill-rule:nonzero;fill:rgb(0%,0%,0%);fill-opacity:1;" />
    <path
       id="path76"
       d="M 161.523438 23.878906 C 161.523438 23.667969 161.640625 23.4375 161.871094 23.183594 C 162.042969 23 162.296875 22.78125 162.632812 22.527344 C 162.886719 22.351562 163.136719 22.09375 163.378906 21.746094 C 163.609375 21.414062 163.722656 21.046875 163.722656 20.65625 C 163.722656 20.195312 163.574219 19.785156 163.273438 19.425781 L 162.648438 18.683594 C 162.605469 18.636719 162.582031 18.578125 162.582031 18.507812 C 162.582031 18.441406 162.617188 18.375 162.683594 18.316406 C 162.765625 18.261719 162.835938 18.230469 162.894531 18.230469 C 162.972656 18.230469 163.039062 18.265625 163.082031 18.335938 L 165.769531 21.523438 C 165.882812 21.671875 165.941406 21.824219 165.941406 21.972656 C 165.941406 22.179688 165.824219 22.410156 165.59375 22.664062 C 165.445312 22.828125 165.195312 23.046875 164.851562 23.324219 C 164.585938 23.484375 164.332031 23.746094 164.085938 24.101562 C 163.855469 24.4375 163.742188 24.800781 163.742188 25.195312 C 163.742188 25.679688 163.878906 26.089844 164.15625 26.421875 L 165.644531 28.171875 C 165.679688 28.207031 165.710938 28.265625 165.734375 28.34375 C 165.734375 28.425781 165.703125 28.496094 165.644531 28.554688 C 165.566406 28.609375 165.496094 28.640625 165.4375 28.640625 C 165.414062 28.640625 165.324219 28.578125 165.160156 28.449219 C 164.988281 28.3125 164.757812 28.179688 164.46875 28.050781 C 164.144531 27.925781 163.828125 27.859375 163.515625 27.859375 C 163.226562 27.859375 162.992188 27.941406 162.804688 28.101562 C 162.644531 28.265625 162.5625 28.578125 162.5625 29.039062 C 162.5625 29.742188 162.730469 30.296875 163.066406 30.699219 C 163.101562 30.746094 163.105469 30.804688 163.082031 30.875 C 163.058594 30.921875 163.019531 30.941406 162.960938 30.941406 C 162.882812 30.941406 162.703125 30.734375 162.425781 30.320312 C 162.136719 29.882812 161.867188 29.378906 161.609375 28.8125 C 161.347656 28.210938 161.214844 27.714844 161.214844 27.324219 C 161.214844 26.828125 161.449219 26.578125 161.921875 26.578125 C 162.464844 26.578125 163.167969 26.765625 164.035156 27.132812 L 161.699219 24.328125 C 161.582031 24.175781 161.523438 24.027344 161.523438 23.878906 Z M 161.523438 23.878906 "
       style=" stroke:none;fill-rule:nonzero;fill:rgb(0%,0%,0%);fill-opacity:1;" />
    <path
       id="path78"
       d="M 144.300781 23.878906 C 144.300781 23.667969 144.417969 23.4375 144.648438 23.183594 C 144.820312 23 145.074219 22.78125 145.410156 22.527344 C 145.664062 22.351562 145.914062 22.09375 146.15625 21.746094 C 146.386719 21.414062 146.5 21.046875 146.5 20.65625 C 146.5 20.195312 146.351562 19.785156 146.050781 19.425781 L 145.425781 18.683594 C 145.382812 18.636719 145.359375 18.578125 145.359375 18.507812 C 145.359375 18.441406 145.394531 18.375 145.460938 18.316406 C 145.542969 18.261719 145.613281 18.230469 145.667969 18.230469 C 145.75 18.230469 145.8125 18.265625 145.859375 18.335938 L 148.542969 21.523438 C 148.660156 21.671875 148.71875 21.824219 148.71875 21.972656 C 148.71875 22.179688 148.601562 22.410156 148.371094 22.664062 C 148.222656 22.828125 147.972656 23.046875 147.625 23.324219 C 147.359375 23.484375 147.105469 23.746094 146.863281 24.101562 C 146.632812 24.4375 146.519531 24.800781 146.519531 25.195312 C 146.519531 25.679688 146.65625 26.089844 146.933594 26.421875 L 148.421875 28.171875 C 148.457031 28.207031 148.488281 28.265625 148.511719 28.34375 C 148.511719 28.425781 148.480469 28.496094 148.421875 28.554688 C 148.34375 28.609375 148.273438 28.640625 148.214844 28.640625 C 148.191406 28.640625 148.101562 28.578125 147.9375 28.449219 C 147.765625 28.3125 147.535156 28.179688 147.246094 28.050781 C 146.921875 27.925781 146.605469 27.859375 146.292969 27.859375 C 146.003906 27.859375 145.769531 27.941406 145.582031 28.101562 C 145.421875 28.265625 145.339844 28.578125 145.339844 29.039062 C 145.339844 29.742188 145.507812 30.296875 145.84375 30.699219 C 145.878906 30.746094 145.882812 30.804688 145.859375 30.875 C 145.835938 30.921875 145.796875 30.941406 145.738281 30.941406 C 145.65625 30.941406 145.480469 30.734375 145.203125 30.320312 C 144.914062 29.882812 144.640625 29.378906 144.386719 28.8125 C 144.121094 28.210938 143.988281 27.714844 143.988281 27.324219 C 143.988281 26.828125 144.226562 26.578125 144.699219 26.578125 C 145.242188 26.578125 145.945312 26.765625 146.8125 27.132812 L 144.476562 24.328125 C 144.359375 24.175781 144.300781 24.027344 144.300781 23.878906 Z M 144.300781 23.878906 "
       style=" stroke:none;fill-rule:nonzero;fill:rgb(0%,0%,0%);fill-opacity:1;" />
    <path
       id="path80"
       d="M 178.746094 23.878906 C 178.746094 23.667969 178.863281 23.4375 179.09375 23.183594 C 179.265625 23 179.519531 22.78125 179.855469 22.527344 C 180.109375 22.351562 180.359375 22.09375 180.601562 21.746094 C 180.832031 21.414062 180.945312 21.046875 180.945312 20.65625 C 180.945312 20.195312 180.796875 19.785156 180.496094 19.425781 L 179.875 18.683594 C 179.828125 18.636719 179.804688 18.578125 179.804688 18.507812 C 179.804688 18.441406 179.839844 18.375 179.90625 18.316406 C 179.988281 18.261719 180.058594 18.230469 180.117188 18.230469 C 180.195312 18.230469 180.261719 18.265625 180.304688 18.335938 L 182.992188 21.523438 C 183.105469 21.671875 183.164062 21.824219 183.164062 21.972656 C 183.164062 22.179688 183.046875 22.410156 182.816406 22.664062 C 182.667969 22.828125 182.417969 23.046875 182.074219 23.324219 C 181.808594 23.484375 181.554688 23.746094 181.3125 24.101562 C 181.078125 24.4375 180.964844 24.800781 180.964844 25.195312 C 180.964844 25.679688 181.101562 26.089844 181.378906 26.421875 L 182.871094 28.171875 C 182.902344 28.207031 182.933594 28.265625 182.957031 28.34375 C 182.957031 28.425781 182.925781 28.496094 182.871094 28.554688 C 182.789062 28.609375 182.71875 28.640625 182.660156 28.640625 C 182.636719 28.640625 182.546875 28.578125 182.382812 28.449219 C 182.210938 28.3125 181.980469 28.179688 181.691406 28.050781 C 181.367188 27.925781 181.050781 27.859375 180.738281 27.859375 C 180.449219 27.859375 180.214844 27.941406 180.027344 28.101562 C 179.867188 28.265625 179.785156 28.578125 179.785156 29.039062 C 179.785156 29.742188 179.953125 30.296875 180.289062 30.699219 C 180.324219 30.746094 180.328125 30.804688 180.304688 30.875 C 180.285156 30.921875 180.242188 30.941406 180.183594 30.941406 C 180.105469 30.941406 179.925781 30.734375 179.648438 30.320312 C 179.359375 29.882812 179.089844 29.378906 178.835938 28.8125 C 178.570312 28.210938 178.4375 27.714844 178.4375 27.324219 C 178.4375 26.828125 178.671875 26.578125 179.144531 26.578125 C 179.6875 26.578125 180.394531 26.765625 181.257812 27.132812 L 178.921875 24.328125 C 178.804688 24.175781 178.746094 24.027344 178.746094 23.878906 Z M 178.746094 23.878906 "
       style=" stroke:none;fill-rule:nonzero;fill:rgb(0%,0%,0%);fill-opacity:1;" />
    <path
       id="path82"
       d="M 51.050781 6.996094 C 52.484375 6.761719 53.199219 6.265625 53.199219 5.503906 C 53.199219 5.257812 53.128906 5.058594 52.980469 4.910156 C 52.832031 4.757812 52.640625 4.683594 52.398438 4.683594 C 52.035156 4.683594 51.699219 4.882812 51.390625 5.285156 L 51.25 5.242188 C 51.398438 4.953125 51.605469 4.726562 51.863281 4.558594 C 52.125 4.390625 52.410156 4.304688 52.722656 4.304688 C 53.085938 4.304688 53.382812 4.414062 53.625 4.628906 C 53.863281 4.84375 53.984375 5.117188 53.984375 5.449219 C 53.984375 5.753906 53.886719 6 53.691406 6.1875 C 53.496094 6.371094 53.125 6.570312 52.578125 6.78125 L 52.578125 6.808594 C 53.15625 7.070312 53.445312 7.519531 53.445312 8.148438 C 53.445312 8.773438 53.214844 9.3125 52.75 9.769531 C 52.289062 10.222656 51.683594 10.453125 50.933594 10.453125 C 50.261719 10.453125 49.925781 10.277344 49.925781 9.921875 C 49.925781 9.6875 50.058594 9.570312 50.320312 9.570312 C 50.472656 9.570312 50.671875 9.660156 50.925781 9.839844 C 51.175781 10.019531 51.382812 10.109375 51.546875 10.109375 C 51.867188 10.109375 52.148438 9.972656 52.378906 9.699219 C 52.609375 9.429688 52.722656 9.074219 52.722656 8.632812 C 52.722656 8.070312 52.582031 7.679688 52.300781 7.464844 C 52.019531 7.25 51.601562 7.140625 51.050781 7.140625 Z M 51.050781 6.996094 "
       style=" stroke:none;fill-rule:nonzero;fill:rgb(0%,0%,0%);fill-opacity:1;" />
    <path
       id="path84"
       d="M 37.398438 11.675781 L 37.398438 7.242188 L 47.574219 7.242188 "
       style="fill:none;stroke-width:0.443339;stroke-linecap:square;stroke-linejoin:bevel;stroke:rgb(0%,0%,0%);stroke-opacity:1;stroke-miterlimit:10;" />
    <path
       id="path86"
       d="M 56.507812 7.242188 L 66.683594 7.242188 L 66.683594 11.675781 "
       style="fill:none;stroke-width:0.443339;stroke-linecap:square;stroke-linejoin:bevel;stroke:rgb(0%,0%,0%);stroke-opacity:1;stroke-miterlimit:10;" />
    <path
       id="path88"
       d="M 100.101562 6.996094 C 101.535156 6.761719 102.253906 6.265625 102.253906 5.503906 C 102.253906 5.257812 102.179688 5.058594 102.03125 4.910156 C 101.886719 4.757812 101.691406 4.683594 101.453125 4.683594 C 101.085938 4.683594 100.75 4.882812 100.445312 5.285156 L 100.300781 5.242188 C 100.449219 4.953125 100.65625 4.726562 100.917969 4.558594 C 101.175781 4.390625 101.464844 4.304688 101.777344 4.304688 C 102.136719 4.304688 102.4375 4.414062 102.675781 4.628906 C 102.914062 4.84375 103.035156 5.117188 103.035156 5.449219 C 103.035156 5.753906 102.9375 6 102.742188 6.1875 C 102.546875 6.371094 102.179688 6.570312 101.632812 6.78125 L 101.632812 6.808594 C 102.207031 7.070312 102.496094 7.519531 102.496094 8.148438 C 102.496094 8.773438 102.265625 9.3125 101.804688 9.769531 C 101.339844 10.222656 100.734375 10.453125 99.984375 10.453125 C 99.3125 10.453125 98.976562 10.277344 98.976562 9.921875 C 98.976562 9.6875 99.109375 9.570312 99.371094 9.570312 C 99.523438 9.570312 99.722656 9.660156 99.976562 9.839844 C 100.226562 10.019531 100.433594 10.109375 100.597656 10.109375 C 100.921875 10.109375 101.199219 9.972656 101.429688 9.699219 C 101.660156 9.429688 101.777344 9.074219 101.777344 8.632812 C 101.777344 8.070312 101.636719 7.679688 101.351562 7.464844 C 101.070312 7.25 100.652344 7.140625 100.101562 7.140625 Z M 100.101562 6.996094 "
       style=" stroke:none;fill-rule:nonzero;fill:rgb(0%,0%,0%);fill-opacity:1;" />
    <path
       id="path90"
       d="M 74.636719 11.675781 L 74.636719 7.242188 L 96.625 7.242188 "
       style="fill:none;stroke-width:0.443339;stroke-linecap:square;stroke-linejoin:bevel;stroke:rgb(0%,0%,0%);stroke-opacity:1;stroke-miterlimit:10;" />
    <path
       id="path92"
       d="M 105.558594 7.242188 L 127.546875 7.242188 L 127.546875 11.675781 "
       style="fill:none;stroke-width:0.443339;stroke-linecap:square;stroke-linejoin:bevel;stroke:rgb(0%,0%,0%);stroke-opacity:1;stroke-miterlimit:10;" />
    <path
       id="path94"
       d="M 159.25 6.441406 C 160.683594 6.207031 161.402344 5.710938 161.402344 4.949219 C 161.402344 4.703125 161.328125 4.503906 161.183594 4.355469 C 161.035156 4.203125 160.839844 4.128906 160.601562 4.128906 C 160.234375 4.128906 159.898438 4.332031 159.59375 4.730469 L 159.449219 4.6875 C 159.597656 4.398438 159.804688 4.171875 160.066406 4.003906 C 160.328125 3.835938 160.613281 3.75 160.925781 3.75 C 161.285156 3.75 161.585938 3.859375 161.824219 4.074219 C 162.066406 4.292969 162.183594 4.5625 162.183594 4.894531 C 162.183594 5.199219 162.085938 5.445312 161.894531 5.632812 C 161.699219 5.816406 161.328125 6.015625 160.78125 6.226562 L 160.78125 6.253906 C 161.355469 6.515625 161.644531 6.964844 161.644531 7.59375 C 161.644531 8.21875 161.414062 8.757812 160.953125 9.214844 C 160.492188 9.671875 159.882812 9.898438 159.132812 9.898438 C 158.460938 9.898438 158.125 9.722656 158.125 9.367188 C 158.125 9.132812 158.257812 9.015625 158.523438 9.015625 C 158.671875 9.015625 158.875 9.105469 159.125 9.285156 C 159.378906 9.464844 159.585938 9.554688 159.746094 9.554688 C 160.070312 9.554688 160.347656 9.417969 160.578125 9.148438 C 160.808594 8.875 160.925781 8.519531 160.925781 8.082031 C 160.925781 7.515625 160.785156 7.125 160.503906 6.910156 C 160.21875 6.695312 159.804688 6.585938 159.25 6.585938 Z M 159.25 6.441406 "
       style=" stroke:none;fill-rule:nonzero;fill:rgb(0%,0%,0%);fill-opacity:1;" />
    <path
       id="path96"
       d="M 135.792969 11.675781 L 135.792969 7.242188 L 155.773438 6.789062 "
       style="fill:none;stroke-width:0.443339;stroke-linecap:square;stroke-linejoin:bevel;stroke:rgb(0%,0%,0%);stroke-opacity:1;stroke-miterlimit:10;" />
    <path
       id="path98"
       d="M 164.707031 6.585938 L 184.6875 6.132812 L 184.6875 10.566406 "
       style="fill:none;stroke-width:0.443339;stroke-linecap:square;stroke-linejoin:bevel;stroke:rgb(0%,0%,0%);stroke-opacity:1;stroke-miterlimit:10;" />
  </g>
</svg>
