<?xml version="1.0" encoding="UTF-8" standalone="no"?>
<svg
   xmlns:dc="http://purl.org/dc/elements/1.1/"
   xmlns:cc="http://creativecommons.org/ns#"
   xmlns:rdf="http://www.w3.org/1999/02/22-rdf-syntax-ns#"
   xmlns:svg="http://www.w3.org/2000/svg"
   xmlns="http://www.w3.org/2000/svg"
   xmlns:sodipodi="http://sodipodi.sourceforge.net/DTD/sodipodi-0.dtd"
   xmlns:inkscape="http://www.inkscape.org/namespaces/inkscape"
   inkscape:version="1.0 (4035a4f, 2020-05-01)"
   sodipodi:docname="rhythms_ternary_1.svg"
   id="svg157"
   version="1.2"
   viewBox="0 0 420 50"
   height="50pt"
   width="420pt">
  <metadata
     id="metadata163">
    <rdf:RDF>
      <cc:Work
         rdf:about="">
        <dc:format>image/svg+xml</dc:format>
        <dc:type
           rdf:resource="http://purl.org/dc/dcmitype/StillImage" />
        <dc:title></dc:title>
      </cc:Work>
    </rdf:RDF>
  </metadata>
  <defs
     id="defs161" />
  <sodipodi:namedview
     inkscape:current-layer="svg157"
     inkscape:window-maximized="0"
     inkscape:window-y="23"
     inkscape:window-x="0"
     inkscape:cy="33.333333"
     inkscape:cx="280"
     inkscape:zoom="2.2839286"
     showgrid="false"
     id="namedview159"
     inkscape:window-height="480"
     inkscape:window-width="741"
     inkscape:pageshadow="2"
     inkscape:pageopacity="0"
     guidetolerance="10"
     gridtolerance="10"
     objecttolerance="10"
     borderopacity="1"
     bordercolor="#666666"
     pagecolor="#ffffff" />
  <g
     id="surface3250">
    <path
       id="path10"
       d="M 3.75 12.070312 L 65.585938 12.070312 M 3.75 17.070312 L 65.585938 17.070312 M 3.75 22.070312 L 65.585938 22.070312 M 3.75 27.070312 L 65.585938 27.070312 M 3.75 32.070312 L 65.585938 32.070312 "
       style="fill:none;stroke-width:0.4;stroke-linecap:butt;stroke-linejoin:bevel;stroke:rgb(0%,0%,0%);stroke-opacity:1;stroke-miterlimit:10;" />
    <path
       id="path12"
       d="M 65.585938 12.070312 L 111.871094 12.070312 M 65.585938 17.070312 L 111.871094 17.070312 M 65.585938 22.070312 L 111.871094 22.070312 M 65.585938 27.070312 L 111.871094 27.070312 M 65.585938 32.070312 L 111.871094 32.070312 "
       style="fill:none;stroke-width:0.4;stroke-linecap:butt;stroke-linejoin:bevel;stroke:rgb(0%,0%,0%);stroke-opacity:1;stroke-miterlimit:10;" />
    <path
       id="path14"
       d="M 111.871094 12.070312 L 181.65625 12.070312 M 111.871094 17.070312 L 181.65625 17.070312 M 111.871094 22.070312 L 181.65625 22.070312 M 111.871094 27.070312 L 181.65625 27.070312 M 111.871094 32.070312 L 181.65625 32.070312 "
       style="fill:none;stroke-width:0.4;stroke-linecap:butt;stroke-linejoin:bevel;stroke:rgb(0%,0%,0%);stroke-opacity:1;stroke-miterlimit:10;" />
    <path
       id="path16"
       d="M 181.65625 12.070312 L 220.292969 12.070312 M 181.65625 17.070312 L 220.292969 17.070312 M 181.65625 22.070312 L 220.292969 22.070312 M 181.65625 27.070312 L 220.292969 27.070312 M 181.65625 32.070312 L 220.292969 32.070312 "
       style="fill:none;stroke-width:0.4;stroke-linecap:butt;stroke-linejoin:bevel;stroke:rgb(0%,0%,0%);stroke-opacity:1;stroke-miterlimit:10;" />
    <path
       id="path18"
       d="M 220.292969 12.070312 L 266.757812 12.070312 M 220.292969 17.070312 L 266.757812 17.070312 M 220.292969 22.070312 L 266.757812 22.070312 M 220.292969 27.070312 L 266.757812 27.070312 M 220.292969 32.070312 L 266.757812 32.070312 "
       style="fill:none;stroke-width:0.4;stroke-linecap:butt;stroke-linejoin:bevel;stroke:rgb(0%,0%,0%);stroke-opacity:1;stroke-miterlimit:10;" />
    <path
       id="path20"
       d="M 266.757812 12.070312 L 305.574219 12.070312 M 266.757812 17.070312 L 305.574219 17.070312 M 266.757812 22.070312 L 305.574219 22.070312 M 266.757812 27.070312 L 305.574219 27.070312 M 266.757812 32.070312 L 305.574219 32.070312 "
       style="fill:none;stroke-width:0.4;stroke-linecap:butt;stroke-linejoin:bevel;stroke:rgb(0%,0%,0%);stroke-opacity:1;stroke-miterlimit:10;" />
    <path
       id="path22"
       d="M 305.574219 12.070312 L 352.222656 12.070312 M 305.574219 17.070312 L 352.222656 17.070312 M 305.574219 22.070312 L 352.222656 22.070312 M 305.574219 27.070312 L 352.222656 27.070312 M 305.574219 32.070312 L 352.222656 32.070312 "
       style="fill:none;stroke-width:0.4;stroke-linecap:butt;stroke-linejoin:bevel;stroke:rgb(0%,0%,0%);stroke-opacity:1;stroke-miterlimit:10;" />
    <path
       id="path24"
       d="M 352.222656 12.070312 L 406.339844 12.070312 M 352.222656 17.070312 L 406.339844 17.070312 M 352.222656 22.070312 L 406.339844 22.070312 M 352.222656 27.070312 L 406.339844 27.070312 M 352.222656 32.070312 L 406.339844 32.070312 "
       style="fill:none;stroke-width:0.4;stroke-linecap:butt;stroke-linejoin:bevel;stroke:rgb(0%,0%,0%);stroke-opacity:1;stroke-miterlimit:10;" />
    <path
       id="path26"
       d="M 65.183594 12.070312 L 65.183594 32.070312 "
       style="fill:none;stroke-width:0.800001;stroke-linecap:butt;stroke-linejoin:bevel;stroke:rgb(0%,0%,0%);stroke-opacity:1;stroke-miterlimit:10;" />
    <path
       id="path28"
       d="M 111.472656 12.070312 L 111.472656 32.070312 "
       style="fill:none;stroke-width:0.800001;stroke-linecap:butt;stroke-linejoin:bevel;stroke:rgb(0%,0%,0%);stroke-opacity:1;stroke-miterlimit:10;" />
    <path
       id="path30"
       d="M 181.257812 12.070312 L 181.257812 32.070312 "
       style="fill:none;stroke-width:0.800001;stroke-linecap:butt;stroke-linejoin:bevel;stroke:rgb(0%,0%,0%);stroke-opacity:1;stroke-miterlimit:10;" />
    <path
       id="path32"
       d="M 219.890625 12.070312 L 219.890625 32.070312 "
       style="fill:none;stroke-width:0.800001;stroke-linecap:butt;stroke-linejoin:bevel;stroke:rgb(0%,0%,0%);stroke-opacity:1;stroke-miterlimit:10;" />
    <path
       id="path34"
       d="M 266.359375 12.070312 L 266.359375 32.070312 "
       style="fill:none;stroke-width:0.800001;stroke-linecap:butt;stroke-linejoin:bevel;stroke:rgb(0%,0%,0%);stroke-opacity:1;stroke-miterlimit:10;" />
    <path
       id="path36"
       d="M 305.175781 12.070312 L 305.175781 32.070312 "
       style="fill:none;stroke-width:0.800001;stroke-linecap:butt;stroke-linejoin:bevel;stroke:rgb(0%,0%,0%);stroke-opacity:1;stroke-miterlimit:10;" />
    <path
       id="path38"
       d="M 351.820312 12.070312 L 351.820312 32.070312 "
       style="fill:none;stroke-width:0.800001;stroke-linecap:butt;stroke-linejoin:bevel;stroke:rgb(0%,0%,0%);stroke-opacity:1;stroke-miterlimit:10;" />
    <path
       id="path40"
       d="M 405.941406 12.070312 L 405.941406 32.070312 "
       style="fill:none;stroke-width:0.800001;stroke-linecap:butt;stroke-linejoin:bevel;stroke:rgb(0%,0%,0%);stroke-opacity:1;stroke-miterlimit:10;" />
    <path
       id="path42"
       d="M 47.40625 23.800781 L 47.40625 8.320312 "
       style="fill:none;stroke-width:0.65;stroke-linecap:round;stroke-linejoin:bevel;stroke:rgb(0%,0%,0%);stroke-opacity:1;stroke-miterlimit:10;" />
    <path
       id="path44"
       d="M 77.84375 23.628906 L 77.84375 8.320312 "
       style="fill:none;stroke-width:0.65;stroke-linecap:round;stroke-linejoin:bevel;stroke:rgb(0%,0%,0%);stroke-opacity:1;stroke-miterlimit:10;" />
    <path
       id="path46"
       d="M 104.167969 23.628906 L 104.167969 8.320312 "
       style="fill:none;stroke-width:0.65;stroke-linecap:round;stroke-linejoin:bevel;stroke:rgb(0%,0%,0%);stroke-opacity:1;stroke-miterlimit:10;" />
    <path
       id="path48"
       d="M 91.003906 23.628906 L 91.003906 8.320312 "
       style="fill:none;stroke-width:0.65;stroke-linecap:round;stroke-linejoin:bevel;stroke:rgb(0%,0%,0%);stroke-opacity:1;stroke-miterlimit:10;" />
    <path
       id="path50"
       d="M 124.128906 23.628906 L 124.128906 10.820312 "
       style="fill:none;stroke-width:0.65;stroke-linecap:round;stroke-linejoin:bevel;stroke:rgb(0%,0%,0%);stroke-opacity:1;stroke-miterlimit:10;" />
    <path
       id="path52"
       d="M 134.410156 23.628906 L 134.410156 10.820312 "
       style="fill:none;stroke-width:0.65;stroke-linecap:round;stroke-linejoin:bevel;stroke:rgb(0%,0%,0%);stroke-opacity:1;stroke-miterlimit:10;" />
    <path
       id="path54"
       d="M 154.96875 23.628906 L 154.96875 10.820312 "
       style="fill:none;stroke-width:0.65;stroke-linecap:round;stroke-linejoin:bevel;stroke:rgb(0%,0%,0%);stroke-opacity:1;stroke-miterlimit:10;" />
    <path
       id="path56"
       d="M 144.691406 23.628906 L 144.691406 10.820312 "
       style="fill:none;stroke-width:0.65;stroke-linecap:round;stroke-linejoin:bevel;stroke:rgb(0%,0%,0%);stroke-opacity:1;stroke-miterlimit:10;" />
    <path
       id="path58"
       d="M 175.53125 23.628906 L 175.53125 10.820312 "
       style="fill:none;stroke-width:0.65;stroke-linecap:round;stroke-linejoin:bevel;stroke:rgb(0%,0%,0%);stroke-opacity:1;stroke-miterlimit:10;" />
    <path
       id="path60"
       d="M 165.25 23.628906 L 165.25 10.820312 "
       style="fill:none;stroke-width:0.65;stroke-linecap:round;stroke-linejoin:bevel;stroke:rgb(0%,0%,0%);stroke-opacity:1;stroke-miterlimit:10;" />
    <path
       id="path62"
       d="M 194.277344 23.800781 L 194.277344 8.320312 "
       style="fill:none;stroke-width:0.65;stroke-linecap:round;stroke-linejoin:bevel;stroke:rgb(0%,0%,0%);stroke-opacity:1;stroke-miterlimit:10;" />
    <path
       id="path64"
       d="M 213.574219 23.628906 L 213.574219 8.320312 "
       style="fill:none;stroke-width:0.65;stroke-linecap:round;stroke-linejoin:bevel;stroke:rgb(0%,0%,0%);stroke-opacity:1;stroke-miterlimit:10;" />
    <path
       id="path66"
       d="M 232.910156 23.800781 L 232.910156 8.320312 "
       style="fill:none;stroke-width:0.65;stroke-linecap:round;stroke-linejoin:bevel;stroke:rgb(0%,0%,0%);stroke-opacity:1;stroke-miterlimit:10;" />
    <path
       id="path68"
       d="M 251.914062 23.628906 L 251.914062 10.820312 "
       style="fill:none;stroke-width:0.65;stroke-linecap:round;stroke-linejoin:bevel;stroke:rgb(0%,0%,0%);stroke-opacity:1;stroke-miterlimit:10;" />
    <path
       id="path70"
       d="M 260.632812 23.628906 L 260.632812 10.820312 "
       style="fill:none;stroke-width:0.65;stroke-linecap:round;stroke-linejoin:bevel;stroke:rgb(0%,0%,0%);stroke-opacity:1;stroke-miterlimit:10;" />
    <path
       id="path72"
       d="M 291.511719 23.800781 L 291.511719 8.320312 "
       style="fill:none;stroke-width:0.65;stroke-linecap:round;stroke-linejoin:bevel;stroke:rgb(0%,0%,0%);stroke-opacity:1;stroke-miterlimit:10;" />
    <path
       id="path74"
       d="M 279.015625 23.628906 L 279.015625 8.320312 "
       style="fill:none;stroke-width:0.65;stroke-linecap:round;stroke-linejoin:bevel;stroke:rgb(0%,0%,0%);stroke-opacity:1;stroke-miterlimit:10;" />
    <path
       id="path76"
       d="M 327.320312 23.628906 L 327.320312 10.820312 "
       style="fill:none;stroke-width:0.65;stroke-linecap:round;stroke-linejoin:bevel;stroke:rgb(0%,0%,0%);stroke-opacity:1;stroke-miterlimit:10;" />
    <path
       id="path78"
       d="M 317.832031 23.628906 L 317.832031 10.820312 "
       style="fill:none;stroke-width:0.65;stroke-linecap:round;stroke-linejoin:bevel;stroke:rgb(0%,0%,0%);stroke-opacity:1;stroke-miterlimit:10;" />
    <path
       id="path80"
       d="M 336.988281 23.800781 L 336.988281 8.320312 "
       style="fill:none;stroke-width:0.65;stroke-linecap:round;stroke-linejoin:bevel;stroke:rgb(0%,0%,0%);stroke-opacity:1;stroke-miterlimit:10;" />
    <path
       id="path82"
       d="M 364.480469 23.628906 L 364.480469 8.320312 "
       style="fill:none;stroke-width:0.65;stroke-linecap:round;stroke-linejoin:bevel;stroke:rgb(0%,0%,0%);stroke-opacity:1;stroke-miterlimit:10;" />
    <path
       id="path84"
       d="M 378.09375 23.628906 L 378.09375 8.320312 "
       style="fill:none;stroke-width:0.65;stroke-linecap:round;stroke-linejoin:bevel;stroke:rgb(0%,0%,0%);stroke-opacity:1;stroke-miterlimit:10;" />
    <path
       id="path86"
       d="M 400.214844 23.628906 L 400.214844 10.820312 "
       style="fill:none;stroke-width:0.65;stroke-linecap:round;stroke-linejoin:bevel;stroke:rgb(0%,0%,0%);stroke-opacity:1;stroke-miterlimit:10;" />
    <path
       id="path88"
       d="M 391.707031 23.628906 L 391.707031 10.820312 "
       style="fill:none;stroke-width:0.65;stroke-linecap:round;stroke-linejoin:bevel;stroke:rgb(0%,0%,0%);stroke-opacity:1;stroke-miterlimit:10;" />
    <path
       id="path90"
       d="M 47.09375 23.261719 C 47.09375 23.039062 47.011719 22.851562 46.839844 22.695312 C 46.671875 22.523438 46.476562 22.441406 46.253906 22.441406 C 45.863281 22.441406 45.078125 22.832031 43.890625 23.613281 C 42.667969 24.40625 41.917969 24.972656 41.644531 25.3125 C 41.503906 25.492188 41.429688 25.683594 41.429688 25.878906 C 41.429688 26.097656 41.515625 26.289062 41.683594 26.445312 C 41.839844 26.613281 42.035156 26.699219 42.269531 26.699219 C 42.648438 26.699219 43.441406 26.308594 44.652344 25.527344 C 45.851562 24.746094 46.59375 24.179688 46.878906 23.828125 C 47.023438 23.65625 47.09375 23.46875 47.09375 23.261719 Z M 46.058594 21.816406 C 47.179688 21.816406 47.738281 22.296875 47.738281 23.261719 C 47.738281 23.730469 47.601562 24.277344 47.328125 24.902344 C 47.054688 25.511719 46.691406 25.980469 46.234375 26.308594 C 45.234375 26.984375 43.976562 27.324219 42.464844 27.324219 C 41.347656 27.324219 40.785156 26.839844 40.785156 25.878906 C 40.785156 25.449219 40.921875 24.90625 41.195312 24.257812 C 41.457031 23.632812 41.820312 23.15625 42.289062 22.832031 C 43.292969 22.152344 44.550781 21.816406 46.058594 21.816406 Z M 46.058594 21.816406 "
       style=" stroke:none;fill-rule:nonzero;fill:rgb(0%,0%,0%);fill-opacity:1;" />
    <path
       id="path92"
       d="M 89.140625 21.816406 C 89.765625 21.816406 90.292969 21.976562 90.722656 22.304688 C 91.125 22.65625 91.328125 23.097656 91.328125 23.632812 C 91.328125 24.53125 90.867188 25.371094 89.941406 26.152344 C 89.003906 26.933594 88 27.324219 86.933594 27.324219 C 86.308594 27.324219 85.78125 27.160156 85.351562 26.835938 C 84.949219 26.484375 84.746094 26.039062 84.746094 25.507812 C 84.746094 24.609375 85.214844 23.769531 86.152344 22.988281 C 87.0625 22.207031 88.058594 21.816406 89.140625 21.816406 Z M 89.140625 21.816406 "
       style=" stroke:none;fill-rule:nonzero;fill:rgb(0%,0%,0%);fill-opacity:1;" />
    <path
       id="path94"
       d="M 75.980469 21.816406 C 76.605469 21.816406 77.132812 21.976562 77.5625 22.304688 C 77.964844 22.65625 78.167969 23.097656 78.167969 23.632812 C 78.167969 24.53125 77.703125 25.371094 76.78125 26.152344 C 75.84375 26.933594 74.839844 27.324219 73.773438 27.324219 C 73.148438 27.324219 72.621094 27.160156 72.191406 26.835938 C 71.785156 26.484375 71.585938 26.039062 71.585938 25.507812 C 71.585938 24.609375 72.054688 23.769531 72.992188 22.988281 C 73.902344 22.207031 74.898438 21.816406 75.980469 21.816406 Z M 75.980469 21.816406 "
       style=" stroke:none;fill-rule:nonzero;fill:rgb(0%,0%,0%);fill-opacity:1;" />
    <path
       id="path96"
       d="M 102.304688 21.816406 C 102.929688 21.816406 103.457031 21.976562 103.886719 22.304688 C 104.289062 22.65625 104.492188 23.097656 104.492188 23.632812 C 104.492188 24.53125 104.027344 25.371094 103.105469 26.152344 C 102.167969 26.933594 101.164062 27.324219 100.097656 27.324219 C 99.472656 27.324219 98.945312 27.160156 98.515625 26.835938 C 98.109375 26.484375 97.910156 26.039062 97.910156 25.507812 C 97.910156 24.609375 98.378906 23.769531 99.316406 22.988281 C 100.226562 22.207031 101.222656 21.816406 102.304688 21.816406 Z M 102.304688 21.816406 "
       style=" stroke:none;fill-rule:nonzero;fill:rgb(0%,0%,0%);fill-opacity:1;" />
    <path
       id="path98"
       d="M 122.265625 21.816406 C 122.890625 21.816406 123.417969 21.976562 123.847656 22.304688 C 124.25 22.65625 124.453125 23.097656 124.453125 23.632812 C 124.453125 24.53125 123.992188 25.371094 123.066406 26.152344 C 122.128906 26.933594 121.125 27.324219 120.058594 27.324219 C 119.433594 27.324219 118.90625 27.160156 118.476562 26.835938 C 118.074219 26.484375 117.871094 26.039062 117.871094 25.507812 C 117.871094 24.609375 118.339844 23.769531 119.277344 22.988281 C 120.1875 22.207031 121.183594 21.816406 122.265625 21.816406 Z M 122.265625 21.816406 "
       style=" stroke:none;fill-rule:nonzero;fill:rgb(0%,0%,0%);fill-opacity:1;" />
    <path
       id="path100"
       d="M 142.828125 21.816406 C 143.453125 21.816406 143.980469 21.976562 144.410156 22.304688 C 144.8125 22.65625 145.015625 23.097656 145.015625 23.632812 C 145.015625 24.53125 144.550781 25.371094 143.628906 26.152344 C 142.691406 26.933594 141.6875 27.324219 140.621094 27.324219 C 139.996094 27.324219 139.46875 27.160156 139.039062 26.835938 C 138.632812 26.484375 138.433594 26.039062 138.433594 25.507812 C 138.433594 24.609375 138.902344 23.769531 139.839844 22.988281 C 140.75 22.207031 141.746094 21.816406 142.828125 21.816406 Z M 142.828125 21.816406 "
       style=" stroke:none;fill-rule:nonzero;fill:rgb(0%,0%,0%);fill-opacity:1;" />
    <path
       id="path102"
       d="M 132.546875 21.816406 C 133.171875 21.816406 133.699219 21.976562 134.128906 22.304688 C 134.53125 22.65625 134.734375 23.097656 134.734375 23.632812 C 134.734375 24.53125 134.273438 25.371094 133.347656 26.152344 C 132.410156 26.933594 131.40625 27.324219 130.339844 27.324219 C 129.714844 27.324219 129.1875 27.160156 128.757812 26.835938 C 128.355469 26.484375 128.152344 26.039062 128.152344 25.507812 C 128.152344 24.609375 128.621094 23.769531 129.558594 22.988281 C 130.46875 22.207031 131.464844 21.816406 132.546875 21.816406 Z M 132.546875 21.816406 "
       style=" stroke:none;fill-rule:nonzero;fill:rgb(0%,0%,0%);fill-opacity:1;" />
    <path
       id="path104"
       d="M 163.386719 21.816406 C 164.011719 21.816406 164.539062 21.976562 164.96875 22.304688 C 165.375 22.65625 165.574219 23.097656 165.574219 23.632812 C 165.574219 24.53125 165.113281 25.371094 164.1875 26.152344 C 163.25 26.933594 162.25 27.324219 161.179688 27.324219 C 160.554688 27.324219 160.027344 27.160156 159.597656 26.835938 C 159.195312 26.484375 158.992188 26.039062 158.992188 25.507812 C 158.992188 24.609375 159.460938 23.769531 160.398438 22.988281 C 161.3125 22.207031 162.308594 21.816406 163.386719 21.816406 Z M 163.386719 21.816406 "
       style=" stroke:none;fill-rule:nonzero;fill:rgb(0%,0%,0%);fill-opacity:1;" />
    <path
       id="path106"
       d="M 153.105469 21.816406 C 153.730469 21.816406 154.257812 21.976562 154.6875 22.304688 C 155.09375 22.65625 155.292969 23.097656 155.292969 23.632812 C 155.292969 24.53125 154.832031 25.371094 153.90625 26.152344 C 152.96875 26.933594 151.96875 27.324219 150.898438 27.324219 C 150.273438 27.324219 149.746094 27.160156 149.316406 26.835938 C 148.914062 26.484375 148.710938 26.039062 148.710938 25.507812 C 148.710938 24.609375 149.179688 23.769531 150.117188 22.988281 C 151.03125 22.207031 152.027344 21.816406 153.105469 21.816406 Z M 153.105469 21.816406 "
       style=" stroke:none;fill-rule:nonzero;fill:rgb(0%,0%,0%);fill-opacity:1;" />
    <path
       id="path108"
       d="M 173.667969 21.816406 C 174.292969 21.816406 174.820312 21.976562 175.25 22.304688 C 175.652344 22.65625 175.855469 23.097656 175.855469 23.632812 C 175.855469 24.53125 175.394531 25.371094 174.46875 26.152344 C 173.53125 26.933594 172.527344 27.324219 171.460938 27.324219 C 170.835938 27.324219 170.308594 27.160156 169.878906 26.835938 C 169.476562 26.484375 169.273438 26.039062 169.273438 25.507812 C 169.273438 24.609375 169.742188 23.769531 170.679688 22.988281 C 171.589844 22.207031 172.585938 21.816406 173.667969 21.816406 Z M 173.667969 21.816406 "
       style=" stroke:none;fill-rule:nonzero;fill:rgb(0%,0%,0%);fill-opacity:1;" />
    <path
       id="path110"
       d="M 193.964844 23.261719 C 193.964844 23.039062 193.878906 22.851562 193.710938 22.695312 C 193.542969 22.523438 193.347656 22.441406 193.125 22.441406 C 192.734375 22.441406 191.945312 22.832031 190.761719 23.613281 C 189.539062 24.40625 188.789062 24.972656 188.515625 25.3125 C 188.371094 25.492188 188.300781 25.683594 188.300781 25.878906 C 188.300781 26.097656 188.386719 26.289062 188.554688 26.445312 C 188.710938 26.613281 188.90625 26.699219 189.140625 26.699219 C 189.519531 26.699219 190.3125 26.308594 191.523438 25.527344 C 192.722656 24.746094 193.464844 24.179688 193.75 23.828125 C 193.894531 23.65625 193.964844 23.46875 193.964844 23.261719 Z M 192.929688 21.816406 C 194.050781 21.816406 194.609375 22.296875 194.609375 23.261719 C 194.609375 23.730469 194.472656 24.277344 194.199219 24.902344 C 193.925781 25.511719 193.5625 25.980469 193.105469 26.308594 C 192.101562 26.984375 190.847656 27.324219 189.335938 27.324219 C 188.214844 27.324219 187.65625 26.839844 187.65625 25.878906 C 187.65625 25.449219 187.792969 24.90625 188.066406 24.257812 C 188.328125 23.632812 188.691406 23.15625 189.160156 22.832031 C 190.164062 22.152344 191.417969 21.816406 192.929688 21.816406 Z M 192.929688 21.816406 "
       style=" stroke:none;fill-rule:nonzero;fill:rgb(0%,0%,0%);fill-opacity:1;" />
    <path
       id="path112"
       d="M 211.710938 21.816406 C 212.335938 21.816406 212.863281 21.976562 213.292969 22.304688 C 213.695312 22.65625 213.898438 23.097656 213.898438 23.632812 C 213.898438 24.53125 213.4375 25.371094 212.511719 26.152344 C 211.574219 26.933594 210.570312 27.324219 209.503906 27.324219 C 208.878906 27.324219 208.351562 27.160156 207.921875 26.835938 C 207.519531 26.484375 207.316406 26.039062 207.316406 25.507812 C 207.316406 24.609375 207.785156 23.769531 208.722656 22.988281 C 209.632812 22.207031 210.628906 21.816406 211.710938 21.816406 Z M 211.710938 21.816406 "
       style=" stroke:none;fill-rule:nonzero;fill:rgb(0%,0%,0%);fill-opacity:1;" />
    <path
       id="path114"
       d="M 232.601562 23.261719 C 232.601562 23.039062 232.515625 22.851562 232.347656 22.695312 C 232.175781 22.523438 231.980469 22.441406 231.761719 22.441406 C 231.371094 22.441406 230.582031 22.832031 229.398438 23.613281 C 228.171875 24.40625 227.425781 24.972656 227.152344 25.3125 C 227.007812 25.492188 226.9375 25.683594 226.9375 25.878906 C 226.9375 26.097656 227.019531 26.289062 227.191406 26.445312 C 227.347656 26.613281 227.542969 26.699219 227.777344 26.699219 C 228.152344 26.699219 228.949219 26.308594 230.160156 25.527344 C 231.355469 24.746094 232.097656 24.179688 232.386719 23.828125 C 232.527344 23.65625 232.601562 23.46875 232.601562 23.261719 Z M 231.566406 21.816406 C 232.683594 21.816406 233.246094 22.296875 233.246094 23.261719 C 233.246094 23.730469 233.109375 24.277344 232.835938 24.902344 C 232.5625 25.511719 232.195312 25.980469 231.742188 26.308594 C 230.738281 26.984375 229.480469 27.324219 227.972656 27.324219 C 226.851562 27.324219 226.292969 26.839844 226.292969 25.878906 C 226.292969 25.449219 226.429688 24.90625 226.703125 24.257812 C 226.960938 23.632812 227.328125 23.15625 227.796875 22.832031 C 228.796875 22.152344 230.054688 21.816406 231.566406 21.816406 Z M 231.566406 21.816406 "
       style=" stroke:none;fill-rule:nonzero;fill:rgb(0%,0%,0%);fill-opacity:1;" />
    <path
       id="path116"
       d="M 258.769531 21.816406 C 259.394531 21.816406 259.921875 21.976562 260.351562 22.304688 C 260.757812 22.65625 260.957031 23.097656 260.957031 23.632812 C 260.957031 24.53125 260.496094 25.371094 259.570312 26.152344 C 258.632812 26.933594 257.632812 27.324219 256.5625 27.324219 C 255.9375 27.324219 255.410156 27.160156 254.980469 26.835938 C 254.578125 26.484375 254.375 26.039062 254.375 25.507812 C 254.375 24.609375 254.84375 23.769531 255.78125 22.988281 C 256.695312 22.207031 257.691406 21.816406 258.769531 21.816406 Z M 258.769531 21.816406 "
       style=" stroke:none;fill-rule:nonzero;fill:rgb(0%,0%,0%);fill-opacity:1;" />
    <path
       id="path118"
       d="M 250.050781 21.816406 C 250.675781 21.816406 251.203125 21.976562 251.632812 22.304688 C 252.035156 22.65625 252.238281 23.097656 252.238281 23.632812 C 252.238281 24.53125 251.777344 25.371094 250.851562 26.152344 C 249.914062 26.933594 248.910156 27.324219 247.84375 27.324219 C 247.21875 27.324219 246.691406 27.160156 246.261719 26.835938 C 245.859375 26.484375 245.65625 26.039062 245.65625 25.507812 C 245.65625 24.609375 246.125 23.769531 247.0625 22.988281 C 247.972656 22.207031 248.96875 21.816406 250.050781 21.816406 Z M 250.050781 21.816406 "
       style=" stroke:none;fill-rule:nonzero;fill:rgb(0%,0%,0%);fill-opacity:1;" />
    <path
       id="path120"
       d="M 277.152344 21.816406 C 277.777344 21.816406 278.304688 21.976562 278.734375 22.304688 C 279.140625 22.65625 279.339844 23.097656 279.339844 23.632812 C 279.339844 24.53125 278.878906 25.371094 277.953125 26.152344 C 277.015625 26.933594 276.015625 27.324219 274.945312 27.324219 C 274.320312 27.324219 273.792969 27.160156 273.363281 26.835938 C 272.960938 26.484375 272.757812 26.039062 272.757812 25.507812 C 272.757812 24.609375 273.226562 23.769531 274.164062 22.988281 C 275.078125 22.207031 276.074219 21.816406 277.152344 21.816406 Z M 277.152344 21.816406 "
       style=" stroke:none;fill-rule:nonzero;fill:rgb(0%,0%,0%);fill-opacity:1;" />
    <path
       id="path122"
       d="M 291.199219 23.261719 C 291.199219 23.039062 291.117188 22.851562 290.945312 22.695312 C 290.777344 22.523438 290.582031 22.441406 290.359375 22.441406 C 289.96875 22.441406 289.183594 22.832031 287.996094 23.613281 C 286.773438 24.40625 286.023438 24.972656 285.75 25.3125 C 285.609375 25.492188 285.535156 25.683594 285.535156 25.878906 C 285.535156 26.097656 285.621094 26.289062 285.789062 26.445312 C 285.945312 26.613281 286.140625 26.699219 286.375 26.699219 C 286.753906 26.699219 287.546875 26.308594 288.757812 25.527344 C 289.957031 24.746094 290.699219 24.179688 290.984375 23.828125 C 291.128906 23.65625 291.199219 23.46875 291.199219 23.261719 Z M 290.164062 21.816406 C 291.285156 21.816406 291.84375 22.296875 291.84375 23.261719 C 291.84375 23.730469 291.707031 24.277344 291.433594 24.902344 C 291.160156 25.511719 290.796875 25.980469 290.339844 26.308594 C 289.339844 26.984375 288.082031 27.324219 286.570312 27.324219 C 285.453125 27.324219 284.890625 26.839844 284.890625 25.878906 C 284.890625 25.449219 285.027344 24.90625 285.300781 24.257812 C 285.5625 23.632812 285.925781 23.15625 286.394531 22.832031 C 287.398438 22.152344 288.65625 21.816406 290.164062 21.816406 Z M 290.164062 21.816406 "
       style=" stroke:none;fill-rule:nonzero;fill:rgb(0%,0%,0%);fill-opacity:1;" />
    <path
       id="path124"
       d="M 325.457031 21.816406 C 326.082031 21.816406 326.609375 21.976562 327.039062 22.304688 C 327.441406 22.65625 327.644531 23.097656 327.644531 23.632812 C 327.644531 24.53125 327.179688 25.371094 326.257812 26.152344 C 325.320312 26.933594 324.316406 27.324219 323.25 27.324219 C 322.625 27.324219 322.097656 27.160156 321.667969 26.835938 C 321.261719 26.484375 321.0625 26.039062 321.0625 25.507812 C 321.0625 24.609375 321.53125 23.769531 322.46875 22.988281 C 323.378906 22.207031 324.375 21.816406 325.457031 21.816406 Z M 325.457031 21.816406 "
       style=" stroke:none;fill-rule:nonzero;fill:rgb(0%,0%,0%);fill-opacity:1;" />
    <path
       id="path126"
       d="M 315.96875 21.816406 C 316.59375 21.816406 317.121094 21.976562 317.550781 22.304688 C 317.953125 22.65625 318.15625 23.097656 318.15625 23.632812 C 318.15625 24.53125 317.695312 25.371094 316.769531 26.152344 C 315.832031 26.933594 314.828125 27.324219 313.761719 27.324219 C 313.136719 27.324219 312.609375 27.160156 312.179688 26.835938 C 311.777344 26.484375 311.574219 26.039062 311.574219 25.507812 C 311.574219 24.609375 312.042969 23.769531 312.980469 22.988281 C 313.890625 22.207031 314.886719 21.816406 315.96875 21.816406 Z M 315.96875 21.816406 "
       style=" stroke:none;fill-rule:nonzero;fill:rgb(0%,0%,0%);fill-opacity:1;" />
    <path
       id="path128"
       d="M 336.675781 23.261719 C 336.675781 23.039062 336.59375 22.851562 336.421875 22.695312 C 336.253906 22.523438 336.058594 22.441406 335.835938 22.441406 C 335.445312 22.441406 334.660156 22.832031 333.472656 23.613281 C 332.25 24.40625 331.5 24.972656 331.226562 25.3125 C 331.085938 25.492188 331.011719 25.683594 331.011719 25.878906 C 331.011719 26.097656 331.097656 26.289062 331.265625 26.445312 C 331.421875 26.613281 331.617188 26.699219 331.851562 26.699219 C 332.230469 26.699219 333.023438 26.308594 334.234375 25.527344 C 335.433594 24.746094 336.175781 24.179688 336.460938 23.828125 C 336.605469 23.65625 336.675781 23.46875 336.675781 23.261719 Z M 335.640625 21.816406 C 336.761719 21.816406 337.320312 22.296875 337.320312 23.261719 C 337.320312 23.730469 337.183594 24.277344 336.910156 24.902344 C 336.636719 25.511719 336.273438 25.980469 335.816406 26.308594 C 334.816406 26.984375 333.558594 27.324219 332.046875 27.324219 C 330.929688 27.324219 330.367188 26.839844 330.367188 25.878906 C 330.367188 25.449219 330.503906 24.90625 330.777344 24.257812 C 331.039062 23.632812 331.402344 23.15625 331.871094 22.832031 C 332.875 22.152344 334.132812 21.816406 335.640625 21.816406 Z M 335.640625 21.816406 "
       style=" stroke:none;fill-rule:nonzero;fill:rgb(0%,0%,0%);fill-opacity:1;" />
    <path
       id="path130"
       d="M 362.617188 21.816406 C 363.242188 21.816406 363.769531 21.976562 364.199219 22.304688 C 364.601562 22.65625 364.804688 23.097656 364.804688 23.632812 C 364.804688 24.53125 364.339844 25.371094 363.417969 26.152344 C 362.480469 26.933594 361.476562 27.324219 360.410156 27.324219 C 359.785156 27.324219 359.257812 27.160156 358.828125 26.835938 C 358.421875 26.484375 358.222656 26.039062 358.222656 25.507812 C 358.222656 24.609375 358.691406 23.769531 359.628906 22.988281 C 360.539062 22.207031 361.535156 21.816406 362.617188 21.816406 Z M 362.617188 21.816406 "
       style=" stroke:none;fill-rule:nonzero;fill:rgb(0%,0%,0%);fill-opacity:1;" />
    <path
       id="path132"
       d="M 376.230469 21.816406 C 376.855469 21.816406 377.382812 21.976562 377.8125 22.304688 C 378.214844 22.65625 378.417969 23.097656 378.417969 23.632812 C 378.417969 24.53125 377.957031 25.371094 377.03125 26.152344 C 376.09375 26.933594 375.089844 27.324219 374.023438 27.324219 C 373.398438 27.324219 372.871094 27.160156 372.441406 26.835938 C 372.039062 26.484375 371.835938 26.039062 371.835938 25.507812 C 371.835938 24.609375 372.304688 23.769531 373.242188 22.988281 C 374.152344 22.207031 375.148438 21.816406 376.230469 21.816406 Z M 376.230469 21.816406 "
       style=" stroke:none;fill-rule:nonzero;fill:rgb(0%,0%,0%);fill-opacity:1;" />
    <path
       id="path134"
       d="M 398.351562 21.816406 C 398.976562 21.816406 399.503906 21.976562 399.933594 22.304688 C 400.339844 22.65625 400.539062 23.097656 400.539062 23.632812 C 400.539062 24.53125 400.078125 25.371094 399.152344 26.152344 C 398.214844 26.933594 397.214844 27.324219 396.144531 27.324219 C 395.519531 27.324219 394.992188 27.160156 394.5625 26.835938 C 394.160156 26.484375 393.957031 26.039062 393.957031 25.507812 C 393.957031 24.609375 394.425781 23.769531 395.363281 22.988281 C 396.277344 22.207031 397.273438 21.816406 398.351562 21.816406 Z M 398.351562 21.816406 "
       style=" stroke:none;fill-rule:nonzero;fill:rgb(0%,0%,0%);fill-opacity:1;" />
    <path
       id="path136"
       d="M 389.84375 21.816406 C 390.46875 21.816406 390.996094 21.976562 391.425781 22.304688 C 391.832031 22.65625 392.03125 23.097656 392.03125 23.632812 C 392.03125 24.53125 391.570312 25.371094 390.644531 26.152344 C 389.707031 26.933594 388.707031 27.324219 387.636719 27.324219 C 387.011719 27.324219 386.484375 27.160156 386.054688 26.835938 C 385.652344 26.484375 385.449219 26.039062 385.449219 25.507812 C 385.449219 24.609375 385.917969 23.769531 386.855469 22.988281 C 387.769531 22.207031 388.765625 21.816406 389.84375 21.816406 Z M 389.84375 21.816406 "
       style=" stroke:none;fill-rule:nonzero;fill:rgb(0%,0%,0%);fill-opacity:1;" />
    <path
       id="path138"
       d="M 14.292969 21.953125 C 14.292969 21.953125 14.332031 21.953125 14.410156 21.953125 C 14.460938 21.9375 14.507812 21.933594 14.546875 21.933594 C 16.003906 21.933594 17.203125 22.445312 18.140625 23.476562 C 19.078125 24.492188 19.546875 25.675781 19.546875 27.03125 C 19.546875 28.710938 18.851562 30.078125 17.457031 31.132812 C 17.09375 31.417969 16.617188 31.652344 16.03125 31.835938 C 16.097656 32.679688 16.128906 33.363281 16.128906 33.886719 C 16.128906 33.988281 16.117188 34.367188 16.089844 35.019531 C 16.039062 36.230469 15.621094 37.277344 14.839844 38.164062 C 14.085938 39.035156 13.148438 39.472656 12.027344 39.472656 C 10.972656 39.472656 10.074219 39.101562 9.332031 38.359375 C 8.589844 37.601562 8.21875 36.691406 8.21875 35.625 C 8.21875 35.0625 8.433594 34.589844 8.863281 34.199219 C 9.304688 33.808594 9.820312 33.613281 10.40625 33.613281 C 10.925781 33.613281 11.363281 33.8125 11.714844 34.21875 C 12.078125 34.59375 12.261719 35.0625 12.261719 35.625 C 12.261719 36.132812 12.078125 36.566406 11.714844 36.933594 C 11.351562 37.296875 10.914062 37.480469 10.40625 37.480469 C 10.199219 37.480469 9.996094 37.441406 9.800781 37.363281 C 10.375 38.207031 11.136719 38.632812 12.085938 38.632812 C 12.984375 38.632812 13.71875 38.265625 14.292969 37.539062 C 14.890625 36.78125 15.21875 35.902344 15.269531 34.902344 C 15.296875 34.277344 15.308594 33.917969 15.308594 33.828125 C 15.308594 33.097656 15.28125 32.5 15.230469 32.03125 C 14.578125 32.132812 14 32.1875 13.492188 32.1875 C 11.683594 32.1875 10.140625 31.46875 8.863281 30.039062 C 7.613281 28.59375 6.988281 26.875 6.988281 24.882812 C 6.988281 24.464844 7.027344 24.042969 7.105469 23.613281 C 7.183594 23.261719 7.28125 22.875 7.398438 22.460938 C 7.464844 22.226562 7.640625 21.847656 7.925781 21.328125 C 8.03125 21.171875 8.148438 20.976562 8.277344 20.742188 C 8.40625 20.507812 8.5 20.351562 8.550781 20.273438 C 8.679688 20.011719 8.933594 19.660156 9.3125 19.21875 C 9.417969 19.101562 9.523438 18.96875 9.632812 18.828125 C 9.746094 18.683594 9.839844 18.566406 9.917969 18.476562 C 9.996094 18.382812 10.054688 18.3125 10.09375 18.261719 C 10.132812 18.207031 10.425781 17.863281 10.972656 17.226562 C 11.101562 17.09375 11.230469 16.957031 11.351562 16.804688 C 11.476562 16.65625 11.578125 16.539062 11.65625 16.453125 C 11.734375 16.371094 11.792969 16.308594 11.832031 16.269531 C 11.363281 14.71875 11.070312 13.480469 10.953125 12.558594 C 10.863281 11.816406 10.816406 10.800781 10.816406 9.511719 C 10.816406 8.378906 11.078125 7.316406 11.597656 6.328125 C 12.105469 5.296875 12.816406 4.457031 13.726562 3.808594 C 13.792969 3.769531 13.855469 3.75 13.921875 3.75 C 14.011719 3.75 14.078125 3.769531 14.117188 3.808594 C 14.820312 4.652344 15.425781 5.753906 15.933594 7.109375 C 16.453125 8.460938 16.714844 9.691406 16.714844 10.800781 C 16.714844 12.050781 16.414062 13.222656 15.816406 14.316406 C 15.140625 15.472656 14.265625 16.671875 13.199219 17.910156 C 13.472656 18.769531 13.835938 20.117188 14.292969 21.953125 Z M 15.953125 31.035156 C 16.628906 30.785156 17.15625 30.363281 17.535156 29.765625 C 17.953125 29.191406 18.160156 28.546875 18.160156 27.832031 C 18.160156 26.90625 17.847656 26.085938 17.222656 25.371094 C 16.585938 24.628906 15.769531 24.210938 14.78125 24.121094 C 15.339844 26.867188 15.730469 29.171875 15.953125 31.035156 Z M 8.394531 26.523438 C 8.394531 27.8125 8.914062 28.945312 9.957031 29.921875 C 11.023438 30.871094 12.222656 31.347656 13.550781 31.347656 C 14.097656 31.347656 14.632812 31.308594 15.152344 31.230469 C 14.945312 29.25 14.535156 26.878906 13.921875 24.121094 C 13.179688 24.199219 12.585938 24.457031 12.144531 24.902344 C 11.714844 25.355469 11.5 25.871094 11.5 26.445312 C 11.5 27.433594 12.027344 28.234375 13.082031 28.847656 C 13.171875 28.9375 13.21875 29.035156 13.21875 29.140625 C 13.21875 29.242188 13.171875 29.339844 13.082031 29.433594 C 13.003906 29.523438 12.90625 29.570312 12.789062 29.570312 C 12.777344 29.570312 12.71875 29.554688 12.613281 29.53125 C 11.871094 29.125 11.296875 28.605469 10.894531 27.96875 C 10.515625 27.289062 10.328125 26.605469 10.328125 25.917969 C 10.328125 25.019531 10.609375 24.203125 11.167969 23.476562 C 11.753906 22.746094 12.515625 22.277344 13.453125 22.070312 C 13.089844 20.609375 12.789062 19.472656 12.554688 18.652344 C 12.347656 18.886719 12.09375 19.167969 11.800781 19.5 C 11.507812 19.832031 11.335938 20.03125 11.285156 20.097656 C 10.816406 20.707031 10.457031 21.183594 10.210938 21.523438 C 9.769531 22.132812 9.441406 22.660156 9.234375 23.105469 C 9.011719 23.597656 8.816406 24.140625 8.648438 24.726562 C 8.480469 25.285156 8.394531 25.882812 8.394531 26.523438 Z M 14.917969 6.660156 C 13.941406 7.140625 13.171875 7.832031 12.613281 8.730469 C 12.039062 9.652344 11.753906 10.648438 11.753906 11.71875 C 11.753906 12.65625 11.988281 13.917969 12.457031 15.507812 C 13.394531 14.375 14.097656 13.324219 14.566406 12.363281 C 15.0625 11.347656 15.308594 10.285156 15.308594 9.179688 C 15.308594 8.34375 15.179688 7.503906 14.917969 6.660156 Z M 14.917969 6.660156 "
       style=" stroke:none;fill-rule:nonzero;fill:rgb(0%,0%,0%);fill-opacity:1;" />
    <path
       id="path140"
       d="M 28.277344 16.953125 C 27.785156 16.953125 27.476562 17.148438 27.359375 17.539062 C 27.269531 17.824219 27.222656 18.304688 27.222656 18.984375 L 27.222656 19.570312 C 27.222656 20.246094 27.269531 20.726562 27.359375 21.015625 C 27.476562 21.40625 27.785156 21.601562 28.277344 21.601562 C 28.824219 21.601562 29.171875 21.371094 29.3125 20.917969 C 29.445312 20.488281 29.507812 19.941406 29.507812 19.277344 C 29.507812 18.507812 29.4375 17.929688 29.292969 17.539062 C 29.136719 17.148438 28.800781 16.953125 28.277344 16.953125 Z M 27.222656 16.757812 C 27.613281 16.601562 27.964844 16.507812 28.277344 16.484375 C 29.320312 16.484375 30.152344 16.71875 30.777344 17.1875 C 31.378906 17.667969 31.675781 18.359375 31.675781 19.257812 C 31.675781 20.167969 31.371094 20.871094 30.757812 21.367188 C 30.148438 21.835938 29.320312 22.070312 28.277344 22.070312 C 27.210938 22.070312 26.378906 21.574219 25.777344 20.585938 C 25.179688 19.59375 24.878906 18.421875 24.878906 17.070312 C 24.878906 15.742188 25.230469 14.570312 25.933594 13.554688 C 26.652344 12.5625 27.570312 12.070312 28.6875 12.070312 C 29.417969 12.070312 30.0625 12.257812 30.621094 12.636719 C 31.167969 13.011719 31.441406 13.507812 31.441406 14.121094 C 31.441406 14.496094 31.3125 14.808594 31.050781 15.058594 C 30.816406 15.316406 30.519531 15.449219 30.152344 15.449219 C 29.789062 15.449219 29.476562 15.316406 29.214844 15.058594 C 28.957031 14.796875 28.824219 14.484375 28.824219 14.121094 C 28.824219 13.976562 28.957031 13.8125 29.214844 13.632812 C 29.476562 13.476562 29.605469 13.3125 29.605469 13.144531 C 29.605469 12.960938 29.515625 12.8125 29.332031 12.695312 C 29.125 12.589844 28.910156 12.539062 28.6875 12.539062 C 28.089844 12.539062 27.691406 12.777344 27.496094 13.261719 C 27.289062 13.730469 27.183594 14.414062 27.183594 15.3125 C 27.183594 15.570312 27.191406 15.8125 27.203125 16.035156 C 27.21875 16.253906 27.222656 16.496094 27.222656 16.757812 Z M 27.222656 16.757812 "
       style=" stroke:none;fill-rule:nonzero;fill:rgb(0%,0%,0%);fill-opacity:1;" />
    <path
       id="path142"
       d="M 29.710938 26.308594 C 30.363281 25.589844 30.6875 24.914062 30.6875 24.277344 C 30.6875 23.742188 30.460938 23.320312 30.003906 23.007812 C 29.5625 22.695312 29.015625 22.539062 28.363281 22.539062 C 27.910156 22.539062 27.542969 22.679688 27.269531 22.96875 C 26.996094 23.253906 26.859375 23.578125 26.859375 23.945312 C 26.859375 24.398438 27.0625 24.75 27.464844 25 Z M 30.316406 26.640625 C 31.425781 27.277344 31.976562 28.128906 31.976562 29.199219 C 31.976562 29.992188 31.644531 30.664062 30.980469 31.210938 C 30.316406 31.78125 29.386719 32.070312 28.1875 32.070312 C 27.171875 32.070312 26.320312 31.808594 25.628906 31.289062 C 24.902344 30.765625 24.535156 30.097656 24.535156 29.277344 C 24.535156 28.976562 24.628906 28.65625 24.808594 28.320312 C 24.980469 28.019531 25.148438 27.785156 25.316406 27.617188 C 25.394531 27.511719 25.644531 27.265625 26.058594 26.875 C 25.253906 26.300781 24.84375 25.589844 24.828125 24.746094 C 24.828125 24.027344 25.148438 23.398438 25.785156 22.851562 C 26.425781 22.328125 27.285156 22.070312 28.363281 22.070312 C 29.222656 22.070312 29.980469 22.265625 30.628906 22.65625 C 31.253906 23.046875 31.566406 23.585938 31.566406 24.277344 C 31.542969 24.980469 31.125 25.765625 30.316406 26.640625 Z M 26.664062 27.226562 C 25.859375 27.941406 25.441406 28.625 25.414062 29.277344 C 25.414062 29.941406 25.695312 30.492188 26.253906 30.9375 C 26.789062 31.378906 27.433594 31.601562 28.1875 31.601562 C 28.722656 31.601562 29.140625 31.429688 29.4375 31.09375 C 29.75 30.78125 29.90625 30.394531 29.90625 29.941406 C 29.90625 29.378906 29.679688 28.96875 29.222656 28.710938 Z M 26.664062 27.226562 "
       style=" stroke:none;fill-rule:nonzero;fill:rgb(0%,0%,0%);fill-opacity:1;" />
    <path
       id="path144"
       d="M 123.804688 9.570312 L 145.015625 9.570312 L 145.015625 12.070312 L 123.804688 12.070312 Z M 123.804688 9.570312 "
       style=" stroke:none;fill-rule:evenodd;fill:rgb(0%,0%,0%);fill-opacity:1;" />
    <path
       id="path146"
       d="M 154.644531 9.570312 L 175.855469 9.570312 L 175.855469 12.070312 L 154.644531 12.070312 Z M 154.644531 9.570312 "
       style=" stroke:none;fill-rule:evenodd;fill:rgb(0%,0%,0%);fill-opacity:1;" />
    <path
       id="path148"
       d="M 251.589844 9.570312 L 260.957031 9.570312 L 260.957031 12.070312 L 251.589844 12.070312 Z M 251.589844 9.570312 "
       style=" stroke:none;fill-rule:evenodd;fill:rgb(0%,0%,0%);fill-opacity:1;" />
    <path
       id="path150"
       d="M 317.507812 9.570312 L 327.644531 9.570312 L 327.644531 12.070312 L 317.507812 12.070312 Z M 317.507812 9.570312 "
       style=" stroke:none;fill-rule:evenodd;fill:rgb(0%,0%,0%);fill-opacity:1;" />
    <path
       id="path152"
       d="M 391.382812 9.570312 L 400.542969 9.570312 L 400.542969 12.070312 L 391.382812 12.070312 Z M 391.382812 9.570312 "
       style=" stroke:none;fill-rule:evenodd;fill:rgb(0%,0%,0%);fill-opacity:1;" />
    <path
       id="path154"
       d="M 49.8125 25.371094 C 49.589844 25.148438 49.480469 24.882812 49.480469 24.570312 C 49.480469 24.257812 49.589844 23.988281 49.8125 23.769531 C 50.035156 23.546875 50.300781 23.4375 50.613281 23.4375 C 50.925781 23.4375 51.191406 23.546875 51.414062 23.769531 C 51.636719 23.988281 51.746094 24.257812 51.746094 24.570312 C 51.746094 24.882812 51.636719 25.148438 51.414062 25.371094 C 51.191406 25.589844 50.925781 25.703125 50.613281 25.703125 C 50.300781 25.703125 50.035156 25.589844 49.8125 25.371094 Z M 49.8125 25.371094 "
       style=" stroke:none;fill-rule:nonzero;fill:rgb(0%,0%,0%);fill-opacity:1;" />
  </g>
</svg>
