<?xml version="1.0" encoding="UTF-8" standalone="no"?>
<svg
   xmlns:dc="http://purl.org/dc/elements/1.1/"
   xmlns:cc="http://creativecommons.org/ns#"
   xmlns:rdf="http://www.w3.org/1999/02/22-rdf-syntax-ns#"
   xmlns:svg="http://www.w3.org/2000/svg"
   xmlns="http://www.w3.org/2000/svg"
   xmlns:sodipodi="http://sodipodi.sourceforge.net/DTD/sodipodi-0.dtd"
   xmlns:inkscape="http://www.inkscape.org/namespaces/inkscape"
   inkscape:version="1.0 (4035a4f, 2020-05-01)"
   sodipodi:docname="ternary_rhythms_3.svg"
   id="svg733"
   version="1.2"
   viewBox="0 0 430 50"
   height="50pt"
   width="430pt">
  <metadata
     id="metadata739">
    <rdf:RDF>
      <cc:Work
         rdf:about="">
        <dc:format>image/svg+xml</dc:format>
        <dc:type
           rdf:resource="http://purl.org/dc/dcmitype/StillImage" />
        <dc:title></dc:title>
      </cc:Work>
    </rdf:RDF>
  </metadata>
  <defs
     id="defs737" />
  <sodipodi:namedview
     inkscape:current-layer="surface3248"
     inkscape:window-maximized="1"
     inkscape:window-y="23"
     inkscape:window-x="0"
     inkscape:cy="561.33337"
     inkscape:cx="396.66667"
     inkscape:zoom="0.57630637"
     showgrid="false"
     id="namedview735"
     inkscape:window-height="855"
     inkscape:window-width="1440"
     inkscape:pageshadow="2"
     inkscape:pageopacity="0"
     guidetolerance="10"
     gridtolerance="10"
     objecttolerance="10"
     borderopacity="1"
     bordercolor="#666666"
     pagecolor="#ffffff" />
  <g
     id="surface3248">
    <path
       id="path30"
       d="m 3.75,12.07028 h 82.601563 m -82.601563,5 h 82.601563 m -82.601563,5 H 86.351563 M 3.75,27.07419 h 82.601563 m -82.601563,5 h 82.601563"
       style="fill:none;stroke:#000000;stroke-width:0.400025;stroke-linecap:butt;stroke-linejoin:bevel;stroke-miterlimit:10;stroke-opacity:1" />
    <path
       id="path32"
       d="m 86.351563,12.07028 h 72.843747 m -72.843747,5 h 72.843747 m -72.843747,5 h 72.843747 m -72.843747,5.00391 h 72.843747 m -72.843747,5 h 72.843747"
       style="fill:none;stroke:#000000;stroke-width:0.400025;stroke-linecap:butt;stroke-linejoin:bevel;stroke-miterlimit:10;stroke-opacity:1" />
    <path
       id="path34"
       d="m 159.19531,12.07028 h 64.22266 m -64.22266,5 h 64.22266 m -64.22266,5 h 64.22266 m -64.22266,5.00391 h 64.22266 m -64.22266,5 h 64.22266"
       style="fill:none;stroke:#000000;stroke-width:0.400025;stroke-linecap:butt;stroke-linejoin:bevel;stroke-miterlimit:10;stroke-opacity:1" />
    <path
       id="path36"
       d="m 223.41797,12.07028 h 67.25 m -67.25,5 h 67.25 m -67.25,5 h 67.25 m -67.25,5.00391 h 67.25 m -67.25,5 h 67.25"
       style="fill:none;stroke:#000000;stroke-width:0.400025;stroke-linecap:butt;stroke-linejoin:bevel;stroke-miterlimit:10;stroke-opacity:1" />
    <path
       id="path48"
       d="m 290.66797,12.07028 h 64.22266 m -64.22266,5 h 64.22266 m -64.22266,5 h 64.22266 m -64.22266,5.00391 h 64.22266 m -64.22266,5 h 64.22266"
       style="fill:none;stroke:#000000;stroke-width:0.400025;stroke-linecap:butt;stroke-linejoin:bevel;stroke-miterlimit:10;stroke-opacity:1" />
    <path
       id="path50"
       d="m 354.89063,12.07028 h 63.82421 m -63.82421,5 h 63.82421 m -63.82421,5 h 63.82421 m -63.82421,5.00391 h 63.82421 m -63.82421,5 h 63.82421"
       style="fill:none;stroke:#000000;stroke-width:0.370941;stroke-linecap:butt;stroke-linejoin:bevel;stroke-miterlimit:10;stroke-opacity:1" />
    <path
       id="path90"
       d="M 85.949219,12.07028 V 32.07419"
       style="fill:none;stroke:#000000;stroke-width:0.80005;stroke-linecap:butt;stroke-linejoin:bevel;stroke-miterlimit:10;stroke-opacity:1" />
    <path
       id="path92"
       d="M 158.79688,12.07028 V 32.07419"
       style="fill:none;stroke:#000000;stroke-width:0.80005;stroke-linecap:butt;stroke-linejoin:bevel;stroke-miterlimit:10;stroke-opacity:1" />
    <path
       id="path94"
       d="M 223.01953,12.07028 V 32.07419"
       style="fill:none;stroke:#000000;stroke-width:0.80005;stroke-linecap:butt;stroke-linejoin:bevel;stroke-miterlimit:10;stroke-opacity:1" />
    <path
       id="path110"
       d="M 290.26953,12.07028 V 32.07419"
       style="fill:none;stroke:#000000;stroke-width:0.80005;stroke-linecap:butt;stroke-linejoin:bevel;stroke-miterlimit:10;stroke-opacity:1" />
    <path
       id="path112"
       d="M 354.49219,12.07028 V 32.07419"
       style="fill:none;stroke:#000000;stroke-width:0.80005;stroke-linecap:butt;stroke-linejoin:bevel;stroke-miterlimit:10;stroke-opacity:1" />
    <path
       id="path114"
       d="M 418.71484,12.07028 V 32.07419"
       style="fill:none;stroke:#000000;stroke-width:0.80005;stroke-linecap:butt;stroke-linejoin:bevel;stroke-miterlimit:10;stroke-opacity:1" />
    <path
       id="path202"
       d="M 47.046875,23.63278 V 10.82028"
       style="fill:none;stroke:#000000;stroke-width:0.650041;stroke-linecap:round;stroke-linejoin:bevel;stroke-miterlimit:10;stroke-opacity:1" />
    <path
       id="path204"
       d="M 68.542969,23.80466 V 8.32028"
       style="fill:none;stroke:#000000;stroke-width:0.650041;stroke-linecap:round;stroke-linejoin:bevel;stroke-miterlimit:10;stroke-opacity:1" />
    <path
       id="path206"
       d="M 57.703125,23.63278 V 10.82028"
       style="fill:none;stroke:#000000;stroke-width:0.650041;stroke-linecap:round;stroke-linejoin:bevel;stroke-miterlimit:10;stroke-opacity:1" />
    <path
       id="path208"
       d="M 111.24609,23.63278 V 8.32028"
       style="fill:none;stroke:#000000;stroke-width:0.650041;stroke-linecap:round;stroke-linejoin:bevel;stroke-miterlimit:10;stroke-opacity:1" />
    <path
       id="path210"
       d="M 98.609375,23.63278 V 8.32028"
       style="fill:none;stroke:#000000;stroke-width:0.650041;stroke-linecap:round;stroke-linejoin:bevel;stroke-miterlimit:10;stroke-opacity:1" />
    <path
       id="path212"
       d="M 148.26563,23.63278 V 8.32028"
       style="fill:none;stroke:#000000;stroke-width:0.650041;stroke-linecap:round;stroke-linejoin:bevel;stroke-miterlimit:10;stroke-opacity:1" />
    <path
       id="path214"
       d="M 129.75781,23.63278 V 8.32028"
       style="fill:none;stroke:#000000;stroke-width:0.650041;stroke-linecap:round;stroke-linejoin:bevel;stroke-miterlimit:10;stroke-opacity:1" />
    <path
       id="path216"
       d="M 196.05859,23.63278 V 8.32028"
       style="fill:none;stroke:#000000;stroke-width:0.650041;stroke-linecap:round;stroke-linejoin:bevel;stroke-miterlimit:10;stroke-opacity:1" />
    <path
       id="path218"
       d="M 171.45313,23.63278 V 8.32028"
       style="fill:none;stroke:#000000;stroke-width:0.650041;stroke-linecap:round;stroke-linejoin:bevel;stroke-miterlimit:10;stroke-opacity:1" />
    <path
       id="path220"
       d="M 235.67578,23.63278 V 8.32028"
       style="fill:none;stroke:#000000;stroke-width:0.650041;stroke-linecap:round;stroke-linejoin:bevel;stroke-miterlimit:10;stroke-opacity:1" />
    <path
       id="path222"
       d="M 208.69922,23.63278 V 8.32028"
       style="fill:none;stroke:#000000;stroke-width:0.650041;stroke-linecap:round;stroke-linejoin:bevel;stroke-miterlimit:10;stroke-opacity:1" />
    <path
       id="path224"
       d="M 271.70703,23.63278 V 10.82028"
       style="fill:none;stroke:#000000;stroke-width:0.650041;stroke-linecap:round;stroke-linejoin:bevel;stroke-miterlimit:10;stroke-opacity:1" />
    <path
       id="path226"
       d="M 259.5,23.63278 V 10.82028"
       style="fill:none;stroke:#000000;stroke-width:0.650041;stroke-linecap:round;stroke-linejoin:bevel;stroke-miterlimit:10;stroke-opacity:1" />
    <path
       id="path266"
       d="M 302.92969,23.63278 V 8.32028"
       style="fill:none;stroke:#000000;stroke-width:0.650041;stroke-linecap:round;stroke-linejoin:bevel;stroke-miterlimit:10;stroke-opacity:1" />
    <path
       id="path268"
       d="M 283.91797,23.63278 V 10.82028"
       style="fill:none;stroke:#000000;stroke-width:0.650041;stroke-linecap:round;stroke-linejoin:bevel;stroke-miterlimit:10;stroke-opacity:1" />
    <path
       id="path270"
       d="M 343.96094,23.63278 V 8.32028"
       style="fill:none;stroke:#000000;stroke-width:0.650041;stroke-linecap:round;stroke-linejoin:bevel;stroke-miterlimit:10;stroke-opacity:1" />
    <path
       id="path272"
       d="M 325.47266,23.63278 V 8.32028"
       style="fill:none;stroke:#000000;stroke-width:0.650041;stroke-linecap:round;stroke-linejoin:bevel;stroke-miterlimit:10;stroke-opacity:1" />
    <path
       id="path274"
       d="M 367.15234,23.63278 V 8.32028"
       style="fill:none;stroke:#000000;stroke-width:0.650041;stroke-linecap:round;stroke-linejoin:bevel;stroke-miterlimit:10;stroke-opacity:1" />
    <path
       id="path276"
       d="M 408.18359,23.63278 V 8.32028"
       style="fill:none;stroke:#000000;stroke-width:0.650041;stroke-linecap:round;stroke-linejoin:bevel;stroke-miterlimit:10;stroke-opacity:1" />
    <path
       id="path278"
       d="M 385.64063,23.63278 V 8.32028"
       style="fill:none;stroke:#000000;stroke-width:0.650041;stroke-linecap:round;stroke-linejoin:bevel;stroke-miterlimit:10;stroke-opacity:1" />
    <path
       id="path432"
       d="m 45.183594,21.81638 c 0.625,0 1.152344,0.16406 1.582031,0.48828 0.402344,0.35156 0.605469,0.79687 0.605469,1.33203 0,0.89844 -0.460938,1.73828 -1.386719,2.51953 -0.9375,0.78125 -1.941406,1.17188 -3.007812,1.17188 -0.625,0 -1.152344,-0.16407 -1.582031,-0.48828 -0.402344,-0.35157 -0.605469,-0.79688 -0.605469,-1.32813 0,-0.89844 0.46875,-1.73828 1.40625,-2.51953 0.910156,-0.78516 1.90625,-1.17578 2.988281,-1.17578 z m 0,0"
       style="fill:#000000;fill-opacity:1;fill-rule:nonzero;stroke:none" />
    <path
       id="path434"
       d="m 68.234375,23.2656 c 0,-0.22266 -0.08594,-0.41016 -0.257812,-0.56641 -0.167969,-0.17187 -0.363281,-0.25781 -0.585938,-0.25781 -0.390625,0 -1.175781,0.39453 -2.363281,1.17578 -1.222656,0.79297 -1.972656,1.35937 -2.246094,1.69922 -0.140625,0.17969 -0.214844,0.37109 -0.214844,0.5664 0,0.21875 0.08594,0.41016 0.253907,0.56641 0.15625,0.16797 0.351562,0.25391 0.585937,0.25391 0.378906,0 1.171875,-0.39063 2.382813,-1.17188 1.199219,-0.78125 1.941406,-1.34765 2.226562,-1.69922 0.144531,-0.17187 0.21875,-0.35937 0.21875,-0.5664 z m -1.039062,-1.44922 c 1.121093,0 1.683593,0.48437 1.683593,1.44922 0,0.46875 -0.136718,1.01562 -0.410156,1.64062 -0.273437,0.60938 -0.640625,1.07813 -1.097656,1.40625 -1,0.67578 -2.257812,1.01563 -3.769531,1.01563 -1.117188,0 -1.679688,-0.48438 -1.679688,-1.44532 0,-0.42968 0.136719,-0.97265 0.410157,-1.62109 0.261718,-0.625 0.625,-1.10156 1.09375,-1.42578 1.003906,-0.67969 2.261718,-1.01953 3.769531,-1.01953 z m 0,0"
       style="fill:#000000;fill-opacity:1;fill-rule:nonzero;stroke:none" />
    <path
       id="path436"
       d="m 55.839844,21.81638 c 0.625,0 1.152344,0.16406 1.582031,0.48828 0.40625,0.35156 0.605469,0.79687 0.605469,1.33203 0,0.89844 -0.460938,1.73828 -1.386719,2.51953 -0.9375,0.78125 -1.9375,1.17188 -3.007812,1.17188 -0.625,0 -1.152344,-0.16407 -1.582031,-0.48828 -0.402344,-0.35157 -0.605469,-0.79688 -0.605469,-1.32813 0,-0.89844 0.46875,-1.73828 1.40625,-2.51953 0.914062,-0.78516 1.910156,-1.17578 2.988281,-1.17578 z m 0,0"
       style="fill:#000000;fill-opacity:1;fill-rule:nonzero;stroke:none" />
    <path
       id="path438"
       d="m 127.89453,21.81638 c 0.625,0 1.15235,0.16406 1.58203,0.48828 0.40235,0.35156 0.60547,0.79687 0.60547,1.33203 0,0.89844 -0.46484,1.73828 -1.38672,2.51953 -0.9375,0.78125 -1.9414,1.17188 -3.00781,1.17188 -0.625,0 -1.15234,-0.16407 -1.58203,-0.48828 C 123.69922,26.48825 123.5,26.04294 123.5,25.51169 c 0,-0.89844 0.46875,-1.73828 1.40625,-2.51953 0.91016,-0.78516 1.90625,-1.17578 2.98828,-1.17578 z m 0,0"
       style="fill:#000000;fill-opacity:1;fill-rule:nonzero;stroke:none" />
    <path
       id="path440"
       d="m 109.38281,21.81638 c 0.625,0 1.15235,0.16406 1.58203,0.48828 0.40625,0.35156 0.60547,0.79687 0.60547,1.33203 0,0.89844 -0.46093,1.73828 -1.38672,2.51953 -0.9375,0.78125 -1.9375,1.17188 -3.00781,1.17188 -0.625,0 -1.15234,-0.16407 -1.58203,-0.48828 -0.40234,-0.35157 -0.60547,-0.79688 -0.60547,-1.32813 0,-0.89844 0.46875,-1.73828 1.40625,-2.51953 0.91406,-0.78516 1.91016,-1.17578 2.98828,-1.17578 z m 0,0"
       style="fill:#000000;fill-opacity:1;fill-rule:nonzero;stroke:none" />
    <path
       id="path442"
       d="m 96.746094,21.81638 c 0.625,0 1.152344,0.16406 1.582031,0.48828 0.402344,0.35156 0.605469,0.79687 0.605469,1.33203 0,0.89844 -0.460938,1.73828 -1.386719,2.51953 -0.9375,0.78125 -1.941406,1.17188 -3.007812,1.17188 -0.625,0 -1.152344,-0.16407 -1.582031,-0.48828 -0.402344,-0.35157 -0.605469,-0.79688 -0.605469,-1.32813 0,-0.89844 0.46875,-1.73828 1.40625,-2.51953 0.910156,-0.78516 1.90625,-1.17578 2.988281,-1.17578 z m 0,0"
       style="fill:#000000;fill-opacity:1;fill-rule:nonzero;stroke:none" />
    <path
       id="path444"
       d="m 146.40234,21.81638 c 0.625,0 1.15235,0.16406 1.58204,0.48828 0.40234,0.35156 0.60546,0.79687 0.60546,1.33203 0,0.89844 -0.46093,1.73828 -1.38671,2.51953 -0.9375,0.78125 -1.94141,1.17188 -3.00782,1.17188 -0.625,0 -1.15234,-0.16407 -1.58203,-0.48828 -0.40234,-0.35157 -0.60547,-0.79688 -0.60547,-1.32813 0,-0.89844 0.46875,-1.73828 1.40625,-2.51953 0.91016,-0.78516 1.90625,-1.17578 2.98828,-1.17578 z m 0,0"
       style="fill:#000000;fill-opacity:1;fill-rule:nonzero;stroke:none" />
    <path
       id="path446"
       d="m 194.19531,21.81638 c 0.625,0 1.15235,0.16406 1.58203,0.48828 0.40625,0.35156 0.60547,0.79687 0.60547,1.33203 0,0.89844 -0.46093,1.73828 -1.38672,2.51953 -0.9375,0.78125 -1.9375,1.17188 -3.00781,1.17188 -0.625,0 -1.15234,-0.16407 -1.58203,-0.48828 -0.40234,-0.35157 -0.60547,-0.79688 -0.60547,-1.32813 0,-0.89844 0.46875,-1.73828 1.40625,-2.51953 0.91406,-0.78516 1.91016,-1.17578 2.98828,-1.17578 z m 0,0"
       style="fill:#000000;fill-opacity:1;fill-rule:nonzero;stroke:none" />
    <path
       id="path448"
       d="m 169.58984,21.81638 c 0.625,0 1.15235,0.16406 1.58204,0.48828 0.40625,0.35156 0.60546,0.79687 0.60546,1.33203 0,0.89844 -0.46093,1.73828 -1.38671,2.51953 -0.9375,0.78125 -1.9375,1.17188 -3.00782,1.17188 -0.625,0 -1.15234,-0.16407 -1.58203,-0.48828 -0.40234,-0.35157 -0.60547,-0.79688 -0.60547,-1.32813 0,-0.89844 0.46875,-1.73828 1.40625,-2.51953 0.91407,-0.78516 1.91016,-1.17578 2.98828,-1.17578 z m 0,0"
       style="fill:#000000;fill-opacity:1;fill-rule:nonzero;stroke:none" />
    <path
       id="path450"
       d="m 233.8125,21.81638 c 0.625,0 1.15234,0.16406 1.58203,0.48828 0.40625,0.35156 0.60547,0.79687 0.60547,1.33203 0,0.89844 -0.46094,1.73828 -1.38672,2.51953 -0.9375,0.78125 -1.9375,1.17188 -3.00781,1.17188 -0.625,0 -1.15234,-0.16407 -1.58203,-0.48828 -0.40235,-0.35157 -0.60547,-0.79688 -0.60547,-1.32813 0,-0.89844 0.46875,-1.73828 1.40625,-2.51953 0.91406,-0.78516 1.91016,-1.17578 2.98828,-1.17578 z m 0,0"
       style="fill:#000000;fill-opacity:1;fill-rule:nonzero;stroke:none" />
    <path
       id="path452"
       d="m 206.83594,21.81638 c 0.625,0 1.15234,0.16406 1.58203,0.48828 0.40234,0.35156 0.60547,0.79687 0.60547,1.33203 0,0.89844 -0.46485,1.73828 -1.38672,2.51953 -0.9375,0.78125 -1.94141,1.17188 -3.00781,1.17188 -0.625,0 -1.15235,-0.16407 -1.58203,-0.48828 -0.40625,-0.35157 -0.60547,-0.79688 -0.60547,-1.32813 0,-0.89844 0.46875,-1.73828 1.40625,-2.51953 0.91015,-0.78516 1.90625,-1.17578 2.98828,-1.17578 z m 0,0"
       style="fill:#000000;fill-opacity:1;fill-rule:nonzero;stroke:none" />
    <path
       id="path454"
       d="m 269.84375,21.81638 c 0.625,0 1.15234,0.16406 1.58203,0.48828 0.40625,0.35156 0.60547,0.79687 0.60547,1.33203 0,0.89844 -0.46094,1.73828 -1.38672,2.51953 -0.9375,0.78125 -1.9375,1.17188 -3.00781,1.17188 -0.625,0 -1.15234,-0.16407 -1.58203,-0.48828 -0.40235,-0.35157 -0.60547,-0.79688 -0.60547,-1.32813 0,-0.89844 0.46875,-1.73828 1.40625,-2.51953 0.91406,-0.78516 1.91016,-1.17578 2.98828,-1.17578 z m 0,0"
       style="fill:#000000;fill-opacity:1;fill-rule:nonzero;stroke:none" />
    <path
       id="path456"
       d="m 257.63672,21.81638 c 0.625,0 1.15234,0.16406 1.58203,0.48828 0.40234,0.35156 0.60547,0.79687 0.60547,1.33203 0,0.89844 -0.46484,1.73828 -1.38672,2.51953 -0.9375,0.78125 -1.94141,1.17188 -3.00781,1.17188 -0.62891,0 -1.15625,-0.16407 -1.58594,-0.48828 -0.40234,-0.35157 -0.60547,-0.79688 -0.60547,-1.32813 0,-0.89844 0.46875,-1.73828 1.40625,-2.51953 0.91406,-0.78516 1.91016,-1.17578 2.99219,-1.17578 z m 0,0"
       style="fill:#000000;fill-opacity:1;fill-rule:nonzero;stroke:none" />
    <path
       id="path494"
       d="m 301.06641,21.81638 c 0.625,0 1.15234,0.16406 1.58203,0.48828 0.40234,0.35156 0.60547,0.79687 0.60547,1.33203 0,0.89844 -0.46485,1.73828 -1.38672,2.51953 -0.9375,0.78125 -1.94141,1.17188 -3.00781,1.17188 -0.625,0 -1.15235,-0.16407 -1.58204,-0.48828 -0.40625,-0.35157 -0.60546,-0.79688 -0.60546,-1.32813 0,-0.89844 0.46875,-1.73828 1.40625,-2.51953 0.91015,-0.78516 1.90625,-1.17578 2.98828,-1.17578 z m 0,0"
       style="fill:#000000;fill-opacity:1;fill-rule:nonzero;stroke:none" />
    <path
       id="path496"
       d="m 282.05469,21.81638 c 0.625,0 1.15234,0.16406 1.58203,0.48828 0.40234,0.35156 0.60547,0.79687 0.60547,1.33203 0,0.89844 -0.46094,1.73828 -1.38672,2.51953 -0.9375,0.78125 -1.94141,1.17188 -3.00781,1.17188 -0.625,0 -1.15235,-0.16407 -1.58203,-0.48828 -0.40235,-0.35157 -0.60547,-0.79688 -0.60547,-1.32813 0,-0.89844 0.46875,-1.73828 1.40625,-2.51953 0.91015,-0.78516 1.90625,-1.17578 2.98828,-1.17578 z m 0,0"
       style="fill:#000000;fill-opacity:1;fill-rule:nonzero;stroke:none" />
    <path
       id="path498"
       d="m 342.09766,21.81638 c 0.625,0 1.15234,0.16406 1.58203,0.48828 0.40625,0.35156 0.60547,0.79687 0.60547,1.33203 0,0.89844 -0.46094,1.73828 -1.38672,2.51953 -0.9375,0.78125 -1.9375,1.17188 -3.00781,1.17188 -0.625,0 -1.15235,-0.16407 -1.58204,-0.48828 -0.40234,-0.35157 -0.60546,-0.79688 -0.60546,-1.32813 0,-0.89844 0.46875,-1.73828 1.40625,-2.51953 0.91406,-0.78516 1.91015,-1.17578 2.98828,-1.17578 z m 0,0"
       style="fill:#000000;fill-opacity:1;fill-rule:nonzero;stroke:none" />
    <path
       id="path500"
       d="m 323.60938,21.81638 c 0.625,0 1.15234,0.16406 1.58203,0.48828 0.40234,0.35156 0.60547,0.79687 0.60547,1.33203 0,0.89844 -0.46094,1.73828 -1.38672,2.51953 -0.9375,0.78125 -1.94141,1.17188 -3.00782,1.17188 -0.625,0 -1.15234,-0.16407 -1.58203,-0.48828 -0.40234,-0.35157 -0.60547,-0.79688 -0.60547,-1.32813 0,-0.89844 0.46875,-1.73828 1.40625,-2.51953 0.91016,-0.78516 1.90625,-1.17578 2.98829,-1.17578 z m 0,0"
       style="fill:#000000;fill-opacity:1;fill-rule:nonzero;stroke:none" />
    <path
       id="path502"
       d="m 383.77734,21.81638 c 0.625,0 1.15235,0.16406 1.58204,0.48828 0.40234,0.35156 0.60546,0.79687 0.60546,1.33203 0,0.89844 -0.46484,1.73828 -1.38671,2.51953 -0.9375,0.78125 -1.94141,1.17188 -3.00782,1.17188 -0.625,0 -1.15234,-0.16407 -1.58203,-0.48828 -0.40625,-0.35157 -0.60547,-0.79688 -0.60547,-1.32813 0,-0.89844 0.46875,-1.73828 1.40625,-2.51953 0.91016,-0.78516 1.90625,-1.17578 2.98828,-1.17578 z m 0,0"
       style="fill:#000000;fill-opacity:1;fill-rule:nonzero;stroke:none" />
    <path
       id="path504"
       d="m 365.28906,21.81638 c 0.625,0 1.15235,0.16406 1.58203,0.48828 0.40235,0.35156 0.60547,0.79687 0.60547,1.33203 0,0.89844 -0.46484,1.73828 -1.38672,2.51953 -0.9375,0.78125 -1.9414,1.17188 -3.00781,1.17188 -0.625,0 -1.15234,-0.16407 -1.58203,-0.48828 -0.40625,-0.35157 -0.60547,-0.79688 -0.60547,-1.32813 0,-0.89844 0.46875,-1.73828 1.40625,-2.51953 0.91016,-0.78516 1.90625,-1.17578 2.98828,-1.17578 z m 0,0"
       style="fill:#000000;fill-opacity:1;fill-rule:nonzero;stroke:none" />
    <path
       id="path506"
       d="m 406.32031,21.81638 c 0.625,0 1.15235,0.16406 1.58203,0.48828 0.40625,0.35156 0.60547,0.79687 0.60547,1.33203 0,0.89844 -0.46093,1.73828 -1.38672,2.51953 -0.9375,0.78125 -1.9375,1.17188 -3.00781,1.17188 -0.625,0 -1.15234,-0.16407 -1.58203,-0.48828 -0.40234,-0.35157 -0.60547,-0.79688 -0.60547,-1.32813 0,-0.89844 0.46875,-1.73828 1.40625,-2.51953 0.91406,-0.78516 1.91016,-1.17578 2.98828,-1.17578 z m 0,0"
       style="fill:#000000;fill-opacity:1;fill-rule:nonzero;stroke:none" />
    <path
       id="path600"
       d="m 14.292969,21.9531 c 0,0 0.03906,0 0.117187,0 0.05078,-0.0117 0.09766,-0.0156 0.136719,-0.0156 1.457031,0 2.65625,0.51172 3.59375,1.54297 0.9375,1.01563 1.40625,2.19922 1.40625,3.55469 0,1.67969 -0.695312,3.04687 -2.089843,4.10156 -0.363282,0.28516 -0.839844,0.51953 -1.425782,0.70313 0.06641,0.84375 0.09766,1.52734 0.09766,2.05078 0,0.10156 -0.01172,0.48047 -0.03906,1.13281 -0.05078,1.21094 -0.46875,2.25781 -1.25,3.14453 -0.753906,0.87109 -1.691406,1.30859 -2.8125,1.30859 -1.054688,0 -1.953125,-0.37109 -2.695312,-1.11328 -0.742188,-0.75781 -1.113282,-1.66797 -1.113282,-2.73437 0,-0.5625 0.214844,-1.03516 0.644532,-1.42578 0.441406,-0.39063 0.957031,-0.58594 1.542968,-0.58594 0.519532,0 0.957032,0.19922 1.308594,0.60547 0.363281,0.375 0.546875,0.84375 0.546875,1.40625 0,0.50781 -0.183594,0.9414 -0.546875,1.30859 -0.363281,0.36328 -0.800781,0.54688 -1.308594,0.54688 -0.207031,0 -0.410156,-0.0391 -0.605468,-0.11719 0.574218,0.84375 1.335937,1.26953 2.285156,1.26953 0.898437,0 1.632812,-0.36719 2.207031,-1.09375 0.597656,-0.75781 0.925781,-1.63672 0.976563,-2.63672 0.02734,-0.625 0.03906,-0.98437 0.03906,-1.07422 0,-0.73047 -0.02734,-1.32812 -0.07813,-1.79687 -0.652344,0.10156 -1.230469,0.15625 -1.738281,0.15625 -1.808594,0 -3.351563,-0.71875 -4.628906,-2.14844 -1.25,-1.44531 -1.875,-3.16406 -1.875,-5.15625 0,-0.41797 0.039062,-0.83984 0.117187,-1.26953 0.078125,-0.35156 0.175781,-0.73828 0.292969,-1.15234 0.066406,-0.23438 0.242187,-0.61329 0.527344,-1.13282 0.105468,-0.15625 0.222656,-0.35547 0.351562,-0.58984 0.128906,-0.23438 0.222656,-0.39063 0.273438,-0.46875 0.128906,-0.25781 0.382812,-0.60938 0.761718,-1.05469 0.105469,-0.11719 0.210938,-0.24609 0.320313,-0.39062 0.113281,-0.14063 0.207031,-0.25782 0.285156,-0.35157 0.078125,-0.0898 0.136719,-0.16015 0.175781,-0.21484 0.03906,-0.0508 0.332032,-0.39453 0.878906,-1.03516 0.128907,-0.1289 0.257813,-0.26953 0.382813,-0.41796 0.121094,-0.14844 0.222656,-0.26563 0.300781,-0.35157 0.07813,-0.0859 0.136719,-0.14843 0.175782,-0.1875 -0.46875,-1.54687 -0.761719,-2.78515 -0.878907,-3.71093 -0.08984,-0.74219 -0.136719,-1.75782 -0.136719,-3.04688 0,-1.13281 0.261719,-2.19141 0.78125,-3.18359 0.507813,-1.02735 1.21875,-1.86719 2.128907,-2.51953 0.06641,-0.0391 0.128906,-0.0586 0.195312,-0.0586 0.08984,0 0.15625,0.0195 0.195313,0.0586 0.703125,0.84765 1.308594,1.94921 1.816406,3.30078 0.519531,1.35547 0.78125,2.58593 0.78125,3.6914 0,1.25 -0.300781,2.42188 -0.898438,3.51563 -0.675781,1.16015 -1.550781,2.35937 -2.617187,3.59375 0.273437,0.85937 0.636719,2.20703 1.09375,4.04687 z m 1.660156,9.08593 c 0.675781,-0.25 1.203125,-0.67187 1.582031,-1.26953 0.417969,-0.57422 0.625,-1.21875 0.625,-1.93359 0,-0.92578 -0.3125,-1.74609 -0.9375,-2.46094 -0.636718,-0.74219 -1.453124,-1.16015 -2.441406,-1.25 0.558594,2.7461 0.949219,5.05078 1.171875,6.91406 z M 8.394532,26.52732 c 0,1.28906 0.519531,2.42187 1.5625,3.39843 1.066406,0.94922 2.265624,1.42578 3.59375,1.42578 0.546874,0 1.082031,-0.0391 1.601562,-0.11718 -0.207031,-1.98047 -0.617188,-4.35157 -1.230469,-7.10938 -0.742187,0.0781 -1.335937,0.33594 -1.777343,0.78125 C 11.714844,25.35935 11.5,25.87497 11.5,26.44919 c 0,0.98828 0.527344,1.78906 1.582032,2.40234 0.08984,0.0899 0.136718,0.1875 0.136718,0.29297 0,0.10157 -0.04687,0.19922 -0.136718,0.29297 -0.07813,0.0899 -0.175782,0.13672 -0.292969,0.13672 -0.01172,0 -0.07031,-0.0156 -0.175781,-0.0391 -0.742188,-0.40625 -1.316407,-0.92578 -1.71875,-1.5625 -0.378907,-0.67969 -0.566407,-1.36328 -0.566407,-2.05078 0,-0.89844 0.28125,-1.71485 0.839844,-2.44141 0.585937,-0.73047 1.347656,-1.19922 2.285156,-1.41016 -0.363281,-1.45703 -0.664062,-2.59765 -0.898437,-3.41796 -0.207032,0.23437 -0.457032,0.51953 -0.75,0.85156 -0.292969,0.33203 -0.46875,0.53125 -0.519532,0.59375 -0.46875,0.61328 -0.828124,1.08984 -1.074218,1.42578 -0.441406,0.61328 -0.769532,1.14062 -0.976563,1.58594 -0.222656,0.49218 -0.417969,1.03515 -0.585937,1.62109 -0.167969,0.55859 -0.253906,1.15625 -0.253906,1.79688 z M 14.917969,6.66013 C 13.941406,7.1445 13.171875,7.832 12.613282,8.73044 c -0.574219,0.92578 -0.859376,1.92188 -0.859376,2.98828 0,0.9375 0.234376,2.20313 0.703126,3.78906 0.9375,-1.13281 1.640624,-2.17968 2.109374,-3.14453 0.496094,-1.01562 0.742188,-2.07422 0.742188,-3.18359 0,-0.83203 -0.128906,-1.67188 -0.390625,-2.51953 z m 0,0"
       style="fill:#000000;fill-opacity:1;fill-rule:nonzero;stroke:none" />
    <path
       id="path614"
       d="m 28.28125,16.9531 c -0.496094,0 -0.800781,0.19531 -0.917968,0.58593 -0.09375,0.28907 -0.136719,0.76954 -0.136719,1.44532 v 0.58593 c 0,0.67969 0.04297,1.16016 0.136719,1.44532 0.117187,0.39062 0.421874,0.58593 0.917968,0.58593 0.546875,0 0.890625,-0.22656 1.035156,-0.68359 0.128907,-0.42969 0.195313,-0.97656 0.195313,-1.64062 0,-0.76563 -0.07422,-1.34766 -0.214844,-1.73829 -0.15625,-0.39062 -0.496093,-0.58593 -1.015625,-0.58593 z m -1.054687,-0.19532 c 0.390625,-0.15625 0.742187,-0.24609 1.054687,-0.27343 1.039063,0 1.875,0.23437 2.5,0.70312 0.597656,0.48438 0.898438,1.17188 0.898438,2.07031 0,0.91407 -0.308594,1.61719 -0.917969,2.10938 -0.613281,0.46875 -1.441406,0.70312 -2.480469,0.70312 -1.070312,0 -1.902344,-0.49218 -2.5,-1.48437 -0.601562,-0.98828 -0.898437,-2.16016 -0.898437,-3.51563 0,-1.32812 0.351562,-2.5 1.054687,-3.51562 0.714844,-0.98828 1.632813,-1.48438 2.753906,-1.48438 0.726563,0 1.371094,0.19141 1.933594,0.56641 0.546875,0.37891 0.820313,0.875 0.820313,1.48438 0,0.3789 -0.132813,0.6914 -0.390625,0.9375 -0.234375,0.26171 -0.535156,0.39062 -0.898438,0.39062 -0.367187,0 -0.679687,-0.12891 -0.9375,-0.39062 -0.261718,-0.25782 -0.390625,-0.57032 -0.390625,-0.9375 0,-0.14063 0.128907,-0.30469 0.390625,-0.48829 0.257813,-0.15625 0.390625,-0.3164 0.390625,-0.48828 0,-0.17968 -0.09375,-0.33203 -0.273437,-0.44922 -0.210938,-0.10156 -0.425782,-0.15625 -0.644532,-0.15625 -0.601562,0 -0.996093,0.24219 -1.191406,0.72266 -0.210937,0.46875 -0.3125,1.15234 -0.3125,2.05078 0,0.26172 0.0039,0.50391 0.01953,0.72266 0.01172,0.22265 0.01953,0.46484 0.01953,0.72265 z m 0,0"
       style="fill:#000000;fill-opacity:1;fill-rule:nonzero;stroke:none" />
    <path
       id="path616"
       d="m 29.714844,26.31247 c 0.648438,-0.71875 0.976562,-1.39453 0.976562,-2.03125 0,-0.53515 -0.230468,-0.95703 -0.683593,-1.26953 -0.445313,-0.3125 -0.992188,-0.47266 -1.640625,-0.47266 -0.457032,0 -0.820313,0.14454 -1.09375,0.4336 C 27,23.25778 26.863282,23.582 26.863282,23.94919 c 0,0.45313 0.199218,0.80469 0.605468,1.05469 z m 0.605469,0.33203 c 1.105469,0.63672 1.660156,1.48828 1.660156,2.5586 0,0.79297 -0.332031,1.46484 -0.996094,2.01172 -0.664062,0.57031 -1.597656,0.85937 -2.792969,0.85937 -1.015624,0 -1.871093,-0.26172 -2.558593,-0.78125 -0.730469,-0.52344 -1.09375,-1.19141 -1.09375,-2.01172 0,-0.30078 0.08984,-0.62109 0.273437,-0.95703 0.167969,-0.30078 0.335938,-0.53516 0.507813,-0.70312 0.07813,-0.10547 0.324219,-0.35157 0.742187,-0.74219 -0.808594,-0.57422 -1.21875,-1.28516 -1.230468,-2.12891 0,-0.71875 0.316406,-1.34765 0.957031,-1.89453 0.636719,-0.52344 1.496093,-0.78516 2.578125,-0.78516 0.859375,0 1.613281,0.19532 2.265625,0.58594 0.625,0.39453 0.9375,0.9336 0.9375,1.625 -0.02734,0.70313 -0.445313,1.48828 -1.25,2.36328 z m -3.652344,0.58594 c -0.808594,0.71484 -1.226563,1.39844 -1.25,2.05078 0,0.66406 0.277344,1.21485 0.839844,1.66016 0.53125,0.4414 1.175781,0.66406 1.933593,0.66406 0.53125,0 0.949219,-0.17187 1.25,-0.50781 0.3125,-0.3125 0.46875,-0.69922 0.46875,-1.15235 0,-0.5625 -0.230468,-0.97265 -0.683593,-1.23046 z m 0,0"
       style="fill:#000000;fill-opacity:1;fill-rule:nonzero;stroke:none" />
    <path
       id="path638"
       d="M 46.722656,9.57028 H 58.03125 v 2.5 H 46.722656 Z m 0,0"
       style="fill:#000000;fill-opacity:1;fill-rule:evenodd;stroke:none" />
    <path
       id="path640"
       d="m 259.17188,9.57028 h 25.07031 v 2.5 h -25.07031 z m 0,0"
       style="fill:#000000;fill-opacity:1;fill-rule:evenodd;stroke:none" />
    <path
       id="path668"
       d="m 98.285156,13.32028 v -5 h 0.625 c 0,0.74219 0.140626,1.48438 0.429688,2.22657 0.3125,0.80859 0.65625,1.51172 1.035156,2.10937 0.27344,0.42969 0.68359,1.08985 1.23047,1.97266 0.41797,0.67969 0.76953,1.38672 1.05469,2.1289 0.28515,0.74219 0.42968,1.48438 0.42968,2.22657 0,1.35547 -0.28125,2.73437 -0.83984,4.14453 -0.0898,0.15625 -0.21484,0.23437 -0.37109,0.23437 -0.12891,0 -0.2461,-0.0547 -0.35157,-0.15625 -0.0781,-0.0781 -0.11718,-0.17578 -0.11718,-0.29297 v -0.0976 c 0.55859,-1.29297 0.83984,-2.56641 0.83984,-3.83203 0,-0.64844 -0.19531,-1.35157 -0.58594,-2.10938 -0.39062,-0.76562 -0.78906,-1.3789 -1.1914,-1.83594 -0.45703,-0.53125 -0.976566,-1.10546 -1.562504,-1.71875 z m 0,0"
       style="fill:#000000;fill-opacity:1;fill-rule:nonzero;stroke:none" />
    <path
       id="path670"
       d="m 147.94141,13.32028 v -5 h 0.625 c 0,0.74219 0.14062,1.48438 0.42968,2.22657 0.3125,0.80859 0.65625,1.51172 1.03516,2.10937 0.27344,0.42969 0.68359,1.08985 1.23047,1.97266 0.41797,0.67969 0.76953,1.38672 1.05469,2.1289 0.28515,0.74219 0.42968,1.48438 0.42968,2.22657 0,1.35547 -0.28125,2.73437 -0.83984,4.14453 -0.0898,0.15625 -0.21484,0.23437 -0.37109,0.23437 -0.13282,0 -0.25,-0.0547 -0.35157,-0.15625 -0.0781,-0.0781 -0.11718,-0.17578 -0.11718,-0.29297 v -0.0976 c 0.55859,-1.29297 0.83984,-2.56641 0.83984,-3.83203 0,-0.64844 -0.19531,-1.35157 -0.58594,-2.10938 -0.39062,-0.76562 -0.78906,-1.3789 -1.1914,-1.83594 -0.45703,-0.53125 -0.97657,-1.10546 -1.5625,-1.71875 z m 0,0"
       style="fill:#000000;fill-opacity:1;fill-rule:nonzero;stroke:none" />
    <path
       id="path672"
       d="m 195.73438,13.32028 v -5 h 0.625 c 0,0.74219 0.14453,1.48438 0.42968,2.22657 0.3125,0.80859 0.65625,1.51172 1.03516,2.10937 0.27344,0.42969 0.68359,1.08985 1.23047,1.97266 0.41797,0.67969 0.76953,1.38672 1.05469,2.1289 0.28515,0.74219 0.42968,1.48438 0.42968,2.22657 0,1.35547 -0.28125,2.73437 -0.83984,4.14453 -0.0898,0.15625 -0.21484,0.23437 -0.37109,0.23437 -0.12891,0 -0.2461,-0.0547 -0.35157,-0.15625 -0.0781,-0.0781 -0.11718,-0.17578 -0.11718,-0.29297 v -0.0976 c 0.55859,-1.29297 0.83984,-2.56641 0.83984,-3.83203 0,-0.64844 -0.19531,-1.35157 -0.58594,-2.10938 -0.39062,-0.76562 -0.78906,-1.3789 -1.1914,-1.83594 -0.45704,-0.53125 -0.97657,-1.10546 -1.5625,-1.71875 z m 0,0"
       style="fill:#000000;fill-opacity:1;fill-rule:nonzero;stroke:none" />
    <path
       id="path676"
       d="m 343.63672,13.32028 v -5 h 0.625 c 0,0.74219 0.14453,1.48438 0.42969,2.22657 0.3125,0.80859 0.65625,1.51172 1.03515,2.10937 0.27344,0.42969 0.6836,1.08985 1.23047,1.97266 0.41797,0.67969 0.76953,1.38672 1.05469,2.1289 0.28516,0.74219 0.42969,1.48438 0.42969,2.22657 0,1.35547 -0.28125,2.73437 -0.83985,4.14453 -0.0898,0.15625 -0.21484,0.23437 -0.37109,0.23437 -0.12891,0 -0.24609,-0.0547 -0.35156,-0.15625 -0.0781,-0.0781 -0.11719,-0.17578 -0.11719,-0.29297 v -0.0976 c 0.55859,-1.29297 0.83984,-2.56641 0.83984,-3.83203 0,-0.64844 -0.19531,-1.35157 -0.58593,-2.10938 -0.39063,-0.76562 -0.78907,-1.3789 -1.19141,-1.83594 -0.45703,-0.53125 -0.97656,-1.10546 -1.5625,-1.71875 z m 0,0"
       style="fill:#000000;fill-opacity:1;fill-rule:nonzero;stroke:none" />
    <path
       id="path678"
       d="m 407.85938,13.32028 v -5 h 0.625 c 0,0.74219 0.14453,1.48438 0.42968,2.22657 0.3125,0.80859 0.65625,1.51172 1.03516,2.10937 0.27344,0.42969 0.68359,1.08985 1.23047,1.97266 0.41797,0.67969 0.76953,1.38672 1.05469,2.1289 0.28515,0.74219 0.42968,1.48438 0.42968,2.22657 0,1.35547 -0.28125,2.73437 -0.83984,4.14453 -0.0898,0.15625 -0.21484,0.23437 -0.37109,0.23437 -0.12891,0 -0.2461,-0.0547 -0.35157,-0.15625 -0.0781,-0.0781 -0.11718,-0.17578 -0.11718,-0.29297 v -0.0976 c 0.55859,-1.29297 0.83984,-2.56641 0.83984,-3.83203 0,-0.64844 -0.19531,-1.35157 -0.58594,-2.10938 -0.39062,-0.76562 -0.78906,-1.3789 -1.1914,-1.83594 -0.45704,-0.53125 -0.97657,-1.10546 -1.5625,-1.71875 z m 0,0"
       style="fill:#000000;fill-opacity:1;fill-rule:nonzero;stroke:none" />
    <path
       id="path708"
       d="m 173.86328,25.37497 c -0.22265,-0.22265 -0.33203,-0.48828 -0.33203,-0.80078 0,-0.3125 0.10938,-0.58203 0.33203,-0.80078 0.21875,-0.22266 0.48828,-0.33203 0.80078,-0.33203 0.3125,0 0.57813,0.10937 0.80078,0.33203 0.21875,0.21875 0.33204,0.48828 0.33204,0.80078 0,0.3125 -0.11329,0.57813 -0.33204,0.80078 -0.22265,0.21875 -0.48828,0.33203 -0.80078,0.33203 -0.3125,0 -0.58203,-0.11328 -0.80078,-0.33203 z m 0,0"
       style="fill:#000000;fill-opacity:1;fill-rule:nonzero;stroke:none" />
    <path
       id="path710"
       d="m 238.08594,25.37497 c -0.22266,-0.22265 -0.33203,-0.48828 -0.33203,-0.80078 0,-0.3125 0.10937,-0.58203 0.33203,-0.80078 0.21875,-0.22266 0.48828,-0.33203 0.80078,-0.33203 0.3125,0 0.57812,0.10937 0.80078,0.33203 0.21875,0.21875 0.33203,0.48828 0.33203,0.80078 0,0.3125 -0.11328,0.57813 -0.33203,0.80078 -0.22266,0.21875 -0.48828,0.33203 -0.80078,0.33203 -0.3125,0 -0.58203,-0.11328 -0.80078,-0.33203 z m 0,0"
       style="fill:#000000;fill-opacity:1;fill-rule:nonzero;stroke:none" />
    <path
       id="path712"
       d="m 305.33594,25.37497 c -0.22266,-0.22265 -0.33203,-0.48828 -0.33203,-0.80078 0,-0.3125 0.10937,-0.58203 0.33203,-0.80078 0.22265,-0.22266 0.48828,-0.33203 0.80078,-0.33203 0.3125,0 0.57812,0.10937 0.80078,0.33203 0.22266,0.21875 0.33203,0.48828 0.33203,0.80078 0,0.3125 -0.10937,0.57813 -0.33203,0.80078 -0.22266,0.21875 -0.48828,0.33203 -0.80078,0.33203 -0.3125,0 -0.57813,-0.11328 -0.80078,-0.33203 z m 0,0"
       style="fill:#000000;fill-opacity:1;fill-rule:nonzero;stroke:none" />
    <path
       id="path714"
       d="m 388.04688,25.37497 c -0.22266,-0.22265 -0.33204,-0.48828 -0.33204,-0.80078 0,-0.3125 0.10938,-0.58203 0.33204,-0.80078 0.22265,-0.22266 0.48828,-0.33203 0.80078,-0.33203 0.3125,0 0.57812,0.10937 0.80078,0.33203 0.22265,0.21875 0.33203,0.48828 0.33203,0.80078 0,0.3125 -0.10938,0.57813 -0.33203,0.80078 -0.22266,0.21875 -0.48828,0.33203 -0.80078,0.33203 -0.3125,0 -0.57813,-0.11328 -0.80078,-0.33203 z m 0,0"
       style="fill:#000000;fill-opacity:1;fill-rule:nonzero;stroke:none" />
  </g>
</svg>
