<?xml version="1.0" encoding="UTF-8" standalone="no"?>
<svg
   xmlns:dc="http://purl.org/dc/elements/1.1/"
   xmlns:cc="http://creativecommons.org/ns#"
   xmlns:rdf="http://www.w3.org/1999/02/22-rdf-syntax-ns#"
   xmlns:svg="http://www.w3.org/2000/svg"
   xmlns="http://www.w3.org/2000/svg"
   xmlns:sodipodi="http://sodipodi.sourceforge.net/DTD/sodipodi-0.dtd"
   xmlns:inkscape="http://www.inkscape.org/namespaces/inkscape"
   inkscape:version="1.0 (4035a4f, 2020-05-01)"
   sodipodi:docname="binary_rhythms_1.svg"
   id="svg221"
   version="1.2"
   viewBox="0 0 430 50"
   height="50pt"
   width="430pt">
  <metadata
     id="metadata227">
    <rdf:RDF>
      <cc:Work
         rdf:about="">
        <dc:format>image/svg+xml</dc:format>
        <dc:type
           rdf:resource="http://purl.org/dc/dcmitype/StillImage" />
        <dc:title></dc:title>
      </cc:Work>
    </rdf:RDF>
  </metadata>
  <defs
     id="defs225" />
  <sodipodi:namedview
     inkscape:current-layer="surface4493"
     inkscape:window-maximized="1"
     inkscape:window-y="23"
     inkscape:window-x="0"
     inkscape:cy="328.01573"
     inkscape:cx="464.68594"
     inkscape:zoom="0.94510715"
     showgrid="false"
     id="namedview223"
     inkscape:window-height="855"
     inkscape:window-width="1440"
     inkscape:pageshadow="2"
     inkscape:pageopacity="0"
     guidetolerance="10"
     gridtolerance="10"
     objecttolerance="10"
     borderopacity="1"
     bordercolor="#666666"
     pagecolor="#ffffff" />
  <g
     id="surface4493">
    <path
       id="path10"
       d="M 3.7500001,12.070312 H 69.46875 m -65.7187499,5 H 69.46875 m -65.7187499,5 H 69.46875 m -65.7187499,5 H 69.46875 M 3.7500001,32.074218 H 69.46875"
       style="fill:none;stroke:#000000;stroke-width:0.400025;stroke-linecap:butt;stroke-linejoin:bevel;stroke-miterlimit:10;stroke-opacity:1" />
    <path
       id="path12"
       d="m 69.46875,12.070312 h 43.38671 m -43.38671,5 h 43.38671 m -43.38671,5 h 43.38671 m -43.38671,5 h 43.38671 m -43.38671,5.003906 h 43.38671"
       style="fill:none;stroke:#000000;stroke-width:0.400025;stroke-linecap:butt;stroke-linejoin:bevel;stroke-miterlimit:10;stroke-opacity:1" />
    <path
       id="path14"
       d="m 112.85546,12.070312 h 58.51172 m -58.51172,5 h 58.51172 m -58.51172,5 h 58.51172 m -58.51172,5 h 58.51172 m -58.51172,5.003906 h 58.51172"
       style="fill:none;stroke:#000000;stroke-width:0.400025;stroke-linecap:butt;stroke-linejoin:bevel;stroke-miterlimit:10;stroke-opacity:1" />
    <path
       id="path20"
       d="m 171.36718,12.070312 h 51.03907 m -51.03907,5 h 51.03907 m -51.03907,5 h 51.03907 m -51.03907,5 h 51.03907 m -51.03907,5.003906 h 51.03907"
       style="fill:none;stroke:#000000;stroke-width:0.400025;stroke-linecap:butt;stroke-linejoin:bevel;stroke-miterlimit:10;stroke-opacity:1" />
    <path
       id="path22"
       d="m 222.40625,12.070312 h 50.85937 m -50.85937,5 h 50.85937 m -50.85937,5 h 50.85937 m -50.85937,5 h 50.85937 m -50.85937,5.003906 h 50.85937"
       style="fill:none;stroke:#000000;stroke-width:0.400025;stroke-linecap:butt;stroke-linejoin:bevel;stroke-miterlimit:10;stroke-opacity:1" />
    <path
       id="path26"
       d="m 273.26562,12.070312 h 47.03906 m -47.03906,5 h 47.03906 m -47.03906,5 h 47.03906 m -47.03906,5 h 47.03906 m -47.03906,5.003906 h 47.03906"
       style="fill:none;stroke:#000000;stroke-width:0.400025;stroke-linecap:butt;stroke-linejoin:bevel;stroke-miterlimit:10;stroke-opacity:1" />
    <path
       id="path28"
       d="m 320.30468,12.070312 h 47.22266 m -47.22266,5 h 47.22266 m -47.22266,5 h 47.22266 m -47.22266,5 h 47.22266 m -47.22266,5.003906 h 47.22266"
       style="fill:none;stroke:#000000;stroke-width:0.400025;stroke-linecap:butt;stroke-linejoin:bevel;stroke-miterlimit:10;stroke-opacity:1" />
    <path
       id="path30"
       d="m 367.52734,12.070312 h 50.63672 m -50.63672,5 h 50.63672 m -50.63672,5 h 50.63672 m -50.63672,5 h 50.63672 m -50.63672,5.003906 h 50.63672"
       style="fill:none;stroke:#000000;stroke-width:0.362715;stroke-linecap:butt;stroke-linejoin:bevel;stroke-miterlimit:10;stroke-opacity:1" />
    <path
       id="path32"
       d="M 69.070313,12.070312 V 32.074218"
       style="fill:none;stroke:#000000;stroke-width:0.80005;stroke-linecap:butt;stroke-linejoin:bevel;stroke-miterlimit:10;stroke-opacity:1" />
    <path
       id="path34"
       d="M 112.45703,12.070312 V 32.074218"
       style="fill:none;stroke:#000000;stroke-width:0.80005;stroke-linecap:butt;stroke-linejoin:bevel;stroke-miterlimit:10;stroke-opacity:1" />
    <path
       id="path38"
       d="M 170.96875,12.070312 V 32.074218"
       style="fill:none;stroke:#000000;stroke-width:0.80005;stroke-linecap:butt;stroke-linejoin:bevel;stroke-miterlimit:10;stroke-opacity:1" />
    <path
       id="path40"
       d="M 222.0039,12.070312 V 32.074218"
       style="fill:none;stroke:#000000;stroke-width:0.80005;stroke-linecap:butt;stroke-linejoin:bevel;stroke-miterlimit:10;stroke-opacity:1" />
    <path
       id="path42"
       d="M 272.86328,12.070312 V 32.074218"
       style="fill:none;stroke:#000000;stroke-width:0.80005;stroke-linecap:butt;stroke-linejoin:bevel;stroke-miterlimit:10;stroke-opacity:1" />
    <path
       id="path48"
       d="M 319.90625,12.070312 V 32.074218"
       style="fill:none;stroke:#000000;stroke-width:0.80005;stroke-linecap:butt;stroke-linejoin:bevel;stroke-miterlimit:10;stroke-opacity:1" />
    <path
       id="path50"
       d="M 367.125,12.070312 V 32.074218"
       style="fill:none;stroke:#000000;stroke-width:0.80005;stroke-linecap:butt;stroke-linejoin:bevel;stroke-miterlimit:10;stroke-opacity:1" />
    <path
       id="path52"
       d="M 418.16406,12.070312 V 32.074218"
       style="fill:none;stroke:#000000;stroke-width:0.80005;stroke-linecap:butt;stroke-linejoin:bevel;stroke-miterlimit:10;stroke-opacity:1" />
    <path
       id="path54"
       d="M 82.089844,23.804687 V 8.3203121"
       style="fill:none;stroke:#000000;stroke-width:0.650041;stroke-linecap:round;stroke-linejoin:bevel;stroke-miterlimit:10;stroke-opacity:1" />
    <path
       id="path56"
       d="M 100.29296,23.804687 V 8.3203121"
       style="fill:none;stroke:#000000;stroke-width:0.650041;stroke-linecap:round;stroke-linejoin:bevel;stroke-miterlimit:10;stroke-opacity:1" />
    <path
       id="path72"
       d="M 150.96875,23.632812 V 8.3203121"
       style="fill:none;stroke:#000000;stroke-width:0.650041;stroke-linecap:round;stroke-linejoin:bevel;stroke-miterlimit:10;stroke-opacity:1" />
    <path
       id="path74"
       d="M 138.04296,23.632812 V 8.3203121"
       style="fill:none;stroke:#000000;stroke-width:0.650041;stroke-linecap:round;stroke-linejoin:bevel;stroke-miterlimit:10;stroke-opacity:1" />
    <path
       id="path76"
       d="M 125.11328,23.632812 V 8.3203121"
       style="fill:none;stroke:#000000;stroke-width:0.650041;stroke-linecap:round;stroke-linejoin:bevel;stroke-miterlimit:10;stroke-opacity:1" />
    <path
       id="path78"
       d="M 195.91406,23.632812 V 8.3203121"
       style="fill:none;stroke:#000000;stroke-width:0.650041;stroke-linecap:round;stroke-linejoin:bevel;stroke-miterlimit:10;stroke-opacity:1" />
    <path
       id="path80"
       d="M 183.625,23.632812 V 8.3203121"
       style="fill:none;stroke:#000000;stroke-width:0.650041;stroke-linecap:round;stroke-linejoin:bevel;stroke-miterlimit:10;stroke-opacity:1" />
    <path
       id="path82"
       d="M 163.89843,23.632812 V 8.3203121"
       style="fill:none;stroke:#000000;stroke-width:0.650041;stroke-linecap:round;stroke-linejoin:bevel;stroke-miterlimit:10;stroke-opacity:1" />
    <path
       id="path84"
       d="M 235.02343,23.804687 V 8.3203121"
       style="fill:none;stroke:#000000;stroke-width:0.650041;stroke-linecap:round;stroke-linejoin:bevel;stroke-miterlimit:10;stroke-opacity:1" />
    <path
       id="path86"
       d="M 208.38281,23.804687 V 8.3203121"
       style="fill:none;stroke:#000000;stroke-width:0.650041;stroke-linecap:round;stroke-linejoin:bevel;stroke-miterlimit:10;stroke-opacity:1" />
    <path
       id="path88"
       d="M 266.53515,23.632812 V 8.3203121"
       style="fill:none;stroke:#000000;stroke-width:0.650041;stroke-linecap:round;stroke-linejoin:bevel;stroke-miterlimit:10;stroke-opacity:1" />
    <path
       id="path90"
       d="M 254.34765,23.632812 V 8.3203121"
       style="fill:none;stroke:#000000;stroke-width:0.650041;stroke-linecap:round;stroke-linejoin:bevel;stroke-miterlimit:10;stroke-opacity:1" />
    <path
       id="path102"
       d="M 285.88281,23.804687 V 8.3203121"
       style="fill:none;stroke:#000000;stroke-width:0.650041;stroke-linecap:round;stroke-linejoin:bevel;stroke-miterlimit:10;stroke-opacity:1" />
    <path
       id="path104"
       d="M 346.4414,23.804687 V 8.3203121"
       style="fill:none;stroke:#000000;stroke-width:0.650041;stroke-linecap:round;stroke-linejoin:bevel;stroke-miterlimit:10;stroke-opacity:1" />
    <path
       id="path106"
       d="M 332.5625,23.632812 V 8.3203121"
       style="fill:none;stroke:#000000;stroke-width:0.650041;stroke-linecap:round;stroke-linejoin:bevel;stroke-miterlimit:10;stroke-opacity:1" />
    <path
       id="path108"
       d="M 312.1875,23.632812 V 8.3203121"
       style="fill:none;stroke:#000000;stroke-width:0.650041;stroke-linecap:round;stroke-linejoin:bevel;stroke-miterlimit:10;stroke-opacity:1" />
    <path
       id="path110"
       d="M 379.78515,23.632812 V 8.3203121"
       style="fill:none;stroke:#000000;stroke-width:0.650041;stroke-linecap:round;stroke-linejoin:bevel;stroke-miterlimit:10;stroke-opacity:1" />
    <path
       id="path112"
       d="M 411.73437,23.632812 V 8.3203121"
       style="fill:none;stroke:#000000;stroke-width:0.650041;stroke-linecap:round;stroke-linejoin:bevel;stroke-miterlimit:10;stroke-opacity:1" />
    <path
       id="path114"
       d="M 392.2539,23.804687 V 8.3203121"
       style="fill:none;stroke:#000000;stroke-width:0.650041;stroke-linecap:round;stroke-linejoin:bevel;stroke-miterlimit:10;stroke-opacity:1" />
    <path
       id="path116"
       d="m 45.636719,22.324218 c -0.46875,0 -0.808594,0.164063 -1.015625,0.488282 -0.234375,0.3125 -0.351562,0.738281 -0.351562,1.269531 0,0.613281 0.160156,1.140625 0.488281,1.582031 0.324219,0.429688 0.683593,0.730469 1.074219,0.898438 0.351562,0.171875 0.722656,0.253906 1.113281,0.253906 0.453125,0 0.800781,-0.160156 1.035156,-0.488281 0.21875,-0.324219 0.332031,-0.746094 0.332031,-1.269531 0,-0.609376 -0.164062,-1.136719 -0.488281,-1.582032 -0.328125,-0.414062 -0.679687,-0.714844 -1.054687,-0.898437 -0.378907,-0.167969 -0.757813,-0.253907 -1.132813,-0.253907 z m 0.664063,-0.507812 c 1.40625,0 2.578124,0.273438 3.515624,0.820312 0.949219,0.546876 1.425782,1.191407 1.425782,1.933594 0,0.796875 -0.488282,1.445313 -1.464844,1.953125 -0.976562,0.535157 -2.136719,0.804688 -3.476562,0.804688 -1.382813,0 -2.554688,-0.277344 -3.515626,-0.824219 -0.964843,-0.546875 -1.445312,-1.191406 -1.445312,-1.933594 0,-0.792968 0.492188,-1.445312 1.484375,-1.953125 0.976563,-0.53125 2.132813,-0.800781 3.476563,-0.800781 z m 0,0"
       style="fill:#000000;fill-opacity:1;fill-rule:nonzero;stroke:none" />
    <path
       id="path118"
       d="m 81.777344,23.261718 c 0,-0.21875 -0.082,-0.410156 -0.25391,-0.566406 -0.16797,-0.167968 -0.36328,-0.253906 -0.58593,-0.253906 -0.39063,0 -1.17579,0.390625 -2.36329,1.171875 -1.22265,0.796875 -1.97265,1.363281 -2.24609,1.699219 -0.14062,0.183594 -0.21484,0.371094 -0.21484,0.566406 0,0.222656 0.0859,0.410156 0.2539,0.566406 0.15625,0.171875 0.35157,0.253906 0.58594,0.253906 0.37891,0 1.17188,-0.390624 2.38281,-1.171874 1.19922,-0.78125 1.94141,-1.347657 2.22657,-1.699219 0.14453,-0.167969 0.21484,-0.355469 0.21484,-0.566407 z m -1.03516,-1.445312 c 1.1211,0 1.67969,0.484375 1.67969,1.445312 0,0.46875 -0.13672,1.015626 -0.41016,1.640626 -0.27343,0.613281 -0.63671,1.082031 -1.09375,1.40625 -1,0.679687 -2.25781,1.019531 -3.76953,1.019531 -1.11718,0 -1.67968,-0.484375 -1.67968,-1.449219 0,-0.429688 0.13671,-0.96875 0.41015,-1.621094 0.26172,-0.625 0.625,-1.097656 1.09375,-1.425781 1.00391,-0.675781 2.26172,-1.015625 3.76953,-1.015625 z m 0,0"
       style="fill:#000000;fill-opacity:1;fill-rule:nonzero;stroke:none" />
    <path
       id="path120"
       d="m 123.25,21.816406 c 0.625,0 1.15234,0.164062 1.58203,0.488281 0.40625,0.351563 0.60547,0.796875 0.60547,1.328125 0,0.898438 -0.46094,1.738282 -1.38672,2.519532 -0.9375,0.78125 -1.9375,1.175781 -3.00782,1.175781 -0.625,0 -1.15234,-0.164063 -1.58203,-0.492188 -0.40234,-0.351562 -0.60547,-0.792969 -0.60547,-1.328125 0,-0.898437 0.46875,-1.738281 1.40625,-2.519531 0.91407,-0.78125 1.91016,-1.171875 2.98829,-1.171875 z m 0,0"
       style="fill:#000000;fill-opacity:1;fill-rule:nonzero;stroke:none" />
    <path
       id="path122"
       d="m 99.980464,23.261718 c 0,-0.21875 -0.082,-0.410156 -0.2539,-0.566406 -0.16797,-0.167968 -0.36328,-0.253906 -0.58594,-0.253906 -0.39062,0 -1.17578,0.390625 -2.36328,1.171875 -1.22266,0.796875 -1.97266,1.363281 -2.24609,1.699219 -0.14063,0.183594 -0.21485,0.371094 -0.21485,0.566406 0,0.222656 0.0859,0.410156 0.25391,0.566406 0.15625,0.171875 0.35156,0.253906 0.58594,0.253906 0.3789,0 1.17187,-0.390624 2.38281,-1.171874 1.19922,-0.78125 1.9414,-1.347657 2.22656,-1.699219 0.14453,-0.167969 0.21484,-0.355469 0.21484,-0.566407 z m -1.03515,-1.445312 c 1.121086,0 1.679686,0.484375 1.679686,1.445312 0,0.46875 -0.13672,1.015626 -0.41016,1.640626 -0.273436,0.613281 -0.636716,1.082031 -1.093746,1.40625 -1,0.679687 -2.25781,1.019531 -3.76953,1.019531 -1.11719,0 -1.67969,-0.484375 -1.67969,-1.449219 0,-0.429688 0.13672,-0.96875 0.41016,-1.621094 0.26172,-0.625 0.625,-1.097656 1.09375,-1.425781 1.0039,-0.675781 2.26172,-1.015625 3.76953,-1.015625 z m 0,0"
       style="fill:#000000;fill-opacity:1;fill-rule:nonzero;stroke:none" />
    <path
       id="path138"
       d="m 162.03515,21.816406 c 0.625,0 1.15235,0.164062 1.58203,0.488281 0.40235,0.351563 0.60547,0.796875 0.60547,1.328125 0,0.898438 -0.46484,1.738282 -1.38672,2.519532 -0.9375,0.78125 -1.9414,1.175781 -3.00781,1.175781 -0.625,0 -1.15234,-0.164063 -1.58203,-0.492188 -0.40625,-0.351562 -0.60547,-0.792969 -0.60547,-1.328125 0,-0.898437 0.46875,-1.738281 1.40625,-2.519531 0.91016,-0.78125 1.90625,-1.171875 2.98828,-1.171875 z m 0,0"
       style="fill:#000000;fill-opacity:1;fill-rule:nonzero;stroke:none" />
    <path
       id="path140"
       d="m 149.10546,21.816406 c 0.625,0 1.15235,0.164062 1.58204,0.488281 0.40625,0.351563 0.60546,0.796875 0.60546,1.328125 0,0.898438 -0.46093,1.738282 -1.38671,2.519532 -0.9375,0.78125 -1.9375,1.175781 -3.00782,1.175781 -0.625,0 -1.15234,-0.164063 -1.58203,-0.492188 -0.40234,-0.351562 -0.60547,-0.792969 -0.60547,-1.328125 0,-0.898437 0.46875,-1.738281 1.40625,-2.519531 0.91407,-0.78125 1.91016,-1.171875 2.98828,-1.171875 z m 0,0"
       style="fill:#000000;fill-opacity:1;fill-rule:nonzero;stroke:none" />
    <path
       id="path142"
       d="m 136.17968,21.816406 c 0.625,0 1.15235,0.164062 1.58203,0.488281 0.40235,0.351563 0.60547,0.796875 0.60547,1.328125 0,0.898438 -0.46484,1.738282 -1.38672,2.519532 -0.9375,0.78125 -1.9414,1.175781 -3.00781,1.175781 -0.625,0 -1.15234,-0.164063 -1.58203,-0.492188 -0.40625,-0.351562 -0.60547,-0.792969 -0.60547,-1.328125 0,-0.898437 0.46875,-1.738281 1.40625,-2.519531 0.91016,-0.78125 1.90625,-1.171875 2.98828,-1.171875 z m 0,0"
       style="fill:#000000;fill-opacity:1;fill-rule:nonzero;stroke:none" />
    <path
       id="path144"
       d="m 194.05078,21.816406 c 0.625,0 1.15234,0.164062 1.58203,0.488281 0.40234,0.351563 0.60547,0.796875 0.60547,1.328125 0,0.898438 -0.46094,1.738282 -1.38672,2.519532 -0.9375,0.78125 -1.94141,1.175781 -3.00781,1.175781 -0.625,0 -1.15235,-0.164063 -1.58204,-0.492188 -0.40234,-0.351562 -0.60546,-0.792969 -0.60546,-1.328125 0,-0.898437 0.46875,-1.738281 1.40625,-2.519531 0.91015,-0.78125 1.90625,-1.171875 2.98828,-1.171875 z m 0,0"
       style="fill:#000000;fill-opacity:1;fill-rule:nonzero;stroke:none" />
    <path
       id="path146"
       d="m 181.76171,21.816406 c 0.625,0 1.15235,0.164062 1.58204,0.488281 0.40234,0.351563 0.60546,0.796875 0.60546,1.328125 0,0.898438 -0.46093,1.738282 -1.38671,2.519532 -0.9375,0.78125 -1.94141,1.175781 -3.00782,1.175781 -0.625,0 -1.15234,-0.164063 -1.58203,-0.492188 -0.40234,-0.351562 -0.60547,-0.792969 -0.60547,-1.328125 0,-0.898437 0.46875,-1.738281 1.40625,-2.519531 0.91016,-0.78125 1.90625,-1.171875 2.98828,-1.171875 z m 0,0"
       style="fill:#000000;fill-opacity:1;fill-rule:nonzero;stroke:none" />
    <path
       id="path148"
       d="m 234.71484,23.261718 c 0,-0.21875 -0.0859,-0.410156 -0.25391,-0.566406 -0.16797,-0.167968 -0.36328,-0.253906 -0.58593,-0.253906 -0.39063,0 -1.17969,0.390625 -2.36329,1.171875 -1.22265,0.796875 -1.97265,1.363281 -2.24609,1.699219 -0.14453,0.183594 -0.21484,0.371094 -0.21484,0.566406 0,0.222656 0.0859,0.410156 0.2539,0.566406 0.15625,0.171875 0.35157,0.253906 0.58594,0.253906 0.37891,0 1.17188,-0.390624 2.38281,-1.171874 1.19922,-0.78125 1.94141,-1.347657 2.22657,-1.699219 0.14453,-0.167969 0.21484,-0.355469 0.21484,-0.566407 z m -1.03516,-1.445312 c 1.1211,0 1.67969,0.484375 1.67969,1.445312 0,0.46875 -0.13672,1.015626 -0.41016,1.640626 -0.27343,0.613281 -0.63671,1.082031 -1.09375,1.40625 -1.0039,0.679687 -2.25781,1.019531 -3.76953,1.019531 -1.12109,0 -1.67968,-0.484375 -1.67968,-1.449219 0,-0.429688 0.13671,-0.96875 0.41015,-1.621094 0.26172,-0.625 0.625,-1.097656 1.09375,-1.425781 1.00391,-0.675781 2.25781,-1.015625 3.76953,-1.015625 z m 0,0"
       style="fill:#000000;fill-opacity:1;fill-rule:nonzero;stroke:none" />
    <path
       id="path150"
       d="m 208.07421,23.261718 c 0,-0.21875 -0.0859,-0.410156 -0.2539,-0.566406 -0.17188,-0.167968 -0.36719,-0.253906 -0.58594,-0.253906 -0.39062,0 -1.17969,0.390625 -2.36328,1.171875 -1.22656,0.796875 -1.97266,1.363281 -2.24609,1.699219 -0.14454,0.183594 -0.21485,0.371094 -0.21485,0.566406 0,0.222656 0.082,0.410156 0.25391,0.566406 0.15625,0.171875 0.35156,0.253906 0.58594,0.253906 0.375,0 1.17187,-0.390624 2.38281,-1.171874 1.19531,-0.78125 1.9375,-1.347657 2.22656,-1.699219 0.14063,-0.167969 0.21484,-0.355469 0.21484,-0.566407 z m -1.03515,-1.445312 c 1.11719,0 1.67969,0.484375 1.67969,1.445312 0,0.46875 -0.13672,1.015626 -0.41016,1.640626 -0.27344,0.613281 -0.64063,1.082031 -1.09375,1.40625 -1.00391,0.679687 -2.26172,1.019531 -3.76953,1.019531 -1.1211,0 -1.6836,-0.484375 -1.6836,-1.449219 0,-0.429688 0.13672,-0.96875 0.41407,-1.621094 0.25781,-0.625 0.625,-1.097656 1.09375,-1.425781 1,-0.675781 2.25781,-1.015625 3.76953,-1.015625 z m 0,0"
       style="fill:#000000;fill-opacity:1;fill-rule:nonzero;stroke:none" />
    <path
       id="path152"
       d="m 264.67187,21.816406 c 0.625,0 1.15234,0.164062 1.58203,0.488281 0.40235,0.351563 0.60547,0.796875 0.60547,1.328125 0,0.898438 -0.46484,1.738282 -1.38672,2.519532 -0.9375,0.78125 -1.9414,1.175781 -3.00781,1.175781 -0.625,0 -1.15234,-0.164063 -1.58203,-0.492188 -0.40625,-0.351562 -0.60547,-0.792969 -0.60547,-1.328125 0,-0.898437 0.46875,-1.738281 1.40625,-2.519531 0.91016,-0.78125 1.90625,-1.171875 2.98828,-1.171875 z m 0,0"
       style="fill:#000000;fill-opacity:1;fill-rule:nonzero;stroke:none" />
    <path
       id="path154"
       d="m 252.48437,21.816406 c 0.625,0 1.15234,0.164062 1.58203,0.488281 0.40235,0.351563 0.60547,0.796875 0.60547,1.328125 0,0.898438 -0.46484,1.738282 -1.38672,2.519532 -0.9414,0.78125 -1.9414,1.175781 -3.01172,1.175781 -0.625,0 -1.15234,-0.164063 -1.58203,-0.492188 -0.40234,-0.351562 -0.60547,-0.792969 -0.60547,-1.328125 0,-0.898437 0.46875,-1.738281 1.40625,-2.519531 0.91407,-0.78125 1.91016,-1.171875 2.99219,-1.171875 z m 0,0"
       style="fill:#000000;fill-opacity:1;fill-rule:nonzero;stroke:none" />
    <path
       id="path166"
       d="m 310.32421,21.816406 c 0.625,0 1.15235,0.164062 1.58204,0.488281 0.40234,0.351563 0.60546,0.796875 0.60546,1.328125 0,0.898438 -0.46093,1.738282 -1.38671,2.519532 -0.9375,0.78125 -1.94141,1.175781 -3.00782,1.175781 -0.625,0 -1.15234,-0.164063 -1.58203,-0.492188 -0.40234,-0.351562 -0.60547,-0.792969 -0.60547,-1.328125 0,-0.898437 0.46875,-1.738281 1.40625,-2.519531 0.91016,-0.78125 1.90625,-1.171875 2.98828,-1.171875 z m 0,0"
       style="fill:#000000;fill-opacity:1;fill-rule:nonzero;stroke:none" />
    <path
       id="path168"
       d="m 285.57421,23.261718 c 0,-0.21875 -0.0859,-0.410156 -0.2539,-0.566406 -0.17188,-0.167968 -0.36719,-0.253906 -0.58594,-0.253906 -0.39062,0 -1.17969,0.390625 -2.36328,1.171875 -1.22656,0.796875 -1.97266,1.363281 -2.24609,1.699219 -0.14454,0.183594 -0.21485,0.371094 -0.21485,0.566406 0,0.222656 0.082,0.410156 0.25391,0.566406 0.15625,0.171875 0.35156,0.253906 0.58594,0.253906 0.375,0 1.17187,-0.390624 2.38281,-1.171874 1.19531,-0.78125 1.9375,-1.347657 2.22656,-1.699219 0.14063,-0.167969 0.21484,-0.355469 0.21484,-0.566407 z m -1.03515,-1.445312 c 1.11719,0 1.67969,0.484375 1.67969,1.445312 0,0.46875 -0.13672,1.015626 -0.41016,1.640626 -0.27344,0.613281 -0.64063,1.082031 -1.09375,1.40625 -1.00391,0.679687 -2.26172,1.019531 -3.76953,1.019531 -1.1211,0 -1.67969,-0.484375 -1.67969,-1.449219 0,-0.429688 0.13672,-0.96875 0.41016,-1.621094 0.25781,-0.625 0.625,-1.097656 1.09375,-1.425781 1,-0.675781 2.25781,-1.015625 3.76953,-1.015625 z m 0,0"
       style="fill:#000000;fill-opacity:1;fill-rule:nonzero;stroke:none" />
    <path
       id="path170"
       d="m 346.13281,23.261718 c 0,-0.21875 -0.0859,-0.410156 -0.25391,-0.566406 -0.17187,-0.167968 -0.36719,-0.253906 -0.58594,-0.253906 -0.39062,0 -1.17968,0.390625 -2.36328,1.171875 -1.22656,0.796875 -1.97265,1.363281 -2.24609,1.699219 -0.14453,0.183594 -0.21484,0.371094 -0.21484,0.566406 0,0.222656 0.082,0.410156 0.2539,0.566406 0.15625,0.171875 0.35156,0.253906 0.58594,0.253906 0.375,0 1.17187,-0.390624 2.38281,-1.171874 1.19531,-0.78125 1.9375,-1.347657 2.22656,-1.699219 0.14063,-0.167969 0.21485,-0.355469 0.21485,-0.566407 z m -1.03516,-1.445312 c 1.11719,0 1.67969,0.484375 1.67969,1.445312 0,0.46875 -0.13672,1.015626 -0.41016,1.640626 -0.27343,0.613281 -0.64062,1.082031 -1.09375,1.40625 -1.0039,0.679687 -2.26172,1.019531 -3.76953,1.019531 -1.12109,0 -1.67969,-0.484375 -1.67969,-1.449219 0,-0.429688 0.13672,-0.96875 0.41016,-1.621094 0.25781,-0.625 0.625,-1.097656 1.09375,-1.425781 1,-0.675781 2.25781,-1.015625 3.76953,-1.015625 z m 0,0"
       style="fill:#000000;fill-opacity:1;fill-rule:nonzero;stroke:none" />
    <path
       id="path172"
       d="m 330.69921,21.816406 c 0.625,0 1.15235,0.164062 1.58204,0.488281 0.40625,0.351563 0.60546,0.796875 0.60546,1.328125 0,0.898438 -0.46093,1.738282 -1.38671,2.519532 -0.9375,0.78125 -1.9375,1.175781 -3.00782,1.175781 -0.625,0 -1.15234,-0.164063 -1.58203,-0.492188 -0.40234,-0.351562 -0.60547,-0.792969 -0.60547,-1.328125 0,-0.898437 0.46875,-1.738281 1.40625,-2.519531 0.91407,-0.78125 1.91016,-1.171875 2.98828,-1.171875 z m 0,0"
       style="fill:#000000;fill-opacity:1;fill-rule:nonzero;stroke:none" />
    <path
       id="path174"
       d="m 377.92187,21.816406 c 0.625,0 1.15234,0.164062 1.58203,0.488281 0.40235,0.351563 0.60547,0.796875 0.60547,1.328125 0,0.898438 -0.46094,1.738282 -1.38672,2.519532 -0.9375,0.78125 -1.9414,1.175781 -3.00781,1.175781 -0.625,0 -1.15234,-0.164063 -1.58203,-0.492188 -0.40625,-0.351562 -0.60547,-0.792969 -0.60547,-1.328125 0,-0.898437 0.46875,-1.738281 1.40625,-2.519531 0.91016,-0.78125 1.90625,-1.171875 2.98828,-1.171875 z m 0,0"
       style="fill:#000000;fill-opacity:1;fill-rule:nonzero;stroke:none" />
    <path
       id="path176"
       d="m 409.87109,21.816406 c 0.625,0 1.15234,0.164062 1.58203,0.488281 0.40234,0.351563 0.60547,0.796875 0.60547,1.328125 0,0.898438 -0.46094,1.738282 -1.38672,2.519532 -0.9375,0.78125 -1.94141,1.175781 -3.00781,1.175781 -0.625,0 -1.15235,-0.164063 -1.58203,-0.492188 -0.40235,-0.351562 -0.60547,-0.792969 -0.60547,-1.328125 0,-0.898437 0.46875,-1.738281 1.40625,-2.519531 0.91015,-0.78125 1.90625,-1.171875 2.98828,-1.171875 z m 0,0"
       style="fill:#000000;fill-opacity:1;fill-rule:nonzero;stroke:none" />
    <path
       id="path178"
       d="m 391.94531,23.261718 c 0,-0.21875 -0.0859,-0.410156 -0.25391,-0.566406 -0.17187,-0.167968 -0.36719,-0.253906 -0.58594,-0.253906 -0.39062,0 -1.17968,0.390625 -2.36328,1.171875 -1.22656,0.796875 -1.97656,1.363281 -2.25,1.699219 -0.14062,0.183594 -0.21484,0.371094 -0.21484,0.566406 0,0.222656 0.0859,0.410156 0.25391,0.566406 0.15625,0.171875 0.35156,0.253906 0.58593,0.253906 0.37891,0 1.17578,-0.390624 2.38672,-1.171874 1.19531,-0.78125 1.9375,-1.347657 2.22656,-1.699219 0.14063,-0.167969 0.21485,-0.355469 0.21485,-0.566407 z m -1.03516,-1.445312 c 1.11719,0 1.67969,0.484375 1.67969,1.445312 0,0.46875 -0.13672,1.015626 -0.41016,1.640626 -0.27343,0.613281 -0.64062,1.082031 -1.09375,1.40625 -1.0039,0.679687 -2.26172,1.019531 -3.77343,1.019531 -1.11719,0 -1.67969,-0.484375 -1.67969,-1.449219 0,-0.429688 0.13672,-0.96875 0.41015,-1.621094 0.26172,-0.625 0.625,-1.097656 1.09375,-1.425781 1.00391,-0.675781 2.26172,-1.015625 3.77344,-1.015625 z m 0,0"
       style="fill:#000000;fill-opacity:1;fill-rule:nonzero;stroke:none" />
    <path
       id="path180"
       d="m 14.292969,21.953125 c 0,0 0.03906,0 0.117187,0 0.05078,-0.01172 0.09766,-0.01953 0.136719,-0.01953 1.457031,0 2.65625,0.515624 3.59375,1.542968 0.9375,1.015625 1.40625,2.203125 1.40625,3.554688 0,1.683594 -0.695312,3.050781 -2.089843,4.105468 -0.363282,0.285157 -0.839844,0.519532 -1.425782,0.703126 0.06641,0.84375 0.09766,1.527343 0.09766,2.050781 0,0.101562 -0.01172,0.480469 -0.03906,1.132812 -0.05078,1.210938 -0.46875,2.257813 -1.25,3.144531 -0.753906,0.871094 -1.691406,1.308594 -2.8125,1.308594 -1.054688,0 -1.953125,-0.371094 -2.6953119,-1.113281 -0.742188,-0.757813 -1.113282,-1.667969 -1.113282,-2.734375 0,-0.5625 0.214844,-1.035156 0.644532,-1.425781 0.441406,-0.390625 0.957031,-0.585938 1.5429679,-0.585938 0.519532,0 0.957032,0.199219 1.308594,0.605469 0.363281,0.375 0.546875,0.84375 0.546875,1.40625 0,0.507812 -0.183594,0.941406 -0.546875,1.308594 -0.363281,0.363281 -0.800781,0.546875 -1.308594,0.546875 -0.207031,0 -0.4101559,-0.03906 -0.6054679,-0.117188 0.5742179,0.84375 1.3359369,1.269531 2.2851559,1.269531 0.898437,0 1.632812,-0.367187 2.207031,-1.09375 0.597656,-0.757812 0.925781,-1.636718 0.976563,-2.636718 0.02734,-0.625 0.03906,-0.984375 0.03906,-1.074219 0,-0.730469 -0.02734,-1.328125 -0.07813,-1.796875 -0.652344,0.101562 -1.230469,0.15625 -1.738281,0.15625 -1.808594,0 -3.351563,-0.71875 -4.6289059,-2.148438 -1.25,-1.445312 -1.875,-3.167968 -1.875,-5.160156 0,-0.414062 0.03906,-0.839844 0.117187,-1.269531 0.07813,-0.351563 0.175781,-0.734375 0.292969,-1.152344 0.06641,-0.234375 0.242187,-0.609375 0.527344,-1.132812 0.105468,-0.15625 0.222656,-0.351563 0.351562,-0.585938 0.128906,-0.234375 0.222656,-0.390625 0.273438,-0.46875 0.128906,-0.257812 0.382812,-0.609375 0.761718,-1.054687 0.105469,-0.117188 0.210938,-0.246094 0.320313,-0.390625 0.113281,-0.140625 0.207031,-0.257813 0.285156,-0.351563 0.07813,-0.08984 0.1367189,-0.160156 0.1757809,-0.214844 0.03906,-0.05078 0.332032,-0.394531 0.878906,-1.035156 0.128907,-0.128906 0.257813,-0.269531 0.382813,-0.417968 0.121094,-0.152344 0.222656,-0.269532 0.300781,-0.351563 0.07813,-0.08594 0.136719,-0.148437 0.175782,-0.1875 -0.46875,-1.546875 -0.761719,-2.785156 -0.878907,-3.710937 -0.08984,-0.742188 -0.136719,-1.757813 -0.136719,-3.0468759 0,-1.132812 0.261719,-2.191406 0.78125,-3.183593 0.507813,-1.027344 1.21875,-1.867188 2.128907,-2.519531 0.06641,-0.039063 0.128906,-0.058594 0.195312,-0.058594 0.08984,0 0.15625,0.019531 0.195313,0.058594 0.703125,0.847656 1.308594,1.945312 1.816406,3.300781 0.519531,1.355469 0.78125,2.585937 0.78125,3.6914059 0,1.25 -0.300781,2.421875 -0.898438,3.515625 -0.675781,1.160156 -1.550781,2.359375 -2.617187,3.59375 0.273437,0.859375 0.636719,2.207031 1.09375,4.042969 z m 1.660156,9.085937 c 0.675781,-0.25 1.203125,-0.671875 1.582031,-1.269531 0.417969,-0.574219 0.625,-1.21875 0.625,-1.933594 0,-0.925781 -0.3125,-1.746093 -0.9375,-2.464843 -0.636718,-0.742188 -1.453124,-1.15625 -2.441406,-1.25 0.558594,2.75 0.949219,5.054687 1.171875,6.917968 z M 8.3945321,26.523437 c 0,1.292969 0.519531,2.425781 1.5625,3.402344 1.0664059,0.949219 2.2656239,1.425781 3.5937499,1.425781 0.546874,0 1.082031,-0.03906 1.601562,-0.117187 -0.207031,-1.980469 -0.617188,-4.351563 -1.230469,-7.113281 -0.742187,0.07812 -1.335937,0.339843 -1.777343,0.78125 C 11.714844,25.359375 11.5,25.875 11.5,26.445312 c 0,0.992188 0.527344,1.792969 1.582032,2.40625 0.08984,0.08984 0.136718,0.1875 0.136718,0.292969 0,0.101563 -0.04687,0.199219 -0.136718,0.292969 -0.07813,0.08984 -0.175782,0.136718 -0.292969,0.136718 -0.01172,0 -0.07031,-0.01562 -0.175781,-0.03906 -0.742188,-0.40625 -1.316407,-0.925781 -1.71875,-1.5625 -0.378907,-0.679688 -0.566407,-1.363281 -0.566407,-2.054688 0,-0.898437 0.28125,-1.710937 0.839844,-2.441406 0.585937,-0.726562 1.347656,-1.195312 2.285156,-1.40625 -0.363281,-1.457031 -0.664062,-2.597656 -0.898437,-3.417968 -0.207032,0.234374 -0.457032,0.519531 -0.75,0.851562 -0.292969,0.332031 -0.46875,0.53125 -0.519532,0.59375 -0.46875,0.613281 -0.828124,1.089844 -1.074218,1.425781 -0.4414059,0.613281 -0.7695319,1.140625 -0.9765629,1.582031 -0.222656,0.496094 -0.417969,1.035157 -0.585937,1.621094 -0.167969,0.5625 -0.253906,1.160156 -0.253906,1.796875 z M 14.917969,6.6601561 c -0.976563,0.484375 -1.746094,1.171875 -2.304687,2.070312 -0.574219,0.925782 -0.859376,1.9218759 -0.859376,2.9882819 0,0.9375 0.234376,2.203125 0.703126,3.789062 0.9375,-1.132812 1.640624,-2.179687 2.109374,-3.144531 0.496094,-1.015625 0.742188,-2.074219 0.742188,-3.1835939 0,-0.832031 -0.128906,-1.671875 -0.390625,-2.519531 z m 0,0"
       style="fill:#000000;fill-opacity:1;fill-rule:nonzero;stroke:none" />
    <path
       id="path184"
       d="m 29.082032,12.324218 c 0.390624,0 0.722656,-0.04297 0.996093,-0.136718 0.273438,-0.08984 0.449219,-0.136719 0.527344,-0.136719 0.08984,0 0.160156,0.02734 0.214844,0.07813 0.03906,0.03906 0.0625,0.08594 0.07813,0.136719 0,0.02734 -0.01563,0.06641 -0.03906,0.117187 l -5.6875,6.601563 h 3.339844 v -2.617188 c 0,-0.167969 0.04687,-0.3125 0.136719,-0.429687 0.15625,-0.128906 0.289062,-0.207032 0.394531,-0.234375 0.167969,-0.07813 0.375,-0.257813 0.625,-0.546875 0.207031,-0.234375 0.453125,-0.644532 0.742187,-1.230469 0.03906,-0.07813 0.09766,-0.117187 0.175782,-0.117187 0.15625,0 0.246094,0.09375 0.273437,0.273437 v 4.902344 h 1.425781 c 0.179688,0 0.285157,0.09766 0.3125,0.292969 0,0.195312 -0.105468,0.292968 -0.3125,0.292968 h -1.425781 v 0.15625 c 0,0.523438 0.128907,0.964844 0.390625,1.328125 0.296875,0.367188 0.648438,0.546875 1.054688,0.546875 0.15625,0 0.234375,0.07813 0.234375,0.234375 0,0.15625 -0.07813,0.234375 -0.234375,0.234375 -0.273438,0 -0.71875,-0.03906 -1.328125,-0.117187 -0.5625,-0.08984 -0.996094,-0.136719 -1.308594,-0.136719 -0.328125,0 -0.765625,0.04687 -1.3125,0.136719 -0.585937,0.07813 -1.019531,0.117187 -1.308594,0.117187 -0.15625,0 -0.234375,-0.07813 -0.234375,-0.234375 0,-0.15625 0.07813,-0.234375 0.234375,-0.234375 0.40625,0 0.757813,-0.179687 1.054688,-0.546875 0.273437,-0.363281 0.410156,-0.804687 0.410156,-1.328125 v -0.15625 h -3.339844 c -0.21875,0 -0.375,-0.05078 -0.46875,-0.15625 -0.101562,-0.07813 -0.15625,-0.179687 -0.15625,-0.3125 0,-0.03906 0.09766,-0.175781 0.292969,-0.410156 0.222656,-0.257812 0.457031,-0.578125 0.703125,-0.957031 0.289063,-0.441407 0.5625,-0.898438 0.820313,-1.367188 0.289062,-0.53125 0.515624,-1.144531 0.683593,-1.835937 0.195313,-0.703125 0.292969,-1.417969 0.292969,-2.148438 0,-0.207031 0.09375,-0.3125 0.273438,-0.3125 0.03906,0 0.125,0.01953 0.253906,0.05859 0.03906,0.01563 0.121094,0.03516 0.246094,0.05859 0.125,0.02734 0.222656,0.05469 0.300781,0.07813 0.234375,0.03906 0.457031,0.05859 0.667969,0.05859 z m 0,0"
       style="fill:#000000;fill-opacity:1;fill-rule:nonzero;stroke:none" />
    <path
       id="path186"
       d="m 29.082032,22.324218 c 0.390624,0 0.722656,-0.04297 0.996093,-0.136718 0.273438,-0.08984 0.449219,-0.136719 0.527344,-0.136719 0.08984,0 0.160156,0.02734 0.214844,0.07813 0.03906,0.03906 0.0625,0.08594 0.07813,0.136719 0,0.02734 -0.01563,0.06641 -0.03906,0.117187 l -5.6875,6.605469 h 3.339844 v -2.621094 c 0,-0.167969 0.04687,-0.3125 0.136719,-0.429687 0.15625,-0.128906 0.289062,-0.207032 0.394531,-0.234375 0.167969,-0.07813 0.375,-0.257813 0.625,-0.546875 0.207031,-0.234375 0.453125,-0.644532 0.742187,-1.230469 0.03906,-0.07813 0.09766,-0.117187 0.175782,-0.117187 0.15625,0 0.246094,0.09375 0.273437,0.273437 v 4.90625 h 1.425781 c 0.179688,0 0.285157,0.09766 0.3125,0.292969 0,0.195312 -0.105468,0.292968 -0.3125,0.292968 h -1.425781 v 0.15625 c 0,0.519532 0.128907,0.960938 0.390625,1.328126 0.296875,0.363281 0.648438,0.546874 1.054688,0.546874 0.15625,0 0.234375,0.07813 0.234375,0.234376 0,0.15625 -0.07813,0.234374 -0.234375,0.234374 -0.273438,0 -0.71875,-0.03906 -1.328125,-0.117187 -0.5625,-0.09375 -0.996094,-0.136719 -1.308594,-0.136719 -0.328125,0 -0.765625,0.04297 -1.3125,0.136719 -0.585937,0.07813 -1.019531,0.117187 -1.308594,0.117187 -0.15625,0 -0.234375,-0.07812 -0.234375,-0.234374 0,-0.15625 0.07813,-0.234376 0.234375,-0.234376 0.40625,0 0.757813,-0.183593 1.054688,-0.546874 0.273437,-0.367188 0.410156,-0.808594 0.410156,-1.328126 v -0.15625 h -3.339844 c -0.21875,0 -0.375,-0.05469 -0.46875,-0.15625 -0.101562,-0.07812 -0.15625,-0.183593 -0.15625,-0.3125 0,-0.03906 0.09766,-0.175781 0.292969,-0.410156 0.222656,-0.261718 0.457031,-0.582031 0.703125,-0.957031 0.289063,-0.445313 0.5625,-0.902344 0.820313,-1.371094 0.289062,-0.53125 0.515624,-1.144531 0.683593,-1.835937 0.195313,-0.703125 0.292969,-1.417969 0.292969,-2.148438 0,-0.207031 0.09375,-0.3125 0.273438,-0.3125 0.03906,0 0.125,0.01953 0.253906,0.05859 0.03906,0.01563 0.121094,0.03516 0.246094,0.05859 0.125,0.02734 0.222656,0.05469 0.300781,0.07813 0.234375,0.03906 0.457031,0.05859 0.667969,0.05859 z m 0,0"
       style="fill:#000000;fill-opacity:1;fill-rule:nonzero;stroke:none" />
    <path
       id="path216"
       d="m 288.28906,25.371094 c -0.21875,-0.21875 -0.33203,-0.488282 -0.33203,-0.800782 0,-0.3125 0.11328,-0.578125 0.33203,-0.800781 0.22265,-0.21875 0.48828,-0.332031 0.80078,-0.332031 0.3125,0 0.58203,0.113281 0.80078,0.332031 0.22266,0.222656 0.33203,0.488281 0.33203,0.800781 0,0.3125 -0.10937,0.582032 -0.33203,0.800782 -0.21875,0.222656 -0.48828,0.332031 -0.80078,0.332031 -0.3125,0 -0.57813,-0.109375 -0.80078,-0.332031 z m 0,0"
       style="fill:#000000;fill-opacity:1;fill-rule:nonzero;stroke:none" />
    <path
       id="path218"
       d="m 348.84765,25.371094 c -0.21875,-0.21875 -0.33203,-0.488282 -0.33203,-0.800782 0,-0.3125 0.11328,-0.578125 0.33203,-0.800781 0.22266,-0.21875 0.48828,-0.332031 0.80078,-0.332031 0.3125,0 0.58203,0.113281 0.80078,0.332031 0.22266,0.222656 0.33204,0.488281 0.33204,0.800781 0,0.3125 -0.10938,0.582032 -0.33204,0.800782 -0.21875,0.222656 -0.48828,0.332031 -0.80078,0.332031 -0.3125,0 -0.57812,-0.109375 -0.80078,-0.332031 z m 0,0"
       style="fill:#000000;fill-opacity:1;fill-rule:nonzero;stroke:none" />
  </g>
</svg>
