<?xml version="1.0" encoding="UTF-8" standalone="no"?>
<svg
   xmlns:dc="http://purl.org/dc/elements/1.1/"
   xmlns:cc="http://creativecommons.org/ns#"
   xmlns:rdf="http://www.w3.org/1999/02/22-rdf-syntax-ns#"
   xmlns:svg="http://www.w3.org/2000/svg"
   xmlns="http://www.w3.org/2000/svg"
   xmlns:sodipodi="http://sodipodi.sourceforge.net/DTD/sodipodi-0.dtd"
   xmlns:inkscape="http://www.inkscape.org/namespaces/inkscape"
   inkscape:version="1.0 (4035a4f, 2020-05-01)"
   sodipodi:docname="binary_rhythms_2.svg"
   id="svg221"
   version="1.2"
   viewBox="0 0 230 50"
   height="50pt"
   width="230pt">
  <metadata
     id="metadata227">
    <rdf:RDF>
      <cc:Work
         rdf:about="">
        <dc:format>image/svg+xml</dc:format>
        <dc:type
           rdf:resource="http://purl.org/dc/dcmitype/StillImage" />
        <dc:title></dc:title>
      </cc:Work>
    </rdf:RDF>
  </metadata>
  <defs
     id="defs225" />
  <sodipodi:namedview
     inkscape:current-layer="surface4493"
     inkscape:window-maximized="1"
     inkscape:window-y="23"
     inkscape:window-x="0"
     inkscape:cy="328.01573"
     inkscape:cx="464.68594"
     inkscape:zoom="0.94510715"
     showgrid="false"
     id="namedview223"
     inkscape:window-height="855"
     inkscape:window-width="1440"
     inkscape:pageshadow="2"
     inkscape:pageopacity="0"
     guidetolerance="10"
     gridtolerance="10"
     objecttolerance="10"
     borderopacity="1"
     bordercolor="#666666"
     pagecolor="#ffffff" />
  <g
     id="surface4493">
    <path
       id="path16"
       d="M 3.7500001,17.96096 H 80.175782 m -76.4257819,5 H 80.175782 m -76.4257819,5 H 80.175782 m -76.4257819,5 H 80.175782 m -76.4257819,5 H 80.175782"
       style="fill:none;stroke:#000000;stroke-width:0.400025;stroke-linecap:butt;stroke-linejoin:bevel;stroke-miterlimit:10;stroke-opacity:1" />
    <path
       id="path18"
       d="m 80.175782,17.96096 h 71.453128 m -71.453128,5 h 71.453128 m -71.453128,5 h 71.453128 m -71.453128,5 h 71.453128 m -71.453128,5 h 71.453128"
       style="fill:none;stroke:#000000;stroke-width:0.400025;stroke-linecap:butt;stroke-linejoin:bevel;stroke-miterlimit:10;stroke-opacity:1" />
    <path
       id="path24"
       d="m 151.62891,17.96096 h 67.70703 m -67.70703,5 h 67.70703 m -67.70703,5 h 67.70703 m -67.70703,5 h 67.70703 m -67.70703,5 h 67.70703"
       style="fill:none;stroke:#000000;stroke-width:0.400025;stroke-linecap:butt;stroke-linejoin:bevel;stroke-miterlimit:10;stroke-opacity:1" />
    <path
       id="path36"
       d="m 79.777344,17.96096 v 20"
       style="fill:none;stroke:#000000;stroke-width:0.80005;stroke-linecap:butt;stroke-linejoin:bevel;stroke-miterlimit:10;stroke-opacity:1" />
    <path
       id="path44"
       d="m 151.23047,17.96096 v 20"
       style="fill:none;stroke:#000000;stroke-width:0.80005;stroke-linecap:butt;stroke-linejoin:bevel;stroke-miterlimit:10;stroke-opacity:1" />
    <path
       id="path46"
       d="m 218.93359,17.96096 v 20"
       style="fill:none;stroke:#000000;stroke-width:0.80005;stroke-linecap:butt;stroke-linejoin:bevel;stroke-miterlimit:10;stroke-opacity:1" />
    <path
       id="path58"
       d="M 47.957032,29.69143 V 14.21096"
       style="fill:none;stroke:#000000;stroke-width:0.650041;stroke-linecap:round;stroke-linejoin:bevel;stroke-miterlimit:10;stroke-opacity:1" />
    <path
       id="path60"
       d="M 73.195313,29.69143 V 14.21096"
       style="fill:none;stroke:#000000;stroke-width:0.650041;stroke-linecap:round;stroke-linejoin:bevel;stroke-miterlimit:10;stroke-opacity:1" />
    <path
       id="path62"
       d="M 60.578125,29.69143 V 14.21096"
       style="fill:none;stroke:#000000;stroke-width:0.650041;stroke-linecap:round;stroke-linejoin:bevel;stroke-miterlimit:10;stroke-opacity:1" />
    <path
       id="path64"
       d="M 124.27734,29.52346 V 14.21096"
       style="fill:none;stroke:#000000;stroke-width:0.650041;stroke-linecap:round;stroke-linejoin:bevel;stroke-miterlimit:10;stroke-opacity:1" />
    <path
       id="path66"
       d="M 113.66406,29.52346 V 14.21096"
       style="fill:none;stroke:#000000;stroke-width:0.650041;stroke-linecap:round;stroke-linejoin:bevel;stroke-miterlimit:10;stroke-opacity:1" />
    <path
       id="path68"
       d="M 103.04688,29.52346 V 14.21096"
       style="fill:none;stroke:#000000;stroke-width:0.650041;stroke-linecap:round;stroke-linejoin:bevel;stroke-miterlimit:10;stroke-opacity:1" />
    <path
       id="path70"
       d="M 92.433594,29.52346 V 14.21096"
       style="fill:none;stroke:#000000;stroke-width:0.650041;stroke-linecap:round;stroke-linejoin:bevel;stroke-miterlimit:10;stroke-opacity:1" />
    <path
       id="path92"
       d="M 145.50391,29.52346 V 14.21096"
       style="fill:none;stroke:#000000;stroke-width:0.650041;stroke-linecap:round;stroke-linejoin:bevel;stroke-miterlimit:10;stroke-opacity:1" />
    <path
       id="path94"
       d="M 134.89063,29.52346 V 14.21096"
       style="fill:none;stroke:#000000;stroke-width:0.650041;stroke-linecap:round;stroke-linejoin:bevel;stroke-miterlimit:10;stroke-opacity:1" />
    <path
       id="path96"
       d="M 184.19141,29.52346 V 14.21096"
       style="fill:none;stroke:#000000;stroke-width:0.650041;stroke-linecap:round;stroke-linejoin:bevel;stroke-miterlimit:10;stroke-opacity:1" />
    <path
       id="path98"
       d="M 163.88672,29.52346 V 14.21096"
       style="fill:none;stroke:#000000;stroke-width:0.650041;stroke-linecap:round;stroke-linejoin:bevel;stroke-miterlimit:10;stroke-opacity:1" />
    <path
       id="path100"
       d="M 204.49219,29.52346 V 14.21096"
       style="fill:none;stroke:#000000;stroke-width:0.650041;stroke-linecap:round;stroke-linejoin:bevel;stroke-miterlimit:10;stroke-opacity:1" />
    <path
       id="path124"
       d="m 47.648438,29.15236 c 0,-0.22265 -0.08594,-0.41015 -0.253906,-0.5664 -0.171876,-0.16797 -0.367188,-0.25391 -0.585938,-0.25391 -0.390625,0 -1.179688,0.39063 -2.363281,1.17188 -1.226563,0.79297 -1.972657,1.35937 -2.246094,1.69922 -0.144531,0.18359 -0.214844,0.37109 -0.214844,0.5664 0,0.22266 0.08203,0.41016 0.253907,0.56641 0.15625,0.16797 0.351562,0.2539 0.585937,0.2539 0.375,0 1.171875,-0.39062 2.382813,-1.17187 1.195312,-0.78125 1.9375,-1.34766 2.226562,-1.69922 0.140625,-0.16797 0.214844,-0.35937 0.214844,-0.56641 z m -1.035156,-1.44531 c 1.117187,0 1.679687,0.48047 1.679687,1.44531 0,0.46875 -0.136719,1.01563 -0.410156,1.64063 -0.273438,0.61328 -0.640625,1.08203 -1.09375,1.40625 -1.003907,0.67578 -2.261719,1.01562 -3.769531,1.01562 -1.121094,0 -1.679688,-0.48046 -1.679688,-1.44531 0,-0.42969 0.136719,-0.96875 0.410156,-1.62109 0.257813,-0.625 0.625,-1.10156 1.09375,-1.42578 1,-0.67578 2.257813,-1.01563 3.769532,-1.01563 z m 0,0"
       style="fill:#000000;fill-opacity:1;fill-rule:nonzero;stroke:none" />
    <path
       id="path126"
       d="m 90.570313,27.70705 c 0.625,0 1.152343,0.16406 1.582031,0.48828 0.402344,0.35157 0.605469,0.79297 0.605469,1.32813 0,0.89844 -0.460938,1.73828 -1.386719,2.51953 -0.9375,0.78125 -1.941406,1.17187 -3.007812,1.17187 -0.625,0 -1.152344,-0.16406 -1.582032,-0.48828 -0.402344,-0.35156 -0.605468,-0.79297 -0.605468,-1.32812 0,-0.89844 0.46875,-1.73828 1.40625,-2.51953 0.910156,-0.78125 1.90625,-1.17188 2.988281,-1.17188 z m 0,0"
       style="fill:#000000;fill-opacity:1;fill-rule:nonzero;stroke:none" />
    <path
       id="path128"
       d="m 72.886719,29.15236 c 0,-0.22265 -0.08594,-0.41015 -0.253906,-0.5664 -0.171875,-0.16797 -0.367188,-0.25391 -0.585938,-0.25391 -0.390625,0 -1.179687,0.39063 -2.363281,1.17188 -1.226562,0.79297 -1.972656,1.35937 -2.246094,1.69922 -0.144531,0.18359 -0.214844,0.37109 -0.214844,0.5664 0,0.22266 0.08203,0.41016 0.253907,0.56641 0.15625,0.16797 0.351562,0.2539 0.585937,0.2539 0.375,0 1.171875,-0.39062 2.382813,-1.17187 1.195312,-0.78125 1.9375,-1.34766 2.226562,-1.69922 0.140625,-0.16797 0.214844,-0.35937 0.214844,-0.56641 z m -1.035156,-1.44531 c 1.117187,0 1.679687,0.48047 1.679687,1.44531 0,0.46875 -0.136718,1.01563 -0.410156,1.64063 -0.273438,0.61328 -0.640625,1.08203 -1.09375,1.40625 -1.003906,0.67578 -2.261719,1.01562 -3.769531,1.01562 -1.121094,0 -1.683594,-0.48046 -1.683594,-1.44531 0,-0.42969 0.136719,-0.96875 0.414063,-1.62109 0.257812,-0.625 0.625,-1.10156 1.09375,-1.42578 1,-0.67578 2.257812,-1.01563 3.769531,-1.01563 z m 0,0"
       style="fill:#000000;fill-opacity:1;fill-rule:nonzero;stroke:none" />
    <path
       id="path130"
       d="m 60.265625,29.15236 c 0,-0.22265 -0.08203,-0.41015 -0.253906,-0.5664 -0.167969,-0.16797 -0.363281,-0.25391 -0.585937,-0.25391 -0.390626,0 -1.175782,0.39063 -2.363282,1.17188 -1.222656,0.79297 -1.972656,1.35937 -2.246094,1.69922 -0.144531,0.18359 -0.214843,0.37109 -0.214843,0.5664 0,0.22266 0.08594,0.41016 0.253906,0.56641 0.15625,0.16797 0.351563,0.2539 0.585937,0.2539 0.378907,0 1.171876,-0.39062 2.382813,-1.17187 1.199219,-0.78125 1.941406,-1.34766 2.226563,-1.69922 0.144531,-0.16797 0.214843,-0.35937 0.214843,-0.56641 z m -1.035156,-1.44531 c 1.121094,0 1.679687,0.48047 1.679687,1.44531 0,0.46875 -0.136718,1.01563 -0.410156,1.64063 -0.273437,0.61328 -0.636718,1.08203 -1.09375,1.40625 -1,0.67578 -2.257812,1.01562 -3.769531,1.01562 -1.121094,0 -1.679687,-0.48046 -1.679687,-1.44531 0,-0.42969 0.136718,-0.96875 0.410156,-1.62109 0.261718,-0.625 0.625,-1.10156 1.09375,-1.42578 1.003906,-0.67578 2.257812,-1.01563 3.769531,-1.01563 z m 0,0"
       style="fill:#000000;fill-opacity:1;fill-rule:nonzero;stroke:none" />
    <path
       id="path132"
       d="m 122.41406,27.70705 c 0.625,0 1.15235,0.16406 1.58203,0.48828 0.40235,0.35157 0.60547,0.79297 0.60547,1.32813 0,0.89844 -0.46484,1.73828 -1.38672,2.51953 -0.9375,0.78125 -1.9414,1.17187 -3.00781,1.17187 -0.625,0 -1.15234,-0.16406 -1.58203,-0.48828 -0.40625,-0.35156 -0.60547,-0.79297 -0.60547,-1.32812 0,-0.89844 0.46875,-1.73828 1.40625,-2.51953 0.91016,-0.78125 1.90625,-1.17188 2.98828,-1.17188 z m 0,0"
       style="fill:#000000;fill-opacity:1;fill-rule:nonzero;stroke:none" />
    <path
       id="path134"
       d="m 111.79688,27.70705 c 0.6289,0 1.15625,0.16406 1.58593,0.48828 0.40235,0.35157 0.60547,0.79297 0.60547,1.32813 0,0.89844 -0.46484,1.73828 -1.38672,2.51953 -0.9414,0.78125 -1.9414,1.17187 -3.01172,1.17187 -0.625,0 -1.15234,-0.16406 -1.58203,-0.48828 -0.40234,-0.35156 -0.60547,-0.79297 -0.60547,-1.32812 0,-0.89844 0.46875,-1.73828 1.40625,-2.51953 0.91407,-0.78125 1.91016,-1.17188 2.98829,-1.17188 z m 0,0"
       style="fill:#000000;fill-opacity:1;fill-rule:nonzero;stroke:none" />
    <path
       id="path136"
       d="m 101.18359,27.70705 c 0.625,0 1.15235,0.16406 1.58204,0.48828 0.40625,0.35157 0.60546,0.79297 0.60546,1.32813 0,0.89844 -0.46093,1.73828 -1.38671,2.51953 -0.9375,0.78125 -1.9375,1.17187 -3.007817,1.17187 -0.625,0 -1.152344,-0.16406 -1.582031,-0.48828 -0.402344,-0.35156 -0.605469,-0.79297 -0.605469,-1.32812 0,-0.89844 0.46875,-1.73828 1.40625,-2.51953 0.914062,-0.78125 1.910157,-1.17188 2.988277,-1.17188 z m 0,0"
       style="fill:#000000;fill-opacity:1;fill-rule:nonzero;stroke:none" />
    <path
       id="path156"
       d="m 162.02344,27.70705 c 0.625,0 1.15234,0.16406 1.58203,0.48828 0.40625,0.35157 0.60547,0.79297 0.60547,1.32813 0,0.89844 -0.46094,1.73828 -1.38672,2.51953 -0.9375,0.78125 -1.9375,1.17187 -3.00781,1.17187 -0.625,0 -1.15235,-0.16406 -1.58203,-0.48828 -0.40235,-0.35156 -0.60547,-0.79297 -0.60547,-1.32812 0,-0.89844 0.46875,-1.73828 1.40625,-2.51953 0.91406,-0.78125 1.91015,-1.17188 2.98828,-1.17188 z m 0,0"
       style="fill:#000000;fill-opacity:1;fill-rule:nonzero;stroke:none" />
    <path
       id="path158"
       d="m 143.64063,27.70705 c 0.625,0 1.15234,0.16406 1.58203,0.48828 0.40234,0.35157 0.60547,0.79297 0.60547,1.32813 0,0.89844 -0.46094,1.73828 -1.38672,2.51953 -0.9375,0.78125 -1.94141,1.17187 -3.00782,1.17187 -0.625,0 -1.15234,-0.16406 -1.58203,-0.48828 -0.40234,-0.35156 -0.60547,-0.79297 -0.60547,-1.32812 0,-0.89844 0.46875,-1.73828 1.40625,-2.51953 0.91016,-0.78125 1.90625,-1.17188 2.98829,-1.17188 z m 0,0"
       style="fill:#000000;fill-opacity:1;fill-rule:nonzero;stroke:none" />
    <path
       id="path160"
       d="m 133.02734,27.70705 c 0.625,0 1.15235,0.16406 1.58204,0.48828 0.40234,0.35157 0.60546,0.79297 0.60546,1.32813 0,0.89844 -0.46093,1.73828 -1.38671,2.51953 -0.9375,0.78125 -1.94141,1.17187 -3.00782,1.17187 -0.625,0 -1.15234,-0.16406 -1.58203,-0.48828 -0.40234,-0.35156 -0.60547,-0.79297 -0.60547,-1.32812 0,-0.89844 0.46875,-1.73828 1.40625,-2.51953 0.91016,-0.78125 1.90625,-1.17188 2.98828,-1.17188 z m 0,0"
       style="fill:#000000;fill-opacity:1;fill-rule:nonzero;stroke:none" />
    <path
       id="path162"
       d="m 202.62891,27.70705 c 0.625,0 1.15234,0.16406 1.58203,0.48828 0.40234,0.35157 0.60547,0.79297 0.60547,1.32813 0,0.89844 -0.46485,1.73828 -1.38672,2.51953 -0.9375,0.78125 -1.94141,1.17187 -3.00781,1.17187 -0.625,0 -1.15235,-0.16406 -1.58204,-0.48828 -0.40625,-0.35156 -0.60546,-0.79297 -0.60546,-1.32812 0,-0.89844 0.46875,-1.73828 1.40625,-2.51953 0.91015,-0.78125 1.90625,-1.17188 2.98828,-1.17188 z m 0,0"
       style="fill:#000000;fill-opacity:1;fill-rule:nonzero;stroke:none" />
    <path
       id="path164"
       d="m 182.32813,27.70705 c 0.625,0 1.15234,0.16406 1.58203,0.48828 0.40234,0.35157 0.60547,0.79297 0.60547,1.32813 0,0.89844 -0.46485,1.73828 -1.38672,2.51953 -0.9375,0.78125 -1.94141,1.17187 -3.00782,1.17187 -0.6289,0 -1.15625,-0.16406 -1.58593,-0.48828 -0.40235,-0.35156 -0.60547,-0.79297 -0.60547,-1.32812 0,-0.89844 0.46875,-1.73828 1.40625,-2.51953 0.91406,-0.78125 1.91015,-1.17188 2.99219,-1.17188 z m 0,0"
       style="fill:#000000;fill-opacity:1;fill-rule:nonzero;stroke:none" />
    <path
       id="path182"
       d="m 14.292969,27.84377 c 0,0 0.03906,0 0.117187,0 0.05078,-0.0117 0.09766,-0.0195 0.136719,-0.0195 1.457031,0 2.65625,0.51562 3.59375,1.54297 0.9375,1.01562 1.40625,2.19922 1.40625,3.55469 0,1.67968 -0.695312,3.04687 -2.089843,4.10156 -0.363282,0.28515 -0.839844,0.51953 -1.425782,0.70312 0.06641,0.84766 0.09766,1.53125 0.09766,2.05078 0,0.10547 -0.01172,0.48047 -0.03906,1.13282 -0.05078,1.21093 -0.46875,2.26172 -1.25,3.14453 -0.753906,0.875 -1.691406,1.30859 -2.8125,1.30859 -1.054688,0 -1.953125,-0.37109 -2.6953119,-1.11328 -0.742188,-0.75391 -1.113282,-1.66406 -1.113282,-2.73437 0,-0.5586 0.214844,-1.03516 0.644532,-1.42579 0.441406,-0.39062 0.957031,-0.58593 1.5429679,-0.58593 0.519532,0 0.957032,0.20312 1.308594,0.60547 0.363281,0.3789 0.546875,0.84765 0.546875,1.40625 0,0.50781 -0.183594,0.94531 -0.546875,1.30859 -0.363281,0.36719 -0.800781,0.54687 -1.308594,0.54687 -0.207031,0 -0.4101559,-0.0391 -0.6054679,-0.11718 0.5742179,0.84765 1.3359369,1.26953 2.2851559,1.26953 0.898437,0 1.632812,-0.36328 2.207031,-1.09375 0.597656,-0.75391 0.925781,-1.63281 0.976563,-2.63672 0.02734,-0.625 0.03906,-0.98438 0.03906,-1.07422 0,-0.73047 -0.02734,-1.32812 -0.07813,-1.79687 -0.652344,0.10546 -1.230469,0.15625 -1.738281,0.15625 -1.808594,0 -3.351563,-0.71485 -4.6289059,-2.14844 -1.25,-1.44531 -1.875,-3.16406 -1.875,-5.15625 0,-0.41797 0.039062,-0.83985 0.117187,-1.26953 0.078125,-0.35157 0.175781,-0.73438 0.292969,-1.15235 0.066406,-0.23437 0.242187,-0.61328 0.527344,-1.13281 0.105468,-0.15625 0.222656,-0.35156 0.351562,-0.58594 0.128906,-0.23437 0.222656,-0.39062 0.273438,-0.46875 0.128906,-0.26172 0.382812,-0.61328 0.761718,-1.05468 0.105469,-0.11719 0.210938,-0.2461 0.320313,-0.39063 0.113281,-0.14453 0.207031,-0.26172 0.285156,-0.35156 0.078125,-0.0898 0.1367189,-0.16406 0.1757809,-0.21485 0.03906,-0.0508 0.332032,-0.39843 0.878906,-1.03515 0.128907,-0.12891 0.257813,-0.26953 0.382813,-0.42188 0.121094,-0.14843 0.222656,-0.26562 0.300781,-0.35156 0.07813,-0.082 0.136719,-0.14453 0.175782,-0.18359 -0.46875,-1.55078 -0.761719,-2.78907 -0.878907,-3.71094 -0.08984,-0.74219 -0.136719,-1.75781 -0.136719,-3.04688 0,-1.13281 0.261719,-2.19531 0.78125,-3.18359 0.507813,-1.03125 1.21875,-1.87109 2.128907,-2.5195299 0.06641,-0.0391 0.128906,-0.0586 0.195312,-0.0586 0.08984,0 0.15625,0.0195 0.195313,0.0586 0.703125,0.8437499 1.308594,1.9453099 1.816406,3.3007799 0.519531,1.35156 0.78125,2.58203 0.78125,3.69141 0,1.25 -0.300781,2.42187 -0.898438,3.51562 -0.675781,1.16016 -1.550781,2.35547 -2.617187,3.59375 0.273437,0.85938 0.636719,2.20703 1.09375,4.04297 z m 1.660156,9.08203 c 0.675781,-0.24609 1.203125,-0.67187 1.582031,-1.26953 0.417969,-0.57422 0.625,-1.21875 0.625,-1.93359 0,-0.92578 -0.3125,-1.7461 -0.9375,-2.46094 -0.636718,-0.74219 -1.453124,-1.16016 -2.441406,-1.25 0.558594,2.74609 0.949219,5.05078 1.171875,6.91406 z M 8.3945321,32.41408 c 0,1.28907 0.519531,2.42188 1.5625,3.39844 1.0664059,0.94922 2.2656239,1.42578 3.5937499,1.42578 0.546874,0 1.082031,-0.0391 1.601562,-0.11719 -0.207031,-1.98046 -0.617188,-4.34765 -1.230469,-7.10937 -0.742187,0.0781 -1.335937,0.33984 -1.777343,0.78125 C 11.714844,31.25002 11.5,31.76174 11.5,32.33596 c 0,0.98828 0.527344,1.78906 1.582032,2.40234 0.08984,0.0898 0.136718,0.1875 0.136718,0.29297 0,0.10547 -0.04687,0.20313 -0.136718,0.29297 -0.07813,0.0898 -0.175782,0.13672 -0.292969,0.13672 -0.01172,0 -0.07031,-0.0117 -0.175781,-0.0391 -0.742188,-0.40235 -1.316407,-0.92579 -1.71875,-1.5625 -0.378907,-0.67579 -0.566407,-1.35938 -0.566407,-2.05079 0,-0.89843 0.28125,-1.71093 0.839844,-2.4414 0.585937,-0.73047 1.347656,-1.19922 2.285156,-1.40625 -0.363281,-1.45703 -0.664062,-2.59766 -0.898437,-3.41797 -0.207032,0.23437 -0.457032,0.51562 -0.75,0.84766 -0.292969,0.33203 -0.46875,0.53125 -0.519532,0.59765 -0.46875,0.61328 -0.828124,1.08594 -1.074218,1.42578 -0.4414059,0.61328 -0.7695319,1.14063 -0.9765629,1.58203 -0.222656,0.4961 -0.417969,1.03516 -0.585937,1.6211 -0.167969,0.55859 -0.253906,1.16015 -0.253906,1.79687 z M 14.917969,12.5508 c -0.976563,0.48047 -1.746094,1.17188 -2.304687,2.07031 -0.574219,0.92188 -0.859376,1.91797 -0.859376,2.98829 0,0.9375 0.234376,2.19921 0.703126,3.78906 0.9375,-1.13281 1.640624,-2.1836 2.109374,-3.14453 0.496094,-1.01563 0.742188,-2.07813 0.742188,-3.1836 0,-0.83593 -0.128906,-1.67578 -0.390625,-2.51953 z m 0,0"
       style="fill:#000000;fill-opacity:1;fill-rule:nonzero;stroke:none" />
    <path
       id="path188"
       d="m 29.082032,18.21486 c 0.390624,0 0.722656,-0.0469 0.996093,-0.13671 0.273438,-0.0937 0.449219,-0.13672 0.527344,-0.13672 0.08984,0 0.160156,0.0234 0.214844,0.0781 0.03906,0.0391 0.0625,0.082 0.07813,0.13672 0,0.0234 -0.01563,0.0625 -0.03906,0.11719 l -5.6875,6.60156 h 3.339844 v -2.61719 c 0,-0.16797 0.04687,-0.3125 0.136719,-0.42968 0.15625,-0.12891 0.289062,-0.20704 0.394531,-0.23438 0.167969,-0.0781 0.375,-0.26172 0.625,-0.54687 0.207031,-0.23438 0.453125,-0.64454 0.742187,-1.23047 0.03906,-0.0781 0.09766,-0.11719 0.175782,-0.11719 0.15625,0 0.246094,0.0898 0.273437,0.27344 V 24.875 h 1.425781 c 0.179688,0 0.285157,0.0977 0.3125,0.29297 0,0.19531 -0.105468,0.29297 -0.3125,0.29297 h -1.425781 v 0.15625 c 0,0.51953 0.128907,0.96484 0.390625,1.32812 0.296875,0.36328 0.648438,0.54688 1.054688,0.54688 0.15625,0 0.234375,0.0781 0.234375,0.23437 0,0.15625 -0.07813,0.23438 -0.234375,0.23438 -0.273438,0 -0.71875,-0.0391 -1.328125,-0.11719 -0.5625,-0.0898 -0.996094,-0.13672 -1.308594,-0.13672 -0.328125,0 -0.765625,0.0469 -1.3125,0.13672 -0.585937,0.0781 -1.019531,0.11719 -1.308594,0.11719 -0.15625,0 -0.234375,-0.0781 -0.234375,-0.23438 0,-0.15625 0.07813,-0.23437 0.234375,-0.23437 0.40625,0 0.757813,-0.1836 1.054688,-0.54688 0.273437,-0.36328 0.410156,-0.80859 0.410156,-1.32812 v -0.15625 h -3.339844 c -0.21875,0 -0.375,-0.0508 -0.46875,-0.15625 -0.101562,-0.0781 -0.15625,-0.1836 -0.15625,-0.3125 0,-0.0391 0.09766,-0.17578 0.292969,-0.41016 0.222656,-0.26172 0.457031,-0.57812 0.703125,-0.95703 0.289063,-0.44141 0.5625,-0.89844 0.820313,-1.36719 0.289062,-0.53515 0.515624,-1.14453 0.683593,-1.83593 0.195313,-0.70313 0.292969,-1.42188 0.292969,-2.14844 0,-0.21094 0.09375,-0.3125 0.273438,-0.3125 0.03906,0 0.125,0.0195 0.253906,0.0586 0.03906,0.0117 0.121094,0.0312 0.246094,0.0586 0.125,0.0234 0.222656,0.0508 0.300781,0.0781 0.234375,0.0391 0.457031,0.0586 0.667969,0.0586 z m 0,0"
       style="fill:#000000;fill-opacity:1;fill-rule:nonzero;stroke:none" />
    <path
       id="path190"
       d="m 29.082032,28.21486 c 0.390624,0 0.722656,-0.0469 0.996093,-0.13671 0.273438,-0.0898 0.449219,-0.13672 0.527344,-0.13672 0.08984,0 0.160156,0.0273 0.214844,0.0781 0.03906,0.0391 0.0625,0.0859 0.07813,0.13672 0,0.0273 -0.01563,0.0664 -0.03906,0.11719 l -5.6875,6.60156 h 3.339844 v -2.61719 c 0,-0.16797 0.04687,-0.3125 0.136719,-0.42968 0.15625,-0.12891 0.289062,-0.20704 0.394531,-0.23438 0.167969,-0.0781 0.375,-0.26172 0.625,-0.54687 0.207031,-0.23438 0.453125,-0.64454 0.742187,-1.23047 0.03906,-0.0781 0.09766,-0.11719 0.175782,-0.11719 0.15625,0 0.246094,0.0898 0.273437,0.27344 V 34.875 h 1.425781 c 0.179688,0 0.285157,0.0977 0.3125,0.29297 0,0.19531 -0.105468,0.29297 -0.3125,0.29297 h -1.425781 v 0.15625 c 0,0.51953 0.128907,0.96484 0.390625,1.32812 0.296875,0.36328 0.648438,0.54688 1.054688,0.54688 0.15625,0 0.234375,0.0781 0.234375,0.23437 0,0.15625 -0.07813,0.23438 -0.234375,0.23438 -0.273438,0 -0.71875,-0.0391 -1.328125,-0.11719 -0.5625,-0.0898 -0.996094,-0.13672 -1.308594,-0.13672 -0.328125,0 -0.765625,0.0469 -1.3125,0.13672 -0.585937,0.0781 -1.019531,0.11719 -1.308594,0.11719 -0.15625,0 -0.234375,-0.0781 -0.234375,-0.23438 0,-0.15625 0.07813,-0.23437 0.234375,-0.23437 0.40625,0 0.757813,-0.1836 1.054688,-0.54688 0.273437,-0.36328 0.410156,-0.80859 0.410156,-1.32812 v -0.15625 h -3.339844 c -0.21875,0 -0.375,-0.0508 -0.46875,-0.15625 -0.101562,-0.0781 -0.15625,-0.1836 -0.15625,-0.3125 0,-0.0391 0.09766,-0.17578 0.292969,-0.41016 0.222656,-0.26172 0.457031,-0.57812 0.703125,-0.95703 0.289063,-0.44141 0.5625,-0.89844 0.820313,-1.36719 0.289062,-0.53515 0.515624,-1.14453 0.683593,-1.83593 0.195313,-0.70313 0.292969,-1.41797 0.292969,-2.14844 0,-0.20703 0.09375,-0.3125 0.273438,-0.3125 0.03906,0 0.125,0.0195 0.253906,0.0586 0.03906,0.0117 0.121094,0.0312 0.246094,0.0586 0.125,0.0273 0.222656,0.0508 0.300781,0.0781 0.234375,0.0391 0.457031,0.0586 0.667969,0.0586 z m 0,0"
       style="fill:#000000;fill-opacity:1;fill-rule:nonzero;stroke:none" />
    <path
       id="path192"
       d="m 187.96484,26.39846 c 0,-0.23438 0.12891,-0.4961 0.39063,-0.78125 0.19531,-0.20703 0.48047,-0.45703 0.85937,-0.74219 0.28516,-0.19531 0.56641,-0.48828 0.83985,-0.87891 0.26172,-0.3789 0.39062,-0.78906 0.39062,-1.23046 0,-0.51954 -0.16797,-0.98438 -0.50781,-1.38672 l -0.70312,-0.83985 c -0.0508,-0.0547 -0.0781,-0.11718 -0.0781,-0.19531 0,-0.0781 0.0391,-0.15234 0.11719,-0.21484 0.0898,-0.0664 0.16797,-0.0977 0.23437,-0.0977 0.0898,0 0.16407,0.0391 0.21485,0.11719 l 3.02734,3.59375 c 0.12891,0.16797 0.19531,0.33984 0.19531,0.50781 0,0.23438 -0.1289,0.49609 -0.39062,0.78125 -0.16797,0.18359 -0.44922,0.42969 -0.83985,0.74219 -0.30078,0.18359 -0.58593,0.47656 -0.85937,0.8789 -0.26172,0.37891 -0.39063,0.78907 -0.39063,1.23047 0,0.54688 0.15625,1.00782 0.46875,1.38672 l 1.67969,1.97266 c 0.0391,0.0391 0.0703,0.10547 0.0977,0.19531 0,0.0898 -0.0312,0.16797 -0.0977,0.23438 -0.0898,0.0664 -0.16797,0.0977 -0.23437,0.0977 -0.0273,0 -0.12891,-0.0703 -0.3125,-0.21484 -0.19532,-0.15625 -0.45703,-0.30469 -0.78125,-0.44922 -0.36328,-0.14453 -0.72266,-0.21484 -1.07422,-0.21484 -0.32422,0 -0.59375,0.0898 -0.80078,0.27343 -0.1836,0.1836 -0.27344,0.53516 -0.27344,1.05469 0,0.79297 0.1875,1.41797 0.56641,1.875 0.0391,0.0508 0.0469,0.11719 0.0195,0.19531 -0.0273,0.0508 -0.0703,0.0781 -0.13672,0.0781 -0.0898,0 -0.29297,-0.23438 -0.60547,-0.70313 -0.32422,-0.49609 -0.63281,-1.0625 -0.91797,-1.69922 -0.30078,-0.67578 -0.44922,-1.23828 -0.44922,-1.67968 0,-0.5586 0.26563,-0.83985 0.80078,-0.83985 0.61328,0 1.40625,0.20703 2.38282,0.625 l -2.63672,-3.16406 c -0.12891,-0.16797 -0.19532,-0.33984 -0.19532,-0.50781 z m 0,0"
       style="fill:#000000;fill-opacity:1;fill-rule:nonzero;stroke:none" />
    <path
       id="path194"
       d="m 167.66406,26.39846 c 0,-0.23438 0.12891,-0.4961 0.39063,-0.78125 0.19531,-0.20703 0.48047,-0.45703 0.85937,-0.74219 0.28516,-0.19531 0.56641,-0.48828 0.83985,-0.87891 0.26172,-0.3789 0.39062,-0.78906 0.39062,-1.23046 0,-0.51954 -0.16797,-0.98438 -0.50781,-1.38672 l -0.70313,-0.83985 c -0.0508,-0.0547 -0.0781,-0.11718 -0.0781,-0.19531 0,-0.0781 0.0391,-0.15234 0.11719,-0.21484 0.0898,-0.0664 0.16797,-0.0977 0.23437,-0.0977 0.0898,0 0.16406,0.0391 0.21485,0.11719 l 3.02734,3.59375 c 0.12891,0.16797 0.19531,0.33984 0.19531,0.50781 0,0.23438 -0.1289,0.49609 -0.39062,0.78125 -0.16797,0.18359 -0.44922,0.42969 -0.83985,0.74219 -0.30078,0.18359 -0.58593,0.47656 -0.85937,0.8789 -0.26172,0.37891 -0.39063,0.78907 -0.39063,1.23047 0,0.54688 0.15625,1.00782 0.46875,1.38672 l 1.67969,1.97266 c 0.0391,0.0391 0.0703,0.10547 0.0977,0.19531 0,0.0898 -0.0312,0.16797 -0.0977,0.23438 -0.0898,0.0664 -0.16797,0.0977 -0.23437,0.0977 -0.0273,0 -0.12891,-0.0703 -0.3125,-0.21484 -0.19532,-0.15625 -0.45704,-0.30469 -0.78125,-0.44922 -0.36329,-0.14453 -0.72266,-0.21484 -1.07422,-0.21484 -0.32422,0 -0.59375,0.0898 -0.80078,0.27343 -0.1836,0.1836 -0.27344,0.53516 -0.27344,1.05469 0,0.79297 0.1875,1.41797 0.5664,1.875 0.0391,0.0508 0.0469,0.11719 0.0195,0.19531 -0.0273,0.0508 -0.0703,0.0781 -0.13672,0.0781 -0.0898,0 -0.29297,-0.23438 -0.60547,-0.70313 -0.32422,-0.49609 -0.63281,-1.0625 -0.91797,-1.69922 -0.30078,-0.67578 -0.44922,-1.23828 -0.44922,-1.67968 0,-0.5586 0.26563,-0.83985 0.80078,-0.83985 0.61328,0 1.40625,0.20703 2.38281,0.625 l -2.63671,-3.16406 c -0.12891,-0.16797 -0.19532,-0.33984 -0.19532,-0.50781 z m 0,0"
       style="fill:#000000;fill-opacity:1;fill-rule:nonzero;stroke:none" />
    <path
       id="path196"
       d="m 208.26563,26.39846 c 0,-0.23438 0.1289,-0.4961 0.39062,-0.78125 0.19531,-0.20703 0.48047,-0.45703 0.85938,-0.74219 0.28906,-0.19531 0.5664,-0.48828 0.83984,-0.87891 0.26172,-0.3789 0.39062,-0.78906 0.39062,-1.23046 0,-0.51954 -0.16796,-0.98438 -0.50781,-1.38672 l -0.70312,-0.83985 c -0.0508,-0.0547 -0.0781,-0.11718 -0.0781,-0.19531 0,-0.0781 0.0391,-0.15234 0.11719,-0.21484 0.0937,-0.0664 0.17187,-0.0977 0.23437,-0.0977 0.0937,0 0.16407,0.0391 0.21485,0.11719 l 3.02734,3.59375 c 0.13281,0.16797 0.19531,0.33984 0.19531,0.50781 0,0.23438 -0.1289,0.49609 -0.39062,0.78125 -0.16797,0.18359 -0.44922,0.42969 -0.83984,0.74219 -0.29688,0.18359 -0.58594,0.47656 -0.85938,0.8789 -0.25781,0.37891 -0.39062,0.78907 -0.39062,1.23047 0,0.54688 0.15625,1.00782 0.46875,1.38672 l 1.67968,1.97266 c 0.0391,0.0391 0.0742,0.10547 0.0977,0.19531 0,0.0898 -0.0312,0.16797 -0.0977,0.23438 -0.0898,0.0664 -0.16797,0.0977 -0.23437,0.0977 -0.0234,0 -0.12891,-0.0703 -0.3125,-0.21484 -0.19531,-0.15625 -0.45313,-0.30469 -0.78125,-0.44922 -0.36328,-0.14453 -0.72266,-0.21484 -1.07422,-0.21484 -0.32422,0 -0.58984,0.0898 -0.80078,0.27343 -0.17969,0.1836 -0.27344,0.53516 -0.27344,1.05469 0,0.79297 0.19141,1.41797 0.56641,1.875 0.0391,0.0508 0.0469,0.11719 0.0195,0.19531 -0.0234,0.0508 -0.0703,0.0781 -0.13672,0.0781 -0.0898,0 -0.29297,-0.23438 -0.60547,-0.70313 -0.32422,-0.49609 -0.63281,-1.0625 -0.91797,-1.69922 -0.30078,-0.67578 -0.44922,-1.23828 -0.44922,-1.67968 0,-0.5586 0.26563,-0.83985 0.80078,-0.83985 0.61329,0 1.40625,0.20703 2.38282,0.625 l -2.63672,-3.16406 c -0.12891,-0.16797 -0.19531,-0.33984 -0.19531,-0.50781 z m 0,0"
       style="fill:#000000;fill-opacity:1;fill-rule:nonzero;stroke:none" />
    <path
       id="path198"
       d="m 57.941406,7.3633001 c 1.59375,-0.25781 2.390626,-0.8125 2.390626,-1.66015 0,-0.27344 -0.08203,-0.49219 -0.246094,-0.66016 -0.164063,-0.16406 -0.378906,-0.25 -0.644532,-0.25 -0.40625,0 -0.78125,0.22656 -1.121093,0.67187 l -0.160157,-0.0508 c 0.167969,-0.32031 0.394532,-0.57422 0.683594,-0.75781 0.292969,-0.1875 0.609375,-0.28125 0.957032,-0.28125 0.398437,0 0.734374,0.12109 1,0.35938 0.265624,0.23828 0.398437,0.54296 0.398437,0.91015 0,0.33985 -0.105469,0.61328 -0.324219,0.82031 -0.214844,0.20704 -0.628906,0.42579 -1.234375,0.66016 v 0.0312 c 0.640625,0.29297 0.960938,0.78906 0.960938,1.48828 0,0.69141 -0.257813,1.29297 -0.769531,1.8007799 -0.515626,0.50391 -1.1875,0.75782 -2.023438,0.75782 -0.746094,0 -1.117188,-0.19532 -1.117188,-0.58985 0,-0.25781 0.144532,-0.39062 0.4375,-0.39062 0.167969,0 0.390626,0.10156 0.671876,0.30078 0.28125,0.19922 0.507812,0.30078 0.691406,0.30078 0.359375,0 0.667968,-0.15234 0.921875,-0.45313 0.257812,-0.30468 0.386719,-0.6992099 0.386719,-1.1874999 0,-0.625 -0.15625,-1.05859 -0.46875,-1.30078 -0.316407,-0.23828 -0.777344,-0.35937 -1.390626,-0.35937 z m 0,0"
       style="fill:#000000;fill-opacity:1;fill-rule:nonzero;stroke:none" />
    <path
       id="path200"
       d="M 41.699219,12.63674 V 7.6328301 h 12.339844"
       style="fill:none;stroke:#000000;stroke-width:0.500031;stroke-linecap:square;stroke-linejoin:bevel;stroke-miterlimit:10;stroke-opacity:1" />
    <path
       id="path202"
       d="m 64.039063,7.6328301 h 12.34375 V 12.63674"
       style="fill:none;stroke:#000000;stroke-width:0.500031;stroke-linecap:square;stroke-linejoin:bevel;stroke-miterlimit:10;stroke-opacity:1" />
    <path
       id="path204"
       d="m 116.15234,7.3633001 c 1.59375,-0.25781 2.39063,-0.8125 2.39063,-1.66015 0,-0.27344 -0.082,-0.49219 -0.24609,-0.66016 -0.16407,-0.16406 -0.37891,-0.25 -0.64454,-0.25 -0.40625,0 -0.78125,0.22656 -1.12109,0.67187 l -0.16016,-0.0508 c 0.16797,-0.32031 0.39844,-0.57422 0.6875,-0.75781 0.28907,-0.1875 0.60938,-0.28125 0.95313,-0.28125 0.40234,0 0.73437,0.12109 1,0.35938 0.26953,0.23828 0.40234,0.54296 0.40234,0.91015 0,0.33985 -0.10937,0.61328 -0.32812,0.82031 -0.21485,0.20704 -0.625,0.42579 -1.23438,0.66016 v 0.0312 c 0.64063,0.29297 0.96094,0.78906 0.96094,1.48828 0,0.69141 -0.25781,1.29297 -0.76953,1.8007799 -0.51172,0.50391 -1.1875,0.75782 -2.01953,0.75782 -0.7461,0 -1.1211,-0.19532 -1.1211,-0.58985 0,-0.25781 0.14844,-0.39062 0.44141,-0.39062 0.16406,0 0.39063,0.10156 0.66797,0.30078 0.28125,0.19922 0.51172,0.30078 0.69141,0.30078 0.35937,0 0.66796,-0.15234 0.92578,-0.45313 0.2539,-0.30468 0.38281,-0.6992099 0.38281,-1.1874999 0,-0.625 -0.15625,-1.05859 -0.46875,-1.30078 -0.3125,-0.23828 -0.77734,-0.35937 -1.39063,-0.35937 z m 0,0"
       style="fill:#000000;fill-opacity:1;fill-rule:nonzero;stroke:none" />
    <path
       id="path206"
       d="M 86.175782,12.63674 V 7.6328301 h 26.078128"
       style="fill:none;stroke:#000000;stroke-width:0.500031;stroke-linecap:square;stroke-linejoin:bevel;stroke-miterlimit:10;stroke-opacity:1" />
    <path
       id="path208"
       d="m 122.25391,7.6328301 h 26.07422 V 12.63674"
       style="fill:none;stroke:#000000;stroke-width:0.500031;stroke-linecap:square;stroke-linejoin:bevel;stroke-miterlimit:10;stroke-opacity:1" />
    <path
       id="path210"
       d="m 185.19922,6.7383001 c 1.59375,-0.25781 2.39062,-0.8125 2.39062,-1.66015 0,-0.27344 -0.082,-0.49219 -0.24609,-0.66016 -0.16406,-0.16406 -0.37891,-0.25 -0.64453,-0.25 -0.40625,0 -0.78125,0.22656 -1.12109,0.67187 l -0.16016,-0.0508 c 0.16797,-0.32031 0.39453,-0.57422 0.68359,-0.75781 0.29297,-0.1875 0.60938,-0.28125 0.95703,-0.28125 0.39844,0 0.73438,0.12109 1,0.35938 0.26563,0.23828 0.39844,0.54296 0.39844,0.91015 0,0.33985 -0.10547,0.61328 -0.32422,0.82031 -0.21484,0.20704 -0.6289,0.42579 -1.23437,0.66016 v 0.0312 c 0.64062,0.29297 0.96094,0.78906 0.96094,1.48828 0,0.69141 -0.25782,1.29297 -0.76954,1.80078 -0.51562,0.5039099 -1.1875,0.7578199 -2.01953,0.7578199 -0.75,0 -1.12109,-0.19532 -1.12109,-0.5898499 0,-0.25781 0.14453,-0.39062 0.4375,-0.39062 0.16797,0 0.39062,0.10156 0.67187,0.30078 0.28125,0.1992199 0.51172,0.3007799 0.69141,0.3007799 0.35938,0 0.66797,-0.15234 0.92188,-0.4531299 0.25781,-0.30468 0.38671,-0.69921 0.38671,-1.1875 0,-0.625 -0.15625,-1.05859 -0.46875,-1.30078 -0.3164,-0.23828 -0.77734,-0.35937 -1.39062,-0.35937 z m 0,0"
       style="fill:#000000;fill-opacity:1;fill-rule:nonzero;stroke:none" />
    <path
       id="path212"
       d="M 157.62891,12.63674 V 7.6328301 l 23.66797,-0.51562"
       style="fill:none;stroke:#000000;stroke-width:0.500031;stroke-linecap:square;stroke-linejoin:bevel;stroke-miterlimit:10;stroke-opacity:1" />
    <path
       id="path214"
       d="m 191.29688,6.9023601 23.66796,-0.51953 V 11.38283"
       style="fill:none;stroke:#000000;stroke-width:0.500031;stroke-linecap:square;stroke-linejoin:bevel;stroke-miterlimit:10;stroke-opacity:1" />
  </g>
</svg>
