<?xml version="1.0" encoding="UTF-8" standalone="no"?>
<svg
   xmlns:dc="http://purl.org/dc/elements/1.1/"
   xmlns:cc="http://creativecommons.org/ns#"
   xmlns:rdf="http://www.w3.org/1999/02/22-rdf-syntax-ns#"
   xmlns:svg="http://www.w3.org/2000/svg"
   xmlns="http://www.w3.org/2000/svg"
   xmlns:sodipodi="http://sodipodi.sourceforge.net/DTD/sodipodi-0.dtd"
   xmlns:inkscape="http://www.inkscape.org/namespaces/inkscape"
   inkscape:version="1.0 (4035a4f, 2020-05-01)"
   sodipodi:docname="rhythms_ternary_3.svg"
   id="svg143"
   version="1.2"
   viewBox="0 0 390 50"
   height="50pt"
   width="390pt">
  <metadata
     id="metadata149">
    <rdf:RDF>
      <cc:Work
         rdf:about="">
        <dc:format>image/svg+xml</dc:format>
        <dc:type
           rdf:resource="http://purl.org/dc/dcmitype/StillImage" />
        <dc:title></dc:title>
      </cc:Work>
    </rdf:RDF>
  </metadata>
  <defs
     id="defs147" />
  <sodipodi:namedview
     inkscape:current-layer="surface4022"
     inkscape:window-maximized="0"
     inkscape:window-y="23"
     inkscape:window-x="0"
     inkscape:cy="35.366171"
     inkscape:cx="37.200938"
     inkscape:zoom="2.4596154"
     showgrid="false"
     id="namedview145"
     inkscape:window-height="480"
     inkscape:window-width="741"
     inkscape:pageshadow="2"
     inkscape:pageopacity="0"
     guidetolerance="10"
     gridtolerance="10"
     objecttolerance="10"
     borderopacity="1"
     bordercolor="#666666"
     pagecolor="#ffffff" />
  <g
     id="surface4022">
    <path
       id="path10"
       d="M 3.75 12.070312 L 79.335938 12.070312 M 3.75 17.070312 L 79.335938 17.070312 M 3.75 22.070312 L 79.335938 22.070312 M 3.75 27.070312 L 79.335938 27.070312 M 3.75 32.070312 L 79.335938 32.070312 "
       style="fill:none;stroke-width:0.4;stroke-linecap:butt;stroke-linejoin:bevel;stroke:rgb(0%,0%,0%);stroke-opacity:1;stroke-miterlimit:10;" />
    <path
       id="path12"
       d="M 79.335938 12.070312 L 145.164062 12.070312 M 79.335938 17.070312 L 145.164062 17.070312 M 79.335938 22.070312 L 145.164062 22.070312 M 79.335938 27.070312 L 145.164062 27.070312 M 79.335938 32.070312 L 145.164062 32.070312 "
       style="fill:none;stroke-width:0.4;stroke-linecap:butt;stroke-linejoin:bevel;stroke:rgb(0%,0%,0%);stroke-opacity:1;stroke-miterlimit:10;" />
    <path
       id="path14"
       d="M 145.164062 12.070312 L 202.375 12.070312 M 145.164062 17.070312 L 202.375 17.070312 M 145.164062 22.070312 L 202.375 22.070312 M 145.164062 27.070312 L 202.375 27.070312 M 145.164062 32.070312 L 202.375 32.070312 "
       style="fill:none;stroke-width:0.4;stroke-linecap:butt;stroke-linejoin:bevel;stroke:rgb(0%,0%,0%);stroke-opacity:1;stroke-miterlimit:10;" />
    <path
       id="path16"
       d="M 202.375 12.070312 L 262.609375 12.070312 M 202.375 17.070312 L 262.609375 17.070312 M 202.375 22.070312 L 262.609375 22.070312 M 202.375 27.070312 L 262.609375 27.070312 M 202.375 32.070312 L 262.609375 32.070312 "
       style="fill:none;stroke-width:0.4;stroke-linecap:butt;stroke-linejoin:bevel;stroke:rgb(0%,0%,0%);stroke-opacity:1;stroke-miterlimit:10;" />
    <path
       id="path18"
       d="M 262.609375 12.070312 L 319.820312 12.070312 M 262.609375 17.070312 L 319.820312 17.070312 M 262.609375 22.070312 L 319.820312 22.070312 M 262.609375 27.070312 L 319.820312 27.070312 M 262.609375 32.070312 L 319.820312 32.070312 "
       style="fill:none;stroke-width:0.4;stroke-linecap:butt;stroke-linejoin:bevel;stroke:rgb(0%,0%,0%);stroke-opacity:1;stroke-miterlimit:10;" />
    <path
       id="path20"
       d="M 319.820312 12.070312 L 377.027344 12.070312 M 319.820312 17.070312 L 377.027344 17.070312 M 319.820312 22.070312 L 377.027344 22.070312 M 319.820312 27.070312 L 377.027344 27.070312 M 319.820312 32.070312 L 377.027344 32.070312 "
       style="fill:none;stroke-width:0.4;stroke-linecap:butt;stroke-linejoin:bevel;stroke:rgb(0%,0%,0%);stroke-opacity:1;stroke-miterlimit:10;" />
    <path
       id="path22"
       d="M 78.933594 12.070312 L 78.933594 32.070312 "
       style="fill:none;stroke-width:0.800001;stroke-linecap:butt;stroke-linejoin:bevel;stroke:rgb(0%,0%,0%);stroke-opacity:1;stroke-miterlimit:10;" />
    <path
       id="path24"
       d="M 144.765625 12.070312 L 144.765625 32.070312 "
       style="fill:none;stroke-width:0.800001;stroke-linecap:butt;stroke-linejoin:bevel;stroke:rgb(0%,0%,0%);stroke-opacity:1;stroke-miterlimit:10;" />
    <path
       id="path26"
       d="M 201.972656 12.070312 L 201.972656 32.070312 "
       style="fill:none;stroke-width:0.800001;stroke-linecap:butt;stroke-linejoin:bevel;stroke:rgb(0%,0%,0%);stroke-opacity:1;stroke-miterlimit:10;" />
    <path
       id="path28"
       d="M 262.210938 12.070312 L 262.210938 32.070312 "
       style="fill:none;stroke-width:0.800001;stroke-linecap:butt;stroke-linejoin:bevel;stroke:rgb(0%,0%,0%);stroke-opacity:1;stroke-miterlimit:10;" />
    <path
       id="path30"
       d="M 319.417969 12.070312 L 319.417969 32.070312 "
       style="fill:none;stroke-width:0.800001;stroke-linecap:butt;stroke-linejoin:bevel;stroke:rgb(0%,0%,0%);stroke-opacity:1;stroke-miterlimit:10;" />
    <path
       id="path32"
       d="M 376.625 12.070312 L 376.625 32.070312 "
       style="fill:none;stroke-width:0.800001;stroke-linecap:butt;stroke-linejoin:bevel;stroke:rgb(0%,0%,0%);stroke-opacity:1;stroke-miterlimit:10;" />
    <path
       id="path34"
       d="M 47.042969 23.628906 L 47.042969 10.820312 "
       style="fill:none;stroke-width:0.65;stroke-linecap:round;stroke-linejoin:bevel;stroke:rgb(0%,0%,0%);stroke-opacity:1;stroke-miterlimit:10;" />
    <path
       id="path36"
       d="M 65.199219 23.800781 L 65.199219 8.320312 "
       style="fill:none;stroke-width:0.65;stroke-linecap:round;stroke-linejoin:bevel;stroke:rgb(0%,0%,0%);stroke-opacity:1;stroke-miterlimit:10;" />
    <path
       id="path38"
       d="M 56.03125 23.628906 L 56.03125 10.820312 "
       style="fill:none;stroke-width:0.65;stroke-linecap:round;stroke-linejoin:bevel;stroke:rgb(0%,0%,0%);stroke-opacity:1;stroke-miterlimit:10;" />
    <path
       id="path40"
       d="M 104.230469 23.628906 L 104.230469 8.320312 "
       style="fill:none;stroke-width:0.65;stroke-linecap:round;stroke-linejoin:bevel;stroke:rgb(0%,0%,0%);stroke-opacity:1;stroke-miterlimit:10;" />
    <path
       id="path42"
       d="M 91.59375 23.628906 L 91.59375 8.320312 "
       style="fill:none;stroke-width:0.65;stroke-linecap:round;stroke-linejoin:bevel;stroke:rgb(0%,0%,0%);stroke-opacity:1;stroke-miterlimit:10;" />
    <path
       id="path44"
       d="M 119.234375 23.628906 L 119.234375 8.320312 "
       style="fill:none;stroke-width:0.65;stroke-linecap:round;stroke-linejoin:bevel;stroke:rgb(0%,0%,0%);stroke-opacity:1;stroke-miterlimit:10;" />
    <path
       id="path46"
       d="M 134.234375 23.628906 L 134.234375 8.320312 "
       style="fill:none;stroke-width:0.65;stroke-linecap:round;stroke-linejoin:bevel;stroke:rgb(0%,0%,0%);stroke-opacity:1;stroke-miterlimit:10;" />
    <path
       id="path48"
       d="M 157.421875 23.628906 L 157.421875 8.320312 "
       style="fill:none;stroke-width:0.65;stroke-linecap:round;stroke-linejoin:bevel;stroke:rgb(0%,0%,0%);stroke-opacity:1;stroke-miterlimit:10;" />
    <path
       id="path50"
       d="M 178.175781 23.628906 L 178.175781 8.320312 "
       style="fill:none;stroke-width:0.65;stroke-linecap:round;stroke-linejoin:bevel;stroke:rgb(0%,0%,0%);stroke-opacity:1;stroke-miterlimit:10;" />
    <path
       id="path52"
       d="M 190.8125 23.628906 L 190.8125 8.320312 "
       style="fill:none;stroke-width:0.65;stroke-linecap:round;stroke-linejoin:bevel;stroke:rgb(0%,0%,0%);stroke-opacity:1;stroke-miterlimit:10;" />
    <path
       id="path54"
       d="M 214.632812 23.628906 L 214.632812 8.320312 "
       style="fill:none;stroke-width:0.65;stroke-linecap:round;stroke-linejoin:bevel;stroke:rgb(0%,0%,0%);stroke-opacity:1;stroke-miterlimit:10;" />
    <path
       id="path56"
       d="M 235.296875 23.628906 L 235.296875 10.820312 "
       style="fill:none;stroke-width:0.65;stroke-linecap:round;stroke-linejoin:bevel;stroke:rgb(0%,0%,0%);stroke-opacity:1;stroke-miterlimit:10;" />
    <path
       id="path58"
       d="M 245.890625 23.628906 L 245.890625 10.820312 "
       style="fill:none;stroke-width:0.65;stroke-linecap:round;stroke-linejoin:bevel;stroke:rgb(0%,0%,0%);stroke-opacity:1;stroke-miterlimit:10;" />
    <path
       id="path60"
       d="M 256.484375 23.628906 L 256.484375 10.820312 "
       style="fill:none;stroke-width:0.65;stroke-linecap:round;stroke-linejoin:bevel;stroke:rgb(0%,0%,0%);stroke-opacity:1;stroke-miterlimit:10;" />
    <path
       id="path62"
       d="M 274.867188 23.628906 L 274.867188 8.320312 "
       style="fill:none;stroke-width:0.65;stroke-linecap:round;stroke-linejoin:bevel;stroke:rgb(0%,0%,0%);stroke-opacity:1;stroke-miterlimit:10;" />
    <path
       id="path64"
       d="M 308.890625 23.628906 L 308.890625 8.320312 "
       style="fill:none;stroke-width:0.65;stroke-linecap:round;stroke-linejoin:bevel;stroke:rgb(0%,0%,0%);stroke-opacity:1;stroke-miterlimit:10;" />
    <path
       id="path66"
       d="M 293.558594 23.628906 L 293.558594 8.320312 "
       style="fill:none;stroke-width:0.65;stroke-linecap:round;stroke-linejoin:bevel;stroke:rgb(0%,0%,0%);stroke-opacity:1;stroke-miterlimit:10;" />
    <path
       id="path68"
       d="M 347.40625 23.628906 L 347.40625 8.320312 "
       style="fill:none;stroke-width:0.65;stroke-linecap:round;stroke-linejoin:bevel;stroke:rgb(0%,0%,0%);stroke-opacity:1;stroke-miterlimit:10;" />
    <path
       id="path70"
       d="M 332.078125 23.628906 L 332.078125 8.320312 "
       style="fill:none;stroke-width:0.65;stroke-linecap:round;stroke-linejoin:bevel;stroke:rgb(0%,0%,0%);stroke-opacity:1;stroke-miterlimit:10;" />
    <path
       id="path72"
       d="M 366.097656 23.628906 L 366.097656 8.320312 "
       style="fill:none;stroke-width:0.65;stroke-linecap:round;stroke-linejoin:bevel;stroke:rgb(0%,0%,0%);stroke-opacity:1;stroke-miterlimit:10;" />
    <path
       id="path74"
       d="M 54.167969 21.816406 C 54.792969 21.816406 55.320312 21.976562 55.75 22.304688 C 56.15625 22.65625 56.355469 23.097656 56.355469 23.632812 C 56.355469 24.53125 55.894531 25.371094 54.96875 26.152344 C 54.03125 26.933594 53.03125 27.324219 51.960938 27.324219 C 51.335938 27.324219 50.808594 27.160156 50.378906 26.835938 C 49.976562 26.484375 49.773438 26.039062 49.773438 25.507812 C 49.773438 24.609375 50.242188 23.769531 51.179688 22.988281 C 52.09375 22.207031 53.089844 21.816406 54.167969 21.816406 Z M 54.167969 21.816406 "
       style=" stroke:none;fill-rule:nonzero;fill:rgb(0%,0%,0%);fill-opacity:1;" />
    <path
       id="path76"
       d="M 45.179688 21.816406 C 45.804688 21.816406 46.332031 21.976562 46.761719 22.304688 C 47.167969 22.65625 47.367188 23.097656 47.367188 23.632812 C 47.367188 24.53125 46.90625 25.371094 45.980469 26.152344 C 45.042969 26.933594 44.042969 27.324219 42.972656 27.324219 C 42.347656 27.324219 41.820312 27.160156 41.390625 26.835938 C 40.988281 26.484375 40.785156 26.039062 40.785156 25.507812 C 40.785156 24.609375 41.253906 23.769531 42.191406 22.988281 C 43.105469 22.207031 44.101562 21.816406 45.179688 21.816406 Z M 45.179688 21.816406 "
       style=" stroke:none;fill-rule:nonzero;fill:rgb(0%,0%,0%);fill-opacity:1;" />
    <path
       id="path78"
       d="M 64.890625 23.261719 C 64.890625 23.039062 64.804688 22.851562 64.636719 22.695312 C 64.46875 22.523438 64.273438 22.441406 64.050781 22.441406 C 63.660156 22.441406 62.871094 22.832031 61.6875 23.613281 C 60.464844 24.40625 59.714844 24.972656 59.441406 25.3125 C 59.296875 25.492188 59.226562 25.683594 59.226562 25.878906 C 59.226562 26.097656 59.3125 26.289062 59.480469 26.445312 C 59.636719 26.613281 59.832031 26.699219 60.066406 26.699219 C 60.445312 26.699219 61.238281 26.308594 62.449219 25.527344 C 63.648438 24.746094 64.390625 24.179688 64.675781 23.828125 C 64.820312 23.65625 64.890625 23.46875 64.890625 23.261719 Z M 63.855469 21.816406 C 64.976562 21.816406 65.535156 22.296875 65.535156 23.261719 C 65.535156 23.730469 65.398438 24.277344 65.125 24.902344 C 64.851562 25.511719 64.488281 25.980469 64.03125 26.308594 C 63.027344 26.984375 61.773438 27.324219 60.261719 27.324219 C 59.140625 27.324219 58.582031 26.839844 58.582031 25.878906 C 58.582031 25.449219 58.71875 24.90625 58.992188 24.257812 C 59.253906 23.632812 59.617188 23.15625 60.085938 22.832031 C 61.089844 22.152344 62.34375 21.816406 63.855469 21.816406 Z M 63.855469 21.816406 "
       style=" stroke:none;fill-rule:nonzero;fill:rgb(0%,0%,0%);fill-opacity:1;" />
    <path
       id="path80"
       d="M 89.730469 21.816406 C 90.355469 21.816406 90.882812 21.976562 91.3125 22.304688 C 91.714844 22.65625 91.917969 23.097656 91.917969 23.632812 C 91.917969 24.53125 91.453125 25.371094 90.53125 26.152344 C 89.59375 26.933594 88.589844 27.324219 87.523438 27.324219 C 86.898438 27.324219 86.371094 27.160156 85.941406 26.835938 C 85.535156 26.484375 85.335938 26.039062 85.335938 25.507812 C 85.335938 24.609375 85.804688 23.769531 86.742188 22.988281 C 87.652344 22.207031 88.648438 21.816406 89.730469 21.816406 Z M 89.730469 21.816406 "
       style=" stroke:none;fill-rule:nonzero;fill:rgb(0%,0%,0%);fill-opacity:1;" />
    <path
       id="path82"
       d="M 102.367188 21.816406 C 102.992188 21.816406 103.519531 21.976562 103.949219 22.304688 C 104.351562 22.65625 104.554688 23.097656 104.554688 23.632812 C 104.554688 24.53125 104.09375 25.371094 103.167969 26.152344 C 102.230469 26.933594 101.226562 27.324219 100.160156 27.324219 C 99.535156 27.324219 99.007812 27.160156 98.578125 26.835938 C 98.175781 26.484375 97.972656 26.039062 97.972656 25.507812 C 97.972656 24.609375 98.441406 23.769531 99.378906 22.988281 C 100.289062 22.207031 101.285156 21.816406 102.367188 21.816406 Z M 102.367188 21.816406 "
       style=" stroke:none;fill-rule:nonzero;fill:rgb(0%,0%,0%);fill-opacity:1;" />
    <path
       id="path84"
       d="M 117.371094 21.816406 C 117.996094 21.816406 118.523438 21.976562 118.953125 22.304688 C 119.355469 22.65625 119.558594 23.097656 119.558594 23.632812 C 119.558594 24.53125 119.09375 25.371094 118.171875 26.152344 C 117.234375 26.933594 116.230469 27.324219 115.164062 27.324219 C 114.539062 27.324219 114.011719 27.160156 113.582031 26.835938 C 113.175781 26.484375 112.976562 26.039062 112.976562 25.507812 C 112.976562 24.609375 113.445312 23.769531 114.382812 22.988281 C 115.292969 22.207031 116.289062 21.816406 117.371094 21.816406 Z M 117.371094 21.816406 "
       style=" stroke:none;fill-rule:nonzero;fill:rgb(0%,0%,0%);fill-opacity:1;" />
    <path
       id="path86"
       d="M 132.371094 21.816406 C 132.996094 21.816406 133.523438 21.976562 133.953125 22.304688 C 134.359375 22.65625 134.558594 23.097656 134.558594 23.632812 C 134.558594 24.53125 134.097656 25.371094 133.171875 26.152344 C 132.234375 26.933594 131.234375 27.324219 130.164062 27.324219 C 129.539062 27.324219 129.011719 27.160156 128.582031 26.835938 C 128.179688 26.484375 127.976562 26.039062 127.976562 25.507812 C 127.976562 24.609375 128.445312 23.769531 129.382812 22.988281 C 130.296875 22.207031 131.292969 21.816406 132.371094 21.816406 Z M 132.371094 21.816406 "
       style=" stroke:none;fill-rule:nonzero;fill:rgb(0%,0%,0%);fill-opacity:1;" />
    <path
       id="path88"
       d="M 155.558594 21.816406 C 156.183594 21.816406 156.710938 21.976562 157.140625 22.304688 C 157.546875 22.65625 157.746094 23.097656 157.746094 23.632812 C 157.746094 24.53125 157.285156 25.371094 156.359375 26.152344 C 155.421875 26.933594 154.421875 27.324219 153.351562 27.324219 C 152.726562 27.324219 152.199219 27.160156 151.769531 26.835938 C 151.367188 26.484375 151.164062 26.039062 151.164062 25.507812 C 151.164062 24.609375 151.632812 23.769531 152.570312 22.988281 C 153.484375 22.207031 154.480469 21.816406 155.558594 21.816406 Z M 155.558594 21.816406 "
       style=" stroke:none;fill-rule:nonzero;fill:rgb(0%,0%,0%);fill-opacity:1;" />
    <path
       id="path90"
       d="M 176.3125 21.816406 C 176.9375 21.816406 177.464844 21.976562 177.894531 22.304688 C 178.296875 22.65625 178.5 23.097656 178.5 23.632812 C 178.5 24.53125 178.039062 25.371094 177.113281 26.152344 C 176.175781 26.933594 175.171875 27.324219 174.105469 27.324219 C 173.480469 27.324219 172.953125 27.160156 172.523438 26.835938 C 172.121094 26.484375 171.917969 26.039062 171.917969 25.507812 C 171.917969 24.609375 172.386719 23.769531 173.324219 22.988281 C 174.234375 22.207031 175.230469 21.816406 176.3125 21.816406 Z M 176.3125 21.816406 "
       style=" stroke:none;fill-rule:nonzero;fill:rgb(0%,0%,0%);fill-opacity:1;" />
    <path
       id="path92"
       d="M 188.949219 21.816406 C 189.574219 21.816406 190.101562 21.976562 190.53125 22.304688 C 190.933594 22.65625 191.136719 23.097656 191.136719 23.632812 C 191.136719 24.53125 190.675781 25.371094 189.75 26.152344 C 188.8125 26.933594 187.808594 27.324219 186.742188 27.324219 C 186.117188 27.324219 185.589844 27.160156 185.160156 26.835938 C 184.757812 26.484375 184.554688 26.039062 184.554688 25.507812 C 184.554688 24.609375 185.023438 23.769531 185.960938 22.988281 C 186.871094 22.207031 187.867188 21.816406 188.949219 21.816406 Z M 188.949219 21.816406 "
       style=" stroke:none;fill-rule:nonzero;fill:rgb(0%,0%,0%);fill-opacity:1;" />
    <path
       id="path94"
       d="M 212.769531 21.816406 C 213.394531 21.816406 213.921875 21.976562 214.351562 22.304688 C 214.753906 22.65625 214.957031 23.097656 214.957031 23.632812 C 214.957031 24.53125 214.492188 25.371094 213.570312 26.152344 C 212.632812 26.933594 211.628906 27.324219 210.5625 27.324219 C 209.9375 27.324219 209.410156 27.160156 208.980469 26.835938 C 208.574219 26.484375 208.375 26.039062 208.375 25.507812 C 208.375 24.609375 208.84375 23.769531 209.78125 22.988281 C 210.691406 22.207031 211.6875 21.816406 212.769531 21.816406 Z M 212.769531 21.816406 "
       style=" stroke:none;fill-rule:nonzero;fill:rgb(0%,0%,0%);fill-opacity:1;" />
    <path
       id="path96"
       d="M 233.433594 21.816406 C 234.058594 21.816406 234.585938 21.976562 235.015625 22.304688 C 235.421875 22.65625 235.621094 23.097656 235.621094 23.632812 C 235.621094 24.53125 235.160156 25.371094 234.234375 26.152344 C 233.296875 26.933594 232.296875 27.324219 231.226562 27.324219 C 230.601562 27.324219 230.074219 27.160156 229.644531 26.835938 C 229.242188 26.484375 229.039062 26.039062 229.039062 25.507812 C 229.039062 24.609375 229.507812 23.769531 230.445312 22.988281 C 231.359375 22.207031 232.355469 21.816406 233.433594 21.816406 Z M 233.433594 21.816406 "
       style=" stroke:none;fill-rule:nonzero;fill:rgb(0%,0%,0%);fill-opacity:1;" />
    <path
       id="path98"
       d="M 254.621094 21.816406 C 255.246094 21.816406 255.773438 21.976562 256.203125 22.304688 C 256.609375 22.65625 256.808594 23.097656 256.808594 23.632812 C 256.808594 24.53125 256.347656 25.371094 255.421875 26.152344 C 254.484375 26.933594 253.484375 27.324219 252.414062 27.324219 C 251.789062 27.324219 251.261719 27.160156 250.832031 26.835938 C 250.429688 26.484375 250.226562 26.039062 250.226562 25.507812 C 250.226562 24.609375 250.695312 23.769531 251.632812 22.988281 C 252.546875 22.207031 253.542969 21.816406 254.621094 21.816406 Z M 254.621094 21.816406 "
       style=" stroke:none;fill-rule:nonzero;fill:rgb(0%,0%,0%);fill-opacity:1;" />
    <path
       id="path100"
       d="M 244.027344 21.816406 C 244.652344 21.816406 245.179688 21.976562 245.609375 22.304688 C 246.015625 22.65625 246.214844 23.097656 246.214844 23.632812 C 246.214844 24.53125 245.753906 25.371094 244.828125 26.152344 C 243.890625 26.933594 242.890625 27.324219 241.820312 27.324219 C 241.195312 27.324219 240.667969 27.160156 240.238281 26.835938 C 239.835938 26.484375 239.632812 26.039062 239.632812 25.507812 C 239.632812 24.609375 240.101562 23.769531 241.039062 22.988281 C 241.953125 22.207031 242.949219 21.816406 244.027344 21.816406 Z M 244.027344 21.816406 "
       style=" stroke:none;fill-rule:nonzero;fill:rgb(0%,0%,0%);fill-opacity:1;" />
    <path
       id="path102"
       d="M 273.003906 21.816406 C 273.628906 21.816406 274.15625 21.976562 274.585938 22.304688 C 274.992188 22.65625 275.191406 23.097656 275.191406 23.632812 C 275.191406 24.53125 274.730469 25.371094 273.804688 26.152344 C 272.867188 26.933594 271.867188 27.324219 270.796875 27.324219 C 270.171875 27.324219 269.644531 27.160156 269.214844 26.835938 C 268.8125 26.484375 268.609375 26.039062 268.609375 25.507812 C 268.609375 24.609375 269.078125 23.769531 270.015625 22.988281 C 270.929688 22.207031 271.925781 21.816406 273.003906 21.816406 Z M 273.003906 21.816406 "
       style=" stroke:none;fill-rule:nonzero;fill:rgb(0%,0%,0%);fill-opacity:1;" />
    <path
       id="path104"
       d="M 291.695312 21.816406 C 292.320312 21.816406 292.847656 21.976562 293.277344 22.304688 C 293.683594 22.65625 293.882812 23.097656 293.882812 23.632812 C 293.882812 24.53125 293.421875 25.371094 292.496094 26.152344 C 291.558594 26.933594 290.558594 27.324219 289.488281 27.324219 C 288.863281 27.324219 288.335938 27.160156 287.90625 26.835938 C 287.503906 26.484375 287.300781 26.039062 287.300781 25.507812 C 287.300781 24.609375 287.769531 23.769531 288.707031 22.988281 C 289.621094 22.207031 290.617188 21.816406 291.695312 21.816406 Z M 291.695312 21.816406 "
       style=" stroke:none;fill-rule:nonzero;fill:rgb(0%,0%,0%);fill-opacity:1;" />
    <path
       id="path106"
       d="M 307.027344 21.816406 C 307.652344 21.816406 308.179688 21.976562 308.609375 22.304688 C 309.011719 22.65625 309.214844 23.097656 309.214844 23.632812 C 309.214844 24.53125 308.75 25.371094 307.828125 26.152344 C 306.890625 26.933594 305.886719 27.324219 304.820312 27.324219 C 304.195312 27.324219 303.667969 27.160156 303.238281 26.835938 C 302.832031 26.484375 302.632812 26.039062 302.632812 25.507812 C 302.632812 24.609375 303.101562 23.769531 304.039062 22.988281 C 304.949219 22.207031 305.945312 21.816406 307.027344 21.816406 Z M 307.027344 21.816406 "
       style=" stroke:none;fill-rule:nonzero;fill:rgb(0%,0%,0%);fill-opacity:1;" />
    <path
       id="path108"
       d="M 330.214844 21.816406 C 330.839844 21.816406 331.367188 21.976562 331.796875 22.304688 C 332.199219 22.65625 332.402344 23.097656 332.402344 23.632812 C 332.402344 24.53125 331.9375 25.371094 331.015625 26.152344 C 330.078125 26.933594 329.074219 27.324219 328.007812 27.324219 C 327.382812 27.324219 326.855469 27.160156 326.425781 26.835938 C 326.019531 26.484375 325.820312 26.039062 325.820312 25.507812 C 325.820312 24.609375 326.289062 23.769531 327.226562 22.988281 C 328.136719 22.207031 329.132812 21.816406 330.214844 21.816406 Z M 330.214844 21.816406 "
       style=" stroke:none;fill-rule:nonzero;fill:rgb(0%,0%,0%);fill-opacity:1;" />
    <path
       id="path110"
       d="M 345.542969 21.816406 C 346.167969 21.816406 346.695312 21.976562 347.125 22.304688 C 347.527344 22.65625 347.730469 23.097656 347.730469 23.632812 C 347.730469 24.53125 347.265625 25.371094 346.34375 26.152344 C 345.40625 26.933594 344.402344 27.324219 343.335938 27.324219 C 342.710938 27.324219 342.183594 27.160156 341.753906 26.835938 C 341.347656 26.484375 341.148438 26.039062 341.148438 25.507812 C 341.148438 24.609375 341.617188 23.769531 342.554688 22.988281 C 343.464844 22.207031 344.460938 21.816406 345.542969 21.816406 Z M 345.542969 21.816406 "
       style=" stroke:none;fill-rule:nonzero;fill:rgb(0%,0%,0%);fill-opacity:1;" />
    <path
       id="path112"
       d="M 364.234375 21.816406 C 364.859375 21.816406 365.386719 21.976562 365.816406 22.304688 C 366.21875 22.65625 366.421875 23.097656 366.421875 23.632812 C 366.421875 24.53125 365.960938 25.371094 365.035156 26.152344 C 364.097656 26.933594 363.09375 27.324219 362.027344 27.324219 C 361.402344 27.324219 360.875 27.160156 360.445312 26.835938 C 360.042969 26.484375 359.839844 26.039062 359.839844 25.507812 C 359.839844 24.609375 360.308594 23.769531 361.246094 22.988281 C 362.15625 22.207031 363.152344 21.816406 364.234375 21.816406 Z M 364.234375 21.816406 "
       style=" stroke:none;fill-rule:nonzero;fill:rgb(0%,0%,0%);fill-opacity:1;" />
    <path
       id="path114"
       d="M 14.292969 21.953125 C 14.292969 21.953125 14.332031 21.953125 14.410156 21.953125 C 14.460938 21.9375 14.507812 21.933594 14.546875 21.933594 C 16.003906 21.933594 17.203125 22.445312 18.140625 23.476562 C 19.078125 24.492188 19.546875 25.675781 19.546875 27.03125 C 19.546875 28.710938 18.851562 30.078125 17.457031 31.132812 C 17.09375 31.417969 16.617188 31.652344 16.03125 31.835938 C 16.097656 32.679688 16.128906 33.363281 16.128906 33.886719 C 16.128906 33.988281 16.117188 34.367188 16.089844 35.019531 C 16.039062 36.230469 15.621094 37.277344 14.839844 38.164062 C 14.085938 39.035156 13.148438 39.472656 12.027344 39.472656 C 10.972656 39.472656 10.074219 39.101562 9.332031 38.359375 C 8.589844 37.601562 8.21875 36.691406 8.21875 35.625 C 8.21875 35.0625 8.433594 34.589844 8.863281 34.199219 C 9.304688 33.808594 9.820312 33.613281 10.40625 33.613281 C 10.925781 33.613281 11.363281 33.8125 11.714844 34.21875 C 12.078125 34.59375 12.261719 35.0625 12.261719 35.625 C 12.261719 36.132812 12.078125 36.566406 11.714844 36.933594 C 11.351562 37.296875 10.914062 37.480469 10.40625 37.480469 C 10.199219 37.480469 9.996094 37.441406 9.800781 37.363281 C 10.375 38.207031 11.136719 38.632812 12.085938 38.632812 C 12.984375 38.632812 13.71875 38.265625 14.292969 37.539062 C 14.890625 36.78125 15.21875 35.902344 15.269531 34.902344 C 15.296875 34.277344 15.308594 33.917969 15.308594 33.828125 C 15.308594 33.097656 15.28125 32.5 15.230469 32.03125 C 14.578125 32.132812 14 32.1875 13.492188 32.1875 C 11.683594 32.1875 10.140625 31.46875 8.863281 30.039062 C 7.613281 28.59375 6.988281 26.875 6.988281 24.882812 C 6.988281 24.464844 7.027344 24.042969 7.105469 23.613281 C 7.183594 23.261719 7.28125 22.875 7.398438 22.460938 C 7.464844 22.226562 7.640625 21.847656 7.925781 21.328125 C 8.03125 21.171875 8.148438 20.976562 8.277344 20.742188 C 8.40625 20.507812 8.5 20.351562 8.550781 20.273438 C 8.679688 20.011719 8.933594 19.660156 9.3125 19.21875 C 9.417969 19.101562 9.523438 18.96875 9.632812 18.828125 C 9.746094 18.683594 9.839844 18.566406 9.917969 18.476562 C 9.996094 18.382812 10.054688 18.3125 10.09375 18.261719 C 10.132812 18.207031 10.425781 17.863281 10.972656 17.226562 C 11.101562 17.09375 11.230469 16.957031 11.351562 16.804688 C 11.476562 16.65625 11.578125 16.539062 11.65625 16.453125 C 11.734375 16.371094 11.792969 16.308594 11.832031 16.269531 C 11.363281 14.71875 11.070312 13.480469 10.953125 12.558594 C 10.863281 11.816406 10.816406 10.800781 10.816406 9.511719 C 10.816406 8.378906 11.078125 7.316406 11.597656 6.328125 C 12.105469 5.296875 12.816406 4.457031 13.726562 3.808594 C 13.792969 3.769531 13.855469 3.75 13.921875 3.75 C 14.011719 3.75 14.078125 3.769531 14.117188 3.808594 C 14.820312 4.652344 15.425781 5.753906 15.933594 7.109375 C 16.453125 8.460938 16.714844 9.691406 16.714844 10.800781 C 16.714844 12.050781 16.414062 13.222656 15.816406 14.316406 C 15.140625 15.472656 14.265625 16.671875 13.199219 17.910156 C 13.472656 18.769531 13.835938 20.117188 14.292969 21.953125 Z M 15.953125 31.035156 C 16.628906 30.785156 17.15625 30.363281 17.535156 29.765625 C 17.953125 29.191406 18.160156 28.546875 18.160156 27.832031 C 18.160156 26.90625 17.847656 26.085938 17.222656 25.371094 C 16.585938 24.628906 15.769531 24.210938 14.78125 24.121094 C 15.339844 26.867188 15.730469 29.171875 15.953125 31.035156 Z M 8.394531 26.523438 C 8.394531 27.8125 8.914062 28.945312 9.957031 29.921875 C 11.023438 30.871094 12.222656 31.347656 13.550781 31.347656 C 14.097656 31.347656 14.632812 31.308594 15.152344 31.230469 C 14.945312 29.25 14.535156 26.878906 13.921875 24.121094 C 13.179688 24.199219 12.585938 24.457031 12.144531 24.902344 C 11.714844 25.355469 11.5 25.871094 11.5 26.445312 C 11.5 27.433594 12.027344 28.234375 13.082031 28.847656 C 13.171875 28.9375 13.21875 29.035156 13.21875 29.140625 C 13.21875 29.242188 13.171875 29.339844 13.082031 29.433594 C 13.003906 29.523438 12.90625 29.570312 12.789062 29.570312 C 12.777344 29.570312 12.71875 29.554688 12.613281 29.53125 C 11.871094 29.125 11.296875 28.605469 10.894531 27.96875 C 10.515625 27.289062 10.328125 26.605469 10.328125 25.917969 C 10.328125 25.019531 10.609375 24.203125 11.167969 23.476562 C 11.753906 22.746094 12.515625 22.277344 13.453125 22.070312 C 13.089844 20.609375 12.789062 19.472656 12.554688 18.652344 C 12.347656 18.886719 12.09375 19.167969 11.800781 19.5 C 11.507812 19.832031 11.335938 20.03125 11.285156 20.097656 C 10.816406 20.707031 10.457031 21.183594 10.210938 21.523438 C 9.769531 22.132812 9.441406 22.660156 9.234375 23.105469 C 9.011719 23.597656 8.816406 24.140625 8.648438 24.726562 C 8.480469 25.285156 8.394531 25.882812 8.394531 26.523438 Z M 14.917969 6.660156 C 13.941406 7.140625 13.171875 7.832031 12.613281 8.730469 C 12.039062 9.652344 11.753906 10.648438 11.753906 11.71875 C 11.753906 12.65625 11.988281 13.917969 12.457031 15.507812 C 13.394531 14.375 14.097656 13.324219 14.566406 12.363281 C 15.0625 11.347656 15.308594 10.285156 15.308594 9.179688 C 15.308594 8.34375 15.179688 7.503906 14.917969 6.660156 Z M 14.917969 6.660156 "
       style=" stroke:none;fill-rule:nonzero;fill:rgb(0%,0%,0%);fill-opacity:1;" />
    <path
       id="path116"
       d="M 28.277344 16.953125 C 27.785156 16.953125 27.476562 17.148438 27.359375 17.539062 C 27.269531 17.824219 27.222656 18.304688 27.222656 18.984375 L 27.222656 19.570312 C 27.222656 20.246094 27.269531 20.726562 27.359375 21.015625 C 27.476562 21.40625 27.785156 21.601562 28.277344 21.601562 C 28.824219 21.601562 29.171875 21.371094 29.3125 20.917969 C 29.445312 20.488281 29.507812 19.941406 29.507812 19.277344 C 29.507812 18.507812 29.4375 17.929688 29.292969 17.539062 C 29.136719 17.148438 28.800781 16.953125 28.277344 16.953125 Z M 27.222656 16.757812 C 27.613281 16.601562 27.964844 16.507812 28.277344 16.484375 C 29.320312 16.484375 30.152344 16.71875 30.777344 17.1875 C 31.378906 17.667969 31.675781 18.359375 31.675781 19.257812 C 31.675781 20.167969 31.371094 20.871094 30.757812 21.367188 C 30.148438 21.835938 29.320312 22.070312 28.277344 22.070312 C 27.210938 22.070312 26.378906 21.574219 25.777344 20.585938 C 25.179688 19.59375 24.878906 18.421875 24.878906 17.070312 C 24.878906 15.742188 25.230469 14.570312 25.933594 13.554688 C 26.652344 12.5625 27.570312 12.070312 28.6875 12.070312 C 29.417969 12.070312 30.0625 12.257812 30.621094 12.636719 C 31.167969 13.011719 31.441406 13.507812 31.441406 14.121094 C 31.441406 14.496094 31.3125 14.808594 31.050781 15.058594 C 30.816406 15.316406 30.519531 15.449219 30.152344 15.449219 C 29.789062 15.449219 29.476562 15.316406 29.214844 15.058594 C 28.957031 14.796875 28.824219 14.484375 28.824219 14.121094 C 28.824219 13.976562 28.957031 13.8125 29.214844 13.632812 C 29.476562 13.476562 29.605469 13.3125 29.605469 13.144531 C 29.605469 12.960938 29.515625 12.8125 29.332031 12.695312 C 29.125 12.589844 28.910156 12.539062 28.6875 12.539062 C 28.089844 12.539062 27.691406 12.777344 27.496094 13.261719 C 27.289062 13.730469 27.183594 14.414062 27.183594 15.3125 C 27.183594 15.570312 27.191406 15.8125 27.203125 16.035156 C 27.21875 16.253906 27.222656 16.496094 27.222656 16.757812 Z M 27.222656 16.757812 "
       style=" stroke:none;fill-rule:nonzero;fill:rgb(0%,0%,0%);fill-opacity:1;" />
    <path
       id="path118"
       d="M 29.710938 26.308594 C 30.363281 25.589844 30.6875 24.914062 30.6875 24.277344 C 30.6875 23.742188 30.460938 23.320312 30.003906 23.007812 C 29.5625 22.695312 29.015625 22.539062 28.363281 22.539062 C 27.910156 22.539062 27.542969 22.679688 27.269531 22.96875 C 26.996094 23.253906 26.859375 23.578125 26.859375 23.945312 C 26.859375 24.398438 27.0625 24.75 27.464844 25 Z M 30.316406 26.640625 C 31.425781 27.277344 31.976562 28.128906 31.976562 29.199219 C 31.976562 29.992188 31.644531 30.664062 30.980469 31.210938 C 30.316406 31.78125 29.386719 32.070312 28.1875 32.070312 C 27.171875 32.070312 26.320312 31.808594 25.628906 31.289062 C 24.902344 30.765625 24.535156 30.097656 24.535156 29.277344 C 24.535156 28.976562 24.628906 28.65625 24.808594 28.320312 C 24.980469 28.019531 25.148438 27.785156 25.316406 27.617188 C 25.394531 27.511719 25.644531 27.265625 26.058594 26.875 C 25.253906 26.300781 24.84375 25.589844 24.828125 24.746094 C 24.828125 24.027344 25.148438 23.398438 25.785156 22.851562 C 26.425781 22.328125 27.285156 22.070312 28.363281 22.070312 C 29.222656 22.070312 29.980469 22.265625 30.628906 22.65625 C 31.253906 23.046875 31.566406 23.585938 31.566406 24.277344 C 31.542969 24.980469 31.125 25.765625 30.316406 26.640625 Z M 26.664062 27.226562 C 25.859375 27.941406 25.441406 28.625 25.414062 29.277344 C 25.414062 29.941406 25.695312 30.492188 26.253906 30.9375 C 26.789062 31.378906 27.433594 31.601562 28.1875 31.601562 C 28.722656 31.601562 29.140625 31.429688 29.4375 31.09375 C 29.75 30.78125 29.90625 30.394531 29.90625 29.941406 C 29.90625 29.378906 29.679688 28.96875 29.222656 28.710938 Z M 26.664062 27.226562 "
       style=" stroke:none;fill-rule:nonzero;fill:rgb(0%,0%,0%);fill-opacity:1;" />
    <path
       id="path120"
       d="M 46.71875 9.570312 L 56.355469 9.570312 L 56.355469 12.070312 L 46.71875 12.070312 Z M 46.71875 9.570312 "
       style=" stroke:none;fill-rule:evenodd;fill:rgb(0%,0%,0%);fill-opacity:1;" />
    <path
       id="path122"
       d="M 234.972656 9.570312 L 256.808594 9.570312 L 256.808594 12.070312 L 234.972656 12.070312 Z M 234.972656 9.570312 "
       style=" stroke:none;fill-rule:evenodd;fill:rgb(0%,0%,0%);fill-opacity:1;" />
    <path
       id="path124"
       d="M 91.269531 13.320312 L 91.269531 8.320312 L 91.894531 8.320312 C 91.894531 9.0625 92.035156 9.804688 92.324219 10.546875 C 92.636719 11.351562 92.980469 12.054688 93.359375 12.65625 C 93.632812 13.085938 94.042969 13.742188 94.589844 14.628906 C 95.003906 15.304688 95.355469 16.015625 95.644531 16.757812 C 95.929688 17.5 96.074219 18.242188 96.074219 18.984375 C 96.074219 20.335938 95.792969 21.71875 95.234375 23.125 C 95.140625 23.28125 95.019531 23.359375 94.863281 23.359375 C 94.730469 23.359375 94.613281 23.304688 94.511719 23.203125 C 94.433594 23.125 94.394531 23.027344 94.394531 22.910156 L 94.394531 22.8125 C 94.953125 21.523438 95.234375 20.246094 95.234375 18.984375 C 95.234375 18.332031 95.039062 17.628906 94.648438 16.875 C 94.257812 16.105469 93.859375 15.492188 93.457031 15.039062 C 93 14.503906 92.480469 13.929688 91.894531 13.320312 Z M 91.269531 13.320312 "
       style=" stroke:none;fill-rule:nonzero;fill:rgb(0%,0%,0%);fill-opacity:1;" />
    <path
       id="path126"
       d="M 133.910156 13.320312 L 133.910156 8.320312 L 134.535156 8.320312 C 134.535156 9.0625 134.679688 9.804688 134.964844 10.546875 C 135.277344 11.351562 135.621094 12.054688 136 12.65625 C 136.273438 13.085938 136.683594 13.742188 137.230469 14.628906 C 137.648438 15.304688 138 16.015625 138.285156 16.757812 C 138.570312 17.5 138.714844 18.242188 138.714844 18.984375 C 138.714844 20.335938 138.433594 21.71875 137.875 23.125 C 137.785156 23.28125 137.660156 23.359375 137.503906 23.359375 C 137.375 23.359375 137.257812 23.304688 137.152344 23.203125 C 137.074219 23.125 137.035156 23.027344 137.035156 22.910156 L 137.035156 22.8125 C 137.59375 21.523438 137.875 20.246094 137.875 18.984375 C 137.875 18.332031 137.679688 17.628906 137.289062 16.875 C 136.898438 16.105469 136.5 15.492188 136.097656 15.039062 C 135.640625 14.503906 135.121094 13.929688 134.535156 13.320312 Z M 133.910156 13.320312 "
       style=" stroke:none;fill-rule:nonzero;fill:rgb(0%,0%,0%);fill-opacity:1;" />
    <path
       id="path128"
       d="M 177.851562 13.320312 L 177.851562 8.320312 L 178.476562 8.320312 C 178.476562 9.0625 178.617188 9.804688 178.90625 10.546875 C 179.21875 11.351562 179.5625 12.054688 179.941406 12.65625 C 180.214844 13.085938 180.625 13.742188 181.171875 14.628906 C 181.585938 15.304688 181.9375 16.015625 182.226562 16.757812 C 182.511719 17.5 182.65625 18.242188 182.65625 18.984375 C 182.65625 20.335938 182.375 21.71875 181.816406 23.125 C 181.722656 23.28125 181.601562 23.359375 181.445312 23.359375 C 181.3125 23.359375 181.195312 23.304688 181.09375 23.203125 C 181.015625 23.125 180.976562 23.027344 180.976562 22.910156 L 180.976562 22.8125 C 181.535156 21.523438 181.816406 20.246094 181.816406 18.984375 C 181.816406 18.332031 181.621094 17.628906 181.230469 16.875 C 180.839844 16.105469 180.441406 15.492188 180.039062 15.039062 C 179.582031 14.503906 179.0625 13.929688 178.476562 13.320312 Z M 177.851562 13.320312 "
       style=" stroke:none;fill-rule:nonzero;fill:rgb(0%,0%,0%);fill-opacity:1;" />
    <path
       id="path130"
       d="M 308.5625 13.320312 L 308.5625 8.320312 L 309.1875 8.320312 C 309.1875 9.0625 309.332031 9.804688 309.617188 10.546875 C 309.929688 11.351562 310.277344 12.054688 310.652344 12.65625 C 310.925781 13.085938 311.335938 13.742188 311.882812 14.628906 C 312.300781 15.304688 312.652344 16.015625 312.9375 16.757812 C 313.226562 17.5 313.367188 18.242188 313.367188 18.984375 C 313.367188 20.335938 313.089844 21.71875 312.527344 23.125 C 312.4375 23.28125 312.3125 23.359375 312.15625 23.359375 C 312.027344 23.359375 311.910156 23.304688 311.804688 23.203125 C 311.726562 23.125 311.6875 23.027344 311.6875 22.910156 L 311.6875 22.8125 C 312.25 21.523438 312.527344 20.246094 312.527344 18.984375 C 312.527344 18.332031 312.332031 17.628906 311.941406 16.875 C 311.550781 16.105469 311.15625 15.492188 310.75 15.039062 C 310.296875 14.503906 309.773438 13.929688 309.1875 13.320312 Z M 308.5625 13.320312 "
       style=" stroke:none;fill-rule:nonzero;fill:rgb(0%,0%,0%);fill-opacity:1;" />
    <path
       id="path132"
       d="M 365.773438 13.320312 L 365.773438 8.320312 L 366.398438 8.320312 C 366.398438 9.0625 366.539062 9.804688 366.828125 10.546875 C 367.140625 11.351562 367.484375 12.054688 367.863281 12.65625 C 368.136719 13.085938 368.546875 13.742188 369.09375 14.628906 C 369.507812 15.304688 369.859375 16.015625 370.148438 16.757812 C 370.433594 17.5 370.578125 18.242188 370.578125 18.984375 C 370.578125 20.335938 370.296875 21.71875 369.738281 23.125 C 369.644531 23.28125 369.523438 23.359375 369.367188 23.359375 C 369.234375 23.359375 369.117188 23.304688 369.015625 23.203125 C 368.9375 23.125 368.898438 23.027344 368.898438 22.910156 L 368.898438 22.8125 C 369.457031 21.523438 369.738281 20.246094 369.738281 18.984375 C 369.738281 18.332031 369.542969 17.628906 369.152344 16.875 C 368.761719 16.105469 368.363281 15.492188 367.960938 15.039062 C 367.503906 14.503906 366.984375 13.929688 366.398438 13.320312 Z M 365.773438 13.320312 "
       style=" stroke:none;fill-rule:nonzero;fill:rgb(0%,0%,0%);fill-opacity:1;" />
    <path
       id="path134"
       d="M 159.832031 25.371094 C 159.609375 25.148438 159.5 24.882812 159.5 24.570312 C 159.5 24.257812 159.609375 23.988281 159.832031 23.769531 C 160.050781 23.546875 160.320312 23.4375 160.632812 23.4375 C 160.945312 23.4375 161.210938 23.546875 161.433594 23.769531 C 161.652344 23.988281 161.765625 24.257812 161.765625 24.570312 C 161.765625 24.882812 161.652344 25.148438 161.433594 25.371094 C 161.210938 25.589844 160.945312 25.703125 160.632812 25.703125 C 160.320312 25.703125 160.050781 25.589844 159.832031 25.371094 Z M 159.832031 25.371094 "
       style=" stroke:none;fill-rule:nonzero;fill:rgb(0%,0%,0%);fill-opacity:1;" />
    <path
       id="path136"
       d="M 217.039062 25.371094 C 216.816406 25.148438 216.707031 24.882812 216.707031 24.570312 C 216.707031 24.257812 216.816406 23.988281 217.039062 23.769531 C 217.261719 23.546875 217.527344 23.4375 217.839844 23.4375 C 218.152344 23.4375 218.417969 23.546875 218.640625 23.769531 C 218.863281 23.988281 218.972656 24.257812 218.972656 24.570312 C 218.972656 24.882812 218.863281 25.148438 218.640625 25.371094 C 218.417969 25.589844 218.152344 25.703125 217.839844 25.703125 C 217.527344 25.703125 217.261719 25.589844 217.039062 25.371094 Z M 217.039062 25.371094 "
       style=" stroke:none;fill-rule:nonzero;fill:rgb(0%,0%,0%);fill-opacity:1;" />
    <path
       id="path138"
       d="M 277.273438 25.371094 C 277.054688 25.148438 276.941406 24.882812 276.941406 24.570312 C 276.941406 24.257812 277.054688 23.988281 277.273438 23.769531 C 277.496094 23.546875 277.761719 23.4375 278.074219 23.4375 C 278.386719 23.4375 278.65625 23.546875 278.875 23.769531 C 279.097656 23.988281 279.207031 24.257812 279.207031 24.570312 C 279.207031 24.882812 279.097656 25.148438 278.875 25.371094 C 278.65625 25.589844 278.386719 25.703125 278.074219 25.703125 C 277.761719 25.703125 277.496094 25.589844 277.273438 25.371094 Z M 277.273438 25.371094 "
       style=" stroke:none;fill-rule:nonzero;fill:rgb(0%,0%,0%);fill-opacity:1;" />
    <path
       id="path140"
       d="M 349.8125 25.371094 C 349.589844 25.148438 349.480469 24.882812 349.480469 24.570312 C 349.480469 24.257812 349.589844 23.988281 349.8125 23.769531 C 350.035156 23.546875 350.300781 23.4375 350.613281 23.4375 C 350.925781 23.4375 351.191406 23.546875 351.414062 23.769531 C 351.636719 23.988281 351.746094 24.257812 351.746094 24.570312 C 351.746094 24.882812 351.636719 25.148438 351.414062 25.371094 C 351.191406 25.589844 350.925781 25.703125 350.613281 25.703125 C 350.300781 25.703125 350.035156 25.589844 349.8125 25.371094 Z M 349.8125 25.371094 "
       style=" stroke:none;fill-rule:nonzero;fill:rgb(0%,0%,0%);fill-opacity:1;" />
  </g>
</svg>
