<?xml version="1.0" encoding="UTF-8" standalone="no"?>
<svg
   xmlns:dc="http://purl.org/dc/elements/1.1/"
   xmlns:cc="http://creativecommons.org/ns#"
   xmlns:rdf="http://www.w3.org/1999/02/22-rdf-syntax-ns#"
   xmlns:svg="http://www.w3.org/2000/svg"
   xmlns="http://www.w3.org/2000/svg"
   xmlns:sodipodi="http://sodipodi.sourceforge.net/DTD/sodipodi-0.dtd"
   xmlns:inkscape="http://www.inkscape.org/namespaces/inkscape"
   inkscape:version="1.0 (4035a4f, 2020-05-01)"
   sodipodi:docname="rhythms_ternary_5.svg"
   id="svg157"
   version="1.2"
   viewBox="0 0 420 50"
   height="50pt"
   width="420pt">
  <metadata
     id="metadata163">
    <rdf:RDF>
      <cc:Work
         rdf:about="">
        <dc:format>image/svg+xml</dc:format>
        <dc:type
           rdf:resource="http://purl.org/dc/dcmitype/StillImage" />
        <dc:title></dc:title>
      </cc:Work>
    </rdf:RDF>
  </metadata>
  <defs
     id="defs161" />
  <sodipodi:namedview
     inkscape:current-layer="svg157"
     inkscape:window-maximized="0"
     inkscape:window-y="23"
     inkscape:window-x="0"
     inkscape:cy="33.333333"
     inkscape:cx="280"
     inkscape:zoom="2.2839286"
     showgrid="false"
     id="namedview159"
     inkscape:window-height="480"
     inkscape:window-width="741"
     inkscape:pageshadow="2"
     inkscape:pageopacity="0"
     guidetolerance="10"
     gridtolerance="10"
     objecttolerance="10"
     borderopacity="1"
     bordercolor="#666666"
     pagecolor="#ffffff" />
  <g
     id="surface4758">
    <path
       id="path10"
       d="M 3.75 12.070312 L 99.664062 12.070312 M 3.75 17.070312 L 99.664062 17.070312 M 3.75 22.070312 L 99.664062 22.070312 M 3.75 27.070312 L 99.664062 27.070312 M 3.75 32.070312 L 99.664062 32.070312 "
       style="fill:none;stroke-width:0.4;stroke-linecap:butt;stroke-linejoin:bevel;stroke:rgb(0%,0%,0%);stroke-opacity:1;stroke-miterlimit:10;" />
    <path
       id="path12"
       d="M 99.664062 12.070312 L 157.089844 12.070312 M 99.664062 17.070312 L 157.089844 17.070312 M 99.664062 22.070312 L 157.089844 22.070312 M 99.664062 27.070312 L 157.089844 27.070312 M 99.664062 32.070312 L 157.089844 32.070312 "
       style="fill:none;stroke-width:0.4;stroke-linecap:butt;stroke-linejoin:bevel;stroke:rgb(0%,0%,0%);stroke-opacity:1;stroke-miterlimit:10;" />
    <path
       id="path14"
       d="M 157.089844 12.070312 L 226.164062 12.070312 M 157.089844 17.070312 L 226.164062 17.070312 M 157.089844 22.070312 L 226.164062 22.070312 M 157.089844 27.070312 L 226.164062 27.070312 M 157.089844 32.070312 L 226.164062 32.070312 "
       style="fill:none;stroke-width:0.4;stroke-linecap:butt;stroke-linejoin:bevel;stroke:rgb(0%,0%,0%);stroke-opacity:1;stroke-miterlimit:10;" />
    <path
       id="path16"
       d="M 226.164062 12.070312 L 292.214844 12.070312 M 226.164062 17.070312 L 292.214844 17.070312 M 226.164062 22.070312 L 292.214844 22.070312 M 226.164062 27.070312 L 292.214844 27.070312 M 226.164062 32.070312 L 292.214844 32.070312 "
       style="fill:none;stroke-width:0.4;stroke-linecap:butt;stroke-linejoin:bevel;stroke:rgb(0%,0%,0%);stroke-opacity:1;stroke-miterlimit:10;" />
    <path
       id="path18"
       d="M 292.214844 12.070312 L 358.261719 12.070312 M 292.214844 17.070312 L 358.261719 17.070312 M 292.214844 22.070312 L 358.261719 22.070312 M 292.214844 27.070312 L 358.261719 27.070312 M 292.214844 32.070312 L 358.261719 32.070312 "
       style="fill:none;stroke-width:0.4;stroke-linecap:butt;stroke-linejoin:bevel;stroke:rgb(0%,0%,0%);stroke-opacity:1;stroke-miterlimit:10;" />
    <path
       id="path20"
       d="M 358.261719 12.070312 L 407.066406 12.070312 M 358.261719 17.070312 L 407.066406 17.070312 M 358.261719 22.070312 L 407.066406 22.070312 M 358.261719 27.070312 L 407.066406 27.070312 M 358.261719 32.070312 L 407.066406 32.070312 "
       style="fill:none;stroke-width:0.4;stroke-linecap:butt;stroke-linejoin:bevel;stroke:rgb(0%,0%,0%);stroke-opacity:1;stroke-miterlimit:10;" />
    <path
       id="path22"
       d="M 99.261719 12.070312 L 99.261719 32.070312 "
       style="fill:none;stroke-width:0.800001;stroke-linecap:butt;stroke-linejoin:bevel;stroke:rgb(0%,0%,0%);stroke-opacity:1;stroke-miterlimit:10;" />
    <path
       id="path24"
       d="M 156.6875 12.070312 L 156.6875 32.070312 "
       style="fill:none;stroke-width:0.800001;stroke-linecap:butt;stroke-linejoin:bevel;stroke:rgb(0%,0%,0%);stroke-opacity:1;stroke-miterlimit:10;" />
    <path
       id="path26"
       d="M 225.765625 12.070312 L 225.765625 32.070312 "
       style="fill:none;stroke-width:0.800001;stroke-linecap:butt;stroke-linejoin:bevel;stroke:rgb(0%,0%,0%);stroke-opacity:1;stroke-miterlimit:10;" />
    <path
       id="path28"
       d="M 291.8125 12.070312 L 291.8125 32.070312 "
       style="fill:none;stroke-width:0.800001;stroke-linecap:butt;stroke-linejoin:bevel;stroke:rgb(0%,0%,0%);stroke-opacity:1;stroke-miterlimit:10;" />
    <path
       id="path30"
       d="M 357.863281 12.070312 L 357.863281 32.070312 "
       style="fill:none;stroke-width:0.800001;stroke-linecap:butt;stroke-linejoin:bevel;stroke:rgb(0%,0%,0%);stroke-opacity:1;stroke-miterlimit:10;" />
    <path
       id="path32"
       d="M 406.664062 12.070312 L 406.664062 32.070312 "
       style="fill:none;stroke-width:0.800001;stroke-linecap:butt;stroke-linejoin:bevel;stroke:rgb(0%,0%,0%);stroke-opacity:1;stroke-miterlimit:10;" />
    <path
       id="path34"
       d="M 47.042969 23.628906 L 47.042969 8.320312 "
       style="fill:none;stroke-width:0.65;stroke-linecap:round;stroke-linejoin:bevel;stroke:rgb(0%,0%,0%);stroke-opacity:1;stroke-miterlimit:10;" />
    <path
       id="path36"
       d="M 59.683594 23.628906 L 59.683594 8.320312 "
       style="fill:none;stroke-width:0.65;stroke-linecap:round;stroke-linejoin:bevel;stroke:rgb(0%,0%,0%);stroke-opacity:1;stroke-miterlimit:10;" />
    <path
       id="path38"
       d="M 84.132812 23.628906 L 84.132812 10.820312 "
       style="fill:none;stroke-width:0.65;stroke-linecap:round;stroke-linejoin:bevel;stroke:rgb(0%,0%,0%);stroke-opacity:1;stroke-miterlimit:10;" />
    <path
       id="path40"
       d="M 74.730469 23.628906 L 74.730469 10.820312 "
       style="fill:none;stroke-width:0.65;stroke-linecap:round;stroke-linejoin:bevel;stroke:rgb(0%,0%,0%);stroke-opacity:1;stroke-miterlimit:10;" />
    <path
       id="path42"
       d="M 93.539062 23.628906 L 93.539062 10.820312 "
       style="fill:none;stroke-width:0.65;stroke-linecap:round;stroke-linejoin:bevel;stroke:rgb(0%,0%,0%);stroke-opacity:1;stroke-miterlimit:10;" />
    <path
       id="path44"
       d="M 124.558594 23.628906 L 124.558594 8.320312 "
       style="fill:none;stroke-width:0.65;stroke-linecap:round;stroke-linejoin:bevel;stroke:rgb(0%,0%,0%);stroke-opacity:1;stroke-miterlimit:10;" />
    <path
       id="path46"
       d="M 111.921875 23.628906 L 111.921875 8.320312 "
       style="fill:none;stroke-width:0.65;stroke-linecap:round;stroke-linejoin:bevel;stroke:rgb(0%,0%,0%);stroke-opacity:1;stroke-miterlimit:10;" />
    <path
       id="path48"
       d="M 141.675781 23.628906 L 141.675781 8.320312 "
       style="fill:none;stroke-width:0.65;stroke-linecap:round;stroke-linejoin:bevel;stroke:rgb(0%,0%,0%);stroke-opacity:1;stroke-miterlimit:10;" />
    <path
       id="path50"
       d="M 179.324219 23.628906 L 179.324219 10.820312 "
       style="fill:none;stroke-width:0.65;stroke-linecap:round;stroke-linejoin:bevel;stroke:rgb(0%,0%,0%);stroke-opacity:1;stroke-miterlimit:10;" />
    <path
       id="path52"
       d="M 169.347656 23.628906 L 169.347656 10.820312 "
       style="fill:none;stroke-width:0.65;stroke-linecap:round;stroke-linejoin:bevel;stroke:rgb(0%,0%,0%);stroke-opacity:1;stroke-miterlimit:10;" />
    <path
       id="path54"
       d="M 189.296875 23.628906 L 189.296875 10.820312 "
       style="fill:none;stroke-width:0.65;stroke-linecap:round;stroke-linejoin:bevel;stroke:rgb(0%,0%,0%);stroke-opacity:1;stroke-miterlimit:10;" />
    <path
       id="path56"
       d="M 215.234375 23.628906 L 215.234375 8.320312 "
       style="fill:none;stroke-width:0.65;stroke-linecap:round;stroke-linejoin:bevel;stroke:rgb(0%,0%,0%);stroke-opacity:1;stroke-miterlimit:10;" />
    <path
       id="path58"
       d="M 199.273438 23.628906 L 199.273438 8.320312 "
       style="fill:none;stroke-width:0.65;stroke-linecap:round;stroke-linejoin:bevel;stroke:rgb(0%,0%,0%);stroke-opacity:1;stroke-miterlimit:10;" />
    <path
       id="path60"
       d="M 253.535156 23.628906 L 253.535156 8.320312 "
       style="fill:none;stroke-width:0.65;stroke-linecap:round;stroke-linejoin:bevel;stroke:rgb(0%,0%,0%);stroke-opacity:1;stroke-miterlimit:10;" />
    <path
       id="path62"
       d="M 238.421875 23.628906 L 238.421875 8.320312 "
       style="fill:none;stroke-width:0.65;stroke-linecap:round;stroke-linejoin:bevel;stroke:rgb(0%,0%,0%);stroke-opacity:1;stroke-miterlimit:10;" />
    <path
       id="path64"
       d="M 266.171875 23.628906 L 266.171875 8.320312 "
       style="fill:none;stroke-width:0.65;stroke-linecap:round;stroke-linejoin:bevel;stroke:rgb(0%,0%,0%);stroke-opacity:1;stroke-miterlimit:10;" />
    <path
       id="path66"
       d="M 281.285156 23.628906 L 281.285156 8.320312 "
       style="fill:none;stroke-width:0.65;stroke-linecap:round;stroke-linejoin:bevel;stroke:rgb(0%,0%,0%);stroke-opacity:1;stroke-miterlimit:10;" />
    <path
       id="path68"
       d="M 304.472656 23.628906 L 304.472656 8.320312 "
       style="fill:none;stroke-width:0.65;stroke-linecap:round;stroke-linejoin:bevel;stroke:rgb(0%,0%,0%);stroke-opacity:1;stroke-miterlimit:10;" />
    <path
       id="path70"
       d="M 317.109375 23.628906 L 317.109375 8.320312 "
       style="fill:none;stroke-width:0.65;stroke-linecap:round;stroke-linejoin:bevel;stroke:rgb(0%,0%,0%);stroke-opacity:1;stroke-miterlimit:10;" />
    <path
       id="path72"
       d="M 346.734375 23.628906 L 346.734375 8.320312 "
       style="fill:none;stroke-width:0.65;stroke-linecap:round;stroke-linejoin:bevel;stroke:rgb(0%,0%,0%);stroke-opacity:1;stroke-miterlimit:10;" />
    <path
       id="path74"
       d="M 334.09375 23.628906 L 334.09375 8.320312 "
       style="fill:none;stroke-width:0.65;stroke-linecap:round;stroke-linejoin:bevel;stroke:rgb(0%,0%,0%);stroke-opacity:1;stroke-miterlimit:10;" />
    <path
       id="path76"
       d="M 370.519531 23.628906 L 370.519531 8.320312 "
       style="fill:none;stroke-width:0.65;stroke-linecap:round;stroke-linejoin:bevel;stroke:rgb(0%,0%,0%);stroke-opacity:1;stroke-miterlimit:10;" />
    <path
       id="path78"
       d="M 391.519531 23.628906 L 391.519531 8.320312 "
       style="fill:none;stroke-width:0.65;stroke-linecap:round;stroke-linejoin:bevel;stroke:rgb(0%,0%,0%);stroke-opacity:1;stroke-miterlimit:10;" />
    <path
       id="path80"
       d="M 45.179688 21.816406 C 45.804688 21.816406 46.332031 21.976562 46.761719 22.304688 C 47.167969 22.65625 47.367188 23.097656 47.367188 23.632812 C 47.367188 24.53125 46.90625 25.371094 45.980469 26.152344 C 45.042969 26.933594 44.042969 27.324219 42.972656 27.324219 C 42.347656 27.324219 41.820312 27.160156 41.390625 26.835938 C 40.988281 26.484375 40.785156 26.039062 40.785156 25.507812 C 40.785156 24.609375 41.253906 23.769531 42.191406 22.988281 C 43.105469 22.207031 44.101562 21.816406 45.179688 21.816406 Z M 45.179688 21.816406 "
       style=" stroke:none;fill-rule:nonzero;fill:rgb(0%,0%,0%);fill-opacity:1;" />
    <path
       id="path82"
       d="M 57.820312 21.816406 C 58.445312 21.816406 58.972656 21.976562 59.402344 22.304688 C 59.804688 22.65625 60.007812 23.097656 60.007812 23.632812 C 60.007812 24.53125 59.542969 25.371094 58.621094 26.152344 C 57.683594 26.933594 56.679688 27.324219 55.613281 27.324219 C 54.988281 27.324219 54.460938 27.160156 54.03125 26.835938 C 53.625 26.484375 53.425781 26.039062 53.425781 25.507812 C 53.425781 24.609375 53.894531 23.769531 54.832031 22.988281 C 55.742188 22.207031 56.738281 21.816406 57.820312 21.816406 Z M 57.820312 21.816406 "
       style=" stroke:none;fill-rule:nonzero;fill:rgb(0%,0%,0%);fill-opacity:1;" />
    <path
       id="path84"
       d="M 82.269531 21.816406 C 82.894531 21.816406 83.421875 21.976562 83.851562 22.304688 C 84.253906 22.65625 84.457031 23.097656 84.457031 23.632812 C 84.457031 24.53125 83.996094 25.371094 83.070312 26.152344 C 82.132812 26.933594 81.128906 27.324219 80.0625 27.324219 C 79.4375 27.324219 78.910156 27.160156 78.480469 26.835938 C 78.078125 26.484375 77.875 26.039062 77.875 25.507812 C 77.875 24.609375 78.34375 23.769531 79.28125 22.988281 C 80.191406 22.207031 81.1875 21.816406 82.269531 21.816406 Z M 82.269531 21.816406 "
       style=" stroke:none;fill-rule:nonzero;fill:rgb(0%,0%,0%);fill-opacity:1;" />
    <path
       id="path86"
       d="M 72.867188 21.816406 C 73.492188 21.816406 74.019531 21.976562 74.449219 22.304688 C 74.851562 22.65625 75.054688 23.097656 75.054688 23.632812 C 75.054688 24.53125 74.589844 25.371094 73.667969 26.152344 C 72.730469 26.933594 71.726562 27.324219 70.660156 27.324219 C 70.035156 27.324219 69.507812 27.160156 69.078125 26.835938 C 68.671875 26.484375 68.472656 26.039062 68.472656 25.507812 C 68.472656 24.609375 68.941406 23.769531 69.878906 22.988281 C 70.789062 22.207031 71.785156 21.816406 72.867188 21.816406 Z M 72.867188 21.816406 "
       style=" stroke:none;fill-rule:nonzero;fill:rgb(0%,0%,0%);fill-opacity:1;" />
    <path
       id="path88"
       d="M 91.675781 21.816406 C 92.300781 21.816406 92.828125 21.976562 93.257812 22.304688 C 93.660156 22.65625 93.863281 23.097656 93.863281 23.632812 C 93.863281 24.53125 93.398438 25.371094 92.476562 26.152344 C 91.539062 26.933594 90.535156 27.324219 89.46875 27.324219 C 88.84375 27.324219 88.316406 27.160156 87.886719 26.835938 C 87.480469 26.484375 87.28125 26.039062 87.28125 25.507812 C 87.28125 24.609375 87.75 23.769531 88.6875 22.988281 C 89.597656 22.207031 90.59375 21.816406 91.675781 21.816406 Z M 91.675781 21.816406 "
       style=" stroke:none;fill-rule:nonzero;fill:rgb(0%,0%,0%);fill-opacity:1;" />
    <path
       id="path90"
       d="M 122.695312 21.816406 C 123.320312 21.816406 123.847656 21.976562 124.277344 22.304688 C 124.679688 22.65625 124.882812 23.097656 124.882812 23.632812 C 124.882812 24.53125 124.417969 25.371094 123.496094 26.152344 C 122.558594 26.933594 121.554688 27.324219 120.488281 27.324219 C 119.863281 27.324219 119.335938 27.160156 118.90625 26.835938 C 118.5 26.484375 118.300781 26.039062 118.300781 25.507812 C 118.300781 24.609375 118.769531 23.769531 119.707031 22.988281 C 120.617188 22.207031 121.613281 21.816406 122.695312 21.816406 Z M 122.695312 21.816406 "
       style=" stroke:none;fill-rule:nonzero;fill:rgb(0%,0%,0%);fill-opacity:1;" />
    <path
       id="path92"
       d="M 110.058594 21.816406 C 110.683594 21.816406 111.210938 21.976562 111.640625 22.304688 C 112.042969 22.65625 112.246094 23.097656 112.246094 23.632812 C 112.246094 24.53125 111.78125 25.371094 110.859375 26.152344 C 109.921875 26.933594 108.917969 27.324219 107.851562 27.324219 C 107.226562 27.324219 106.699219 27.160156 106.269531 26.835938 C 105.863281 26.484375 105.664062 26.039062 105.664062 25.507812 C 105.664062 24.609375 106.132812 23.769531 107.070312 22.988281 C 107.980469 22.207031 108.976562 21.816406 110.058594 21.816406 Z M 110.058594 21.816406 "
       style=" stroke:none;fill-rule:nonzero;fill:rgb(0%,0%,0%);fill-opacity:1;" />
    <path
       id="path94"
       d="M 139.8125 21.816406 C 140.4375 21.816406 140.964844 21.976562 141.394531 22.304688 C 141.796875 22.65625 142 23.097656 142 23.632812 C 142 24.53125 141.535156 25.371094 140.613281 26.152344 C 139.675781 26.933594 138.671875 27.324219 137.605469 27.324219 C 136.980469 27.324219 136.453125 27.160156 136.023438 26.835938 C 135.617188 26.484375 135.417969 26.039062 135.417969 25.507812 C 135.417969 24.609375 135.886719 23.769531 136.824219 22.988281 C 137.734375 22.207031 138.730469 21.816406 139.8125 21.816406 Z M 139.8125 21.816406 "
       style=" stroke:none;fill-rule:nonzero;fill:rgb(0%,0%,0%);fill-opacity:1;" />
    <path
       id="path96"
       d="M 177.460938 21.816406 C 178.085938 21.816406 178.613281 21.976562 179.042969 22.304688 C 179.445312 22.65625 179.648438 23.097656 179.648438 23.632812 C 179.648438 24.53125 179.183594 25.371094 178.261719 26.152344 C 177.324219 26.933594 176.320312 27.324219 175.253906 27.324219 C 174.628906 27.324219 174.101562 27.160156 173.671875 26.835938 C 173.265625 26.484375 173.066406 26.039062 173.066406 25.507812 C 173.066406 24.609375 173.535156 23.769531 174.472656 22.988281 C 175.382812 22.207031 176.378906 21.816406 177.460938 21.816406 Z M 177.460938 21.816406 "
       style=" stroke:none;fill-rule:nonzero;fill:rgb(0%,0%,0%);fill-opacity:1;" />
    <path
       id="path98"
       d="M 167.484375 21.816406 C 168.109375 21.816406 168.636719 21.976562 169.066406 22.304688 C 169.46875 22.65625 169.671875 23.097656 169.671875 23.632812 C 169.671875 24.53125 169.207031 25.371094 168.285156 26.152344 C 167.347656 26.933594 166.34375 27.324219 165.277344 27.324219 C 164.652344 27.324219 164.125 27.160156 163.695312 26.835938 C 163.289062 26.484375 163.089844 26.039062 163.089844 25.507812 C 163.089844 24.609375 163.558594 23.769531 164.496094 22.988281 C 165.40625 22.207031 166.402344 21.816406 167.484375 21.816406 Z M 167.484375 21.816406 "
       style=" stroke:none;fill-rule:nonzero;fill:rgb(0%,0%,0%);fill-opacity:1;" />
    <path
       id="path100"
       d="M 197.410156 21.816406 C 198.035156 21.816406 198.5625 21.976562 198.992188 22.304688 C 199.398438 22.65625 199.597656 23.097656 199.597656 23.632812 C 199.597656 24.53125 199.136719 25.371094 198.210938 26.152344 C 197.273438 26.933594 196.273438 27.324219 195.203125 27.324219 C 194.578125 27.324219 194.050781 27.160156 193.621094 26.835938 C 193.21875 26.484375 193.015625 26.039062 193.015625 25.507812 C 193.015625 24.609375 193.484375 23.769531 194.421875 22.988281 C 195.335938 22.207031 196.332031 21.816406 197.410156 21.816406 Z M 197.410156 21.816406 "
       style=" stroke:none;fill-rule:nonzero;fill:rgb(0%,0%,0%);fill-opacity:1;" />
    <path
       id="path102"
       d="M 187.433594 21.816406 C 188.058594 21.816406 188.585938 21.976562 189.015625 22.304688 C 189.421875 22.65625 189.621094 23.097656 189.621094 23.632812 C 189.621094 24.53125 189.160156 25.371094 188.234375 26.152344 C 187.296875 26.933594 186.296875 27.324219 185.226562 27.324219 C 184.601562 27.324219 184.074219 27.160156 183.644531 26.835938 C 183.242188 26.484375 183.039062 26.039062 183.039062 25.507812 C 183.039062 24.609375 183.507812 23.769531 184.445312 22.988281 C 185.359375 22.207031 186.355469 21.816406 187.433594 21.816406 Z M 187.433594 21.816406 "
       style=" stroke:none;fill-rule:nonzero;fill:rgb(0%,0%,0%);fill-opacity:1;" />
    <path
       id="path104"
       d="M 213.371094 21.816406 C 213.996094 21.816406 214.523438 21.976562 214.953125 22.304688 C 215.359375 22.65625 215.558594 23.097656 215.558594 23.632812 C 215.558594 24.53125 215.097656 25.371094 214.171875 26.152344 C 213.234375 26.933594 212.234375 27.324219 211.164062 27.324219 C 210.539062 27.324219 210.011719 27.160156 209.582031 26.835938 C 209.179688 26.484375 208.976562 26.039062 208.976562 25.507812 C 208.976562 24.609375 209.445312 23.769531 210.382812 22.988281 C 211.296875 22.207031 212.292969 21.816406 213.371094 21.816406 Z M 213.371094 21.816406 "
       style=" stroke:none;fill-rule:nonzero;fill:rgb(0%,0%,0%);fill-opacity:1;" />
    <path
       id="path106"
       d="M 236.558594 21.816406 C 237.183594 21.816406 237.710938 21.976562 238.140625 22.304688 C 238.546875 22.65625 238.746094 23.097656 238.746094 23.632812 C 238.746094 24.53125 238.285156 25.371094 237.359375 26.152344 C 236.421875 26.933594 235.421875 27.324219 234.351562 27.324219 C 233.726562 27.324219 233.199219 27.160156 232.769531 26.835938 C 232.367188 26.484375 232.164062 26.039062 232.164062 25.507812 C 232.164062 24.609375 232.632812 23.769531 233.570312 22.988281 C 234.484375 22.207031 235.480469 21.816406 236.558594 21.816406 Z M 236.558594 21.816406 "
       style=" stroke:none;fill-rule:nonzero;fill:rgb(0%,0%,0%);fill-opacity:1;" />
    <path
       id="path108"
       d="M 251.671875 21.816406 C 252.296875 21.816406 252.824219 21.976562 253.253906 22.304688 C 253.65625 22.65625 253.859375 23.097656 253.859375 23.632812 C 253.859375 24.53125 253.398438 25.371094 252.472656 26.152344 C 251.535156 26.933594 250.53125 27.324219 249.464844 27.324219 C 248.839844 27.324219 248.3125 27.160156 247.882812 26.835938 C 247.480469 26.484375 247.277344 26.039062 247.277344 25.507812 C 247.277344 24.609375 247.746094 23.769531 248.683594 22.988281 C 249.59375 22.207031 250.589844 21.816406 251.671875 21.816406 Z M 251.671875 21.816406 "
       style=" stroke:none;fill-rule:nonzero;fill:rgb(0%,0%,0%);fill-opacity:1;" />
    <path
       id="path110"
       d="M 264.308594 21.816406 C 264.933594 21.816406 265.460938 21.976562 265.890625 22.304688 C 266.292969 22.65625 266.496094 23.097656 266.496094 23.632812 C 266.496094 24.53125 266.035156 25.371094 265.109375 26.152344 C 264.171875 26.933594 263.167969 27.324219 262.101562 27.324219 C 261.476562 27.324219 260.949219 27.160156 260.519531 26.835938 C 260.117188 26.484375 259.914062 26.039062 259.914062 25.507812 C 259.914062 24.609375 260.382812 23.769531 261.320312 22.988281 C 262.230469 22.207031 263.226562 21.816406 264.308594 21.816406 Z M 264.308594 21.816406 "
       style=" stroke:none;fill-rule:nonzero;fill:rgb(0%,0%,0%);fill-opacity:1;" />
    <path
       id="path112"
       d="M 279.421875 21.816406 C 280.046875 21.816406 280.574219 21.976562 281.003906 22.304688 C 281.40625 22.65625 281.609375 23.097656 281.609375 23.632812 C 281.609375 24.53125 281.144531 25.371094 280.222656 26.152344 C 279.285156 26.933594 278.28125 27.324219 277.214844 27.324219 C 276.589844 27.324219 276.0625 27.160156 275.632812 26.835938 C 275.226562 26.484375 275.027344 26.039062 275.027344 25.507812 C 275.027344 24.609375 275.496094 23.769531 276.433594 22.988281 C 277.34375 22.207031 278.339844 21.816406 279.421875 21.816406 Z M 279.421875 21.816406 "
       style=" stroke:none;fill-rule:nonzero;fill:rgb(0%,0%,0%);fill-opacity:1;" />
    <path
       id="path114"
       d="M 302.609375 21.816406 C 303.234375 21.816406 303.761719 21.976562 304.191406 22.304688 C 304.59375 22.65625 304.796875 23.097656 304.796875 23.632812 C 304.796875 24.53125 304.332031 25.371094 303.410156 26.152344 C 302.472656 26.933594 301.46875 27.324219 300.402344 27.324219 C 299.777344 27.324219 299.25 27.160156 298.820312 26.835938 C 298.414062 26.484375 298.214844 26.039062 298.214844 25.507812 C 298.214844 24.609375 298.683594 23.769531 299.621094 22.988281 C 300.53125 22.207031 301.527344 21.816406 302.609375 21.816406 Z M 302.609375 21.816406 "
       style=" stroke:none;fill-rule:nonzero;fill:rgb(0%,0%,0%);fill-opacity:1;" />
    <path
       id="path116"
       d="M 332.230469 21.816406 C 332.855469 21.816406 333.382812 21.976562 333.8125 22.304688 C 334.21875 22.65625 334.417969 23.097656 334.417969 23.632812 C 334.417969 24.53125 333.957031 25.371094 333.03125 26.152344 C 332.09375 26.933594 331.09375 27.324219 330.023438 27.324219 C 329.398438 27.324219 328.871094 27.160156 328.441406 26.835938 C 328.039062 26.484375 327.835938 26.039062 327.835938 25.507812 C 327.835938 24.609375 328.304688 23.769531 329.242188 22.988281 C 330.15625 22.207031 331.152344 21.816406 332.230469 21.816406 Z M 332.230469 21.816406 "
       style=" stroke:none;fill-rule:nonzero;fill:rgb(0%,0%,0%);fill-opacity:1;" />
    <path
       id="path118"
       d="M 315.246094 21.816406 C 315.871094 21.816406 316.398438 21.976562 316.828125 22.304688 C 317.230469 22.65625 317.433594 23.097656 317.433594 23.632812 C 317.433594 24.53125 316.96875 25.371094 316.046875 26.152344 C 315.109375 26.933594 314.105469 27.324219 313.039062 27.324219 C 312.414062 27.324219 311.886719 27.160156 311.457031 26.835938 C 311.050781 26.484375 310.851562 26.039062 310.851562 25.507812 C 310.851562 24.609375 311.320312 23.769531 312.257812 22.988281 C 313.167969 22.207031 314.164062 21.816406 315.246094 21.816406 Z M 315.246094 21.816406 "
       style=" stroke:none;fill-rule:nonzero;fill:rgb(0%,0%,0%);fill-opacity:1;" />
    <path
       id="path120"
       d="M 344.871094 21.816406 C 345.496094 21.816406 346.023438 21.976562 346.453125 22.304688 C 346.855469 22.65625 347.058594 23.097656 347.058594 23.632812 C 347.058594 24.53125 346.59375 25.371094 345.671875 26.152344 C 344.734375 26.933594 343.730469 27.324219 342.664062 27.324219 C 342.039062 27.324219 341.511719 27.160156 341.082031 26.835938 C 340.675781 26.484375 340.476562 26.039062 340.476562 25.507812 C 340.476562 24.609375 340.945312 23.769531 341.882812 22.988281 C 342.792969 22.207031 343.789062 21.816406 344.871094 21.816406 Z M 344.871094 21.816406 "
       style=" stroke:none;fill-rule:nonzero;fill:rgb(0%,0%,0%);fill-opacity:1;" />
    <path
       id="path122"
       d="M 368.65625 21.816406 C 369.28125 21.816406 369.808594 21.976562 370.238281 22.304688 C 370.640625 22.65625 370.84375 23.097656 370.84375 23.632812 C 370.84375 24.53125 370.382812 25.371094 369.457031 26.152344 C 368.519531 26.933594 367.515625 27.324219 366.449219 27.324219 C 365.824219 27.324219 365.296875 27.160156 364.867188 26.835938 C 364.464844 26.484375 364.261719 26.039062 364.261719 25.507812 C 364.261719 24.609375 364.730469 23.769531 365.667969 22.988281 C 366.578125 22.207031 367.574219 21.816406 368.65625 21.816406 Z M 368.65625 21.816406 "
       style=" stroke:none;fill-rule:nonzero;fill:rgb(0%,0%,0%);fill-opacity:1;" />
    <path
       id="path124"
       d="M 389.65625 21.816406 C 390.28125 21.816406 390.808594 21.976562 391.238281 22.304688 C 391.644531 22.65625 391.84375 23.097656 391.84375 23.632812 C 391.84375 24.53125 391.382812 25.371094 390.457031 26.152344 C 389.519531 26.933594 388.519531 27.324219 387.449219 27.324219 C 386.824219 27.324219 386.296875 27.160156 385.867188 26.835938 C 385.464844 26.484375 385.261719 26.039062 385.261719 25.507812 C 385.261719 24.609375 385.730469 23.769531 386.667969 22.988281 C 387.582031 22.207031 388.578125 21.816406 389.65625 21.816406 Z M 389.65625 21.816406 "
       style=" stroke:none;fill-rule:nonzero;fill:rgb(0%,0%,0%);fill-opacity:1;" />
    <path
       id="path126"
       d="M 14.292969 21.953125 C 14.292969 21.953125 14.332031 21.953125 14.410156 21.953125 C 14.460938 21.9375 14.507812 21.933594 14.546875 21.933594 C 16.003906 21.933594 17.203125 22.445312 18.140625 23.476562 C 19.078125 24.492188 19.546875 25.675781 19.546875 27.03125 C 19.546875 28.710938 18.851562 30.078125 17.457031 31.132812 C 17.09375 31.417969 16.617188 31.652344 16.03125 31.835938 C 16.097656 32.679688 16.128906 33.363281 16.128906 33.886719 C 16.128906 33.988281 16.117188 34.367188 16.089844 35.019531 C 16.039062 36.230469 15.621094 37.277344 14.839844 38.164062 C 14.085938 39.035156 13.148438 39.472656 12.027344 39.472656 C 10.972656 39.472656 10.074219 39.101562 9.332031 38.359375 C 8.589844 37.601562 8.21875 36.691406 8.21875 35.625 C 8.21875 35.0625 8.433594 34.589844 8.863281 34.199219 C 9.304688 33.808594 9.820312 33.613281 10.40625 33.613281 C 10.925781 33.613281 11.363281 33.8125 11.714844 34.21875 C 12.078125 34.59375 12.261719 35.0625 12.261719 35.625 C 12.261719 36.132812 12.078125 36.566406 11.714844 36.933594 C 11.351562 37.296875 10.914062 37.480469 10.40625 37.480469 C 10.199219 37.480469 9.996094 37.441406 9.800781 37.363281 C 10.375 38.207031 11.136719 38.632812 12.085938 38.632812 C 12.984375 38.632812 13.71875 38.265625 14.292969 37.539062 C 14.890625 36.78125 15.21875 35.902344 15.269531 34.902344 C 15.296875 34.277344 15.308594 33.917969 15.308594 33.828125 C 15.308594 33.097656 15.28125 32.5 15.230469 32.03125 C 14.578125 32.132812 14 32.1875 13.492188 32.1875 C 11.683594 32.1875 10.140625 31.46875 8.863281 30.039062 C 7.613281 28.59375 6.988281 26.875 6.988281 24.882812 C 6.988281 24.464844 7.027344 24.042969 7.105469 23.613281 C 7.183594 23.261719 7.28125 22.875 7.398438 22.460938 C 7.464844 22.226562 7.640625 21.847656 7.925781 21.328125 C 8.03125 21.171875 8.148438 20.976562 8.277344 20.742188 C 8.40625 20.507812 8.5 20.351562 8.550781 20.273438 C 8.679688 20.011719 8.933594 19.660156 9.3125 19.21875 C 9.417969 19.101562 9.523438 18.96875 9.632812 18.828125 C 9.746094 18.683594 9.839844 18.566406 9.917969 18.476562 C 9.996094 18.382812 10.054688 18.3125 10.09375 18.261719 C 10.132812 18.207031 10.425781 17.863281 10.972656 17.226562 C 11.101562 17.09375 11.230469 16.957031 11.351562 16.804688 C 11.476562 16.65625 11.578125 16.539062 11.65625 16.453125 C 11.734375 16.371094 11.792969 16.308594 11.832031 16.269531 C 11.363281 14.71875 11.070312 13.480469 10.953125 12.558594 C 10.863281 11.816406 10.816406 10.800781 10.816406 9.511719 C 10.816406 8.378906 11.078125 7.316406 11.597656 6.328125 C 12.105469 5.296875 12.816406 4.457031 13.726562 3.808594 C 13.792969 3.769531 13.855469 3.75 13.921875 3.75 C 14.011719 3.75 14.078125 3.769531 14.117188 3.808594 C 14.820312 4.652344 15.425781 5.753906 15.933594 7.109375 C 16.453125 8.460938 16.714844 9.691406 16.714844 10.800781 C 16.714844 12.050781 16.414062 13.222656 15.816406 14.316406 C 15.140625 15.472656 14.265625 16.671875 13.199219 17.910156 C 13.472656 18.769531 13.835938 20.117188 14.292969 21.953125 Z M 15.953125 31.035156 C 16.628906 30.785156 17.15625 30.363281 17.535156 29.765625 C 17.953125 29.191406 18.160156 28.546875 18.160156 27.832031 C 18.160156 26.90625 17.847656 26.085938 17.222656 25.371094 C 16.585938 24.628906 15.769531 24.210938 14.78125 24.121094 C 15.339844 26.867188 15.730469 29.171875 15.953125 31.035156 Z M 8.394531 26.523438 C 8.394531 27.8125 8.914062 28.945312 9.957031 29.921875 C 11.023438 30.871094 12.222656 31.347656 13.550781 31.347656 C 14.097656 31.347656 14.632812 31.308594 15.152344 31.230469 C 14.945312 29.25 14.535156 26.878906 13.921875 24.121094 C 13.179688 24.199219 12.585938 24.457031 12.144531 24.902344 C 11.714844 25.355469 11.5 25.871094 11.5 26.445312 C 11.5 27.433594 12.027344 28.234375 13.082031 28.847656 C 13.171875 28.9375 13.21875 29.035156 13.21875 29.140625 C 13.21875 29.242188 13.171875 29.339844 13.082031 29.433594 C 13.003906 29.523438 12.90625 29.570312 12.789062 29.570312 C 12.777344 29.570312 12.71875 29.554688 12.613281 29.53125 C 11.871094 29.125 11.296875 28.605469 10.894531 27.96875 C 10.515625 27.289062 10.328125 26.605469 10.328125 25.917969 C 10.328125 25.019531 10.609375 24.203125 11.167969 23.476562 C 11.753906 22.746094 12.515625 22.277344 13.453125 22.070312 C 13.089844 20.609375 12.789062 19.472656 12.554688 18.652344 C 12.347656 18.886719 12.09375 19.167969 11.800781 19.5 C 11.507812 19.832031 11.335938 20.03125 11.285156 20.097656 C 10.816406 20.707031 10.457031 21.183594 10.210938 21.523438 C 9.769531 22.132812 9.441406 22.660156 9.234375 23.105469 C 9.011719 23.597656 8.816406 24.140625 8.648438 24.726562 C 8.480469 25.285156 8.394531 25.882812 8.394531 26.523438 Z M 14.917969 6.660156 C 13.941406 7.140625 13.171875 7.832031 12.613281 8.730469 C 12.039062 9.652344 11.753906 10.648438 11.753906 11.71875 C 11.753906 12.65625 11.988281 13.917969 12.457031 15.507812 C 13.394531 14.375 14.097656 13.324219 14.566406 12.363281 C 15.0625 11.347656 15.308594 10.285156 15.308594 9.179688 C 15.308594 8.34375 15.179688 7.503906 14.917969 6.660156 Z M 14.917969 6.660156 "
       style=" stroke:none;fill-rule:nonzero;fill:rgb(0%,0%,0%);fill-opacity:1;" />
    <path
       id="path128"
       d="M 28.277344 16.953125 C 27.785156 16.953125 27.476562 17.148438 27.359375 17.539062 C 27.269531 17.824219 27.222656 18.304688 27.222656 18.984375 L 27.222656 19.570312 C 27.222656 20.246094 27.269531 20.726562 27.359375 21.015625 C 27.476562 21.40625 27.785156 21.601562 28.277344 21.601562 C 28.824219 21.601562 29.171875 21.371094 29.3125 20.917969 C 29.445312 20.488281 29.507812 19.941406 29.507812 19.277344 C 29.507812 18.507812 29.4375 17.929688 29.292969 17.539062 C 29.136719 17.148438 28.800781 16.953125 28.277344 16.953125 Z M 27.222656 16.757812 C 27.613281 16.601562 27.964844 16.507812 28.277344 16.484375 C 29.320312 16.484375 30.152344 16.71875 30.777344 17.1875 C 31.378906 17.667969 31.675781 18.359375 31.675781 19.257812 C 31.675781 20.167969 31.371094 20.871094 30.757812 21.367188 C 30.148438 21.835938 29.320312 22.070312 28.277344 22.070312 C 27.210938 22.070312 26.378906 21.574219 25.777344 20.585938 C 25.179688 19.59375 24.878906 18.421875 24.878906 17.070312 C 24.878906 15.742188 25.230469 14.570312 25.933594 13.554688 C 26.652344 12.5625 27.570312 12.070312 28.6875 12.070312 C 29.417969 12.070312 30.0625 12.257812 30.621094 12.636719 C 31.167969 13.011719 31.441406 13.507812 31.441406 14.121094 C 31.441406 14.496094 31.3125 14.808594 31.050781 15.058594 C 30.816406 15.316406 30.519531 15.449219 30.152344 15.449219 C 29.789062 15.449219 29.476562 15.316406 29.214844 15.058594 C 28.957031 14.796875 28.824219 14.484375 28.824219 14.121094 C 28.824219 13.976562 28.957031 13.8125 29.214844 13.632812 C 29.476562 13.476562 29.605469 13.3125 29.605469 13.144531 C 29.605469 12.960938 29.515625 12.8125 29.332031 12.695312 C 29.125 12.589844 28.910156 12.539062 28.6875 12.539062 C 28.089844 12.539062 27.691406 12.777344 27.496094 13.261719 C 27.289062 13.730469 27.183594 14.414062 27.183594 15.3125 C 27.183594 15.570312 27.191406 15.8125 27.203125 16.035156 C 27.21875 16.253906 27.222656 16.496094 27.222656 16.757812 Z M 27.222656 16.757812 "
       style=" stroke:none;fill-rule:nonzero;fill:rgb(0%,0%,0%);fill-opacity:1;" />
    <path
       id="path130"
       d="M 29.710938 26.308594 C 30.363281 25.589844 30.6875 24.914062 30.6875 24.277344 C 30.6875 23.742188 30.460938 23.320312 30.003906 23.007812 C 29.5625 22.695312 29.015625 22.539062 28.363281 22.539062 C 27.910156 22.539062 27.542969 22.679688 27.269531 22.96875 C 26.996094 23.253906 26.859375 23.578125 26.859375 23.945312 C 26.859375 24.398438 27.0625 24.75 27.464844 25 Z M 30.316406 26.640625 C 31.425781 27.277344 31.976562 28.128906 31.976562 29.199219 C 31.976562 29.992188 31.644531 30.664062 30.980469 31.210938 C 30.316406 31.78125 29.386719 32.070312 28.1875 32.070312 C 27.171875 32.070312 26.320312 31.808594 25.628906 31.289062 C 24.902344 30.765625 24.535156 30.097656 24.535156 29.277344 C 24.535156 28.976562 24.628906 28.65625 24.808594 28.320312 C 24.980469 28.019531 25.148438 27.785156 25.316406 27.617188 C 25.394531 27.511719 25.644531 27.265625 26.058594 26.875 C 25.253906 26.300781 24.84375 25.589844 24.828125 24.746094 C 24.828125 24.027344 25.148438 23.398438 25.785156 22.851562 C 26.425781 22.328125 27.285156 22.070312 28.363281 22.070312 C 29.222656 22.070312 29.980469 22.265625 30.628906 22.65625 C 31.253906 23.046875 31.566406 23.585938 31.566406 24.277344 C 31.542969 24.980469 31.125 25.765625 30.316406 26.640625 Z M 26.664062 27.226562 C 25.859375 27.941406 25.441406 28.625 25.414062 29.277344 C 25.414062 29.941406 25.695312 30.492188 26.253906 30.9375 C 26.789062 31.378906 27.433594 31.601562 28.1875 31.601562 C 28.722656 31.601562 29.140625 31.429688 29.4375 31.09375 C 29.75 30.78125 29.90625 30.394531 29.90625 29.941406 C 29.90625 29.378906 29.679688 28.96875 29.222656 28.710938 Z M 26.664062 27.226562 "
       style=" stroke:none;fill-rule:nonzero;fill:rgb(0%,0%,0%);fill-opacity:1;" />
    <path
       id="path132"
       d="M 74.402344 9.570312 L 93.863281 9.570312 L 93.863281 12.070312 L 74.402344 12.070312 Z M 74.402344 9.570312 "
       style=" stroke:none;fill-rule:evenodd;fill:rgb(0%,0%,0%);fill-opacity:1;" />
    <path
       id="path134"
       d="M 169.023438 9.570312 L 189.625 9.570312 L 189.625 12.070312 L 169.023438 12.070312 Z M 169.023438 9.570312 "
       style=" stroke:none;fill-rule:evenodd;fill:rgb(0%,0%,0%);fill-opacity:1;" />
    <path
       id="path136"
       d="M 46.71875 13.320312 L 46.71875 8.320312 L 47.34375 8.320312 C 47.34375 9.0625 47.488281 9.804688 47.773438 10.546875 C 48.085938 11.351562 48.429688 12.054688 48.808594 12.65625 C 49.082031 13.085938 49.492188 13.742188 50.039062 14.628906 C 50.457031 15.304688 50.808594 16.015625 51.09375 16.757812 C 51.378906 17.5 51.523438 18.242188 51.523438 18.984375 C 51.523438 20.335938 51.242188 21.71875 50.683594 23.125 C 50.59375 23.28125 50.46875 23.359375 50.3125 23.359375 C 50.183594 23.359375 50.066406 23.304688 49.960938 23.203125 C 49.882812 23.125 49.84375 23.027344 49.84375 22.910156 L 49.84375 22.8125 C 50.402344 21.523438 50.683594 20.246094 50.683594 18.984375 C 50.683594 18.332031 50.488281 17.628906 50.097656 16.875 C 49.707031 16.105469 49.308594 15.492188 48.90625 15.039062 C 48.449219 14.503906 47.929688 13.929688 47.34375 13.320312 Z M 46.71875 13.320312 "
       style=" stroke:none;fill-rule:nonzero;fill:rgb(0%,0%,0%);fill-opacity:1;" />
    <path
       id="path138"
       d="M 111.59375 13.320312 L 111.59375 8.320312 L 112.21875 8.320312 C 112.21875 9.0625 112.363281 9.804688 112.648438 10.546875 C 112.960938 11.351562 113.308594 12.054688 113.683594 12.65625 C 113.957031 13.085938 114.367188 13.742188 114.914062 14.628906 C 115.332031 15.304688 115.683594 16.015625 115.96875 16.757812 C 116.257812 17.5 116.398438 18.242188 116.398438 18.984375 C 116.398438 20.335938 116.121094 21.71875 115.558594 23.125 C 115.46875 23.28125 115.34375 23.359375 115.1875 23.359375 C 115.058594 23.359375 114.941406 23.304688 114.835938 23.203125 C 114.757812 23.125 114.71875 23.027344 114.71875 22.910156 L 114.71875 22.8125 C 115.28125 21.523438 115.558594 20.246094 115.558594 18.984375 C 115.558594 18.332031 115.363281 17.628906 114.972656 16.875 C 114.582031 16.105469 114.1875 15.492188 113.78125 15.039062 C 113.328125 14.503906 112.804688 13.929688 112.21875 13.320312 Z M 111.59375 13.320312 "
       style=" stroke:none;fill-rule:nonzero;fill:rgb(0%,0%,0%);fill-opacity:1;" />
    <path
       id="path140"
       d="M 214.910156 13.320312 L 214.910156 8.320312 L 215.535156 8.320312 C 215.535156 9.0625 215.679688 9.804688 215.964844 10.546875 C 216.277344 11.351562 216.621094 12.054688 217 12.65625 C 217.273438 13.085938 217.683594 13.742188 218.230469 14.628906 C 218.648438 15.304688 219 16.015625 219.285156 16.757812 C 219.570312 17.5 219.714844 18.242188 219.714844 18.984375 C 219.714844 20.335938 219.433594 21.71875 218.875 23.125 C 218.785156 23.28125 218.660156 23.359375 218.503906 23.359375 C 218.375 23.359375 218.257812 23.304688 218.152344 23.203125 C 218.074219 23.125 218.035156 23.027344 218.035156 22.910156 L 218.035156 22.8125 C 218.59375 21.523438 218.875 20.246094 218.875 18.984375 C 218.875 18.332031 218.679688 17.628906 218.289062 16.875 C 217.898438 16.105469 217.5 15.492188 217.097656 15.039062 C 216.640625 14.503906 216.121094 13.929688 215.535156 13.320312 Z M 214.910156 13.320312 "
       style=" stroke:none;fill-rule:nonzero;fill:rgb(0%,0%,0%);fill-opacity:1;" />
    <path
       id="path142"
       d="M 253.210938 13.320312 L 253.210938 8.320312 L 253.835938 8.320312 C 253.835938 9.0625 253.976562 9.804688 254.265625 10.546875 C 254.578125 11.351562 254.921875 12.054688 255.300781 12.65625 C 255.574219 13.085938 255.984375 13.742188 256.53125 14.628906 C 256.945312 15.304688 257.296875 16.015625 257.585938 16.757812 C 257.871094 17.5 258.015625 18.242188 258.015625 18.984375 C 258.015625 20.335938 257.734375 21.71875 257.175781 23.125 C 257.082031 23.28125 256.960938 23.359375 256.804688 23.359375 C 256.671875 23.359375 256.554688 23.304688 256.453125 23.203125 C 256.375 23.125 256.335938 23.027344 256.335938 22.910156 L 256.335938 22.8125 C 256.894531 21.523438 257.175781 20.246094 257.175781 18.984375 C 257.175781 18.332031 256.980469 17.628906 256.589844 16.875 C 256.199219 16.105469 255.800781 15.492188 255.398438 15.039062 C 254.941406 14.503906 254.421875 13.929688 253.835938 13.320312 Z M 253.210938 13.320312 "
       style=" stroke:none;fill-rule:nonzero;fill:rgb(0%,0%,0%);fill-opacity:1;" />
    <path
       id="path144"
       d="M 280.957031 13.320312 L 280.957031 8.320312 L 281.582031 8.320312 C 281.582031 9.0625 281.726562 9.804688 282.011719 10.546875 C 282.324219 11.351562 282.671875 12.054688 283.046875 12.65625 C 283.320312 13.085938 283.730469 13.742188 284.277344 14.628906 C 284.695312 15.304688 285.046875 16.015625 285.332031 16.757812 C 285.621094 17.5 285.761719 18.242188 285.761719 18.984375 C 285.761719 20.335938 285.484375 21.71875 284.921875 23.125 C 284.832031 23.28125 284.707031 23.359375 284.550781 23.359375 C 284.421875 23.359375 284.304688 23.304688 284.199219 23.203125 C 284.121094 23.125 284.082031 23.027344 284.082031 22.910156 L 284.082031 22.8125 C 284.644531 21.523438 284.921875 20.246094 284.921875 18.984375 C 284.921875 18.332031 284.726562 17.628906 284.335938 16.875 C 283.945312 16.105469 283.550781 15.492188 283.144531 15.039062 C 282.691406 14.503906 282.167969 13.929688 281.582031 13.320312 Z M 280.957031 13.320312 "
       style=" stroke:none;fill-rule:nonzero;fill:rgb(0%,0%,0%);fill-opacity:1;" />
    <path
       id="path146"
       d="M 304.144531 13.320312 L 304.144531 8.320312 L 304.769531 8.320312 C 304.769531 9.0625 304.914062 9.804688 305.199219 10.546875 C 305.511719 11.351562 305.859375 12.054688 306.234375 12.65625 C 306.507812 13.085938 306.917969 13.742188 307.464844 14.628906 C 307.882812 15.304688 308.234375 16.015625 308.519531 16.757812 C 308.808594 17.5 308.949219 18.242188 308.949219 18.984375 C 308.949219 20.335938 308.671875 21.71875 308.109375 23.125 C 308.019531 23.28125 307.894531 23.359375 307.738281 23.359375 C 307.609375 23.359375 307.492188 23.304688 307.386719 23.203125 C 307.308594 23.125 307.269531 23.027344 307.269531 22.910156 L 307.269531 22.8125 C 307.832031 21.523438 308.109375 20.246094 308.109375 18.984375 C 308.109375 18.332031 307.914062 17.628906 307.523438 16.875 C 307.132812 16.105469 306.738281 15.492188 306.332031 15.039062 C 305.878906 14.503906 305.355469 13.929688 304.769531 13.320312 Z M 304.144531 13.320312 "
       style=" stroke:none;fill-rule:nonzero;fill:rgb(0%,0%,0%);fill-opacity:1;" />
    <path
       id="path148"
       d="M 333.769531 13.320312 L 333.769531 8.320312 L 334.394531 8.320312 C 334.394531 9.0625 334.539062 9.804688 334.824219 10.546875 C 335.136719 11.351562 335.484375 12.054688 335.859375 12.65625 C 336.132812 13.085938 336.542969 13.742188 337.089844 14.628906 C 337.507812 15.304688 337.859375 16.015625 338.144531 16.757812 C 338.433594 17.5 338.574219 18.242188 338.574219 18.984375 C 338.574219 20.335938 338.296875 21.71875 337.734375 23.125 C 337.644531 23.28125 337.519531 23.359375 337.363281 23.359375 C 337.234375 23.359375 337.117188 23.304688 337.011719 23.203125 C 336.933594 23.125 336.894531 23.027344 336.894531 22.910156 L 336.894531 22.8125 C 337.457031 21.523438 337.734375 20.246094 337.734375 18.984375 C 337.734375 18.332031 337.539062 17.628906 337.148438 16.875 C 336.757812 16.105469 336.363281 15.492188 335.957031 15.039062 C 335.503906 14.503906 334.980469 13.929688 334.394531 13.320312 Z M 333.769531 13.320312 "
       style=" stroke:none;fill-rule:nonzero;fill:rgb(0%,0%,0%);fill-opacity:1;" />
    <path
       id="path150"
       d="M 144.082031 25.371094 C 143.859375 25.148438 143.75 24.882812 143.75 24.570312 C 143.75 24.257812 143.859375 23.988281 144.082031 23.769531 C 144.304688 23.546875 144.570312 23.4375 144.882812 23.4375 C 145.195312 23.4375 145.460938 23.546875 145.683594 23.769531 C 145.90625 23.988281 146.015625 24.257812 146.015625 24.570312 C 146.015625 24.882812 145.90625 25.148438 145.683594 25.371094 C 145.460938 25.589844 145.195312 25.703125 144.882812 25.703125 C 144.570312 25.703125 144.304688 25.589844 144.082031 25.371094 Z M 144.082031 25.371094 "
       style=" stroke:none;fill-rule:nonzero;fill:rgb(0%,0%,0%);fill-opacity:1;" />
    <path
       id="path152"
       d="M 372.925781 25.371094 C 372.703125 25.148438 372.59375 24.882812 372.59375 24.570312 C 372.59375 24.257812 372.703125 23.988281 372.925781 23.769531 C 373.148438 23.546875 373.414062 23.4375 373.726562 23.4375 C 374.039062 23.4375 374.304688 23.546875 374.527344 23.769531 C 374.75 23.988281 374.859375 24.257812 374.859375 24.570312 C 374.859375 24.882812 374.75 25.148438 374.527344 25.371094 C 374.304688 25.589844 374.039062 25.703125 373.726562 25.703125 C 373.414062 25.703125 373.148438 25.589844 372.925781 25.371094 Z M 372.925781 25.371094 "
       style=" stroke:none;fill-rule:nonzero;fill:rgb(0%,0%,0%);fill-opacity:1;" />
    <path
       id="path154"
       d="M 393.929688 25.371094 C 393.707031 25.148438 393.597656 24.882812 393.597656 24.570312 C 393.597656 24.257812 393.707031 23.988281 393.929688 23.769531 C 394.148438 23.546875 394.417969 23.4375 394.730469 23.4375 C 395.042969 23.4375 395.308594 23.546875 395.53125 23.769531 C 395.75 23.988281 395.863281 24.257812 395.863281 24.570312 C 395.863281 24.882812 395.75 25.148438 395.53125 25.371094 C 395.308594 25.589844 395.042969 25.703125 394.730469 25.703125 C 394.417969 25.703125 394.148438 25.589844 393.929688 25.371094 Z M 393.929688 25.371094 "
       style=" stroke:none;fill-rule:nonzero;fill:rgb(0%,0%,0%);fill-opacity:1;" />
  </g>
</svg>
