<?xml version="1.0" encoding="UTF-8" standalone="no"?>
<svg
   xmlns:dc="http://purl.org/dc/elements/1.1/"
   xmlns:cc="http://creativecommons.org/ns#"
   xmlns:rdf="http://www.w3.org/1999/02/22-rdf-syntax-ns#"
   xmlns:svg="http://www.w3.org/2000/svg"
   xmlns="http://www.w3.org/2000/svg"
   xmlns:sodipodi="http://sodipodi.sourceforge.net/DTD/sodipodi-0.dtd"
   xmlns:inkscape="http://www.inkscape.org/namespaces/inkscape"
   inkscape:version="1.0 (4035a4f, 2020-05-01)"
   sodipodi:docname="ternary_rhythms_2.svg"
   id="svg733"
   version="1.2"
   viewBox="0 0 430 50"
   height="50pt"
   width="430pt">
  <metadata
     id="metadata739">
    <rdf:RDF>
      <cc:Work
         rdf:about="">
        <dc:format>image/svg+xml</dc:format>
        <dc:type
           rdf:resource="http://purl.org/dc/dcmitype/StillImage" />
        <dc:title></dc:title>
      </cc:Work>
    </rdf:RDF>
  </metadata>
  <defs
     id="defs737" />
  <sodipodi:namedview
     inkscape:current-layer="surface3248"
     inkscape:window-maximized="1"
     inkscape:window-y="23"
     inkscape:window-x="0"
     inkscape:cy="561.33337"
     inkscape:cx="396.66667"
     inkscape:zoom="0.57630637"
     showgrid="false"
     id="namedview735"
     inkscape:window-height="855"
     inkscape:window-width="1440"
     inkscape:pageshadow="2"
     inkscape:pageopacity="0"
     guidetolerance="10"
     gridtolerance="10"
     objecttolerance="10"
     borderopacity="1"
     bordercolor="#666666"
     pagecolor="#ffffff" />
  <g
     id="surface3248">
    <path
       id="path10"
       d="m 378.15234,28.32029 c 4.11719,2.73047 16.47657,2.73047 20.59766,0 -4.12109,3.53125 -16.48047,3.53125 -20.59766,0 z m 0,0"
       style="fill:#000000;fill-opacity:1;fill-rule:evenodd;stroke:#000000;stroke-width:0.350022;stroke-linecap:round;stroke-linejoin:round;stroke-miterlimit:10;stroke-opacity:1" />
    <path
       id="path18"
       d="m 3.75,12.07029 h 95.3125 m -95.3125,5 h 95.3125 m -95.3125,5 h 95.3125 m -95.3125,5 h 95.3125 m -95.3125,5 h 95.3125"
       style="fill:none;stroke:#000000;stroke-width:0.400025;stroke-linecap:butt;stroke-linejoin:bevel;stroke-miterlimit:10;stroke-opacity:1" />
    <path
       id="path20"
       d="m 99.0625,12.07029 h 58.86719 m -58.86719,5 h 58.86719 m -58.86719,5 h 58.86719 m -58.86719,5 h 58.86719 m -58.86719,5 h 58.86719"
       style="fill:none;stroke:#000000;stroke-width:0.400025;stroke-linecap:butt;stroke-linejoin:bevel;stroke-miterlimit:10;stroke-opacity:1" />
    <path
       id="path26"
       d="m 157.92969,12.07029 h 71.5039 m -71.5039,5 h 71.5039 m -71.5039,5 h 71.5039 m -71.5039,5 h 71.5039 m -71.5039,5 h 71.5039"
       style="fill:none;stroke:#000000;stroke-width:0.400025;stroke-linecap:butt;stroke-linejoin:bevel;stroke-miterlimit:10;stroke-opacity:1" />
    <path
       id="path28"
       d="m 229.43359,12.07029 h 71.50391 m -71.50391,5 h 71.50391 m -71.50391,5 h 71.50391 m -71.50391,5 h 71.50391 m -71.50391,5 h 71.50391"
       style="fill:none;stroke:#000000;stroke-width:0.400025;stroke-linecap:butt;stroke-linejoin:bevel;stroke-miterlimit:10;stroke-opacity:1" />
    <path
       id="path44"
       d="m 300.9375,12.07029 h 66.69922 m -66.69922,5 h 66.69922 m -66.69922,5 h 66.69922 m -66.69922,5 h 66.69922 m -66.69922,5 h 66.69922"
       style="fill:none;stroke:#000000;stroke-width:0.400025;stroke-linecap:butt;stroke-linejoin:bevel;stroke-miterlimit:10;stroke-opacity:1" />
    <path
       id="path46"
       d="m 367.63672,12.07029 h 51.07812 m -51.07812,5 h 51.07812 m -51.07812,5 h 51.07812 m -51.07812,5 h 51.07812 m -51.07812,5 h 51.07812"
       style="fill:none;stroke:#000000;stroke-width:0.364622;stroke-linecap:butt;stroke-linejoin:bevel;stroke-miterlimit:10;stroke-opacity:1" />
    <path
       id="path80"
       d="m 98.664063,12.07029 v 20"
       style="fill:none;stroke:#000000;stroke-width:0.80005;stroke-linecap:butt;stroke-linejoin:bevel;stroke-miterlimit:10;stroke-opacity:1" />
    <path
       id="path86"
       d="m 157.53125,12.07029 v 20"
       style="fill:none;stroke:#000000;stroke-width:0.80005;stroke-linecap:butt;stroke-linejoin:bevel;stroke-miterlimit:10;stroke-opacity:1" />
    <path
       id="path88"
       d="m 229.03516,12.07029 v 20"
       style="fill:none;stroke:#000000;stroke-width:0.80005;stroke-linecap:butt;stroke-linejoin:bevel;stroke-miterlimit:10;stroke-opacity:1" />
    <path
       id="path104"
       d="m 300.53906,12.07029 v 20"
       style="fill:none;stroke:#000000;stroke-width:0.80005;stroke-linecap:butt;stroke-linejoin:bevel;stroke-miterlimit:10;stroke-opacity:1" />
    <path
       id="path106"
       d="m 367.23828,12.07029 v 20"
       style="fill:none;stroke:#000000;stroke-width:0.80005;stroke-linecap:butt;stroke-linejoin:bevel;stroke-miterlimit:10;stroke-opacity:1" />
    <path
       id="path108"
       d="m 418.71484,12.07029 v 20"
       style="fill:none;stroke:#000000;stroke-width:0.80005;stroke-linecap:butt;stroke-linejoin:bevel;stroke-miterlimit:10;stroke-opacity:1" />
    <path
       id="path148"
       d="M 47.046875,23.63279 V 8.32029"
       style="fill:none;stroke:#000000;stroke-width:0.650041;stroke-linecap:round;stroke-linejoin:bevel;stroke-miterlimit:10;stroke-opacity:1" />
    <path
       id="path150"
       d="M 75.785156,23.63279 V 8.32029"
       style="fill:none;stroke:#000000;stroke-width:0.650041;stroke-linecap:round;stroke-linejoin:bevel;stroke-miterlimit:10;stroke-opacity:1" />
    <path
       id="path152"
       d="M 63.144532,23.63279 V 8.32029"
       style="fill:none;stroke:#000000;stroke-width:0.650041;stroke-linecap:round;stroke-linejoin:bevel;stroke-miterlimit:10;stroke-opacity:1" />
    <path
       id="path154"
       d="M 121.33594,23.63279 V 10.82029"
       style="fill:none;stroke:#000000;stroke-width:0.650041;stroke-linecap:round;stroke-linejoin:bevel;stroke-miterlimit:10;stroke-opacity:1" />
    <path
       id="path156"
       d="M 111.32422,23.63279 V 10.82029"
       style="fill:none;stroke:#000000;stroke-width:0.650041;stroke-linecap:round;stroke-linejoin:bevel;stroke-miterlimit:10;stroke-opacity:1" />
    <path
       id="path158"
       d="M 88.421875,23.63279 V 8.32029"
       style="fill:none;stroke:#000000;stroke-width:0.650041;stroke-linecap:round;stroke-linejoin:bevel;stroke-miterlimit:10;stroke-opacity:1" />
    <path
       id="path182"
       d="M 147.36719,23.63279 V 8.32029"
       style="fill:none;stroke:#000000;stroke-width:0.650041;stroke-linecap:round;stroke-linejoin:bevel;stroke-miterlimit:10;stroke-opacity:1" />
    <path
       id="path184"
       d="M 131.34766,23.63279 V 8.32029"
       style="fill:none;stroke:#000000;stroke-width:0.650041;stroke-linecap:round;stroke-linejoin:bevel;stroke-miterlimit:10;stroke-opacity:1" />
    <path
       id="path186"
       d="M 188.17969,23.63279 V 8.32029"
       style="fill:none;stroke:#000000;stroke-width:0.650041;stroke-linecap:round;stroke-linejoin:bevel;stroke-miterlimit:10;stroke-opacity:1" />
    <path
       id="path188"
       d="M 170.1875,23.63279 V 8.32029"
       style="fill:none;stroke:#000000;stroke-width:0.650041;stroke-linecap:round;stroke-linejoin:bevel;stroke-miterlimit:10;stroke-opacity:1" />
    <path
       id="path190"
       d="M 223.30859,23.63279 V 10.82029"
       style="fill:none;stroke:#000000;stroke-width:0.650041;stroke-linecap:round;stroke-linejoin:bevel;stroke-miterlimit:10;stroke-opacity:1" />
    <path
       id="path192"
       d="M 212.0625,23.63279 V 10.82029"
       style="fill:none;stroke:#000000;stroke-width:0.650041;stroke-linecap:round;stroke-linejoin:bevel;stroke-miterlimit:10;stroke-opacity:1" />
    <path
       id="path194"
       d="M 200.81641,23.63279 V 10.82029"
       style="fill:none;stroke:#000000;stroke-width:0.650041;stroke-linecap:round;stroke-linejoin:bevel;stroke-miterlimit:10;stroke-opacity:1" />
    <path
       id="path196"
       d="M 264.32813,23.63279 V 10.82029"
       style="fill:none;stroke:#000000;stroke-width:0.650041;stroke-linecap:round;stroke-linejoin:bevel;stroke-miterlimit:10;stroke-opacity:1" />
    <path
       id="path198"
       d="M 253.01172,23.63279 V 10.82029"
       style="fill:none;stroke:#000000;stroke-width:0.650041;stroke-linecap:round;stroke-linejoin:bevel;stroke-miterlimit:10;stroke-opacity:1" />
    <path
       id="path200"
       d="M 241.69141,23.63279 V 10.82029"
       style="fill:none;stroke:#000000;stroke-width:0.650041;stroke-linecap:round;stroke-linejoin:bevel;stroke-miterlimit:10;stroke-opacity:1" />
    <path
       id="path246"
       d="M 288.28516,23.63279 V 8.32029"
       style="fill:none;stroke:#000000;stroke-width:0.650041;stroke-linecap:round;stroke-linejoin:bevel;stroke-miterlimit:10;stroke-opacity:1" />
    <path
       id="path248"
       d="M 275.64844,23.63279 V 8.32029"
       style="fill:none;stroke:#000000;stroke-width:0.650041;stroke-linecap:round;stroke-linejoin:bevel;stroke-miterlimit:10;stroke-opacity:1" />
    <path
       id="path250"
       d="M 334.20313,23.63279 V 8.32029"
       style="fill:none;stroke:#000000;stroke-width:0.650041;stroke-linecap:round;stroke-linejoin:bevel;stroke-miterlimit:10;stroke-opacity:1" />
    <path
       id="path252"
       d="M 323.69922,23.63279 V 10.82029"
       style="fill:none;stroke:#000000;stroke-width:0.650041;stroke-linecap:round;stroke-linejoin:bevel;stroke-miterlimit:10;stroke-opacity:1" />
    <path
       id="path254"
       d="M 313.19531,23.63279 V 10.82029"
       style="fill:none;stroke:#000000;stroke-width:0.650041;stroke-linecap:round;stroke-linejoin:bevel;stroke-miterlimit:10;stroke-opacity:1" />
    <path
       id="path256"
       d="M 380.25781,23.80076 V 8.32029"
       style="fill:none;stroke:#000000;stroke-width:0.650041;stroke-linecap:round;stroke-linejoin:bevel;stroke-miterlimit:10;stroke-opacity:1" />
    <path
       id="path258"
       d="M 361.51172,23.63279 V 10.82029"
       style="fill:none;stroke:#000000;stroke-width:0.650041;stroke-linecap:round;stroke-linejoin:bevel;stroke-miterlimit:10;stroke-opacity:1" />
    <path
       id="path260"
       d="M 351.00781,23.63279 V 10.82029"
       style="fill:none;stroke:#000000;stroke-width:0.650041;stroke-linecap:round;stroke-linejoin:bevel;stroke-miterlimit:10;stroke-opacity:1" />
    <path
       id="path262"
       d="M 412.98828,23.63279 V 10.82029"
       style="fill:none;stroke:#000000;stroke-width:0.650041;stroke-linecap:round;stroke-linejoin:bevel;stroke-miterlimit:10;stroke-opacity:1" />
    <path
       id="path264"
       d="M 402.70313,23.63279 V 10.82029"
       style="fill:none;stroke:#000000;stroke-width:0.650041;stroke-linecap:round;stroke-linejoin:bevel;stroke-miterlimit:10;stroke-opacity:1" />
    <path
       id="path378"
       d="m 45.183594,21.81638 c 0.625,0 1.152344,0.16406 1.582031,0.48828 0.402344,0.35157 0.605469,0.79297 0.605469,1.32813 0,0.89844 -0.460938,1.73828 -1.386719,2.51953 -0.9375,0.78125 -1.941406,1.17187 -3.007812,1.17187 -0.625,0 -1.152344,-0.16406 -1.582031,-0.48828 -0.402344,-0.35156 -0.605469,-0.79297 -0.605469,-1.32812 0,-0.89844 0.46875,-1.73828 1.40625,-2.51953 0.910156,-0.78125 1.90625,-1.17188 2.988281,-1.17188 z m 0,0"
       style="fill:#000000;fill-opacity:1;fill-rule:nonzero;stroke:none" />
    <path
       id="path380"
       d="m 86.558594,21.81638 c 0.625,0 1.152344,0.16406 1.582031,0.48828 0.40625,0.35157 0.605469,0.79297 0.605469,1.32813 0,0.89844 -0.460938,1.73828 -1.386719,2.51953 -0.9375,0.78125 -1.941406,1.17187 -3.007812,1.17187 -0.625,0 -1.152344,-0.16406 -1.582031,-0.48828 -0.402344,-0.35156 -0.605469,-0.79297 -0.605469,-1.32812 0,-0.89844 0.46875,-1.73828 1.40625,-2.51953 0.910156,-0.78125 1.90625,-1.17188 2.988281,-1.17188 z m 0,0"
       style="fill:#000000;fill-opacity:1;fill-rule:nonzero;stroke:none" />
    <path
       id="path382"
       d="m 73.921875,21.81638 c 0.625,0 1.152344,0.16406 1.582031,0.48828 0.402344,0.35157 0.605469,0.79297 0.605469,1.32813 0,0.89844 -0.464843,1.73828 -1.386719,2.51953 -0.9375,0.78125 -1.941406,1.17187 -3.007812,1.17187 -0.625,0 -1.152344,-0.16406 -1.582031,-0.48828 -0.40625,-0.35156 -0.605469,-0.79297 -0.605469,-1.32812 0,-0.89844 0.46875,-1.73828 1.40625,-2.51953 0.910156,-0.78125 1.90625,-1.17188 2.988281,-1.17188 z m 0,0"
       style="fill:#000000;fill-opacity:1;fill-rule:nonzero;stroke:none" />
    <path
       id="path384"
       d="m 61.28125,21.81638 c 0.625,0 1.152344,0.16406 1.582032,0.48828 0.40625,0.35157 0.605468,0.79297 0.605468,1.32813 0,0.89844 -0.460937,1.73828 -1.386718,2.51953 -0.9375,0.78125 -1.9375,1.17187 -3.007813,1.17187 -0.625,0 -1.152344,-0.16406 -1.582031,-0.48828 -0.402344,-0.35156 -0.605469,-0.79297 -0.605469,-1.32812 0,-0.89844 0.46875,-1.73828 1.40625,-2.51953 0.914063,-0.78125 1.910156,-1.17188 2.988281,-1.17188 z m 0,0"
       style="fill:#000000;fill-opacity:1;fill-rule:nonzero;stroke:none" />
    <path
       id="path386"
       d="m 119.47266,21.81638 c 0.625,0 1.15234,0.16406 1.58203,0.48828 0.40234,0.35157 0.60547,0.79297 0.60547,1.32813 0,0.89844 -0.46485,1.73828 -1.38672,2.51953 -0.9375,0.78125 -1.94141,1.17187 -3.00781,1.17187 -0.625,0 -1.15235,-0.16406 -1.58204,-0.48828 -0.40625,-0.35156 -0.60546,-0.79297 -0.60546,-1.32812 0,-0.89844 0.46875,-1.73828 1.40625,-2.51953 0.91015,-0.78125 1.90625,-1.17188 2.98828,-1.17188 z m 0,0"
       style="fill:#000000;fill-opacity:1;fill-rule:nonzero;stroke:none" />
    <path
       id="path388"
       d="m 109.45703,21.81638 c 0.625,0 1.15235,0.16406 1.58203,0.48828 0.40625,0.35157 0.60938,0.79297 0.60938,1.32813 0,0.89844 -0.46485,1.73828 -1.39063,2.51953 -0.9375,0.78125 -1.9375,1.17187 -3.00781,1.17187 -0.625,0 -1.15234,-0.16406 -1.58203,-0.48828 -0.40234,-0.35156 -0.60547,-0.79297 -0.60547,-1.32812 0,-0.89844 0.46875,-1.73828 1.40625,-2.51953 0.91406,-0.78125 1.91016,-1.17188 2.98828,-1.17188 z m 0,0"
       style="fill:#000000;fill-opacity:1;fill-rule:nonzero;stroke:none" />
    <path
       id="path410"
       d="m 145.50391,21.81638 c 0.625,0 1.15234,0.16406 1.58203,0.48828 0.40234,0.35157 0.60547,0.79297 0.60547,1.32813 0,0.89844 -0.46094,1.73828 -1.38672,2.51953 -0.9375,0.78125 -1.94141,1.17187 -3.00781,1.17187 -0.625,0 -1.15235,-0.16406 -1.58204,-0.48828 -0.40234,-0.35156 -0.60546,-0.79297 -0.60546,-1.32812 0,-0.89844 0.46875,-1.73828 1.40625,-2.51953 0.91015,-0.78125 1.90625,-1.17188 2.98828,-1.17188 z m 0,0"
       style="fill:#000000;fill-opacity:1;fill-rule:nonzero;stroke:none" />
    <path
       id="path412"
       d="m 129.48438,21.81638 c 0.625,0 1.15234,0.16406 1.58203,0.48828 0.40234,0.35157 0.60547,0.79297 0.60547,1.32813 0,0.89844 -0.46094,1.73828 -1.38672,2.51953 -0.9375,0.78125 -1.94141,1.17187 -3.00782,1.17187 -0.625,0 -1.15234,-0.16406 -1.58203,-0.48828 -0.40234,-0.35156 -0.60547,-0.79297 -0.60547,-1.32812 0,-0.89844 0.46875,-1.73828 1.40625,-2.51953 0.91016,-0.78125 1.90625,-1.17188 2.98829,-1.17188 z m 0,0"
       style="fill:#000000;fill-opacity:1;fill-rule:nonzero;stroke:none" />
    <path
       id="path414"
       d="m 198.95313,21.81638 c 0.625,0 1.15234,0.16406 1.58203,0.48828 0.40625,0.35157 0.60547,0.79297 0.60547,1.32813 0,0.89844 -0.46094,1.73828 -1.38672,2.51953 -0.9375,0.78125 -1.9375,1.17187 -3.00782,1.17187 -0.625,0 -1.15234,-0.16406 -1.58203,-0.48828 -0.40234,-0.35156 -0.60547,-0.79297 -0.60547,-1.32812 0,-0.89844 0.46875,-1.73828 1.40625,-2.51953 0.91407,-0.78125 1.91016,-1.17188 2.98829,-1.17188 z m 0,0"
       style="fill:#000000;fill-opacity:1;fill-rule:nonzero;stroke:none" />
    <path
       id="path416"
       d="m 186.31641,21.81638 c 0.625,0 1.15234,0.16406 1.58203,0.48828 0.40234,0.35157 0.60547,0.79297 0.60547,1.32813 0,0.89844 -0.46094,1.73828 -1.38672,2.51953 -0.9375,0.78125 -1.94141,1.17187 -3.00781,1.17187 -0.625,0 -1.15235,-0.16406 -1.58204,-0.48828 -0.40234,-0.35156 -0.60546,-0.79297 -0.60546,-1.32812 0,-0.89844 0.46875,-1.73828 1.40625,-2.51953 0.91015,-0.78125 1.90625,-1.17188 2.98828,-1.17188 z m 0,0"
       style="fill:#000000;fill-opacity:1;fill-rule:nonzero;stroke:none" />
    <path
       id="path418"
       d="m 168.32422,21.81638 c 0.625,0 1.15234,0.16406 1.58203,0.48828 0.40234,0.35157 0.60547,0.79297 0.60547,1.32813 0,0.89844 -0.46094,1.73828 -1.38672,2.51953 -0.9375,0.78125 -1.94141,1.17187 -3.00781,1.17187 -0.625,0 -1.15235,-0.16406 -1.58203,-0.48828 -0.40235,-0.35156 -0.60547,-0.79297 -0.60547,-1.32812 0,-0.89844 0.46875,-1.73828 1.40625,-2.51953 0.91015,-0.78125 1.90625,-1.17188 2.98828,-1.17188 z m 0,0"
       style="fill:#000000;fill-opacity:1;fill-rule:nonzero;stroke:none" />
    <path
       id="path420"
       d="m 239.82813,21.81638 c 0.625,0 1.15234,0.16406 1.58203,0.48828 0.40234,0.35157 0.60547,0.79297 0.60547,1.32813 0,0.89844 -0.46094,1.73828 -1.38672,2.51953 -0.9375,0.78125 -1.94141,1.17187 -3.00782,1.17187 -0.625,0 -1.15234,-0.16406 -1.58203,-0.48828 -0.40234,-0.35156 -0.60547,-0.79297 -0.60547,-1.32812 0,-0.89844 0.46875,-1.73828 1.40625,-2.51953 0.91016,-0.78125 1.90625,-1.17188 2.98829,-1.17188 z m 0,0"
       style="fill:#000000;fill-opacity:1;fill-rule:nonzero;stroke:none" />
    <path
       id="path422"
       d="m 221.44531,21.81638 c 0.625,0 1.15235,0.16406 1.58203,0.48828 0.40235,0.35157 0.60547,0.79297 0.60547,1.32813 0,0.89844 -0.46093,1.73828 -1.38672,2.51953 -0.9375,0.78125 -1.9414,1.17187 -3.00781,1.17187 -0.625,0 -1.15234,-0.16406 -1.58203,-0.48828 -0.40625,-0.35156 -0.60547,-0.79297 -0.60547,-1.32812 0,-0.89844 0.46875,-1.73828 1.40625,-2.51953 0.91016,-0.78125 1.90625,-1.17188 2.98828,-1.17188 z m 0,0"
       style="fill:#000000;fill-opacity:1;fill-rule:nonzero;stroke:none" />
    <path
       id="path424"
       d="m 210.19922,21.81638 c 0.625,0 1.15234,0.16406 1.58203,0.48828 0.40234,0.35157 0.60547,0.79297 0.60547,1.32813 0,0.89844 -0.46094,1.73828 -1.38672,2.51953 -0.9375,0.78125 -1.94141,1.17187 -3.00781,1.17187 -0.625,0 -1.15235,-0.16406 -1.58203,-0.48828 -0.40235,-0.35156 -0.60547,-0.79297 -0.60547,-1.32812 0,-0.89844 0.46875,-1.73828 1.40625,-2.51953 0.91015,-0.78125 1.90625,-1.17188 2.98828,-1.17188 z m 0,0"
       style="fill:#000000;fill-opacity:1;fill-rule:nonzero;stroke:none" />
    <path
       id="path426"
       d="m 273.78516,21.81638 c 0.625,0 1.15234,0.16406 1.58203,0.48828 0.40234,0.35157 0.60547,0.79297 0.60547,1.32813 0,0.89844 -0.46485,1.73828 -1.38672,2.51953 -0.9375,0.78125 -1.94141,1.17187 -3.00781,1.17187 -0.625,0 -1.15235,-0.16406 -1.58204,-0.48828 -0.40625,-0.35156 -0.60546,-0.79297 -0.60546,-1.32812 0,-0.89844 0.46875,-1.73828 1.40625,-2.51953 0.91015,-0.78125 1.90625,-1.17188 2.98828,-1.17188 z m 0,0"
       style="fill:#000000;fill-opacity:1;fill-rule:nonzero;stroke:none" />
    <path
       id="path428"
       d="m 262.46484,21.81638 c 0.625,0 1.15235,0.16406 1.58204,0.48828 0.40625,0.35157 0.60546,0.79297 0.60546,1.32813 0,0.89844 -0.46093,1.73828 -1.38671,2.51953 -0.9375,0.78125 -1.9375,1.17187 -3.00782,1.17187 -0.625,0 -1.15234,-0.16406 -1.58203,-0.48828 -0.40234,-0.35156 -0.60547,-0.79297 -0.60547,-1.32812 0,-0.89844 0.46875,-1.73828 1.40625,-2.51953 0.91407,-0.78125 1.91016,-1.17188 2.98828,-1.17188 z m 0,0"
       style="fill:#000000;fill-opacity:1;fill-rule:nonzero;stroke:none" />
    <path
       id="path430"
       d="m 251.14844,21.81638 c 0.625,0 1.15234,0.16406 1.58203,0.48828 0.40234,0.35157 0.60547,0.79297 0.60547,1.32813 0,0.89844 -0.46485,1.73828 -1.38672,2.51953 -0.9375,0.78125 -1.94141,1.17187 -3.00781,1.17187 -0.625,0 -1.15235,-0.16406 -1.58203,-0.48828 -0.40625,-0.35156 -0.60547,-0.79297 -0.60547,-1.32812 0,-0.89844 0.46875,-1.73828 1.40625,-2.51953 0.91015,-0.78125 1.90625,-1.17188 2.98828,-1.17188 z m 0,0"
       style="fill:#000000;fill-opacity:1;fill-rule:nonzero;stroke:none" />
    <path
       id="path476"
       d="m 311.33203,21.81638 c 0.625,0 1.15235,0.16406 1.58203,0.48828 0.40625,0.35157 0.60547,0.79297 0.60547,1.32813 0,0.89844 -0.46094,1.73828 -1.38672,2.51953 -0.9375,0.78125 -1.9414,1.17187 -3.00781,1.17187 -0.625,0 -1.15234,-0.16406 -1.58203,-0.48828 -0.40234,-0.35156 -0.60547,-0.79297 -0.60547,-1.32812 0,-0.89844 0.46875,-1.73828 1.40625,-2.51953 0.91016,-0.78125 1.90625,-1.17188 2.98828,-1.17188 z m 0,0"
       style="fill:#000000;fill-opacity:1;fill-rule:nonzero;stroke:none" />
    <path
       id="path478"
       d="m 286.42188,21.81638 c 0.625,0 1.15234,0.16406 1.58203,0.48828 0.40625,0.35157 0.60547,0.79297 0.60547,1.32813 0,0.89844 -0.46094,1.73828 -1.38672,2.51953 -0.9375,0.78125 -1.94141,1.17187 -3.00782,1.17187 -0.625,0 -1.15234,-0.16406 -1.58203,-0.48828 -0.40234,-0.35156 -0.60547,-0.79297 -0.60547,-1.32812 0,-0.89844 0.46875,-1.73828 1.40625,-2.51953 0.91016,-0.78125 1.90625,-1.17188 2.98829,-1.17188 z m 0,0"
       style="fill:#000000;fill-opacity:1;fill-rule:nonzero;stroke:none" />
    <path
       id="path480"
       d="m 349.14453,21.81638 c 0.625,0 1.15235,0.16406 1.58203,0.48828 0.40235,0.35157 0.60547,0.79297 0.60547,1.32813 0,0.89844 -0.46094,1.73828 -1.38672,2.51953 -0.9375,0.78125 -1.9414,1.17187 -3.00781,1.17187 -0.625,0 -1.15234,-0.16406 -1.58203,-0.48828 -0.40234,-0.35156 -0.60547,-0.79297 -0.60547,-1.32812 0,-0.89844 0.46875,-1.73828 1.40625,-2.51953 0.91016,-0.78125 1.90625,-1.17188 2.98828,-1.17188 z m 0,0"
       style="fill:#000000;fill-opacity:1;fill-rule:nonzero;stroke:none" />
    <path
       id="path482"
       d="m 332.33984,21.81638 c 0.625,0 1.15235,0.16406 1.58204,0.48828 0.40234,0.35157 0.60546,0.79297 0.60546,1.32813 0,0.89844 -0.46093,1.73828 -1.38671,2.51953 -0.9375,0.78125 -1.94141,1.17187 -3.00782,1.17187 -0.625,0 -1.15234,-0.16406 -1.58203,-0.48828 -0.40625,-0.35156 -0.60547,-0.79297 -0.60547,-1.32812 0,-0.89844 0.46875,-1.73828 1.40625,-2.51953 0.91016,-0.78125 1.90625,-1.17188 2.98828,-1.17188 z m 0,0"
       style="fill:#000000;fill-opacity:1;fill-rule:nonzero;stroke:none" />
    <path
       id="path484"
       d="m 321.83594,21.81638 c 0.625,0 1.15234,0.16406 1.58203,0.48828 0.40234,0.35157 0.60547,0.79297 0.60547,1.32813 0,0.89844 -0.46094,1.73828 -1.38672,2.51953 -0.9375,0.78125 -1.94141,1.17187 -3.00781,1.17187 -0.625,0 -1.15235,-0.16406 -1.58203,-0.48828 -0.40235,-0.35156 -0.60547,-0.79297 -0.60547,-1.32812 0,-0.89844 0.46875,-1.73828 1.40625,-2.51953 0.91015,-0.78125 1.90625,-1.17188 2.98828,-1.17188 z m 0,0"
       style="fill:#000000;fill-opacity:1;fill-rule:nonzero;stroke:none" />
    <path
       id="path486"
       d="m 379.94531,23.26169 c 0,-0.22265 -0.0859,-0.41015 -0.2539,-0.5664 -0.16797,-0.16797 -0.36328,-0.25391 -0.58594,-0.25391 -0.39063,0 -1.17969,0.39063 -2.36328,1.17188 -1.22266,0.79297 -1.97266,1.35937 -2.2461,1.69922 -0.14453,0.18359 -0.21484,0.37109 -0.21484,0.5664 0,0.22266 0.0859,0.41016 0.25391,0.56641 0.15625,0.16797 0.35156,0.2539 0.58593,0.2539 0.37891,0 1.17188,-0.39062 2.38282,-1.17187 1.19922,-0.78125 1.9414,-1.34766 2.22656,-1.69922 0.14453,-0.16797 0.21484,-0.35937 0.21484,-0.56641 z m -1.03515,-1.44531 c 1.12109,0 1.67968,0.48047 1.67968,1.44531 0,0.46875 -0.13671,1.01563 -0.41015,1.64063 -0.27344,0.61328 -0.63672,1.08203 -1.09375,1.40625 -1.00391,0.67578 -2.25781,1.01562 -3.76953,1.01562 -1.1211,0 -1.67969,-0.48046 -1.67969,-1.44531 0,-0.42969 0.13672,-0.96875 0.41016,-1.62109 0.26171,-0.625 0.625,-1.10156 1.09375,-1.42578 1.0039,-0.67578 2.25781,-1.01563 3.76953,-1.01563 z m 0,0"
       style="fill:#000000;fill-opacity:1;fill-rule:nonzero;stroke:none" />
    <path
       id="path488"
       d="m 359.64844,21.81638 c 0.625,0 1.15234,0.16406 1.58203,0.48828 0.40234,0.35157 0.60547,0.79297 0.60547,1.32813 0,0.89844 -0.46485,1.73828 -1.38672,2.51953 -0.9375,0.78125 -1.94141,1.17187 -3.00781,1.17187 -0.625,0 -1.15235,-0.16406 -1.58203,-0.48828 -0.40625,-0.35156 -0.60547,-0.79297 -0.60547,-1.32812 0,-0.89844 0.46875,-1.73828 1.40625,-2.51953 0.91015,-0.78125 1.90625,-1.17188 2.98828,-1.17188 z m 0,0"
       style="fill:#000000;fill-opacity:1;fill-rule:nonzero;stroke:none" />
    <path
       id="path490"
       d="m 411.125,21.81638 c 0.625,0 1.15234,0.16406 1.58203,0.48828 0.40625,0.35157 0.60547,0.79297 0.60547,1.32813 0,0.89844 -0.46094,1.73828 -1.38672,2.51953 -0.9375,0.78125 -1.9375,1.17187 -3.00781,1.17187 -0.625,0 -1.15234,-0.16406 -1.58203,-0.48828 -0.40235,-0.35156 -0.60547,-0.79297 -0.60547,-1.32812 0,-0.89844 0.46875,-1.73828 1.40625,-2.51953 0.91406,-0.78125 1.91016,-1.17188 2.98828,-1.17188 z m 0,0"
       style="fill:#000000;fill-opacity:1;fill-rule:nonzero;stroke:none" />
    <path
       id="path492"
       d="m 400.83984,21.81638 c 0.625,0 1.15235,0.16406 1.58204,0.48828 0.40625,0.35157 0.60546,0.79297 0.60546,1.32813 0,0.89844 -0.46093,1.73828 -1.38671,2.51953 -0.9375,0.78125 -1.9375,1.17187 -3.00782,1.17187 -0.625,0 -1.15234,-0.16406 -1.58203,-0.48828 -0.40234,-0.35156 -0.60547,-0.79297 -0.60547,-1.32812 0,-0.89844 0.46875,-1.73828 1.40625,-2.51953 0.91407,-0.78125 1.91016,-1.17188 2.98828,-1.17188 z m 0,0"
       style="fill:#000000;fill-opacity:1;fill-rule:nonzero;stroke:none" />
    <path
       id="path598"
       d="m 14.292969,21.9531 c 0,0 0.03906,0 0.117187,0 0.05078,-0.0117 0.09766,-0.0195 0.136719,-0.0195 1.457031,0 2.65625,0.51562 3.59375,1.54297 0.9375,1.01562 1.40625,2.19922 1.40625,3.55469 0,1.67968 -0.695312,3.04687 -2.089843,4.10156 -0.363282,0.28515 -0.839844,0.51953 -1.425782,0.70312 0.06641,0.84766 0.09766,1.53125 0.09766,2.05078 0,0.10547 -0.01172,0.48047 -0.03906,1.13282 -0.05078,1.21093 -0.46875,2.26172 -1.25,3.14453 -0.753906,0.875 -1.691406,1.30859 -2.8125,1.30859 -1.054688,0 -1.953125,-0.37109 -2.695312,-1.11328 -0.742188,-0.75391 -1.113282,-1.66406 -1.113282,-2.73437 0,-0.5586 0.214844,-1.03516 0.644532,-1.42579 0.441406,-0.39062 0.957031,-0.58593 1.542968,-0.58593 0.519532,0 0.957032,0.20312 1.308594,0.60547 0.363281,0.3789 0.546875,0.84765 0.546875,1.40625 0,0.50781 -0.183594,0.94531 -0.546875,1.30859 -0.363281,0.36719 -0.800781,0.54687 -1.308594,0.54687 -0.207031,0 -0.410156,-0.0391 -0.605468,-0.11718 0.574218,0.84765 1.335937,1.26953 2.285156,1.26953 0.898437,0 1.632812,-0.36328 2.207031,-1.09375 0.597656,-0.75391 0.925781,-1.63281 0.976563,-2.63672 0.02734,-0.625 0.03906,-0.98438 0.03906,-1.07422 0,-0.73047 -0.02734,-1.32812 -0.07813,-1.79687 -0.652344,0.10546 -1.230469,0.15625 -1.738281,0.15625 -1.808594,0 -3.351563,-0.71485 -4.628906,-2.14844 -1.25,-1.44531 -1.875,-3.16406 -1.875,-5.15625 0,-0.41797 0.039062,-0.83985 0.117187,-1.26953 0.078125,-0.35157 0.175781,-0.73438 0.292969,-1.15235 0.066406,-0.23437 0.242187,-0.61328 0.527344,-1.13281 0.105468,-0.15625 0.222656,-0.35156 0.351562,-0.58594 0.128906,-0.23437 0.222656,-0.39062 0.273438,-0.46875 0.128906,-0.26172 0.382812,-0.61328 0.761718,-1.05468 0.105469,-0.11719 0.210938,-0.2461 0.320313,-0.39063 0.113281,-0.14453 0.207031,-0.26172 0.285156,-0.35156 0.078125,-0.0898 0.136719,-0.16406 0.175781,-0.21485 0.03906,-0.0508 0.332032,-0.39843 0.878906,-1.03515 0.128907,-0.12891 0.257813,-0.26953 0.382813,-0.42188 0.121094,-0.14843 0.222656,-0.26562 0.300781,-0.35156 0.07813,-0.082 0.136719,-0.14453 0.175782,-0.18359 -0.46875,-1.55078 -0.761719,-2.78907 -0.878907,-3.71094 -0.08984,-0.74219 -0.136719,-1.75781 -0.136719,-3.04688 0,-1.13281 0.261719,-2.19531 0.78125,-3.18359 0.507813,-1.03125 1.21875,-1.87109 2.128907,-2.51953 0.06641,-0.0391 0.128906,-0.0586 0.195312,-0.0586 0.08984,0 0.15625,0.0195 0.195313,0.0586 0.703125,0.84375 1.308594,1.94531 1.816406,3.30078 0.519531,1.35156 0.78125,2.58203 0.78125,3.69141 0,1.25 -0.300781,2.42187 -0.898438,3.51562 -0.675781,1.16016 -1.550781,2.35547 -2.617187,3.59375 0.273437,0.85938 0.636719,2.20703 1.09375,4.04297 z m 1.660156,9.08203 c 0.675781,-0.24609 1.203125,-0.67187 1.582031,-1.26953 0.417969,-0.57422 0.625,-1.21875 0.625,-1.93359 0,-0.92578 -0.3125,-1.7461 -0.9375,-2.46094 -0.636718,-0.74219 -1.453124,-1.16016 -2.441406,-1.25 0.558594,2.74609 0.949219,5.05078 1.171875,6.91406 z M 8.394532,26.52341 c 0,1.28907 0.519531,2.42188 1.5625,3.39844 1.066406,0.94922 2.265624,1.42578 3.59375,1.42578 0.546874,0 1.082031,-0.0391 1.601562,-0.11719 -0.207031,-1.98046 -0.617188,-4.34765 -1.230469,-7.10937 -0.742187,0.0781 -1.335937,0.33984 -1.777343,0.78125 C 11.714844,25.35935 11.5,25.87107 11.5,26.44529 c 0,0.98828 0.527344,1.78906 1.582032,2.40234 0.08984,0.0898 0.136718,0.1875 0.136718,0.29297 0,0.10547 -0.04687,0.20313 -0.136718,0.29297 -0.07813,0.0898 -0.175782,0.13672 -0.292969,0.13672 -0.01172,0 -0.07031,-0.0117 -0.175781,-0.0391 -0.742188,-0.40235 -1.316407,-0.92579 -1.71875,-1.5625 -0.378907,-0.67579 -0.566407,-1.35938 -0.566407,-2.05079 0,-0.89843 0.28125,-1.71093 0.839844,-2.4414 0.585937,-0.73047 1.347656,-1.19922 2.285156,-1.40625 -0.363281,-1.45703 -0.664062,-2.59766 -0.898437,-3.41797 -0.207032,0.23437 -0.457032,0.51562 -0.75,0.84766 -0.292969,0.33203 -0.46875,0.53125 -0.519532,0.59765 -0.46875,0.61328 -0.828124,1.08594 -1.074218,1.42578 C 9.769532,22.13665 9.441406,22.664 9.234375,23.1054 9.011719,23.6015 8.816406,24.14056 8.648438,24.7265 8.480469,25.28509 8.394532,25.88665 8.394532,26.52337 Z M 14.917969,6.66013 c -0.976563,0.48047 -1.746094,1.17188 -2.304687,2.07031 -0.574219,0.92188 -0.859376,1.91797 -0.859376,2.98829 0,0.9375 0.234376,2.19921 0.703126,3.78906 0.9375,-1.13281 1.640624,-2.1836 2.109374,-3.14453 0.496094,-1.01563 0.742188,-2.07813 0.742188,-3.1836 0,-0.83593 -0.128906,-1.67578 -0.390625,-2.51953 z m 0,0"
       style="fill:#000000;fill-opacity:1;fill-rule:nonzero;stroke:none" />
    <path
       id="path610"
       d="m 28.28125,16.9531 c -0.496094,0 -0.800781,0.19531 -0.917968,0.58594 -0.09375,0.28515 -0.136719,0.76953 -0.136719,1.44531 v 0.58594 c 0,0.67578 0.04297,1.16015 0.136719,1.44531 0.117187,0.39063 0.421874,0.58594 0.917968,0.58594 0.546875,0 0.890625,-0.22656 1.035156,-0.6836 0.128907,-0.42968 0.195313,-0.97656 0.195313,-1.64062 0,-0.76953 -0.07422,-1.34766 -0.214844,-1.73828 -0.15625,-0.39063 -0.496093,-0.58594 -1.015625,-0.58594 z m -1.054687,-0.19531 c 0.390625,-0.15625 0.742187,-0.2461 1.054687,-0.27344 1.039063,0 1.875,0.23438 2.5,0.70313 0.597656,0.48046 0.898438,1.17187 0.898438,2.07031 0,0.91015 -0.308594,1.61328 -0.917969,2.10937 -0.613281,0.46875 -1.441406,0.70313 -2.480469,0.70313 -1.070312,0 -1.902344,-0.4961 -2.5,-1.48438 -0.601562,-0.98828 -0.898437,-2.16015 -0.898437,-3.51562 0,-1.32813 0.351562,-2.5 1.054687,-3.51563 0.714844,-0.99218 1.632813,-1.48437 2.753906,-1.48437 0.726563,0 1.371094,0.1875 1.933594,0.5664 0.546875,0.375 0.820313,0.8711 0.820313,1.48438 0,0.37891 -0.132813,0.69141 -0.390625,0.9375 -0.234375,0.26172 -0.535156,0.39062 -0.898438,0.39062 -0.367187,0 -0.679687,-0.1289 -0.9375,-0.39062 -0.261718,-0.26172 -0.390625,-0.57422 -0.390625,-0.9375 0,-0.14453 0.128907,-0.30859 0.390625,-0.48828 0.257813,-0.15625 0.390625,-0.32031 0.390625,-0.48828 0,-0.1836 -0.09375,-0.33203 -0.273437,-0.44922 -0.210938,-0.10547 -0.425782,-0.15625 -0.644532,-0.15625 -0.601562,0 -0.996093,0.23828 -1.191406,0.72265 -0.210937,0.46875 -0.3125,1.15235 -0.3125,2.05079 0,0.26171 0.0039,0.5 0.01953,0.72265 0.01172,0.22266 0.01953,0.46094 0.01953,0.72266 z m 0,0"
       style="fill:#000000;fill-opacity:1;fill-rule:nonzero;stroke:none" />
    <path
       id="path612"
       d="m 29.714844,26.30857 c 0.648438,-0.71484 0.976562,-1.39453 0.976562,-2.03125 0,-0.53516 -0.230468,-0.95703 -0.683593,-1.26953 -0.445313,-0.3125 -0.992188,-0.46875 -1.640625,-0.46875 -0.457032,0 -0.820313,0.14453 -1.09375,0.42969 -0.273438,0.28515 -0.410156,0.61328 -0.410156,0.97656 0,0.45703 0.199218,0.80859 0.605468,1.05469 z m 0.605469,0.33203 c 1.105469,0.63672 1.660156,1.49219 1.660156,2.55859 0,0.79297 -0.332031,1.46485 -0.996094,2.01172 -0.664062,0.57422 -1.597656,0.85938 -2.792969,0.85938 -1.015624,0 -1.871093,-0.26172 -2.558593,-0.78125 -0.730469,-0.51953 -1.09375,-1.19141 -1.09375,-2.01172 0,-0.30078 0.08984,-0.61719 0.273437,-0.95703 0.167969,-0.30078 0.335938,-0.53516 0.507813,-0.70313 0.07813,-0.10547 0.324219,-0.35156 0.742187,-0.74218 -0.808594,-0.57422 -1.21875,-1.28125 -1.230468,-2.12891 0,-0.71484 0.316406,-1.34766 0.957031,-1.89453 0.636719,-0.51953 1.496093,-0.78125 2.578125,-0.78125 0.859375,0 1.613281,0.19531 2.265625,0.58594 0.625,0.39062 0.9375,0.92968 0.9375,1.62109 -0.02734,0.70312 -0.445313,1.49219 -1.25,2.36328 z m -3.652344,0.58594 c -0.808594,0.71484 -1.226563,1.39844 -1.25,2.05078 0,0.66406 0.277344,1.21875 0.839844,1.66016 0.53125,0.4414 1.175781,0.66406 1.933593,0.66406 0.53125,0 0.949219,-0.16797 1.25,-0.50781 0.3125,-0.3125 0.46875,-0.69532 0.46875,-1.15235 0,-0.55859 -0.230468,-0.96875 -0.683593,-1.23047 z m 0,0"
       style="fill:#000000;fill-opacity:1;fill-rule:nonzero;stroke:none" />
    <path
       id="path626"
       d="m 110.99609,9.57029 h 10.66407 v 2.5 h -10.66407 z m 0,0"
       style="fill:#000000;fill-opacity:1;fill-rule:evenodd;stroke:none" />
    <path
       id="path634"
       d="m 200.49219,9.57029 h 23.14062 v 2.5 h -23.14062 z m 0,0"
       style="fill:#000000;fill-opacity:1;fill-rule:evenodd;stroke:none" />
    <path
       id="path636"
       d="m 241.36719,9.57029 h 23.28515 v 2.5 h -23.28515 z m 0,0"
       style="fill:#000000;fill-opacity:1;fill-rule:evenodd;stroke:none" />
    <path
       id="path646"
       d="m 312.87109,9.57029 h 11.15235 v 2.5 h -11.15235 z m 0,0"
       style="fill:#000000;fill-opacity:1;fill-rule:evenodd;stroke:none" />
    <path
       id="path648"
       d="m 350.68359,9.57029 h 11.15235 v 2.5 h -11.15235 z m 0,0"
       style="fill:#000000;fill-opacity:1;fill-rule:evenodd;stroke:none" />
    <path
       id="path650"
       d="m 402.37891,9.57029 h 10.9375 v 2.5 h -10.9375 z m 0,0"
       style="fill:#000000;fill-opacity:1;fill-rule:evenodd;stroke:none" />
    <path
       id="path662"
       d="m 75.460938,13.32029 v -5 h 0.625 c 0,0.74219 0.140625,1.48437 0.429687,2.22656 0.3125,0.80469 0.65625,1.50781 1.035157,2.10938 0.273437,0.42968 0.683593,1.08593 1.230468,1.97265 0.414063,0.67578 0.765625,1.38672 1.054688,2.12891 0.285156,0.74219 0.429687,1.48437 0.429687,2.22656 0,1.35547 -0.28125,2.73438 -0.839843,4.14063 -0.09375,0.15625 -0.214844,0.23437 -0.371094,0.23437 -0.132813,0 -0.25,-0.0508 -0.351563,-0.15625 -0.07813,-0.0781 -0.117187,-0.17578 -0.117187,-0.29297 v -0.0977 c 0.558594,-1.28907 0.839844,-2.56641 0.839844,-3.82813 0,-0.65234 -0.195313,-1.35547 -0.585938,-2.10937 -0.390625,-0.76954 -0.789062,-1.37891 -1.191406,-1.83594 -0.457032,-0.53516 -0.976563,-1.10938 -1.5625,-1.71875 z m 0,0"
       style="fill:#000000;fill-opacity:1;fill-rule:nonzero;stroke:none" />
    <path
       id="path664"
       d="m 62.820313,13.32029 v -5 h 0.625 c 0,0.74219 0.144531,1.48437 0.429687,2.22656 0.3125,0.80469 0.660156,1.50781 1.035156,2.10938 0.273438,0.42968 0.683594,1.08593 1.230469,1.97265 0.417969,0.67578 0.769531,1.38672 1.054688,2.12891 0.289062,0.74219 0.429687,1.48437 0.429687,2.22656 0,1.35547 -0.277344,2.73438 -0.839844,4.14063 -0.08984,0.15625 -0.214843,0.23437 -0.371093,0.23437 -0.128907,0 -0.246094,-0.0508 -0.351563,-0.15625 -0.07813,-0.0781 -0.117187,-0.17578 -0.117187,-0.29297 v -0.0977 c 0.5625,-1.28907 0.839843,-2.56641 0.839843,-3.82813 0,-0.65234 -0.195312,-1.35547 -0.585937,-2.10937 -0.390625,-0.76954 -0.785156,-1.37891 -1.191406,-1.83594 -0.453125,-0.53516 -0.976563,-1.10938 -1.5625,-1.71875 z m 0,0"
       style="fill:#000000;fill-opacity:1;fill-rule:nonzero;stroke:none" />
    <path
       id="path666"
       d="m 187.85547,13.32029 v -5 h 0.625 c 0,0.74219 0.14453,1.48437 0.42969,2.22656 0.3125,0.80469 0.65625,1.50781 1.03515,2.10938 0.27344,0.42968 0.6836,1.08593 1.23047,1.97265 0.41797,0.67578 0.76953,1.38672 1.05469,2.12891 0.28516,0.74219 0.42969,1.48437 0.42969,2.22656 0,1.35547 -0.28125,2.73438 -0.83985,4.14063 -0.0898,0.15625 -0.21484,0.23437 -0.37109,0.23437 -0.12891,0 -0.24609,-0.0508 -0.35156,-0.15625 -0.0781,-0.0781 -0.11719,-0.17578 -0.11719,-0.29297 v -0.0977 c 0.55859,-1.28907 0.83984,-2.56641 0.83984,-3.82813 0,-0.65234 -0.19531,-1.35547 -0.58593,-2.10937 -0.39063,-0.76954 -0.78907,-1.37891 -1.19141,-1.83594 -0.45703,-0.53516 -0.97656,-1.10938 -1.5625,-1.71875 z m 0,0"
       style="fill:#000000;fill-opacity:1;fill-rule:nonzero;stroke:none" />
    <path
       id="path674"
       d="m 275.32422,13.32029 v -5 h 0.625 c 0,0.74219 0.14062,1.48437 0.42969,2.22656 0.3125,0.80469 0.65625,1.50781 1.03515,2.10938 0.27344,0.42968 0.6836,1.08593 1.23047,1.97265 0.41406,0.67578 0.76563,1.38672 1.05469,2.12891 0.28516,0.74219 0.42969,1.48437 0.42969,2.22656 0,1.35547 -0.28125,2.73438 -0.83985,4.14063 -0.0937,0.15625 -0.21484,0.23437 -0.37109,0.23437 -0.13281,0 -0.25,-0.0508 -0.35156,-0.15625 -0.0781,-0.0781 -0.11719,-0.17578 -0.11719,-0.29297 v -0.0977 c 0.55859,-1.28907 0.83984,-2.56641 0.83984,-3.82813 0,-0.65234 -0.19531,-1.35547 -0.58593,-2.10937 -0.39063,-0.76954 -0.78907,-1.37891 -1.19141,-1.83594 -0.45703,-0.53516 -0.97656,-1.10938 -1.5625,-1.71875 z m 0,0"
       style="fill:#000000;fill-opacity:1;fill-rule:nonzero;stroke:none" />
  </g>
</svg>
