<?xml version="1.0" encoding="UTF-8" standalone="no"?>
<svg
   xmlns:dc="http://purl.org/dc/elements/1.1/"
   xmlns:cc="http://creativecommons.org/ns#"
   xmlns:rdf="http://www.w3.org/1999/02/22-rdf-syntax-ns#"
   xmlns:svg="http://www.w3.org/2000/svg"
   xmlns="http://www.w3.org/2000/svg"
   xmlns:sodipodi="http://sodipodi.sourceforge.net/DTD/sodipodi-0.dtd"
   xmlns:inkscape="http://www.inkscape.org/namespaces/inkscape"
   inkscape:version="1.0 (4035a4f, 2020-05-01)"
   sodipodi:docname="rhythms_binary_1.svg"
   id="svg131"
   version="1.2"
   viewBox="0 0 350 50"
   height="50pt"
   width="350pt">
  <metadata
     id="metadata137">
    <rdf:RDF>
      <cc:Work
         rdf:about="">
        <dc:format>image/svg+xml</dc:format>
        <dc:type
           rdf:resource="http://purl.org/dc/dcmitype/StillImage" />
        <dc:title></dc:title>
      </cc:Work>
    </rdf:RDF>
  </metadata>
  <defs
     id="defs135" />
  <sodipodi:namedview
     inkscape:current-layer="svg131"
     inkscape:window-maximized="0"
     inkscape:window-y="23"
     inkscape:window-x="0"
     inkscape:cy="33.333333"
     inkscape:cx="233.33333"
     inkscape:zoom="2.7407143"
     showgrid="false"
     id="namedview133"
     inkscape:window-height="480"
     inkscape:window-width="741"
     inkscape:pageshadow="2"
     inkscape:pageopacity="0"
     guidetolerance="10"
     gridtolerance="10"
     objecttolerance="10"
     borderopacity="1"
     bordercolor="#666666"
     pagecolor="#ffffff" />
  <g
     id="surface3219">
    <path
       id="path10"
       d="M 3.75 11.128906 L 58.550781 11.128906 M 3.75 15.5625 L 58.550781 15.5625 M 3.75 19.996094 L 58.550781 19.996094 M 3.75 24.429688 L 58.550781 24.429688 M 3.75 28.863281 L 58.550781 28.863281 "
       style="fill:none;stroke-width:0.354671;stroke-linecap:butt;stroke-linejoin:bevel;stroke:rgb(0%,0%,0%);stroke-opacity:1;stroke-miterlimit:10;" />
    <path
       id="path12"
       d="M 58.550781 11.128906 L 93.550781 11.128906 M 58.550781 15.5625 L 93.550781 15.5625 M 58.550781 19.996094 L 93.550781 19.996094 M 58.550781 24.429688 L 93.550781 24.429688 M 58.550781 28.863281 L 93.550781 28.863281 "
       style="fill:none;stroke-width:0.354671;stroke-linecap:butt;stroke-linejoin:bevel;stroke:rgb(0%,0%,0%);stroke-opacity:1;stroke-miterlimit:10;" />
    <path
       id="path14"
       d="M 93.550781 11.128906 L 141.960938 11.128906 M 93.550781 15.5625 L 141.960938 15.5625 M 93.550781 19.996094 L 141.960938 19.996094 M 93.550781 24.429688 L 141.960938 24.429688 M 93.550781 28.863281 L 141.960938 28.863281 "
       style="fill:none;stroke-width:0.354671;stroke-linecap:butt;stroke-linejoin:bevel;stroke:rgb(0%,0%,0%);stroke-opacity:1;stroke-miterlimit:10;" />
    <path
       id="path16"
       d="M 141.960938 11.128906 L 183.742188 11.128906 M 141.960938 15.5625 L 183.742188 15.5625 M 141.960938 19.996094 L 183.742188 19.996094 M 141.960938 24.429688 L 183.742188 24.429688 M 141.960938 28.863281 L 183.742188 28.863281 "
       style="fill:none;stroke-width:0.354671;stroke-linecap:butt;stroke-linejoin:bevel;stroke:rgb(0%,0%,0%);stroke-opacity:1;stroke-miterlimit:10;" />
    <path
       id="path18"
       d="M 183.742188 11.128906 L 225.367188 11.128906 M 183.742188 15.5625 L 225.367188 15.5625 M 183.742188 19.996094 L 225.367188 19.996094 M 183.742188 24.429688 L 225.367188 24.429688 M 183.742188 28.863281 L 225.367188 28.863281 "
       style="fill:none;stroke-width:0.354671;stroke-linecap:butt;stroke-linejoin:bevel;stroke:rgb(0%,0%,0%);stroke-opacity:1;stroke-miterlimit:10;" />
    <path
       id="path20"
       d="M 225.367188 11.128906 L 263.609375 11.128906 M 225.367188 15.5625 L 263.609375 15.5625 M 225.367188 19.996094 L 263.609375 19.996094 M 225.367188 24.429688 L 263.609375 24.429688 M 225.367188 28.863281 L 263.609375 28.863281 "
       style="fill:none;stroke-width:0.354671;stroke-linecap:butt;stroke-linejoin:bevel;stroke:rgb(0%,0%,0%);stroke-opacity:1;stroke-miterlimit:10;" />
    <path
       id="path22"
       d="M 263.609375 11.128906 L 302.007812 11.128906 M 263.609375 15.5625 L 302.007812 15.5625 M 263.609375 19.996094 L 302.007812 19.996094 M 263.609375 24.429688 L 302.007812 24.429688 M 263.609375 28.863281 L 302.007812 28.863281 "
       style="fill:none;stroke-width:0.354671;stroke-linecap:butt;stroke-linejoin:bevel;stroke:rgb(0%,0%,0%);stroke-opacity:1;stroke-miterlimit:10;" />
    <path
       id="path24"
       d="M 302.007812 11.128906 L 343.792969 11.128906 M 302.007812 15.5625 L 343.792969 15.5625 M 302.007812 19.996094 L 343.792969 19.996094 M 302.007812 24.429688 L 343.792969 24.429688 M 302.007812 28.863281 L 343.792969 28.863281 "
       style="fill:none;stroke-width:0.354671;stroke-linecap:butt;stroke-linejoin:bevel;stroke:rgb(0%,0%,0%);stroke-opacity:1;stroke-miterlimit:10;" />
    <path
       id="path26"
       d="M 58.195312 11.128906 L 58.195312 28.863281 "
       style="fill:none;stroke-width:0.709342;stroke-linecap:butt;stroke-linejoin:bevel;stroke:rgb(0%,0%,0%);stroke-opacity:1;stroke-miterlimit:10;" />
    <path
       id="path28"
       d="M 93.195312 11.128906 L 93.195312 28.863281 "
       style="fill:none;stroke-width:0.709342;stroke-linecap:butt;stroke-linejoin:bevel;stroke:rgb(0%,0%,0%);stroke-opacity:1;stroke-miterlimit:10;" />
    <path
       id="path30"
       d="M 141.605469 11.128906 L 141.605469 28.863281 "
       style="fill:none;stroke-width:0.709342;stroke-linecap:butt;stroke-linejoin:bevel;stroke:rgb(0%,0%,0%);stroke-opacity:1;stroke-miterlimit:10;" />
    <path
       id="path32"
       d="M 183.390625 11.128906 L 183.390625 28.863281 "
       style="fill:none;stroke-width:0.709342;stroke-linecap:butt;stroke-linejoin:bevel;stroke:rgb(0%,0%,0%);stroke-opacity:1;stroke-miterlimit:10;" />
    <path
       id="path34"
       d="M 225.011719 11.128906 L 225.011719 28.863281 "
       style="fill:none;stroke-width:0.709342;stroke-linecap:butt;stroke-linejoin:bevel;stroke:rgb(0%,0%,0%);stroke-opacity:1;stroke-miterlimit:10;" />
    <path
       id="path36"
       d="M 263.253906 11.128906 L 263.253906 28.863281 "
       style="fill:none;stroke-width:0.709342;stroke-linecap:butt;stroke-linejoin:bevel;stroke:rgb(0%,0%,0%);stroke-opacity:1;stroke-miterlimit:10;" />
    <path
       id="path38"
       d="M 301.652344 11.128906 L 301.652344 28.863281 "
       style="fill:none;stroke-width:0.709342;stroke-linecap:butt;stroke-linejoin:bevel;stroke:rgb(0%,0%,0%);stroke-opacity:1;stroke-miterlimit:10;" />
    <path
       id="path40"
       d="M 343.4375 11.128906 L 343.4375 28.863281 "
       style="fill:none;stroke-width:0.709342;stroke-linecap:butt;stroke-linejoin:bevel;stroke:rgb(0%,0%,0%);stroke-opacity:1;stroke-miterlimit:10;" />
    <path
       id="path42"
       d="M 84.144531 21.53125 L 84.144531 7.804688 "
       style="fill:none;stroke-width:0.57634;stroke-linecap:round;stroke-linejoin:bevel;stroke:rgb(0%,0%,0%);stroke-opacity:1;stroke-miterlimit:10;" />
    <path
       id="path44"
       d="M 69.738281 21.53125 L 69.738281 7.804688 "
       style="fill:none;stroke-width:0.57634;stroke-linecap:round;stroke-linejoin:bevel;stroke:rgb(0%,0%,0%);stroke-opacity:1;stroke-miterlimit:10;" />
    <path
       id="path46"
       d="M 104.417969 21.378906 L 104.417969 7.804688 "
       style="fill:none;stroke-width:0.57634;stroke-linecap:round;stroke-linejoin:bevel;stroke:rgb(0%,0%,0%);stroke-opacity:1;stroke-miterlimit:10;" />
    <path
       id="path48"
       d="M 115.011719 21.378906 L 115.011719 7.804688 "
       style="fill:none;stroke-width:0.57634;stroke-linecap:round;stroke-linejoin:bevel;stroke:rgb(0%,0%,0%);stroke-opacity:1;stroke-miterlimit:10;" />
    <path
       id="path50"
       d="M 136.203125 21.378906 L 136.203125 7.804688 "
       style="fill:none;stroke-width:0.57634;stroke-linecap:round;stroke-linejoin:bevel;stroke:rgb(0%,0%,0%);stroke-opacity:1;stroke-miterlimit:10;" />
    <path
       id="path52"
       d="M 125.609375 21.378906 L 125.609375 7.804688 "
       style="fill:none;stroke-width:0.57634;stroke-linecap:round;stroke-linejoin:bevel;stroke:rgb(0%,0%,0%);stroke-opacity:1;stroke-miterlimit:10;" />
    <path
       id="path54"
       d="M 152.828125 21.378906 L 152.828125 7.804688 "
       style="fill:none;stroke-width:0.57634;stroke-linecap:round;stroke-linejoin:bevel;stroke:rgb(0%,0%,0%);stroke-opacity:1;stroke-miterlimit:10;" />
    <path
       id="path56"
       d="M 172.851562 21.53125 L 172.851562 7.804688 "
       style="fill:none;stroke-width:0.57634;stroke-linecap:round;stroke-linejoin:bevel;stroke:rgb(0%,0%,0%);stroke-opacity:1;stroke-miterlimit:10;" />
    <path
       id="path58"
       d="M 162.761719 21.378906 L 162.761719 7.804688 "
       style="fill:none;stroke-width:0.57634;stroke-linecap:round;stroke-linejoin:bevel;stroke:rgb(0%,0%,0%);stroke-opacity:1;stroke-miterlimit:10;" />
    <path
       id="path60"
       d="M 194.933594 21.53125 L 194.933594 7.804688 "
       style="fill:none;stroke-width:0.57634;stroke-linecap:round;stroke-linejoin:bevel;stroke:rgb(0%,0%,0%);stroke-opacity:1;stroke-miterlimit:10;" />
    <path
       id="path62"
       d="M 210.257812 21.378906 L 210.257812 7.804688 "
       style="fill:none;stroke-width:0.57634;stroke-linecap:round;stroke-linejoin:bevel;stroke:rgb(0%,0%,0%);stroke-opacity:1;stroke-miterlimit:10;" />
    <path
       id="path64"
       d="M 219.9375 21.378906 L 219.9375 7.804688 "
       style="fill:none;stroke-width:0.57634;stroke-linecap:round;stroke-linejoin:bevel;stroke:rgb(0%,0%,0%);stroke-opacity:1;stroke-miterlimit:10;" />
    <path
       id="path66"
       d="M 236.554688 21.53125 L 236.554688 7.804688 "
       style="fill:none;stroke-width:0.57634;stroke-linecap:round;stroke-linejoin:bevel;stroke:rgb(0%,0%,0%);stroke-opacity:1;stroke-miterlimit:10;" />
    <path
       id="path68"
       d="M 257.585938 21.378906 L 257.585938 7.804688 "
       style="fill:none;stroke-width:0.57634;stroke-linecap:round;stroke-linejoin:bevel;stroke:rgb(0%,0%,0%);stroke-opacity:1;stroke-miterlimit:10;" />
    <path
       id="path70"
       d="M 285.605469 21.53125 L 285.605469 7.804688 "
       style="fill:none;stroke-width:0.57634;stroke-linecap:round;stroke-linejoin:bevel;stroke:rgb(0%,0%,0%);stroke-opacity:1;stroke-miterlimit:10;" />
    <path
       id="path72"
       d="M 274.476562 21.378906 L 274.476562 7.804688 "
       style="fill:none;stroke-width:0.57634;stroke-linecap:round;stroke-linejoin:bevel;stroke:rgb(0%,0%,0%);stroke-opacity:1;stroke-miterlimit:10;" />
    <path
       id="path74"
       d="M 322.835938 21.53125 L 322.835938 7.804688 "
       style="fill:none;stroke-width:0.57634;stroke-linecap:round;stroke-linejoin:bevel;stroke:rgb(0%,0%,0%);stroke-opacity:1;stroke-miterlimit:10;" />
    <path
       id="path76"
       d="M 312.875 21.378906 L 312.875 7.804688 "
       style="fill:none;stroke-width:0.57634;stroke-linecap:round;stroke-linejoin:bevel;stroke:rgb(0%,0%,0%);stroke-opacity:1;stroke-miterlimit:10;" />
    <path
       id="path78"
       d="M 338.359375 21.378906 L 338.359375 7.804688 "
       style="fill:none;stroke-width:0.57634;stroke-linecap:round;stroke-linejoin:bevel;stroke:rgb(0%,0%,0%);stroke-opacity:1;stroke-miterlimit:10;" />
    <path
       id="path80"
       d="M 40.886719 20.222656 C 40.472656 20.222656 40.171875 20.363281 39.984375 20.652344 C 39.777344 20.929688 39.675781 21.304688 39.675781 21.78125 C 39.675781 22.320312 39.820312 22.789062 40.105469 23.183594 C 40.394531 23.5625 40.714844 23.828125 41.058594 23.980469 C 41.371094 24.128906 41.699219 24.203125 42.046875 24.203125 C 42.449219 24.203125 42.757812 24.058594 42.964844 23.769531 C 43.160156 23.480469 43.257812 23.105469 43.257812 22.644531 C 43.257812 22.101562 43.113281 21.636719 42.828125 21.242188 C 42.539062 20.875 42.226562 20.609375 41.890625 20.445312 C 41.554688 20.296875 41.222656 20.222656 40.886719 20.222656 Z M 41.476562 19.769531 C 42.722656 19.769531 43.761719 20.011719 44.59375 20.496094 C 45.4375 20.984375 45.855469 21.554688 45.855469 22.210938 C 45.855469 22.917969 45.425781 23.492188 44.558594 23.945312 C 43.691406 24.417969 42.664062 24.652344 41.476562 24.652344 C 40.25 24.652344 39.210938 24.410156 38.359375 23.925781 C 37.503906 23.441406 37.078125 22.871094 37.078125 22.210938 C 37.078125 21.507812 37.515625 20.929688 38.394531 20.480469 C 39.257812 20.007812 40.285156 19.769531 41.476562 19.769531 Z M 41.476562 19.769531 "
       style=" stroke:none;fill-rule:nonzero;fill:rgb(0%,0%,0%);fill-opacity:1;" />
    <path
       id="path82"
       d="M 69.464844 21.050781 C 69.464844 20.855469 69.390625 20.6875 69.238281 20.550781 C 69.089844 20.398438 68.914062 20.324219 68.71875 20.324219 C 68.375 20.324219 67.675781 20.671875 66.625 21.363281 C 65.539062 22.066406 64.875 22.570312 64.632812 22.871094 C 64.503906 23.03125 64.441406 23.199219 64.441406 23.371094 C 64.441406 23.570312 64.515625 23.734375 64.667969 23.875 C 64.804688 24.023438 64.980469 24.101562 65.1875 24.101562 C 65.523438 24.101562 66.226562 23.753906 67.300781 23.0625 C 68.363281 22.367188 69.019531 21.867188 69.273438 21.554688 C 69.402344 21.402344 69.464844 21.238281 69.464844 21.050781 Z M 68.546875 19.769531 C 69.539062 19.769531 70.035156 20.199219 70.035156 21.050781 C 70.035156 21.46875 69.914062 21.953125 69.671875 22.507812 C 69.429688 23.050781 69.105469 23.464844 68.703125 23.753906 C 67.8125 24.355469 66.699219 24.652344 65.359375 24.652344 C 64.367188 24.652344 63.871094 24.226562 63.871094 23.371094 C 63.871094 22.992188 63.992188 22.511719 64.234375 21.933594 C 64.464844 21.382812 64.789062 20.960938 65.203125 20.671875 C 66.09375 20.070312 67.207031 19.769531 68.546875 19.769531 Z M 68.546875 19.769531 "
       style=" stroke:none;fill-rule:nonzero;fill:rgb(0%,0%,0%);fill-opacity:1;" />
    <path
       id="path84"
       d="M 83.871094 21.050781 C 83.871094 20.855469 83.792969 20.6875 83.644531 20.550781 C 83.492188 20.398438 83.320312 20.324219 83.125 20.324219 C 82.777344 20.324219 82.078125 20.671875 81.027344 21.363281 C 79.945312 22.066406 79.28125 22.570312 79.039062 22.871094 C 78.910156 23.03125 78.847656 23.199219 78.847656 23.371094 C 78.847656 23.570312 78.921875 23.734375 79.070312 23.875 C 79.210938 24.023438 79.382812 24.101562 79.589844 24.101562 C 79.925781 24.101562 80.628906 23.753906 81.703125 23.0625 C 82.765625 22.367188 83.425781 21.867188 83.679688 21.554688 C 83.804688 21.402344 83.871094 21.238281 83.871094 21.050781 Z M 82.953125 19.769531 C 83.945312 19.769531 84.441406 20.199219 84.441406 21.050781 C 84.441406 21.46875 84.320312 21.953125 84.078125 22.507812 C 83.835938 23.050781 83.511719 23.464844 83.105469 23.753906 C 82.21875 24.355469 81.105469 24.652344 79.765625 24.652344 C 78.773438 24.652344 78.277344 24.226562 78.277344 23.371094 C 78.277344 22.992188 78.398438 22.511719 78.640625 21.933594 C 78.871094 21.382812 79.195312 20.960938 79.609375 20.671875 C 80.496094 20.070312 81.613281 19.769531 82.953125 19.769531 Z M 82.953125 19.769531 "
       style=" stroke:none;fill-rule:nonzero;fill:rgb(0%,0%,0%);fill-opacity:1;" />
    <path
       id="path86"
       d="M 102.765625 19.769531 C 103.320312 19.769531 103.789062 19.914062 104.167969 20.203125 C 104.527344 20.515625 104.707031 20.90625 104.707031 21.382812 C 104.707031 22.175781 104.296875 22.921875 103.476562 23.613281 C 102.644531 24.308594 101.757812 24.652344 100.808594 24.652344 C 100.253906 24.652344 99.789062 24.511719 99.40625 24.222656 C 99.046875 23.910156 98.871094 23.515625 98.871094 23.042969 C 98.871094 22.246094 99.285156 21.503906 100.117188 20.808594 C 100.925781 20.117188 101.808594 19.769531 102.765625 19.769531 Z M 102.765625 19.769531 "
       style=" stroke:none;fill-rule:nonzero;fill:rgb(0%,0%,0%);fill-opacity:1;" />
    <path
       id="path88"
       d="M 123.957031 19.769531 C 124.511719 19.769531 124.976562 19.914062 125.359375 20.203125 C 125.71875 20.515625 125.894531 20.90625 125.894531 21.382812 C 125.894531 22.175781 125.484375 22.921875 124.667969 23.613281 C 123.835938 24.308594 122.945312 24.652344 122 24.652344 C 121.445312 24.652344 120.976562 24.511719 120.597656 24.222656 C 120.238281 23.910156 120.058594 23.515625 120.058594 23.042969 C 120.058594 22.246094 120.476562 21.503906 121.308594 20.808594 C 122.113281 20.117188 123 19.769531 123.957031 19.769531 Z M 123.957031 19.769531 "
       style=" stroke:none;fill-rule:nonzero;fill:rgb(0%,0%,0%);fill-opacity:1;" />
    <path
       id="path90"
       d="M 113.363281 19.769531 C 113.914062 19.769531 114.382812 19.914062 114.765625 20.203125 C 115.121094 20.515625 115.300781 20.90625 115.300781 21.382812 C 115.300781 22.175781 114.890625 22.921875 114.070312 23.613281 C 113.238281 24.308594 112.351562 24.652344 111.40625 24.652344 C 110.851562 24.652344 110.382812 24.511719 110 24.222656 C 109.644531 23.910156 109.464844 23.515625 109.464844 23.042969 C 109.464844 22.246094 109.878906 21.503906 110.710938 20.808594 C 111.519531 20.117188 112.402344 19.769531 113.363281 19.769531 Z M 113.363281 19.769531 "
       style=" stroke:none;fill-rule:nonzero;fill:rgb(0%,0%,0%);fill-opacity:1;" />
    <path
       id="path92"
       d="M 134.550781 19.769531 C 135.105469 19.769531 135.574219 19.914062 135.953125 20.203125 C 136.3125 20.515625 136.492188 20.90625 136.492188 21.382812 C 136.492188 22.175781 136.082031 22.921875 135.261719 23.613281 C 134.429688 24.308594 133.542969 24.652344 132.59375 24.652344 C 132.039062 24.652344 131.574219 24.511719 131.191406 24.222656 C 130.832031 23.910156 130.65625 23.515625 130.65625 23.042969 C 130.65625 22.246094 131.070312 21.503906 131.902344 20.808594 C 132.710938 20.117188 133.59375 19.769531 134.550781 19.769531 Z M 134.550781 19.769531 "
       style=" stroke:none;fill-rule:nonzero;fill:rgb(0%,0%,0%);fill-opacity:1;" />
    <path
       id="path94"
       d="M 161.109375 19.769531 C 161.660156 19.769531 162.128906 19.914062 162.511719 20.203125 C 162.867188 20.515625 163.046875 20.90625 163.046875 21.382812 C 163.046875 22.175781 162.636719 22.921875 161.816406 23.613281 C 160.988281 24.308594 160.097656 24.652344 159.152344 24.652344 C 158.597656 24.652344 158.128906 24.511719 157.746094 24.222656 C 157.390625 23.910156 157.210938 23.515625 157.210938 23.042969 C 157.210938 22.246094 157.625 21.503906 158.457031 20.808594 C 159.265625 20.117188 160.148438 19.769531 161.109375 19.769531 Z M 161.109375 19.769531 "
       style=" stroke:none;fill-rule:nonzero;fill:rgb(0%,0%,0%);fill-opacity:1;" />
    <path
       id="path96"
       d="M 151.175781 19.769531 C 151.730469 19.769531 152.199219 19.914062 152.578125 20.203125 C 152.9375 20.515625 153.117188 20.90625 153.117188 21.382812 C 153.117188 22.175781 152.707031 22.921875 151.886719 23.613281 C 151.054688 24.308594 150.164062 24.652344 149.21875 24.652344 C 148.664062 24.652344 148.195312 24.511719 147.816406 24.222656 C 147.457031 23.910156 147.277344 23.515625 147.277344 23.042969 C 147.277344 22.246094 147.695312 21.503906 148.527344 20.808594 C 149.335938 20.117188 150.21875 19.769531 151.175781 19.769531 Z M 151.175781 19.769531 "
       style=" stroke:none;fill-rule:nonzero;fill:rgb(0%,0%,0%);fill-opacity:1;" />
    <path
       id="path98"
       d="M 172.578125 21.050781 C 172.578125 20.855469 172.5 20.6875 172.351562 20.550781 C 172.203125 20.398438 172.027344 20.324219 171.832031 20.324219 C 171.484375 20.324219 170.789062 20.671875 169.738281 21.363281 C 168.652344 22.066406 167.988281 22.570312 167.746094 22.871094 C 167.617188 23.03125 167.554688 23.199219 167.554688 23.371094 C 167.554688 23.570312 167.628906 23.734375 167.78125 23.875 C 167.917969 24.023438 168.089844 24.101562 168.300781 24.101562 C 168.632812 24.101562 169.339844 23.753906 170.410156 23.0625 C 171.472656 22.367188 172.132812 21.867188 172.386719 21.554688 C 172.511719 21.402344 172.578125 21.238281 172.578125 21.050781 Z M 171.660156 19.769531 C 172.652344 19.769531 173.148438 20.199219 173.148438 21.050781 C 173.148438 21.46875 173.027344 21.953125 172.785156 22.507812 C 172.542969 23.050781 172.21875 23.464844 171.816406 23.753906 C 170.925781 24.355469 169.8125 24.652344 168.472656 24.652344 C 167.480469 24.652344 166.984375 24.226562 166.984375 23.371094 C 166.984375 22.992188 167.105469 22.511719 167.347656 21.933594 C 167.578125 21.382812 167.902344 20.960938 168.316406 20.671875 C 169.207031 20.070312 170.320312 19.769531 171.660156 19.769531 Z M 171.660156 19.769531 "
       style=" stroke:none;fill-rule:nonzero;fill:rgb(0%,0%,0%);fill-opacity:1;" />
    <path
       id="path100"
       d="M 194.65625 21.050781 C 194.65625 20.855469 194.582031 20.6875 194.433594 20.550781 C 194.28125 20.398438 194.109375 20.324219 193.914062 20.324219 C 193.566406 20.324219 192.867188 20.671875 191.816406 21.363281 C 190.730469 22.066406 190.066406 22.570312 189.824219 22.871094 C 189.699219 23.03125 189.636719 23.199219 189.636719 23.371094 C 189.636719 23.570312 189.710938 23.734375 189.859375 23.875 C 190 24.023438 190.171875 24.101562 190.378906 24.101562 C 190.714844 24.101562 191.417969 23.753906 192.492188 23.0625 C 193.554688 22.367188 194.210938 21.867188 194.464844 21.554688 C 194.59375 21.402344 194.65625 21.238281 194.65625 21.050781 Z M 193.738281 19.769531 C 194.730469 19.769531 195.230469 20.199219 195.230469 21.050781 C 195.230469 21.46875 195.109375 21.953125 194.863281 22.507812 C 194.621094 23.050781 194.300781 23.464844 193.894531 23.753906 C 193.007812 24.355469 191.890625 24.652344 190.554688 24.652344 C 189.558594 24.652344 189.0625 24.226562 189.0625 23.371094 C 189.0625 22.992188 189.183594 22.511719 189.425781 21.933594 C 189.65625 21.382812 189.980469 20.960938 190.398438 20.671875 C 191.285156 20.070312 192.398438 19.769531 193.738281 19.769531 Z M 193.738281 19.769531 "
       style=" stroke:none;fill-rule:nonzero;fill:rgb(0%,0%,0%);fill-opacity:1;" />
    <path
       id="path102"
       d="M 218.285156 19.769531 C 218.839844 19.769531 219.304688 19.914062 219.6875 20.203125 C 220.046875 20.515625 220.222656 20.90625 220.222656 21.382812 C 220.222656 22.175781 219.816406 22.921875 218.996094 23.613281 C 218.164062 24.308594 217.273438 24.652344 216.328125 24.652344 C 215.773438 24.652344 215.304688 24.511719 214.925781 24.222656 C 214.566406 23.910156 214.386719 23.515625 214.386719 23.042969 C 214.386719 22.246094 214.804688 21.503906 215.636719 20.808594 C 216.441406 20.117188 217.328125 19.769531 218.285156 19.769531 Z M 218.285156 19.769531 "
       style=" stroke:none;fill-rule:nonzero;fill:rgb(0%,0%,0%);fill-opacity:1;" />
    <path
       id="path104"
       d="M 208.605469 19.769531 C 209.160156 19.769531 209.628906 19.914062 210.007812 20.203125 C 210.367188 20.515625 210.546875 20.90625 210.546875 21.382812 C 210.546875 22.175781 210.136719 22.921875 209.316406 23.613281 C 208.484375 24.308594 207.597656 24.652344 206.648438 24.652344 C 206.09375 24.652344 205.628906 24.511719 205.246094 24.222656 C 204.886719 23.910156 204.710938 23.515625 204.710938 23.042969 C 204.710938 22.246094 205.125 21.503906 205.957031 20.808594 C 206.765625 20.117188 207.648438 19.769531 208.605469 19.769531 Z M 208.605469 19.769531 "
       style=" stroke:none;fill-rule:nonzero;fill:rgb(0%,0%,0%);fill-opacity:1;" />
    <path
       id="path106"
       d="M 236.28125 21.050781 C 236.28125 20.855469 236.207031 20.6875 236.054688 20.550781 C 235.90625 20.398438 235.734375 20.324219 235.535156 20.324219 C 235.191406 20.324219 234.492188 20.671875 233.441406 21.363281 C 232.355469 22.066406 231.691406 22.570312 231.449219 22.871094 C 231.324219 23.03125 231.257812 23.199219 231.257812 23.371094 C 231.257812 23.570312 231.335938 23.734375 231.484375 23.875 C 231.621094 24.023438 231.796875 24.101562 232.003906 24.101562 C 232.339844 24.101562 233.042969 23.753906 234.117188 23.0625 C 235.179688 22.367188 235.835938 21.867188 236.089844 21.554688 C 236.21875 21.402344 236.28125 21.238281 236.28125 21.050781 Z M 235.363281 19.769531 C 236.355469 19.769531 236.851562 20.199219 236.851562 21.050781 C 236.851562 21.46875 236.730469 21.953125 236.488281 22.507812 C 236.246094 23.050781 235.921875 23.464844 235.519531 23.753906 C 234.628906 24.355469 233.515625 24.652344 232.175781 24.652344 C 231.183594 24.652344 230.6875 24.226562 230.6875 23.371094 C 230.6875 22.992188 230.808594 22.511719 231.050781 21.933594 C 231.28125 21.382812 231.605469 20.960938 232.019531 20.671875 C 232.910156 20.070312 234.023438 19.769531 235.363281 19.769531 Z M 235.363281 19.769531 "
       style=" stroke:none;fill-rule:nonzero;fill:rgb(0%,0%,0%);fill-opacity:1;" />
    <path
       id="path108"
       d="M 255.933594 19.769531 C 256.488281 19.769531 256.957031 19.914062 257.335938 20.203125 C 257.695312 20.515625 257.875 20.90625 257.875 21.382812 C 257.875 22.175781 257.464844 22.921875 256.644531 23.613281 C 255.8125 24.308594 254.921875 24.652344 253.976562 24.652344 C 253.421875 24.652344 252.953125 24.511719 252.574219 24.222656 C 252.214844 23.910156 252.039062 23.515625 252.039062 23.042969 C 252.039062 22.246094 252.453125 21.503906 253.285156 20.808594 C 254.09375 20.117188 254.976562 19.769531 255.933594 19.769531 Z M 255.933594 19.769531 "
       style=" stroke:none;fill-rule:nonzero;fill:rgb(0%,0%,0%);fill-opacity:1;" />
    <path
       id="path110"
       d="M 272.824219 19.769531 C 273.378906 19.769531 273.847656 19.914062 274.226562 20.203125 C 274.585938 20.515625 274.761719 20.90625 274.761719 21.382812 C 274.761719 22.175781 274.355469 22.921875 273.535156 23.613281 C 272.703125 24.308594 271.8125 24.652344 270.867188 24.652344 C 270.3125 24.652344 269.84375 24.511719 269.464844 24.222656 C 269.105469 23.910156 268.925781 23.515625 268.925781 23.042969 C 268.925781 22.246094 269.34375 21.503906 270.175781 20.808594 C 270.984375 20.117188 271.867188 19.769531 272.824219 19.769531 Z M 272.824219 19.769531 "
       style=" stroke:none;fill-rule:nonzero;fill:rgb(0%,0%,0%);fill-opacity:1;" />
    <path
       id="path112"
       d="M 285.332031 21.050781 C 285.332031 20.855469 285.253906 20.6875 285.105469 20.550781 C 284.957031 20.398438 284.78125 20.324219 284.585938 20.324219 C 284.238281 20.324219 283.539062 20.671875 282.492188 21.363281 C 281.40625 22.066406 280.742188 22.570312 280.5 22.871094 C 280.371094 23.03125 280.308594 23.199219 280.308594 23.371094 C 280.308594 23.570312 280.382812 23.734375 280.535156 23.875 C 280.671875 24.023438 280.84375 24.101562 281.054688 24.101562 C 281.386719 24.101562 282.09375 23.753906 283.164062 23.0625 C 284.226562 22.367188 284.886719 21.867188 285.140625 21.554688 C 285.265625 21.402344 285.332031 21.238281 285.332031 21.050781 Z M 284.414062 19.769531 C 285.40625 19.769531 285.902344 20.199219 285.902344 21.050781 C 285.902344 21.46875 285.78125 21.953125 285.539062 22.507812 C 285.296875 23.050781 284.972656 23.464844 284.570312 23.753906 C 283.679688 24.355469 282.566406 24.652344 281.226562 24.652344 C 280.234375 24.652344 279.738281 24.226562 279.738281 23.371094 C 279.738281 22.992188 279.859375 22.511719 280.101562 21.933594 C 280.332031 21.382812 280.65625 20.960938 281.070312 20.671875 C 281.960938 20.070312 283.074219 19.769531 284.414062 19.769531 Z M 284.414062 19.769531 "
       style=" stroke:none;fill-rule:nonzero;fill:rgb(0%,0%,0%);fill-opacity:1;" />
    <path
       id="path114"
       d="M 311.222656 19.769531 C 311.777344 19.769531 312.246094 19.914062 312.625 20.203125 C 312.984375 20.515625 313.164062 20.90625 313.164062 21.382812 C 313.164062 22.175781 312.753906 22.921875 311.933594 23.613281 C 311.101562 24.308594 310.214844 24.652344 309.265625 24.652344 C 308.710938 24.652344 308.246094 24.511719 307.863281 24.222656 C 307.507812 23.910156 307.328125 23.515625 307.328125 23.042969 C 307.328125 22.246094 307.742188 21.503906 308.574219 20.808594 C 309.382812 20.117188 310.265625 19.769531 311.222656 19.769531 Z M 311.222656 19.769531 "
       style=" stroke:none;fill-rule:nonzero;fill:rgb(0%,0%,0%);fill-opacity:1;" />
    <path
       id="path116"
       d="M 322.5625 21.050781 C 322.5625 20.855469 322.488281 20.6875 322.335938 20.550781 C 322.1875 20.398438 322.015625 20.324219 321.816406 20.324219 C 321.472656 20.324219 320.773438 20.671875 319.722656 21.363281 C 318.636719 22.066406 317.972656 22.570312 317.730469 22.871094 C 317.605469 23.03125 317.539062 23.199219 317.539062 23.371094 C 317.539062 23.570312 317.617188 23.734375 317.765625 23.875 C 317.902344 24.023438 318.078125 24.101562 318.285156 24.101562 C 318.621094 24.101562 319.324219 23.753906 320.398438 23.0625 C 321.460938 22.367188 322.117188 21.867188 322.371094 21.554688 C 322.5 21.402344 322.5625 21.238281 322.5625 21.050781 Z M 321.644531 19.769531 C 322.636719 19.769531 323.132812 20.199219 323.132812 21.050781 C 323.132812 21.46875 323.011719 21.953125 322.769531 22.507812 C 322.527344 23.050781 322.203125 23.464844 321.800781 23.753906 C 320.910156 24.355469 319.796875 24.652344 318.457031 24.652344 C 317.464844 24.652344 316.96875 24.226562 316.96875 23.371094 C 316.96875 22.992188 317.089844 22.511719 317.332031 21.933594 C 317.5625 21.382812 317.886719 20.960938 318.300781 20.671875 C 319.191406 20.070312 320.304688 19.769531 321.644531 19.769531 Z M 321.644531 19.769531 "
       style=" stroke:none;fill-rule:nonzero;fill:rgb(0%,0%,0%);fill-opacity:1;" />
    <path
       id="path118"
       d="M 336.707031 19.769531 C 337.261719 19.769531 337.730469 19.914062 338.109375 20.203125 C 338.46875 20.515625 338.648438 20.90625 338.648438 21.382812 C 338.648438 22.175781 338.238281 22.921875 337.417969 23.613281 C 336.585938 24.308594 335.699219 24.652344 334.75 24.652344 C 334.199219 24.652344 333.730469 24.511719 333.347656 24.222656 C 332.992188 23.910156 332.8125 23.515625 332.8125 23.042969 C 332.8125 22.246094 333.226562 21.503906 334.058594 20.808594 C 334.867188 20.117188 335.75 19.769531 336.707031 19.769531 Z M 336.707031 19.769531 "
       style=" stroke:none;fill-rule:nonzero;fill:rgb(0%,0%,0%);fill-opacity:1;" />
    <path
       id="path120"
       d="M 13.097656 19.890625 C 13.097656 19.890625 13.132812 19.890625 13.203125 19.890625 C 13.246094 19.878906 13.289062 19.875 13.324219 19.875 C 14.617188 19.875 15.679688 20.332031 16.507812 21.242188 C 17.339844 22.144531 17.757812 23.195312 17.757812 24.394531 C 17.757812 25.882812 17.136719 27.097656 15.902344 28.03125 C 15.578125 28.285156 15.160156 28.492188 14.640625 28.65625 C 14.695312 29.40625 14.726562 30.011719 14.726562 30.472656 C 14.726562 30.566406 14.714844 30.898438 14.691406 31.476562 C 14.644531 32.550781 14.273438 33.480469 13.582031 34.265625 C 12.914062 35.039062 12.082031 35.425781 11.089844 35.425781 C 10.152344 35.425781 9.355469 35.097656 8.699219 34.4375 C 8.039062 33.769531 7.710938 32.960938 7.710938 32.015625 C 7.710938 31.519531 7.902344 31.097656 8.285156 30.75 C 8.675781 30.402344 9.132812 30.230469 9.652344 30.230469 C 10.113281 30.230469 10.5 30.410156 10.8125 30.765625 C 11.136719 31.101562 11.296875 31.519531 11.296875 32.015625 C 11.296875 32.464844 11.136719 32.851562 10.8125 33.175781 C 10.488281 33.496094 10.101562 33.660156 9.652344 33.660156 C 9.464844 33.660156 9.289062 33.625 9.113281 33.554688 C 9.621094 34.304688 10.296875 34.679688 11.140625 34.679688 C 11.9375 34.679688 12.589844 34.359375 13.097656 33.710938 C 13.628906 33.042969 13.917969 32.261719 13.964844 31.375 C 13.988281 30.820312 14 30.5 14 30.421875 C 14 29.773438 13.976562 29.242188 13.929688 28.828125 C 13.351562 28.921875 12.839844 28.964844 12.386719 28.964844 C 10.78125 28.964844 9.414062 28.332031 8.285156 27.0625 C 7.175781 25.78125 6.621094 24.253906 6.621094 22.488281 C 6.621094 22.121094 6.65625 21.746094 6.726562 21.363281 C 6.792969 21.050781 6.878906 20.710938 6.984375 20.34375 C 7.042969 20.132812 7.199219 19.800781 7.453125 19.335938 C 7.542969 19.199219 7.648438 19.027344 7.765625 18.816406 C 7.878906 18.609375 7.960938 18.472656 8.007812 18.402344 C 8.121094 18.171875 8.347656 17.859375 8.679688 17.46875 C 8.773438 17.363281 8.871094 17.246094 8.96875 17.121094 C 9.066406 16.992188 9.148438 16.890625 9.21875 16.808594 C 9.289062 16.726562 9.339844 16.664062 9.375 16.617188 C 9.410156 16.574219 9.667969 16.265625 10.152344 15.699219 C 10.269531 15.585938 10.382812 15.460938 10.492188 15.328125 C 10.601562 15.195312 10.691406 15.089844 10.761719 15.015625 C 10.828125 14.941406 10.882812 14.886719 10.914062 14.851562 C 10.5 13.476562 10.242188 12.382812 10.136719 11.5625 C 10.054688 10.902344 10.015625 10.003906 10.015625 8.859375 C 10.015625 7.855469 10.246094 6.914062 10.707031 6.039062 C 11.15625 5.125 11.789062 4.378906 12.59375 3.804688 C 12.652344 3.769531 12.710938 3.75 12.769531 3.75 C 12.847656 3.75 12.90625 3.769531 12.941406 3.804688 C 13.566406 4.554688 14.101562 5.53125 14.550781 6.730469 C 15.015625 7.929688 15.246094 9.023438 15.246094 10.003906 C 15.246094 11.113281 14.980469 12.152344 14.449219 13.121094 C 13.847656 14.148438 13.074219 15.210938 12.128906 16.308594 C 12.371094 17.070312 12.695312 18.265625 13.097656 19.890625 Z M 14.570312 27.945312 C 15.171875 27.726562 15.636719 27.351562 15.972656 26.820312 C 16.34375 26.3125 16.527344 25.738281 16.527344 25.105469 C 16.527344 24.285156 16.25 23.558594 15.695312 22.921875 C 15.128906 22.265625 14.40625 21.894531 13.53125 21.8125 C 14.027344 24.25 14.375 26.292969 14.570312 27.945312 Z M 7.867188 23.945312 C 7.867188 25.085938 8.328125 26.089844 9.253906 26.957031 C 10.199219 27.800781 11.261719 28.222656 12.441406 28.222656 C 12.925781 28.222656 13.398438 28.1875 13.859375 28.117188 C 13.675781 26.363281 13.3125 24.261719 12.769531 21.8125 C 12.109375 21.882812 11.585938 22.113281 11.191406 22.507812 C 10.8125 22.910156 10.621094 23.367188 10.621094 23.875 C 10.621094 24.753906 11.089844 25.460938 12.023438 26.003906 C 12.105469 26.085938 12.144531 26.171875 12.144531 26.265625 C 12.144531 26.355469 12.105469 26.445312 12.023438 26.523438 C 11.953125 26.605469 11.867188 26.644531 11.765625 26.644531 C 11.753906 26.644531 11.699219 26.632812 11.609375 26.609375 C 10.949219 26.253906 10.441406 25.792969 10.085938 25.226562 C 9.75 24.625 9.582031 24.019531 9.582031 23.40625 C 9.582031 22.609375 9.832031 21.890625 10.328125 21.242188 C 10.847656 20.597656 11.523438 20.179688 12.351562 19.996094 C 12.03125 18.703125 11.765625 17.691406 11.554688 16.964844 C 11.371094 17.171875 11.148438 17.425781 10.890625 17.71875 C 10.628906 18.011719 10.476562 18.1875 10.429688 18.246094 C 10.015625 18.789062 9.699219 19.210938 9.476562 19.511719 C 9.085938 20.054688 8.796875 20.519531 8.613281 20.914062 C 8.417969 21.351562 8.242188 21.832031 8.09375 22.351562 C 7.941406 22.847656 7.867188 23.378906 7.867188 23.945312 Z M 13.652344 6.332031 C 12.785156 6.757812 12.105469 7.371094 11.609375 8.167969 C 11.101562 8.988281 10.847656 9.871094 10.847656 10.816406 C 10.847656 11.648438 11.054688 12.769531 11.46875 14.175781 C 12.300781 13.171875 12.925781 12.242188 13.339844 11.386719 C 13.777344 10.488281 14 9.546875 14 8.566406 C 14 7.828125 13.882812 7.082031 13.652344 6.332031 Z M 13.652344 6.332031 "
       style=" stroke:none;fill-rule:nonzero;fill:rgb(0%,0%,0%);fill-opacity:1;" />
    <path
       id="path122"
       d="M 26.207031 11.355469 C 26.554688 11.355469 26.847656 11.3125 27.089844 11.234375 C 27.332031 11.152344 27.488281 11.113281 27.558594 11.113281 C 27.640625 11.113281 27.703125 11.132812 27.75 11.179688 C 27.785156 11.214844 27.808594 11.253906 27.820312 11.300781 C 27.820312 11.324219 27.808594 11.359375 27.785156 11.40625 L 22.746094 17.257812 L 25.707031 17.257812 L 25.707031 14.9375 C 25.707031 14.789062 25.746094 14.660156 25.828125 14.558594 C 25.964844 14.441406 26.082031 14.375 26.171875 14.351562 C 26.324219 14.28125 26.507812 14.117188 26.726562 13.863281 C 26.914062 13.65625 27.132812 13.292969 27.386719 12.773438 C 27.421875 12.703125 27.472656 12.671875 27.542969 12.671875 C 27.679688 12.671875 27.761719 12.75 27.785156 12.914062 L 27.785156 17.257812 L 29.046875 17.257812 C 29.210938 17.257812 29.300781 17.347656 29.324219 17.519531 C 29.324219 17.691406 29.234375 17.777344 29.046875 17.777344 L 27.785156 17.777344 L 27.785156 17.917969 C 27.785156 18.378906 27.898438 18.773438 28.128906 19.09375 C 28.394531 19.417969 28.707031 19.578125 29.066406 19.578125 C 29.203125 19.578125 29.273438 19.648438 29.273438 19.789062 C 29.273438 19.925781 29.203125 19.996094 29.066406 19.996094 C 28.824219 19.996094 28.429688 19.960938 27.886719 19.890625 C 27.390625 19.8125 27.003906 19.769531 26.726562 19.769531 C 26.4375 19.769531 26.050781 19.8125 25.566406 19.890625 C 25.046875 19.960938 24.660156 19.996094 24.40625 19.996094 C 24.269531 19.996094 24.199219 19.925781 24.199219 19.789062 C 24.199219 19.648438 24.269531 19.578125 24.40625 19.578125 C 24.765625 19.578125 25.078125 19.417969 25.34375 19.09375 C 25.585938 18.773438 25.707031 18.378906 25.707031 17.917969 L 25.707031 17.777344 L 22.746094 17.777344 C 22.546875 17.777344 22.410156 17.734375 22.328125 17.640625 C 22.238281 17.570312 22.191406 17.480469 22.191406 17.363281 C 22.191406 17.328125 22.277344 17.207031 22.449219 17 C 22.644531 16.769531 22.855469 16.484375 23.074219 16.152344 C 23.328125 15.757812 23.570312 15.355469 23.800781 14.9375 C 24.054688 14.464844 24.257812 13.921875 24.40625 13.3125 C 24.582031 12.6875 24.667969 12.050781 24.667969 11.40625 C 24.667969 11.222656 24.746094 11.128906 24.910156 11.128906 C 24.945312 11.128906 25.019531 11.144531 25.132812 11.179688 C 25.167969 11.191406 25.242188 11.210938 25.351562 11.234375 C 25.460938 11.253906 25.550781 11.277344 25.621094 11.300781 C 25.828125 11.335938 26.023438 11.355469 26.207031 11.355469 Z M 26.207031 11.355469 "
       style=" stroke:none;fill-rule:nonzero;fill:rgb(0%,0%,0%);fill-opacity:1;" />
    <path
       id="path124"
       d="M 26.207031 20.222656 C 26.554688 20.222656 26.847656 20.179688 27.089844 20.097656 C 27.332031 20.019531 27.488281 19.976562 27.558594 19.976562 C 27.640625 19.976562 27.703125 20 27.75 20.046875 C 27.785156 20.082031 27.808594 20.121094 27.820312 20.167969 C 27.820312 20.191406 27.808594 20.226562 27.785156 20.273438 L 22.746094 26.125 L 25.707031 26.125 L 25.707031 23.804688 C 25.707031 23.65625 25.746094 23.527344 25.828125 23.425781 C 25.964844 23.308594 26.082031 23.238281 26.171875 23.214844 C 26.324219 23.148438 26.507812 22.984375 26.726562 22.730469 C 26.914062 22.523438 27.132812 22.160156 27.386719 21.640625 C 27.421875 21.570312 27.472656 21.535156 27.542969 21.535156 C 27.679688 21.535156 27.761719 21.617188 27.785156 21.78125 L 27.785156 26.125 L 29.046875 26.125 C 29.210938 26.125 29.300781 26.210938 29.324219 26.386719 C 29.324219 26.558594 29.234375 26.644531 29.046875 26.644531 L 27.785156 26.644531 L 27.785156 26.785156 C 27.785156 27.246094 27.898438 27.636719 28.128906 27.960938 C 28.394531 28.285156 28.707031 28.445312 29.066406 28.445312 C 29.203125 28.445312 29.273438 28.515625 29.273438 28.65625 C 29.273438 28.792969 29.203125 28.863281 29.066406 28.863281 C 28.824219 28.863281 28.429688 28.828125 27.886719 28.757812 C 27.390625 28.675781 27.003906 28.636719 26.726562 28.636719 C 26.4375 28.636719 26.050781 28.675781 25.566406 28.757812 C 25.046875 28.828125 24.660156 28.863281 24.40625 28.863281 C 24.269531 28.863281 24.199219 28.792969 24.199219 28.65625 C 24.199219 28.515625 24.269531 28.445312 24.40625 28.445312 C 24.765625 28.445312 25.078125 28.285156 25.34375 27.960938 C 25.585938 27.636719 25.707031 27.246094 25.707031 26.785156 L 25.707031 26.644531 L 22.746094 26.644531 C 22.546875 26.644531 22.410156 26.597656 22.328125 26.507812 C 22.238281 26.4375 22.191406 26.34375 22.191406 26.230469 C 22.191406 26.195312 22.277344 26.074219 22.449219 25.867188 C 22.644531 25.636719 22.855469 25.351562 23.074219 25.019531 C 23.328125 24.625 23.570312 24.222656 23.800781 23.804688 C 24.054688 23.332031 24.257812 22.789062 24.40625 22.175781 C 24.582031 21.554688 24.667969 20.917969 24.667969 20.273438 C 24.667969 20.089844 24.746094 19.996094 24.910156 19.996094 C 24.945312 19.996094 25.019531 20.011719 25.132812 20.046875 C 25.167969 20.058594 25.242188 20.078125 25.351562 20.097656 C 25.460938 20.121094 25.550781 20.144531 25.621094 20.167969 C 25.828125 20.203125 26.023438 20.222656 26.207031 20.222656 Z M 26.207031 20.222656 "
       style=" stroke:none;fill-rule:nonzero;fill:rgb(0%,0%,0%);fill-opacity:1;" />
    <path
       id="path126"
       d="M 238.691406 22.921875 C 238.496094 22.726562 238.394531 22.488281 238.394531 22.210938 C 238.394531 21.933594 238.496094 21.699219 238.691406 21.503906 C 238.886719 21.304688 239.125 21.207031 239.402344 21.207031 C 239.679688 21.207031 239.914062 21.304688 240.109375 21.503906 C 240.308594 21.699219 240.40625 21.933594 240.40625 22.210938 C 240.40625 22.488281 240.308594 22.726562 240.109375 22.921875 C 239.914062 23.117188 239.679688 23.214844 239.402344 23.214844 C 239.125 23.214844 238.886719 23.117188 238.691406 22.921875 Z M 238.691406 22.921875 "
       style=" stroke:none;fill-rule:nonzero;fill:rgb(0%,0%,0%);fill-opacity:1;" />
    <path
       id="path128"
       d="M 287.738281 22.921875 C 287.542969 22.726562 287.445312 22.488281 287.445312 22.210938 C 287.445312 21.933594 287.542969 21.699219 287.738281 21.503906 C 287.9375 21.304688 288.171875 21.207031 288.449219 21.207031 C 288.726562 21.207031 288.964844 21.304688 289.160156 21.503906 C 289.355469 21.699219 289.453125 21.933594 289.453125 22.210938 C 289.453125 22.488281 289.355469 22.726562 289.160156 22.921875 C 288.964844 23.117188 288.726562 23.214844 288.449219 23.214844 C 288.171875 23.214844 287.9375 23.117188 287.738281 22.921875 Z M 287.738281 22.921875 "
       style=" stroke:none;fill-rule:nonzero;fill:rgb(0%,0%,0%);fill-opacity:1;" />
  </g>
</svg>
