<?xml version="1.0" encoding="UTF-8" standalone="no"?>
<svg
   xmlns:dc="http://purl.org/dc/elements/1.1/"
   xmlns:cc="http://creativecommons.org/ns#"
   xmlns:rdf="http://www.w3.org/1999/02/22-rdf-syntax-ns#"
   xmlns:svg="http://www.w3.org/2000/svg"
   xmlns="http://www.w3.org/2000/svg"
   xmlns:sodipodi="http://sodipodi.sourceforge.net/DTD/sodipodi-0.dtd"
   xmlns:inkscape="http://www.inkscape.org/namespaces/inkscape"
   inkscape:version="1.0 (4035a4f, 2020-05-01)"
   sodipodi:docname="rhythms_ternary_2.svg"
   id="svg167"
   version="1.2"
   viewBox="0 0 420 50"
   height="50pt"
   width="420pt">
  <metadata
     id="metadata173">
    <rdf:RDF>
      <cc:Work
         rdf:about="">
        <dc:format>image/svg+xml</dc:format>
        <dc:type
           rdf:resource="http://purl.org/dc/dcmitype/StillImage" />
        <dc:title></dc:title>
      </cc:Work>
    </rdf:RDF>
  </metadata>
  <defs
     id="defs171" />
  <sodipodi:namedview
     inkscape:current-layer="svg167"
     inkscape:window-maximized="0"
     inkscape:window-y="23"
     inkscape:window-x="0"
     inkscape:cy="33.333333"
     inkscape:cx="280"
     inkscape:zoom="2.2839286"
     showgrid="false"
     id="namedview169"
     inkscape:window-height="480"
     inkscape:window-width="741"
     inkscape:pageshadow="2"
     inkscape:pageopacity="0"
     guidetolerance="10"
     gridtolerance="10"
     objecttolerance="10"
     borderopacity="1"
     bordercolor="#666666"
     pagecolor="#ffffff" />
  <g
     id="surface3744">
    <path
       id="path10"
       d="M 373.707031 28.320312 C 377.707031 30.957031 389.699219 30.957031 393.699219 28.320312 C 389.699219 31.757812 377.707031 31.757812 373.707031 28.320312 Z M 373.707031 28.320312 "
       style="fill-rule:evenodd;fill:rgb(0%,0%,0%);fill-opacity:1;stroke-width:0.35;stroke-linecap:round;stroke-linejoin:round;stroke:rgb(0%,0%,0%);stroke-opacity:1;stroke-miterlimit:10;" />
    <path
       id="path12"
       d="M 3.75 12.070312 L 98.175781 12.070312 M 3.75 17.070312 L 98.175781 17.070312 M 3.75 22.070312 L 98.175781 22.070312 M 3.75 27.070312 L 98.175781 27.070312 M 3.75 32.070312 L 98.175781 32.070312 "
       style="fill:none;stroke-width:0.4;stroke-linecap:butt;stroke-linejoin:bevel;stroke:rgb(0%,0%,0%);stroke-opacity:1;stroke-miterlimit:10;" />
    <path
       id="path14"
       d="M 98.175781 12.070312 L 156.152344 12.070312 M 98.175781 17.070312 L 156.152344 17.070312 M 98.175781 22.070312 L 156.152344 22.070312 M 98.175781 27.070312 L 156.152344 27.070312 M 98.175781 32.070312 L 156.152344 32.070312 "
       style="fill:none;stroke-width:0.4;stroke-linecap:butt;stroke-linejoin:bevel;stroke:rgb(0%,0%,0%);stroke-opacity:1;stroke-miterlimit:10;" />
    <path
       id="path16"
       d="M 156.152344 12.070312 L 226.769531 12.070312 M 156.152344 17.070312 L 226.769531 17.070312 M 156.152344 22.070312 L 226.769531 22.070312 M 156.152344 27.070312 L 226.769531 27.070312 M 156.152344 32.070312 L 226.769531 32.070312 "
       style="fill:none;stroke-width:0.4;stroke-linecap:butt;stroke-linejoin:bevel;stroke:rgb(0%,0%,0%);stroke-opacity:1;stroke-miterlimit:10;" />
    <path
       id="path18"
       d="M 226.769531 12.070312 L 297.382812 12.070312 M 226.769531 17.070312 L 297.382812 17.070312 M 226.769531 22.070312 L 297.382812 22.070312 M 226.769531 27.070312 L 297.382812 27.070312 M 226.769531 32.070312 L 297.382812 32.070312 "
       style="fill:none;stroke-width:0.4;stroke-linecap:butt;stroke-linejoin:bevel;stroke:rgb(0%,0%,0%);stroke-opacity:1;stroke-miterlimit:10;" />
    <path
       id="path20"
       d="M 297.382812 12.070312 L 363.195312 12.070312 M 297.382812 17.070312 L 363.195312 17.070312 M 297.382812 22.070312 L 363.195312 22.070312 M 297.382812 27.070312 L 363.195312 27.070312 M 297.382812 32.070312 L 363.195312 32.070312 "
       style="fill:none;stroke-width:0.4;stroke-linecap:butt;stroke-linejoin:bevel;stroke:rgb(0%,0%,0%);stroke-opacity:1;stroke-miterlimit:10;" />
    <path
       id="path22"
       d="M 363.195312 12.070312 L 413.785156 12.070312 M 363.195312 17.070312 L 413.785156 17.070312 M 363.195312 22.070312 L 413.785156 22.070312 M 363.195312 27.070312 L 413.785156 27.070312 M 363.195312 32.070312 L 413.785156 32.070312 "
       style="fill:none;stroke-width:0.4;stroke-linecap:butt;stroke-linejoin:bevel;stroke:rgb(0%,0%,0%);stroke-opacity:1;stroke-miterlimit:10;" />
    <path
       id="path24"
       d="M 97.773438 12.070312 L 97.773438 32.070312 "
       style="fill:none;stroke-width:0.800001;stroke-linecap:butt;stroke-linejoin:bevel;stroke:rgb(0%,0%,0%);stroke-opacity:1;stroke-miterlimit:10;" />
    <path
       id="path26"
       d="M 155.753906 12.070312 L 155.753906 32.070312 "
       style="fill:none;stroke-width:0.800001;stroke-linecap:butt;stroke-linejoin:bevel;stroke:rgb(0%,0%,0%);stroke-opacity:1;stroke-miterlimit:10;" />
    <path
       id="path28"
       d="M 226.367188 12.070312 L 226.367188 32.070312 "
       style="fill:none;stroke-width:0.800001;stroke-linecap:butt;stroke-linejoin:bevel;stroke:rgb(0%,0%,0%);stroke-opacity:1;stroke-miterlimit:10;" />
    <path
       id="path30"
       d="M 296.984375 12.070312 L 296.984375 32.070312 "
       style="fill:none;stroke-width:0.800001;stroke-linecap:butt;stroke-linejoin:bevel;stroke:rgb(0%,0%,0%);stroke-opacity:1;stroke-miterlimit:10;" />
    <path
       id="path32"
       d="M 362.792969 12.070312 L 362.792969 32.070312 "
       style="fill:none;stroke-width:0.800001;stroke-linecap:butt;stroke-linejoin:bevel;stroke:rgb(0%,0%,0%);stroke-opacity:1;stroke-miterlimit:10;" />
    <path
       id="path34"
       d="M 413.386719 12.070312 L 413.386719 32.070312 "
       style="fill:none;stroke-width:0.800001;stroke-linecap:butt;stroke-linejoin:bevel;stroke:rgb(0%,0%,0%);stroke-opacity:1;stroke-miterlimit:10;" />
    <path
       id="path36"
       d="M 47.042969 23.628906 L 47.042969 8.320312 "
       style="fill:none;stroke-width:0.65;stroke-linecap:round;stroke-linejoin:bevel;stroke:rgb(0%,0%,0%);stroke-opacity:1;stroke-miterlimit:10;" />
    <path
       id="path38"
       d="M 62.699219 23.628906 L 62.699219 8.320312 "
       style="fill:none;stroke-width:0.65;stroke-linecap:round;stroke-linejoin:bevel;stroke:rgb(0%,0%,0%);stroke-opacity:1;stroke-miterlimit:10;" />
    <path
       id="path40"
       d="M 75.339844 23.628906 L 75.339844 8.320312 "
       style="fill:none;stroke-width:0.65;stroke-linecap:round;stroke-linejoin:bevel;stroke:rgb(0%,0%,0%);stroke-opacity:1;stroke-miterlimit:10;" />
    <path
       id="path42"
       d="M 87.976562 23.628906 L 87.976562 8.320312 "
       style="fill:none;stroke-width:0.65;stroke-linecap:round;stroke-linejoin:bevel;stroke:rgb(0%,0%,0%);stroke-opacity:1;stroke-miterlimit:10;" />
    <path
       id="path44"
       d="M 120.273438 23.628906 L 120.273438 10.820312 "
       style="fill:none;stroke-width:0.65;stroke-linecap:round;stroke-linejoin:bevel;stroke:rgb(0%,0%,0%);stroke-opacity:1;stroke-miterlimit:10;" />
    <path
       id="path46"
       d="M 110.433594 23.628906 L 110.433594 10.820312 "
       style="fill:none;stroke-width:0.65;stroke-linecap:round;stroke-linejoin:bevel;stroke:rgb(0%,0%,0%);stroke-opacity:1;stroke-miterlimit:10;" />
    <path
       id="path48"
       d="M 130.117188 23.628906 L 130.117188 8.320312 "
       style="fill:none;stroke-width:0.65;stroke-linecap:round;stroke-linejoin:bevel;stroke:rgb(0%,0%,0%);stroke-opacity:1;stroke-miterlimit:10;" />
    <path
       id="path50"
       d="M 145.863281 23.628906 L 145.863281 8.320312 "
       style="fill:none;stroke-width:0.65;stroke-linecap:round;stroke-linejoin:bevel;stroke:rgb(0%,0%,0%);stroke-opacity:1;stroke-miterlimit:10;" />
    <path
       id="path52"
       d="M 168.410156 23.628906 L 168.410156 8.320312 "
       style="fill:none;stroke-width:0.65;stroke-linecap:round;stroke-linejoin:bevel;stroke:rgb(0%,0%,0%);stroke-opacity:1;stroke-miterlimit:10;" />
    <path
       id="path54"
       d="M 198.644531 23.628906 L 198.644531 10.820312 "
       style="fill:none;stroke-width:0.65;stroke-linecap:round;stroke-linejoin:bevel;stroke:rgb(0%,0%,0%);stroke-opacity:1;stroke-miterlimit:10;" />
    <path
       id="path56"
       d="M 186.007812 23.628906 L 186.007812 8.320312 "
       style="fill:none;stroke-width:0.65;stroke-linecap:round;stroke-linejoin:bevel;stroke:rgb(0%,0%,0%);stroke-opacity:1;stroke-miterlimit:10;" />
    <path
       id="path58"
       d="M 209.644531 23.628906 L 209.644531 10.820312 "
       style="fill:none;stroke-width:0.65;stroke-linecap:round;stroke-linejoin:bevel;stroke:rgb(0%,0%,0%);stroke-opacity:1;stroke-miterlimit:10;" />
    <path
       id="path60"
       d="M 220.644531 23.628906 L 220.644531 10.820312 "
       style="fill:none;stroke-width:0.65;stroke-linecap:round;stroke-linejoin:bevel;stroke:rgb(0%,0%,0%);stroke-opacity:1;stroke-miterlimit:10;" />
    <path
       id="path62"
       d="M 250.152344 23.628906 L 250.152344 10.820312 "
       style="fill:none;stroke-width:0.65;stroke-linecap:round;stroke-linejoin:bevel;stroke:rgb(0%,0%,0%);stroke-opacity:1;stroke-miterlimit:10;" />
    <path
       id="path64"
       d="M 239.027344 23.628906 L 239.027344 10.820312 "
       style="fill:none;stroke-width:0.65;stroke-linecap:round;stroke-linejoin:bevel;stroke:rgb(0%,0%,0%);stroke-opacity:1;stroke-miterlimit:10;" />
    <path
       id="path66"
       d="M 272.402344 23.628906 L 272.402344 8.320312 "
       style="fill:none;stroke-width:0.65;stroke-linecap:round;stroke-linejoin:bevel;stroke:rgb(0%,0%,0%);stroke-opacity:1;stroke-miterlimit:10;" />
    <path
       id="path68"
       d="M 261.277344 23.628906 L 261.277344 10.820312 "
       style="fill:none;stroke-width:0.65;stroke-linecap:round;stroke-linejoin:bevel;stroke:rgb(0%,0%,0%);stroke-opacity:1;stroke-miterlimit:10;" />
    <path
       id="path70"
       d="M 285.039062 23.628906 L 285.039062 8.320312 "
       style="fill:none;stroke-width:0.65;stroke-linecap:round;stroke-linejoin:bevel;stroke:rgb(0%,0%,0%);stroke-opacity:1;stroke-miterlimit:10;" />
    <path
       id="path72"
       d="M 309.640625 23.628906 L 309.640625 10.820312 "
       style="fill:none;stroke-width:0.65;stroke-linecap:round;stroke-linejoin:bevel;stroke:rgb(0%,0%,0%);stroke-opacity:1;stroke-miterlimit:10;" />
    <path
       id="path74"
       d="M 319.953125 23.628906 L 319.953125 10.820312 "
       style="fill:none;stroke-width:0.65;stroke-linecap:round;stroke-linejoin:bevel;stroke:rgb(0%,0%,0%);stroke-opacity:1;stroke-miterlimit:10;" />
    <path
       id="path76"
       d="M 346.757812 23.628906 L 346.757812 10.820312 "
       style="fill:none;stroke-width:0.65;stroke-linecap:round;stroke-linejoin:bevel;stroke:rgb(0%,0%,0%);stroke-opacity:1;stroke-miterlimit:10;" />
    <path
       id="path78"
       d="M 330.261719 23.628906 L 330.261719 8.320312 "
       style="fill:none;stroke-width:0.65;stroke-linecap:round;stroke-linejoin:bevel;stroke:rgb(0%,0%,0%);stroke-opacity:1;stroke-miterlimit:10;" />
    <path
       id="path80"
       d="M 357.070312 23.628906 L 357.070312 10.820312 "
       style="fill:none;stroke-width:0.65;stroke-linecap:round;stroke-linejoin:bevel;stroke:rgb(0%,0%,0%);stroke-opacity:1;stroke-miterlimit:10;" />
    <path
       id="path82"
       d="M 375.8125 23.800781 L 375.8125 8.320312 "
       style="fill:none;stroke-width:0.65;stroke-linecap:round;stroke-linejoin:bevel;stroke:rgb(0%,0%,0%);stroke-opacity:1;stroke-miterlimit:10;" />
    <path
       id="path84"
       d="M 397.652344 23.628906 L 397.652344 10.820312 "
       style="fill:none;stroke-width:0.65;stroke-linecap:round;stroke-linejoin:bevel;stroke:rgb(0%,0%,0%);stroke-opacity:1;stroke-miterlimit:10;" />
    <path
       id="path86"
       d="M 407.660156 23.628906 L 407.660156 10.820312 "
       style="fill:none;stroke-width:0.65;stroke-linecap:round;stroke-linejoin:bevel;stroke:rgb(0%,0%,0%);stroke-opacity:1;stroke-miterlimit:10;" />
    <path
       id="path88"
       d="M 45.179688 21.816406 C 45.804688 21.816406 46.332031 21.976562 46.761719 22.304688 C 47.167969 22.65625 47.367188 23.097656 47.367188 23.632812 C 47.367188 24.53125 46.90625 25.371094 45.980469 26.152344 C 45.042969 26.933594 44.042969 27.324219 42.972656 27.324219 C 42.347656 27.324219 41.820312 27.160156 41.390625 26.835938 C 40.988281 26.484375 40.785156 26.039062 40.785156 25.507812 C 40.785156 24.609375 41.253906 23.769531 42.191406 22.988281 C 43.105469 22.207031 44.101562 21.816406 45.179688 21.816406 Z M 45.179688 21.816406 "
       style=" stroke:none;fill-rule:nonzero;fill:rgb(0%,0%,0%);fill-opacity:1;" />
    <path
       id="path90"
       d="M 60.835938 21.816406 C 61.460938 21.816406 61.988281 21.976562 62.417969 22.304688 C 62.824219 22.65625 63.023438 23.097656 63.023438 23.632812 C 63.023438 24.53125 62.5625 25.371094 61.636719 26.152344 C 60.699219 26.933594 59.699219 27.324219 58.628906 27.324219 C 58.003906 27.324219 57.476562 27.160156 57.046875 26.835938 C 56.644531 26.484375 56.441406 26.039062 56.441406 25.507812 C 56.441406 24.609375 56.910156 23.769531 57.847656 22.988281 C 58.761719 22.207031 59.757812 21.816406 60.835938 21.816406 Z M 60.835938 21.816406 "
       style=" stroke:none;fill-rule:nonzero;fill:rgb(0%,0%,0%);fill-opacity:1;" />
    <path
       id="path92"
       d="M 86.113281 21.816406 C 86.738281 21.816406 87.265625 21.976562 87.695312 22.304688 C 88.097656 22.65625 88.300781 23.097656 88.300781 23.632812 C 88.300781 24.53125 87.835938 25.371094 86.914062 26.152344 C 85.976562 26.933594 84.972656 27.324219 83.90625 27.324219 C 83.28125 27.324219 82.753906 27.160156 82.324219 26.835938 C 81.917969 26.484375 81.71875 26.039062 81.71875 25.507812 C 81.71875 24.609375 82.1875 23.769531 83.125 22.988281 C 84.035156 22.207031 85.03125 21.816406 86.113281 21.816406 Z M 86.113281 21.816406 "
       style=" stroke:none;fill-rule:nonzero;fill:rgb(0%,0%,0%);fill-opacity:1;" />
    <path
       id="path94"
       d="M 73.476562 21.816406 C 74.101562 21.816406 74.628906 21.976562 75.058594 22.304688 C 75.460938 22.65625 75.664062 23.097656 75.664062 23.632812 C 75.664062 24.53125 75.199219 25.371094 74.277344 26.152344 C 73.339844 26.933594 72.335938 27.324219 71.269531 27.324219 C 70.644531 27.324219 70.117188 27.160156 69.6875 26.835938 C 69.28125 26.484375 69.082031 26.039062 69.082031 25.507812 C 69.082031 24.609375 69.550781 23.769531 70.488281 22.988281 C 71.398438 22.207031 72.394531 21.816406 73.476562 21.816406 Z M 73.476562 21.816406 "
       style=" stroke:none;fill-rule:nonzero;fill:rgb(0%,0%,0%);fill-opacity:1;" />
    <path
       id="path96"
       d="M 108.570312 21.816406 C 109.195312 21.816406 109.722656 21.976562 110.152344 22.304688 C 110.554688 22.65625 110.757812 23.097656 110.757812 23.632812 C 110.757812 24.53125 110.292969 25.371094 109.371094 26.152344 C 108.433594 26.933594 107.429688 27.324219 106.363281 27.324219 C 105.738281 27.324219 105.210938 27.160156 104.78125 26.835938 C 104.375 26.484375 104.175781 26.039062 104.175781 25.507812 C 104.175781 24.609375 104.644531 23.769531 105.582031 22.988281 C 106.492188 22.207031 107.488281 21.816406 108.570312 21.816406 Z M 108.570312 21.816406 "
       style=" stroke:none;fill-rule:nonzero;fill:rgb(0%,0%,0%);fill-opacity:1;" />
    <path
       id="path98"
       d="M 128.253906 21.816406 C 128.878906 21.816406 129.40625 21.976562 129.835938 22.304688 C 130.238281 22.65625 130.441406 23.097656 130.441406 23.632812 C 130.441406 24.53125 129.976562 25.371094 129.054688 26.152344 C 128.117188 26.933594 127.113281 27.324219 126.046875 27.324219 C 125.421875 27.324219 124.894531 27.160156 124.464844 26.835938 C 124.058594 26.484375 123.859375 26.039062 123.859375 25.507812 C 123.859375 24.609375 124.328125 23.769531 125.265625 22.988281 C 126.175781 22.207031 127.171875 21.816406 128.253906 21.816406 Z M 128.253906 21.816406 "
       style=" stroke:none;fill-rule:nonzero;fill:rgb(0%,0%,0%);fill-opacity:1;" />
    <path
       id="path100"
       d="M 118.410156 21.816406 C 119.035156 21.816406 119.5625 21.976562 119.992188 22.304688 C 120.394531 22.65625 120.597656 23.097656 120.597656 23.632812 C 120.597656 24.53125 120.136719 25.371094 119.210938 26.152344 C 118.273438 26.933594 117.269531 27.324219 116.203125 27.324219 C 115.578125 27.324219 115.050781 27.160156 114.621094 26.835938 C 114.21875 26.484375 114.015625 26.039062 114.015625 25.507812 C 114.015625 24.609375 114.484375 23.769531 115.421875 22.988281 C 116.332031 22.207031 117.328125 21.816406 118.410156 21.816406 Z M 118.410156 21.816406 "
       style=" stroke:none;fill-rule:nonzero;fill:rgb(0%,0%,0%);fill-opacity:1;" />
    <path
       id="path102"
       d="M 144 21.816406 C 144.625 21.816406 145.152344 21.976562 145.582031 22.304688 C 145.984375 22.65625 146.1875 23.097656 146.1875 23.632812 C 146.1875 24.53125 145.726562 25.371094 144.800781 26.152344 C 143.863281 26.933594 142.859375 27.324219 141.792969 27.324219 C 141.167969 27.324219 140.640625 27.160156 140.210938 26.835938 C 139.808594 26.484375 139.605469 26.039062 139.605469 25.507812 C 139.605469 24.609375 140.074219 23.769531 141.011719 22.988281 C 141.921875 22.207031 142.917969 21.816406 144 21.816406 Z M 144 21.816406 "
       style=" stroke:none;fill-rule:nonzero;fill:rgb(0%,0%,0%);fill-opacity:1;" />
    <path
       id="path104"
       d="M 184.144531 21.816406 C 184.769531 21.816406 185.296875 21.976562 185.726562 22.304688 C 186.128906 22.65625 186.332031 23.097656 186.332031 23.632812 C 186.332031 24.53125 185.871094 25.371094 184.945312 26.152344 C 184.007812 26.933594 183.003906 27.324219 181.9375 27.324219 C 181.3125 27.324219 180.785156 27.160156 180.355469 26.835938 C 179.953125 26.484375 179.75 26.039062 179.75 25.507812 C 179.75 24.609375 180.21875 23.769531 181.15625 22.988281 C 182.066406 22.207031 183.0625 21.816406 184.144531 21.816406 Z M 184.144531 21.816406 "
       style=" stroke:none;fill-rule:nonzero;fill:rgb(0%,0%,0%);fill-opacity:1;" />
    <path
       id="path106"
       d="M 166.546875 21.816406 C 167.171875 21.816406 167.699219 21.976562 168.128906 22.304688 C 168.53125 22.65625 168.734375 23.097656 168.734375 23.632812 C 168.734375 24.53125 168.273438 25.371094 167.347656 26.152344 C 166.410156 26.933594 165.40625 27.324219 164.339844 27.324219 C 163.714844 27.324219 163.1875 27.160156 162.757812 26.835938 C 162.355469 26.484375 162.152344 26.039062 162.152344 25.507812 C 162.152344 24.609375 162.621094 23.769531 163.558594 22.988281 C 164.46875 22.207031 165.464844 21.816406 166.546875 21.816406 Z M 166.546875 21.816406 "
       style=" stroke:none;fill-rule:nonzero;fill:rgb(0%,0%,0%);fill-opacity:1;" />
    <path
       id="path108"
       d="M 196.78125 21.816406 C 197.40625 21.816406 197.933594 21.976562 198.363281 22.304688 C 198.769531 22.65625 198.96875 23.097656 198.96875 23.632812 C 198.96875 24.53125 198.507812 25.371094 197.582031 26.152344 C 196.644531 26.933594 195.644531 27.324219 194.574219 27.324219 C 193.949219 27.324219 193.421875 27.160156 192.992188 26.835938 C 192.589844 26.484375 192.386719 26.039062 192.386719 25.507812 C 192.386719 24.609375 192.855469 23.769531 193.792969 22.988281 C 194.707031 22.207031 195.703125 21.816406 196.78125 21.816406 Z M 196.78125 21.816406 "
       style=" stroke:none;fill-rule:nonzero;fill:rgb(0%,0%,0%);fill-opacity:1;" />
    <path
       id="path110"
       d="M 218.78125 21.816406 C 219.40625 21.816406 219.933594 21.976562 220.363281 22.304688 C 220.765625 22.65625 220.96875 23.097656 220.96875 23.632812 C 220.96875 24.53125 220.503906 25.371094 219.582031 26.152344 C 218.644531 26.933594 217.640625 27.324219 216.574219 27.324219 C 215.949219 27.324219 215.421875 27.160156 214.992188 26.835938 C 214.585938 26.484375 214.386719 26.039062 214.386719 25.507812 C 214.386719 24.609375 214.855469 23.769531 215.792969 22.988281 C 216.703125 22.207031 217.699219 21.816406 218.78125 21.816406 Z M 218.78125 21.816406 "
       style=" stroke:none;fill-rule:nonzero;fill:rgb(0%,0%,0%);fill-opacity:1;" />
    <path
       id="path112"
       d="M 207.78125 21.816406 C 208.40625 21.816406 208.933594 21.976562 209.363281 22.304688 C 209.765625 22.65625 209.96875 23.097656 209.96875 23.632812 C 209.96875 24.53125 209.507812 25.371094 208.582031 26.152344 C 207.644531 26.933594 206.640625 27.324219 205.574219 27.324219 C 204.949219 27.324219 204.421875 27.160156 203.992188 26.835938 C 203.589844 26.484375 203.386719 26.039062 203.386719 25.507812 C 203.386719 24.609375 203.855469 23.769531 204.792969 22.988281 C 205.703125 22.207031 206.699219 21.816406 207.78125 21.816406 Z M 207.78125 21.816406 "
       style=" stroke:none;fill-rule:nonzero;fill:rgb(0%,0%,0%);fill-opacity:1;" />
    <path
       id="path114"
       d="M 237.164062 21.816406 C 237.789062 21.816406 238.316406 21.976562 238.746094 22.304688 C 239.148438 22.65625 239.351562 23.097656 239.351562 23.632812 C 239.351562 24.53125 238.886719 25.371094 237.964844 26.152344 C 237.027344 26.933594 236.023438 27.324219 234.957031 27.324219 C 234.332031 27.324219 233.804688 27.160156 233.375 26.835938 C 232.96875 26.484375 232.769531 26.039062 232.769531 25.507812 C 232.769531 24.609375 233.238281 23.769531 234.175781 22.988281 C 235.085938 22.207031 236.082031 21.816406 237.164062 21.816406 Z M 237.164062 21.816406 "
       style=" stroke:none;fill-rule:nonzero;fill:rgb(0%,0%,0%);fill-opacity:1;" />
    <path
       id="path116"
       d="M 248.289062 21.816406 C 248.914062 21.816406 249.441406 21.976562 249.871094 22.304688 C 250.273438 22.65625 250.476562 23.097656 250.476562 23.632812 C 250.476562 24.53125 250.011719 25.371094 249.089844 26.152344 C 248.152344 26.933594 247.148438 27.324219 246.082031 27.324219 C 245.457031 27.324219 244.929688 27.160156 244.5 26.835938 C 244.09375 26.484375 243.894531 26.039062 243.894531 25.507812 C 243.894531 24.609375 244.363281 23.769531 245.300781 22.988281 C 246.210938 22.207031 247.207031 21.816406 248.289062 21.816406 Z M 248.289062 21.816406 "
       style=" stroke:none;fill-rule:nonzero;fill:rgb(0%,0%,0%);fill-opacity:1;" />
    <path
       id="path118"
       d="M 270.539062 21.816406 C 271.164062 21.816406 271.691406 21.976562 272.121094 22.304688 C 272.523438 22.65625 272.726562 23.097656 272.726562 23.632812 C 272.726562 24.53125 272.265625 25.371094 271.339844 26.152344 C 270.402344 26.933594 269.398438 27.324219 268.332031 27.324219 C 267.707031 27.324219 267.179688 27.160156 266.75 26.835938 C 266.347656 26.484375 266.144531 26.039062 266.144531 25.507812 C 266.144531 24.609375 266.613281 23.769531 267.550781 22.988281 C 268.460938 22.207031 269.457031 21.816406 270.539062 21.816406 Z M 270.539062 21.816406 "
       style=" stroke:none;fill-rule:nonzero;fill:rgb(0%,0%,0%);fill-opacity:1;" />
    <path
       id="path120"
       d="M 259.414062 21.816406 C 260.039062 21.816406 260.566406 21.976562 260.996094 22.304688 C 261.398438 22.65625 261.601562 23.097656 261.601562 23.632812 C 261.601562 24.53125 261.140625 25.371094 260.214844 26.152344 C 259.277344 26.933594 258.273438 27.324219 257.207031 27.324219 C 256.582031 27.324219 256.054688 27.160156 255.625 26.835938 C 255.222656 26.484375 255.019531 26.039062 255.019531 25.507812 C 255.019531 24.609375 255.488281 23.769531 256.425781 22.988281 C 257.335938 22.207031 258.332031 21.816406 259.414062 21.816406 Z M 259.414062 21.816406 "
       style=" stroke:none;fill-rule:nonzero;fill:rgb(0%,0%,0%);fill-opacity:1;" />
    <path
       id="path122"
       d="M 283.175781 21.816406 C 283.800781 21.816406 284.328125 21.976562 284.757812 22.304688 C 285.164062 22.65625 285.363281 23.097656 285.363281 23.632812 C 285.363281 24.53125 284.902344 25.371094 283.976562 26.152344 C 283.039062 26.933594 282.039062 27.324219 280.96875 27.324219 C 280.34375 27.324219 279.816406 27.160156 279.386719 26.835938 C 278.984375 26.484375 278.78125 26.039062 278.78125 25.507812 C 278.78125 24.609375 279.25 23.769531 280.1875 22.988281 C 281.101562 22.207031 282.097656 21.816406 283.175781 21.816406 Z M 283.175781 21.816406 "
       style=" stroke:none;fill-rule:nonzero;fill:rgb(0%,0%,0%);fill-opacity:1;" />
    <path
       id="path124"
       d="M 307.777344 21.816406 C 308.402344 21.816406 308.929688 21.976562 309.359375 22.304688 C 309.765625 22.65625 309.964844 23.097656 309.964844 23.632812 C 309.964844 24.53125 309.503906 25.371094 308.578125 26.152344 C 307.640625 26.933594 306.640625 27.324219 305.570312 27.324219 C 304.945312 27.324219 304.417969 27.160156 303.988281 26.835938 C 303.585938 26.484375 303.382812 26.039062 303.382812 25.507812 C 303.382812 24.609375 303.851562 23.769531 304.789062 22.988281 C 305.703125 22.207031 306.699219 21.816406 307.777344 21.816406 Z M 307.777344 21.816406 "
       style=" stroke:none;fill-rule:nonzero;fill:rgb(0%,0%,0%);fill-opacity:1;" />
    <path
       id="path126"
       d="M 328.398438 21.816406 C 329.023438 21.816406 329.550781 21.976562 329.980469 22.304688 C 330.386719 22.65625 330.585938 23.097656 330.585938 23.632812 C 330.585938 24.53125 330.125 25.371094 329.199219 26.152344 C 328.261719 26.933594 327.261719 27.324219 326.191406 27.324219 C 325.566406 27.324219 325.039062 27.160156 324.609375 26.835938 C 324.207031 26.484375 324.003906 26.039062 324.003906 25.507812 C 324.003906 24.609375 324.472656 23.769531 325.410156 22.988281 C 326.324219 22.207031 327.320312 21.816406 328.398438 21.816406 Z M 328.398438 21.816406 "
       style=" stroke:none;fill-rule:nonzero;fill:rgb(0%,0%,0%);fill-opacity:1;" />
    <path
       id="path128"
       d="M 318.089844 21.816406 C 318.714844 21.816406 319.242188 21.976562 319.671875 22.304688 C 320.074219 22.65625 320.277344 23.097656 320.277344 23.632812 C 320.277344 24.53125 319.8125 25.371094 318.890625 26.152344 C 317.953125 26.933594 316.949219 27.324219 315.882812 27.324219 C 315.257812 27.324219 314.730469 27.160156 314.300781 26.835938 C 313.894531 26.484375 313.695312 26.039062 313.695312 25.507812 C 313.695312 24.609375 314.164062 23.769531 315.101562 22.988281 C 316.011719 22.207031 317.007812 21.816406 318.089844 21.816406 Z M 318.089844 21.816406 "
       style=" stroke:none;fill-rule:nonzero;fill:rgb(0%,0%,0%);fill-opacity:1;" />
    <path
       id="path130"
       d="M 344.894531 21.816406 C 345.519531 21.816406 346.046875 21.976562 346.476562 22.304688 C 346.882812 22.65625 347.082031 23.097656 347.082031 23.632812 C 347.082031 24.53125 346.621094 25.371094 345.695312 26.152344 C 344.757812 26.933594 343.757812 27.324219 342.6875 27.324219 C 342.0625 27.324219 341.535156 27.160156 341.105469 26.835938 C 340.703125 26.484375 340.5 26.039062 340.5 25.507812 C 340.5 24.609375 340.96875 23.769531 341.90625 22.988281 C 342.820312 22.207031 343.816406 21.816406 344.894531 21.816406 Z M 344.894531 21.816406 "
       style=" stroke:none;fill-rule:nonzero;fill:rgb(0%,0%,0%);fill-opacity:1;" />
    <path
       id="path132"
       d="M 355.207031 21.816406 C 355.832031 21.816406 356.359375 21.976562 356.789062 22.304688 C 357.191406 22.65625 357.394531 23.097656 357.394531 23.632812 C 357.394531 24.53125 356.929688 25.371094 356.007812 26.152344 C 355.070312 26.933594 354.066406 27.324219 353 27.324219 C 352.375 27.324219 351.847656 27.160156 351.417969 26.835938 C 351.011719 26.484375 350.8125 26.039062 350.8125 25.507812 C 350.8125 24.609375 351.28125 23.769531 352.21875 22.988281 C 353.128906 22.207031 354.125 21.816406 355.207031 21.816406 Z M 355.207031 21.816406 "
       style=" stroke:none;fill-rule:nonzero;fill:rgb(0%,0%,0%);fill-opacity:1;" />
    <path
       id="path134"
       d="M 375.503906 23.261719 C 375.503906 23.039062 375.417969 22.851562 375.25 22.695312 C 375.082031 22.523438 374.886719 22.441406 374.664062 22.441406 C 374.273438 22.441406 373.484375 22.832031 372.300781 23.613281 C 371.078125 24.40625 370.328125 24.972656 370.054688 25.3125 C 369.910156 25.492188 369.839844 25.683594 369.839844 25.878906 C 369.839844 26.097656 369.925781 26.289062 370.09375 26.445312 C 370.25 26.613281 370.445312 26.699219 370.679688 26.699219 C 371.058594 26.699219 371.851562 26.308594 373.0625 25.527344 C 374.261719 24.746094 375.003906 24.179688 375.289062 23.828125 C 375.433594 23.65625 375.503906 23.46875 375.503906 23.261719 Z M 374.46875 21.816406 C 375.589844 21.816406 376.148438 22.296875 376.148438 23.261719 C 376.148438 23.730469 376.011719 24.277344 375.738281 24.902344 C 375.464844 25.511719 375.101562 25.980469 374.644531 26.308594 C 373.640625 26.984375 372.386719 27.324219 370.875 27.324219 C 369.753906 27.324219 369.195312 26.839844 369.195312 25.878906 C 369.195312 25.449219 369.332031 24.90625 369.605469 24.257812 C 369.867188 23.632812 370.230469 23.15625 370.699219 22.832031 C 371.703125 22.152344 372.957031 21.816406 374.46875 21.816406 Z M 374.46875 21.816406 "
       style=" stroke:none;fill-rule:nonzero;fill:rgb(0%,0%,0%);fill-opacity:1;" />
    <path
       id="path136"
       d="M 405.796875 21.816406 C 406.421875 21.816406 406.949219 21.976562 407.378906 22.304688 C 407.785156 22.65625 407.984375 23.097656 407.984375 23.632812 C 407.984375 24.53125 407.523438 25.371094 406.597656 26.152344 C 405.660156 26.933594 404.660156 27.324219 403.589844 27.324219 C 402.964844 27.324219 402.4375 27.160156 402.007812 26.835938 C 401.605469 26.484375 401.402344 26.039062 401.402344 25.507812 C 401.402344 24.609375 401.871094 23.769531 402.808594 22.988281 C 403.722656 22.207031 404.71875 21.816406 405.796875 21.816406 Z M 405.796875 21.816406 "
       style=" stroke:none;fill-rule:nonzero;fill:rgb(0%,0%,0%);fill-opacity:1;" />
    <path
       id="path138"
       d="M 395.789062 21.816406 C 396.414062 21.816406 396.941406 21.976562 397.371094 22.304688 C 397.773438 22.65625 397.976562 23.097656 397.976562 23.632812 C 397.976562 24.53125 397.515625 25.371094 396.589844 26.152344 C 395.652344 26.933594 394.648438 27.324219 393.582031 27.324219 C 392.957031 27.324219 392.429688 27.160156 392 26.835938 C 391.597656 26.484375 391.394531 26.039062 391.394531 25.507812 C 391.394531 24.609375 391.863281 23.769531 392.800781 22.988281 C 393.710938 22.207031 394.707031 21.816406 395.789062 21.816406 Z M 395.789062 21.816406 "
       style=" stroke:none;fill-rule:nonzero;fill:rgb(0%,0%,0%);fill-opacity:1;" />
    <path
       id="path140"
       d="M 14.292969 21.953125 C 14.292969 21.953125 14.332031 21.953125 14.410156 21.953125 C 14.460938 21.9375 14.507812 21.933594 14.546875 21.933594 C 16.003906 21.933594 17.203125 22.445312 18.140625 23.476562 C 19.078125 24.492188 19.546875 25.675781 19.546875 27.03125 C 19.546875 28.710938 18.851562 30.078125 17.457031 31.132812 C 17.09375 31.417969 16.617188 31.652344 16.03125 31.835938 C 16.097656 32.679688 16.128906 33.363281 16.128906 33.886719 C 16.128906 33.988281 16.117188 34.367188 16.089844 35.019531 C 16.039062 36.230469 15.621094 37.277344 14.839844 38.164062 C 14.085938 39.035156 13.148438 39.472656 12.027344 39.472656 C 10.972656 39.472656 10.074219 39.101562 9.332031 38.359375 C 8.589844 37.601562 8.21875 36.691406 8.21875 35.625 C 8.21875 35.0625 8.433594 34.589844 8.863281 34.199219 C 9.304688 33.808594 9.820312 33.613281 10.40625 33.613281 C 10.925781 33.613281 11.363281 33.8125 11.714844 34.21875 C 12.078125 34.59375 12.261719 35.0625 12.261719 35.625 C 12.261719 36.132812 12.078125 36.566406 11.714844 36.933594 C 11.351562 37.296875 10.914062 37.480469 10.40625 37.480469 C 10.199219 37.480469 9.996094 37.441406 9.800781 37.363281 C 10.375 38.207031 11.136719 38.632812 12.085938 38.632812 C 12.984375 38.632812 13.71875 38.265625 14.292969 37.539062 C 14.890625 36.78125 15.21875 35.902344 15.269531 34.902344 C 15.296875 34.277344 15.308594 33.917969 15.308594 33.828125 C 15.308594 33.097656 15.28125 32.5 15.230469 32.03125 C 14.578125 32.132812 14 32.1875 13.492188 32.1875 C 11.683594 32.1875 10.140625 31.46875 8.863281 30.039062 C 7.613281 28.59375 6.988281 26.875 6.988281 24.882812 C 6.988281 24.464844 7.027344 24.042969 7.105469 23.613281 C 7.183594 23.261719 7.28125 22.875 7.398438 22.460938 C 7.464844 22.226562 7.640625 21.847656 7.925781 21.328125 C 8.03125 21.171875 8.148438 20.976562 8.277344 20.742188 C 8.40625 20.507812 8.5 20.351562 8.550781 20.273438 C 8.679688 20.011719 8.933594 19.660156 9.3125 19.21875 C 9.417969 19.101562 9.523438 18.96875 9.632812 18.828125 C 9.746094 18.683594 9.839844 18.566406 9.917969 18.476562 C 9.996094 18.382812 10.054688 18.3125 10.09375 18.261719 C 10.132812 18.207031 10.425781 17.863281 10.972656 17.226562 C 11.101562 17.09375 11.230469 16.957031 11.351562 16.804688 C 11.476562 16.65625 11.578125 16.539062 11.65625 16.453125 C 11.734375 16.371094 11.792969 16.308594 11.832031 16.269531 C 11.363281 14.71875 11.070312 13.480469 10.953125 12.558594 C 10.863281 11.816406 10.816406 10.800781 10.816406 9.511719 C 10.816406 8.378906 11.078125 7.316406 11.597656 6.328125 C 12.105469 5.296875 12.816406 4.457031 13.726562 3.808594 C 13.792969 3.769531 13.855469 3.75 13.921875 3.75 C 14.011719 3.75 14.078125 3.769531 14.117188 3.808594 C 14.820312 4.652344 15.425781 5.753906 15.933594 7.109375 C 16.453125 8.460938 16.714844 9.691406 16.714844 10.800781 C 16.714844 12.050781 16.414062 13.222656 15.816406 14.316406 C 15.140625 15.472656 14.265625 16.671875 13.199219 17.910156 C 13.472656 18.769531 13.835938 20.117188 14.292969 21.953125 Z M 15.953125 31.035156 C 16.628906 30.785156 17.15625 30.363281 17.535156 29.765625 C 17.953125 29.191406 18.160156 28.546875 18.160156 27.832031 C 18.160156 26.90625 17.847656 26.085938 17.222656 25.371094 C 16.585938 24.628906 15.769531 24.210938 14.78125 24.121094 C 15.339844 26.867188 15.730469 29.171875 15.953125 31.035156 Z M 8.394531 26.523438 C 8.394531 27.8125 8.914062 28.945312 9.957031 29.921875 C 11.023438 30.871094 12.222656 31.347656 13.550781 31.347656 C 14.097656 31.347656 14.632812 31.308594 15.152344 31.230469 C 14.945312 29.25 14.535156 26.878906 13.921875 24.121094 C 13.179688 24.199219 12.585938 24.457031 12.144531 24.902344 C 11.714844 25.355469 11.5 25.871094 11.5 26.445312 C 11.5 27.433594 12.027344 28.234375 13.082031 28.847656 C 13.171875 28.9375 13.21875 29.035156 13.21875 29.140625 C 13.21875 29.242188 13.171875 29.339844 13.082031 29.433594 C 13.003906 29.523438 12.90625 29.570312 12.789062 29.570312 C 12.777344 29.570312 12.71875 29.554688 12.613281 29.53125 C 11.871094 29.125 11.296875 28.605469 10.894531 27.96875 C 10.515625 27.289062 10.328125 26.605469 10.328125 25.917969 C 10.328125 25.019531 10.609375 24.203125 11.167969 23.476562 C 11.753906 22.746094 12.515625 22.277344 13.453125 22.070312 C 13.089844 20.609375 12.789062 19.472656 12.554688 18.652344 C 12.347656 18.886719 12.09375 19.167969 11.800781 19.5 C 11.507812 19.832031 11.335938 20.03125 11.285156 20.097656 C 10.816406 20.707031 10.457031 21.183594 10.210938 21.523438 C 9.769531 22.132812 9.441406 22.660156 9.234375 23.105469 C 9.011719 23.597656 8.816406 24.140625 8.648438 24.726562 C 8.480469 25.285156 8.394531 25.882812 8.394531 26.523438 Z M 14.917969 6.660156 C 13.941406 7.140625 13.171875 7.832031 12.613281 8.730469 C 12.039062 9.652344 11.753906 10.648438 11.753906 11.71875 C 11.753906 12.65625 11.988281 13.917969 12.457031 15.507812 C 13.394531 14.375 14.097656 13.324219 14.566406 12.363281 C 15.0625 11.347656 15.308594 10.285156 15.308594 9.179688 C 15.308594 8.34375 15.179688 7.503906 14.917969 6.660156 Z M 14.917969 6.660156 "
       style=" stroke:none;fill-rule:nonzero;fill:rgb(0%,0%,0%);fill-opacity:1;" />
    <path
       id="path142"
       d="M 28.277344 16.953125 C 27.785156 16.953125 27.476562 17.148438 27.359375 17.539062 C 27.269531 17.824219 27.222656 18.304688 27.222656 18.984375 L 27.222656 19.570312 C 27.222656 20.246094 27.269531 20.726562 27.359375 21.015625 C 27.476562 21.40625 27.785156 21.601562 28.277344 21.601562 C 28.824219 21.601562 29.171875 21.371094 29.3125 20.917969 C 29.445312 20.488281 29.507812 19.941406 29.507812 19.277344 C 29.507812 18.507812 29.4375 17.929688 29.292969 17.539062 C 29.136719 17.148438 28.800781 16.953125 28.277344 16.953125 Z M 27.222656 16.757812 C 27.613281 16.601562 27.964844 16.507812 28.277344 16.484375 C 29.320312 16.484375 30.152344 16.71875 30.777344 17.1875 C 31.378906 17.667969 31.675781 18.359375 31.675781 19.257812 C 31.675781 20.167969 31.371094 20.871094 30.757812 21.367188 C 30.148438 21.835938 29.320312 22.070312 28.277344 22.070312 C 27.210938 22.070312 26.378906 21.574219 25.777344 20.585938 C 25.179688 19.59375 24.878906 18.421875 24.878906 17.070312 C 24.878906 15.742188 25.230469 14.570312 25.933594 13.554688 C 26.652344 12.5625 27.570312 12.070312 28.6875 12.070312 C 29.417969 12.070312 30.0625 12.257812 30.621094 12.636719 C 31.167969 13.011719 31.441406 13.507812 31.441406 14.121094 C 31.441406 14.496094 31.3125 14.808594 31.050781 15.058594 C 30.816406 15.316406 30.519531 15.449219 30.152344 15.449219 C 29.789062 15.449219 29.476562 15.316406 29.214844 15.058594 C 28.957031 14.796875 28.824219 14.484375 28.824219 14.121094 C 28.824219 13.976562 28.957031 13.8125 29.214844 13.632812 C 29.476562 13.476562 29.605469 13.3125 29.605469 13.144531 C 29.605469 12.960938 29.515625 12.8125 29.332031 12.695312 C 29.125 12.589844 28.910156 12.539062 28.6875 12.539062 C 28.089844 12.539062 27.691406 12.777344 27.496094 13.261719 C 27.289062 13.730469 27.183594 14.414062 27.183594 15.3125 C 27.183594 15.570312 27.191406 15.8125 27.203125 16.035156 C 27.21875 16.253906 27.222656 16.496094 27.222656 16.757812 Z M 27.222656 16.757812 "
       style=" stroke:none;fill-rule:nonzero;fill:rgb(0%,0%,0%);fill-opacity:1;" />
    <path
       id="path144"
       d="M 29.710938 26.308594 C 30.363281 25.589844 30.6875 24.914062 30.6875 24.277344 C 30.6875 23.742188 30.460938 23.320312 30.003906 23.007812 C 29.5625 22.695312 29.015625 22.539062 28.363281 22.539062 C 27.910156 22.539062 27.542969 22.679688 27.269531 22.96875 C 26.996094 23.253906 26.859375 23.578125 26.859375 23.945312 C 26.859375 24.398438 27.0625 24.75 27.464844 25 Z M 30.316406 26.640625 C 31.425781 27.277344 31.976562 28.128906 31.976562 29.199219 C 31.976562 29.992188 31.644531 30.664062 30.980469 31.210938 C 30.316406 31.78125 29.386719 32.070312 28.1875 32.070312 C 27.171875 32.070312 26.320312 31.808594 25.628906 31.289062 C 24.902344 30.765625 24.535156 30.097656 24.535156 29.277344 C 24.535156 28.976562 24.628906 28.65625 24.808594 28.320312 C 24.980469 28.019531 25.148438 27.785156 25.316406 27.617188 C 25.394531 27.511719 25.644531 27.265625 26.058594 26.875 C 25.253906 26.300781 24.84375 25.589844 24.828125 24.746094 C 24.828125 24.027344 25.148438 23.398438 25.785156 22.851562 C 26.425781 22.328125 27.285156 22.070312 28.363281 22.070312 C 29.222656 22.070312 29.980469 22.265625 30.628906 22.65625 C 31.253906 23.046875 31.566406 23.585938 31.566406 24.277344 C 31.542969 24.980469 31.125 25.765625 30.316406 26.640625 Z M 26.664062 27.226562 C 25.859375 27.941406 25.441406 28.625 25.414062 29.277344 C 25.414062 29.941406 25.695312 30.492188 26.253906 30.9375 C 26.789062 31.378906 27.433594 31.601562 28.1875 31.601562 C 28.722656 31.601562 29.140625 31.429688 29.4375 31.09375 C 29.75 30.78125 29.90625 30.394531 29.90625 29.941406 C 29.90625 29.378906 29.679688 28.96875 29.222656 28.710938 Z M 26.664062 27.226562 "
       style=" stroke:none;fill-rule:nonzero;fill:rgb(0%,0%,0%);fill-opacity:1;" />
    <path
       id="path146"
       d="M 110.105469 9.570312 L 120.597656 9.570312 L 120.597656 12.070312 L 110.105469 12.070312 Z M 110.105469 9.570312 "
       style=" stroke:none;fill-rule:evenodd;fill:rgb(0%,0%,0%);fill-opacity:1;" />
    <path
       id="path148"
       d="M 198.320312 9.570312 L 220.96875 9.570312 L 220.96875 12.070312 L 198.320312 12.070312 Z M 198.320312 9.570312 "
       style=" stroke:none;fill-rule:evenodd;fill:rgb(0%,0%,0%);fill-opacity:1;" />
    <path
       id="path150"
       d="M 238.699219 9.570312 L 261.601562 9.570312 L 261.601562 12.070312 L 238.699219 12.070312 Z M 238.699219 9.570312 "
       style=" stroke:none;fill-rule:evenodd;fill:rgb(0%,0%,0%);fill-opacity:1;" />
    <path
       id="path152"
       d="M 309.316406 9.570312 L 320.277344 9.570312 L 320.277344 12.070312 L 309.316406 12.070312 Z M 309.316406 9.570312 "
       style=" stroke:none;fill-rule:evenodd;fill:rgb(0%,0%,0%);fill-opacity:1;" />
    <path
       id="path154"
       d="M 346.433594 9.570312 L 357.394531 9.570312 L 357.394531 12.070312 L 346.433594 12.070312 Z M 346.433594 9.570312 "
       style=" stroke:none;fill-rule:evenodd;fill:rgb(0%,0%,0%);fill-opacity:1;" />
    <path
       id="path156"
       d="M 397.328125 9.570312 L 407.984375 9.570312 L 407.984375 12.070312 L 397.328125 12.070312 Z M 397.328125 9.570312 "
       style=" stroke:none;fill-rule:evenodd;fill:rgb(0%,0%,0%);fill-opacity:1;" />
    <path
       id="path158"
       d="M 62.375 13.320312 L 62.375 8.320312 L 63 8.320312 C 63 9.0625 63.144531 9.804688 63.429688 10.546875 C 63.742188 11.351562 64.085938 12.054688 64.464844 12.65625 C 64.738281 13.085938 65.148438 13.742188 65.695312 14.628906 C 66.113281 15.304688 66.464844 16.015625 66.75 16.757812 C 67.035156 17.5 67.179688 18.242188 67.179688 18.984375 C 67.179688 20.335938 66.898438 21.71875 66.339844 23.125 C 66.25 23.28125 66.125 23.359375 65.96875 23.359375 C 65.839844 23.359375 65.722656 23.304688 65.617188 23.203125 C 65.539062 23.125 65.5 23.027344 65.5 22.910156 L 65.5 22.8125 C 66.058594 21.523438 66.339844 20.246094 66.339844 18.984375 C 66.339844 18.332031 66.144531 17.628906 65.753906 16.875 C 65.363281 16.105469 64.964844 15.492188 64.5625 15.039062 C 64.105469 14.503906 63.585938 13.929688 63 13.320312 Z M 62.375 13.320312 "
       style=" stroke:none;fill-rule:nonzero;fill:rgb(0%,0%,0%);fill-opacity:1;" />
    <path
       id="path160"
       d="M 75.011719 13.320312 L 75.011719 8.320312 L 75.636719 8.320312 C 75.636719 9.0625 75.78125 9.804688 76.066406 10.546875 C 76.378906 11.351562 76.726562 12.054688 77.101562 12.65625 C 77.375 13.085938 77.785156 13.742188 78.332031 14.628906 C 78.75 15.304688 79.101562 16.015625 79.386719 16.757812 C 79.675781 17.5 79.816406 18.242188 79.816406 18.984375 C 79.816406 20.335938 79.539062 21.71875 78.976562 23.125 C 78.886719 23.28125 78.761719 23.359375 78.605469 23.359375 C 78.476562 23.359375 78.359375 23.304688 78.253906 23.203125 C 78.175781 23.125 78.136719 23.027344 78.136719 22.910156 L 78.136719 22.8125 C 78.699219 21.523438 78.976562 20.246094 78.976562 18.984375 C 78.976562 18.332031 78.78125 17.628906 78.390625 16.875 C 78 16.105469 77.605469 15.492188 77.199219 15.039062 C 76.746094 14.503906 76.222656 13.929688 75.636719 13.320312 Z M 75.011719 13.320312 "
       style=" stroke:none;fill-rule:nonzero;fill:rgb(0%,0%,0%);fill-opacity:1;" />
    <path
       id="path162"
       d="M 185.683594 13.320312 L 185.683594 8.320312 L 186.308594 8.320312 C 186.308594 9.0625 186.449219 9.804688 186.738281 10.546875 C 187.050781 11.351562 187.394531 12.054688 187.773438 12.65625 C 188.046875 13.085938 188.457031 13.742188 189.003906 14.628906 C 189.417969 15.304688 189.769531 16.015625 190.058594 16.757812 C 190.34375 17.5 190.488281 18.242188 190.488281 18.984375 C 190.488281 20.335938 190.207031 21.71875 189.648438 23.125 C 189.554688 23.28125 189.433594 23.359375 189.277344 23.359375 C 189.144531 23.359375 189.027344 23.304688 188.925781 23.203125 C 188.847656 23.125 188.808594 23.027344 188.808594 22.910156 L 188.808594 22.8125 C 189.367188 21.523438 189.648438 20.246094 189.648438 18.984375 C 189.648438 18.332031 189.453125 17.628906 189.0625 16.875 C 188.671875 16.105469 188.273438 15.492188 187.871094 15.039062 C 187.414062 14.503906 186.894531 13.929688 186.308594 13.320312 Z M 185.683594 13.320312 "
       style=" stroke:none;fill-rule:nonzero;fill:rgb(0%,0%,0%);fill-opacity:1;" />
    <path
       id="path164"
       d="M 272.078125 13.320312 L 272.078125 8.320312 L 272.703125 8.320312 C 272.703125 9.0625 272.847656 9.804688 273.132812 10.546875 C 273.445312 11.351562 273.789062 12.054688 274.167969 12.65625 C 274.441406 13.085938 274.851562 13.742188 275.398438 14.628906 C 275.816406 15.304688 276.167969 16.015625 276.453125 16.757812 C 276.738281 17.5 276.882812 18.242188 276.882812 18.984375 C 276.882812 20.335938 276.601562 21.71875 276.042969 23.125 C 275.953125 23.28125 275.828125 23.359375 275.671875 23.359375 C 275.542969 23.359375 275.425781 23.304688 275.320312 23.203125 C 275.242188 23.125 275.203125 23.027344 275.203125 22.910156 L 275.203125 22.8125 C 275.761719 21.523438 276.042969 20.246094 276.042969 18.984375 C 276.042969 18.332031 275.847656 17.628906 275.457031 16.875 C 275.066406 16.105469 274.667969 15.492188 274.265625 15.039062 C 273.808594 14.503906 273.289062 13.929688 272.703125 13.320312 Z M 272.078125 13.320312 "
       style=" stroke:none;fill-rule:nonzero;fill:rgb(0%,0%,0%);fill-opacity:1;" />
  </g>
</svg>
