<?xml version="1.0" encoding="UTF-8" standalone="no"?>
<svg
   xmlns:dc="http://purl.org/dc/elements/1.1/"
   xmlns:cc="http://creativecommons.org/ns#"
   xmlns:rdf="http://www.w3.org/1999/02/22-rdf-syntax-ns#"
   xmlns:svg="http://www.w3.org/2000/svg"
   xmlns="http://www.w3.org/2000/svg"
   xmlns:sodipodi="http://sodipodi.sourceforge.net/DTD/sodipodi-0.dtd"
   xmlns:inkscape="http://www.inkscape.org/namespaces/inkscape"
   inkscape:version="1.0 (4035a4f, 2020-05-01)"
   sodipodi:docname="ternary_rhythms_5.svg"
   id="svg733"
   version="1.2"
   viewBox="0 0 430 50"
   height="50pt"
   width="430pt">
  <metadata
     id="metadata739">
    <rdf:RDF>
      <cc:Work
         rdf:about="">
        <dc:format>image/svg+xml</dc:format>
        <dc:type
           rdf:resource="http://purl.org/dc/dcmitype/StillImage" />
        <dc:title></dc:title>
      </cc:Work>
    </rdf:RDF>
  </metadata>
  <defs
     id="defs737" />
  <sodipodi:namedview
     inkscape:current-layer="surface3248"
     inkscape:window-maximized="1"
     inkscape:window-y="23"
     inkscape:window-x="0"
     inkscape:cy="561.33337"
     inkscape:cx="396.66667"
     inkscape:zoom="0.57630637"
     showgrid="false"
     id="namedview735"
     inkscape:window-height="855"
     inkscape:window-width="1440"
     inkscape:pageshadow="2"
     inkscape:pageopacity="0"
     guidetolerance="10"
     gridtolerance="10"
     objecttolerance="10"
     borderopacity="1"
     bordercolor="#666666"
     pagecolor="#ffffff" />
  <g
     id="surface3248">
    <path
       id="path52"
       d="m 3.75,12.070313 h 97.92187 m -97.92187,5 h 97.92187 M 3.75,22.074219 h 97.92187 m -97.92187,5 h 97.92187 m -97.92187,5 h 97.92187"
       style="fill:none;stroke:#000000;stroke-width:0.400025;stroke-linecap:butt;stroke-linejoin:bevel;stroke-miterlimit:10;stroke-opacity:1" />
    <path
       id="path56"
       d="m 101.67187,12.070313 h 59.43359 m -59.43359,5 h 59.43359 m -59.43359,5.003906 h 59.43359 m -59.43359,5 h 59.43359 m -59.43359,5 h 59.43359"
       style="fill:none;stroke:#000000;stroke-width:0.400025;stroke-linecap:butt;stroke-linejoin:bevel;stroke-miterlimit:10;stroke-opacity:1" />
    <path
       id="path60"
       d="m 161.10546,12.070313 h 71.08594 m -71.08594,5 h 71.08594 m -71.08594,5.003906 h 71.08594 m -71.08594,5 h 71.08594 m -71.08594,5 h 71.08594"
       style="fill:none;stroke:#000000;stroke-width:0.400025;stroke-linecap:butt;stroke-linejoin:bevel;stroke-miterlimit:10;stroke-opacity:1" />
    <path
       id="path64"
       d="m 232.1914,12.070313 h 68.05469 m -68.05469,5 h 68.05469 m -68.05469,5.003906 h 68.05469 m -68.05469,5 h 68.05469 m -68.05469,5 h 68.05469"
       style="fill:none;stroke:#000000;stroke-width:0.400025;stroke-linecap:butt;stroke-linejoin:bevel;stroke-miterlimit:10;stroke-opacity:1" />
    <path
       id="path68"
       d="m 300.24609,12.070313 h 68.05859 m -68.05859,5 h 68.05859 m -68.05859,5.003906 h 68.05859 m -68.05859,5 h 68.05859 m -68.05859,5 h 68.05859"
       style="fill:none;stroke:#000000;stroke-width:0.400025;stroke-linecap:butt;stroke-linejoin:bevel;stroke-miterlimit:10;stroke-opacity:1" />
    <path
       id="path72"
       d="m 368.30468,12.070313 h 50.41016 m -50.41016,5 h 50.41016 m -50.41016,5.003906 h 50.41016 m -50.41016,5 h 50.41016 m -50.41016,5 h 50.41016"
       style="fill:none;stroke:#000000;stroke-width:0.364214;stroke-linecap:butt;stroke-linejoin:bevel;stroke-miterlimit:10;stroke-opacity:1" />
    <path
       id="path116"
       d="M 101.27343,12.070313 V 32.074219"
       style="fill:none;stroke:#000000;stroke-width:0.80005;stroke-linecap:butt;stroke-linejoin:bevel;stroke-miterlimit:10;stroke-opacity:1" />
    <path
       id="path120"
       d="M 160.70703,12.070313 V 32.074219"
       style="fill:none;stroke:#000000;stroke-width:0.80005;stroke-linecap:butt;stroke-linejoin:bevel;stroke-miterlimit:10;stroke-opacity:1" />
    <path
       id="path124"
       d="M 231.79296,12.070313 V 32.074219"
       style="fill:none;stroke:#000000;stroke-width:0.80005;stroke-linecap:butt;stroke-linejoin:bevel;stroke-miterlimit:10;stroke-opacity:1" />
    <path
       id="path128"
       d="M 299.84765,12.070313 V 32.074219"
       style="fill:none;stroke:#000000;stroke-width:0.80005;stroke-linecap:butt;stroke-linejoin:bevel;stroke-miterlimit:10;stroke-opacity:1" />
    <path
       id="path132"
       d="M 367.90234,12.070313 V 32.074219"
       style="fill:none;stroke:#000000;stroke-width:0.80005;stroke-linecap:butt;stroke-linejoin:bevel;stroke-miterlimit:10;stroke-opacity:1" />
    <path
       id="path136"
       d="M 418.71484,12.070313 V 32.074219"
       style="fill:none;stroke:#000000;stroke-width:0.80005;stroke-linecap:butt;stroke-linejoin:bevel;stroke-miterlimit:10;stroke-opacity:1" />
    <path
       id="path280"
       d="M 47.046875,23.632813 V 8.320313"
       style="fill:none;stroke:#000000;stroke-width:0.650041;stroke-linecap:round;stroke-linejoin:bevel;stroke-miterlimit:10;stroke-opacity:1" />
    <path
       id="path284"
       d="m 85.585934,23.632813 v -12.8125"
       style="fill:none;stroke:#000000;stroke-width:0.650041;stroke-linecap:round;stroke-linejoin:bevel;stroke-miterlimit:10;stroke-opacity:1" />
    <path
       id="path286"
       d="m 75.625004,23.632813 v -12.8125"
       style="fill:none;stroke:#000000;stroke-width:0.650041;stroke-linecap:round;stroke-linejoin:bevel;stroke-miterlimit:10;stroke-opacity:1" />
    <path
       id="path288"
       d="M 59.683594,23.632813 V 8.320313"
       style="fill:none;stroke:#000000;stroke-width:0.650041;stroke-linecap:round;stroke-linejoin:bevel;stroke-miterlimit:10;stroke-opacity:1" />
    <path
       id="path294"
       d="M 113.92968,23.632813 V 8.320313"
       style="fill:none;stroke:#000000;stroke-width:0.650041;stroke-linecap:round;stroke-linejoin:bevel;stroke-miterlimit:10;stroke-opacity:1" />
    <path
       id="path296"
       d="m 95.546874,23.632813 v -12.8125"
       style="fill:none;stroke:#000000;stroke-width:0.650041;stroke-linecap:round;stroke-linejoin:bevel;stroke-miterlimit:10;stroke-opacity:1" />
    <path
       id="path302"
       d="M 144.58984,23.632813 V 8.320313"
       style="fill:none;stroke:#000000;stroke-width:0.650041;stroke-linecap:round;stroke-linejoin:bevel;stroke-miterlimit:10;stroke-opacity:1" />
    <path
       id="path304"
       d="M 126.57031,23.632813 V 8.320313"
       style="fill:none;stroke:#000000;stroke-width:0.650041;stroke-linecap:round;stroke-linejoin:bevel;stroke-miterlimit:10;stroke-opacity:1" />
    <path
       id="path310"
       d="m 194.1875,23.632813 v -12.8125"
       style="fill:none;stroke:#000000;stroke-width:0.650041;stroke-linecap:round;stroke-linejoin:bevel;stroke-miterlimit:10;stroke-opacity:1" />
    <path
       id="path312"
       d="m 183.77734,23.632813 v -12.8125"
       style="fill:none;stroke:#000000;stroke-width:0.650041;stroke-linecap:round;stroke-linejoin:bevel;stroke-miterlimit:10;stroke-opacity:1" />
    <path
       id="path314"
       d="m 173.36328,23.632813 v -12.8125"
       style="fill:none;stroke:#000000;stroke-width:0.650041;stroke-linecap:round;stroke-linejoin:bevel;stroke-miterlimit:10;stroke-opacity:1" />
    <path
       id="path320"
       d="M 221.26171,23.632813 V 8.320313"
       style="fill:none;stroke:#000000;stroke-width:0.650041;stroke-linecap:round;stroke-linejoin:bevel;stroke-miterlimit:10;stroke-opacity:1" />
    <path
       id="path322"
       d="M 204.60156,23.632813 V 8.320313"
       style="fill:none;stroke:#000000;stroke-width:0.650041;stroke-linecap:round;stroke-linejoin:bevel;stroke-miterlimit:10;stroke-opacity:1" />
    <path
       id="path328"
       d="M 273.20312,23.632813 V 8.320313"
       style="fill:none;stroke:#000000;stroke-width:0.650041;stroke-linecap:round;stroke-linejoin:bevel;stroke-miterlimit:10;stroke-opacity:1" />
    <path
       id="path330"
       d="M 260.5625,23.632813 V 8.320313"
       style="fill:none;stroke:#000000;stroke-width:0.650041;stroke-linecap:round;stroke-linejoin:bevel;stroke-miterlimit:10;stroke-opacity:1" />
    <path
       id="path332"
       d="M 244.44921,23.632813 V 8.320313"
       style="fill:none;stroke:#000000;stroke-width:0.650041;stroke-linecap:round;stroke-linejoin:bevel;stroke-miterlimit:10;stroke-opacity:1" />
    <path
       id="path338"
       d="M 289.3164,23.632813 V 8.320313"
       style="fill:none;stroke:#000000;stroke-width:0.650041;stroke-linecap:round;stroke-linejoin:bevel;stroke-miterlimit:10;stroke-opacity:1" />
    <path
       id="path344"
       d="M 343.13281,23.632813 V 8.320313"
       style="fill:none;stroke:#000000;stroke-width:0.650041;stroke-linecap:round;stroke-linejoin:bevel;stroke-miterlimit:10;stroke-opacity:1" />
    <path
       id="path346"
       d="M 325.14453,23.632813 V 8.320313"
       style="fill:none;stroke:#000000;stroke-width:0.650041;stroke-linecap:round;stroke-linejoin:bevel;stroke-miterlimit:10;stroke-opacity:1" />
    <path
       id="path348"
       d="M 312.50781,23.632813 V 8.320313"
       style="fill:none;stroke:#000000;stroke-width:0.650041;stroke-linecap:round;stroke-linejoin:bevel;stroke-miterlimit:10;stroke-opacity:1" />
    <path
       id="path354"
       d="M 380.5625,23.632813 V 8.320313"
       style="fill:none;stroke:#000000;stroke-width:0.650041;stroke-linecap:round;stroke-linejoin:bevel;stroke-miterlimit:10;stroke-opacity:1" />
    <path
       id="path356"
       d="M 355.77343,23.632813 V 8.320313"
       style="fill:none;stroke:#000000;stroke-width:0.650041;stroke-linecap:round;stroke-linejoin:bevel;stroke-miterlimit:10;stroke-opacity:1" />
    <path
       id="path362"
       d="M 402.5664,23.632813 V 8.320313"
       style="fill:none;stroke:#000000;stroke-width:0.650041;stroke-linecap:round;stroke-linejoin:bevel;stroke-miterlimit:10;stroke-opacity:1" />
    <path
       id="path510"
       d="m 45.183594,21.820313 c 0.625,0 1.152344,0.160156 1.582031,0.488281 0.402344,0.351563 0.605469,0.792969 0.605469,1.328125 0,0.898438 -0.460938,1.738281 -1.386719,2.519531 -0.9375,0.78125 -1.941406,1.171875 -3.007812,1.171875 -0.625,0 -1.152344,-0.164062 -1.582031,-0.488281 -0.402344,-0.351563 -0.605469,-0.796875 -0.605469,-1.328125 0,-0.898438 0.46875,-1.738281 1.40625,-2.519531 0.910156,-0.78125 1.90625,-1.171875 2.988281,-1.171875 z m 0,0"
       style="fill:#000000;fill-opacity:1;fill-rule:nonzero;stroke:none" />
    <path
       id="path518"
       d="m 83.722654,21.820313 c 0.625,0 1.15235,0.160156 1.58203,0.488281 0.40235,0.351563 0.60547,0.792969 0.60547,1.328125 0,0.898438 -0.46093,1.738281 -1.38672,2.519531 -0.9375,0.78125 -1.9414,1.171875 -3.00781,1.171875 -0.625,0 -1.15234,-0.164062 -1.58203,-0.488281 -0.40625,-0.351563 -0.60547,-0.796875 -0.60547,-1.328125 0,-0.898438 0.46875,-1.738281 1.40625,-2.519531 0.91016,-0.78125 1.90625,-1.171875 2.98828,-1.171875 z m 0,0"
       style="fill:#000000;fill-opacity:1;fill-rule:nonzero;stroke:none" />
    <path
       id="path520"
       d="m 73.761719,21.820313 c 0.625,0 1.152344,0.160156 1.582031,0.488281 0.402344,0.351563 0.605474,0.792969 0.605474,1.328125 0,0.898438 -0.46485,1.738281 -1.386724,2.519531 -0.9375,0.78125 -1.941406,1.171875 -3.007812,1.171875 -0.625,0 -1.152344,-0.164062 -1.582032,-0.488281 -0.40625,-0.351563 -0.605468,-0.796875 -0.605468,-1.328125 0,-0.898438 0.46875,-1.738281 1.40625,-2.519531 0.910156,-0.78125 1.90625,-1.171875 2.988281,-1.171875 z m 0,0"
       style="fill:#000000;fill-opacity:1;fill-rule:nonzero;stroke:none" />
    <path
       id="path522"
       d="m 57.820313,21.820313 c 0.625,0 1.152343,0.160156 1.582031,0.488281 0.40625,0.351563 0.605469,0.792969 0.605469,1.328125 0,0.898438 -0.460938,1.738281 -1.386719,2.519531 -0.9375,0.78125 -1.9375,1.171875 -3.007812,1.171875 -0.625,0 -1.152344,-0.164062 -1.582032,-0.488281 -0.402344,-0.351563 -0.605468,-0.796875 -0.605468,-1.328125 0,-0.898438 0.46875,-1.738281 1.40625,-2.519531 0.914062,-0.78125 1.910156,-1.171875 2.988281,-1.171875 z m 0,0"
       style="fill:#000000;fill-opacity:1;fill-rule:nonzero;stroke:none" />
    <path
       id="path526"
       d="m 124.70703,21.820313 c 0.625,0 1.15234,0.160156 1.58203,0.488281 0.40234,0.351563 0.60547,0.792969 0.60547,1.328125 0,0.898438 -0.46485,1.738281 -1.38672,2.519531 -0.9375,0.78125 -1.94141,1.171875 -3.00781,1.171875 -0.625,0 -1.15235,-0.164062 -1.58204,-0.488281 -0.40625,-0.351563 -0.60546,-0.796875 -0.60546,-1.328125 0,-0.898438 0.46875,-1.738281 1.40625,-2.519531 0.91015,-0.78125 1.90625,-1.171875 2.98828,-1.171875 z m 0,0"
       style="fill:#000000;fill-opacity:1;fill-rule:nonzero;stroke:none" />
    <path
       id="path528"
       d="m 112.0664,21.820313 c 0.625,0 1.15235,0.160156 1.58203,0.488281 0.40625,0.351563 0.60547,0.792969 0.60547,1.328125 0,0.898438 -0.46094,1.738281 -1.38672,2.519531 -0.9375,0.78125 -1.9375,1.171875 -3.00781,1.171875 -0.625,0 -1.15234,-0.164062 -1.58203,-0.488281 -0.40234,-0.351563 -0.60547,-0.796875 -0.60547,-1.328125 0,-0.898438 0.46875,-1.738281 1.40625,-2.519531 0.91406,-0.78125 1.91016,-1.171875 2.98828,-1.171875 z m 0,0"
       style="fill:#000000;fill-opacity:1;fill-rule:nonzero;stroke:none" />
    <path
       id="path530"
       d="m 93.683594,21.820313 c 0.625,0 1.15234,0.160156 1.58203,0.488281 0.40235,0.351563 0.60547,0.792969 0.60547,1.328125 0,0.898438 -0.46094,1.738281 -1.38672,2.519531 -0.9375,0.78125 -1.9414,1.171875 -3.00781,1.171875 -0.625,0 -1.15234,-0.164062 -1.58203,-0.488281 -0.40235,-0.351563 -0.60547,-0.796875 -0.60547,-1.328125 0,-0.898438 0.46875,-1.738281 1.40625,-2.519531 0.91016,-0.78125 1.90625,-1.171875 2.98828,-1.171875 z m 0,0"
       style="fill:#000000;fill-opacity:1;fill-rule:nonzero;stroke:none" />
    <path
       id="path536"
       d="m 142.72656,21.820313 c 0.625,0 1.15234,0.160156 1.58203,0.488281 0.40625,0.351563 0.60547,0.792969 0.60547,1.328125 0,0.898438 -0.46094,1.738281 -1.38672,2.519531 -0.9375,0.78125 -1.94141,1.171875 -3.00781,1.171875 -0.625,0 -1.15235,-0.164062 -1.58203,-0.488281 -0.40235,-0.351563 -0.60547,-0.796875 -0.60547,-1.328125 0,-0.898438 0.46875,-1.738281 1.40625,-2.519531 0.91015,-0.78125 1.90625,-1.171875 2.98828,-1.171875 z m 0,0"
       style="fill:#000000;fill-opacity:1;fill-rule:nonzero;stroke:none" />
    <path
       id="path542"
       d="m 202.73828,21.820313 c 0.625,0 1.15234,0.160156 1.58203,0.488281 0.40234,0.351563 0.60547,0.792969 0.60547,1.328125 0,0.898438 -0.46094,1.738281 -1.38672,2.519531 -0.9375,0.78125 -1.94141,1.171875 -3.00781,1.171875 -0.625,0 -1.15235,-0.164062 -1.58204,-0.488281 -0.40234,-0.351563 -0.60546,-0.796875 -0.60546,-1.328125 0,-0.898438 0.46875,-1.738281 1.40625,-2.519531 0.91015,-0.78125 1.90625,-1.171875 2.98828,-1.171875 z m 0,0"
       style="fill:#000000;fill-opacity:1;fill-rule:nonzero;stroke:none" />
    <path
       id="path544"
       d="m 192.32421,21.820313 c 0.625,0 1.15235,0.160156 1.58204,0.488281 0.40625,0.351563 0.60546,0.792969 0.60546,1.328125 0,0.898438 -0.46093,1.738281 -1.38671,2.519531 -0.9375,0.78125 -1.9375,1.171875 -3.00782,1.171875 -0.625,0 -1.15234,-0.164062 -1.58203,-0.488281 -0.40234,-0.351563 -0.60547,-0.796875 -0.60547,-1.328125 0,-0.898438 0.46875,-1.738281 1.40625,-2.519531 0.91407,-0.78125 1.91016,-1.171875 2.98828,-1.171875 z m 0,0"
       style="fill:#000000;fill-opacity:1;fill-rule:nonzero;stroke:none" />
    <path
       id="path546"
       d="m 181.91406,21.820313 c 0.625,0 1.15234,0.160156 1.58203,0.488281 0.40234,0.351563 0.60547,0.792969 0.60547,1.328125 0,0.898438 -0.46094,1.738281 -1.38672,2.519531 -0.9375,0.78125 -1.94141,1.171875 -3.00781,1.171875 -0.625,0 -1.15235,-0.164062 -1.58203,-0.488281 -0.40235,-0.351563 -0.60547,-0.796875 -0.60547,-1.328125 0,-0.898438 0.46875,-1.738281 1.40625,-2.519531 0.91015,-0.78125 1.90625,-1.171875 2.98828,-1.171875 z m 0,0"
       style="fill:#000000;fill-opacity:1;fill-rule:nonzero;stroke:none" />
    <path
       id="path548"
       d="m 171.5,21.820313 c 0.625,0 1.15234,0.160156 1.58203,0.488281 0.40625,0.351563 0.60547,0.792969 0.60547,1.328125 0,0.898438 -0.46094,1.738281 -1.38672,2.519531 -0.9375,0.78125 -1.9375,1.171875 -3.00782,1.171875 -0.625,0 -1.15234,-0.164062 -1.58203,-0.488281 -0.40234,-0.351563 -0.60547,-0.796875 -0.60547,-1.328125 0,-0.898438 0.46875,-1.738281 1.40625,-2.519531 0.91407,-0.78125 1.91016,-1.171875 2.98829,-1.171875 z m 0,0"
       style="fill:#000000;fill-opacity:1;fill-rule:nonzero;stroke:none" />
    <path
       id="path554"
       d="m 219.39843,21.820313 c 0.625,0 1.15235,0.160156 1.58203,0.488281 0.40235,0.351563 0.60547,0.792969 0.60547,1.328125 0,0.898438 -0.46484,1.738281 -1.38672,2.519531 -0.9375,0.78125 -1.9414,1.171875 -3.00781,1.171875 -0.625,0 -1.15234,-0.164062 -1.58203,-0.488281 -0.40625,-0.351563 -0.60547,-0.796875 -0.60547,-1.328125 0,-0.898438 0.46875,-1.738281 1.40625,-2.519531 0.91016,-0.78125 1.90625,-1.171875 2.98828,-1.171875 z m 0,0"
       style="fill:#000000;fill-opacity:1;fill-rule:nonzero;stroke:none" />
    <path
       id="path560"
       d="m 271.33984,21.820313 c 0.625,0 1.15234,0.160156 1.58203,0.488281 0.40234,0.351563 0.60547,0.792969 0.60547,1.328125 0,0.898438 -0.46484,1.738281 -1.38672,2.519531 -0.9375,0.78125 -1.94141,1.171875 -3.00781,1.171875 -0.625,0 -1.15235,-0.164062 -1.58203,-0.488281 -0.40625,-0.351563 -0.60547,-0.796875 -0.60547,-1.328125 0,-0.898438 0.46875,-1.738281 1.40625,-2.519531 0.91015,-0.78125 1.90625,-1.171875 2.98828,-1.171875 z m 0,0"
       style="fill:#000000;fill-opacity:1;fill-rule:nonzero;stroke:none" />
    <path
       id="path562"
       d="m 258.69921,21.820313 c 0.625,0 1.15235,0.160156 1.58204,0.488281 0.40625,0.351563 0.60546,0.792969 0.60546,1.328125 0,0.898438 -0.46093,1.738281 -1.38671,2.519531 -0.9375,0.78125 -1.9375,1.171875 -3.00782,1.171875 -0.625,0 -1.15234,-0.164062 -1.58203,-0.488281 -0.40234,-0.351563 -0.60547,-0.796875 -0.60547,-1.328125 0,-0.898438 0.46875,-1.738281 1.40625,-2.519531 0.91407,-0.78125 1.91016,-1.171875 2.98828,-1.171875 z m 0,0"
       style="fill:#000000;fill-opacity:1;fill-rule:nonzero;stroke:none" />
    <path
       id="path564"
       d="m 242.58593,21.820313 c 0.625,0 1.15235,0.160156 1.58203,0.488281 0.40235,0.351563 0.60547,0.792969 0.60547,1.328125 0,0.898438 -0.46093,1.738281 -1.38672,2.519531 -0.9375,0.78125 -1.9414,1.171875 -3.00781,1.171875 -0.625,0 -1.15234,-0.164062 -1.58203,-0.488281 -0.40234,-0.351563 -0.60547,-0.796875 -0.60547,-1.328125 0,-0.898438 0.46875,-1.738281 1.40625,-2.519531 0.91016,-0.78125 1.90625,-1.171875 2.98828,-1.171875 z m 0,0"
       style="fill:#000000;fill-opacity:1;fill-rule:nonzero;stroke:none" />
    <path
       id="path570"
       d="m 310.64062,21.820313 c 0.625,0 1.15625,0.160156 1.58594,0.488281 0.40234,0.351563 0.60547,0.792969 0.60547,1.328125 0,0.898438 -0.46485,1.738281 -1.38672,2.519531 -0.94141,0.78125 -1.94141,1.171875 -3.01172,1.171875 -0.625,0 -1.15234,-0.164062 -1.58203,-0.488281 -0.40235,-0.351563 -0.60547,-0.796875 -0.60547,-1.328125 0,-0.898438 0.46875,-1.738281 1.40625,-2.519531 0.91406,-0.78125 1.91016,-1.171875 2.98828,-1.171875 z m 0,0"
       style="fill:#000000;fill-opacity:1;fill-rule:nonzero;stroke:none" />
    <path
       id="path572"
       d="m 287.45312,21.820313 c 0.625,0 1.15234,0.160156 1.58203,0.488281 0.40235,0.351563 0.60547,0.792969 0.60547,1.328125 0,0.898438 -0.46094,1.738281 -1.38672,2.519531 -0.9375,0.78125 -1.9414,1.171875 -3.00781,1.171875 -0.625,0 -1.15234,-0.164062 -1.58203,-0.488281 -0.40235,-0.351563 -0.60547,-0.796875 -0.60547,-1.328125 0,-0.898438 0.46875,-1.738281 1.40625,-2.519531 0.91016,-0.78125 1.90625,-1.171875 2.98828,-1.171875 z m 0,0"
       style="fill:#000000;fill-opacity:1;fill-rule:nonzero;stroke:none" />
    <path
       id="path578"
       d="m 341.26953,21.820313 c 0.625,0 1.15234,0.160156 1.58203,0.488281 0.40625,0.351563 0.60547,0.792969 0.60547,1.328125 0,0.898438 -0.46094,1.738281 -1.38672,2.519531 -0.9375,0.78125 -1.9375,1.171875 -3.00781,1.171875 -0.625,0 -1.15235,-0.164062 -1.58204,-0.488281 -0.40234,-0.351563 -0.60546,-0.796875 -0.60546,-1.328125 0,-0.898438 0.46875,-1.738281 1.40625,-2.519531 0.91406,-0.78125 1.91015,-1.171875 2.98828,-1.171875 z m 0,0"
       style="fill:#000000;fill-opacity:1;fill-rule:nonzero;stroke:none" />
    <path
       id="path580"
       d="m 323.28125,21.820313 c 0.625,0 1.15234,0.160156 1.58203,0.488281 0.40234,0.351563 0.60547,0.792969 0.60547,1.328125 0,0.898438 -0.46094,1.738281 -1.38672,2.519531 -0.9375,0.78125 -1.94141,1.171875 -3.00782,1.171875 -0.625,0 -1.15234,-0.164062 -1.58203,-0.488281 -0.40625,-0.351563 -0.60547,-0.796875 -0.60547,-1.328125 0,-0.898438 0.46875,-1.738281 1.40625,-2.519531 0.91016,-0.78125 1.90625,-1.171875 2.98829,-1.171875 z m 0,0"
       style="fill:#000000;fill-opacity:1;fill-rule:nonzero;stroke:none" />
    <path
       id="path588"
       d="m 378.69921,21.820313 c 0.625,0 1.15235,0.160156 1.58204,0.488281 0.40234,0.351563 0.60546,0.792969 0.60546,1.328125 0,0.898438 -0.46093,1.738281 -1.38671,2.519531 -0.9375,0.78125 -1.94141,1.171875 -3.00782,1.171875 -0.625,0 -1.15234,-0.164062 -1.58203,-0.488281 -0.40625,-0.351563 -0.60547,-0.796875 -0.60547,-1.328125 0,-0.898438 0.46875,-1.738281 1.40625,-2.519531 0.91016,-0.78125 1.90625,-1.171875 2.98828,-1.171875 z m 0,0"
       style="fill:#000000;fill-opacity:1;fill-rule:nonzero;stroke:none" />
    <path
       id="path590"
       d="m 353.91015,21.820313 c 0.625,0 1.15235,0.160156 1.58203,0.488281 0.40235,0.351563 0.60547,0.792969 0.60547,1.328125 0,0.898438 -0.46484,1.738281 -1.38672,2.519531 -0.9375,0.78125 -1.9414,1.171875 -3.00781,1.171875 -0.625,0 -1.15234,-0.164062 -1.58203,-0.488281 -0.40625,-0.351563 -0.60547,-0.796875 -0.60547,-1.328125 0,-0.898438 0.46875,-1.738281 1.40625,-2.519531 0.91016,-0.78125 1.90625,-1.171875 2.98828,-1.171875 z m 0,0"
       style="fill:#000000;fill-opacity:1;fill-rule:nonzero;stroke:none" />
    <path
       id="path594"
       d="m 400.70312,21.820313 c 0.625,0 1.15234,0.160156 1.58203,0.488281 0.40625,0.351563 0.60547,0.792969 0.60547,1.328125 0,0.898438 -0.46094,1.738281 -1.38672,2.519531 -0.9375,0.78125 -1.9375,1.171875 -3.00781,1.171875 -0.625,0 -1.15234,-0.164062 -1.58203,-0.488281 -0.40235,-0.351563 -0.60547,-0.796875 -0.60547,-1.328125 0,-0.898438 0.46875,-1.738281 1.40625,-2.519531 0.91406,-0.78125 1.91016,-1.171875 2.98828,-1.171875 z m 0,0"
       style="fill:#000000;fill-opacity:1;fill-rule:nonzero;stroke:none" />
    <path
       id="path602"
       d="m 14.292969,21.957031 c 0,0 0.03906,0 0.117187,0 0.05078,-0.01562 0.09766,-0.01953 0.136719,-0.01953 1.457031,0 2.65625,0.511719 3.59375,1.542969 0.9375,1.015625 1.40625,2.199219 1.40625,3.554688 0,1.679687 -0.695312,3.046874 -2.089843,4.101562 -0.363282,0.285156 -0.839844,0.519531 -1.425782,0.703125 0.06641,0.84375 0.09766,1.527344 0.09766,2.050781 0,0.101563 -0.01172,0.480469 -0.03906,1.132813 -0.05078,1.210937 -0.46875,2.257812 -1.25,3.144531 -0.753906,0.871094 -1.691406,1.308594 -2.8125,1.308594 -1.054688,0 -1.953125,-0.371094 -2.695312,-1.113282 C 8.58985,37.60547 8.218756,36.695314 8.218756,35.628908 c 0,-0.5625 0.214844,-1.035157 0.644532,-1.425782 0.441406,-0.390625 0.957031,-0.585937 1.542968,-0.585937 0.519532,0 0.957032,0.199219 1.308594,0.605469 0.363281,0.375 0.546875,0.84375 0.546875,1.40625 0,0.507812 -0.183594,0.941406 -0.546875,1.308593 -0.363281,0.363281 -0.800781,0.546875 -1.308594,0.546875 -0.207031,0 -0.410156,-0.03906 -0.605468,-0.117187 0.574218,0.847656 1.335937,1.269531 2.285156,1.269531 0.898437,0 1.632812,-0.363281 2.207031,-1.09375 0.597656,-0.757812 0.925781,-1.636719 0.976563,-2.636719 0.02734,-0.625 0.03906,-0.984375 0.03906,-1.074219 0,-0.730468 -0.02734,-1.328124 -0.07813,-1.796874 -0.652344,0.101562 -1.230469,0.15625 -1.738281,0.15625 -1.808594,0 -3.351563,-0.71875 -4.628906,-2.148438 -1.25,-1.445312 -1.875,-3.164062 -1.875,-5.15625 0,-0.417969 0.03906,-0.839844 0.117187,-1.269531 0.07813,-0.351563 0.175781,-0.738281 0.292969,-1.152344 0.06641,-0.234375 0.242187,-0.613281 0.527344,-1.132813 0.105468,-0.15625 0.222656,-0.351562 0.351562,-0.585937 0.128906,-0.234375 0.222656,-0.390625 0.273438,-0.46875 0.128906,-0.261719 0.382812,-0.613281 0.761718,-1.054687 0.105469,-0.117188 0.210938,-0.25 0.320313,-0.390626 0.113281,-0.144531 0.207031,-0.261718 0.285156,-0.351562 0.07813,-0.09375 0.136719,-0.164062 0.175781,-0.214844 0.03906,-0.05469 0.332032,-0.398437 0.878906,-1.035156 0.128907,-0.132812 0.257813,-0.273438 0.382813,-0.421875 0.121094,-0.148437 0.222656,-0.265625 0.300781,-0.351563 0.07813,-0.08594 0.136719,-0.148437 0.175782,-0.1875 -0.46875,-1.546874 -0.761719,-2.785156 -0.878907,-3.710937 -0.08984,-0.742187 -0.136719,-1.757813 -0.136719,-3.046875 0,-1.132812 0.261719,-2.191406 0.78125,-3.183594 0.507813,-1.027344 1.21875,-1.867187 2.128907,-2.519531 C 13.792969,3.769531 13.855469,3.75 13.921875,3.75 c 0.08984,0 0.15625,0.019531 0.195313,0.058594 0.703125,0.847656 1.308594,1.949219 1.816406,3.300781 0.519531,1.355469 0.78125,2.585938 0.78125,3.691406 0,1.25 -0.300781,2.421876 -0.898438,3.515626 -0.675781,1.160156 -1.550781,2.359374 -2.617187,3.597656 0.273437,0.859375 0.636719,2.207031 1.09375,4.042968 z m 1.660156,9.082032 c 0.675781,-0.25 1.203125,-0.671875 1.582031,-1.269532 0.417969,-0.574218 0.625,-1.21875 0.625,-1.933593 0,-0.925781 -0.3125,-1.746094 -0.9375,-2.460938 -0.636718,-0.742187 -1.453124,-1.160156 -2.441406,-1.25 0.558594,2.746094 0.949219,5.050781 1.171875,6.914063 z M 8.394532,26.527344 c 0,1.289063 0.519531,2.421875 1.5625,3.398437 1.066406,0.949219 2.265624,1.425782 3.59375,1.425782 0.546874,0 1.082031,-0.03906 1.601562,-0.117188 C 14.945313,29.253907 14.535156,26.882813 13.921875,24.125 13.179688,24.20313 12.585938,24.460938 12.144532,24.90625 11.714844,25.359375 11.5,25.875 11.5,26.449219 c 0,0.988281 0.527344,1.789062 1.582032,2.402344 0.08984,0.08984 0.136718,0.1875 0.136718,0.292968 0,0.101563 -0.04687,0.199219 -0.136718,0.292969 -0.07813,0.08984 -0.175782,0.136719 -0.292969,0.136719 -0.01172,0 -0.07031,-0.01563 -0.175781,-0.03906 -0.742188,-0.40625 -1.316407,-0.925782 -1.71875,-1.5625 -0.378907,-0.679688 -0.566407,-1.363282 -0.566407,-2.050782 0,-0.898437 0.28125,-1.714844 0.839844,-2.441406 0.585937,-0.730469 1.347656,-1.199219 2.285156,-1.40625 -0.363281,-1.460938 -0.664062,-2.597656 -0.898437,-3.417969 -0.207032,0.234375 -0.457032,0.515625 -0.75,0.847657 -0.292969,0.332031 -0.46875,0.53125 -0.519532,0.597656 -0.46875,0.609375 -0.828124,1.085937 -1.074218,1.425781 -0.441406,0.609375 -0.769532,1.136719 -0.976563,1.582031 -0.222656,0.492188 -0.417969,1.035156 -0.585937,1.621094 -0.167969,0.558594 -0.253906,1.15625 -0.253906,1.796875 z M 14.917969,6.660157 c -0.976563,0.484374 -1.746094,1.171874 -2.304687,2.070312 -0.574219,0.925781 -0.859376,1.921875 -0.859376,2.988281 0,0.9375 0.234376,2.203125 0.703126,3.789063 0.9375,-1.132813 1.640624,-2.179688 2.109374,-3.144532 0.496094,-1.015624 0.742188,-2.074218 0.742188,-3.183593 0,-0.832031 -0.128906,-1.671875 -0.390625,-2.519531 z m 0,0"
       style="fill:#000000;fill-opacity:1;fill-rule:nonzero;stroke:none" />
    <path
       id="path618"
       d="m 28.28125,16.953125 c -0.496094,0 -0.800781,0.195313 -0.917968,0.585938 -0.09375,0.289062 -0.136719,0.769531 -0.136719,1.449218 v 0.585938 c 0,0.675781 0.04297,1.15625 0.136719,1.445312 0.117187,0.390626 0.421874,0.585938 0.917968,0.585938 0.546875,0 0.890625,-0.230469 1.035156,-0.683594 0.128907,-0.429687 0.195313,-0.976562 0.195313,-1.640625 0,-0.769531 -0.07422,-1.351562 -0.214844,-1.742187 -0.15625,-0.390625 -0.496093,-0.585938 -1.015625,-0.585938 z m -1.054687,-0.195312 c 0.390625,-0.15625 0.742187,-0.246094 1.054687,-0.273438 1.039063,0 1.875,0.234375 2.5,0.703125 0.597656,0.484375 0.898438,1.171875 0.898438,2.074219 0,0.910156 -0.308594,1.613281 -0.917969,2.109375 -0.613281,0.46875 -1.441406,0.703125 -2.480469,0.703125 -1.070312,0 -1.902344,-0.496094 -2.5,-1.484375 -0.601562,-0.992187 -0.898437,-2.164063 -0.898437,-3.519531 0,-1.328125 0.351562,-2.5 1.054687,-3.515625 0.714844,-0.988281 1.632813,-1.484375 2.753906,-1.484375 0.726563,0 1.371094,0.191406 1.933594,0.566406 0.546875,0.378906 0.820313,0.875 0.820313,1.484375 0,0.378906 -0.132813,0.691406 -0.390625,0.9375 -0.234375,0.261719 -0.535156,0.390625 -0.898438,0.390625 -0.367187,0 -0.679687,-0.128906 -0.9375,-0.390625 -0.261718,-0.257813 -0.390625,-0.570313 -0.390625,-0.9375 0,-0.140625 0.128907,-0.304687 0.390625,-0.488281 0.257813,-0.15625 0.390625,-0.316406 0.390625,-0.488282 0,-0.179687 -0.09375,-0.332031 -0.273437,-0.449218 -0.210938,-0.101563 -0.425782,-0.15625 -0.644532,-0.15625 -0.601562,0 -0.996093,0.242187 -1.191406,0.722656 -0.210937,0.46875 -0.3125,1.152344 -0.3125,2.050781 0,0.261719 0.0039,0.503907 0.01953,0.722657 0.01172,0.222656 0.01953,0.464843 0.01953,0.722656 z m 0,0"
       style="fill:#000000;fill-opacity:1;fill-rule:nonzero;stroke:none" />
    <path
       id="path620"
       d="m 29.714844,26.3125 c 0.648438,-0.71875 0.976562,-1.394531 0.976562,-2.03125 0,-0.535156 -0.230468,-0.957031 -0.683593,-1.269531 -0.445313,-0.3125 -0.992188,-0.46875 -1.640625,-0.46875 -0.457032,0 -0.820313,0.140625 -1.09375,0.429688 -0.273438,0.285156 -0.410156,0.609374 -0.410156,0.976562 0,0.453125 0.199218,0.804688 0.605468,1.054688 z m 0.605469,0.332031 c 1.105469,0.636719 1.660156,1.488282 1.660156,2.558594 0,0.792969 -0.332031,1.464844 -0.996094,2.011719 -0.664062,0.570313 -1.597656,0.859375 -2.792969,0.859375 -1.015624,0 -1.871093,-0.261719 -2.558593,-0.78125 -0.730469,-0.523438 -1.09375,-1.191406 -1.09375,-2.011719 0,-0.300781 0.08984,-0.621093 0.273437,-0.957031 0.167969,-0.300781 0.335938,-0.535156 0.507813,-0.703125 0.07813,-0.105469 0.324219,-0.351563 0.742187,-0.742187 C 25.253906,26.304688 24.84375,25.59375 24.832032,24.75 c 0,-0.71875 0.316406,-1.347656 0.957031,-1.894531 0.636719,-0.523438 1.496093,-0.78125 2.578125,-0.78125 0.859375,0 1.613281,0.195312 2.265625,0.585938 0.625,0.390624 0.9375,0.929687 0.9375,1.621093 -0.02734,0.703125 -0.445313,1.488281 -1.25,2.363281 z m -3.652344,0.585938 c -0.808594,0.714844 -1.226563,1.398438 -1.25,2.050781 0,0.664063 0.277344,1.214844 0.839844,1.660157 0.53125,0.441406 1.175781,0.664062 1.933593,0.664062 0.53125,0 0.949219,-0.171875 1.25,-0.507812 0.3125,-0.3125 0.46875,-0.699219 0.46875,-1.152344 0,-0.5625 -0.230468,-0.972656 -0.683593,-1.230469 z m 0,0"
       style="fill:#000000;fill-opacity:1;fill-rule:nonzero;stroke:none" />
    <path
       id="path654"
       d="m 75.296875,9.570313 h 20.574219 v 2.5 H 75.296875 Z m 0,0"
       style="fill:#000000;fill-opacity:1;fill-rule:evenodd;stroke:none" />
    <path
       id="path656"
       d="m 173.03906,9.570313 h 21.47656 v 2.5 h -21.47656 z m 0,0"
       style="fill:#000000;fill-opacity:1;fill-rule:evenodd;stroke:none" />
    <path
       id="path680"
       d="m 46.722656,13.320313 v -5 h 0.625 c 0,0.742187 0.140626,1.484375 0.429688,2.226562 0.3125,0.808594 0.65625,1.511719 1.035156,2.109375 0.273438,0.429688 0.683594,1.089844 1.230469,1.972657 0.417969,0.679687 0.769531,1.386718 1.054687,2.128906 0.285157,0.742187 0.429688,1.484375 0.429688,2.230468 0,1.351563 -0.28125,2.734376 -0.839844,4.140626 -0.08984,0.15625 -0.214844,0.234374 -0.371094,0.234374 -0.128906,0 -0.246093,-0.05469 -0.351562,-0.15625 -0.07813,-0.07812 -0.117188,-0.175781 -0.117188,-0.292968 v -0.09766 C 50.40625,21.52734 50.6875,20.249996 50.6875,18.988277 c 0,-0.652343 -0.195312,-1.355468 -0.585937,-2.113281 -0.390625,-0.765625 -0.789063,-1.378906 -1.191407,-1.835937 -0.457031,-0.53125 -0.976562,-1.105469 -1.5625,-1.71875 z m 0,0"
       style="fill:#000000;fill-opacity:1;fill-rule:nonzero;stroke:none" />
    <path
       id="path682"
       d="m 113.60546,13.320313 v -5 h 0.625 c 0,0.742187 0.14454,1.484375 0.42969,2.226562 0.3125,0.808594 0.66016,1.511719 1.03516,2.109375 0.27344,0.429688 0.68359,1.089844 1.23047,1.972657 0.41797,0.679687 0.76953,1.386718 1.05468,2.128906 0.28907,0.742187 0.42969,1.484375 0.42969,2.230468 0,1.351563 -0.27734,2.734376 -0.83984,4.140626 -0.0898,0.15625 -0.21485,0.234374 -0.3711,0.234374 -0.1289,0 -0.24609,-0.05469 -0.35156,-0.15625 -0.0781,-0.07812 -0.11719,-0.175781 -0.11719,-0.292968 v -0.09766 c 0.5625,-1.289063 0.83985,-2.566407 0.83985,-3.828126 0,-0.652343 -0.19531,-1.355468 -0.58594,-2.113281 -0.39062,-0.765625 -0.78516,-1.378906 -1.19141,-1.835937 -0.45312,-0.53125 -0.97656,-1.105469 -1.5625,-1.71875 z m 0,0"
       style="fill:#000000;fill-opacity:1;fill-rule:nonzero;stroke:none" />
    <path
       id="path690"
       d="m 220.9375,13.320313 v -5 h 0.625 c 0,0.742187 0.14062,1.484375 0.42968,2.226562 0.3125,0.808594 0.65625,1.511719 1.03516,2.109375 0.27344,0.429688 0.68359,1.089844 1.23047,1.972657 0.41406,0.679687 0.76562,1.386718 1.05469,2.128906 0.28515,0.742187 0.42968,1.484375 0.42968,2.230468 0,1.351563 -0.28125,2.734376 -0.83984,4.140626 -0.0937,0.15625 -0.21484,0.234374 -0.37109,0.234374 -0.13282,0 -0.25,-0.05469 -0.35157,-0.15625 -0.0781,-0.07812 -0.11718,-0.175781 -0.11718,-0.292968 v -0.09766 c 0.55859,-1.289059 0.83984,-2.566403 0.83984,-3.828122 0,-0.652343 -0.19531,-1.355468 -0.58594,-2.113281 -0.39062,-0.765625 -0.78906,-1.378906 -1.1914,-1.835937 -0.45704,-0.53125 -0.97657,-1.105469 -1.5625,-1.71875 z m 0,0"
       style="fill:#000000;fill-opacity:1;fill-rule:nonzero;stroke:none" />
    <path
       id="path696"
       d="m 260.23828,13.320313 v -5 h 0.625 c 0,0.742187 0.14453,1.484375 0.42968,2.226562 0.3125,0.808594 0.66016,1.511719 1.03516,2.109375 0.27344,0.429688 0.68359,1.089844 1.23047,1.972657 0.41797,0.679687 0.76953,1.386718 1.05469,2.128906 0.28906,0.742187 0.42968,1.484375 0.42968,2.230468 0,1.351563 -0.27734,2.734376 -0.83984,4.140626 -0.0898,0.15625 -0.21484,0.234374 -0.37109,0.234374 -0.12891,0 -0.2461,-0.05469 -0.35157,-0.15625 -0.0781,-0.07812 -0.11718,-0.175781 -0.11718,-0.292968 v -0.09766 c 0.5625,-1.289063 0.83984,-2.566407 0.83984,-3.828126 0,-0.652343 -0.19531,-1.355468 -0.58594,-2.113281 -0.39062,-0.765625 -0.78515,-1.378906 -1.1914,-1.835937 -0.45313,-0.53125 -0.97657,-1.105469 -1.5625,-1.71875 z m 0,0"
       style="fill:#000000;fill-opacity:1;fill-rule:nonzero;stroke:none" />
    <path
       id="path698"
       d="m 288.99218,13.320313 v -5 h 0.625 c 0,0.742187 0.14453,1.484375 0.42969,2.226562 0.3125,0.808594 0.65625,1.511719 1.03516,2.109375 0.27343,0.429688 0.68359,1.089844 1.23047,1.972657 0.41796,0.679687 0.76953,1.386718 1.05468,2.128906 0.28516,0.742187 0.42969,1.484375 0.42969,2.230468 0,1.351563 -0.28125,2.734376 -0.83984,4.140626 -0.0899,0.15625 -0.21485,0.234374 -0.3711,0.234374 -0.1289,0 -0.24609,-0.05469 -0.35156,-0.15625 -0.0781,-0.07812 -0.11719,-0.175781 -0.11719,-0.292968 v -0.09766 c 0.5586,-1.289063 0.83985,-2.566407 0.83985,-3.828126 0,-0.652343 -0.19532,-1.355468 -0.58594,-2.113281 -0.39063,-0.765625 -0.78906,-1.378906 -1.19141,-1.835937 -0.45703,-0.53125 -0.97656,-1.105469 -1.5625,-1.71875 z m 0,0"
       style="fill:#000000;fill-opacity:1;fill-rule:nonzero;stroke:none" />
    <path
       id="path702"
       d="m 342.80859,13.320313 v -5 h 0.625 c 0,0.742187 0.14453,1.484375 0.42969,2.226562 0.3125,0.808594 0.65625,1.511719 1.03515,2.109375 0.27344,0.429688 0.6836,1.089844 1.23047,1.972657 0.41797,0.679687 0.76953,1.386718 1.05469,2.128906 0.28516,0.742187 0.42969,1.484375 0.42969,2.230468 0,1.351563 -0.28125,2.734376 -0.83985,4.140626 -0.0898,0.15625 -0.21484,0.234374 -0.37109,0.234374 -0.12891,0 -0.24609,-0.05469 -0.35156,-0.15625 -0.0781,-0.07812 -0.11719,-0.175781 -0.11719,-0.292968 v -0.09766 c 0.55859,-1.289063 0.83984,-2.566407 0.83984,-3.828126 0,-0.652343 -0.19531,-1.355468 -0.58593,-2.113281 -0.39063,-0.765625 -0.78907,-1.378906 -1.19141,-1.835937 -0.45703,-0.53125 -0.97656,-1.105469 -1.5625,-1.71875 z m 0,0"
       style="fill:#000000;fill-opacity:1;fill-rule:nonzero;stroke:none" />
    <path
       id="path704"
       d="m 312.17968,13.320313 v -5 h 0.625 c 0,0.742187 0.14453,1.484375 0.42969,2.226562 0.3125,0.808594 0.66016,1.511719 1.03516,2.109375 0.27343,0.429688 0.68359,1.089844 1.23047,1.972657 0.41796,0.679687 0.76953,1.386718 1.05468,2.128906 0.28907,0.742187 0.42969,1.484375 0.42969,2.230468 0,1.351563 -0.27734,2.734376 -0.83984,4.140626 -0.0899,0.15625 -0.21485,0.234374 -0.3711,0.234374 -0.1289,0 -0.24609,-0.05469 -0.35156,-0.15625 -0.0781,-0.07812 -0.11719,-0.175781 -0.11719,-0.292968 v -0.09766 c 0.5625,-1.289063 0.83985,-2.566407 0.83985,-3.828126 0,-0.652343 -0.19532,-1.355468 -0.58594,-2.113281 -0.39063,-0.765625 -0.78516,-1.378906 -1.19141,-1.835937 -0.45312,-0.53125 -0.97656,-1.105469 -1.5625,-1.71875 z m 0,0"
       style="fill:#000000;fill-opacity:1;fill-rule:nonzero;stroke:none" />
    <path
       id="path720"
       d="m 146.99609,25.375 c -0.21875,-0.222656 -0.33203,-0.488281 -0.33203,-0.800781 0,-0.3125 0.11328,-0.582031 0.33203,-0.800781 0.22266,-0.222657 0.48828,-0.332031 0.80078,-0.332031 0.3125,0 0.58203,0.109374 0.80078,0.332031 0.22266,0.21875 0.33203,0.488281 0.33203,0.800781 0,0.3125 -0.10937,0.578125 -0.33203,0.800781 -0.21875,0.21875 -0.48828,0.332031 -0.80078,0.332031 -0.3125,0 -0.57812,-0.113281 -0.80078,-0.332031 z m 0,0"
       style="fill:#000000;fill-opacity:1;fill-rule:nonzero;stroke:none" />
    <path
       id="path726"
       d="m 382.96875,25.375 c -0.22266,-0.222656 -0.33204,-0.488281 -0.33204,-0.800781 0,-0.3125 0.10938,-0.582031 0.33204,-0.800781 0.22265,-0.222657 0.48828,-0.332031 0.80078,-0.332031 0.3125,0 0.58203,0.109374 0.80078,0.332031 0.22265,0.21875 0.33203,0.488281 0.33203,0.800781 0,0.3125 -0.10938,0.578125 -0.33203,0.800781 -0.21875,0.21875 -0.48828,0.332031 -0.80078,0.332031 -0.3125,0 -0.57813,-0.113281 -0.80078,-0.332031 z m 0,0"
       style="fill:#000000;fill-opacity:1;fill-rule:nonzero;stroke:none" />
    <path
       id="path730"
       d="m 404.97656,25.375 c -0.22266,-0.222656 -0.33203,-0.488281 -0.33203,-0.800781 0,-0.3125 0.10937,-0.582031 0.33203,-0.800781 0.21875,-0.222657 0.48828,-0.332031 0.80078,-0.332031 0.3125,0 0.57812,0.109374 0.80078,0.332031 0.21875,0.21875 0.33203,0.488281 0.33203,0.800781 0,0.3125 -0.11328,0.578125 -0.33203,0.800781 -0.22266,0.21875 -0.48828,0.332031 -0.80078,0.332031 -0.3125,0 -0.58203,-0.113281 -0.80078,-0.332031 z m 0,0"
       style="fill:#000000;fill-opacity:1;fill-rule:nonzero;stroke:none" />
  </g>
</svg>
