<?xml version="1.0" encoding="UTF-8" standalone="no"?>
<svg
   xmlns:dc="http://purl.org/dc/elements/1.1/"
   xmlns:cc="http://creativecommons.org/ns#"
   xmlns:rdf="http://www.w3.org/1999/02/22-rdf-syntax-ns#"
   xmlns:svg="http://www.w3.org/2000/svg"
   xmlns="http://www.w3.org/2000/svg"
   xmlns:sodipodi="http://sodipodi.sourceforge.net/DTD/sodipodi-0.dtd"
   xmlns:inkscape="http://www.inkscape.org/namespaces/inkscape"
   inkscape:version="1.0 (4035a4f, 2020-05-01)"
   sodipodi:docname="scales_minor.svg"
   id="svg61"
   version="1.2"
   viewBox="0 0 120 50"
   height="50pt"
   width="120pt">
  <metadata
     id="metadata67">
    <rdf:RDF>
      <cc:Work
         rdf:about="">
        <dc:format>image/svg+xml</dc:format>
        <dc:type
           rdf:resource="http://purl.org/dc/dcmitype/StillImage" />
        <dc:title></dc:title>
      </cc:Work>
    </rdf:RDF>
  </metadata>
  <defs
     id="defs65" />
  <sodipodi:namedview
     inkscape:current-layer="svg61"
     inkscape:window-maximized="0"
     inkscape:window-y="23"
     inkscape:window-x="0"
     inkscape:cy="33.333333"
     inkscape:cx="80"
     inkscape:zoom="7.99375"
     showgrid="false"
     id="namedview63"
     inkscape:window-height="480"
     inkscape:window-width="741"
     inkscape:pageshadow="2"
     inkscape:pageopacity="0"
     guidetolerance="10"
     gridtolerance="10"
     objecttolerance="10"
     borderopacity="1"
     bordercolor="#666666"
     pagecolor="#ffffff" />
  <g
     id="surface3329">
    <path
       id="path10"
       d="M 3.75 12.617188 L 108.800781 12.617188 M 3.75 17.050781 L 108.800781 17.050781 M 3.75 21.484375 L 108.800781 21.484375 M 3.75 25.917969 L 108.800781 25.917969 M 3.75 30.351562 L 108.800781 30.351562 "
       style="fill:none;stroke-width:0.354671;stroke-linecap:butt;stroke-linejoin:bevel;stroke:rgb(0%,0%,0%);stroke-opacity:1;stroke-miterlimit:10;" />
    <path
       id="path12"
       d="M 108.449219 12.617188 L 108.449219 30.351562 "
       style="fill:none;stroke-width:0.709342;stroke-linecap:butt;stroke-linejoin:bevel;stroke:rgb(0%,0%,0%);stroke-opacity:1;stroke-miterlimit:10;" />
    <path
       id="path14"
       d="M 42.699219 29.625 L 42.699219 30.992188 C 42.699219 31.476562 42.722656 31.863281 42.769531 32.152344 C 43.148438 31.828125 43.421875 31.585938 43.582031 31.425781 C 43.765625 31.242188 43.953125 30.988281 44.136719 30.664062 C 44.320312 30.339844 44.414062 30.015625 44.414062 29.695312 C 44.414062 29.371094 44.34375 29.09375 44.207031 28.863281 C 44.066406 28.632812 43.882812 28.515625 43.652344 28.515625 C 43.375 28.515625 43.144531 28.621094 42.957031 28.828125 C 42.785156 29.058594 42.699219 29.324219 42.699219 29.625 Z M 41.972656 32.792969 L 41.746094 22.246094 C 41.90625 22.15625 42.070312 22.109375 42.230469 22.109375 C 42.394531 22.109375 42.554688 22.15625 42.714844 22.246094 L 42.578125 28.359375 C 43.050781 27.957031 43.59375 27.753906 44.207031 27.753906 C 44.65625 27.753906 45.03125 27.9375 45.332031 28.308594 C 45.632812 28.679688 45.78125 29.097656 45.78125 29.574219 C 45.78125 29.875 45.683594 30.191406 45.488281 30.527344 C 45.300781 30.835938 45.105469 31.078125 44.898438 31.253906 C 44.78125 31.34375 44.488281 31.574219 44.015625 31.945312 C 43.875 32.050781 43.710938 32.171875 43.519531 32.308594 C 43.332031 32.449219 43.210938 32.535156 43.167969 32.570312 C 43.085938 32.613281 43.011719 32.707031 42.941406 32.847656 C 42.859375 32.960938 42.769531 33.058594 42.664062 33.140625 C 42.582031 33.210938 42.484375 33.246094 42.371094 33.246094 C 42.253906 33.246094 42.160156 33.203125 42.09375 33.125 C 42.011719 33.042969 41.972656 32.933594 41.972656 32.792969 Z M 41.972656 32.792969 "
       style=" stroke:none;fill-rule:nonzero;fill:rgb(0%,0%,0%);fill-opacity:1;" />
    <path
       id="path16"
       d="M 85.269531 20.757812 L 85.269531 22.125 C 85.269531 22.609375 85.292969 22.996094 85.339844 23.285156 C 85.722656 22.964844 85.992188 22.722656 86.152344 22.558594 C 86.339844 22.375 86.523438 22.121094 86.707031 21.796875 C 86.894531 21.472656 86.984375 21.152344 86.984375 20.828125 C 86.984375 20.503906 86.917969 20.226562 86.777344 19.996094 C 86.640625 19.765625 86.453125 19.648438 86.222656 19.648438 C 85.945312 19.648438 85.714844 19.753906 85.53125 19.960938 C 85.359375 20.191406 85.269531 20.457031 85.269531 20.757812 Z M 84.542969 23.925781 L 84.320312 13.378906 C 84.480469 13.289062 84.640625 13.242188 84.804688 13.242188 C 84.964844 13.242188 85.125 13.289062 85.289062 13.378906 L 85.148438 19.492188 C 85.625 19.089844 86.164062 18.886719 86.777344 18.886719 C 87.226562 18.886719 87.601562 19.074219 87.902344 19.441406 C 88.203125 19.8125 88.355469 20.234375 88.355469 20.707031 C 88.355469 21.007812 88.253906 21.324219 88.058594 21.660156 C 87.875 21.96875 87.679688 22.210938 87.46875 22.386719 C 87.355469 22.476562 87.0625 22.710938 86.585938 23.078125 C 86.449219 23.183594 86.285156 23.304688 86.09375 23.441406 C 85.902344 23.582031 85.785156 23.667969 85.738281 23.703125 C 85.65625 23.75 85.582031 23.839844 85.511719 23.980469 C 85.433594 24.09375 85.339844 24.191406 85.238281 24.273438 C 85.15625 24.34375 85.058594 24.378906 84.941406 24.378906 C 84.828125 24.378906 84.734375 24.335938 84.664062 24.257812 C 84.585938 24.175781 84.542969 24.066406 84.542969 23.925781 Z M 84.542969 23.925781 "
       style=" stroke:none;fill-rule:nonzero;fill:rgb(0%,0%,0%);fill-opacity:1;" />
    <path
       id="path18"
       d="M 72.441406 22.976562 L 72.441406 24.34375 C 72.441406 24.828125 72.464844 25.214844 72.511719 25.503906 C 72.894531 25.179688 73.164062 24.9375 73.328125 24.777344 C 73.511719 24.589844 73.695312 24.335938 73.878906 24.015625 C 74.066406 23.691406 74.15625 23.367188 74.15625 23.042969 C 74.15625 22.722656 74.089844 22.445312 73.949219 22.210938 C 73.8125 21.980469 73.625 21.867188 73.394531 21.867188 C 73.117188 21.867188 72.886719 21.96875 72.703125 22.179688 C 72.53125 22.410156 72.441406 22.675781 72.441406 22.976562 Z M 71.714844 26.144531 L 71.492188 15.597656 C 71.652344 15.503906 71.8125 15.457031 71.976562 15.457031 C 72.136719 15.457031 72.300781 15.503906 72.460938 15.597656 L 72.320312 21.710938 C 72.796875 21.304688 73.339844 21.105469 73.949219 21.105469 C 74.398438 21.105469 74.777344 21.289062 75.074219 21.660156 C 75.375 22.027344 75.527344 22.449219 75.527344 22.921875 C 75.527344 23.222656 75.429688 23.539062 75.230469 23.875 C 75.046875 24.1875 74.851562 24.429688 74.644531 24.601562 C 74.527344 24.695312 74.234375 24.925781 73.757812 25.296875 C 73.621094 25.398438 73.457031 25.519531 73.265625 25.660156 C 73.074219 25.796875 72.957031 25.882812 72.910156 25.917969 C 72.828125 25.964844 72.753906 26.058594 72.6875 26.195312 C 72.605469 26.3125 72.511719 26.410156 72.410156 26.492188 C 72.328125 26.558594 72.230469 26.59375 72.113281 26.59375 C 72 26.59375 71.90625 26.554688 71.835938 26.472656 C 71.757812 26.390625 71.714844 26.28125 71.714844 26.144531 Z M 71.714844 26.144531 "
       style=" stroke:none;fill-rule:nonzero;fill:rgb(0%,0%,0%);fill-opacity:1;" />
    <path
       id="path20"
       d="M 24.175781 34.785156 L 32.671875 34.785156 "
       style="fill:none;stroke-width:0.709342;stroke-linecap:square;stroke-linejoin:bevel;stroke:rgb(0%,0%,0%);stroke-opacity:1;stroke-miterlimit:10;" />
    <path
       id="path22"
       d="M 31.054688 33.953125 L 31.054688 21.484375 "
       style="fill:none;stroke-width:0.57634;stroke-linecap:round;stroke-linejoin:bevel;stroke:rgb(0%,0%,0%);stroke-opacity:1;stroke-miterlimit:10;" />
    <path
       id="path24"
       d="M 39.511719 31.734375 L 39.511719 19.910156 "
       style="fill:none;stroke-width:0.57634;stroke-linecap:round;stroke-linejoin:bevel;stroke:rgb(0%,0%,0%);stroke-opacity:1;stroke-miterlimit:10;" />
    <path
       id="path26"
       d="M 60.800781 27.304688 L 60.800781 15.945312 "
       style="fill:none;stroke-width:0.57634;stroke-linecap:round;stroke-linejoin:bevel;stroke:rgb(0%,0%,0%);stroke-opacity:1;stroke-miterlimit:10;" />
    <path
       id="path28"
       d="M 52.339844 29.519531 L 52.339844 17.519531 "
       style="fill:none;stroke-width:0.57634;stroke-linecap:round;stroke-linejoin:bevel;stroke:rgb(0%,0%,0%);stroke-opacity:1;stroke-miterlimit:10;" />
    <path
       id="path30"
       d="M 82.085938 22.871094 L 82.085938 7.625 "
       style="fill:none;stroke-width:0.57634;stroke-linecap:round;stroke-linejoin:bevel;stroke:rgb(0%,0%,0%);stroke-opacity:1;stroke-miterlimit:10;" />
    <path
       id="path32"
       d="M 69.257812 25.085938 L 69.257812 9.292969 "
       style="fill:none;stroke-width:0.57634;stroke-linecap:round;stroke-linejoin:bevel;stroke:rgb(0%,0%,0%);stroke-opacity:1;stroke-miterlimit:10;" />
    <path
       id="path34"
       d="M 103.371094 18.4375 L 103.371094 4.859375 "
       style="fill:none;stroke-width:0.57634;stroke-linecap:round;stroke-linejoin:bevel;stroke:rgb(0%,0%,0%);stroke-opacity:1;stroke-miterlimit:10;" />
    <path
       id="path36"
       d="M 94.914062 20.652344 L 94.914062 5.960938 "
       style="fill:none;stroke-width:0.57634;stroke-linecap:round;stroke-linejoin:bevel;stroke:rgb(0%,0%,0%);stroke-opacity:1;stroke-miterlimit:10;" />
    <path
       id="path38"
       d="M 29.402344 32.34375 C 29.957031 32.34375 30.425781 32.488281 30.804688 32.777344 C 31.164062 33.089844 31.339844 33.480469 31.339844 33.953125 C 31.339844 34.75 30.933594 35.496094 30.113281 36.1875 C 29.28125 36.882812 28.390625 37.226562 27.445312 37.226562 C 26.890625 37.226562 26.421875 37.082031 26.042969 36.792969 C 25.683594 36.484375 25.503906 36.089844 25.503906 35.617188 C 25.503906 34.820312 25.921875 34.074219 26.753906 33.382812 C 27.5625 32.691406 28.445312 32.34375 29.402344 32.34375 Z M 29.402344 32.34375 "
       style=" stroke:none;fill-rule:nonzero;fill:rgb(0%,0%,0%);fill-opacity:1;" />
    <path
       id="path40"
       d="M 50.6875 27.910156 C 51.242188 27.910156 51.710938 28.054688 52.089844 28.34375 C 52.449219 28.65625 52.628906 29.046875 52.628906 29.519531 C 52.628906 30.316406 52.21875 31.0625 51.398438 31.753906 C 50.566406 32.449219 49.679688 32.792969 48.730469 32.792969 C 48.175781 32.792969 47.710938 32.648438 47.328125 32.359375 C 46.972656 32.050781 46.792969 31.65625 46.792969 31.183594 C 46.792969 30.386719 47.207031 29.640625 48.039062 28.949219 C 48.847656 28.257812 49.730469 27.910156 50.6875 27.910156 Z M 50.6875 27.910156 "
       style=" stroke:none;fill-rule:nonzero;fill:rgb(0%,0%,0%);fill-opacity:1;" />
    <path
       id="path42"
       d="M 37.859375 30.128906 C 38.414062 30.128906 38.882812 30.269531 39.261719 30.558594 C 39.621094 30.871094 39.800781 31.265625 39.800781 31.738281 C 39.800781 32.535156 39.390625 33.277344 38.570312 33.972656 C 37.738281 34.664062 36.851562 35.011719 35.902344 35.011719 C 35.347656 35.011719 34.882812 34.867188 34.5 34.578125 C 34.144531 34.265625 33.964844 33.875 33.964844 33.398438 C 33.964844 32.605469 34.378906 31.859375 35.210938 31.167969 C 36.019531 30.472656 36.902344 30.128906 37.859375 30.128906 Z M 37.859375 30.128906 "
       style=" stroke:none;fill-rule:nonzero;fill:rgb(0%,0%,0%);fill-opacity:1;" />
    <path
       id="path44"
       d="M 67.605469 23.476562 C 68.160156 23.476562 68.628906 23.621094 69.007812 23.910156 C 69.367188 24.222656 69.546875 24.613281 69.546875 25.085938 C 69.546875 25.882812 69.136719 26.628906 68.316406 27.320312 C 67.484375 28.015625 66.59375 28.359375 65.648438 28.359375 C 65.09375 28.359375 64.625 28.214844 64.246094 27.925781 C 63.886719 27.617188 63.707031 27.222656 63.707031 26.75 C 63.707031 25.953125 64.125 25.207031 64.957031 24.515625 C 65.765625 23.824219 66.648438 23.476562 67.605469 23.476562 Z M 67.605469 23.476562 "
       style=" stroke:none;fill-rule:nonzero;fill:rgb(0%,0%,0%);fill-opacity:1;" />
    <path
       id="path46"
       d="M 59.148438 25.695312 C 59.699219 25.695312 60.167969 25.839844 60.550781 26.125 C 60.90625 26.4375 61.085938 26.832031 61.085938 27.304688 C 61.085938 28.101562 60.675781 28.84375 59.855469 29.539062 C 59.027344 30.230469 58.136719 30.578125 57.191406 30.578125 C 56.636719 30.578125 56.167969 30.433594 55.789062 30.144531 C 55.429688 29.832031 55.25 29.441406 55.25 28.96875 C 55.25 28.171875 55.664062 27.425781 56.496094 26.734375 C 57.304688 26.039062 58.1875 25.695312 59.148438 25.695312 Z M 59.148438 25.695312 "
       style=" stroke:none;fill-rule:nonzero;fill:rgb(0%,0%,0%);fill-opacity:1;" />
    <path
       id="path48"
       d="M 80.433594 21.261719 C 80.988281 21.261719 81.453125 21.40625 81.835938 21.691406 C 82.195312 22.003906 82.371094 22.398438 82.371094 22.871094 C 82.371094 23.667969 81.960938 24.414062 81.144531 25.105469 C 80.3125 25.796875 79.421875 26.144531 78.476562 26.144531 C 77.921875 26.144531 77.453125 26 77.074219 25.710938 C 76.714844 25.398438 76.535156 25.007812 76.535156 24.535156 C 76.535156 23.738281 76.953125 22.992188 77.785156 22.300781 C 78.589844 21.605469 79.476562 21.261719 80.433594 21.261719 Z M 80.433594 21.261719 "
       style=" stroke:none;fill-rule:nonzero;fill:rgb(0%,0%,0%);fill-opacity:1;" />
    <path
       id="path50"
       d="M 101.71875 16.828125 C 102.273438 16.828125 102.742188 16.972656 103.121094 17.261719 C 103.480469 17.570312 103.660156 17.964844 103.660156 18.4375 C 103.660156 19.234375 103.25 19.980469 102.429688 20.671875 C 101.597656 21.363281 100.710938 21.710938 99.761719 21.710938 C 99.207031 21.710938 98.742188 21.566406 98.359375 21.277344 C 98 20.964844 97.824219 20.574219 97.824219 20.101562 C 97.824219 19.304688 98.238281 18.558594 99.070312 17.867188 C 99.878906 17.171875 100.761719 16.828125 101.71875 16.828125 Z M 101.71875 16.828125 "
       style=" stroke:none;fill-rule:nonzero;fill:rgb(0%,0%,0%);fill-opacity:1;" />
    <path
       id="path52"
       d="M 93.261719 19.042969 C 93.816406 19.042969 94.28125 19.1875 94.664062 19.476562 C 95.019531 19.789062 95.199219 20.179688 95.199219 20.652344 C 95.199219 21.449219 94.789062 22.195312 93.972656 22.886719 C 93.140625 23.582031 92.25 23.925781 91.304688 23.925781 C 90.75 23.925781 90.28125 23.78125 89.902344 23.496094 C 89.542969 23.183594 89.363281 22.789062 89.363281 22.316406 C 89.363281 21.519531 89.78125 20.777344 90.609375 20.082031 C 91.417969 19.390625 92.300781 19.042969 93.261719 19.042969 Z M 93.261719 19.042969 "
       style=" stroke:none;fill-rule:nonzero;fill:rgb(0%,0%,0%);fill-opacity:1;" />
    <path
       id="path54"
       d="M 13.097656 21.382812 C 13.097656 21.382812 13.132812 21.382812 13.203125 21.382812 C 13.246094 21.371094 13.289062 21.363281 13.324219 21.363281 C 14.617188 21.363281 15.679688 21.820312 16.507812 22.730469 C 17.339844 23.632812 17.757812 24.683594 17.757812 25.882812 C 17.757812 27.375 17.136719 28.585938 15.902344 29.519531 C 15.578125 29.773438 15.160156 29.984375 14.640625 30.144531 C 14.695312 30.894531 14.726562 31.5 14.726562 31.960938 C 14.726562 32.054688 14.714844 32.390625 14.691406 32.96875 C 14.644531 34.039062 14.273438 34.96875 13.582031 35.753906 C 12.914062 36.527344 12.082031 36.914062 11.089844 36.914062 C 10.152344 36.914062 9.355469 36.585938 8.699219 35.929688 C 8.039062 35.257812 7.710938 34.449219 7.710938 33.503906 C 7.710938 33.007812 7.902344 32.585938 8.285156 32.238281 C 8.675781 31.894531 9.132812 31.71875 9.652344 31.71875 C 10.113281 31.71875 10.5 31.898438 10.8125 32.257812 C 11.136719 32.59375 11.296875 33.007812 11.296875 33.503906 C 11.296875 33.953125 11.136719 34.339844 10.8125 34.664062 C 10.488281 34.988281 10.101562 35.148438 9.652344 35.148438 C 9.464844 35.148438 9.289062 35.113281 9.113281 35.046875 C 9.621094 35.796875 10.296875 36.171875 11.140625 36.171875 C 11.9375 36.171875 12.589844 35.847656 13.097656 35.203125 C 13.628906 34.53125 13.917969 33.753906 13.964844 32.863281 C 13.988281 32.308594 14 31.992188 14 31.910156 C 14 31.265625 13.976562 30.734375 13.929688 30.316406 C 13.351562 30.410156 12.839844 30.457031 12.386719 30.457031 C 10.78125 30.457031 9.414062 29.820312 8.285156 28.550781 C 7.175781 27.269531 6.621094 25.746094 6.621094 23.980469 C 6.621094 23.609375 6.65625 23.234375 6.726562 22.855469 C 6.792969 22.542969 6.878906 22.203125 6.984375 21.832031 C 7.042969 21.625 7.199219 21.289062 7.453125 20.828125 C 7.542969 20.6875 7.648438 20.515625 7.765625 20.308594 C 7.878906 20.101562 7.960938 19.960938 8.007812 19.890625 C 8.121094 19.660156 8.347656 19.347656 8.679688 18.957031 C 8.773438 18.851562 8.871094 18.738281 8.96875 18.609375 C 9.066406 18.484375 9.148438 18.378906 9.21875 18.300781 C 9.289062 18.21875 9.339844 18.15625 9.375 18.109375 C 9.410156 18.0625 9.667969 17.757812 10.152344 17.191406 C 10.269531 17.074219 10.382812 16.949219 10.492188 16.816406 C 10.601562 16.683594 10.691406 16.582031 10.761719 16.507812 C 10.828125 16.429688 10.882812 16.375 10.914062 16.34375 C 10.5 14.96875 10.242188 13.871094 10.136719 13.050781 C 10.054688 12.394531 10.015625 11.492188 10.015625 10.351562 C 10.015625 9.34375 10.246094 8.40625 10.707031 7.527344 C 11.15625 6.613281 11.789062 5.871094 12.59375 5.292969 C 12.652344 5.257812 12.710938 5.242188 12.769531 5.242188 C 12.847656 5.242188 12.90625 5.257812 12.941406 5.292969 C 13.566406 6.042969 14.101562 7.019531 14.550781 8.21875 C 15.015625 9.421875 15.246094 10.511719 15.246094 11.492188 C 15.246094 12.601562 14.980469 13.640625 14.449219 14.609375 C 13.847656 15.636719 13.074219 16.699219 12.128906 17.796875 C 12.371094 18.558594 12.695312 19.753906 13.097656 21.382812 Z M 14.570312 29.433594 C 15.171875 29.214844 15.636719 28.839844 15.972656 28.308594 C 16.34375 27.800781 16.527344 27.230469 16.527344 26.59375 C 16.527344 25.773438 16.25 25.046875 15.695312 24.414062 C 15.128906 23.753906 14.40625 23.382812 13.53125 23.304688 C 14.027344 25.738281 14.375 27.785156 14.570312 29.433594 Z M 7.867188 25.433594 C 7.867188 26.578125 8.328125 27.582031 9.253906 28.449219 C 10.199219 29.289062 11.261719 29.710938 12.441406 29.710938 C 12.925781 29.710938 13.398438 29.675781 13.859375 29.609375 C 13.675781 27.851562 13.3125 25.75 12.769531 23.304688 C 12.109375 23.375 11.585938 23.605469 11.191406 23.996094 C 10.8125 24.402344 10.621094 24.855469 10.621094 25.363281 C 10.621094 26.242188 11.089844 26.953125 12.023438 27.496094 C 12.105469 27.574219 12.144531 27.664062 12.144531 27.753906 C 12.144531 27.847656 12.105469 27.933594 12.023438 28.015625 C 11.953125 28.09375 11.867188 28.136719 11.765625 28.136719 C 11.753906 28.136719 11.699219 28.125 11.609375 28.101562 C 10.949219 27.742188 10.441406 27.28125 10.085938 26.714844 C 9.75 26.113281 9.582031 25.507812 9.582031 24.898438 C 9.582031 24.101562 9.832031 23.378906 10.328125 22.730469 C 10.847656 22.085938 11.523438 21.671875 12.351562 21.484375 C 12.03125 20.191406 11.765625 19.183594 11.554688 18.453125 C 11.371094 18.664062 11.148438 18.914062 10.890625 19.207031 C 10.628906 19.503906 10.476562 19.679688 10.429688 19.738281 C 10.015625 20.277344 9.699219 20.699219 9.476562 21 C 9.085938 21.542969 8.796875 22.011719 8.613281 22.402344 C 8.417969 22.84375 8.242188 23.320312 8.09375 23.839844 C 7.941406 24.335938 7.867188 24.867188 7.867188 25.433594 Z M 13.652344 7.820312 C 12.785156 8.25 12.105469 8.859375 11.609375 9.65625 C 11.101562 10.476562 10.847656 11.359375 10.847656 12.308594 C 10.847656 13.136719 11.054688 14.257812 11.46875 15.667969 C 12.300781 14.664062 12.925781 13.734375 13.339844 12.878906 C 13.777344 11.976562 14 11.035156 14 10.054688 C 14 9.316406 13.882812 8.570312 13.652344 7.820312 Z M 13.652344 7.820312 "
       style=" stroke:none;fill-rule:nonzero;fill:rgb(0%,0%,0%);fill-opacity:1;" />
    <path
       id="path56"
       d="M 30.765625 20.484375 L 61.085938 14.835938 L 61.085938 17.050781 L 30.765625 22.703125 Z M 30.765625 20.484375 "
       style=" stroke:none;fill-rule:evenodd;fill:rgb(0%,0%,0%);fill-opacity:1;" />
    <path
       id="path58"
       d="M 68.96875 8.261719 L 103.660156 3.75 L 103.660156 5.96875 L 68.96875 10.476562 Z M 68.96875 8.261719 "
       style=" stroke:none;fill-rule:evenodd;fill:rgb(0%,0%,0%);fill-opacity:1;" />
  </g>
</svg>
