<?xml version="1.0" encoding="UTF-8" standalone="no"?>
<svg
   xmlns:dc="http://purl.org/dc/elements/1.1/"
   xmlns:cc="http://creativecommons.org/ns#"
   xmlns:rdf="http://www.w3.org/1999/02/22-rdf-syntax-ns#"
   xmlns:svg="http://www.w3.org/2000/svg"
   xmlns="http://www.w3.org/2000/svg"
   xmlns:sodipodi="http://sodipodi.sourceforge.net/DTD/sodipodi-0.dtd"
   xmlns:inkscape="http://www.inkscape.org/namespaces/inkscape"
   inkscape:version="1.0 (4035a4f, 2020-05-01)"
   sodipodi:docname="scale_chrom.svg"
   id="svg175"
   version="1.2"
   viewBox="0 0 450 50"
   height="50pt"
   width="450pt">
  <metadata
     id="metadata181">
    <rdf:RDF>
      <cc:Work
         rdf:about="">
        <dc:format>image/svg+xml</dc:format>
        <dc:type
           rdf:resource="http://purl.org/dc/dcmitype/StillImage" />
        <dc:title></dc:title>
      </cc:Work>
    </rdf:RDF>
  </metadata>
  <defs
     id="defs179" />
  <sodipodi:namedview
     inkscape:current-layer="surface3011"
     inkscape:window-maximized="1"
     inkscape:window-y="23"
     inkscape:window-x="0"
     inkscape:cy="561.33333"
     inkscape:cx="396.66667"
     inkscape:zoom="0.57630641"
     showgrid="false"
     id="namedview177"
     inkscape:window-height="855"
     inkscape:window-width="1440"
     inkscape:pageshadow="2"
     inkscape:pageopacity="0"
     guidetolerance="10"
     gridtolerance="10"
     objecttolerance="10"
     borderopacity="1"
     bordercolor="#666666"
     pagecolor="#ffffff" />
  <g
     id="surface3011">
    <path
       id="path10"
       d="M 3.7500001,12.070308 H 156.28516 m -152.5351599,5 H 156.28516 m -152.5351599,5 H 156.28516 m -152.5351599,5 H 156.28516 M 3.7500001,32.074214 H 156.28516"
       style="fill:none;stroke:#000000;stroke-width:0.400025;stroke-linecap:butt;stroke-linejoin:bevel;stroke-miterlimit:10;stroke-opacity:1" />
    <path
       id="path12"
       d="m 156.28516,12.070308 h 84.59765 m -84.59765,5 h 84.59765 m -84.59765,5 h 84.59765 m -84.59765,5 h 84.59765 m -84.59765,5.003906 h 84.59765"
       style="fill:none;stroke:#000000;stroke-width:0.400025;stroke-linecap:butt;stroke-linejoin:bevel;stroke-miterlimit:10;stroke-opacity:1" />
    <path
       id="path14"
       d="m 240.88281,12.070308 h 120.92578 m -120.92578,5 h 120.92578 m -120.92578,5 h 120.92578 m -120.92578,5 h 120.92578 m -120.92578,5.003906 h 120.92578"
       style="fill:none;stroke:#000000;stroke-width:0.400025;stroke-linecap:butt;stroke-linejoin:bevel;stroke-miterlimit:10;stroke-opacity:1" />
    <path
       id="path16"
       d="m 361.80859,12.070308 h 83.25391 m -83.25391,5 h 83.25391 m -83.25391,5 h 83.25391 m -83.25391,5 h 83.25391 m -83.25391,5.003906 h 83.25391"
       style="fill:none;stroke:#000000;stroke-width:0.3732;stroke-linecap:butt;stroke-linejoin:bevel;stroke-miterlimit:10;stroke-opacity:1" />
    <path
       id="path18"
       d="M 155.88281,12.070308 V 32.074214"
       style="fill:none;stroke:#000000;stroke-width:0.80005;stroke-linecap:butt;stroke-linejoin:bevel;stroke-miterlimit:10;stroke-opacity:1" />
    <path
       id="path20"
       d="M 240.48438,12.070308 V 32.074214"
       style="fill:none;stroke:#000000;stroke-width:0.80005;stroke-linecap:butt;stroke-linejoin:bevel;stroke-miterlimit:10;stroke-opacity:1" />
    <path
       id="path22"
       d="M 361.41016,12.070308 V 32.074214"
       style="fill:none;stroke:#000000;stroke-width:0.80005;stroke-linecap:butt;stroke-linejoin:bevel;stroke-miterlimit:10;stroke-opacity:1" />
    <path
       id="path24"
       d="M 445.0625,12.070308 V 32.074214"
       style="fill:none;stroke:#000000;stroke-width:0.80005;stroke-linecap:butt;stroke-linejoin:bevel;stroke-miterlimit:10;stroke-opacity:1" />
    <path
       id="path26"
       d="m 126.58594,35.804683 c 0,0.246094 -0.125,0.371094 -0.3711,0.371094 -0.25,0 -0.37109,-0.125 -0.37109,-0.371094 v -2.890625 l -1.66016,0.625 v 3.164063 c 0,0.246093 -0.125,0.371093 -0.37109,0.371093 -0.25,0 -0.37109,-0.125 -0.37109,-0.371093 v -2.910157 l -0.625,0.234376 c -0.0156,0.01172 -0.0664,0.01953 -0.15625,0.01953 -0.10547,0 -0.19532,-0.03906 -0.27344,-0.117188 -0.0781,-0.07813 -0.11719,-0.171875 -0.11719,-0.273437 v -1.210938 c 0,-0.195312 0.082,-0.320312 0.25391,-0.371094 l 0.91797,-0.3125 v -3.203124 l -0.625,0.214843 c -0.0156,0.01172 -0.0664,0.01953 -0.15625,0.01953 -0.10547,0 -0.19532,-0.03906 -0.27344,-0.117187 -0.0781,-0.07813 -0.11719,-0.171875 -0.11719,-0.273437 v -1.210936 c 0,-0.183594 0.082,-0.300781 0.25391,-0.355469 l 0.91797,-0.351562 V 23.33984 c 0,-0.246094 0.12109,-0.371094 0.37109,-0.371094 0.24609,0 0.37109,0.125 0.37109,0.371094 v 2.890624 l 1.66016,-0.625 v -3.164062 c 0,-0.246094 0.12109,-0.371094 0.37109,-0.371094 0.2461,0 0.3711,0.125 0.3711,0.371094 v 2.910156 l 0.64453,-0.234375 c 0.0117,-0.01172 0.0586,-0.01953 0.13672,-0.01953 0.0898,0 0.1875,0.03906 0.29297,0.117188 0.0781,0.07812 0.11718,0.171874 0.11718,0.273437 v 1.210937 c 0,0.183594 -0.0937,0.308594 -0.27343,0.371094 l -0.91797,0.316406 v 3.203126 l 0.64453,-0.214844 c 0.0117,-0.01563 0.0586,-0.01953 0.13672,-0.01953 0.0898,0 0.1875,0.03906 0.29297,0.117188 0.0781,0.07813 0.11718,0.167969 0.11718,0.273438 v 1.210937 c 0,0.167969 -0.0937,0.285156 -0.27343,0.351563 l -0.91797,0.351562 z m -0.74219,-8.125 -1.66016,0.585938 v 3.203125 l 1.66016,-0.585938 z m 0,0"
       style="fill:#000000;fill-opacity:1;fill-rule:nonzero;stroke:none" />
    <path
       id="path28"
       d="m 84.433594,40.804683 c 0,0.246094 -0.121094,0.371094 -0.371094,0.371094 -0.246094,0 -0.371094,-0.125 -0.371094,-0.371094 v -2.890625 l -1.660156,0.625 v 3.164063 c 0,0.246093 -0.121094,0.371093 -0.371094,0.371093 -0.246093,0 -0.371093,-0.125 -0.371093,-0.371093 v -2.910157 l -0.625,0.234376 c -0.01172,0.01172 -0.0625,0.01953 -0.15625,0.01953 -0.101563,0 -0.195313,-0.03906 -0.273438,-0.117188 -0.07813,-0.07813 -0.117187,-0.171875 -0.117187,-0.273437 v -1.210938 c 0,-0.195312 0.08594,-0.320312 0.253906,-0.371094 l 0.917969,-0.3125 v -3.203124 l -0.625,0.214843 c -0.01172,0.01172 -0.0625,0.01953 -0.15625,0.01953 -0.101563,0 -0.195313,-0.03906 -0.273438,-0.117187 -0.07813,-0.07812 -0.117187,-0.171873 -0.117187,-0.273435 v -1.210938 c 0,-0.183594 0.08594,-0.300781 0.253906,-0.351562 l 0.917969,-0.351563 v -3.144531 c 0,-0.25 0.125,-0.371094 0.371093,-0.371094 0.25,0 0.371094,0.121094 0.371094,0.371094 v 2.890625 l 1.660156,-0.625 v -3.164063 c 0,-0.25 0.125,-0.375 0.371094,-0.375 0.25,0 0.371094,0.125 0.371094,0.375 v 2.910156 l 0.644531,-0.234374 c 0.01563,-0.01563 0.05859,-0.01953 0.136719,-0.01953 0.09375,0 0.191406,0.03906 0.292969,0.117188 0.07813,0.07813 0.117187,0.167968 0.117187,0.273437 v 1.210938 c 0,0.179687 -0.08984,0.304687 -0.273437,0.371093 l -0.917969,0.3125 v 3.203126 l 0.644531,-0.214844 c 0.01563,-0.01563 0.05859,-0.01953 0.136719,-0.01953 0.09375,0 0.191406,0.03906 0.292969,0.117188 0.07813,0.07813 0.117187,0.167969 0.117187,0.273438 v 1.210937 c 0,0.167969 -0.08984,0.285156 -0.273437,0.351563 l -0.917969,0.351558 z m -0.742188,-8.125 -1.660156,0.585938 v 3.203125 l 1.660156,-0.585938 z m 0,0"
       style="fill:#000000;fill-opacity:1;fill-rule:nonzero;stroke:none" />
    <path
       id="path30"
       d="m 54.589844,43.304683 c 0,0.246094 -0.125,0.371094 -0.371094,0.371094 -0.25,0 -0.371094,-0.125 -0.371094,-0.371094 v -2.890625 l -1.660156,0.625 v 3.164063 c 0,0.246093 -0.125,0.371093 -0.371094,0.371093 -0.25,0 -0.371093,-0.125 -0.371093,-0.371093 v -2.910157 l -0.625,0.234376 c -0.01563,0.01172 -0.06641,0.01953 -0.15625,0.01953 -0.105469,0 -0.195313,-0.03906 -0.273438,-0.117188 -0.07813,-0.07813 -0.117187,-0.171875 -0.117187,-0.273437 v -1.210938 c 0,-0.195312 0.08203,-0.320312 0.253906,-0.371094 l 0.917969,-0.3125 v -3.203124 l -0.625,0.214843 c -0.01563,0.01172 -0.06641,0.01953 -0.15625,0.01953 -0.105469,0 -0.195313,-0.03906 -0.273438,-0.117187 -0.07813,-0.07812 -0.117187,-0.171873 -0.117187,-0.273435 v -1.210938 c 0,-0.183594 0.08203,-0.300781 0.253906,-0.351562 l 0.917969,-0.351563 v -3.144531 c 0,-0.25 0.121093,-0.371094 0.371093,-0.371094 0.246094,0 0.371094,0.121094 0.371094,0.371094 v 2.890625 l 1.660156,-0.625 v -3.164063 c 0,-0.25 0.121094,-0.371094 0.371094,-0.371094 0.246094,0 0.371094,0.121094 0.371094,0.371094 v 2.910156 l 0.644531,-0.234374 c 0.01172,-0.01563 0.05859,-0.01953 0.136719,-0.01953 0.08984,0 0.1875,0.03906 0.292969,0.117188 0.07813,0.07813 0.117187,0.167968 0.117187,0.273437 v 1.210938 c 0,0.179687 -0.09375,0.304687 -0.273437,0.371093 l -0.917969,0.3125 v 3.203126 l 0.644531,-0.214844 c 0.01172,-0.01563 0.05859,-0.01953 0.136719,-0.01953 0.08984,0 0.1875,0.03906 0.292969,0.117188 0.07813,0.07813 0.117187,0.167969 0.117187,0.273438 v 1.210937 c 0,0.167969 -0.09375,0.285156 -0.273437,0.351563 l -0.917969,0.351558 z m -0.742188,-8.125 -1.660156,0.585938 v 3.203125 l 1.660156,-0.585938 z m 0,0"
       style="fill:#000000;fill-opacity:1;fill-rule:nonzero;stroke:none" />
    <path
       id="path32"
       d="m 190.09766,30.804683 c 0,0.246094 -0.1211,0.371094 -0.3711,0.371094 -0.24609,0 -0.37109,-0.125 -0.37109,-0.371094 v -2.890625 l -1.66016,0.625 v 3.164063 c 0,0.246093 -0.12109,0.371093 -0.37109,0.371093 -0.24609,0 -0.37109,-0.125 -0.37109,-0.371093 v -2.910157 l -0.625,0.234376 c -0.0117,0.01172 -0.0625,0.01953 -0.15625,0.01953 -0.10157,0 -0.19532,-0.03906 -0.27344,-0.117188 -0.0781,-0.07813 -0.11719,-0.171875 -0.11719,-0.273437 v -1.210938 c 0,-0.195312 0.0859,-0.320312 0.25391,-0.375 l 0.91797,-0.3125 v -3.203125 l -0.625,0.214844 c -0.0117,0.01563 -0.0625,0.01953 -0.15625,0.01953 -0.10157,0 -0.19532,-0.03906 -0.27344,-0.117187 -0.0781,-0.07813 -0.11719,-0.167969 -0.11719,-0.273438 v -1.210937 c 0,-0.179688 0.0859,-0.296875 0.25391,-0.351563 l 0.91797,-0.351562 v -3.144531 c 0,-0.246094 0.125,-0.371094 0.37109,-0.371094 0.25,0 0.37109,0.125 0.37109,0.371094 v 2.890624 l 1.66016,-0.625 v -3.16406 c 0,-0.246094 0.125,-0.371094 0.37109,-0.371094 0.25,0 0.3711,0.125 0.3711,0.371094 v 2.910156 l 0.64453,-0.234375 c 0.0156,-0.01172 0.0586,-0.01953 0.13672,-0.01953 0.0937,0 0.1914,0.03906 0.29297,0.117188 0.0781,0.07812 0.11718,0.171874 0.11718,0.273437 v 1.210937 c 0,0.183594 -0.0898,0.308594 -0.27343,0.371094 l -0.91797,0.3125 v 3.203125 l 0.64453,-0.214843 c 0.0156,-0.01172 0.0586,-0.01953 0.13672,-0.01953 0.0937,0 0.1914,0.03906 0.29297,0.117188 0.0781,0.07813 0.11718,0.171875 0.11718,0.273437 v 1.210938 c 0,0.171875 -0.0898,0.289062 -0.27343,0.355469 l -0.91797,0.351562 z m -0.74219,-8.128906 -1.66016,0.585937 v 3.203126 l 1.66016,-0.585938 z m 0,0"
       style="fill:#000000;fill-opacity:1;fill-rule:nonzero;stroke:none" />
    <path
       id="path34"
       d="m 163.20313,33.304683 c 0,0.246094 -0.125,0.371094 -0.3711,0.371094 -0.25,0 -0.37109,-0.125 -0.37109,-0.371094 v -2.890625 l -1.66016,0.625 v 3.164063 c 0,0.246093 -0.125,0.371093 -0.37109,0.371093 -0.25,0 -0.3711,-0.125 -0.3711,-0.371093 v -2.910157 l -0.625,0.234376 c -0.0156,0.01172 -0.0664,0.01953 -0.15625,0.01953 -0.10546,0 -0.19531,-0.03906 -0.27343,-0.117188 -0.0781,-0.07813 -0.11719,-0.171875 -0.11719,-0.273437 v -1.210938 c 0,-0.195312 0.082,-0.320312 0.25391,-0.371094 l 0.91796,-0.3125 v -3.207031 l -0.625,0.214844 c -0.0156,0.01563 -0.0664,0.01953 -0.15625,0.01953 -0.10546,0 -0.19531,-0.03906 -0.27343,-0.117187 -0.0781,-0.07813 -0.11719,-0.167969 -0.11719,-0.273438 v -1.210937 c 0,-0.179688 0.082,-0.296875 0.25391,-0.351563 l 0.91796,-0.351562 v -3.144531 c 0,-0.246094 0.1211,-0.371094 0.3711,-0.371094 0.24609,0 0.37109,0.125 0.37109,0.371094 v 2.890624 l 1.66016,-0.625 v -3.16406 c 0,-0.246094 0.12109,-0.371094 0.37109,-0.371094 0.2461,0 0.3711,0.125 0.3711,0.371094 v 2.910156 l 0.64453,-0.234375 c 0.0117,-0.01172 0.0586,-0.01953 0.13672,-0.01953 0.0898,0 0.1875,0.03906 0.29296,0.117188 0.0781,0.07812 0.11719,0.171874 0.11719,0.273437 v 1.210937 c 0,0.183594 -0.0937,0.308594 -0.27344,0.371094 l -0.91796,0.3125 v 3.207032 l 0.64453,-0.214844 c 0.0117,-0.01563 0.0586,-0.01953 0.13672,-0.01953 0.0898,0 0.1875,0.03906 0.29296,0.117188 0.0781,0.07813 0.11719,0.167969 0.11719,0.273438 v 1.210937 c 0,0.167969 -0.0937,0.285156 -0.27344,0.351563 l -0.91796,0.351562 z m -0.74219,-8.128906 -1.66016,0.585937 v 3.207032 l 1.66016,-0.585938 z m 0,0"
       style="fill:#000000;fill-opacity:1;fill-rule:nonzero;stroke:none" />
    <path
       id="path36"
       d="m 270.87891,21.249996 v 1.542968 c 0,0.546876 0.0273,0.984376 0.0781,1.308594 0.42969,-0.363281 0.73828,-0.636718 0.91797,-0.820312 0.21094,-0.207032 0.41797,-0.492188 0.625,-0.859375 0.21094,-0.363281 0.3125,-0.726563 0.3125,-1.09375 0,-0.363281 -0.0781,-0.675781 -0.23437,-0.9375 -0.15625,-0.257813 -0.36329,-0.390625 -0.625,-0.390625 -0.3125,0 -0.57032,0.117187 -0.78125,0.351562 -0.19532,0.261719 -0.29297,0.5625 -0.29297,0.898438 z m -0.82032,3.574218 -0.2539,-11.894531 c 0.18359,-0.101562 0.36328,-0.15625 0.54687,-0.15625 0.1836,0 0.36328,0.05469 0.54688,0.15625 l -0.15625,6.894531 c 0.53515,-0.453124 1.14844,-0.683593 1.83594,-0.683593 0.50781,0 0.93359,0.210937 1.26953,0.625 0.33984,0.417969 0.50781,0.894531 0.50781,1.425781 0,0.339844 -0.10938,0.699219 -0.33203,1.074219 -0.20703,0.351562 -0.42969,0.625 -0.66406,0.820312 -0.12891,0.105469 -0.46094,0.367188 -0.9961,0.78125 -0.15625,0.117188 -0.33984,0.253907 -0.55469,0.410157 -0.21484,0.15625 -0.34765,0.253906 -0.40234,0.292968 -0.0898,0.05469 -0.17578,0.15625 -0.25391,0.3125 -0.0898,0.132813 -0.19531,0.242188 -0.3125,0.332032 -0.0898,0.07812 -0.20312,0.117187 -0.33203,0.117187 -0.1289,0 -0.23437,-0.04297 -0.3125,-0.136719 -0.0898,-0.08984 -0.13672,-0.214844 -0.13672,-0.371094 z m 0,0"
       style="fill:#000000;fill-opacity:1;fill-rule:nonzero;stroke:none" />
    <path
       id="path38"
       d="m 328.10547,26.249996 v 1.546875 c 0,0.546875 0.0234,0.980469 0.0781,1.308593 0.42969,-0.367187 0.73438,-0.640624 0.91797,-0.820312 0.20703,-0.210938 0.41407,-0.496094 0.625,-0.859375 0.20703,-0.367187 0.3125,-0.730469 0.3125,-1.097656 0,-0.363281 -0.0781,-0.675781 -0.23437,-0.9375 -0.15625,-0.257813 -0.36719,-0.390625 -0.625,-0.390625 -0.3125,0 -0.57422,0.117187 -0.78125,0.351562 -0.19531,0.261719 -0.29297,0.5625 -0.29297,0.898438 z m -0.82031,3.578125 -0.25391,-11.898438 c 0.17969,-0.101562 0.36328,-0.15625 0.54688,-0.15625 0.17968,0 0.36328,0.05469 0.54687,0.15625 l -0.15625,6.894531 c 0.53125,-0.453124 1.14453,-0.683593 1.83594,-0.683593 0.50781,0 0.92969,0.210937 1.26953,0.625 0.33594,0.417969 0.50781,0.894531 0.50781,1.425781 0,0.339844 -0.11328,0.699219 -0.33203,1.078125 -0.21094,0.351563 -0.42969,0.625 -0.66406,0.820313 -0.13281,0.101562 -0.46485,0.363281 -0.9961,0.78125 -0.15625,0.117187 -0.34375,0.253906 -0.55859,0.410156 -0.21484,0.15625 -0.34766,0.253906 -0.39844,0.292968 -0.0937,0.05078 -0.17578,0.15625 -0.2539,0.3125 -0.0937,0.128907 -0.19532,0.238282 -0.3125,0.332032 -0.0937,0.07813 -0.20313,0.117187 -0.33203,0.117187 -0.13282,0 -0.23438,-0.04687 -0.3125,-0.136719 -0.0937,-0.09375 -0.13672,-0.214843 -0.13672,-0.371093 z m 0,0"
       style="fill:#000000;fill-opacity:1;fill-rule:nonzero;stroke:none" />
    <path
       id="path40"
       d="m 299.49219,23.749996 v 1.542968 c 0,0.546876 0.0273,0.984376 0.0781,1.308594 0.42969,-0.363281 0.73438,-0.636718 0.91797,-0.820312 0.20703,-0.207032 0.41797,-0.492188 0.625,-0.859375 0.20703,-0.363281 0.3125,-0.726563 0.3125,-1.09375 0,-0.363281 -0.0781,-0.675781 -0.23437,-0.9375 -0.15625,-0.257813 -0.36328,-0.390625 -0.625,-0.390625 -0.3125,0 -0.57422,0.117187 -0.78125,0.351562 -0.19532,0.261719 -0.29297,0.5625 -0.29297,0.898438 z m -0.82031,3.578125 -0.25391,-11.898438 c 0.18359,-0.101562 0.36328,-0.15625 0.54687,-0.15625 0.1836,0 0.36329,0.05469 0.54688,0.15625 l -0.15625,6.894531 c 0.53516,-0.453124 1.14453,-0.683593 1.83594,-0.683593 0.50781,0 0.92968,0.210937 1.26953,0.625 0.33984,0.417969 0.50781,0.894531 0.50781,1.425781 0,0.339844 -0.10937,0.699219 -0.33203,1.074219 -0.20703,0.351562 -0.42969,0.625 -0.66406,0.820312 -0.12891,0.105469 -0.46094,0.367188 -0.9961,0.78125 -0.15625,0.117188 -0.34375,0.253907 -0.55859,0.410157 -0.21484,0.15625 -0.34766,0.253906 -0.39844,0.292968 -0.0898,0.05469 -0.17578,0.160156 -0.2539,0.316406 -0.0899,0.128907 -0.19532,0.238282 -0.3125,0.332032 -0.0899,0.07813 -0.20313,0.117187 -0.33204,0.117187 -0.1289,0 -0.23437,-0.04687 -0.3125,-0.136719 -0.0898,-0.09375 -0.13671,-0.214843 -0.13671,-0.371093 z m 0,0"
       style="fill:#000000;fill-opacity:1;fill-rule:nonzero;stroke:none" />
    <path
       id="path42"
       d="m 405.32422,33.753902 v 1.542969 c 0,0.546875 0.0273,0.980469 0.0781,1.308593 0.42969,-0.367187 0.73438,-0.640624 0.91797,-0.820312 0.20703,-0.210938 0.41797,-0.496094 0.625,-0.859375 0.20703,-0.367187 0.3125,-0.730469 0.3125,-1.09375 0,-0.367187 -0.0781,-0.679687 -0.23437,-0.9375 -0.15625,-0.261719 -0.36328,-0.390625 -0.625,-0.390625 -0.3125,0 -0.57422,0.117188 -0.78125,0.351562 -0.19531,0.257813 -0.29297,0.558594 -0.29297,0.898438 z M 404.50391,37.328121 404.25,25.429683 c 0.18359,-0.101562 0.36328,-0.15625 0.54688,-0.15625 0.18359,0 0.36328,0.05469 0.54687,0.15625 l -0.15625,6.898438 c 0.53516,-0.457031 1.14453,-0.683594 1.83594,-0.683594 0.50781,0 0.92969,0.207031 1.26953,0.625 0.33984,0.414063 0.50781,0.890625 0.50781,1.425781 0,0.335938 -0.10937,0.695313 -0.33203,1.074219 -0.20703,0.351563 -0.42969,0.625 -0.66406,0.820313 -0.12891,0.101562 -0.46094,0.363281 -0.9961,0.78125 -0.15625,0.117187 -0.34375,0.253906 -0.55859,0.410156 -0.21484,0.15625 -0.34766,0.253906 -0.39844,0.292968 -0.0898,0.05078 -0.17578,0.15625 -0.2539,0.3125 -0.0899,0.128907 -0.19532,0.238282 -0.3125,0.332032 -0.0899,0.07813 -0.20313,0.117187 -0.33203,0.117187 -0.12891,0 -0.23438,-0.04687 -0.3125,-0.136719 -0.0899,-0.09375 -0.13672,-0.214843 -0.13672,-0.371093 z m 0,0"
       style="fill:#000000;fill-opacity:1;fill-rule:nonzero;stroke:none" />
    <path
       id="path44"
       d="m 377.66016,31.253902 v 1.542969 c 0,0.546875 0.0273,0.980469 0.0781,1.308593 0.42969,-0.367187 0.73828,-0.640624 0.91797,-0.820312 0.21094,-0.210938 0.41797,-0.496094 0.625,-0.859375 0.21094,-0.367187 0.3125,-0.730469 0.3125,-1.09375 0,-0.367187 -0.0781,-0.679687 -0.23437,-0.9375 -0.15625,-0.261719 -0.36329,-0.390625 -0.625,-0.390625 -0.3125,0 -0.57032,0.117188 -0.78125,0.351562 -0.19532,0.257813 -0.29297,0.558594 -0.29297,0.898438 z m -0.82032,3.574219 -0.2539,-11.898438 c 0.18359,-0.101562 0.36719,-0.15625 0.54687,-0.15625 0.1836,0 0.36719,0.05469 0.54688,0.15625 l -0.15625,6.898438 c 0.53515,-0.457031 1.14844,-0.683594 1.83594,-0.683594 0.50781,0 0.93359,0.207031 1.26953,0.625 0.33984,0.414063 0.50781,0.890625 0.50781,1.425781 0,0.335938 -0.10938,0.695313 -0.33203,1.074219 -0.20703,0.351563 -0.42969,0.625 -0.66406,0.820313 -0.12891,0.101562 -0.46094,0.363281 -0.9961,0.78125 -0.15625,0.117187 -0.33984,0.253906 -0.55469,0.410156 -0.21484,0.15625 -0.34765,0.253906 -0.40234,0.292968 -0.0898,0.05078 -0.17578,0.15625 -0.25391,0.3125 -0.0898,0.128907 -0.19531,0.238282 -0.3125,0.332032 -0.0898,0.07813 -0.19921,0.117187 -0.33203,0.117187 -0.1289,0 -0.23437,-0.04687 -0.3125,-0.136719 -0.0898,-0.09375 -0.13672,-0.214843 -0.13672,-0.371093 z m 0,0"
       style="fill:#000000;fill-opacity:1;fill-rule:nonzero;stroke:none" />
    <path
       id="path46"
       d="m 39.839844,37.074214 h 9.582031"
       style="fill:none;stroke:#000000;stroke-width:0.80005;stroke-linecap:square;stroke-linejoin:bevel;stroke-miterlimit:10;stroke-opacity:1" />
    <path
       id="path48"
       d="m 56.378906,37.074214 h 9.585938"
       style="fill:none;stroke:#000000;stroke-width:0.80005;stroke-linecap:square;stroke-linejoin:bevel;stroke-miterlimit:10;stroke-opacity:1" />
    <path
       id="path50"
       d="m 421.45313,37.074214 h 9.94531"
       style="fill:none;stroke:#000000;stroke-width:0.80005;stroke-linecap:square;stroke-linejoin:bevel;stroke-miterlimit:10;stroke-opacity:1" />
    <path
       id="path52"
       d="m 47.597656,36.132808 v -14.0625"
       style="fill:none;stroke:#000000;stroke-width:0.650041;stroke-linecap:round;stroke-linejoin:bevel;stroke-miterlimit:10;stroke-opacity:1" />
    <path
       id="path54"
       d="M 119.59375,28.632808 V 14.242183"
       style="fill:none;stroke:#000000;stroke-width:0.650041;stroke-linecap:round;stroke-linejoin:bevel;stroke-miterlimit:10;stroke-opacity:1" />
    <path
       id="path56"
       d="m 106.28906,31.132808 v -15.3125"
       style="fill:none;stroke:#000000;stroke-width:0.650041;stroke-linecap:round;stroke-linejoin:bevel;stroke-miterlimit:10;stroke-opacity:1" />
    <path
       id="path58"
       d="m 92.984375,33.632808 v -12.8125"
       style="fill:none;stroke:#000000;stroke-width:0.650041;stroke-linecap:round;stroke-linejoin:bevel;stroke-miterlimit:10;stroke-opacity:1" />
    <path
       id="path60"
       d="M 77.441406,33.632808 V 21.249996"
       style="fill:none;stroke:#000000;stroke-width:0.650041;stroke-linecap:round;stroke-linejoin:bevel;stroke-miterlimit:10;stroke-opacity:1" />
    <path
       id="path62"
       d="M 64.136719,36.132808 V 21.617183"
       style="fill:none;stroke:#000000;stroke-width:0.650041;stroke-linecap:round;stroke-linejoin:bevel;stroke-miterlimit:10;stroke-opacity:1" />
    <path
       id="path64"
       d="M 198.64844,23.632808 V 7.3046831"
       style="fill:none;stroke:#000000;stroke-width:0.650041;stroke-linecap:round;stroke-linejoin:bevel;stroke-miterlimit:10;stroke-opacity:1" />
    <path
       id="path66"
       d="M 183.10547,23.632808 V 9.3359331"
       style="fill:none;stroke:#000000;stroke-width:0.650041;stroke-linecap:round;stroke-linejoin:bevel;stroke-miterlimit:10;stroke-opacity:1" />
    <path
       id="path68"
       d="m 171.75,26.132808 v -15.3125"
       style="fill:none;stroke:#000000;stroke-width:0.650041;stroke-linecap:round;stroke-linejoin:bevel;stroke-miterlimit:10;stroke-opacity:1" />
    <path
       id="path70"
       d="m 148.4375,26.132808 v -15.3125"
       style="fill:none;stroke:#000000;stroke-width:0.650041;stroke-linecap:round;stroke-linejoin:bevel;stroke-miterlimit:10;stroke-opacity:1" />
    <path
       id="path72"
       d="M 135.13281,28.632808 V 12.398433"
       style="fill:none;stroke:#000000;stroke-width:0.650041;stroke-linecap:round;stroke-linejoin:bevel;stroke-miterlimit:10;stroke-opacity:1" />
    <path
       id="path74"
       d="M 261.35156,23.011714 V 36.648433"
       style="fill:none;stroke:#000000;stroke-width:0.650041;stroke-linecap:round;stroke-linejoin:bevel;stroke-miterlimit:10;stroke-opacity:1" />
    <path
       id="path76"
       d="m 247.20703,20.511714 v 15.3125"
       style="fill:none;stroke:#000000;stroke-width:0.650041;stroke-linecap:round;stroke-linejoin:bevel;stroke-miterlimit:10;stroke-opacity:1" />
    <path
       id="path78"
       d="m 215.24609,20.355464 v 15.46875"
       style="fill:none;stroke:#000000;stroke-width:0.650041;stroke-linecap:round;stroke-linejoin:bevel;stroke-miterlimit:10;stroke-opacity:1" />
    <path
       id="path80"
       d="M 210.00391,21.132808 V 5.8203081"
       style="fill:none;stroke:#000000;stroke-width:0.650041;stroke-linecap:round;stroke-linejoin:bevel;stroke-miterlimit:10;stroke-opacity:1" />
    <path
       id="path82"
       d="M 338.98047,26.132808 V 9.9960901"
       style="fill:none;stroke:#000000;stroke-width:0.650041;stroke-linecap:round;stroke-linejoin:bevel;stroke-miterlimit:10;stroke-opacity:1" />
    <path
       id="path84"
       d="M 324.51172,26.132808 V 9.1484331"
       style="fill:none;stroke:#000000;stroke-width:0.650041;stroke-linecap:round;stroke-linejoin:bevel;stroke-miterlimit:10;stroke-opacity:1" />
    <path
       id="path86"
       d="M 310.36719,23.632808 V 8.3203081"
       style="fill:none;stroke:#000000;stroke-width:0.650041;stroke-linecap:round;stroke-linejoin:bevel;stroke-miterlimit:10;stroke-opacity:1" />
    <path
       id="path88"
       d="m 289.96484,25.511714 v 12.8125"
       style="fill:none;stroke:#000000;stroke-width:0.650041;stroke-linecap:round;stroke-linejoin:bevel;stroke-miterlimit:10;stroke-opacity:1" />
    <path
       id="path90"
       d="M 275.82031,23.011714 V 37.49609"
       style="fill:none;stroke:#000000;stroke-width:0.650041;stroke-linecap:round;stroke-linejoin:bevel;stroke-miterlimit:10;stroke-opacity:1" />
    <path
       id="path92"
       d="m 416.19922,33.632808 v -15.3125"
       style="fill:none;stroke:#000000;stroke-width:0.650041;stroke-linecap:round;stroke-linejoin:bevel;stroke-miterlimit:10;stroke-opacity:1" />
    <path
       id="path94"
       d="M 401.73047,33.632808 V 17.890621"
       style="fill:none;stroke:#000000;stroke-width:0.650041;stroke-linecap:round;stroke-linejoin:bevel;stroke-miterlimit:10;stroke-opacity:1" />
    <path
       id="path96"
       d="M 388.53516,31.132808 V 17.499996"
       style="fill:none;stroke:#000000;stroke-width:0.650041;stroke-linecap:round;stroke-linejoin:bevel;stroke-miterlimit:10;stroke-opacity:1" />
    <path
       id="path98"
       d="m 374.06641,31.132808 v -14.0625"
       style="fill:none;stroke:#000000;stroke-width:0.650041;stroke-linecap:round;stroke-linejoin:bevel;stroke-miterlimit:10;stroke-opacity:1" />
    <path
       id="path100"
       d="m 353.125,28.632808 v -17.8125"
       style="fill:none;stroke:#000000;stroke-width:0.650041;stroke-linecap:round;stroke-linejoin:bevel;stroke-miterlimit:10;stroke-opacity:1" />
    <path
       id="path102"
       d="M 429.57422,36.304683 V 19.570308"
       style="fill:none;stroke:#000000;stroke-width:0.650041;stroke-linecap:round;stroke-linejoin:bevel;stroke-miterlimit:10;stroke-opacity:1" />
    <path
       id="path104"
       d="m 45.734375,34.320308 c 0.625,0 1.152344,0.160156 1.582031,0.488282 0.402344,0.351562 0.605469,0.792968 0.605469,1.328124 0,0.898438 -0.464843,1.738282 -1.386719,2.519532 -0.9375,0.78125 -1.941406,1.171875 -3.007812,1.171875 -0.625,0 -1.152344,-0.164063 -1.582031,-0.488281 -0.40625,-0.351563 -0.605469,-0.796876 -0.605469,-1.328126 0,-0.898437 0.46875,-1.738281 1.40625,-2.519531 0.910156,-0.78125 1.90625,-1.171875 2.988281,-1.171875 z m 0,0"
       style="fill:#000000;fill-opacity:1;fill-rule:nonzero;stroke:none" />
    <path
       id="path106"
       d="m 117.73047,26.816402 c 0.625,0 1.15234,0.164062 1.58203,0.492188 0.40234,0.351562 0.60547,0.792968 0.60547,1.328124 0,0.898438 -0.46484,1.738282 -1.38672,2.519532 -0.9375,0.78125 -1.94141,1.171875 -3.00781,1.171875 -0.625,0 -1.15235,-0.164063 -1.58203,-0.488281 -0.40625,-0.351563 -0.60547,-0.796876 -0.60547,-1.328126 0,-0.898437 0.46875,-1.738281 1.40625,-2.519531 0.91015,-0.78125 1.90625,-1.175781 2.98828,-1.175781 z m 0,0"
       style="fill:#000000;fill-opacity:1;fill-rule:nonzero;stroke:none" />
    <path
       id="path108"
       d="m 104.42578,29.320308 c 0.625,0 1.15235,0.160156 1.58203,0.488282 0.40235,0.351562 0.60547,0.792968 0.60547,1.328124 0,0.898438 -0.46094,1.738282 -1.38672,2.519532 -0.9375,0.78125 -1.9414,1.171875 -3.00781,1.171875 -0.625,0 -1.15234,-0.164063 -1.58203,-0.488281 -0.40625,-0.351563 -0.60547,-0.796876 -0.60547,-1.328126 0,-0.898437 0.46875,-1.738281 1.40625,-2.519531 0.91016,-0.78125 1.90625,-1.171875 2.98828,-1.171875 z m 0,0"
       style="fill:#000000;fill-opacity:1;fill-rule:nonzero;stroke:none" />
    <path
       id="path110"
       d="m 91.121094,31.820308 c 0.625,0 1.152344,0.160156 1.582031,0.488282 0.402344,0.351562 0.605469,0.792968 0.605469,1.328124 0,0.898438 -0.460938,1.738282 -1.386719,2.519532 -0.9375,0.78125 -1.941406,1.171875 -3.007812,1.171875 -0.625,0 -1.152344,-0.164063 -1.582031,-0.488281 -0.402344,-0.351563 -0.605469,-0.796876 -0.605469,-1.328126 0,-0.898437 0.46875,-1.738281 1.40625,-2.519531 0.910156,-0.78125 1.90625,-1.171875 2.988281,-1.171875 z m 0,0"
       style="fill:#000000;fill-opacity:1;fill-rule:nonzero;stroke:none" />
    <path
       id="path112"
       d="m 75.578125,31.820308 c 0.625,0 1.152344,0.160156 1.582031,0.488282 0.40625,0.351562 0.605469,0.792968 0.605469,1.328124 0,0.898438 -0.460937,1.738282 -1.386719,2.519532 -0.9375,0.78125 -1.9375,1.171875 -3.007812,1.171875 -0.625,0 -1.152344,-0.164063 -1.582031,-0.488281 -0.402344,-0.351563 -0.605469,-0.796876 -0.605469,-1.328126 0,-0.898437 0.46875,-1.738281 1.40625,-2.519531 0.914062,-0.78125 1.910156,-1.171875 2.988281,-1.171875 z m 0,0"
       style="fill:#000000;fill-opacity:1;fill-rule:nonzero;stroke:none" />
    <path
       id="path114"
       d="m 62.273438,34.320308 c 0.625,0 1.152344,0.160156 1.582031,0.488282 0.40625,0.351562 0.605469,0.792968 0.605469,1.328124 0,0.898438 -0.460938,1.738282 -1.386719,2.519532 -0.9375,0.78125 -1.9375,1.171875 -3.007813,1.171875 -0.625,0 -1.152343,-0.164063 -1.582031,-0.488281 -0.402343,-0.351563 -0.605469,-0.796876 -0.605469,-1.328126 0,-0.898437 0.46875,-1.738281 1.40625,-2.519531 0.914063,-0.78125 1.910157,-1.171875 2.988282,-1.171875 z m 0,0"
       style="fill:#000000;fill-opacity:1;fill-rule:nonzero;stroke:none" />
    <path
       id="path116"
       d="m 196.78516,21.816402 c 0.625,0 1.15234,0.164062 1.58203,0.488281 0.40234,0.351563 0.60547,0.796875 0.60547,1.328125 0,0.898438 -0.46094,1.738282 -1.38672,2.519532 -0.9375,0.78125 -1.94141,1.175781 -3.00781,1.175781 -0.625,0 -1.15235,-0.164063 -1.58204,-0.492188 -0.40234,-0.351562 -0.60546,-0.792969 -0.60546,-1.328125 0,-0.898437 0.46875,-1.738281 1.40625,-2.519531 0.91015,-0.78125 1.90625,-1.171875 2.98828,-1.171875 z m 0,0"
       style="fill:#000000;fill-opacity:1;fill-rule:nonzero;stroke:none" />
    <path
       id="path118"
       d="m 181.24219,21.816402 c 0.625,0 1.15234,0.164062 1.58203,0.488281 0.40625,0.351563 0.60547,0.796875 0.60547,1.328125 0,0.898438 -0.46094,1.738282 -1.38672,2.519532 -0.9375,0.78125 -1.9375,1.175781 -3.00781,1.175781 -0.625,0 -1.15235,-0.164063 -1.58203,-0.492188 -0.40235,-0.351562 -0.60547,-0.792969 -0.60547,-1.328125 0,-0.898437 0.46875,-1.738281 1.40625,-2.519531 0.91406,-0.78125 1.91015,-1.171875 2.98828,-1.171875 z m 0,0"
       style="fill:#000000;fill-opacity:1;fill-rule:nonzero;stroke:none" />
    <path
       id="path120"
       d="m 169.88672,24.316402 c 0.625,0 1.15234,0.164062 1.58203,0.488281 0.40625,0.351563 0.60547,0.796875 0.60547,1.328125 0,0.898438 -0.46094,1.742188 -1.38672,2.523438 -0.9375,0.78125 -1.9375,1.171875 -3.00781,1.171875 -0.625,0 -1.15235,-0.164063 -1.58203,-0.488281 -0.40235,-0.351563 -0.60547,-0.796876 -0.60547,-1.328126 0,-0.902343 0.46875,-1.742187 1.40625,-2.523437 0.91406,-0.78125 1.91015,-1.171875 2.98828,-1.171875 z m 0,0"
       style="fill:#000000;fill-opacity:1;fill-rule:nonzero;stroke:none" />
    <path
       id="path122"
       d="m 146.57422,24.316402 c 0.625,0 1.15234,0.164062 1.58203,0.488281 0.40625,0.351563 0.60547,0.796875 0.60547,1.328125 0,0.898438 -0.46094,1.742188 -1.38672,2.523438 -0.9375,0.78125 -1.9375,1.171875 -3.00781,1.171875 -0.625,0 -1.15235,-0.164063 -1.58203,-0.488281 -0.40235,-0.351563 -0.60547,-0.796876 -0.60547,-1.328126 0,-0.902343 0.46875,-1.742187 1.40625,-2.523437 0.91406,-0.78125 1.91015,-1.171875 2.98828,-1.171875 z m 0,0"
       style="fill:#000000;fill-opacity:1;fill-rule:nonzero;stroke:none" />
    <path
       id="path124"
       d="m 133.26953,26.816402 c 0.625,0 1.15235,0.164062 1.58203,0.492188 0.40625,0.351562 0.60547,0.792968 0.60547,1.328124 0,0.898438 -0.46094,1.738282 -1.38672,2.519532 -0.9375,0.78125 -1.9375,1.171875 -3.00781,1.171875 -0.625,0 -1.15234,-0.164063 -1.58203,-0.488281 -0.40234,-0.351563 -0.60547,-0.796876 -0.60547,-1.328126 0,-0.898437 0.46875,-1.738281 1.40625,-2.519531 0.91406,-0.78125 1.91016,-1.175781 2.98828,-1.175781 z m 0,0"
       style="fill:#000000;fill-opacity:1;fill-rule:nonzero;stroke:none" />
    <path
       id="path126"
       d="m 265.42188,19.316402 c 0.625,0 1.15234,0.164062 1.58203,0.488281 0.40625,0.351563 0.60547,0.796875 0.60547,1.328125 0,0.898438 -0.46094,1.738282 -1.38672,2.519532 -0.9375,0.78125 -1.9375,1.171874 -3.00782,1.171874 -0.625,0 -1.15234,-0.160156 -1.58203,-0.488281 -0.40234,-0.351562 -0.60547,-0.792969 -0.60547,-1.328125 0,-0.898437 0.46875,-1.738281 1.40625,-2.519531 0.91407,-0.78125 1.91016,-1.171875 2.98829,-1.171875 z m 0,0"
       style="fill:#000000;fill-opacity:1;fill-rule:nonzero;stroke:none" />
    <path
       id="path128"
       d="m 251.27734,16.816402 c 0.625,0 1.15235,0.164062 1.58204,0.488281 0.40625,0.351563 0.60546,0.796875 0.60546,1.328125 0,0.898438 -0.46093,1.738282 -1.38671,2.519532 -0.9375,0.78125 -1.9375,1.171874 -3.00782,1.171874 -0.625,0 -1.15234,-0.160156 -1.58203,-0.488281 -0.40234,-0.351562 -0.60547,-0.792969 -0.60547,-1.328125 0,-0.898437 0.46875,-1.738281 1.40625,-2.519531 0.91407,-0.78125 1.91016,-1.171875 2.98828,-1.171875 z m 0,0"
       style="fill:#000000;fill-opacity:1;fill-rule:nonzero;stroke:none" />
    <path
       id="path130"
       d="m 221.23047,18.261714 c 0,-0.21875 -0.0859,-0.410156 -0.25391,-0.566406 -0.17187,-0.167968 -0.36718,-0.253906 -0.58593,-0.253906 -0.39063,0 -1.17969,0.390625 -2.36329,1.171875 -1.22656,0.796875 -1.97265,1.363281 -2.24609,1.699219 -0.14453,0.183594 -0.21484,0.371094 -0.21484,0.566406 0,0.222656 0.082,0.410156 0.2539,0.566406 0.15625,0.171875 0.35157,0.253906 0.58594,0.253906 0.375,0 1.17188,-0.390624 2.38281,-1.171874 1.19532,-0.78125 1.9375,-1.347657 2.22657,-1.699219 0.14062,-0.167969 0.21484,-0.355469 0.21484,-0.566407 z m -1.03516,-1.445312 c 1.11719,0 1.67969,0.484375 1.67969,1.445312 0,0.46875 -0.13672,1.015626 -0.41016,1.640626 -0.27343,0.613281 -0.64062,1.082031 -1.09375,1.40625 -1.0039,0.679687 -2.26171,1.015624 -3.76953,1.015624 -1.12109,0 -1.67968,-0.480468 -1.67968,-1.445312 0,-0.429688 0.13671,-0.96875 0.41015,-1.621094 0.25781,-0.625 0.625,-1.097656 1.09375,-1.425781 1,-0.675781 2.25781,-1.015625 3.76953,-1.015625 z m 0,0"
       style="fill:#000000;fill-opacity:1;fill-rule:nonzero;stroke:none" />
    <path
       id="path132"
       d="m 208.14063,19.316402 c 0.625,0 1.15234,0.164062 1.58203,0.488281 0.40234,0.351563 0.60547,0.796875 0.60547,1.328125 0,0.898438 -0.46094,1.738282 -1.38672,2.519532 -0.9375,0.78125 -1.94141,1.171874 -3.00782,1.171874 -0.625,0 -1.15234,-0.160156 -1.58203,-0.488281 -0.40234,-0.351562 -0.60547,-0.792969 -0.60547,-1.328125 0,-0.898437 0.46875,-1.738281 1.40625,-2.519531 0.91016,-0.78125 1.90625,-1.171875 2.98829,-1.171875 z m 0,0"
       style="fill:#000000;fill-opacity:1;fill-rule:nonzero;stroke:none" />
    <path
       id="path134"
       d="m 351.26172,26.816402 c 0.625,0 1.15234,0.164062 1.58203,0.492188 0.40234,0.351562 0.60547,0.792968 0.60547,1.328124 0,0.898438 -0.46484,1.738282 -1.38672,2.519532 -0.9375,0.78125 -1.94141,1.171875 -3.00781,1.171875 -0.625,0 -1.15235,-0.164063 -1.58203,-0.488281 -0.40625,-0.351563 -0.60547,-0.796876 -0.60547,-1.328126 0,-0.898437 0.46875,-1.738281 1.40625,-2.519531 0.91015,-0.78125 1.90625,-1.175781 2.98828,-1.175781 z m 0,0"
       style="fill:#000000;fill-opacity:1;fill-rule:nonzero;stroke:none" />
    <path
       id="path136"
       d="m 337.11719,24.316402 c 0.625,0 1.15234,0.164062 1.58203,0.488281 0.40234,0.351563 0.60547,0.796875 0.60547,1.328125 0,0.898438 -0.46485,1.742188 -1.38672,2.523438 -0.9375,0.78125 -1.94141,1.171875 -3.00781,1.171875 -0.625,0 -1.15235,-0.164063 -1.58203,-0.488281 -0.40625,-0.351563 -0.60547,-0.796876 -0.60547,-1.328126 0,-0.902343 0.46875,-1.742187 1.40625,-2.523437 0.91015,-0.78125 1.90625,-1.171875 2.98828,-1.171875 z m 0,0"
       style="fill:#000000;fill-opacity:1;fill-rule:nonzero;stroke:none" />
    <path
       id="path138"
       d="m 322.64844,24.316402 c 0.625,0 1.15234,0.164062 1.58203,0.488281 0.40234,0.351563 0.60547,0.796875 0.60547,1.328125 0,0.898438 -0.46094,1.742188 -1.38672,2.523438 -0.9375,0.78125 -1.94141,1.171875 -3.00781,1.171875 -0.625,0 -1.15235,-0.164063 -1.58203,-0.488281 -0.40625,-0.351563 -0.60547,-0.796876 -0.60547,-1.328126 0,-0.902343 0.46875,-1.742187 1.40625,-2.523437 0.91015,-0.78125 1.90625,-1.171875 2.98828,-1.171875 z m 0,0"
       style="fill:#000000;fill-opacity:1;fill-rule:nonzero;stroke:none" />
    <path
       id="path140"
       d="m 308.50391,21.816402 c 0.625,0 1.15234,0.164062 1.58203,0.488281 0.40234,0.351563 0.60547,0.796875 0.60547,1.328125 0,0.898438 -0.46094,1.738282 -1.38672,2.519532 -0.9375,0.78125 -1.94141,1.175781 -3.00781,1.175781 -0.625,0 -1.15235,-0.164063 -1.58204,-0.492188 -0.40625,-0.351562 -0.60546,-0.792969 -0.60546,-1.328125 0,-0.898437 0.46875,-1.738281 1.40625,-2.519531 0.91015,-0.78125 1.90625,-1.171875 2.98828,-1.171875 z m 0,0"
       style="fill:#000000;fill-opacity:1;fill-rule:nonzero;stroke:none" />
    <path
       id="path142"
       d="m 294.03516,21.816402 c 0.625,0 1.15234,0.164062 1.58203,0.488281 0.40234,0.351563 0.60547,0.796875 0.60547,1.328125 0,0.898438 -0.46094,1.738282 -1.38672,2.519532 -0.9375,0.78125 -1.94141,1.175781 -3.00781,1.175781 -0.625,0 -1.15235,-0.164063 -1.58204,-0.492188 -0.40234,-0.351562 -0.60546,-0.792969 -0.60546,-1.328125 0,-0.898437 0.46875,-1.738281 1.40625,-2.519531 0.91015,-0.78125 1.90625,-1.171875 2.98828,-1.171875 z m 0,0"
       style="fill:#000000;fill-opacity:1;fill-rule:nonzero;stroke:none" />
    <path
       id="path144"
       d="m 279.89063,19.316402 c 0.625,0 1.15234,0.164062 1.58203,0.488281 0.40234,0.351563 0.60547,0.796875 0.60547,1.328125 0,0.898438 -0.46094,1.738282 -1.38672,2.519532 -0.9375,0.78125 -1.94141,1.171874 -3.00782,1.171874 -0.625,0 -1.15234,-0.160156 -1.58203,-0.488281 -0.40234,-0.351562 -0.60547,-0.792969 -0.60547,-1.328125 0,-0.898437 0.46875,-1.738281 1.40625,-2.519531 0.91016,-0.78125 1.90625,-1.171875 2.98829,-1.171875 z m 0,0"
       style="fill:#000000;fill-opacity:1;fill-rule:nonzero;stroke:none" />
    <path
       id="path146"
       d="m 414.33594,31.820308 c 0.625,0 1.15234,0.160156 1.58203,0.488282 0.40234,0.351562 0.60547,0.792968 0.60547,1.328124 0,0.898438 -0.46485,1.738282 -1.38672,2.519532 -0.9375,0.78125 -1.94141,1.171875 -3.00781,1.171875 -0.625,0 -1.15235,-0.164063 -1.58203,-0.488281 -0.40625,-0.351563 -0.60547,-0.796876 -0.60547,-1.328126 0,-0.898437 0.46875,-1.738281 1.40625,-2.519531 0.91015,-0.78125 1.90625,-1.171875 2.98828,-1.171875 z m 0,0"
       style="fill:#000000;fill-opacity:1;fill-rule:nonzero;stroke:none" />
    <path
       id="path148"
       d="m 399.86719,31.820308 c 0.625,0 1.15234,0.160156 1.58203,0.488282 0.40234,0.351562 0.60547,0.792968 0.60547,1.328124 0,0.898438 -0.46094,1.738282 -1.38672,2.519532 -0.9375,0.78125 -1.94141,1.171875 -3.00781,1.171875 -0.625,0 -1.15235,-0.164063 -1.58203,-0.488281 -0.40235,-0.351563 -0.60547,-0.796876 -0.60547,-1.328126 0,-0.898437 0.46875,-1.738281 1.40625,-2.519531 0.91015,-0.78125 1.90625,-1.171875 2.98828,-1.171875 z m 0,0"
       style="fill:#000000;fill-opacity:1;fill-rule:nonzero;stroke:none" />
    <path
       id="path150"
       d="m 386.67188,29.320308 c 0.625,0 1.15234,0.160156 1.58203,0.488282 0.40625,0.351562 0.60547,0.792968 0.60547,1.328124 0,0.898438 -0.46094,1.738282 -1.38672,2.519532 -0.9375,0.78125 -1.9375,1.171875 -3.00782,1.171875 -0.625,0 -1.15234,-0.164063 -1.58203,-0.488281 -0.40234,-0.351563 -0.60547,-0.796876 -0.60547,-1.328126 0,-0.898437 0.46875,-1.738281 1.40625,-2.519531 0.91407,-0.78125 1.91016,-1.171875 2.98829,-1.171875 z m 0,0"
       style="fill:#000000;fill-opacity:1;fill-rule:nonzero;stroke:none" />
    <path
       id="path152"
       d="m 372.20313,29.320308 c 0.625,0 1.15234,0.160156 1.58203,0.488282 0.40625,0.351562 0.60547,0.792968 0.60547,1.328124 0,0.898438 -0.46094,1.738282 -1.38672,2.519532 -0.9375,0.78125 -1.9375,1.171875 -3.00782,1.171875 -0.625,0 -1.15234,-0.164063 -1.58203,-0.488281 -0.40234,-0.351563 -0.60547,-0.796876 -0.60547,-1.328126 0,-0.898437 0.46875,-1.738281 1.40625,-2.519531 0.91407,-0.78125 1.91016,-1.171875 2.98829,-1.171875 z m 0,0"
       style="fill:#000000;fill-opacity:1;fill-rule:nonzero;stroke:none" />
    <path
       id="path154"
       d="m 429.26172,35.765621 c 0,-0.222657 -0.082,-0.410157 -0.25391,-0.566407 -0.16797,-0.171874 -0.36328,-0.253906 -0.58593,-0.253906 -0.39063,0 -1.17579,0.390625 -2.36329,1.171875 -1.22265,0.792969 -1.97265,1.359375 -2.24609,1.699219 -0.14062,0.179688 -0.21484,0.371094 -0.21484,0.566406 0,0.21875 0.0859,0.410156 0.2539,0.566406 0.15625,0.167969 0.35157,0.253907 0.58594,0.253907 0.37891,0 1.17188,-0.390625 2.38281,-1.171875 1.19922,-0.78125 1.94141,-1.347656 2.22657,-1.699219 0.14453,-0.171875 0.21484,-0.359375 0.21484,-0.566406 z m -1.03516,-1.445313 c 1.1211,0 1.67969,0.480469 1.67969,1.445313 0,0.46875 -0.13672,1.015625 -0.41016,1.640625 -0.27343,0.609375 -0.63671,1.078125 -1.09375,1.40625 -1,0.675781 -2.25781,1.015625 -3.76953,1.015625 -1.11718,0 -1.67968,-0.484375 -1.67968,-1.445313 0,-0.429687 0.13671,-0.972656 0.41015,-1.621094 0.26172,-0.625 0.625,-1.101562 1.09375,-1.425781 1.00391,-0.679687 2.26172,-1.015625 3.76953,-1.015625 z m 0,0"
       style="fill:#000000;fill-opacity:1;fill-rule:nonzero;stroke:none" />
    <path
       id="path156"
       d="m 14.292969,21.953121 c 0,0 0.03906,0 0.117187,0 0.05078,-0.01172 0.09766,-0.01953 0.136719,-0.01953 1.457031,0 2.65625,0.515624 3.59375,1.542968 0.9375,1.015625 1.40625,2.203125 1.40625,3.554688 0,1.683594 -0.695312,3.050781 -2.089843,4.105468 -0.363282,0.285157 -0.839844,0.519532 -1.425782,0.703126 0.06641,0.84375 0.09766,1.527343 0.09766,2.050781 0,0.101562 -0.01172,0.480469 -0.03906,1.132812 -0.05078,1.210938 -0.46875,2.257813 -1.25,3.144531 -0.753906,0.871094 -1.691406,1.308594 -2.8125,1.308594 -1.054688,0 -1.953125,-0.371094 -2.6953119,-1.113281 -0.742188,-0.757813 -1.113282,-1.667969 -1.113282,-2.734375 0,-0.5625 0.214844,-1.035156 0.644532,-1.425781 0.441406,-0.390625 0.957031,-0.585938 1.5429679,-0.585938 0.519532,0 0.957032,0.199219 1.308594,0.605469 0.363281,0.375 0.546875,0.84375 0.546875,1.40625 0,0.507812 -0.183594,0.941406 -0.546875,1.308594 -0.363281,0.363281 -0.800781,0.546875 -1.308594,0.546875 -0.207031,0 -0.4101559,-0.03906 -0.6054679,-0.117188 0.5742179,0.84375 1.3359369,1.269531 2.2851559,1.269531 0.898437,0 1.632812,-0.367187 2.207031,-1.09375 0.597656,-0.757812 0.925781,-1.636718 0.976563,-2.636718 0.02734,-0.625 0.03906,-0.984375 0.03906,-1.074219 0,-0.730469 -0.02734,-1.328125 -0.07813,-1.796875 -0.652344,0.101562 -1.230469,0.15625 -1.738281,0.15625 -1.808594,0 -3.351563,-0.71875 -4.6289059,-2.148438 -1.25,-1.445312 -1.875,-3.167968 -1.875,-5.160156 0,-0.414062 0.039062,-0.839844 0.117187,-1.269531 0.078125,-0.351563 0.175781,-0.734375 0.292969,-1.152344 0.066406,-0.234375 0.242187,-0.609375 0.527344,-1.132812 0.105468,-0.15625 0.222656,-0.351563 0.351562,-0.585938 0.128906,-0.234375 0.222656,-0.390625 0.273438,-0.46875 0.128906,-0.257812 0.382812,-0.609375 0.761718,-1.054687 0.105469,-0.117188 0.210938,-0.246094 0.320313,-0.390625 0.113281,-0.140625 0.207031,-0.257813 0.285156,-0.351563 0.078125,-0.08984 0.1367189,-0.160156 0.1757809,-0.214844 0.03906,-0.05078 0.332032,-0.394531 0.878906,-1.035156 0.128907,-0.128906 0.257813,-0.269531 0.382813,-0.417968 0.121094,-0.152344 0.222656,-0.269532 0.300781,-0.351563 0.07813,-0.08594 0.136719,-0.148437 0.175782,-0.1875 -0.468749,-1.546876 -0.761718,-2.785157 -0.878906,-3.710938 -0.08984,-0.742188 -0.136719,-1.757813 -0.136719,-3.0468759 0,-1.132812 0.261719,-2.191406 0.78125,-3.183593 0.507813,-1.027344 1.21875,-1.867188 2.128907,-2.519531 0.06641,-0.03906 0.128906,-0.05859 0.195312,-0.05859 0.08984,0 0.15625,0.01953 0.195313,0.05859 0.703125,0.847656 1.308594,1.945312 1.816406,3.300781 0.519531,1.355469 0.78125,2.585937 0.78125,3.6914059 0,1.25 -0.300781,2.421875 -0.898438,3.515625 -0.675781,1.160156 -1.550781,2.359375 -2.617187,3.59375 0.273437,0.859375 0.636719,2.207031 1.09375,4.042969 z m 1.660156,9.085937 c 0.675781,-0.25 1.203125,-0.671875 1.582031,-1.269531 0.417969,-0.574219 0.625,-1.21875 0.625,-1.933594 0,-0.925781 -0.3125,-1.746093 -0.9375,-2.464843 -0.636718,-0.742188 -1.453124,-1.15625 -2.441406,-1.25 0.558594,2.75 0.949219,5.054687 1.171875,6.917968 z M 8.3945321,26.523433 c 0,1.292969 0.519531,2.425781 1.5625,3.402344 1.0664059,0.949219 2.2656239,1.425781 3.5937499,1.425781 0.546874,0 1.082031,-0.03906 1.601562,-0.117187 -0.207031,-1.980469 -0.617188,-4.351563 -1.230469,-7.113281 -0.742187,0.07812 -1.335937,0.339843 -1.777343,0.78125 C 11.714844,25.359371 11.5,25.874996 11.5,26.445308 c 0,0.992188 0.527344,1.792969 1.582032,2.40625 0.08984,0.08984 0.136718,0.1875 0.136718,0.292969 0,0.101563 -0.04687,0.199219 -0.136718,0.292969 -0.07813,0.08984 -0.175782,0.136718 -0.292969,0.136718 -0.01172,0 -0.07031,-0.01562 -0.175781,-0.03906 -0.742188,-0.40625 -1.316407,-0.925781 -1.71875,-1.5625 -0.378907,-0.679688 -0.566407,-1.363281 -0.566407,-2.054688 0,-0.898437 0.28125,-1.710937 0.839844,-2.441406 0.585937,-0.726562 1.347656,-1.195312 2.285156,-1.40625 -0.363281,-1.457031 -0.664062,-2.597656 -0.898437,-3.417968 -0.207032,0.234374 -0.457032,0.519531 -0.75,0.851562 -0.292969,0.332031 -0.46875,0.53125 -0.519532,0.59375 -0.46875,0.613281 -0.828124,1.089844 -1.074218,1.425781 -0.4414059,0.613281 -0.7695319,1.140625 -0.9765629,1.582031 -0.222656,0.496094 -0.417969,1.035157 -0.585937,1.621094 -0.167969,0.5625 -0.253906,1.160156 -0.253906,1.796875 z M 14.917969,6.6601521 c -0.976563,0.484375 -1.746094,1.171875 -2.304687,2.070312 -0.574219,0.925782 -0.859376,1.9218759 -0.859376,2.9882819 0,0.9375 0.234376,2.203125 0.703126,3.789062 0.9375,-1.132812 1.640624,-2.179687 2.109374,-3.144531 0.496094,-1.015625 0.742188,-2.074219 0.742188,-3.1835939 0,-0.832031 -0.128906,-1.671875 -0.390625,-2.519531 z m 0,0"
       style="fill:#000000;fill-opacity:1;fill-rule:nonzero;stroke:none" />
    <path
       id="path158"
       d="m 29.082032,12.324214 c 0.390624,0 0.722656,-0.04297 0.996093,-0.136718 0.273438,-0.08984 0.449219,-0.136719 0.527344,-0.136719 0.08984,0 0.160156,0.02734 0.214844,0.07813 0.03906,0.03906 0.0625,0.08594 0.07813,0.136719 0,0.02734 -0.01563,0.06641 -0.03906,0.117187 l -5.6875,6.601563 h 3.339844 v -2.617188 c 0,-0.167969 0.04687,-0.3125 0.136719,-0.429687 0.15625,-0.128906 0.289062,-0.207032 0.394531,-0.234375 0.167969,-0.07813 0.375,-0.257813 0.625,-0.546875 0.207031,-0.234375 0.453125,-0.644532 0.742187,-1.230469 0.03906,-0.07813 0.09766,-0.117187 0.175782,-0.117187 0.15625,0 0.246094,0.09375 0.273437,0.273437 v 4.902344 h 1.425781 c 0.179688,0 0.285157,0.09766 0.3125,0.292969 0,0.195312 -0.105468,0.292968 -0.3125,0.292968 h -1.425781 v 0.15625 c 0,0.523438 0.128907,0.964844 0.390625,1.328125 0.296875,0.367188 0.648438,0.546875 1.054688,0.546875 0.15625,0 0.234375,0.07813 0.234375,0.234375 0,0.15625 -0.07813,0.234375 -0.234375,0.234375 -0.273438,0 -0.71875,-0.03906 -1.328125,-0.117187 -0.5625,-0.08984 -0.996094,-0.136719 -1.308594,-0.136719 -0.328125,0 -0.765625,0.04687 -1.3125,0.136719 -0.585937,0.07813 -1.019531,0.117187 -1.308594,0.117187 -0.15625,0 -0.234375,-0.07813 -0.234375,-0.234375 0,-0.15625 0.07813,-0.234375 0.234375,-0.234375 0.40625,0 0.757813,-0.179687 1.054688,-0.546875 0.273437,-0.363281 0.410156,-0.804687 0.410156,-1.328125 v -0.15625 h -3.339844 c -0.21875,0 -0.375,-0.05078 -0.46875,-0.15625 -0.101562,-0.07813 -0.15625,-0.179687 -0.15625,-0.3125 0,-0.03906 0.09766,-0.175781 0.292969,-0.410156 0.222656,-0.257812 0.457031,-0.578125 0.703125,-0.957031 0.289063,-0.441407 0.5625,-0.898438 0.820313,-1.367188 0.289062,-0.53125 0.515624,-1.144531 0.683593,-1.835937 0.195313,-0.703125 0.292969,-1.417969 0.292969,-2.148438 0,-0.207031 0.09375,-0.3125 0.273438,-0.3125 0.03906,0 0.125,0.01953 0.253906,0.05859 0.03906,0.01563 0.121094,0.03516 0.246094,0.05859 0.125,0.02734 0.222656,0.05469 0.300781,0.07813 0.234375,0.03906 0.457031,0.05859 0.667969,0.05859 z m 0,0"
       style="fill:#000000;fill-opacity:1;fill-rule:nonzero;stroke:none" />
    <path
       id="path160"
       d="m 29.082032,22.324214 c 0.390624,0 0.722656,-0.04297 0.996093,-0.136718 0.273438,-0.08984 0.449219,-0.136719 0.527344,-0.136719 0.08984,0 0.160156,0.02734 0.214844,0.07813 0.03906,0.03906 0.0625,0.08594 0.07813,0.136719 0,0.02734 -0.01563,0.06641 -0.03906,0.117187 l -5.6875,6.605469 h 3.339844 v -2.621094 c 0,-0.167969 0.04687,-0.3125 0.136719,-0.429687 0.15625,-0.128906 0.289062,-0.207032 0.394531,-0.234375 0.167969,-0.07813 0.375,-0.257813 0.625,-0.546875 0.207031,-0.234375 0.453125,-0.644532 0.742187,-1.230469 0.03906,-0.07813 0.09766,-0.117187 0.175782,-0.117187 0.15625,0 0.246094,0.09375 0.273437,0.273437 v 4.90625 h 1.425781 c 0.179688,0 0.285157,0.09766 0.3125,0.292969 0,0.195312 -0.105468,0.292968 -0.3125,0.292968 h -1.425781 v 0.15625 c 0,0.519532 0.128907,0.960938 0.390625,1.328126 0.296875,0.363281 0.648438,0.546874 1.054688,0.546874 0.15625,0 0.234375,0.07813 0.234375,0.234376 0,0.15625 -0.07813,0.234374 -0.234375,0.234374 -0.273438,0 -0.71875,-0.03906 -1.328125,-0.117187 -0.5625,-0.09375 -0.996094,-0.136719 -1.308594,-0.136719 -0.328125,0 -0.765625,0.04297 -1.3125,0.136719 -0.585937,0.07813 -1.019531,0.117187 -1.308594,0.117187 -0.15625,0 -0.234375,-0.07812 -0.234375,-0.234374 0,-0.15625 0.07813,-0.234376 0.234375,-0.234376 0.40625,0 0.757813,-0.183593 1.054688,-0.546874 0.273437,-0.367188 0.410156,-0.808594 0.410156,-1.328126 v -0.15625 h -3.339844 c -0.21875,0 -0.375,-0.05469 -0.46875,-0.15625 -0.101562,-0.07812 -0.15625,-0.183593 -0.15625,-0.3125 0,-0.03906 0.09766,-0.175781 0.292969,-0.410156 0.222656,-0.261718 0.457031,-0.582031 0.703125,-0.957031 0.289063,-0.445313 0.5625,-0.902344 0.820313,-1.371094 0.289062,-0.53125 0.515624,-1.144531 0.683593,-1.835937 0.195313,-0.703125 0.292969,-1.417969 0.292969,-2.148438 0,-0.207031 0.09375,-0.3125 0.273438,-0.3125 0.03906,0 0.125,0.01953 0.253906,0.05859 0.03906,0.01563 0.121094,0.03516 0.246094,0.05859 0.125,0.02734 0.222656,0.05469 0.300781,0.07813 0.234375,0.03906 0.457031,0.05859 0.667969,0.05859 z m 0,0"
       style="fill:#000000;fill-opacity:1;fill-rule:nonzero;stroke:none" />
    <path
       id="path162"
       d="m 47.273438,20.83984 46.035156,-1.269532 v 2.5 L 47.273438,23.33984 Z m 0,0"
       style="fill:#000000;fill-opacity:1;fill-rule:evenodd;stroke:none" />
    <path
       id="path164"
       d="m 105.96484,14.648433 42.79688,-5.0781249 v 2.4999999 l -42.79688,5.078125 z m 0,0"
       style="fill:#000000;fill-opacity:1;fill-rule:evenodd;stroke:none" />
    <path
       id="path166"
       d="m 171.42578,9.6562461 38.90235,-5.085938 v 2.5 l -38.90235,5.0859379 z m 0,0"
       style="fill:#000000;fill-opacity:1;fill-rule:evenodd;stroke:none" />
    <path
       id="path168"
       d="m 246.88281,34.574214 43.40625,2.535157 v 2.5 l -43.40625,-2.535157 z m 0,0"
       style="fill:#000000;fill-opacity:1;fill-rule:evenodd;stroke:none" />
    <path
       id="path170"
       d="m 310.04297,7.0312461 43.40625,2.539062 V 12.070308 L 310.04297,9.5312461 Z m 0,0"
       style="fill:#000000;fill-opacity:1;fill-rule:evenodd;stroke:none" />
    <path
       id="path172"
       d="m 373.74219,15.800777 42.78125,1.269531 v 2.5 l -42.78125,-1.269531 z m 0,0"
       style="fill:#000000;fill-opacity:1;fill-rule:evenodd;stroke:none" />
  </g>
</svg>
