<?xml version="1.0" encoding="UTF-8" standalone="no"?>
<svg
   xmlns:dc="http://purl.org/dc/elements/1.1/"
   xmlns:cc="http://creativecommons.org/ns#"
   xmlns:rdf="http://www.w3.org/1999/02/22-rdf-syntax-ns#"
   xmlns:svg="http://www.w3.org/2000/svg"
   xmlns="http://www.w3.org/2000/svg"
   xmlns:sodipodi="http://sodipodi.sourceforge.net/DTD/sodipodi-0.dtd"
   xmlns:inkscape="http://www.inkscape.org/namespaces/inkscape"
   inkscape:version="1.0 (4035a4f, 2020-05-01)"
   sodipodi:docname="scales_min_maj_2.svg"
   id="svg399"
   version="1.2"
   viewBox="0 0 310 50"
   height="50pt"
   width="310pt">
  <metadata
     id="metadata405">
    <rdf:RDF>
      <cc:Work
         rdf:about="">
        <dc:format>image/svg+xml</dc:format>
        <dc:type
           rdf:resource="http://purl.org/dc/dcmitype/StillImage" />
        <dc:title></dc:title>
      </cc:Work>
    </rdf:RDF>
  </metadata>
  <defs
     id="defs403" />
  <sodipodi:namedview
     inkscape:current-layer="surface3324"
     inkscape:window-maximized="1"
     inkscape:window-y="23"
     inkscape:window-x="0"
     inkscape:cy="561.33333"
     inkscape:cx="396.66667"
     inkscape:zoom="0.57630641"
     showgrid="false"
     id="namedview401"
     inkscape:window-height="855"
     inkscape:window-width="1440"
     inkscape:pageshadow="2"
     inkscape:pageopacity="0"
     guidetolerance="10"
     gridtolerance="10"
     objecttolerance="10"
     borderopacity="1"
     bordercolor="#666666"
     pagecolor="#ffffff" />
  <g
     id="surface3324">
    <path
       id="path12"
       d="M 3.7500001,13.81641 H 168.16016 m -164.4101599,5 H 168.16016 m -164.4101599,5 H 168.16016 m -164.4101599,5 H 168.16016 m -164.4101599,5 H 168.16016"
       style="fill:none;stroke:#000000;stroke-width:0.400025;stroke-linecap:butt;stroke-linejoin:bevel;stroke-miterlimit:10;stroke-opacity:1" />
    <path
       id="path16"
       d="m 168.16016,13.81641 h 136.61718 m -136.61718,5 h 136.61718 m -136.61718,5 h 136.61718 m -136.61718,5 h 136.61718 m -136.61718,5 h 136.61718"
       style="fill:none;stroke:#000000;stroke-width:0.384893;stroke-linecap:butt;stroke-linejoin:bevel;stroke-miterlimit:10;stroke-opacity:1" />
    <path
       id="path28"
       d="m 167.75781,13.81641 v 20"
       style="fill:none;stroke:#000000;stroke-width:0.80005;stroke-linecap:butt;stroke-linejoin:bevel;stroke-miterlimit:10;stroke-opacity:1" />
    <path
       id="path34"
       d="m 304.77734,13.81641 v 20"
       style="fill:none;stroke:#000000;stroke-width:0.80005;stroke-linecap:butt;stroke-linejoin:bevel;stroke-miterlimit:10;stroke-opacity:1" />
    <path
       id="path42"
       d="m 68.226563,32.9961 v 1.54296 c 0,0.54688 0.02734,0.98438 0.07813,1.3086 0.429687,-0.36328 0.734375,-0.63672 0.917968,-0.82031 0.207032,-0.20704 0.417969,-0.4961 0.625,-0.85938 0.207032,-0.36328 0.3125,-0.73047 0.3125,-1.09375 0,-0.36328 -0.07812,-0.67578 -0.234374,-0.9375 -0.15625,-0.26172 -0.363282,-0.39062 -0.625,-0.39062 -0.3125,0 -0.574219,0.11718 -0.78125,0.35156 -0.195313,0.26172 -0.292969,0.55859 -0.292969,0.89844 z M 67.40625,36.57031 67.152344,24.67578 c 0.183594,-0.10547 0.363281,-0.15625 0.546875,-0.15625 0.183594,0 0.363281,0.0508 0.546875,0.15625 l -0.15625,6.89453 c 0.535156,-0.45703 1.144531,-0.68359 1.835938,-0.68359 0.507812,0 0.929687,0.20703 1.269531,0.625 0.339843,0.41797 0.507812,0.89063 0.507812,1.42578 0,0.33985 -0.109375,0.69531 -0.332031,1.07422 -0.207031,0.35156 -0.429688,0.625 -0.664062,0.82031 -0.128907,0.10547 -0.460938,0.36328 -0.996094,0.78125 -0.15625,0.11719 -0.339844,0.25391 -0.554688,0.41016 -0.214844,0.15625 -0.351562,0.25391 -0.402344,0.29297 -0.08984,0.0508 -0.175781,0.15625 -0.253906,0.3125 -0.08984,0.1289 -0.195312,0.24219 -0.3125,0.33203 -0.08984,0.0781 -0.203125,0.11719 -0.332031,0.11719 -0.128906,0 -0.234375,-0.0469 -0.3125,-0.13672 -0.08984,-0.0898 -0.136719,-0.21485 -0.136719,-0.3711 z m 0,0"
       style="fill:#000000;fill-opacity:1;fill-rule:nonzero;stroke:none" />
    <path
       id="path44"
       d="m 115.48438,25.4961 v 1.54296 c 0,0.54688 0.0273,0.98438 0.0781,1.3086 0.42969,-0.36328 0.73438,-0.63672 0.91797,-0.82031 0.20703,-0.20704 0.41797,-0.4961 0.625,-0.85938 0.20703,-0.36328 0.3125,-0.73047 0.3125,-1.09375 0,-0.36328 -0.0781,-0.67578 -0.23438,-0.9375 -0.15625,-0.26172 -0.36328,-0.39062 -0.625,-0.39062 -0.3125,0 -0.57421,0.11718 -0.78125,0.35156 -0.19531,0.26172 -0.29296,0.55859 -0.29296,0.89844 z m -0.82032,3.57421 -0.2539,-11.89453 c 0.18359,-0.10547 0.36328,-0.15625 0.54687,-0.15625 0.1836,0 0.36328,0.0508 0.54688,0.15625 l -0.15625,6.89453 c 0.53515,-0.45703 1.14453,-0.68359 1.83593,-0.68359 0.50782,0 0.92969,0.20703 1.26954,0.625 0.33984,0.41797 0.50781,0.89063 0.50781,1.42578 0,0.33985 -0.10938,0.69531 -0.33203,1.07422 -0.20703,0.35156 -0.42969,0.625 -0.66407,0.82031 -0.1289,0.10547 -0.46093,0.36328 -0.99609,0.78125 -0.15625,0.11719 -0.34375,0.25391 -0.55859,0.41016 -0.21485,0.15625 -0.34766,0.25391 -0.39844,0.29297 -0.0898,0.0508 -0.17578,0.15625 -0.25391,0.3125 -0.0898,0.1289 -0.19531,0.24219 -0.3125,0.33203 -0.0898,0.0781 -0.20312,0.11719 -0.33203,0.11719 -0.1289,0 -0.23437,-0.0469 -0.3125,-0.13672 -0.0898,-0.0898 -0.13672,-0.21485 -0.13672,-0.3711 z m 0,0"
       style="fill:#000000;fill-opacity:1;fill-rule:nonzero;stroke:none" />
    <path
       id="path46"
       d="m 131.23828,22.9961 v 1.54296 c 0,0.54688 0.0234,0.98438 0.0781,1.3086 0.42968,-0.36328 0.73437,-0.63672 0.91797,-0.82031 0.20703,-0.20704 0.41406,-0.4961 0.625,-0.85938 0.20703,-0.36328 0.3125,-0.73047 0.3125,-1.09375 0,-0.36328 -0.0781,-0.67578 -0.23438,-0.9375 -0.15625,-0.26172 -0.36719,-0.39062 -0.625,-0.39062 -0.3125,0 -0.57422,0.11718 -0.78125,0.35156 -0.19531,0.26172 -0.29297,0.55859 -0.29297,0.89844 z m -0.82031,3.57421 -0.25391,-11.89453 c 0.17969,-0.10547 0.36328,-0.15625 0.54688,-0.15625 0.17969,0 0.36328,0.0508 0.54687,0.15625 l -0.15625,6.89453 c 0.53125,-0.45703 1.14453,-0.68359 1.83594,-0.68359 0.50781,0 0.92969,0.20703 1.26953,0.625 0.33594,0.41797 0.50781,0.89063 0.50781,1.42578 0,0.33985 -0.11328,0.69531 -0.33203,1.07422 -0.21093,0.35156 -0.42968,0.625 -0.66406,0.82031 -0.13281,0.10547 -0.46484,0.36328 -0.99609,0.78125 -0.15625,0.11719 -0.34375,0.25391 -0.5586,0.41016 -0.21484,0.15625 -0.34765,0.25391 -0.39843,0.29297 -0.0937,0.0508 -0.17579,0.15625 -0.25391,0.3125 -0.0937,0.1289 -0.19531,0.24219 -0.3125,0.33203 -0.0937,0.0781 -0.20313,0.11719 -0.33203,0.11719 -0.13281,0 -0.23438,-0.0469 -0.3125,-0.13672 -0.0937,-0.0898 -0.13672,-0.21485 -0.13672,-0.3711 z m 0,0"
       style="fill:#000000;fill-opacity:1;fill-rule:nonzero;stroke:none" />
    <path
       id="path48"
       d="m 185.82031,22.9961 v 1.54296 c 0,0.54688 0.0234,0.98438 0.0781,1.3086 0.42969,-0.36328 0.73437,-0.63672 0.91797,-0.82031 0.20703,-0.20704 0.41406,-0.4961 0.625,-0.85938 0.20703,-0.36328 0.3125,-0.73047 0.3125,-1.09375 0,-0.36328 -0.0781,-0.67578 -0.23438,-0.9375 -0.15625,-0.26172 -0.36719,-0.39062 -0.625,-0.39062 -0.3125,0 -0.57422,0.11718 -0.78125,0.35156 -0.19531,0.26172 -0.29297,0.55859 -0.29297,0.89844 z M 185,26.57031 184.74609,14.67578 c 0.17969,-0.10547 0.36329,-0.15625 0.54688,-0.15625 0.17969,0 0.36328,0.0508 0.54687,0.15625 l -0.15625,6.89453 c 0.53125,-0.45703 1.14454,-0.68359 1.83594,-0.68359 0.50781,0 0.92969,0.20703 1.26953,0.625 0.33985,0.41797 0.50782,0.89063 0.50782,1.42578 0,0.33985 -0.10938,0.69531 -0.33204,1.07422 -0.20703,0.35156 -0.42968,0.625 -0.66406,0.82031 -0.1289,0.10547 -0.46484,0.36328 -0.99609,0.78125 -0.15625,0.11719 -0.34375,0.25391 -0.5586,0.41016 -0.21484,0.15625 -0.34765,0.25391 -0.39843,0.29297 -0.0937,0.0508 -0.17578,0.15625 -0.25391,0.3125 -0.0937,0.1289 -0.19531,0.24219 -0.3125,0.33203 -0.0937,0.0781 -0.20312,0.11719 -0.33203,0.11719 -0.13281,0 -0.23438,-0.0469 -0.3125,-0.13672 C 185.04297,26.85156 185,26.72656 185,26.57031 Z m 0,0"
       style="fill:#000000;fill-opacity:1;fill-rule:nonzero;stroke:none" />
    <path
       id="path50"
       d="m 202.09766,25.4961 v 1.54296 c 0,0.54688 0.0273,0.98438 0.0781,1.3086 0.42969,-0.36328 0.73438,-0.63672 0.91797,-0.82031 0.20703,-0.20704 0.41797,-0.4961 0.625,-0.85938 0.20703,-0.36328 0.3125,-0.73047 0.3125,-1.09375 0,-0.36328 -0.0781,-0.67578 -0.23437,-0.9375 -0.15625,-0.26172 -0.36329,-0.39062 -0.625,-0.39062 -0.3125,0 -0.57422,0.11718 -0.78125,0.35156 -0.19532,0.26172 -0.29297,0.55859 -0.29297,0.89844 z m -0.82032,3.57421 -0.2539,-11.89453 c 0.17969,-0.10547 0.36328,-0.15625 0.54687,-0.15625 0.17969,0 0.36328,0.0508 0.54688,0.15625 l -0.15625,6.89453 c 0.53515,-0.45703 1.14453,-0.68359 1.83594,-0.68359 0.50781,0 0.92968,0.20703 1.26953,0.625 0.33984,0.41797 0.50781,0.89063 0.50781,1.42578 0,0.33985 -0.10938,0.69531 -0.33203,1.07422 -0.20703,0.35156 -0.42969,0.625 -0.66406,0.82031 -0.12891,0.10547 -0.46094,0.36328 -0.9961,0.78125 -0.15625,0.11719 -0.34375,0.25391 -0.55859,0.41016 -0.21485,0.15625 -0.34766,0.25391 -0.39844,0.29297 -0.0898,0.0508 -0.17578,0.15625 -0.25391,0.3125 -0.0898,0.1289 -0.19531,0.24219 -0.3125,0.33203 -0.0937,0.0781 -0.20312,0.11719 -0.33203,0.11719 -0.13281,0 -0.23437,-0.0469 -0.3125,-0.13672 -0.0937,-0.0898 -0.13672,-0.21485 -0.13672,-0.3711 z m 0,0"
       style="fill:#000000;fill-opacity:1;fill-rule:nonzero;stroke:none" />
    <path
       id="path52"
       d="m 250.92969,32.9961 v 1.54296 c 0,0.54688 0.0273,0.98438 0.0781,1.3086 0.42969,-0.36328 0.73438,-0.63672 0.91797,-0.82031 0.20703,-0.20704 0.41797,-0.4961 0.625,-0.85938 0.20703,-0.36328 0.3125,-0.73047 0.3125,-1.09375 0,-0.36328 -0.0781,-0.67578 -0.23437,-0.9375 -0.15625,-0.26172 -0.36328,-0.39062 -0.625,-0.39062 -0.3125,0 -0.57422,0.11718 -0.78125,0.35156 -0.19532,0.26172 -0.29297,0.55859 -0.29297,0.89844 z m -0.82031,3.57421 -0.25391,-11.89453 c 0.18359,-0.10547 0.36328,-0.15625 0.54687,-0.15625 0.1836,0 0.36329,0.0508 0.54688,0.15625 l -0.15625,6.89453 c 0.53516,-0.45703 1.14453,-0.68359 1.83594,-0.68359 0.50781,0 0.92968,0.20703 1.26953,0.625 0.33984,0.41797 0.50781,0.89063 0.50781,1.42578 0,0.33985 -0.10937,0.69531 -0.33203,1.07422 -0.20703,0.35156 -0.42969,0.625 -0.66406,0.82031 -0.12891,0.10547 -0.46094,0.36328 -0.9961,0.78125 -0.15625,0.11719 -0.34375,0.25391 -0.55859,0.41016 -0.21484,0.15625 -0.34766,0.25391 -0.39844,0.29297 -0.0898,0.0508 -0.17578,0.15625 -0.2539,0.3125 -0.0898,0.1289 -0.19532,0.24219 -0.3125,0.33203 -0.0898,0.0781 -0.20313,0.11719 -0.33204,0.11719 -0.1289,0 -0.23437,-0.0469 -0.3125,-0.13672 -0.0898,-0.0898 -0.13671,-0.21485 -0.13671,-0.3711 z m 0,0"
       style="fill:#000000;fill-opacity:1;fill-rule:nonzero;stroke:none" />
    <path
       id="path72"
       d="m 39.839844,38.81641 h 9.582031"
       style="fill:none;stroke:#000000;stroke-width:0.80005;stroke-linecap:square;stroke-linejoin:bevel;stroke-miterlimit:10;stroke-opacity:1" />
    <path
       id="path78"
       d="m 286.60156,38.81641 h 9.58203"
       style="fill:none;stroke:#000000;stroke-width:0.80005;stroke-linecap:square;stroke-linejoin:bevel;stroke-miterlimit:10;stroke-opacity:1" />
    <path
       id="path96"
       d="M 47.597656,37.87891 V 23.81641"
       style="fill:none;stroke:#000000;stroke-width:0.650041;stroke-linecap:round;stroke-linejoin:bevel;stroke-miterlimit:10;stroke-opacity:1" />
    <path
       id="path98"
       d="M 110.60547,27.87891 V 10.06641"
       style="fill:none;stroke:#000000;stroke-width:0.650041;stroke-linecap:round;stroke-linejoin:bevel;stroke-miterlimit:10;stroke-opacity:1" />
    <path
       id="path100"
       d="M 79.101563,32.87891 V 19.64844"
       style="fill:none;stroke:#000000;stroke-width:0.650041;stroke-linecap:round;stroke-linejoin:bevel;stroke-miterlimit:10;stroke-opacity:1" />
    <path
       id="path102"
       d="M 63.347656,35.37891 V 21.73438"
       style="fill:none;stroke:#000000;stroke-width:0.650041;stroke-linecap:round;stroke-linejoin:bevel;stroke-miterlimit:10;stroke-opacity:1" />
    <path
       id="path104"
       d="M 94.855469,30.37891 V 17.56641"
       style="fill:none;stroke:#000000;stroke-width:0.650041;stroke-linecap:round;stroke-linejoin:bevel;stroke-miterlimit:10;stroke-opacity:1" />
    <path
       id="path124"
       d="M 157.86328,20.375 V 5.0664101"
       style="fill:none;stroke:#000000;stroke-width:0.650041;stroke-linecap:round;stroke-linejoin:bevel;stroke-miterlimit:10;stroke-opacity:1" />
    <path
       id="path126"
       d="M 142.11328,22.87891 V 6.7304701"
       style="fill:none;stroke:#000000;stroke-width:0.650041;stroke-linecap:round;stroke-linejoin:bevel;stroke-miterlimit:10;stroke-opacity:1" />
    <path
       id="path128"
       d="M 126.35938,25.37891 V 8.3984401"
       style="fill:none;stroke:#000000;stroke-width:0.650041;stroke-linecap:round;stroke-linejoin:bevel;stroke-miterlimit:10;stroke-opacity:1" />
    <path
       id="path130"
       d="M 196.69531,22.87891 V 6.7304701"
       style="fill:none;stroke:#000000;stroke-width:0.650041;stroke-linecap:round;stroke-linejoin:bevel;stroke-miterlimit:10;stroke-opacity:1" />
    <path
       id="path132"
       d="M 180.41797,20.375 V 5.0664101"
       style="fill:none;stroke:#000000;stroke-width:0.650041;stroke-linecap:round;stroke-linejoin:bevel;stroke-miterlimit:10;stroke-opacity:1" />
    <path
       id="path134"
       d="M 229.25,27.87891 V 10.06641"
       style="fill:none;stroke:#000000;stroke-width:0.650041;stroke-linecap:round;stroke-linejoin:bevel;stroke-miterlimit:10;stroke-opacity:1" />
    <path
       id="path136"
       d="M 212.97266,25.37891 V 8.3984401"
       style="fill:none;stroke:#000000;stroke-width:0.650041;stroke-linecap:round;stroke-linejoin:bevel;stroke-miterlimit:10;stroke-opacity:1" />
    <path
       id="path138"
       d="M 261.80469,32.87891 V 19.64844"
       style="fill:none;stroke:#000000;stroke-width:0.650041;stroke-linecap:round;stroke-linejoin:bevel;stroke-miterlimit:10;stroke-opacity:1" />
    <path
       id="path140"
       d="M 245.52734,30.37891 V 17.56641"
       style="fill:none;stroke:#000000;stroke-width:0.650041;stroke-linecap:round;stroke-linejoin:bevel;stroke-miterlimit:10;stroke-opacity:1" />
    <path
       id="path174"
       d="M 294.35938,37.87891 V 23.81641"
       style="fill:none;stroke:#000000;stroke-width:0.650041;stroke-linecap:round;stroke-linejoin:bevel;stroke-miterlimit:10;stroke-opacity:1" />
    <path
       id="path176"
       d="M 278.08203,35.37891 V 21.73438"
       style="fill:none;stroke:#000000;stroke-width:0.650041;stroke-linecap:round;stroke-linejoin:bevel;stroke-miterlimit:10;stroke-opacity:1" />
    <path
       id="path226"
       d="m 45.734375,36.0625 c 0.625,0 1.152344,0.16406 1.582031,0.48828 0.402344,0.35157 0.605469,0.79688 0.605469,1.32813 0,0.89844 -0.464843,1.73828 -1.386719,2.51953 -0.9375,0.78125 -1.941406,1.17187 -3.007812,1.17187 -0.625,0 -1.152344,-0.16015 -1.582031,-0.48828 -0.40625,-0.35156 -0.605469,-0.79297 -0.605469,-1.32812 0,-0.89844 0.46875,-1.73828 1.40625,-2.51953 0.910156,-0.78125 1.90625,-1.17188 2.988281,-1.17188 z m 0,0"
       style="fill:#000000;fill-opacity:1;fill-rule:nonzero;stroke:none" />
    <path
       id="path228"
       d="m 77.238282,31.0625 c 0.625,0 1.152343,0.16406 1.582031,0.48828 0.402343,0.35157 0.605469,0.79297 0.605469,1.32813 0,0.89844 -0.460938,1.73828 -1.386719,2.51953 -0.9375,0.78125 -1.941407,1.17187 -3.007813,1.17187 -0.625,0 -1.152344,-0.16406 -1.582031,-0.48828 -0.402344,-0.35156 -0.605469,-0.79297 -0.605469,-1.32812 0,-0.89844 0.46875,-1.73828 1.40625,-2.51953 0.910156,-0.78125 1.90625,-1.17188 2.988282,-1.17188 z m 0,0"
       style="fill:#000000;fill-opacity:1;fill-rule:nonzero;stroke:none" />
    <path
       id="path230"
       d="m 61.484375,33.5625 c 0.625,0 1.152344,0.16406 1.582031,0.48828 0.40625,0.35157 0.605469,0.79297 0.605469,1.32813 0,0.89844 -0.460937,1.73828 -1.386719,2.51953 -0.9375,0.78125 -1.9375,1.17187 -3.007812,1.17187 -0.625,0 -1.152344,-0.16015 -1.582031,-0.48828 -0.402344,-0.35156 -0.605469,-0.79297 -0.605469,-1.32812 0,-0.89844 0.46875,-1.73828 1.40625,-2.51953 0.914062,-0.78125 1.910156,-1.17188 2.988281,-1.17188 z m 0,0"
       style="fill:#000000;fill-opacity:1;fill-rule:nonzero;stroke:none" />
    <path
       id="path232"
       d="m 124.49609,23.5625 c 0.625,0 1.15235,0.16406 1.58204,0.48828 0.40234,0.35157 0.60546,0.79297 0.60546,1.32813 0,0.89844 -0.46093,1.73828 -1.38671,2.51953 -0.9375,0.78125 -1.94141,1.17187 -3.00782,1.17187 -0.625,0 -1.15234,-0.16406 -1.58203,-0.48828 -0.40234,-0.35156 -0.60547,-0.79297 -0.60547,-1.32812 0,-0.89844 0.46875,-1.73828 1.40625,-2.51953 0.91016,-0.78125 1.90625,-1.17188 2.98828,-1.17188 z m 0,0"
       style="fill:#000000;fill-opacity:1;fill-rule:nonzero;stroke:none" />
    <path
       id="path234"
       d="m 108.74219,26.0625 c 0.625,0 1.15234,0.16406 1.58203,0.48828 0.40625,0.35157 0.60547,0.79297 0.60547,1.32813 0,0.89844 -0.46094,1.73828 -1.38672,2.51953 -0.9375,0.78125 -1.9375,1.17187 -3.00781,1.17187 -0.625,0 -1.15235,-0.16406 -1.58203,-0.48828 -0.40235,-0.35156 -0.60547,-0.79297 -0.60547,-1.32812 0,-0.89844 0.46875,-1.73828 1.40625,-2.51953 0.91406,-0.78125 1.91015,-1.17188 2.98828,-1.17188 z m 0,0"
       style="fill:#000000;fill-opacity:1;fill-rule:nonzero;stroke:none" />
    <path
       id="path236"
       d="m 92.992188,28.5625 c 0.625,0 1.152344,0.16406 1.582031,0.48828 0.402344,0.35157 0.605469,0.79297 0.605469,1.32813 0,0.89844 -0.464844,1.73828 -1.386719,2.51953 -0.9375,0.78125 -1.941406,1.17187 -3.007813,1.17187 -0.625,0 -1.152343,-0.16406 -1.582031,-0.48828 -0.40625,-0.35156 -0.605469,-0.79297 -0.605469,-1.32812 0,-0.89844 0.46875,-1.73828 1.40625,-2.51953 0.910157,-0.78125 1.90625,-1.17188 2.988282,-1.17188 z m 0,0"
       style="fill:#000000;fill-opacity:1;fill-rule:nonzero;stroke:none" />
    <path
       id="path256"
       d="m 156,18.5625 c 0.625,0 1.15234,0.16406 1.58203,0.48828 0.40625,0.35157 0.60547,0.79297 0.60547,1.32813 0,0.89844 -0.46094,1.73828 -1.38672,2.51953 -0.9375,0.78125 -1.9414,1.17187 -3.00781,1.17187 -0.625,0 -1.15234,-0.16406 -1.58203,-0.48828 -0.40235,-0.35156 -0.60547,-0.79297 -0.60547,-1.32812 0,-0.89844 0.46875,-1.73828 1.40625,-2.51953 0.91016,-0.78125 1.90625,-1.17188 2.98828,-1.17188 z m 0,0"
       style="fill:#000000;fill-opacity:1;fill-rule:nonzero;stroke:none" />
    <path
       id="path258"
       d="m 140.25,21.0625 c 0.625,0 1.15234,0.16406 1.58203,0.48828 0.40235,0.35157 0.60547,0.79297 0.60547,1.32813 0,0.89844 -0.46484,1.73828 -1.38672,2.51953 -0.9375,0.78125 -1.9414,1.17187 -3.00781,1.17187 -0.62891,0 -1.15625,-0.16406 -1.58594,-0.48828 -0.40234,-0.35156 -0.60547,-0.79297 -0.60547,-1.32812 0,-0.89844 0.46875,-1.73828 1.40625,-2.51953 0.91407,-0.78125 1.91016,-1.17188 2.99219,-1.17188 z m 0,0"
       style="fill:#000000;fill-opacity:1;fill-rule:nonzero;stroke:none" />
    <path
       id="path260"
       d="m 194.83203,21.0625 c 0.625,0 1.15235,0.16406 1.58203,0.48828 0.40235,0.35157 0.60547,0.79297 0.60547,1.32813 0,0.89844 -0.46484,1.73828 -1.38672,2.51953 -0.9375,0.78125 -1.9414,1.17187 -3.00781,1.17187 -0.625,0 -1.15234,-0.16406 -1.58203,-0.48828 -0.40625,-0.35156 -0.60547,-0.79297 -0.60547,-1.32812 0,-0.89844 0.46875,-1.73828 1.40625,-2.51953 0.91016,-0.78125 1.90625,-1.17188 2.98828,-1.17188 z m 0,0"
       style="fill:#000000;fill-opacity:1;fill-rule:nonzero;stroke:none" />
    <path
       id="path262"
       d="m 178.55469,18.5625 c 0.625,0 1.15234,0.16406 1.58203,0.48828 0.40234,0.35157 0.60547,0.79297 0.60547,1.32813 0,0.89844 -0.46485,1.73828 -1.38672,2.51953 -0.9375,0.78125 -1.94141,1.17187 -3.00781,1.17187 -0.625,0 -1.15235,-0.16406 -1.58203,-0.48828 -0.40625,-0.35156 -0.60547,-0.79297 -0.60547,-1.32812 0,-0.89844 0.46875,-1.73828 1.40625,-2.51953 0.91015,-0.78125 1.90625,-1.17188 2.98828,-1.17188 z m 0,0"
       style="fill:#000000;fill-opacity:1;fill-rule:nonzero;stroke:none" />
    <path
       id="path264"
       d="m 227.38672,26.0625 c 0.625,0 1.15234,0.16406 1.58203,0.48828 0.40234,0.35157 0.60547,0.79297 0.60547,1.32813 0,0.89844 -0.46094,1.73828 -1.38672,2.51953 -0.9375,0.78125 -1.94141,1.17187 -3.00781,1.17187 -0.625,0 -1.15235,-0.16406 -1.58203,-0.48828 -0.40625,-0.35156 -0.60547,-0.79297 -0.60547,-1.32812 0,-0.89844 0.46875,-1.73828 1.40625,-2.51953 0.91015,-0.78125 1.90625,-1.17188 2.98828,-1.17188 z m 0,0"
       style="fill:#000000;fill-opacity:1;fill-rule:nonzero;stroke:none" />
    <path
       id="path266"
       d="m 211.10938,23.5625 c 0.625,0 1.15234,0.16406 1.58203,0.48828 0.40234,0.35157 0.60547,0.79297 0.60547,1.32813 0,0.89844 -0.46485,1.73828 -1.38672,2.51953 -0.9375,0.78125 -1.94141,1.17187 -3.00782,1.17187 -0.625,0 -1.15234,-0.16406 -1.58203,-0.48828 -0.40625,-0.35156 -0.60547,-0.79297 -0.60547,-1.32812 0,-0.89844 0.46875,-1.73828 1.40625,-2.51953 0.91016,-0.78125 1.90625,-1.17188 2.98829,-1.17188 z m 0,0"
       style="fill:#000000;fill-opacity:1;fill-rule:nonzero;stroke:none" />
    <path
       id="path268"
       d="m 276.21875,33.5625 c 0.625,0 1.15234,0.16406 1.58203,0.48828 0.40235,0.35157 0.60547,0.79297 0.60547,1.32813 0,0.89844 -0.46094,1.73828 -1.38672,2.51953 -0.9375,0.78125 -1.9414,1.17187 -3.00781,1.17187 -0.625,0 -1.15234,-0.16015 -1.58203,-0.48828 -0.40235,-0.35156 -0.60547,-0.79297 -0.60547,-1.32812 0,-0.89844 0.46875,-1.73828 1.40625,-2.51953 0.91016,-0.78125 1.90625,-1.17188 2.98828,-1.17188 z m 0,0"
       style="fill:#000000;fill-opacity:1;fill-rule:nonzero;stroke:none" />
    <path
       id="path270"
       d="m 259.94141,31.0625 c 0.625,0 1.15234,0.16406 1.58203,0.48828 0.40234,0.35157 0.60547,0.79297 0.60547,1.32813 0,0.89844 -0.46094,1.73828 -1.38672,2.51953 -0.9375,0.78125 -1.94141,1.17187 -3.00781,1.17187 -0.625,0 -1.15235,-0.16406 -1.58204,-0.48828 -0.40625,-0.35156 -0.60546,-0.79297 -0.60546,-1.32812 0,-0.89844 0.46875,-1.73828 1.40625,-2.51953 0.91015,-0.78125 1.90625,-1.17188 2.98828,-1.17188 z m 0,0"
       style="fill:#000000;fill-opacity:1;fill-rule:nonzero;stroke:none" />
    <path
       id="path272"
       d="m 243.66406,28.5625 c 0.625,0 1.15235,0.16406 1.58203,0.48828 0.40235,0.35157 0.60547,0.79297 0.60547,1.32813 0,0.89844 -0.46093,1.73828 -1.38672,2.51953 -0.9375,0.78125 -1.9414,1.17187 -3.00781,1.17187 -0.625,0 -1.15234,-0.16406 -1.58203,-0.48828 -0.40625,-0.35156 -0.60547,-0.79297 -0.60547,-1.32812 0,-0.89844 0.46875,-1.73828 1.40625,-2.51953 0.91016,-0.78125 1.90625,-1.17188 2.98828,-1.17188 z m 0,0"
       style="fill:#000000;fill-opacity:1;fill-rule:nonzero;stroke:none" />
    <path
       id="path306"
       d="m 292.49609,36.0625 c 0.625,0 1.15235,0.16406 1.58204,0.48828 0.40234,0.35157 0.60546,0.79688 0.60546,1.32813 0,0.89844 -0.46093,1.73828 -1.38671,2.51953 -0.9375,0.78125 -1.94141,1.17187 -3.00782,1.17187 -0.625,0 -1.15234,-0.16015 -1.58203,-0.48828 -0.40234,-0.35156 -0.60547,-0.79297 -0.60547,-1.32812 0,-0.89844 0.46875,-1.73828 1.40625,-2.51953 0.91016,-0.78125 1.90625,-1.17188 2.98828,-1.17188 z m 0,0"
       style="fill:#000000;fill-opacity:1;fill-rule:nonzero;stroke:none" />
    <path
       id="path344"
       d="m 14.292969,23.69922 c 0,0 0.03906,0 0.117187,0 0.05078,-0.0117 0.09766,-0.0195 0.136719,-0.0195 1.457031,0 2.65625,0.51562 3.59375,1.54297 0.9375,1.01562 1.40625,2.19922 1.40625,3.55469 0,1.67968 -0.695312,3.04687 -2.089843,4.10156 -0.363282,0.28515 -0.839844,0.51953 -1.425782,0.70312 0.06641,0.84766 0.09766,1.53125 0.09766,2.05078 0,0.10547 -0.01172,0.48047 -0.03906,1.13282 -0.05078,1.21093 -0.46875,2.26172 -1.25,3.14453 -0.753906,0.875 -1.691406,1.30859 -2.8125,1.30859 -1.054688,0 -1.953125,-0.37109 -2.6953119,-1.11328 -0.742188,-0.75391 -1.113282,-1.66406 -1.113282,-2.73437 0,-0.5586 0.214844,-1.03516 0.644532,-1.42579 0.441406,-0.39062 0.957031,-0.58593 1.5429679,-0.58593 0.519532,0 0.957032,0.20312 1.308594,0.60547 0.363281,0.3789 0.546875,0.84765 0.546875,1.40625 0,0.50781 -0.183594,0.94531 -0.546875,1.30859 -0.363281,0.36719 -0.800781,0.54687 -1.308594,0.54687 -0.207031,0 -0.4101559,-0.0391 -0.6054679,-0.11718 0.5742179,0.84765 1.3359369,1.26953 2.2851559,1.26953 0.898437,0 1.632812,-0.36328 2.207031,-1.09375 0.597656,-0.75391 0.925781,-1.63281 0.976563,-2.63672 0.02734,-0.625 0.03906,-0.98438 0.03906,-1.07422 0,-0.73047 -0.02734,-1.32812 -0.07813,-1.79687 -0.652344,0.10546 -1.230469,0.15625 -1.738281,0.15625 -1.808594,0 -3.351563,-0.71485 -4.6289059,-2.14844 -1.25,-1.44531 -1.875,-3.16406 -1.875,-5.15625 0,-0.41797 0.039062,-0.83985 0.117187,-1.26953 0.078125,-0.35157 0.175781,-0.73438 0.292969,-1.15235 0.066406,-0.23437 0.242187,-0.61328 0.527344,-1.13281 0.105468,-0.15625 0.222656,-0.35156 0.351562,-0.58594 0.128906,-0.23437 0.222656,-0.39062 0.273438,-0.46875 0.128906,-0.26172 0.382812,-0.61328 0.761718,-1.05468 0.105469,-0.11719 0.210938,-0.2461 0.320313,-0.39063 0.113281,-0.14453 0.207031,-0.26172 0.285156,-0.35156 0.078125,-0.0898 0.1367189,-0.16406 0.1757809,-0.21485 0.03906,-0.0508 0.332032,-0.39843 0.878906,-1.03515 0.128907,-0.12891 0.257813,-0.26953 0.382813,-0.42188 0.121094,-0.14843 0.222656,-0.26562 0.300781,-0.35156 0.07813,-0.082 0.136719,-0.14453 0.175782,-0.18359 -0.46875,-1.55078 -0.761719,-2.78907 -0.878907,-3.71094 -0.08984,-0.74219 -0.136719,-1.75781 -0.136719,-3.04688 0,-1.13281 0.261719,-2.1953099 0.78125,-3.1835899 0.507813,-1.03125 1.21875,-1.87109 2.128907,-2.51953 0.06641,-0.0391 0.128906,-0.0586 0.195312,-0.0586 0.08984,0 0.15625,0.0195 0.195313,0.0586 0.703125,0.84375 1.308594,1.94531 1.816406,3.30078 0.519531,1.3515599 0.78125,2.5820299 0.78125,3.6914099 0,1.25 -0.300781,2.42187 -0.898438,3.51562 -0.675781,1.16016 -1.550781,2.35547 -2.617187,3.59375 0.273437,0.85938 0.636719,2.20703 1.09375,4.04297 z m 1.660156,9.08203 c 0.675781,-0.24609 1.203125,-0.67187 1.582031,-1.26953 0.417969,-0.57422 0.625,-1.21875 0.625,-1.93359 0,-0.92578 -0.3125,-1.7461 -0.9375,-2.46094 -0.636718,-0.74219 -1.453124,-1.16016 -2.441406,-1.25 0.558594,2.74609 0.949219,5.05078 1.171875,6.91406 z M 8.3945321,28.26953 c 0,1.28907 0.519531,2.42188 1.5625,3.39844 1.0664059,0.94922 2.2656239,1.42578 3.5937499,1.42578 0.546874,0 1.082031,-0.0391 1.601562,-0.11719 -0.207031,-1.98046 -0.617188,-4.34765 -1.230469,-7.10937 -0.742187,0.0781 -1.335937,0.33984 -1.777343,0.78125 C 11.714844,27.10547 11.5,27.61719 11.5,28.19141 c 0,0.98828 0.527344,1.78906 1.582032,2.40234 0.08984,0.0898 0.136718,0.1875 0.136718,0.29297 0,0.10547 -0.04687,0.20313 -0.136718,0.29297 -0.07813,0.0898 -0.175782,0.13672 -0.292969,0.13672 -0.01172,0 -0.07031,-0.0117 -0.175781,-0.0391 -0.742188,-0.40235 -1.316407,-0.92579 -1.71875,-1.5625 -0.378907,-0.67579 -0.566407,-1.35938 -0.566407,-2.05079 0,-0.89843 0.28125,-1.71093 0.839844,-2.4414 0.585937,-0.73047 1.347656,-1.19922 2.285156,-1.40625 -0.363281,-1.45703 -0.664062,-2.59766 -0.898437,-3.41797 -0.207032,0.23437 -0.457032,0.51562 -0.75,0.84766 -0.292969,0.33203 -0.46875,0.53125 -0.519532,0.59765 -0.46875,0.61328 -0.828124,1.08594 -1.074218,1.42578 -0.4414059,0.61328 -0.7695319,1.14063 -0.9765629,1.58203 -0.222656,0.4961 -0.417969,1.03516 -0.585937,1.6211 -0.167969,0.55859 -0.253906,1.16015 -0.253906,1.79687 z M 14.917969,8.4062501 c -0.976563,0.48047 -1.746094,1.17188 -2.304687,2.0703099 -0.574219,0.92188 -0.859376,1.91797 -0.859376,2.98829 0,0.9375 0.234376,2.19921 0.703126,3.78906 0.9375,-1.13281 1.640624,-2.1836 2.109374,-3.14453 0.496094,-1.01563 0.742188,-2.07813 0.742188,-3.1836 0,-0.83593 -0.128906,-1.6757799 -0.390625,-2.5195299 z m 0,0"
       style="fill:#000000;fill-opacity:1;fill-rule:nonzero;stroke:none" />
    <path
       id="path354"
       d="m 29.078125,14.07031 c 0.394531,0 0.726563,-0.0469 1,-0.13671 0.273438,-0.0937 0.449219,-0.13672 0.527344,-0.13672 0.08984,0 0.160156,0.0234 0.214844,0.0781 0.03906,0.0391 0.0625,0.082 0.07813,0.13672 0,0.0234 -0.01563,0.0625 -0.03906,0.11719 l -5.6875,6.60156 h 3.339844 v -2.61719 c 0,-0.16797 0.04687,-0.3125 0.136719,-0.42968 0.15625,-0.12891 0.289062,-0.20704 0.390625,-0.23438 0.171875,-0.0781 0.378906,-0.26172 0.628906,-0.54687 0.207031,-0.23438 0.453125,-0.64454 0.742187,-1.23047 0.03906,-0.0781 0.09766,-0.11719 0.175782,-0.11719 0.15625,0 0.246094,0.0898 0.273437,0.27344 v 4.90234 h 1.425781 c 0.179688,0 0.285157,0.0977 0.3125,0.29297 0,0.19531 -0.105468,0.29297 -0.3125,0.29297 h -1.425781 v 0.15625 c 0,0.51953 0.128907,0.96484 0.390625,1.32812 0.296875,0.36328 0.648438,0.54688 1.054688,0.54688 0.15625,0 0.234375,0.0781 0.234375,0.23437 0,0.15625 -0.07813,0.23438 -0.234375,0.23438 -0.273438,0 -0.71875,-0.0391 -1.328125,-0.11719 -0.5625,-0.0898 -0.996094,-0.13672 -1.308594,-0.13672 -0.328125,0 -0.765625,0.0469 -1.3125,0.13672 -0.585937,0.0781 -1.019531,0.11719 -1.308594,0.11719 -0.15625,0 -0.234375,-0.0781 -0.234375,-0.23438 0,-0.15625 0.07813,-0.23437 0.234375,-0.23437 0.40625,0 0.757813,-0.1836 1.054688,-0.54688 0.273437,-0.36328 0.410156,-0.80859 0.410156,-1.32812 v -0.15625 h -3.339844 c -0.21875,0 -0.375,-0.0508 -0.46875,-0.15625 -0.101562,-0.0781 -0.15625,-0.1836 -0.15625,-0.3125 0,-0.0391 0.09766,-0.17578 0.292969,-0.41016 0.222656,-0.26172 0.457031,-0.57812 0.703125,-0.95703 0.289063,-0.44141 0.5625,-0.89844 0.820313,-1.36719 0.289062,-0.53515 0.515624,-1.14453 0.683593,-1.83593 0.195313,-0.70313 0.292969,-1.42188 0.292969,-2.14844 0,-0.21094 0.09375,-0.3125 0.273438,-0.3125 0.03906,0 0.125,0.0195 0.253906,0.0586 0.03906,0.0117 0.121094,0.0312 0.246094,0.0586 0.125,0.0234 0.222656,0.0508 0.300781,0.0781 0.234375,0.0391 0.457031,0.0586 0.664062,0.0586 z m 0,0"
       style="fill:#000000;fill-opacity:1;fill-rule:nonzero;stroke:none" />
    <path
       id="path356"
       d="m 29.078125,24.07031 c 0.394531,0 0.726563,-0.0469 1,-0.13671 0.273438,-0.0898 0.449219,-0.13672 0.527344,-0.13672 0.08984,0 0.160156,0.0273 0.214844,0.0781 0.03906,0.0391 0.0625,0.0859 0.07813,0.13672 0,0.0273 -0.01563,0.0664 -0.03906,0.11719 l -5.6875,6.60156 h 3.339844 v -2.61719 c 0,-0.16797 0.04687,-0.3125 0.136719,-0.42968 0.15625,-0.12891 0.289062,-0.20704 0.390625,-0.23438 0.171875,-0.0781 0.378906,-0.26172 0.628906,-0.54687 0.207031,-0.23438 0.453125,-0.64454 0.742187,-1.23047 0.03906,-0.0781 0.09766,-0.11719 0.175782,-0.11719 0.15625,0 0.246094,0.0898 0.273437,0.27344 v 4.90234 h 1.425781 c 0.179688,0 0.285157,0.0977 0.3125,0.29297 0,0.19531 -0.105468,0.29297 -0.3125,0.29297 h -1.425781 v 0.15625 c 0,0.51953 0.128907,0.96484 0.390625,1.32812 0.296875,0.36328 0.648438,0.54688 1.054688,0.54688 0.15625,0 0.234375,0.0781 0.234375,0.23437 0,0.15625 -0.07813,0.23438 -0.234375,0.23438 -0.273438,0 -0.71875,-0.0391 -1.328125,-0.11719 -0.5625,-0.0898 -0.996094,-0.13672 -1.308594,-0.13672 -0.328125,0 -0.765625,0.0469 -1.3125,0.13672 -0.585937,0.0781 -1.019531,0.11719 -1.308594,0.11719 -0.15625,0 -0.234375,-0.0781 -0.234375,-0.23438 0,-0.15625 0.07813,-0.23437 0.234375,-0.23437 0.40625,0 0.757813,-0.1836 1.054688,-0.54688 0.273437,-0.36328 0.410156,-0.80859 0.410156,-1.32812 v -0.15625 h -3.339844 c -0.21875,0 -0.375,-0.0508 -0.46875,-0.15625 -0.101562,-0.0781 -0.15625,-0.1836 -0.15625,-0.3125 0,-0.0391 0.09766,-0.17578 0.292969,-0.41016 0.222656,-0.26172 0.457031,-0.57812 0.703125,-0.95703 0.289063,-0.44141 0.5625,-0.89844 0.820313,-1.36719 0.289062,-0.53515 0.515624,-1.14453 0.683593,-1.83593 0.195313,-0.70313 0.292969,-1.41797 0.292969,-2.14844 0,-0.20703 0.09375,-0.3125 0.273438,-0.3125 0.03906,0 0.125,0.0195 0.253906,0.0586 0.03906,0.0117 0.121094,0.0312 0.246094,0.0586 0.125,0.0273 0.222656,0.0508 0.300781,0.0781 0.234375,0.0391 0.457031,0.0586 0.664062,0.0586 z m 0,0"
       style="fill:#000000;fill-opacity:1;fill-rule:nonzero;stroke:none" />
    <path
       id="path370"
       d="m 47.273438,22.65235 47.90625,-6.33594 v 2.5 l -47.90625,6.33594 z m 0,0"
       style="fill:#000000;fill-opacity:1;fill-rule:evenodd;stroke:none" />
    <path
       id="path372"
       d="m 110.28125,8.8828101 47.90625,-5.0664 v 2.5 L 110.28125,11.38281 Z m 0,0"
       style="fill:#000000;fill-opacity:1;fill-rule:evenodd;stroke:none" />
    <path
       id="path378"
       d="m 180.09375,3.7500001 49.48047,5.06641 V 11.31641 L 180.09375,6.2500001 Z m 0,0"
       style="fill:#000000;fill-opacity:1;fill-rule:evenodd;stroke:none" />
    <path
       id="path380"
       d="m 245.20313,16.23438 49.48046,6.33203 v 2.5 l -49.48046,-6.33203 z m 0,0"
       style="fill:#000000;fill-opacity:1;fill-rule:evenodd;stroke:none" />
  </g>
</svg>
