<?xml version="1.0" encoding="UTF-8" standalone="no"?>
<svg
   xmlns:dc="http://purl.org/dc/elements/1.1/"
   xmlns:cc="http://creativecommons.org/ns#"
   xmlns:rdf="http://www.w3.org/1999/02/22-rdf-syntax-ns#"
   xmlns:svg="http://www.w3.org/2000/svg"
   xmlns="http://www.w3.org/2000/svg"
   xmlns:sodipodi="http://sodipodi.sourceforge.net/DTD/sodipodi-0.dtd"
   xmlns:inkscape="http://www.inkscape.org/namespaces/inkscape"
   inkscape:version="1.0 (4035a4f, 2020-05-01)"
   sodipodi:docname="scales_min_maj_1.svg"
   id="svg399"
   version="1.2"
   viewBox="0 0 310 50"
   height="50pt"
   width="310pt">
  <metadata
     id="metadata405">
    <rdf:RDF>
      <cc:Work
         rdf:about="">
        <dc:format>image/svg+xml</dc:format>
        <dc:type
           rdf:resource="http://purl.org/dc/dcmitype/StillImage" />
        <dc:title></dc:title>
      </cc:Work>
    </rdf:RDF>
  </metadata>
  <defs
     id="defs403" />
  <sodipodi:namedview
     inkscape:current-layer="surface3324"
     inkscape:window-maximized="1"
     inkscape:window-y="23"
     inkscape:window-x="0"
     inkscape:cy="561.33333"
     inkscape:cx="396.66667"
     inkscape:zoom="0.57630641"
     showgrid="false"
     id="namedview401"
     inkscape:window-height="855"
     inkscape:window-width="1440"
     inkscape:pageshadow="2"
     inkscape:pageopacity="0"
     guidetolerance="10"
     gridtolerance="10"
     objecttolerance="10"
     borderopacity="1"
     bordercolor="#666666"
     pagecolor="#ffffff" />
  <g
     id="surface3324">
    <path
       id="path10"
       d="M 3.7500001,13.816406 H 168.16016 m -164.4101599,5 H 168.16016 m -164.4101599,5 H 168.16016 m -164.4101599,5 H 168.16016 M 3.7500001,33.820312 H 168.16016"
       style="fill:none;stroke:#000000;stroke-width:0.400025;stroke-linecap:butt;stroke-linejoin:bevel;stroke-miterlimit:10;stroke-opacity:1" />
    <path
       id="path14"
       d="m 168.16016,13.816406 h 136.61718 m -136.61718,5 h 136.61718 m -136.61718,5 h 136.61718 m -136.61718,5 h 136.61718 m -136.61718,5.003906 h 136.61718"
       style="fill:none;stroke:#000000;stroke-width:0.384893;stroke-linecap:butt;stroke-linejoin:bevel;stroke-miterlimit:10;stroke-opacity:1" />
    <path
       id="path26"
       d="M 167.75781,13.816406 V 33.820312"
       style="fill:none;stroke:#000000;stroke-width:0.80005;stroke-linecap:butt;stroke-linejoin:bevel;stroke-miterlimit:10;stroke-opacity:1" />
    <path
       id="path32"
       d="M 304.77734,13.816406 V 33.820312"
       style="fill:none;stroke:#000000;stroke-width:0.80005;stroke-linecap:butt;stroke-linejoin:bevel;stroke-miterlimit:10;stroke-opacity:1" />
    <path
       id="path70"
       d="m 39.839844,38.820312 h 9.582031"
       style="fill:none;stroke:#000000;stroke-width:0.80005;stroke-linecap:square;stroke-linejoin:bevel;stroke-miterlimit:10;stroke-opacity:1" />
    <path
       id="path76"
       d="m 286.60156,38.820312 h 9.58203"
       style="fill:none;stroke:#000000;stroke-width:0.80005;stroke-linecap:square;stroke-linejoin:bevel;stroke-miterlimit:10;stroke-opacity:1" />
    <path
       id="path86"
       d="m 47.597656,37.878906 v -14.0625"
       style="fill:none;stroke:#000000;stroke-width:0.650041;stroke-linecap:round;stroke-linejoin:bevel;stroke-miterlimit:10;stroke-opacity:1" />
    <path
       id="path88"
       d="M 79.101563,32.878906 V 19.652344"
       style="fill:none;stroke:#000000;stroke-width:0.650041;stroke-linecap:round;stroke-linejoin:bevel;stroke-miterlimit:10;stroke-opacity:1" />
    <path
       id="path90"
       d="M 63.347656,35.378906 V 21.734375"
       style="fill:none;stroke:#000000;stroke-width:0.650041;stroke-linecap:round;stroke-linejoin:bevel;stroke-miterlimit:10;stroke-opacity:1" />
    <path
       id="path92"
       d="m 110.60547,27.878906 v -17.8125"
       style="fill:none;stroke:#000000;stroke-width:0.650041;stroke-linecap:round;stroke-linejoin:bevel;stroke-miterlimit:10;stroke-opacity:1" />
    <path
       id="path94"
       d="m 94.855469,30.378906 v -12.8125"
       style="fill:none;stroke:#000000;stroke-width:0.650041;stroke-linecap:round;stroke-linejoin:bevel;stroke-miterlimit:10;stroke-opacity:1" />
    <path
       id="path106"
       d="M 157.86328,20.378906 V 5.0664061"
       style="fill:none;stroke:#000000;stroke-width:0.650041;stroke-linecap:round;stroke-linejoin:bevel;stroke-miterlimit:10;stroke-opacity:1" />
    <path
       id="path108"
       d="M 142.11328,22.878906 V 6.7343751"
       style="fill:none;stroke:#000000;stroke-width:0.650041;stroke-linecap:round;stroke-linejoin:bevel;stroke-miterlimit:10;stroke-opacity:1" />
    <path
       id="path110"
       d="M 126.35938,25.378906 V 8.4023441"
       style="fill:none;stroke:#000000;stroke-width:0.650041;stroke-linecap:round;stroke-linejoin:bevel;stroke-miterlimit:10;stroke-opacity:1" />
    <path
       id="path112"
       d="M 196.69531,22.878906 V 6.7343751"
       style="fill:none;stroke:#000000;stroke-width:0.650041;stroke-linecap:round;stroke-linejoin:bevel;stroke-miterlimit:10;stroke-opacity:1" />
    <path
       id="path114"
       d="M 180.41797,20.378906 V 5.0664061"
       style="fill:none;stroke:#000000;stroke-width:0.650041;stroke-linecap:round;stroke-linejoin:bevel;stroke-miterlimit:10;stroke-opacity:1" />
    <path
       id="path116"
       d="m 229.25,27.878906 v -17.8125"
       style="fill:none;stroke:#000000;stroke-width:0.650041;stroke-linecap:round;stroke-linejoin:bevel;stroke-miterlimit:10;stroke-opacity:1" />
    <path
       id="path118"
       d="M 212.97266,25.378906 V 8.4023441"
       style="fill:none;stroke:#000000;stroke-width:0.650041;stroke-linecap:round;stroke-linejoin:bevel;stroke-miterlimit:10;stroke-opacity:1" />
    <path
       id="path120"
       d="M 261.80469,32.878906 V 19.652344"
       style="fill:none;stroke:#000000;stroke-width:0.650041;stroke-linecap:round;stroke-linejoin:bevel;stroke-miterlimit:10;stroke-opacity:1" />
    <path
       id="path122"
       d="m 245.52734,30.378906 v -12.8125"
       style="fill:none;stroke:#000000;stroke-width:0.650041;stroke-linecap:round;stroke-linejoin:bevel;stroke-miterlimit:10;stroke-opacity:1" />
    <path
       id="path170"
       d="m 294.35938,37.878906 v -14.0625"
       style="fill:none;stroke:#000000;stroke-width:0.650041;stroke-linecap:round;stroke-linejoin:bevel;stroke-miterlimit:10;stroke-opacity:1" />
    <path
       id="path172"
       d="M 278.08203,35.378906 V 21.734375"
       style="fill:none;stroke:#000000;stroke-width:0.650041;stroke-linecap:round;stroke-linejoin:bevel;stroke-miterlimit:10;stroke-opacity:1" />
    <path
       id="path214"
       d="m 45.734375,36.066406 c 0.625,0 1.152344,0.160156 1.582031,0.488282 0.402344,0.351562 0.605469,0.792968 0.605469,1.328124 0,0.898438 -0.464843,1.738282 -1.386719,2.519532 -0.9375,0.78125 -1.941406,1.171875 -3.007812,1.171875 -0.625,0 -1.152344,-0.164063 -1.582031,-0.488281 -0.40625,-0.351563 -0.605469,-0.796876 -0.605469,-1.328126 0,-0.898437 0.46875,-1.738281 1.40625,-2.519531 0.910156,-0.78125 1.90625,-1.171875 2.988281,-1.171875 z m 0,0"
       style="fill:#000000;fill-opacity:1;fill-rule:nonzero;stroke:none" />
    <path
       id="path216"
       d="m 77.238282,31.066406 c 0.625,0 1.152343,0.160156 1.582031,0.488282 0.402343,0.351562 0.605469,0.792968 0.605469,1.328124 0,0.898438 -0.460938,1.738282 -1.386719,2.519532 -0.9375,0.78125 -1.941407,1.171875 -3.007813,1.171875 -0.625,0 -1.152344,-0.164063 -1.582031,-0.488281 -0.402344,-0.351563 -0.605469,-0.796876 -0.605469,-1.328126 0,-0.898437 0.46875,-1.738281 1.40625,-2.519531 0.910156,-0.78125 1.90625,-1.171875 2.988282,-1.171875 z m 0,0"
       style="fill:#000000;fill-opacity:1;fill-rule:nonzero;stroke:none" />
    <path
       id="path218"
       d="m 61.484375,33.566406 c 0.625,0 1.152344,0.160156 1.582031,0.488282 0.40625,0.351562 0.605469,0.792968 0.605469,1.328124 0,0.898438 -0.460937,1.738282 -1.386719,2.519532 -0.9375,0.78125 -1.9375,1.171875 -3.007812,1.171875 -0.625,0 -1.152344,-0.164063 -1.582031,-0.488281 -0.402344,-0.351563 -0.605469,-0.796876 -0.605469,-1.328126 0,-0.898437 0.46875,-1.738281 1.40625,-2.519531 0.914062,-0.78125 1.910156,-1.171875 2.988281,-1.171875 z m 0,0"
       style="fill:#000000;fill-opacity:1;fill-rule:nonzero;stroke:none" />
    <path
       id="path220"
       d="m 124.49609,23.5625 c 0.625,0 1.15235,0.164062 1.58204,0.488281 0.40234,0.351563 0.60546,0.796875 0.60546,1.328125 0,0.898438 -0.46093,1.738282 -1.38671,2.519532 -0.9375,0.78125 -1.94141,1.175781 -3.00782,1.175781 -0.625,0 -1.15234,-0.164063 -1.58203,-0.492188 -0.40234,-0.351562 -0.60547,-0.792969 -0.60547,-1.328125 0,-0.898437 0.46875,-1.738281 1.40625,-2.519531 0.91016,-0.78125 1.90625,-1.171875 2.98828,-1.171875 z m 0,0"
       style="fill:#000000;fill-opacity:1;fill-rule:nonzero;stroke:none" />
    <path
       id="path222"
       d="m 108.74219,26.0625 c 0.625,0 1.15234,0.164062 1.58203,0.488281 0.40625,0.351563 0.60547,0.796875 0.60547,1.328125 0,0.898438 -0.46094,1.742188 -1.38672,2.523438 -0.9375,0.78125 -1.9375,1.171875 -3.00781,1.171875 -0.625,0 -1.15235,-0.164063 -1.58203,-0.488281 -0.40235,-0.351563 -0.60547,-0.796876 -0.60547,-1.328126 0,-0.902343 0.46875,-1.742187 1.40625,-2.523437 0.91406,-0.78125 1.91015,-1.171875 2.98828,-1.171875 z m 0,0"
       style="fill:#000000;fill-opacity:1;fill-rule:nonzero;stroke:none" />
    <path
       id="path224"
       d="m 92.992188,28.5625 c 0.625,0 1.152344,0.164062 1.582031,0.492188 0.402344,0.351562 0.605469,0.792968 0.605469,1.328124 0,0.898438 -0.464844,1.738282 -1.386719,2.519532 -0.9375,0.78125 -1.941406,1.171875 -3.007813,1.171875 -0.625,0 -1.152343,-0.164063 -1.582031,-0.488281 -0.40625,-0.351563 -0.605469,-0.796876 -0.605469,-1.328126 0,-0.898437 0.46875,-1.738281 1.40625,-2.519531 0.910157,-0.785156 1.90625,-1.175781 2.988282,-1.175781 z m 0,0"
       style="fill:#000000;fill-opacity:1;fill-rule:nonzero;stroke:none" />
    <path
       id="path238"
       d="m 156,18.5625 c 0.625,0 1.15234,0.164062 1.58203,0.488281 0.40625,0.351563 0.60547,0.796875 0.60547,1.328125 0,0.898438 -0.46094,1.738282 -1.38672,2.519532 -0.9375,0.78125 -1.9414,1.171874 -3.00781,1.171874 -0.625,0 -1.15234,-0.160156 -1.58203,-0.488281 -0.40235,-0.351562 -0.60547,-0.792969 -0.60547,-1.328125 0,-0.898437 0.46875,-1.738281 1.40625,-2.519531 C 153.92188,18.953125 154.91797,18.5625 156,18.5625 Z m 0,0"
       style="fill:#000000;fill-opacity:1;fill-rule:nonzero;stroke:none" />
    <path
       id="path240"
       d="m 140.25,21.0625 c 0.625,0 1.15234,0.164062 1.58203,0.488281 0.40235,0.351563 0.60547,0.796875 0.60547,1.328125 0,0.898438 -0.46484,1.738282 -1.38672,2.519532 -0.9375,0.78125 -1.9414,1.171874 -3.00781,1.171874 -0.62891,0 -1.15625,-0.160156 -1.58594,-0.488281 -0.40234,-0.351562 -0.60547,-0.792969 -0.60547,-1.328125 0,-0.898437 0.46875,-1.738281 1.40625,-2.519531 0.91407,-0.78125 1.91016,-1.171875 2.99219,-1.171875 z m 0,0"
       style="fill:#000000;fill-opacity:1;fill-rule:nonzero;stroke:none" />
    <path
       id="path242"
       d="m 194.83203,21.0625 c 0.625,0 1.15235,0.164062 1.58203,0.488281 0.40235,0.351563 0.60547,0.796875 0.60547,1.328125 0,0.898438 -0.46484,1.738282 -1.38672,2.519532 -0.9375,0.78125 -1.9414,1.171874 -3.00781,1.171874 -0.625,0 -1.15234,-0.160156 -1.58203,-0.488281 -0.40625,-0.351562 -0.60547,-0.792969 -0.60547,-1.328125 0,-0.898437 0.46875,-1.738281 1.40625,-2.519531 0.91016,-0.78125 1.90625,-1.171875 2.98828,-1.171875 z m 0,0"
       style="fill:#000000;fill-opacity:1;fill-rule:nonzero;stroke:none" />
    <path
       id="path244"
       d="m 178.55469,18.5625 c 0.625,0 1.15234,0.164062 1.58203,0.488281 0.40234,0.351563 0.60547,0.796875 0.60547,1.328125 0,0.898438 -0.46485,1.738282 -1.38672,2.519532 -0.9375,0.78125 -1.94141,1.171874 -3.00781,1.171874 -0.625,0 -1.15235,-0.160156 -1.58203,-0.488281 -0.40625,-0.351562 -0.60547,-0.792969 -0.60547,-1.328125 0,-0.898437 0.46875,-1.738281 1.40625,-2.519531 0.91015,-0.78125 1.90625,-1.171875 2.98828,-1.171875 z m 0,0"
       style="fill:#000000;fill-opacity:1;fill-rule:nonzero;stroke:none" />
    <path
       id="path246"
       d="m 227.38672,26.0625 c 0.625,0 1.15234,0.164062 1.58203,0.488281 0.40234,0.351563 0.60547,0.796875 0.60547,1.328125 0,0.898438 -0.46094,1.742188 -1.38672,2.523438 -0.9375,0.78125 -1.94141,1.171875 -3.00781,1.171875 -0.625,0 -1.15235,-0.164063 -1.58203,-0.488281 -0.40625,-0.351563 -0.60547,-0.796876 -0.60547,-1.328126 0,-0.902343 0.46875,-1.742187 1.40625,-2.523437 0.91015,-0.78125 1.90625,-1.171875 2.98828,-1.171875 z m 0,0"
       style="fill:#000000;fill-opacity:1;fill-rule:nonzero;stroke:none" />
    <path
       id="path248"
       d="m 211.10938,23.5625 c 0.625,0 1.15234,0.164062 1.58203,0.488281 0.40234,0.351563 0.60547,0.796875 0.60547,1.328125 0,0.898438 -0.46485,1.738282 -1.38672,2.519532 -0.9375,0.78125 -1.94141,1.175781 -3.00782,1.175781 -0.625,0 -1.15234,-0.164063 -1.58203,-0.492188 -0.40625,-0.351562 -0.60547,-0.792969 -0.60547,-1.328125 0,-0.898437 0.46875,-1.738281 1.40625,-2.519531 0.91016,-0.78125 1.90625,-1.171875 2.98829,-1.171875 z m 0,0"
       style="fill:#000000;fill-opacity:1;fill-rule:nonzero;stroke:none" />
    <path
       id="path250"
       d="m 276.21875,33.566406 c 0.625,0 1.15234,0.160156 1.58203,0.488282 0.40235,0.351562 0.60547,0.792968 0.60547,1.328124 0,0.898438 -0.46094,1.738282 -1.38672,2.519532 -0.9375,0.78125 -1.9414,1.171875 -3.00781,1.171875 -0.625,0 -1.15234,-0.164063 -1.58203,-0.488281 -0.40235,-0.351563 -0.60547,-0.796876 -0.60547,-1.328126 0,-0.898437 0.46875,-1.738281 1.40625,-2.519531 0.91016,-0.78125 1.90625,-1.171875 2.98828,-1.171875 z m 0,0"
       style="fill:#000000;fill-opacity:1;fill-rule:nonzero;stroke:none" />
    <path
       id="path252"
       d="m 259.94141,31.066406 c 0.625,0 1.15234,0.160156 1.58203,0.488282 0.40234,0.351562 0.60547,0.792968 0.60547,1.328124 0,0.898438 -0.46094,1.738282 -1.38672,2.519532 -0.9375,0.78125 -1.94141,1.171875 -3.00781,1.171875 -0.625,0 -1.15235,-0.164063 -1.58204,-0.488281 -0.40625,-0.351563 -0.60546,-0.796876 -0.60546,-1.328126 0,-0.898437 0.46875,-1.738281 1.40625,-2.519531 0.91015,-0.78125 1.90625,-1.171875 2.98828,-1.171875 z m 0,0"
       style="fill:#000000;fill-opacity:1;fill-rule:nonzero;stroke:none" />
    <path
       id="path254"
       d="m 243.66406,28.5625 c 0.625,0 1.15235,0.164062 1.58203,0.492188 0.40235,0.351562 0.60547,0.792968 0.60547,1.328124 0,0.898438 -0.46093,1.738282 -1.38672,2.519532 -0.9375,0.78125 -1.9414,1.171875 -3.00781,1.171875 -0.625,0 -1.15234,-0.164063 -1.58203,-0.488281 -0.40625,-0.351563 -0.60547,-0.796876 -0.60547,-1.328126 0,-0.898437 0.46875,-1.738281 1.40625,-2.519531 0.91016,-0.785156 1.90625,-1.175781 2.98828,-1.175781 z m 0,0"
       style="fill:#000000;fill-opacity:1;fill-rule:nonzero;stroke:none" />
    <path
       id="path304"
       d="m 292.49609,36.066406 c 0.625,0 1.15235,0.160156 1.58204,0.488282 0.40234,0.351562 0.60546,0.792968 0.60546,1.328124 0,0.898438 -0.46093,1.738282 -1.38671,2.519532 -0.9375,0.78125 -1.94141,1.171875 -3.00782,1.171875 -0.625,0 -1.15234,-0.164063 -1.58203,-0.488281 -0.40234,-0.351563 -0.60547,-0.796876 -0.60547,-1.328126 0,-0.898437 0.46875,-1.738281 1.40625,-2.519531 0.91016,-0.78125 1.90625,-1.171875 2.98828,-1.171875 z m 0,0"
       style="fill:#000000;fill-opacity:1;fill-rule:nonzero;stroke:none" />
    <path
       id="path342"
       d="m 14.292969,23.699219 c 0,0 0.03906,0 0.117187,0 0.05078,-0.01172 0.09766,-0.01953 0.136719,-0.01953 1.457031,0 2.65625,0.515624 3.59375,1.542968 0.9375,1.015625 1.40625,2.203125 1.40625,3.554688 0,1.683594 -0.695312,3.050781 -2.089843,4.105468 -0.363282,0.285157 -0.839844,0.519532 -1.425782,0.703126 0.06641,0.84375 0.09766,1.527343 0.09766,2.050781 0,0.101562 -0.01172,0.480469 -0.03906,1.132812 -0.05078,1.210938 -0.46875,2.257813 -1.25,3.144531 -0.753906,0.871094 -1.691406,1.308594 -2.8125,1.308594 -1.054688,0 -1.953125,-0.371094 -2.6953119,-1.113281 -0.742188,-0.757813 -1.113282,-1.667969 -1.113282,-2.734375 0,-0.5625 0.214844,-1.035156 0.644532,-1.425781 0.441406,-0.390625 0.957031,-0.585938 1.5429679,-0.585938 0.519532,0 0.957032,0.199219 1.308594,0.605469 0.363281,0.375 0.546875,0.84375 0.546875,1.40625 0,0.507812 -0.183594,0.941406 -0.546875,1.308594 -0.363281,0.363281 -0.800781,0.546875 -1.308594,0.546875 -0.207031,0 -0.4101559,-0.03906 -0.6054679,-0.117188 0.5742179,0.84375 1.3359369,1.269531 2.2851559,1.269531 0.898437,0 1.632812,-0.367187 2.207031,-1.09375 0.597656,-0.757812 0.925781,-1.636718 0.976563,-2.636718 0.02734,-0.625 0.03906,-0.984375 0.03906,-1.074219 0,-0.730469 -0.02734,-1.328125 -0.07813,-1.796875 -0.652344,0.101562 -1.230469,0.15625 -1.738281,0.15625 -1.808594,0 -3.351563,-0.71875 -4.6289059,-2.148438 -1.25,-1.445312 -1.875,-3.167968 -1.875,-5.160156 0,-0.414062 0.039062,-0.839844 0.117187,-1.269531 0.078125,-0.351563 0.175781,-0.734375 0.292969,-1.152344 0.066406,-0.234375 0.242187,-0.609375 0.527344,-1.132812 0.105468,-0.15625 0.222656,-0.351563 0.351562,-0.585938 0.128906,-0.234375 0.222656,-0.390625 0.273438,-0.46875 0.128906,-0.257812 0.382812,-0.609375 0.761718,-1.054687 0.105469,-0.117188 0.210938,-0.246094 0.320313,-0.390625 0.113281,-0.140625 0.207031,-0.257813 0.285156,-0.351563 0.078125,-0.08984 0.1367189,-0.160156 0.1757809,-0.214844 0.03906,-0.05078 0.332032,-0.394531 0.878906,-1.035156 0.128907,-0.128906 0.257813,-0.269531 0.382813,-0.417968 0.121094,-0.152344 0.222656,-0.269532 0.300781,-0.351563 0.07813,-0.08594 0.136719,-0.148437 0.175782,-0.1875 -0.468749,-1.546876 -0.761718,-2.785157 -0.878906,-3.710938 -0.08984,-0.742188 -0.136719,-1.757813 -0.136719,-3.046876 0,-1.132812 0.261719,-2.1914059 0.78125,-3.1835929 0.507813,-1.027344 1.21875,-1.867188 2.128907,-2.519531 0.06641,-0.03906 0.128906,-0.05859 0.195312,-0.05859 0.08984,0 0.15625,0.01953 0.195313,0.05859 0.703125,0.847656 1.308594,1.945312 1.816406,3.300781 0.519531,1.3554689 0.78125,2.5859369 0.78125,3.6914059 0,1.25 -0.300781,2.421875 -0.898438,3.515625 -0.675781,1.160156 -1.550781,2.359375 -2.617187,3.59375 0.273437,0.859375 0.636719,2.207031 1.09375,4.042969 z m 1.660156,9.085937 c 0.675781,-0.25 1.203125,-0.671875 1.582031,-1.269531 0.417969,-0.574219 0.625,-1.21875 0.625,-1.933594 0,-0.925781 -0.3125,-1.746093 -0.9375,-2.464843 -0.636718,-0.742188 -1.453124,-1.15625 -2.441406,-1.25 0.558594,2.75 0.949219,5.054687 1.171875,6.917968 z M 8.3945321,28.269531 c 0,1.292969 0.519531,2.425781 1.5625,3.402344 1.0664059,0.949219 2.2656239,1.425781 3.5937499,1.425781 0.546874,0 1.082031,-0.03906 1.601562,-0.117187 C 14.945313,31 14.535156,28.628906 13.921875,25.867188 c -0.742187,0.07812 -1.335937,0.339843 -1.777343,0.78125 C 11.714844,27.105469 11.5,27.621094 11.5,28.191406 c 0,0.992188 0.527344,1.792969 1.582032,2.40625 0.08984,0.08984 0.136718,0.1875 0.136718,0.292969 0,0.101563 -0.04687,0.199219 -0.136718,0.292969 -0.07813,0.08984 -0.175782,0.136718 -0.292969,0.136718 -0.01172,0 -0.07031,-0.01562 -0.175781,-0.03906 -0.742188,-0.40625 -1.316407,-0.925781 -1.71875,-1.5625 -0.378907,-0.679688 -0.566407,-1.363281 -0.566407,-2.054688 0,-0.898437 0.28125,-1.710937 0.839844,-2.441406 0.585937,-0.726562 1.347656,-1.195312 2.285156,-1.40625 -0.363281,-1.457031 -0.664062,-2.597656 -0.898437,-3.417968 -0.207032,0.234374 -0.457032,0.519531 -0.75,0.851562 -0.292969,0.332031 -0.46875,0.53125 -0.519532,0.59375 -0.46875,0.613281 -0.828124,1.089844 -1.074218,1.425781 -0.4414059,0.613281 -0.7695319,1.140625 -0.9765629,1.582031 -0.222656,0.496094 -0.417969,1.035157 -0.585937,1.621094 -0.167969,0.5625 -0.253906,1.160156 -0.253906,1.796875 z M 14.917969,8.4062501 c -0.976563,0.484375 -1.746094,1.171875 -2.304687,2.0703119 -0.574219,0.925782 -0.859376,1.921876 -0.859376,2.988282 0,0.9375 0.234376,2.203125 0.703126,3.789062 0.9375,-1.132812 1.640624,-2.179687 2.109374,-3.144531 0.496094,-1.015625 0.742188,-2.074219 0.742188,-3.183594 0,-0.832031 -0.128906,-1.6718749 -0.390625,-2.5195309 z m 0,0"
       style="fill:#000000;fill-opacity:1;fill-rule:nonzero;stroke:none" />
    <path
       id="path350"
       d="m 29.078125,14.070312 c 0.394531,0 0.726563,-0.04297 1,-0.136718 0.273438,-0.08984 0.449219,-0.136719 0.527344,-0.136719 0.08984,0 0.160156,0.02734 0.214844,0.07813 0.03906,0.03906 0.0625,0.08594 0.07813,0.136719 0,0.02734 -0.01563,0.06641 -0.03906,0.117187 l -5.6875,6.601563 h 3.339844 v -2.617188 c 0,-0.167969 0.04687,-0.3125 0.136719,-0.429687 0.15625,-0.128906 0.289062,-0.207032 0.390625,-0.234375 0.171875,-0.07813 0.378906,-0.257813 0.628906,-0.546875 0.207031,-0.234375 0.453125,-0.644532 0.742187,-1.230469 0.03906,-0.07813 0.09766,-0.117187 0.175782,-0.117187 0.15625,0 0.246094,0.09375 0.273437,0.273437 v 4.902344 h 1.425781 c 0.179688,0 0.285157,0.09766 0.3125,0.292969 0,0.195312 -0.105468,0.292968 -0.3125,0.292968 h -1.425781 v 0.15625 c 0,0.523438 0.128907,0.964844 0.390625,1.328125 0.296875,0.367188 0.648438,0.546875 1.054688,0.546875 0.15625,0 0.234375,0.07813 0.234375,0.234375 0,0.15625 -0.07813,0.234375 -0.234375,0.234375 -0.273438,0 -0.71875,-0.03906 -1.328125,-0.117187 -0.5625,-0.08984 -0.996094,-0.136719 -1.308594,-0.136719 -0.328125,0 -0.765625,0.04687 -1.3125,0.136719 -0.585937,0.07813 -1.019531,0.117187 -1.308594,0.117187 -0.15625,0 -0.234375,-0.07813 -0.234375,-0.234375 0,-0.15625 0.07813,-0.234375 0.234375,-0.234375 0.40625,0 0.757813,-0.179687 1.054688,-0.546875 0.273437,-0.363281 0.410156,-0.804687 0.410156,-1.328125 v -0.15625 h -3.339844 c -0.21875,0 -0.375,-0.05078 -0.46875,-0.15625 -0.101562,-0.07813 -0.15625,-0.179687 -0.15625,-0.3125 0,-0.03906 0.09766,-0.175781 0.292969,-0.410156 0.222656,-0.257812 0.457031,-0.578125 0.703125,-0.957031 0.289063,-0.441407 0.5625,-0.898438 0.820313,-1.367188 0.289062,-0.53125 0.515624,-1.144531 0.683593,-1.835937 0.195313,-0.703125 0.292969,-1.417969 0.292969,-2.148438 0,-0.207031 0.09375,-0.3125 0.273438,-0.3125 0.03906,0 0.125,0.01953 0.253906,0.05859 0.03906,0.01563 0.121094,0.03516 0.246094,0.05859 0.125,0.02734 0.222656,0.05469 0.300781,0.07813 0.234375,0.03906 0.457031,0.05859 0.664062,0.05859 z m 0,0"
       style="fill:#000000;fill-opacity:1;fill-rule:nonzero;stroke:none" />
    <path
       id="path352"
       d="m 29.078125,24.070312 c 0.394531,0 0.726563,-0.04297 1,-0.136718 0.273438,-0.08984 0.449219,-0.136719 0.527344,-0.136719 0.08984,0 0.160156,0.02734 0.214844,0.07813 0.03906,0.03906 0.0625,0.08594 0.07813,0.136719 0,0.02734 -0.01563,0.06641 -0.03906,0.117187 l -5.6875,6.605469 h 3.339844 v -2.621094 c 0,-0.167969 0.04687,-0.3125 0.136719,-0.429687 0.15625,-0.128906 0.289062,-0.207032 0.390625,-0.234375 0.171875,-0.07813 0.378906,-0.257813 0.628906,-0.546875 0.207031,-0.234375 0.453125,-0.644532 0.742187,-1.230469 0.03906,-0.07813 0.09766,-0.117187 0.175782,-0.117187 0.15625,0 0.246094,0.09375 0.273437,0.273437 v 4.90625 h 1.425781 c 0.179688,0 0.285157,0.09766 0.3125,0.292969 0,0.195312 -0.105468,0.292968 -0.3125,0.292968 h -1.425781 v 0.15625 c 0,0.519532 0.128907,0.960938 0.390625,1.328126 0.296875,0.363281 0.648438,0.546874 1.054688,0.546874 0.15625,0 0.234375,0.07813 0.234375,0.234376 0,0.15625 -0.07813,0.234374 -0.234375,0.234374 -0.273438,0 -0.71875,-0.03906 -1.328125,-0.117187 -0.5625,-0.09375 -0.996094,-0.136719 -1.308594,-0.136719 -0.328125,0 -0.765625,0.04297 -1.3125,0.136719 -0.585937,0.07813 -1.019531,0.117187 -1.308594,0.117187 -0.15625,0 -0.234375,-0.07812 -0.234375,-0.234374 0,-0.15625 0.07813,-0.234376 0.234375,-0.234376 0.40625,0 0.757813,-0.183593 1.054688,-0.546874 0.273437,-0.367188 0.410156,-0.808594 0.410156,-1.328126 v -0.15625 h -3.339844 c -0.21875,0 -0.375,-0.05469 -0.46875,-0.15625 -0.101562,-0.07812 -0.15625,-0.183593 -0.15625,-0.3125 0,-0.03906 0.09766,-0.175781 0.292969,-0.410156 0.222656,-0.261718 0.457031,-0.582031 0.703125,-0.957031 0.289063,-0.445313 0.5625,-0.902344 0.820313,-1.371094 0.289062,-0.53125 0.515624,-1.144531 0.683593,-1.835937 0.195313,-0.703125 0.292969,-1.417969 0.292969,-2.148438 0,-0.207031 0.09375,-0.3125 0.273438,-0.3125 0.03906,0 0.125,0.01953 0.253906,0.05859 0.03906,0.01563 0.121094,0.03516 0.246094,0.05859 0.125,0.02734 0.222656,0.05469 0.300781,0.07813 0.234375,0.03906 0.457031,0.05859 0.664062,0.05859 z m 0,0"
       style="fill:#000000;fill-opacity:1;fill-rule:nonzero;stroke:none" />
    <path
       id="path366"
       d="m 47.273438,22.652344 47.90625,-6.335938 v 2.5 l -47.90625,6.335938 z m 0,0"
       style="fill:#000000;fill-opacity:1;fill-rule:evenodd;stroke:none" />
    <path
       id="path368"
       d="m 110.28125,8.8867191 47.90625,-5.070313 v 2.5 l -47.90625,5.0703129 z m 0,0"
       style="fill:#000000;fill-opacity:1;fill-rule:evenodd;stroke:none" />
    <path
       id="path374"
       d="m 180.09375,3.7500001 49.48047,5.066406 V 11.316406 L 180.09375,6.2500001 Z m 0,0"
       style="fill:#000000;fill-opacity:1;fill-rule:evenodd;stroke:none" />
    <path
       id="path376"
       d="m 245.20313,16.234375 49.48046,6.332031 v 2.5 l -49.48046,-6.332031 z m 0,0"
       style="fill:#000000;fill-opacity:1;fill-rule:evenodd;stroke:none" />
  </g>
</svg>
