<?xml version="1.0" encoding="UTF-8" standalone="no"?>
<svg
   xmlns:dc="http://purl.org/dc/elements/1.1/"
   xmlns:cc="http://creativecommons.org/ns#"
   xmlns:rdf="http://www.w3.org/1999/02/22-rdf-syntax-ns#"
   xmlns:svg="http://www.w3.org/2000/svg"
   xmlns="http://www.w3.org/2000/svg"
   xmlns:sodipodi="http://sodipodi.sourceforge.net/DTD/sodipodi-0.dtd"
   xmlns:inkscape="http://www.inkscape.org/namespaces/inkscape"
   inkscape:version="1.0 (4035a4f, 2020-05-01)"
   sodipodi:docname="scales_major.svg"
   id="svg55"
   version="1.2"
   viewBox="0 0 100 50"
   height="50pt"
   width="100pt">
  <metadata
     id="metadata61">
    <rdf:RDF>
      <cc:Work
         rdf:about="">
        <dc:format>image/svg+xml</dc:format>
        <dc:type
           rdf:resource="http://purl.org/dc/dcmitype/StillImage" />
        <dc:title></dc:title>
      </cc:Work>
    </rdf:RDF>
  </metadata>
  <defs
     id="defs59" />
  <sodipodi:namedview
     inkscape:current-layer="svg55"
     inkscape:window-maximized="0"
     inkscape:window-y="23"
     inkscape:window-x="0"
     inkscape:cy="33.333333"
     inkscape:cx="66.666667"
     inkscape:zoom="9.5925"
     showgrid="false"
     id="namedview57"
     inkscape:window-height="480"
     inkscape:window-width="741"
     inkscape:pageshadow="2"
     inkscape:pageopacity="0"
     guidetolerance="10"
     gridtolerance="10"
     objecttolerance="10"
     borderopacity="1"
     bordercolor="#666666"
     pagecolor="#ffffff" />
  <g
     id="surface3438">
    <path
       id="path10"
       d="M 3.75 12.617188 L 91.503906 12.617188 M 3.75 17.050781 L 91.503906 17.050781 M 3.75 21.484375 L 91.503906 21.484375 M 3.75 25.917969 L 91.503906 25.917969 M 3.75 30.351562 L 91.503906 30.351562 "
       style="fill:none;stroke-width:0.354671;stroke-linecap:butt;stroke-linejoin:bevel;stroke:rgb(0%,0%,0%);stroke-opacity:1;stroke-miterlimit:10;" />
    <path
       id="path12"
       d="M 91.148438 12.617188 L 91.148438 30.351562 "
       style="fill:none;stroke-width:0.709342;stroke-linecap:butt;stroke-linejoin:bevel;stroke:rgb(0%,0%,0%);stroke-opacity:1;stroke-miterlimit:10;" />
    <path
       id="path14"
       d="M 24.175781 34.785156 L 32.671875 34.785156 "
       style="fill:none;stroke-width:0.709342;stroke-linecap:square;stroke-linejoin:bevel;stroke:rgb(0%,0%,0%);stroke-opacity:1;stroke-miterlimit:10;" />
    <path
       id="path16"
       d="M 31.054688 33.953125 L 31.054688 21.484375 "
       style="fill:none;stroke-width:0.57634;stroke-linecap:round;stroke-linejoin:bevel;stroke:rgb(0%,0%,0%);stroke-opacity:1;stroke-miterlimit:10;" />
    <path
       id="path18"
       d="M 46.773438 29.519531 L 46.773438 17.789062 "
       style="fill:none;stroke-width:0.57634;stroke-linecap:round;stroke-linejoin:bevel;stroke:rgb(0%,0%,0%);stroke-opacity:1;stroke-miterlimit:10;" />
    <path
       id="path20"
       d="M 38.914062 31.734375 L 38.914062 19.636719 "
       style="fill:none;stroke-width:0.57634;stroke-linecap:round;stroke-linejoin:bevel;stroke:rgb(0%,0%,0%);stroke-opacity:1;stroke-miterlimit:10;" />
    <path
       id="path22"
       d="M 62.492188 25.085938 L 62.492188 9.292969 "
       style="fill:none;stroke-width:0.57634;stroke-linecap:round;stroke-linejoin:bevel;stroke:rgb(0%,0%,0%);stroke-opacity:1;stroke-miterlimit:10;" />
    <path
       id="path24"
       d="M 54.632812 27.300781 L 54.632812 15.941406 "
       style="fill:none;stroke-width:0.57634;stroke-linecap:round;stroke-linejoin:bevel;stroke:rgb(0%,0%,0%);stroke-opacity:1;stroke-miterlimit:10;" />
    <path
       id="path26"
       d="M 86.074219 18.433594 L 86.074219 4.859375 "
       style="fill:none;stroke-width:0.57634;stroke-linecap:round;stroke-linejoin:bevel;stroke:rgb(0%,0%,0%);stroke-opacity:1;stroke-miterlimit:10;" />
    <path
       id="path28"
       d="M 78.214844 20.652344 L 78.214844 6.335938 "
       style="fill:none;stroke-width:0.57634;stroke-linecap:round;stroke-linejoin:bevel;stroke:rgb(0%,0%,0%);stroke-opacity:1;stroke-miterlimit:10;" />
    <path
       id="path30"
       d="M 70.351562 22.867188 L 70.351562 7.8125 "
       style="fill:none;stroke-width:0.57634;stroke-linecap:round;stroke-linejoin:bevel;stroke:rgb(0%,0%,0%);stroke-opacity:1;stroke-miterlimit:10;" />
    <path
       id="path32"
       d="M 29.402344 32.34375 C 29.957031 32.34375 30.425781 32.488281 30.804688 32.773438 C 31.164062 33.085938 31.339844 33.480469 31.339844 33.953125 C 31.339844 34.75 30.933594 35.492188 30.113281 36.1875 C 29.28125 36.878906 28.390625 37.226562 27.445312 37.226562 C 26.890625 37.226562 26.421875 37.082031 26.042969 36.792969 C 25.683594 36.480469 25.503906 36.089844 25.503906 35.617188 C 25.503906 34.820312 25.921875 34.074219 26.753906 33.382812 C 27.5625 32.6875 28.445312 32.34375 29.402344 32.34375 Z M 29.402344 32.34375 "
       style=" stroke:none;fill-rule:nonzero;fill:rgb(0%,0%,0%);fill-opacity:1;" />
    <path
       id="path34"
       d="M 52.980469 25.691406 C 53.535156 25.691406 54.003906 25.835938 54.382812 26.125 C 54.742188 26.4375 54.921875 26.828125 54.921875 27.300781 C 54.921875 28.097656 54.511719 28.84375 53.691406 29.535156 C 52.859375 30.230469 51.972656 30.574219 51.023438 30.574219 C 50.46875 30.574219 50.003906 30.429688 49.621094 30.144531 C 49.265625 29.832031 49.085938 29.4375 49.085938 28.964844 C 49.085938 28.167969 49.5 27.425781 50.332031 26.730469 C 51.140625 26.039062 52.023438 25.691406 52.980469 25.691406 Z M 52.980469 25.691406 "
       style=" stroke:none;fill-rule:nonzero;fill:rgb(0%,0%,0%);fill-opacity:1;" />
    <path
       id="path36"
       d="M 45.121094 27.910156 C 45.675781 27.910156 46.144531 28.054688 46.523438 28.34375 C 46.882812 28.652344 47.0625 29.046875 47.0625 29.519531 C 47.0625 30.316406 46.652344 31.0625 45.832031 31.753906 C 45 32.445312 44.113281 32.792969 43.164062 32.792969 C 42.609375 32.792969 42.144531 32.648438 41.761719 32.359375 C 41.402344 32.046875 41.226562 31.65625 41.226562 31.183594 C 41.226562 30.386719 41.640625 29.640625 42.472656 28.949219 C 43.28125 28.253906 44.164062 27.910156 45.121094 27.910156 Z M 45.121094 27.910156 "
       style=" stroke:none;fill-rule:nonzero;fill:rgb(0%,0%,0%);fill-opacity:1;" />
    <path
       id="path38"
       d="M 37.261719 30.125 C 37.816406 30.125 38.285156 30.269531 38.664062 30.558594 C 39.023438 30.871094 39.203125 31.261719 39.203125 31.734375 C 39.203125 32.53125 38.792969 33.277344 37.972656 33.96875 C 37.140625 34.664062 36.25 35.007812 35.304688 35.007812 C 34.75 35.007812 34.285156 34.863281 33.902344 34.578125 C 33.542969 34.265625 33.367188 33.871094 33.367188 33.398438 C 33.367188 32.601562 33.78125 31.855469 34.613281 31.164062 C 35.421875 30.472656 36.304688 30.125 37.261719 30.125 Z M 37.261719 30.125 "
       style=" stroke:none;fill-rule:nonzero;fill:rgb(0%,0%,0%);fill-opacity:1;" />
    <path
       id="path40"
       d="M 68.699219 21.257812 C 69.253906 21.257812 69.722656 21.402344 70.105469 21.691406 C 70.460938 22.003906 70.640625 22.394531 70.640625 22.871094 C 70.640625 23.664062 70.230469 24.410156 69.410156 25.101562 C 68.578125 25.796875 67.691406 26.140625 66.742188 26.140625 C 66.191406 26.140625 65.722656 26 65.339844 25.710938 C 64.984375 25.398438 64.804688 25.003906 64.804688 24.53125 C 64.804688 23.734375 65.21875 22.992188 66.050781 22.296875 C 66.859375 21.605469 67.742188 21.257812 68.699219 21.257812 Z M 68.699219 21.257812 "
       style=" stroke:none;fill-rule:nonzero;fill:rgb(0%,0%,0%);fill-opacity:1;" />
    <path
       id="path42"
       d="M 60.839844 23.476562 C 61.394531 23.476562 61.863281 23.621094 62.242188 23.910156 C 62.601562 24.21875 62.78125 24.613281 62.78125 25.085938 C 62.78125 25.882812 62.371094 26.628906 61.550781 27.320312 C 60.71875 28.011719 59.832031 28.359375 58.882812 28.359375 C 58.332031 28.359375 57.863281 28.214844 57.480469 27.925781 C 57.125 27.613281 56.945312 27.222656 56.945312 26.75 C 56.945312 25.953125 57.359375 25.207031 58.191406 24.515625 C 59 23.820312 59.882812 23.476562 60.839844 23.476562 Z M 60.839844 23.476562 "
       style=" stroke:none;fill-rule:nonzero;fill:rgb(0%,0%,0%);fill-opacity:1;" />
    <path
       id="path44"
       d="M 84.421875 16.824219 C 84.976562 16.824219 85.441406 16.96875 85.824219 17.257812 C 86.179688 17.570312 86.359375 17.960938 86.359375 18.4375 C 86.359375 19.234375 85.949219 19.976562 85.128906 20.671875 C 84.300781 21.363281 83.410156 21.710938 82.464844 21.710938 C 81.910156 21.710938 81.441406 21.566406 81.0625 21.277344 C 80.703125 20.964844 80.523438 20.570312 80.523438 20.097656 C 80.523438 19.300781 80.941406 18.558594 81.769531 17.863281 C 82.578125 17.171875 83.460938 16.824219 84.421875 16.824219 Z M 84.421875 16.824219 "
       style=" stroke:none;fill-rule:nonzero;fill:rgb(0%,0%,0%);fill-opacity:1;" />
    <path
       id="path46"
       d="M 76.5625 19.042969 C 77.113281 19.042969 77.582031 19.1875 77.964844 19.476562 C 78.320312 19.785156 78.5 20.179688 78.5 20.652344 C 78.5 21.449219 78.089844 22.195312 77.269531 22.886719 C 76.441406 23.578125 75.550781 23.925781 74.605469 23.925781 C 74.050781 23.925781 73.582031 23.78125 73.199219 23.492188 C 72.84375 23.179688 72.664062 22.789062 72.664062 22.316406 C 72.664062 21.519531 73.078125 20.773438 73.910156 20.082031 C 74.71875 19.386719 75.601562 19.042969 76.5625 19.042969 Z M 76.5625 19.042969 "
       style=" stroke:none;fill-rule:nonzero;fill:rgb(0%,0%,0%);fill-opacity:1;" />
    <path
       id="path48"
       d="M 13.097656 21.378906 C 13.097656 21.378906 13.132812 21.378906 13.203125 21.378906 C 13.246094 21.367188 13.289062 21.363281 13.324219 21.363281 C 14.617188 21.363281 15.679688 21.820312 16.507812 22.730469 C 17.339844 23.632812 17.757812 24.683594 17.757812 25.882812 C 17.757812 27.371094 17.136719 28.585938 15.902344 29.519531 C 15.578125 29.773438 15.160156 29.980469 14.640625 30.144531 C 14.695312 30.894531 14.726562 31.5 14.726562 31.960938 C 14.726562 32.054688 14.714844 32.386719 14.691406 32.964844 C 14.644531 34.039062 14.273438 34.96875 13.582031 35.753906 C 12.914062 36.527344 12.082031 36.914062 11.089844 36.914062 C 10.152344 36.914062 9.355469 36.585938 8.699219 35.925781 C 8.039062 35.257812 7.710938 34.449219 7.710938 33.503906 C 7.710938 33.007812 7.902344 32.585938 8.285156 32.238281 C 8.675781 31.890625 9.132812 31.71875 9.652344 31.71875 C 10.113281 31.71875 10.5 31.898438 10.8125 32.253906 C 11.136719 32.589844 11.296875 33.007812 11.296875 33.503906 C 11.296875 33.953125 11.136719 34.339844 10.8125 34.664062 C 10.488281 34.984375 10.101562 35.148438 9.652344 35.148438 C 9.464844 35.148438 9.289062 35.113281 9.113281 35.042969 C 9.621094 35.792969 10.296875 36.167969 11.140625 36.167969 C 11.9375 36.167969 12.589844 35.847656 13.097656 35.199219 C 13.628906 34.53125 13.917969 33.75 13.964844 32.863281 C 13.988281 32.308594 14 31.988281 14 31.910156 C 14 31.261719 13.976562 30.730469 13.929688 30.316406 C 13.351562 30.410156 12.839844 30.453125 12.386719 30.453125 C 10.78125 30.453125 9.414062 29.820312 8.285156 28.550781 C 7.175781 27.269531 6.621094 25.742188 6.621094 23.976562 C 6.621094 23.609375 6.65625 23.234375 6.726562 22.851562 C 6.792969 22.539062 6.878906 22.199219 6.984375 21.832031 C 7.042969 21.621094 7.199219 21.289062 7.453125 20.824219 C 7.542969 20.6875 7.648438 20.515625 7.765625 20.304688 C 7.878906 20.097656 7.960938 19.960938 8.007812 19.890625 C 8.121094 19.660156 8.347656 19.347656 8.679688 18.957031 C 8.773438 18.851562 8.871094 18.734375 8.96875 18.609375 C 9.066406 18.480469 9.148438 18.378906 9.21875 18.296875 C 9.289062 18.214844 9.339844 18.152344 9.375 18.105469 C 9.410156 18.0625 9.667969 17.753906 10.152344 17.1875 C 10.269531 17.074219 10.382812 16.949219 10.492188 16.816406 C 10.601562 16.683594 10.691406 16.578125 10.761719 16.503906 C 10.828125 16.429688 10.882812 16.375 10.914062 16.339844 C 10.5 14.964844 10.242188 13.871094 10.136719 13.050781 C 10.054688 12.390625 10.015625 11.492188 10.015625 10.347656 C 10.015625 9.34375 10.246094 8.402344 10.707031 7.527344 C 11.15625 6.613281 11.789062 5.867188 12.59375 5.292969 C 12.652344 5.257812 12.710938 5.238281 12.769531 5.238281 C 12.847656 5.238281 12.90625 5.257812 12.941406 5.292969 C 13.566406 6.042969 14.101562 7.019531 14.550781 8.21875 C 15.015625 9.417969 15.246094 10.511719 15.246094 11.492188 C 15.246094 12.601562 14.980469 13.640625 14.449219 14.609375 C 13.847656 15.636719 13.074219 16.699219 12.128906 17.796875 C 12.371094 18.558594 12.695312 19.753906 13.097656 21.378906 Z M 14.570312 29.433594 C 15.171875 29.214844 15.636719 28.839844 15.972656 28.308594 C 16.34375 27.800781 16.527344 27.226562 16.527344 26.59375 C 16.527344 25.773438 16.25 25.046875 15.695312 24.410156 C 15.128906 23.753906 14.40625 23.382812 13.53125 23.300781 C 14.027344 25.738281 14.375 27.78125 14.570312 29.433594 Z M 7.867188 25.433594 C 7.867188 26.574219 8.328125 27.578125 9.253906 28.445312 C 10.199219 29.289062 11.261719 29.710938 12.441406 29.710938 C 12.925781 29.710938 13.398438 29.675781 13.859375 29.605469 C 13.675781 27.851562 13.3125 25.75 12.769531 23.300781 C 12.109375 23.371094 11.585938 23.601562 11.191406 23.996094 C 10.8125 24.398438 10.621094 24.855469 10.621094 25.363281 C 10.621094 26.242188 11.089844 26.949219 12.023438 27.492188 C 12.105469 27.574219 12.144531 27.660156 12.144531 27.753906 C 12.144531 27.84375 12.105469 27.933594 12.023438 28.011719 C 11.953125 28.09375 11.867188 28.132812 11.765625 28.132812 C 11.753906 28.132812 11.699219 28.121094 11.609375 28.097656 C 10.949219 27.742188 10.441406 27.28125 10.085938 26.714844 C 9.75 26.113281 9.582031 25.507812 9.582031 24.894531 C 9.582031 24.097656 9.832031 23.378906 10.328125 22.730469 C 10.847656 22.085938 11.523438 21.667969 12.351562 21.484375 C 12.03125 20.191406 11.765625 19.179688 11.554688 18.453125 C 11.371094 18.660156 11.148438 18.914062 10.890625 19.207031 C 10.628906 19.5 10.476562 19.675781 10.429688 19.734375 C 10.015625 20.277344 9.699219 20.699219 9.476562 21 C 9.085938 21.542969 8.796875 22.007812 8.613281 22.402344 C 8.417969 22.839844 8.242188 23.320312 8.09375 23.839844 C 7.941406 24.335938 7.867188 24.867188 7.867188 25.433594 Z M 13.652344 7.820312 C 12.785156 8.246094 12.105469 8.859375 11.609375 9.65625 C 11.101562 10.476562 10.847656 11.359375 10.847656 12.304688 C 10.847656 13.136719 11.054688 14.257812 11.46875 15.664062 C 12.300781 14.660156 12.925781 13.730469 13.339844 12.875 C 13.777344 11.976562 14 11.035156 14 10.054688 C 14 9.316406 13.882812 8.570312 13.652344 7.820312 Z M 13.652344 7.820312 "
       style=" stroke:none;fill-rule:nonzero;fill:rgb(0%,0%,0%);fill-opacity:1;" />
    <path
       id="path50"
       d="M 30.765625 20.511719 L 54.921875 14.832031 L 54.921875 17.050781 L 30.765625 22.726562 Z M 30.765625 20.511719 "
       style=" stroke:none;fill-rule:evenodd;fill:rgb(0%,0%,0%);fill-opacity:1;" />
    <path
       id="path52"
       d="M 62.207031 8.292969 L 86.359375 3.75 L 86.359375 5.96875 L 62.207031 10.507812 Z M 62.207031 8.292969 "
       style=" stroke:none;fill-rule:evenodd;fill:rgb(0%,0%,0%);fill-opacity:1;" />
  </g>
</svg>
