<?xml version="1.0" encoding="UTF-8" standalone="no"?>
<svg
   xmlns:dc="http://purl.org/dc/elements/1.1/"
   xmlns:cc="http://creativecommons.org/ns#"
   xmlns:rdf="http://www.w3.org/1999/02/22-rdf-syntax-ns#"
   xmlns:svg="http://www.w3.org/2000/svg"
   xmlns="http://www.w3.org/2000/svg"
   xmlns:sodipodi="http://sodipodi.sourceforge.net/DTD/sodipodi-0.dtd"
   xmlns:inkscape="http://www.inkscape.org/namespaces/inkscape"
   inkscape:version="1.0 (4035a4f, 2020-05-01)"
   sodipodi:docname="scales_min_maj_3.svg"
   id="svg399"
   version="1.2"
   viewBox="0 0 310 50"
   height="50pt"
   width="310pt">
  <metadata
     id="metadata405">
    <rdf:RDF>
      <cc:Work
         rdf:about="">
        <dc:format>image/svg+xml</dc:format>
        <dc:type
           rdf:resource="http://purl.org/dc/dcmitype/StillImage" />
        <dc:title></dc:title>
      </cc:Work>
    </rdf:RDF>
  </metadata>
  <defs
     id="defs403" />
  <sodipodi:namedview
     inkscape:current-layer="surface3324"
     inkscape:window-maximized="1"
     inkscape:window-y="23"
     inkscape:window-x="0"
     inkscape:cy="561.33333"
     inkscape:cx="396.66667"
     inkscape:zoom="0.57630641"
     showgrid="false"
     id="namedview401"
     inkscape:window-height="855"
     inkscape:window-width="1440"
     inkscape:pageshadow="2"
     inkscape:pageopacity="0"
     guidetolerance="10"
     gridtolerance="10"
     objecttolerance="10"
     borderopacity="1"
     bordercolor="#666666"
     pagecolor="#ffffff" />
  <g
     id="surface3324">
    <path
       id="path18"
       d="M 3.7500001,13.8164 H 168.16016 m -164.4101599,5 H 168.16016 m -164.4101599,5 H 168.16016 M 3.7500001,28.82031 H 168.16016 m -164.4101599,5 H 168.16016"
       style="fill:none;stroke:#000000;stroke-width:0.400025;stroke-linecap:butt;stroke-linejoin:bevel;stroke-miterlimit:10;stroke-opacity:1" />
    <path
       id="path20"
       d="m 168.16016,13.8164 h 136.61718 m -136.61718,5 h 136.61718 m -136.61718,5 h 136.61718 m -136.61718,5.00391 h 136.61718 m -136.61718,5 h 136.61718"
       style="fill:none;stroke:#000000;stroke-width:0.384893;stroke-linecap:butt;stroke-linejoin:bevel;stroke-miterlimit:10;stroke-opacity:1" />
    <path
       id="path30"
       d="M 167.75781,13.8164 V 33.82031"
       style="fill:none;stroke:#000000;stroke-width:0.80005;stroke-linecap:butt;stroke-linejoin:bevel;stroke-miterlimit:10;stroke-opacity:1" />
    <path
       id="path36"
       d="M 304.77734,13.8164 V 33.82031"
       style="fill:none;stroke:#000000;stroke-width:0.80005;stroke-linecap:butt;stroke-linejoin:bevel;stroke-miterlimit:10;stroke-opacity:1" />
    <path
       id="path54"
       d="m 115.48438,25.5 v 1.54297 c 0,0.54687 0.0273,0.98047 0.0781,1.30859 0.42969,-0.36719 0.73438,-0.64062 0.91797,-0.82031 0.20703,-0.21094 0.41797,-0.4961 0.625,-0.85938 0.20703,-0.36718 0.3125,-0.73047 0.3125,-1.09375 0,-0.36718 -0.0781,-0.67968 -0.23438,-0.9414 -0.15625,-0.25782 -0.36328,-0.39063 -0.625,-0.39063 -0.3125,0 -0.57421,0.11719 -0.78125,0.35156 -0.19531,0.26172 -0.29296,0.5625 -0.29296,0.90235 z m -0.82032,3.57422 -0.2539,-11.89844 c 0.18359,-0.10156 0.36328,-0.15625 0.54687,-0.15625 0.1836,0 0.36328,0.0547 0.54688,0.15625 l -0.15625,6.89453 c 0.53515,-0.45312 1.14453,-0.68359 1.83593,-0.68359 0.50782,0 0.92969,0.21093 1.26954,0.625 0.33984,0.41797 0.50781,0.89453 0.50781,1.42968 0,0.33594 -0.10938,0.69532 -0.33203,1.07422 -0.20703,0.35157 -0.42969,0.625 -0.66407,0.82032 -0.1289,0.10156 -0.46093,0.36328 -0.99609,0.78125 -0.15625,0.11718 -0.34375,0.2539 -0.55859,0.41015 -0.21485,0.15625 -0.34766,0.25391 -0.39844,0.29297 -0.0898,0.0508 -0.17578,0.15625 -0.25391,0.3125 -0.0898,0.12891 -0.19531,0.23828 -0.3125,0.33203 -0.0898,0.0781 -0.20312,0.11719 -0.33203,0.11719 -0.1289,0 -0.23437,-0.0469 -0.3125,-0.13672 -0.0898,-0.0937 -0.13672,-0.21484 -0.13672,-0.37109 z m 0,0"
       style="fill:#000000;fill-opacity:1;fill-rule:nonzero;stroke:none" />
    <path
       id="path56"
       d="m 68.226563,33 v 1.54297 c 0,0.54687 0.02734,0.98047 0.07813,1.30859 0.429687,-0.36719 0.734375,-0.64062 0.917968,-0.82031 0.207032,-0.21094 0.417969,-0.4961 0.625,-0.85938 0.207032,-0.36718 0.3125,-0.73047 0.3125,-1.09375 0,-0.36718 -0.07812,-0.67968 -0.234374,-0.9375 -0.15625,-0.26172 -0.363282,-0.39062 -0.625,-0.39062 -0.3125,0 -0.574219,0.11719 -0.78125,0.35156 C 68.324224,32.35937 68.226568,32.66015 68.226568,33 Z M 67.40625,36.57422 67.152344,24.67578 c 0.183594,-0.10156 0.363281,-0.15625 0.546875,-0.15625 0.183594,0 0.363281,0.0547 0.546875,0.15625 l -0.15625,6.89844 c 0.535156,-0.45703 1.144531,-0.6836 1.835938,-0.6836 0.507812,0 0.929687,0.20703 1.269531,0.625 0.339843,0.41407 0.507812,0.89063 0.507812,1.42578 0,0.33594 -0.109375,0.69532 -0.332031,1.07422 -0.207031,0.35157 -0.429688,0.625 -0.664062,0.82032 -0.128907,0.10156 -0.460938,0.36328 -0.996094,0.78125 -0.15625,0.11718 -0.339844,0.2539 -0.554688,0.41015 -0.214844,0.15625 -0.351562,0.25391 -0.402344,0.29297 -0.08984,0.0508 -0.175781,0.15625 -0.253906,0.3125 -0.08984,0.12891 -0.195312,0.23828 -0.3125,0.33203 -0.08984,0.0781 -0.203125,0.11719 -0.332031,0.11719 -0.128906,0 -0.234375,-0.0469 -0.3125,-0.13672 -0.08984,-0.0937 -0.136719,-0.21484 -0.136719,-0.37109 z m 0,0"
       style="fill:#000000;fill-opacity:1;fill-rule:nonzero;stroke:none" />
    <path
       id="path58"
       d="m 202.09766,25.5 v 1.54297 c 0,0.54687 0.0273,0.98047 0.0781,1.30859 0.42969,-0.36719 0.73438,-0.64062 0.91797,-0.82031 0.20703,-0.21094 0.41797,-0.4961 0.625,-0.85938 0.20703,-0.36718 0.3125,-0.73047 0.3125,-1.09375 0,-0.36718 -0.0781,-0.67968 -0.23437,-0.9414 -0.15625,-0.25782 -0.36329,-0.39063 -0.625,-0.39063 -0.3125,0 -0.57422,0.11719 -0.78125,0.35156 -0.19532,0.26172 -0.29297,0.5625 -0.29297,0.90235 z m -0.82032,3.57422 -0.2539,-11.89844 c 0.17969,-0.10156 0.36328,-0.15625 0.54687,-0.15625 0.17969,0 0.36328,0.0547 0.54688,0.15625 l -0.15625,6.89453 c 0.53515,-0.45312 1.14453,-0.68359 1.83594,-0.68359 0.50781,0 0.92968,0.21093 1.26953,0.625 0.33984,0.41797 0.50781,0.89453 0.50781,1.42968 0,0.33594 -0.10938,0.69532 -0.33203,1.07422 -0.20703,0.35157 -0.42969,0.625 -0.66406,0.82032 -0.12891,0.10156 -0.46094,0.36328 -0.9961,0.78125 -0.15625,0.11718 -0.34375,0.2539 -0.55859,0.41015 -0.21485,0.15625 -0.34766,0.25391 -0.39844,0.29297 -0.0898,0.0508 -0.17578,0.15625 -0.25391,0.3125 -0.0898,0.12891 -0.19531,0.23828 -0.3125,0.33203 -0.0937,0.0781 -0.20312,0.11719 -0.33203,0.11719 -0.13281,0 -0.23437,-0.0469 -0.3125,-0.13672 -0.0937,-0.0937 -0.13672,-0.21484 -0.13672,-0.37109 z m 0,0"
       style="fill:#000000;fill-opacity:1;fill-rule:nonzero;stroke:none" />
    <path
       id="path60"
       d="m 250.92969,33 v 1.54297 c 0,0.54687 0.0273,0.98047 0.0781,1.30859 0.42969,-0.36719 0.73438,-0.64062 0.91797,-0.82031 0.20703,-0.21094 0.41797,-0.4961 0.625,-0.85938 0.20703,-0.36718 0.3125,-0.73047 0.3125,-1.09375 0,-0.36718 -0.0781,-0.67968 -0.23437,-0.9375 -0.15625,-0.26172 -0.36328,-0.39062 -0.625,-0.39062 -0.3125,0 -0.57422,0.11719 -0.78125,0.35156 -0.19532,0.25781 -0.29297,0.55859 -0.29297,0.89844 z m -0.82031,3.57422 -0.25391,-11.89844 c 0.18359,-0.10156 0.36328,-0.15625 0.54687,-0.15625 0.1836,0 0.36329,0.0547 0.54688,0.15625 l -0.15625,6.89844 c 0.53516,-0.45703 1.14453,-0.6836 1.83594,-0.6836 0.50781,0 0.92968,0.20703 1.26953,0.625 0.33984,0.41407 0.50781,0.89063 0.50781,1.42578 0,0.33594 -0.10937,0.69532 -0.33203,1.07422 -0.20703,0.35157 -0.42969,0.625 -0.66406,0.82032 -0.12891,0.10156 -0.46094,0.36328 -0.9961,0.78125 -0.15625,0.11718 -0.34375,0.2539 -0.55859,0.41015 -0.21484,0.15625 -0.34766,0.25391 -0.39844,0.29297 -0.0898,0.0508 -0.17578,0.15625 -0.2539,0.3125 -0.0898,0.12891 -0.19532,0.23828 -0.3125,0.33203 -0.0898,0.0781 -0.20313,0.11719 -0.33204,0.11719 -0.1289,0 -0.23437,-0.0469 -0.3125,-0.13672 -0.0898,-0.0937 -0.13671,-0.21484 -0.13671,-0.37109 z m 0,0"
       style="fill:#000000;fill-opacity:1;fill-rule:nonzero;stroke:none" />
    <path
       id="path74"
       d="m 39.839844,38.82031 h 9.582031"
       style="fill:none;stroke:#000000;stroke-width:0.80005;stroke-linecap:square;stroke-linejoin:bevel;stroke-miterlimit:10;stroke-opacity:1" />
    <path
       id="path80"
       d="m 286.60156,38.82031 h 9.58203"
       style="fill:none;stroke:#000000;stroke-width:0.80005;stroke-linecap:square;stroke-linejoin:bevel;stroke-miterlimit:10;stroke-opacity:1" />
    <path
       id="path142"
       d="M 47.597656,37.8789 V 23.8164"
       style="fill:none;stroke:#000000;stroke-width:0.650041;stroke-linecap:round;stroke-linejoin:bevel;stroke-miterlimit:10;stroke-opacity:1" />
    <path
       id="path144"
       d="M 79.101563,32.8789 V 19.65234"
       style="fill:none;stroke:#000000;stroke-width:0.650041;stroke-linecap:round;stroke-linejoin:bevel;stroke-miterlimit:10;stroke-opacity:1" />
    <path
       id="path146"
       d="M 63.347656,35.3789 V 21.73437"
       style="fill:none;stroke:#000000;stroke-width:0.650041;stroke-linecap:round;stroke-linejoin:bevel;stroke-miterlimit:10;stroke-opacity:1" />
    <path
       id="path148"
       d="M 110.60547,27.8789 V 10.0664"
       style="fill:none;stroke:#000000;stroke-width:0.650041;stroke-linecap:round;stroke-linejoin:bevel;stroke-miterlimit:10;stroke-opacity:1" />
    <path
       id="path150"
       d="M 94.855469,30.3789 V 17.5664"
       style="fill:none;stroke:#000000;stroke-width:0.650041;stroke-linecap:round;stroke-linejoin:bevel;stroke-miterlimit:10;stroke-opacity:1" />
    <path
       id="path152"
       d="M 157.86328,20.3789 V 5.0664001"
       style="fill:none;stroke:#000000;stroke-width:0.650041;stroke-linecap:round;stroke-linejoin:bevel;stroke-miterlimit:10;stroke-opacity:1" />
    <path
       id="path154"
       d="M 142.11328,22.8789 V 6.7343701"
       style="fill:none;stroke:#000000;stroke-width:0.650041;stroke-linecap:round;stroke-linejoin:bevel;stroke-miterlimit:10;stroke-opacity:1" />
    <path
       id="path156"
       d="M 126.35938,25.3789 V 8.4023401"
       style="fill:none;stroke:#000000;stroke-width:0.650041;stroke-linecap:round;stroke-linejoin:bevel;stroke-miterlimit:10;stroke-opacity:1" />
    <path
       id="path158"
       d="M 196.69531,22.8789 V 6.7343701"
       style="fill:none;stroke:#000000;stroke-width:0.650041;stroke-linecap:round;stroke-linejoin:bevel;stroke-miterlimit:10;stroke-opacity:1" />
    <path
       id="path160"
       d="M 180.41797,20.3789 V 5.0664001"
       style="fill:none;stroke:#000000;stroke-width:0.650041;stroke-linecap:round;stroke-linejoin:bevel;stroke-miterlimit:10;stroke-opacity:1" />
    <path
       id="path162"
       d="M 229.25,27.8789 V 10.0664"
       style="fill:none;stroke:#000000;stroke-width:0.650041;stroke-linecap:round;stroke-linejoin:bevel;stroke-miterlimit:10;stroke-opacity:1" />
    <path
       id="path164"
       d="M 212.97266,25.3789 V 8.4023401"
       style="fill:none;stroke:#000000;stroke-width:0.650041;stroke-linecap:round;stroke-linejoin:bevel;stroke-miterlimit:10;stroke-opacity:1" />
    <path
       id="path166"
       d="M 261.80469,32.8789 V 19.65234"
       style="fill:none;stroke:#000000;stroke-width:0.650041;stroke-linecap:round;stroke-linejoin:bevel;stroke-miterlimit:10;stroke-opacity:1" />
    <path
       id="path168"
       d="M 245.52734,30.3789 V 17.5664"
       style="fill:none;stroke:#000000;stroke-width:0.650041;stroke-linecap:round;stroke-linejoin:bevel;stroke-miterlimit:10;stroke-opacity:1" />
    <path
       id="path178"
       d="M 278.08203,35.3789 V 21.73437"
       style="fill:none;stroke:#000000;stroke-width:0.650041;stroke-linecap:round;stroke-linejoin:bevel;stroke-miterlimit:10;stroke-opacity:1" />
    <path
       id="path180"
       d="M 294.35938,37.8789 V 23.8164"
       style="fill:none;stroke:#000000;stroke-width:0.650041;stroke-linecap:round;stroke-linejoin:bevel;stroke-miterlimit:10;stroke-opacity:1" />
    <path
       id="path274"
       d="m 45.734375,36.0664 c 0.625,0 1.152344,0.16016 1.582031,0.48829 0.402344,0.35156 0.605469,0.79296 0.605469,1.32812 0,0.89844 -0.464843,1.73828 -1.386719,2.51953 -0.9375,0.78125 -1.941406,1.17188 -3.007812,1.17188 -0.625,0 -1.152344,-0.16407 -1.582031,-0.48828 -0.40625,-0.35157 -0.605469,-0.79688 -0.605469,-1.32813 0,-0.89844 0.46875,-1.73828 1.40625,-2.51953 0.910156,-0.78125 1.90625,-1.17188 2.988281,-1.17188 z m 0,0"
       style="fill:#000000;fill-opacity:1;fill-rule:nonzero;stroke:none" />
    <path
       id="path276"
       d="m 77.238282,31.0664 c 0.625,0 1.152343,0.16016 1.582031,0.48829 0.402343,0.35156 0.605469,0.79296 0.605469,1.32812 0,0.89844 -0.460938,1.73828 -1.386719,2.51953 -0.9375,0.78125 -1.941407,1.17188 -3.007813,1.17188 -0.625,0 -1.152344,-0.16407 -1.582031,-0.48828 -0.402344,-0.35157 -0.605469,-0.79688 -0.605469,-1.32813 0,-0.89844 0.46875,-1.73828 1.40625,-2.51953 0.910156,-0.78125 1.90625,-1.17188 2.988282,-1.17188 z m 0,0"
       style="fill:#000000;fill-opacity:1;fill-rule:nonzero;stroke:none" />
    <path
       id="path278"
       d="m 61.484375,33.5664 c 0.625,0 1.152344,0.16016 1.582031,0.48829 0.40625,0.35156 0.605469,0.79296 0.605469,1.32812 0,0.89844 -0.460937,1.73828 -1.386719,2.51953 -0.9375,0.78125 -1.9375,1.17188 -3.007812,1.17188 -0.625,0 -1.152344,-0.16407 -1.582031,-0.48828 -0.402344,-0.35157 -0.605469,-0.79688 -0.605469,-1.32813 0,-0.89844 0.46875,-1.73828 1.40625,-2.51953 0.914062,-0.78125 1.910156,-1.17188 2.988281,-1.17188 z m 0,0"
       style="fill:#000000;fill-opacity:1;fill-rule:nonzero;stroke:none" />
    <path
       id="path280"
       d="m 124.49609,23.5625 c 0.625,0 1.15235,0.16406 1.58204,0.48828 0.40234,0.35156 0.60546,0.79687 0.60546,1.33203 0,0.89844 -0.46093,1.73828 -1.38671,2.51953 -0.9375,0.78125 -1.94141,1.17188 -3.00782,1.17188 -0.625,0 -1.15234,-0.16407 -1.58203,-0.48828 -0.40234,-0.35157 -0.60547,-0.79688 -0.60547,-1.32813 0,-0.89844 0.46875,-1.73828 1.40625,-2.52344 0.91016,-0.78125 1.90625,-1.17187 2.98828,-1.17187 z m 0,0"
       style="fill:#000000;fill-opacity:1;fill-rule:nonzero;stroke:none" />
    <path
       id="path282"
       d="m 108.74219,26.0664 c 0.625,0 1.15234,0.16016 1.58203,0.48829 0.40625,0.35156 0.60547,0.79296 0.60547,1.32812 0,0.89844 -0.46094,1.73828 -1.38672,2.51953 -0.9375,0.78125 -1.9375,1.17188 -3.00781,1.17188 -0.625,0 -1.15235,-0.16407 -1.58203,-0.48828 -0.40235,-0.35157 -0.60547,-0.79688 -0.60547,-1.32813 0,-0.89844 0.46875,-1.73828 1.40625,-2.51953 0.91406,-0.78125 1.91015,-1.17188 2.98828,-1.17188 z m 0,0"
       style="fill:#000000;fill-opacity:1;fill-rule:nonzero;stroke:none" />
    <path
       id="path284"
       d="m 92.992188,28.5664 c 0.625,0 1.152344,0.16016 1.582031,0.48829 0.402344,0.35156 0.605469,0.79296 0.605469,1.32812 0,0.89844 -0.464844,1.73828 -1.386719,2.51953 -0.9375,0.78125 -1.941406,1.17188 -3.007813,1.17188 -0.625,0 -1.152343,-0.16407 -1.582031,-0.48828 -0.40625,-0.35157 -0.605469,-0.79688 -0.605469,-1.32813 0,-0.89844 0.46875,-1.73828 1.40625,-2.51953 0.910157,-0.78125 1.90625,-1.17188 2.988282,-1.17188 z m 0,0"
       style="fill:#000000;fill-opacity:1;fill-rule:nonzero;stroke:none" />
    <path
       id="path286"
       d="m 156,18.5625 c 0.625,0 1.15234,0.16406 1.58203,0.48828 0.40625,0.35156 0.60547,0.79687 0.60547,1.32812 0,0.89844 -0.46094,1.73829 -1.38672,2.51954 -0.9375,0.78125 -1.9414,1.17187 -3.00781,1.17187 -0.625,0 -1.15234,-0.16016 -1.58203,-0.48828 -0.40235,-0.35156 -0.60547,-0.79297 -0.60547,-1.32813 0,-0.89843 0.46875,-1.73828 1.40625,-2.51953 0.91016,-0.78125 1.90625,-1.17187 2.98828,-1.17187 z m 0,0"
       style="fill:#000000;fill-opacity:1;fill-rule:nonzero;stroke:none" />
    <path
       id="path288"
       d="m 140.25,21.0625 c 0.625,0 1.15234,0.16406 1.58203,0.48828 0.40235,0.35156 0.60547,0.79687 0.60547,1.32812 0,0.89844 -0.46484,1.73829 -1.38672,2.52344 -0.9375,0.78125 -1.9414,1.17188 -3.00781,1.17188 -0.62891,0 -1.15625,-0.16407 -1.58594,-0.48828 -0.40234,-0.35157 -0.60547,-0.79688 -0.60547,-1.33204 0,-0.89843 0.46875,-1.73828 1.40625,-2.51953 0.91407,-0.78125 1.91016,-1.17187 2.99219,-1.17187 z m 0,0"
       style="fill:#000000;fill-opacity:1;fill-rule:nonzero;stroke:none" />
    <path
       id="path290"
       d="m 194.83203,21.0625 c 0.625,0 1.15235,0.16406 1.58203,0.48828 0.40235,0.35156 0.60547,0.79687 0.60547,1.32812 0,0.89844 -0.46484,1.73829 -1.38672,2.52344 -0.9375,0.78125 -1.9414,1.17188 -3.00781,1.17188 -0.625,0 -1.15234,-0.16407 -1.58203,-0.48828 -0.40625,-0.35157 -0.60547,-0.79688 -0.60547,-1.33204 0,-0.89843 0.46875,-1.73828 1.40625,-2.51953 0.91016,-0.78125 1.90625,-1.17187 2.98828,-1.17187 z m 0,0"
       style="fill:#000000;fill-opacity:1;fill-rule:nonzero;stroke:none" />
    <path
       id="path292"
       d="m 178.55469,18.5625 c 0.625,0 1.15234,0.16406 1.58203,0.48828 0.40234,0.35156 0.60547,0.79687 0.60547,1.32812 0,0.89844 -0.46485,1.73829 -1.38672,2.51954 -0.9375,0.78125 -1.94141,1.17187 -3.00781,1.17187 -0.625,0 -1.15235,-0.16016 -1.58203,-0.48828 -0.40625,-0.35156 -0.60547,-0.79297 -0.60547,-1.32813 0,-0.89843 0.46875,-1.73828 1.40625,-2.51953 0.91015,-0.78125 1.90625,-1.17187 2.98828,-1.17187 z m 0,0"
       style="fill:#000000;fill-opacity:1;fill-rule:nonzero;stroke:none" />
    <path
       id="path294"
       d="m 227.38672,26.0664 c 0.625,0 1.15234,0.16016 1.58203,0.48829 0.40234,0.35156 0.60547,0.79296 0.60547,1.32812 0,0.89844 -0.46094,1.73828 -1.38672,2.51953 -0.9375,0.78125 -1.94141,1.17188 -3.00781,1.17188 -0.625,0 -1.15235,-0.16407 -1.58203,-0.48828 -0.40625,-0.35157 -0.60547,-0.79688 -0.60547,-1.32813 0,-0.89844 0.46875,-1.73828 1.40625,-2.51953 0.91015,-0.78125 1.90625,-1.17188 2.98828,-1.17188 z m 0,0"
       style="fill:#000000;fill-opacity:1;fill-rule:nonzero;stroke:none" />
    <path
       id="path296"
       d="m 211.10938,23.5625 c 0.625,0 1.15234,0.16406 1.58203,0.48828 0.40234,0.35156 0.60547,0.79687 0.60547,1.33203 0,0.89844 -0.46485,1.73828 -1.38672,2.51953 -0.9375,0.78125 -1.94141,1.17188 -3.00782,1.17188 -0.625,0 -1.15234,-0.16407 -1.58203,-0.48828 -0.40625,-0.35157 -0.60547,-0.79688 -0.60547,-1.32813 0,-0.89844 0.46875,-1.73828 1.40625,-2.52344 0.91016,-0.78125 1.90625,-1.17187 2.98829,-1.17187 z m 0,0"
       style="fill:#000000;fill-opacity:1;fill-rule:nonzero;stroke:none" />
    <path
       id="path298"
       d="m 276.21875,33.5664 c 0.625,0 1.15234,0.16016 1.58203,0.48829 0.40235,0.35156 0.60547,0.79296 0.60547,1.32812 0,0.89844 -0.46094,1.73828 -1.38672,2.51953 -0.9375,0.78125 -1.9414,1.17188 -3.00781,1.17188 -0.625,0 -1.15234,-0.16407 -1.58203,-0.48828 -0.40235,-0.35157 -0.60547,-0.79688 -0.60547,-1.32813 0,-0.89844 0.46875,-1.73828 1.40625,-2.51953 0.91016,-0.78125 1.90625,-1.17188 2.98828,-1.17188 z m 0,0"
       style="fill:#000000;fill-opacity:1;fill-rule:nonzero;stroke:none" />
    <path
       id="path300"
       d="m 259.94141,31.0664 c 0.625,0 1.15234,0.16016 1.58203,0.48829 0.40234,0.35156 0.60547,0.79296 0.60547,1.32812 0,0.89844 -0.46094,1.73828 -1.38672,2.51953 -0.9375,0.78125 -1.94141,1.17188 -3.00781,1.17188 -0.625,0 -1.15235,-0.16407 -1.58204,-0.48828 -0.40625,-0.35157 -0.60546,-0.79688 -0.60546,-1.32813 0,-0.89844 0.46875,-1.73828 1.40625,-2.51953 0.91015,-0.78125 1.90625,-1.17188 2.98828,-1.17188 z m 0,0"
       style="fill:#000000;fill-opacity:1;fill-rule:nonzero;stroke:none" />
    <path
       id="path302"
       d="m 243.66406,28.5664 c 0.625,0 1.15235,0.16016 1.58203,0.48829 0.40235,0.35156 0.60547,0.79296 0.60547,1.32812 0,0.89844 -0.46093,1.73828 -1.38672,2.51953 -0.9375,0.78125 -1.9414,1.17188 -3.00781,1.17188 -0.625,0 -1.15234,-0.16407 -1.58203,-0.48828 -0.40625,-0.35157 -0.60547,-0.79688 -0.60547,-1.32813 0,-0.89844 0.46875,-1.73828 1.40625,-2.51953 0.91016,-0.78125 1.90625,-1.17188 2.98828,-1.17188 z m 0,0"
       style="fill:#000000;fill-opacity:1;fill-rule:nonzero;stroke:none" />
    <path
       id="path308"
       d="m 292.49609,36.0664 c 0.625,0 1.15235,0.16016 1.58204,0.48829 0.40234,0.35156 0.60546,0.79296 0.60546,1.32812 0,0.89844 -0.46093,1.73828 -1.38671,2.51953 -0.9375,0.78125 -1.94141,1.17188 -3.00782,1.17188 -0.625,0 -1.15234,-0.16407 -1.58203,-0.48828 -0.40234,-0.35157 -0.60547,-0.79688 -0.60547,-1.32813 0,-0.89844 0.46875,-1.73828 1.40625,-2.51953 0.91016,-0.78125 1.90625,-1.17188 2.98828,-1.17188 z m 0,0"
       style="fill:#000000;fill-opacity:1;fill-rule:nonzero;stroke:none" />
    <path
       id="path346"
       d="m 14.292969,23.69922 c 0,0 0.03906,0 0.117187,0 0.05078,-0.0117 0.09766,-0.0195 0.136719,-0.0195 1.457031,0 2.65625,0.51562 3.59375,1.54687 0.9375,1.01563 1.40625,2.19922 1.40625,3.55469 0,1.67969 -0.695312,3.04687 -2.089843,4.10156 -0.363282,0.28516 -0.839844,0.51953 -1.425782,0.70313 0.06641,0.84375 0.09766,1.52734 0.09766,2.05078 0,0.10156 -0.01172,0.48047 -0.03906,1.13281 -0.05078,1.21094 -0.46875,2.25781 -1.25,3.14453 -0.753906,0.87109 -1.691406,1.30859 -2.8125,1.30859 -1.054688,0 -1.953125,-0.37109 -2.6953119,-1.11328 -0.742188,-0.75781 -1.113282,-1.66797 -1.113282,-2.73437 0,-0.5625 0.214844,-1.03516 0.644532,-1.42578 0.441406,-0.39063 0.957031,-0.58594 1.5429679,-0.58594 0.519532,0 0.957032,0.19922 1.308594,0.60547 0.363281,0.375 0.546875,0.84375 0.546875,1.40625 0,0.50781 -0.183594,0.9414 -0.546875,1.30859 -0.363281,0.36328 -0.800781,0.54688 -1.308594,0.54688 -0.207031,0 -0.4101559,-0.0391 -0.6054679,-0.11719 0.5742179,0.84375 1.3359369,1.26953 2.2851559,1.26953 0.898437,0 1.632812,-0.36719 2.207031,-1.09375 0.597656,-0.75781 0.925781,-1.63672 0.976563,-2.63672 0.02734,-0.625 0.03906,-0.98437 0.03906,-1.07422 0,-0.73047 -0.02734,-1.32812 -0.07813,-1.79687 -0.652344,0.10156 -1.230469,0.15625 -1.738281,0.15625 -1.808594,0 -3.351563,-0.71875 -4.6289059,-2.14844 -1.25,-1.44531 -1.875,-3.16406 -1.875,-5.15625 0,-0.41797 0.039062,-0.83984 0.117187,-1.26953 0.078125,-0.35156 0.175781,-0.73828 0.292969,-1.15625 0.066406,-0.23438 0.242187,-0.60938 0.527344,-1.13281 0.105468,-0.15625 0.222656,-0.35157 0.351562,-0.58594 0.128906,-0.23438 0.222656,-0.39063 0.273438,-0.46875 0.128906,-0.25781 0.382812,-0.60938 0.761718,-1.05469 0.105469,-0.11719 0.210938,-0.24609 0.320313,-0.39062 0.113281,-0.14063 0.207031,-0.25782 0.285156,-0.35157 0.078125,-0.0898 0.1367189,-0.16015 0.1757809,-0.21484 0.03906,-0.0508 0.332032,-0.39453 0.878906,-1.03516 0.128907,-0.1289 0.257813,-0.26953 0.382813,-0.41796 0.121094,-0.14844 0.222656,-0.26563 0.300781,-0.35157 0.07813,-0.0859 0.136719,-0.14843 0.175782,-0.1875 -0.46875,-1.54687 -0.761719,-2.78515 -0.878907,-3.71093 -0.08984,-0.74219 -0.136719,-1.75782 -0.136719,-3.04688 0,-1.13281 0.261719,-2.1914099 0.78125,-3.1835899 0.507813,-1.02735 1.21875,-1.86719 2.128907,-2.51953 0.06641,-0.0391 0.128906,-0.0586 0.195312,-0.0586 0.08984,0 0.15625,0.0195 0.195313,0.0586 0.703125,0.84765 1.308594,1.94921 1.816406,3.30078 0.519531,1.3554699 0.78125,2.5859299 0.78125,3.6913999 0,1.25 -0.300781,2.42188 -0.898438,3.51563 -0.675781,1.16015 -1.550781,2.35937 -2.617187,3.59375 0.273437,0.85937 0.636719,2.20703 1.09375,4.04297 z m 1.660156,9.08593 c 0.675781,-0.25 1.203125,-0.67187 1.582031,-1.26953 0.417969,-0.57422 0.625,-1.21875 0.625,-1.93359 0,-0.92578 -0.3125,-1.74609 -0.9375,-2.46094 -0.636718,-0.74219 -1.453124,-1.16015 -2.441406,-1.25 0.558594,2.7461 0.949219,5.05078 1.171875,6.91406 z M 8.3945321,28.27344 c 0,1.28906 0.519531,2.42187 1.5625,3.39843 1.0664059,0.94922 2.2656239,1.42578 3.5937499,1.42578 0.546874,0 1.082031,-0.0391 1.601562,-0.11718 C 14.945313,31 14.535156,28.6289 13.921875,25.87109 13.179688,25.94919 12.585938,26.20703 12.144532,26.65234 11.714844,27.10547 11.5,27.62109 11.5,28.19531 c 0,0.98828 0.527344,1.78906 1.582032,2.40234 0.08984,0.0899 0.136718,0.1875 0.136718,0.29297 0,0.10157 -0.04687,0.19922 -0.136718,0.29297 -0.07813,0.0899 -0.175782,0.13672 -0.292969,0.13672 -0.01172,0 -0.07031,-0.0156 -0.175781,-0.0391 -0.742188,-0.40625 -1.316407,-0.92578 -1.71875,-1.5625 -0.378907,-0.67969 -0.566407,-1.36328 -0.566407,-2.05078 0,-0.89844 0.28125,-1.71485 0.839844,-2.44141 0.585937,-0.73047 1.347656,-1.19922 2.285156,-1.41016 -0.363281,-1.45703 -0.664062,-2.59765 -0.898437,-3.41796 -0.207032,0.23437 -0.457032,0.51953 -0.75,0.85156 -0.292969,0.33203 -0.46875,0.53125 -0.519532,0.59375 -0.46875,0.61328 -0.828124,1.08984 -1.074218,1.42578 -0.4414059,0.61328 -0.7695319,1.14062 -0.9765629,1.58203 -0.222656,0.49609 -0.417969,1.03906 -0.585937,1.625 -0.167969,0.55859 -0.253906,1.15625 -0.253906,1.79688 z M 14.917969,8.4062501 c -0.976563,0.48437 -1.746094,1.17187 -2.304687,2.0703099 -0.574219,0.92578 -0.859376,1.92188 -0.859376,2.98828 0,0.9375 0.234376,2.20313 0.703126,3.78906 0.9375,-1.13281 1.640624,-2.17968 2.109374,-3.14453 0.496094,-1.01562 0.742188,-2.07422 0.742188,-3.18359 0,-0.83203 -0.128906,-1.6718799 -0.390625,-2.5195299 z m 0,0"
       style="fill:#000000;fill-opacity:1;fill-rule:nonzero;stroke:none" />
    <path
       id="path358"
       d="m 29.078125,14.07031 c 0.394531,0 0.726563,-0.043 1,-0.13672 0.273438,-0.0898 0.449219,-0.13672 0.527344,-0.13672 0.08984,0 0.160156,0.0273 0.214844,0.0781 0.03906,0.0391 0.0625,0.0859 0.07813,0.13672 0,0.0273 -0.01563,0.0664 -0.03906,0.11718 l -5.6875,6.60157 h 3.339844 v -2.61719 c 0,-0.16797 0.04687,-0.3125 0.136719,-0.42969 0.15625,-0.1289 0.289062,-0.20703 0.390625,-0.23437 0.171875,-0.0781 0.378906,-0.25782 0.628906,-0.54688 0.207031,-0.23437 0.453125,-0.64453 0.742187,-1.23047 0.03906,-0.0781 0.09766,-0.11718 0.175782,-0.11718 0.15625,0 0.246094,0.0937 0.273437,0.27343 v 4.90235 h 1.425781 c 0.179688,0 0.285157,0.0976 0.3125,0.29297 0,0.19531 -0.105468,0.29296 -0.3125,0.29296 h -1.425781 v 0.15625 c 0,0.52344 0.128907,0.96485 0.390625,1.32813 0.296875,0.36719 0.648438,0.54687 1.054688,0.54687 0.15625,0 0.234375,0.0781 0.234375,0.23438 0,0.15625 -0.07813,0.23437 -0.234375,0.23437 -0.273438,0 -0.71875,-0.0391 -1.328125,-0.11718 -0.5625,-0.0899 -0.996094,-0.13672 -1.308594,-0.13672 -0.328125,0 -0.765625,0.0469 -1.3125,0.13672 -0.585937,0.0781 -1.019531,0.11718 -1.308594,0.11718 -0.15625,0 -0.234375,-0.0781 -0.234375,-0.23437 0,-0.15625 0.07813,-0.23438 0.234375,-0.23438 0.40625,0 0.757813,-0.17968 1.054688,-0.54687 0.273437,-0.36328 0.410156,-0.80469 0.410156,-1.32813 v -0.15625 h -3.339844 c -0.21875,0 -0.375,-0.0508 -0.46875,-0.15625 -0.101562,-0.0781 -0.15625,-0.17968 -0.15625,-0.3125 0,-0.0391 0.09766,-0.17578 0.292969,-0.41015 0.222656,-0.25781 0.457031,-0.57813 0.703125,-0.95703 0.289063,-0.44141 0.5625,-0.89844 0.820313,-1.36719 0.289062,-0.53125 0.515624,-1.14453 0.683593,-1.83594 0.195313,-0.70312 0.292969,-1.41797 0.292969,-2.14844 0,-0.20703 0.09375,-0.3125 0.273438,-0.3125 0.03906,0 0.125,0.0195 0.253906,0.0586 0.03906,0.0156 0.121094,0.0352 0.246094,0.0586 0.125,0.0273 0.222656,0.0547 0.300781,0.0781 0.234375,0.0391 0.457031,0.0586 0.664062,0.0586 z m 0,0"
       style="fill:#000000;fill-opacity:1;fill-rule:nonzero;stroke:none" />
    <path
       id="path360"
       d="m 29.078125,24.07031 c 0.394531,0 0.726563,-0.043 1,-0.13672 0.273438,-0.0898 0.449219,-0.13672 0.527344,-0.13672 0.08984,0 0.160156,0.0274 0.214844,0.0781 0.03906,0.0391 0.0625,0.0859 0.07813,0.13672 0,0.0273 -0.01563,0.0664 -0.03906,0.11718 l -5.6875,6.60547 h 3.339844 v -2.61718 c 0,-0.17188 0.04687,-0.3125 0.136719,-0.42969 0.15625,-0.13281 0.289062,-0.21094 0.390625,-0.23438 0.171875,-0.0781 0.378906,-0.26172 0.628906,-0.54687 0.207031,-0.23438 0.453125,-0.64453 0.742187,-1.23047 0.03906,-0.0781 0.09766,-0.11719 0.175782,-0.11719 0.15625,0 0.246094,0.0899 0.273437,0.27344 v 4.90234 h 1.425781 c 0.179688,0 0.285157,0.0977 0.3125,0.29297 0,0.19531 -0.105468,0.29297 -0.3125,0.29297 h -1.425781 v 0.15625 c 0,0.51953 0.128907,0.96094 0.390625,1.32813 0.296875,0.36328 0.648438,0.54687 1.054688,0.54687 0.15625,0 0.234375,0.0781 0.234375,0.23438 0,0.15625 -0.07813,0.23437 -0.234375,0.23437 -0.273438,0 -0.71875,-0.0391 -1.328125,-0.11719 -0.5625,-0.0937 -0.996094,-0.13672 -1.308594,-0.13672 -0.328125,0 -0.765625,0.043 -1.3125,0.13672 -0.585937,0.0781 -1.019531,0.11719 -1.308594,0.11719 -0.15625,0 -0.234375,-0.0781 -0.234375,-0.23437 0,-0.15625 0.07813,-0.23438 0.234375,-0.23438 0.40625,0 0.757813,-0.18359 1.054688,-0.54687 0.273437,-0.36719 0.410156,-0.8086 0.410156,-1.32813 v -0.15625 h -3.339844 c -0.21875,0 -0.375,-0.0547 -0.46875,-0.15625 -0.101562,-0.0781 -0.15625,-0.18359 -0.15625,-0.3125 0,-0.0391 0.09766,-0.17578 0.292969,-0.41016 0.222656,-0.26171 0.457031,-0.58203 0.703125,-0.95703 0.289063,-0.44531 0.5625,-0.89843 0.820313,-1.36718 0.289062,-0.53516 0.515624,-1.14844 0.683593,-1.83594 0.195313,-0.70313 0.292969,-1.42188 0.292969,-2.15235 0,-0.20703 0.09375,-0.3125 0.273438,-0.3125 0.03906,0 0.125,0.0195 0.253906,0.0586 0.03906,0.0156 0.121094,0.0351 0.246094,0.0586 0.125,0.0274 0.222656,0.0547 0.300781,0.0781 0.234375,0.0391 0.457031,0.0586 0.664062,0.0586 z m 0,0"
       style="fill:#000000;fill-opacity:1;fill-rule:nonzero;stroke:none" />
    <path
       id="path382"
       d="m 47.273438,22.65234 47.90625,-6.33594 v 2.5 l -47.90625,6.33985 z m 0,0"
       style="fill:#000000;fill-opacity:1;fill-rule:evenodd;stroke:none" />
    <path
       id="path384"
       d="m 110.28125,8.8867201 47.90625,-5.07032 v 2.5 L 110.28125,11.38672 Z m 0,0"
       style="fill:#000000;fill-opacity:1;fill-rule:evenodd;stroke:none" />
    <path
       id="path386"
       d="m 180.09375,3.7500001 49.48047,5.0664 V 11.3164 L 180.09375,6.2500001 Z m 0,0"
       style="fill:#000000;fill-opacity:1;fill-rule:evenodd;stroke:none" />
    <path
       id="path388"
       d="m 245.20313,16.23437 49.48046,6.33203 v 2.50391 l -49.48046,-6.33594 z m 0,0"
       style="fill:#000000;fill-opacity:1;fill-rule:evenodd;stroke:none" />
  </g>
</svg>
