<?xml version="1.0" encoding="UTF-8" standalone="no"?>
<svg
   xmlns:dc="http://purl.org/dc/elements/1.1/"
   xmlns:cc="http://creativecommons.org/ns#"
   xmlns:rdf="http://www.w3.org/1999/02/22-rdf-syntax-ns#"
   xmlns:svg="http://www.w3.org/2000/svg"
   xmlns="http://www.w3.org/2000/svg"
   xmlns:sodipodi="http://sodipodi.sourceforge.net/DTD/sodipodi-0.dtd"
   xmlns:inkscape="http://www.inkscape.org/namespaces/inkscape"
   inkscape:version="1.0 (4035a4f, 2020-05-01)"
   sodipodi:docname="scales_chrom.svg"
   id="svg99"
   version="1.2"
   viewBox="0 0 200 50"
   height="50pt"
   width="200pt">
  <metadata
     id="metadata105">
    <rdf:RDF>
      <cc:Work
         rdf:about="">
        <dc:format>image/svg+xml</dc:format>
        <dc:type
           rdf:resource="http://purl.org/dc/dcmitype/StillImage" />
        <dc:title></dc:title>
      </cc:Work>
    </rdf:RDF>
  </metadata>
  <defs
     id="defs103" />
  <sodipodi:namedview
     inkscape:current-layer="svg99"
     inkscape:window-maximized="0"
     inkscape:window-y="23"
     inkscape:window-x="0"
     inkscape:cy="33.333333"
     inkscape:cx="133.33333"
     inkscape:zoom="4.79625"
     showgrid="false"
     id="namedview101"
     inkscape:window-height="480"
     inkscape:window-width="741"
     inkscape:pageshadow="2"
     inkscape:pageopacity="0"
     guidetolerance="10"
     gridtolerance="10"
     objecttolerance="10"
     borderopacity="1"
     bordercolor="#666666"
     pagecolor="#ffffff" />
  <g
     id="surface3432">
    <path
       id="path10"
       d="M 3.75 11.128906 L 113.152344 11.128906 M 3.75 15.5625 L 113.152344 15.5625 M 3.75 19.992188 L 113.152344 19.992188 M 3.75 24.425781 L 113.152344 24.425781 M 3.75 28.859375 L 113.152344 28.859375 "
       style="fill:none;stroke-width:0.354671;stroke-linecap:butt;stroke-linejoin:bevel;stroke:rgb(0%,0%,0%);stroke-opacity:1;stroke-miterlimit:10;" />
    <path
       id="path12"
       d="M 113.152344 11.128906 L 185.007812 11.128906 M 113.152344 15.5625 L 185.007812 15.5625 M 113.152344 19.992188 L 185.007812 19.992188 M 113.152344 24.425781 L 185.007812 24.425781 M 113.152344 28.859375 L 185.007812 28.859375 "
       style="fill:none;stroke-width:0.354671;stroke-linecap:butt;stroke-linejoin:bevel;stroke:rgb(0%,0%,0%);stroke-opacity:1;stroke-miterlimit:10;" />
    <path
       id="path14"
       d="M 112.800781 11.128906 L 112.800781 28.859375 "
       style="fill:none;stroke-width:0.709342;stroke-linecap:butt;stroke-linejoin:bevel;stroke:rgb(0%,0%,0%);stroke-opacity:1;stroke-miterlimit:10;" />
    <path
       id="path16"
       d="M 184.652344 11.128906 L 184.652344 28.859375 "
       style="fill:none;stroke-width:0.709342;stroke-linecap:butt;stroke-linejoin:bevel;stroke:rgb(0%,0%,0%);stroke-opacity:1;stroke-miterlimit:10;" />
    <path
       id="path18"
       d="M 37.253906 38.820312 C 37.253906 39.039062 37.144531 39.148438 36.925781 39.148438 C 36.703125 39.148438 36.59375 39.039062 36.59375 38.820312 L 36.59375 36.253906 L 35.125 36.808594 L 35.125 39.617188 C 35.125 39.835938 35.011719 39.945312 34.792969 39.945312 C 34.574219 39.945312 34.464844 39.835938 34.464844 39.617188 L 34.464844 37.035156 L 33.910156 37.242188 C 33.898438 37.253906 33.851562 37.261719 33.773438 37.261719 C 33.679688 37.261719 33.597656 37.226562 33.53125 37.15625 C 33.460938 37.085938 33.425781 37.007812 33.425781 36.914062 L 33.425781 35.839844 C 33.425781 35.667969 33.5 35.558594 33.652344 35.511719 L 34.464844 35.234375 L 34.464844 32.394531 L 33.910156 32.585938 C 33.898438 32.597656 33.851562 32.601562 33.773438 32.601562 C 33.679688 32.601562 33.597656 32.566406 33.53125 32.496094 C 33.460938 32.429688 33.425781 32.347656 33.425781 32.253906 L 33.425781 31.179688 C 33.425781 31.019531 33.5 30.914062 33.652344 30.871094 L 34.464844 30.558594 L 34.464844 27.769531 C 34.464844 27.550781 34.574219 27.441406 34.792969 27.441406 C 35.011719 27.441406 35.125 27.550781 35.125 27.769531 L 35.125 30.332031 L 36.59375 29.777344 L 36.59375 26.972656 C 36.59375 26.753906 36.703125 26.644531 36.925781 26.644531 C 37.144531 26.644531 37.253906 26.753906 37.253906 26.972656 L 37.253906 29.554688 L 37.824219 29.347656 C 37.835938 29.335938 37.875 29.328125 37.945312 29.328125 C 38.027344 29.328125 38.113281 29.363281 38.207031 29.433594 C 38.273438 29.5 38.308594 29.582031 38.308594 29.675781 L 38.308594 30.75 C 38.308594 30.910156 38.230469 31.019531 38.066406 31.078125 L 37.253906 31.355469 L 37.253906 34.195312 L 37.824219 34.003906 C 37.835938 33.992188 37.875 33.988281 37.945312 33.988281 C 38.027344 33.988281 38.113281 34.023438 38.207031 34.089844 C 38.273438 34.160156 38.308594 34.242188 38.308594 34.332031 L 38.308594 35.40625 C 38.308594 35.558594 38.230469 35.660156 38.066406 35.71875 L 37.253906 36.03125 Z M 36.59375 31.613281 L 35.125 32.132812 L 35.125 34.972656 L 36.59375 34.453125 Z M 36.59375 31.613281 "
       style=" stroke:none;fill-rule:nonzero;fill:rgb(0%,0%,0%);fill-opacity:1;" />
    <path
       id="path20"
       d="M 60.53125 36.601562 C 60.53125 36.820312 60.421875 36.929688 60.203125 36.929688 C 59.980469 36.929688 59.871094 36.820312 59.871094 36.601562 L 59.871094 34.039062 L 58.398438 34.59375 L 58.398438 37.398438 C 58.398438 37.617188 58.289062 37.726562 58.070312 37.726562 C 57.851562 37.726562 57.742188 37.617188 57.742188 37.398438 L 57.742188 34.816406 L 57.1875 35.027344 C 57.175781 35.039062 57.128906 35.042969 57.050781 35.042969 C 56.957031 35.042969 56.875 35.007812 56.808594 34.9375 C 56.738281 34.871094 56.703125 34.789062 56.703125 34.695312 L 56.703125 33.625 C 56.703125 33.449219 56.777344 33.339844 56.929688 33.292969 L 57.742188 33.015625 L 57.742188 30.175781 L 57.1875 30.367188 C 57.175781 30.378906 57.128906 30.386719 57.050781 30.386719 C 56.957031 30.386719 56.875 30.351562 56.808594 30.28125 C 56.738281 30.210938 56.703125 30.128906 56.703125 30.039062 L 56.703125 28.964844 C 56.703125 28.804688 56.777344 28.699219 56.929688 28.652344 L 57.742188 28.339844 L 57.742188 25.554688 C 57.742188 25.332031 57.851562 25.222656 58.070312 25.222656 C 58.289062 25.222656 58.398438 25.332031 58.398438 25.554688 L 58.398438 28.117188 L 59.871094 27.5625 L 59.871094 24.757812 C 59.871094 24.539062 59.980469 24.425781 60.203125 24.425781 C 60.421875 24.425781 60.53125 24.539062 60.53125 24.757812 L 60.53125 27.335938 L 61.101562 27.128906 C 61.113281 27.117188 61.152344 27.113281 61.222656 27.113281 C 61.304688 27.113281 61.390625 27.144531 61.484375 27.214844 C 61.550781 27.285156 61.585938 27.367188 61.585938 27.457031 L 61.585938 28.53125 C 61.585938 28.695312 61.507812 28.804688 61.34375 28.859375 L 60.53125 29.136719 L 60.53125 31.976562 L 61.101562 31.789062 C 61.113281 31.777344 61.152344 31.769531 61.222656 31.769531 C 61.304688 31.769531 61.390625 31.804688 61.484375 31.875 C 61.550781 31.945312 61.585938 32.023438 61.585938 32.117188 L 61.585938 33.191406 C 61.585938 33.339844 61.507812 33.445312 61.34375 33.503906 L 60.53125 33.8125 Z M 59.871094 29.398438 L 58.398438 29.917969 L 58.398438 32.757812 L 59.871094 32.238281 Z M 59.871094 29.398438 "
       style=" stroke:none;fill-rule:nonzero;fill:rgb(0%,0%,0%);fill-opacity:1;" />
    <path
       id="path22"
       d="M 91.53125 32.167969 C 91.53125 32.386719 91.421875 32.496094 91.203125 32.496094 C 90.984375 32.496094 90.875 32.386719 90.875 32.167969 L 90.875 29.605469 L 89.402344 30.160156 L 89.402344 32.964844 C 89.402344 33.183594 89.292969 33.292969 89.074219 33.292969 C 88.851562 33.292969 88.742188 33.183594 88.742188 32.964844 L 88.742188 30.386719 L 88.1875 30.59375 C 88.179688 30.605469 88.132812 30.609375 88.050781 30.609375 C 87.957031 30.609375 87.878906 30.574219 87.808594 30.507812 C 87.738281 30.4375 87.703125 30.355469 87.703125 30.261719 L 87.703125 29.191406 C 87.703125 29.015625 87.78125 28.90625 87.929688 28.859375 L 88.742188 28.582031 L 88.742188 25.742188 L 88.1875 25.933594 C 88.179688 25.945312 88.132812 25.953125 88.050781 25.953125 C 87.957031 25.953125 87.878906 25.917969 87.808594 25.847656 C 87.738281 25.777344 87.703125 25.699219 87.703125 25.605469 L 87.703125 24.53125 C 87.703125 24.371094 87.78125 24.265625 87.929688 24.21875 L 88.742188 23.90625 L 88.742188 21.121094 C 88.742188 20.898438 88.851562 20.789062 89.074219 20.789062 C 89.292969 20.789062 89.402344 20.898438 89.402344 21.121094 L 89.402344 23.683594 L 90.875 23.128906 L 90.875 20.324219 C 90.875 20.105469 90.984375 19.992188 91.203125 19.992188 C 91.421875 19.992188 91.53125 20.105469 91.53125 20.324219 L 91.53125 22.902344 L 92.101562 22.695312 C 92.113281 22.683594 92.15625 22.679688 92.222656 22.679688 C 92.304688 22.679688 92.390625 22.714844 92.484375 22.78125 C 92.554688 22.851562 92.589844 22.933594 92.589844 23.023438 L 92.589844 24.097656 C 92.589844 24.261719 92.507812 24.371094 92.34375 24.425781 L 91.53125 24.703125 L 91.53125 27.542969 L 92.101562 27.355469 C 92.113281 27.34375 92.15625 27.335938 92.222656 27.335938 C 92.304688 27.335938 92.390625 27.371094 92.484375 27.441406 C 92.554688 27.511719 92.589844 27.589844 92.589844 27.683594 L 92.589844 28.757812 C 92.589844 28.90625 92.507812 29.011719 92.34375 29.070312 L 91.53125 29.378906 Z M 90.875 24.964844 L 89.402344 25.484375 L 89.402344 28.324219 L 90.875 27.804688 Z M 90.875 24.964844 "
       style=" stroke:none;fill-rule:nonzero;fill:rgb(0%,0%,0%);fill-opacity:1;" />
    <path
       id="path24"
       d="M 119.285156 29.953125 C 119.285156 30.171875 119.175781 30.28125 118.957031 30.28125 C 118.738281 30.28125 118.628906 30.171875 118.628906 29.953125 L 118.628906 27.390625 L 117.15625 27.941406 L 117.15625 30.75 C 117.15625 30.96875 117.046875 31.078125 116.828125 31.078125 C 116.609375 31.078125 116.5 30.96875 116.5 30.75 L 116.5 28.167969 L 115.945312 28.375 C 115.933594 28.386719 115.886719 28.394531 115.804688 28.394531 C 115.714844 28.394531 115.632812 28.359375 115.5625 28.289062 C 115.492188 28.21875 115.460938 28.140625 115.460938 28.046875 L 115.460938 26.972656 C 115.460938 26.800781 115.535156 26.691406 115.683594 26.644531 L 116.5 26.367188 L 116.5 23.527344 L 115.945312 23.71875 C 115.933594 23.730469 115.886719 23.734375 115.804688 23.734375 C 115.714844 23.734375 115.632812 23.699219 115.5625 23.628906 C 115.492188 23.5625 115.460938 23.480469 115.460938 23.386719 L 115.460938 22.316406 C 115.460938 22.152344 115.535156 22.050781 115.683594 22.003906 L 116.5 21.691406 L 116.5 18.902344 C 116.5 18.683594 116.609375 18.574219 116.828125 18.574219 C 117.046875 18.574219 117.15625 18.683594 117.15625 18.902344 L 117.15625 21.464844 L 118.628906 20.910156 L 118.628906 18.105469 C 118.628906 17.886719 118.738281 17.777344 118.957031 17.777344 C 119.175781 17.777344 119.285156 17.886719 119.285156 18.105469 L 119.285156 20.6875 L 119.859375 20.480469 C 119.871094 20.46875 119.910156 20.460938 119.980469 20.460938 C 120.058594 20.460938 120.148438 20.496094 120.238281 20.566406 C 120.308594 20.636719 120.34375 20.714844 120.34375 20.808594 L 120.34375 21.882812 C 120.34375 22.042969 120.261719 22.152344 120.101562 22.210938 L 119.285156 22.488281 L 119.285156 25.328125 L 119.859375 25.136719 C 119.871094 25.125 119.910156 25.121094 119.980469 25.121094 C 120.058594 25.121094 120.148438 25.15625 120.238281 25.222656 C 120.308594 25.292969 120.34375 25.375 120.34375 25.464844 L 120.34375 26.539062 C 120.34375 26.691406 120.261719 26.792969 120.101562 26.851562 L 119.285156 27.164062 Z M 118.628906 22.746094 L 117.15625 23.265625 L 117.15625 26.105469 L 118.628906 25.585938 Z M 118.628906 22.746094 "
       style=" stroke:none;fill-rule:nonzero;fill:rgb(0%,0%,0%);fill-opacity:1;" />
    <path
       id="path26"
       d="M 140.519531 27.734375 C 140.519531 27.953125 140.410156 28.0625 140.191406 28.0625 C 139.972656 28.0625 139.863281 27.953125 139.863281 27.734375 L 139.863281 25.171875 L 138.390625 25.726562 L 138.390625 28.53125 C 138.390625 28.75 138.28125 28.859375 138.0625 28.859375 C 137.84375 28.859375 137.730469 28.75 137.730469 28.53125 L 137.730469 25.953125 L 137.179688 26.160156 C 137.167969 26.171875 137.121094 26.175781 137.039062 26.175781 C 136.945312 26.175781 136.867188 26.140625 136.796875 26.074219 C 136.726562 26.003906 136.691406 25.921875 136.691406 25.832031 L 136.691406 24.757812 C 136.691406 24.582031 136.769531 24.472656 136.917969 24.425781 L 137.730469 24.148438 L 137.730469 21.308594 L 137.179688 21.5 C 137.167969 21.511719 137.121094 21.519531 137.039062 21.519531 C 136.945312 21.519531 136.867188 21.484375 136.796875 21.414062 C 136.726562 21.34375 136.691406 21.265625 136.691406 21.171875 L 136.691406 20.097656 C 136.691406 19.9375 136.769531 19.832031 136.917969 19.785156 L 137.730469 19.472656 L 137.730469 16.6875 C 137.730469 16.46875 137.84375 16.355469 138.0625 16.355469 C 138.28125 16.355469 138.390625 16.46875 138.390625 16.6875 L 138.390625 19.25 L 139.863281 18.695312 L 139.863281 15.890625 C 139.863281 15.671875 139.972656 15.5625 140.191406 15.5625 C 140.410156 15.5625 140.519531 15.671875 140.519531 15.890625 L 140.519531 18.46875 L 141.09375 18.261719 C 141.101562 18.25 141.144531 18.246094 141.214844 18.246094 C 141.292969 18.246094 141.378906 18.28125 141.472656 18.347656 C 141.542969 18.417969 141.578125 18.5 141.578125 18.589844 L 141.578125 19.664062 C 141.578125 19.828125 141.496094 19.9375 141.335938 19.992188 L 140.519531 20.269531 L 140.519531 23.109375 L 141.09375 22.921875 C 141.101562 22.910156 141.144531 22.902344 141.214844 22.902344 C 141.292969 22.902344 141.378906 22.9375 141.472656 23.007812 C 141.542969 23.078125 141.578125 23.15625 141.578125 23.25 L 141.578125 24.324219 C 141.578125 24.472656 141.496094 24.578125 141.335938 24.636719 L 140.519531 24.945312 Z M 139.863281 20.53125 L 138.390625 21.050781 L 138.390625 23.890625 L 139.863281 23.371094 Z M 139.863281 20.53125 "
       style=" stroke:none;fill-rule:nonzero;fill:rgb(0%,0%,0%);fill-opacity:1;" />
    <path
       id="path28"
       d="M 24.175781 33.292969 L 32.671875 33.292969 "
       style="fill:none;stroke-width:0.709342;stroke-linecap:square;stroke-linejoin:bevel;stroke:rgb(0%,0%,0%);stroke-opacity:1;stroke-miterlimit:10;" />
    <path
       id="path30"
       d="M 38.84375 33.292969 L 47.339844 33.292969 "
       style="fill:none;stroke-width:0.709342;stroke-linecap:square;stroke-linejoin:bevel;stroke:rgb(0%,0%,0%);stroke-opacity:1;stroke-miterlimit:10;" />
    <path
       id="path32"
       d="M 31.054688 32.460938 L 31.054688 19.992188 "
       style="fill:none;stroke-width:0.57634;stroke-linecap:round;stroke-linejoin:bevel;stroke:rgb(0%,0%,0%);stroke-opacity:1;stroke-miterlimit:10;" />
    <path
       id="path34"
       d="M 45.71875 32.460938 L 45.71875 19.554688 "
       style="fill:none;stroke-width:0.57634;stroke-linecap:round;stroke-linejoin:bevel;stroke:rgb(0%,0%,0%);stroke-opacity:1;stroke-miterlimit:10;" />
    <path
       id="path36"
       d="M 68.109375 30.246094 L 68.109375 18.886719 "
       style="fill:none;stroke-width:0.57634;stroke-linecap:round;stroke-linejoin:bevel;stroke:rgb(0%,0%,0%);stroke-opacity:1;stroke-miterlimit:10;" />
    <path
       id="path38"
       d="M 54.332031 30.246094 L 54.332031 19.296875 "
       style="fill:none;stroke-width:0.57634;stroke-linecap:round;stroke-linejoin:bevel;stroke:rgb(0%,0%,0%);stroke-opacity:1;stroke-miterlimit:10;" />
    <path
       id="path40"
       d="M 85.332031 25.8125 L 85.332031 13.222656 "
       style="fill:none;stroke-width:0.57634;stroke-linecap:round;stroke-linejoin:bevel;stroke:rgb(0%,0%,0%);stroke-opacity:1;stroke-miterlimit:10;" />
    <path
       id="path42"
       d="M 76.722656 28.027344 L 76.722656 14.453125 "
       style="fill:none;stroke-width:0.57634;stroke-linecap:round;stroke-linejoin:bevel;stroke:rgb(0%,0%,0%);stroke-opacity:1;stroke-miterlimit:10;" />
    <path
       id="path44"
       d="M 99.113281 25.8125 L 99.113281 11.25 "
       style="fill:none;stroke-width:0.57634;stroke-linecap:round;stroke-linejoin:bevel;stroke:rgb(0%,0%,0%);stroke-opacity:1;stroke-miterlimit:10;" />
    <path
       id="path46"
       d="M 107.722656 23.59375 L 107.722656 10.019531 "
       style="fill:none;stroke-width:0.57634;stroke-linecap:round;stroke-linejoin:bevel;stroke:rgb(0%,0%,0%);stroke-opacity:1;stroke-miterlimit:10;" />
    <path
       id="path48"
       d="M 134.320312 21.378906 L 134.320312 8.867188 "
       style="fill:none;stroke-width:0.57634;stroke-linecap:round;stroke-linejoin:bevel;stroke:rgb(0%,0%,0%);stroke-opacity:1;stroke-miterlimit:10;" />
    <path
       id="path50"
       d="M 126.867188 23.59375 L 126.867188 10.019531 "
       style="fill:none;stroke-width:0.57634;stroke-linecap:round;stroke-linejoin:bevel;stroke:rgb(0%,0%,0%);stroke-opacity:1;stroke-miterlimit:10;" />
    <path
       id="path52"
       d="M 155.554688 19.160156 L 155.554688 5.585938 "
       style="fill:none;stroke-width:0.57634;stroke-linecap:round;stroke-linejoin:bevel;stroke:rgb(0%,0%,0%);stroke-opacity:1;stroke-miterlimit:10;" />
    <path
       id="path54"
       d="M 148.101562 21.378906 L 148.101562 6.738281 "
       style="fill:none;stroke-width:0.57634;stroke-linecap:round;stroke-linejoin:bevel;stroke:rgb(0%,0%,0%);stroke-opacity:1;stroke-miterlimit:10;" />
    <path
       id="path56"
       d="M 157.75 18.609375 L 157.75 33.292969 "
       style="fill:none;stroke-width:0.57634;stroke-linecap:round;stroke-linejoin:bevel;stroke:rgb(0%,0%,0%);stroke-opacity:1;stroke-miterlimit:10;" />
    <path
       id="path58"
       d="M 29.402344 30.851562 C 29.957031 30.851562 30.425781 30.996094 30.804688 31.285156 C 31.164062 31.597656 31.339844 31.988281 31.339844 32.464844 C 31.339844 33.257812 30.933594 34.003906 30.113281 34.695312 C 29.28125 35.390625 28.390625 35.734375 27.445312 35.734375 C 26.890625 35.734375 26.421875 35.589844 26.042969 35.304688 C 25.683594 34.992188 25.503906 34.597656 25.503906 34.125 C 25.503906 33.328125 25.921875 32.585938 26.753906 31.890625 C 27.5625 31.199219 28.445312 30.851562 29.402344 30.851562 Z M 29.402344 30.851562 "
       style=" stroke:none;fill-rule:nonzero;fill:rgb(0%,0%,0%);fill-opacity:1;" />
    <path
       id="path60"
       d="M 52.679688 28.636719 C 53.234375 28.636719 53.699219 28.78125 54.082031 29.070312 C 54.441406 29.378906 54.617188 29.773438 54.617188 30.246094 C 54.617188 31.042969 54.207031 31.789062 53.390625 32.480469 C 52.558594 33.171875 51.667969 33.519531 50.722656 33.519531 C 50.167969 33.519531 49.699219 33.375 49.320312 33.085938 C 48.960938 32.773438 48.78125 32.382812 48.78125 31.910156 C 48.78125 31.113281 49.199219 30.367188 50.03125 29.675781 C 50.835938 28.980469 51.722656 28.636719 52.679688 28.636719 Z M 52.679688 28.636719 "
       style=" stroke:none;fill-rule:nonzero;fill:rgb(0%,0%,0%);fill-opacity:1;" />
    <path
       id="path62"
       d="M 44.070312 30.851562 C 44.621094 30.851562 45.089844 30.996094 45.472656 31.285156 C 45.828125 31.597656 46.007812 31.988281 46.007812 32.464844 C 46.007812 33.257812 45.597656 34.003906 44.777344 34.695312 C 43.945312 35.390625 43.058594 35.734375 42.113281 35.734375 C 41.558594 35.734375 41.089844 35.589844 40.707031 35.304688 C 40.351562 34.992188 40.171875 34.597656 40.171875 34.125 C 40.171875 33.328125 40.585938 32.585938 41.417969 31.890625 C 42.226562 31.199219 43.109375 30.851562 44.070312 30.851562 Z M 44.070312 30.851562 "
       style=" stroke:none;fill-rule:nonzero;fill:rgb(0%,0%,0%);fill-opacity:1;" />
    <path
       id="path64"
       d="M 66.457031 28.636719 C 67.011719 28.636719 67.480469 28.78125 67.863281 29.070312 C 68.21875 29.378906 68.398438 29.773438 68.398438 30.246094 C 68.398438 31.042969 67.988281 31.789062 67.167969 32.480469 C 66.335938 33.171875 65.449219 33.519531 64.5 33.519531 C 63.949219 33.519531 63.480469 33.375 63.097656 33.085938 C 62.742188 32.773438 62.5625 32.382812 62.5625 31.910156 C 62.5625 31.113281 62.976562 30.367188 63.808594 29.675781 C 64.617188 28.980469 65.5 28.636719 66.457031 28.636719 Z M 66.457031 28.636719 "
       style=" stroke:none;fill-rule:nonzero;fill:rgb(0%,0%,0%);fill-opacity:1;" />
    <path
       id="path66"
       d="M 83.679688 24.203125 C 84.234375 24.203125 84.703125 24.347656 85.082031 24.636719 C 85.441406 24.945312 85.621094 25.339844 85.621094 25.8125 C 85.621094 26.609375 85.210938 27.355469 84.390625 28.046875 C 83.558594 28.738281 82.671875 29.085938 81.722656 29.085938 C 81.167969 29.085938 80.703125 28.941406 80.320312 28.652344 C 79.960938 28.339844 79.785156 27.949219 79.785156 27.476562 C 79.785156 26.679688 80.199219 25.933594 81.03125 25.242188 C 81.839844 24.546875 82.722656 24.203125 83.679688 24.203125 Z M 83.679688 24.203125 "
       style=" stroke:none;fill-rule:nonzero;fill:rgb(0%,0%,0%);fill-opacity:1;" />
    <path
       id="path68"
       d="M 75.070312 26.417969 C 75.625 26.417969 76.089844 26.5625 76.472656 26.851562 C 76.832031 27.164062 77.007812 27.554688 77.007812 28.03125 C 77.007812 28.828125 76.597656 29.570312 75.78125 30.261719 C 74.949219 30.957031 74.058594 31.300781 73.113281 31.300781 C 72.558594 31.300781 72.089844 31.160156 71.710938 30.871094 C 71.351562 30.558594 71.171875 30.164062 71.171875 29.691406 C 71.171875 28.894531 71.589844 28.152344 72.421875 27.457031 C 73.226562 26.765625 74.109375 26.417969 75.070312 26.417969 Z M 75.070312 26.417969 "
       style=" stroke:none;fill-rule:nonzero;fill:rgb(0%,0%,0%);fill-opacity:1;" />
    <path
       id="path70"
       d="M 106.070312 21.984375 C 106.625 21.984375 107.09375 22.128906 107.472656 22.417969 C 107.832031 22.730469 108.011719 23.121094 108.011719 23.597656 C 108.011719 24.394531 107.601562 25.136719 106.78125 25.832031 C 105.949219 26.523438 105.0625 26.871094 104.113281 26.871094 C 103.558594 26.871094 103.09375 26.726562 102.710938 26.4375 C 102.351562 26.125 102.175781 25.730469 102.175781 25.257812 C 102.175781 24.460938 102.589844 23.71875 103.421875 23.023438 C 104.230469 22.332031 105.113281 21.984375 106.070312 21.984375 Z M 106.070312 21.984375 "
       style=" stroke:none;fill-rule:nonzero;fill:rgb(0%,0%,0%);fill-opacity:1;" />
    <path
       id="path72"
       d="M 97.460938 24.203125 C 98.015625 24.203125 98.480469 24.347656 98.863281 24.636719 C 99.21875 24.945312 99.398438 25.339844 99.398438 25.8125 C 99.398438 26.609375 98.988281 27.355469 98.171875 28.046875 C 97.339844 28.738281 96.449219 29.085938 95.503906 29.085938 C 94.949219 29.085938 94.480469 28.941406 94.101562 28.652344 C 93.742188 28.339844 93.5625 27.949219 93.5625 27.476562 C 93.5625 26.679688 93.980469 25.933594 94.808594 25.242188 C 95.617188 24.546875 96.5 24.203125 97.460938 24.203125 Z M 97.460938 24.203125 "
       style=" stroke:none;fill-rule:nonzero;fill:rgb(0%,0%,0%);fill-opacity:1;" />
    <path
       id="path74"
       d="M 125.214844 21.984375 C 125.769531 21.984375 126.238281 22.128906 126.617188 22.417969 C 126.976562 22.730469 127.15625 23.121094 127.15625 23.597656 C 127.15625 24.394531 126.746094 25.136719 125.925781 25.832031 C 125.09375 26.523438 124.203125 26.871094 123.257812 26.871094 C 122.703125 26.871094 122.234375 26.726562 121.855469 26.4375 C 121.496094 26.125 121.316406 25.730469 121.316406 25.257812 C 121.316406 24.460938 121.734375 23.71875 122.566406 23.023438 C 123.375 22.332031 124.257812 21.984375 125.214844 21.984375 Z M 125.214844 21.984375 "
       style=" stroke:none;fill-rule:nonzero;fill:rgb(0%,0%,0%);fill-opacity:1;" />
    <path
       id="path76"
       d="M 146.449219 19.769531 C 147.003906 19.769531 147.46875 19.914062 147.851562 20.203125 C 148.210938 20.511719 148.386719 20.90625 148.386719 21.378906 C 148.386719 22.175781 147.976562 22.921875 147.160156 23.613281 C 146.328125 24.304688 145.4375 24.652344 144.492188 24.652344 C 143.9375 24.652344 143.46875 24.507812 143.089844 24.21875 C 142.730469 23.90625 142.550781 23.515625 142.550781 23.042969 C 142.550781 22.246094 142.96875 21.5 143.800781 20.808594 C 144.605469 20.117188 145.492188 19.769531 146.449219 19.769531 Z M 146.449219 19.769531 "
       style=" stroke:none;fill-rule:nonzero;fill:rgb(0%,0%,0%);fill-opacity:1;" />
    <path
       id="path78"
       d="M 132.667969 19.769531 C 133.222656 19.769531 133.691406 19.914062 134.070312 20.203125 C 134.429688 20.511719 134.609375 20.90625 134.609375 21.378906 C 134.609375 22.175781 134.199219 22.921875 133.378906 23.613281 C 132.546875 24.304688 131.660156 24.652344 130.710938 24.652344 C 130.15625 24.652344 129.691406 24.507812 129.308594 24.21875 C 128.953125 23.90625 128.773438 23.515625 128.773438 23.042969 C 128.773438 22.246094 129.1875 21.5 130.019531 20.808594 C 130.828125 20.117188 131.710938 19.769531 132.667969 19.769531 Z M 132.667969 19.769531 "
       style=" stroke:none;fill-rule:nonzero;fill:rgb(0%,0%,0%);fill-opacity:1;" />
    <path
       id="path80"
       d="M 161.359375 15.335938 C 161.910156 15.335938 162.378906 15.480469 162.761719 15.769531 C 163.117188 16.082031 163.296875 16.472656 163.296875 16.945312 C 163.296875 17.742188 162.886719 18.488281 162.066406 19.179688 C 161.238281 19.871094 160.347656 20.21875 159.402344 20.21875 C 158.847656 20.21875 158.378906 20.074219 157.996094 19.785156 C 157.640625 19.472656 157.460938 19.082031 157.460938 18.609375 C 157.460938 17.8125 157.875 17.066406 158.707031 16.375 C 159.515625 15.683594 160.398438 15.335938 161.359375 15.335938 Z M 161.359375 15.335938 "
       style=" stroke:none;fill-rule:nonzero;fill:rgb(0%,0%,0%);fill-opacity:1;" />
    <path
       id="path82"
       d="M 153.902344 17.550781 C 154.457031 17.550781 154.925781 17.695312 155.304688 17.984375 C 155.664062 18.296875 155.84375 18.6875 155.84375 19.164062 C 155.84375 19.960938 155.433594 20.703125 154.613281 21.398438 C 153.78125 22.089844 152.894531 22.4375 151.945312 22.4375 C 151.390625 22.4375 150.925781 22.292969 150.542969 22.003906 C 150.1875 21.691406 150.007812 21.296875 150.007812 20.824219 C 150.007812 20.027344 150.421875 19.285156 151.253906 18.589844 C 152.0625 17.898438 152.945312 17.550781 153.902344 17.550781 Z M 153.902344 17.550781 "
       style=" stroke:none;fill-rule:nonzero;fill:rgb(0%,0%,0%);fill-opacity:1;" />
    <path
       id="path84"
       d="M 13.097656 19.890625 C 13.097656 19.890625 13.132812 19.890625 13.203125 19.890625 C 13.246094 19.878906 13.289062 19.871094 13.324219 19.871094 C 14.617188 19.871094 15.679688 20.328125 16.507812 21.242188 C 17.339844 22.140625 17.757812 23.191406 17.757812 24.394531 C 17.757812 25.882812 17.136719 27.09375 15.902344 28.03125 C 15.578125 28.285156 15.160156 28.492188 14.640625 28.652344 C 14.695312 29.402344 14.726562 30.007812 14.726562 30.472656 C 14.726562 30.5625 14.714844 30.898438 14.691406 31.476562 C 14.644531 32.550781 14.273438 33.480469 13.582031 34.265625 C 12.914062 35.039062 12.082031 35.425781 11.089844 35.425781 C 10.152344 35.425781 9.355469 35.09375 8.699219 34.4375 C 8.039062 33.765625 7.710938 32.960938 7.710938 32.011719 C 7.710938 31.515625 7.902344 31.09375 8.285156 30.75 C 8.675781 30.402344 9.132812 30.230469 9.652344 30.230469 C 10.113281 30.230469 10.5 30.40625 10.8125 30.765625 C 11.136719 31.101562 11.296875 31.515625 11.296875 32.011719 C 11.296875 32.464844 11.136719 32.851562 10.8125 33.171875 C 10.488281 33.496094 10.101562 33.65625 9.652344 33.65625 C 9.464844 33.65625 9.289062 33.625 9.113281 33.554688 C 9.621094 34.304688 10.296875 34.679688 11.140625 34.679688 C 11.9375 34.679688 12.589844 34.355469 13.097656 33.710938 C 13.628906 33.039062 13.917969 32.261719 13.964844 31.371094 C 13.988281 30.816406 14 30.5 14 30.417969 C 14 29.773438 13.976562 29.242188 13.929688 28.828125 C 13.351562 28.917969 12.839844 28.964844 12.386719 28.964844 C 10.78125 28.964844 9.414062 28.328125 8.285156 27.058594 C 7.175781 25.777344 6.621094 24.253906 6.621094 22.488281 C 6.621094 22.117188 6.65625 21.742188 6.726562 21.363281 C 6.792969 21.050781 6.878906 20.710938 6.984375 20.339844 C 7.042969 20.132812 7.199219 19.796875 7.453125 19.335938 C 7.542969 19.199219 7.648438 19.023438 7.765625 18.816406 C 7.878906 18.609375 7.960938 18.46875 8.007812 18.402344 C 8.121094 18.167969 8.347656 17.859375 8.679688 17.464844 C 8.773438 17.363281 8.871094 17.246094 8.96875 17.121094 C 9.066406 16.992188 9.148438 16.886719 9.21875 16.808594 C 9.289062 16.726562 9.339844 16.664062 9.375 16.617188 C 9.410156 16.570312 9.667969 16.265625 10.152344 15.699219 C 10.269531 15.582031 10.382812 15.460938 10.492188 15.328125 C 10.601562 15.195312 10.691406 15.089844 10.761719 15.015625 C 10.828125 14.941406 10.882812 14.886719 10.914062 14.851562 C 10.5 13.476562 10.242188 12.378906 10.136719 11.558594 C 10.054688 10.902344 10.015625 10 10.015625 8.859375 C 10.015625 7.855469 10.246094 6.914062 10.707031 6.035156 C 11.15625 5.125 11.789062 4.378906 12.59375 3.800781 C 12.652344 3.765625 12.710938 3.75 12.769531 3.75 C 12.847656 3.75 12.90625 3.765625 12.941406 3.800781 C 13.566406 4.550781 14.101562 5.527344 14.550781 6.730469 C 15.015625 7.929688 15.246094 9.019531 15.246094 10 C 15.246094 11.109375 14.980469 12.148438 14.449219 13.117188 C 13.847656 14.144531 13.074219 15.207031 12.128906 16.304688 C 12.371094 17.066406 12.695312 18.261719 13.097656 19.890625 Z M 14.570312 27.941406 C 15.171875 27.722656 15.636719 27.347656 15.972656 26.816406 C 16.34375 26.308594 16.527344 25.738281 16.527344 25.101562 C 16.527344 24.28125 16.25 23.554688 15.695312 22.921875 C 15.128906 22.261719 14.40625 21.894531 13.53125 21.8125 C 14.027344 24.25 14.375 26.292969 14.570312 27.941406 Z M 7.867188 23.941406 C 7.867188 25.085938 8.328125 26.089844 9.253906 26.957031 C 10.199219 27.796875 11.261719 28.21875 12.441406 28.21875 C 12.925781 28.21875 13.398438 28.183594 13.859375 28.117188 C 13.675781 26.359375 13.3125 24.261719 12.769531 21.8125 C 12.109375 21.882812 11.585938 22.113281 11.191406 22.503906 C 10.8125 22.910156 10.621094 23.367188 10.621094 23.875 C 10.621094 24.75 11.089844 25.460938 12.023438 26.003906 C 12.105469 26.085938 12.144531 26.171875 12.144531 26.261719 C 12.144531 26.355469 12.105469 26.441406 12.023438 26.523438 C 11.953125 26.605469 11.867188 26.644531 11.765625 26.644531 C 11.753906 26.644531 11.699219 26.632812 11.609375 26.609375 C 10.949219 26.25 10.441406 25.789062 10.085938 25.222656 C 9.75 24.625 9.582031 24.019531 9.582031 23.40625 C 9.582031 22.609375 9.832031 21.886719 10.328125 21.242188 C 10.847656 20.59375 11.523438 20.179688 12.351562 19.992188 C 12.03125 18.699219 11.765625 17.691406 11.554688 16.964844 C 11.371094 17.171875 11.148438 17.421875 10.890625 17.714844 C 10.628906 18.011719 10.476562 18.1875 10.429688 18.246094 C 10.015625 18.789062 9.699219 19.207031 9.476562 19.507812 C 9.085938 20.050781 8.796875 20.519531 8.613281 20.910156 C 8.417969 21.351562 8.242188 21.828125 8.09375 22.347656 C 7.941406 22.847656 7.867188 23.375 7.867188 23.941406 Z M 13.652344 6.332031 C 12.785156 6.757812 12.105469 7.371094 11.609375 8.164062 C 11.101562 8.984375 10.847656 9.867188 10.847656 10.816406 C 10.847656 11.648438 11.054688 12.765625 11.46875 14.175781 C 12.300781 13.171875 12.925781 12.242188 13.339844 11.386719 C 13.777344 10.488281 14 9.546875 14 8.5625 C 14 7.824219 13.882812 7.082031 13.652344 6.332031 Z M 13.652344 6.332031 "
       style=" stroke:none;fill-rule:nonzero;fill:rgb(0%,0%,0%);fill-opacity:1;" />
    <path
       id="path86"
       d="M 172.265625 18.609375 C 172.265625 18.402344 172.382812 18.167969 172.613281 17.914062 C 172.785156 17.730469 173.039062 17.511719 173.375 17.257812 C 173.628906 17.085938 173.875 16.824219 174.121094 16.480469 C 174.351562 16.144531 174.464844 15.78125 174.464844 15.386719 C 174.464844 14.925781 174.316406 14.515625 174.015625 14.15625 L 173.390625 13.414062 C 173.347656 13.367188 173.324219 13.308594 173.324219 13.238281 C 173.324219 13.171875 173.355469 13.105469 173.425781 13.050781 C 173.507812 12.992188 173.578125 12.964844 173.632812 12.964844 C 173.714844 12.964844 173.777344 12.996094 173.824219 13.066406 L 176.507812 16.253906 C 176.625 16.402344 176.683594 16.554688 176.683594 16.703125 C 176.683594 16.910156 176.566406 17.140625 176.335938 17.394531 C 176.1875 17.558594 175.9375 17.777344 175.589844 18.054688 C 175.324219 18.214844 175.070312 18.476562 174.828125 18.832031 C 174.597656 19.167969 174.484375 19.53125 174.484375 19.925781 C 174.484375 20.410156 174.621094 20.820312 174.898438 21.15625 L 176.386719 22.902344 C 176.421875 22.9375 176.453125 22.996094 176.472656 23.078125 C 176.472656 23.15625 176.445312 23.226562 176.386719 23.285156 C 176.308594 23.34375 176.238281 23.371094 176.179688 23.371094 C 176.15625 23.371094 176.066406 23.308594 175.902344 23.179688 C 175.730469 23.042969 175.5 22.910156 175.210938 22.78125 C 174.886719 22.65625 174.570312 22.589844 174.257812 22.589844 C 173.96875 22.589844 173.734375 22.671875 173.546875 22.835938 C 173.386719 22.996094 173.304688 23.308594 173.304688 23.769531 C 173.304688 24.472656 173.472656 25.027344 173.808594 25.433594 C 173.84375 25.476562 173.847656 25.535156 173.824219 25.605469 C 173.800781 25.652344 173.761719 25.675781 173.703125 25.675781 C 173.621094 25.675781 173.445312 25.464844 173.167969 25.050781 C 172.878906 24.613281 172.605469 24.109375 172.351562 23.542969 C 172.085938 22.945312 171.953125 22.449219 171.953125 22.054688 C 171.953125 21.558594 172.191406 21.308594 172.664062 21.308594 C 173.207031 21.308594 173.910156 21.496094 174.777344 21.863281 L 172.4375 19.058594 C 172.324219 18.910156 172.265625 18.757812 172.265625 18.609375 Z M 172.265625 18.609375 "
       style=" stroke:none;fill-rule:nonzero;fill:rgb(0%,0%,0%);fill-opacity:1;" />
    <path
       id="path88"
       d="M 166.164062 16.355469 C 166.496094 16.355469 166.75 16.449219 166.925781 16.632812 C 167.097656 16.84375 167.191406 17.039062 167.203125 17.222656 C 167.226562 17.394531 167.28125 17.59375 167.375 17.8125 C 167.480469 17.996094 167.613281 18.089844 167.773438 18.089844 C 167.898438 18.089844 168.089844 17.945312 168.34375 17.65625 C 168.574219 17.402344 168.742188 17.175781 168.847656 16.980469 C 168.90625 16.867188 168.984375 16.808594 169.089844 16.808594 L 169.105469 16.808594 C 169.222656 16.820312 169.304688 16.875 169.347656 16.980469 L 167.167969 24.425781 C 167.050781 24.542969 166.890625 24.601562 166.683594 24.601562 C 166.472656 24.601562 166.3125 24.542969 166.195312 24.425781 L 168.273438 18.644531 C 167.535156 18.910156 166.914062 19.042969 166.40625 19.042969 C 165.988281 19.042969 165.632812 18.910156 165.332031 18.644531 C 165.019531 18.390625 164.863281 18.054688 164.863281 17.640625 C 164.863281 17.28125 164.992188 16.980469 165.246094 16.738281 C 165.5 16.484375 165.804688 16.355469 166.164062 16.355469 Z M 166.164062 16.355469 "
       style=" stroke:none;fill-rule:nonzero;fill:rgb(0%,0%,0%);fill-opacity:1;" />
    <path
       id="path90"
       d="M 30.765625 18.902344 L 68.398438 17.777344 L 68.398438 19.992188 L 30.765625 21.121094 Z M 30.765625 18.902344 "
       style=" stroke:none;fill-rule:evenodd;fill:rgb(0%,0%,0%);fill-opacity:1;" />
    <path
       id="path92"
       d="M 76.433594 13.425781 L 108.011719 8.910156 L 108.011719 11.128906 L 76.433594 15.644531 Z M 76.433594 13.425781 "
       style=" stroke:none;fill-rule:evenodd;fill:rgb(0%,0%,0%);fill-opacity:1;" />
    <path
       id="path94"
       d="M 126.578125 9 L 155.84375 4.476562 L 155.84375 6.695312 L 126.578125 11.214844 Z M 126.578125 9 "
       style=" stroke:none;fill-rule:evenodd;fill:rgb(0%,0%,0%);fill-opacity:1;" />
    <path
       id="path96"
       d="M 161.496094 20.460938 C 161.761719 20.460938 162.042969 20.894531 162.34375 21.761719 C 162.632812 22.613281 162.777344 23.429688 162.777344 24.203125 C 162.777344 24.859375 162.617188 25.511719 162.292969 26.160156 C 161.957031 26.851562 161.558594 27.453125 161.097656 27.960938 L 159.679688 29.554688 C 159.238281 30.0625 158.847656 30.648438 158.5 31.320312 C 158.175781 31.964844 158.015625 32.625 158.015625 33.292969 L 157.460938 33.292969 L 157.460938 28.859375 L 158.015625 28.859375 C 158.328125 28.664062 158.789062 28.351562 159.402344 27.925781 C 159.679688 27.71875 160.09375 27.371094 160.648438 26.886719 C 161.097656 26.472656 161.4375 26.042969 161.667969 25.605469 C 161.910156 25.144531 162.03125 24.675781 162.03125 24.203125 C 162.03125 23.105469 161.714844 22.015625 161.082031 20.929688 C 161.082031 20.929688 161.082031 20.90625 161.082031 20.859375 C 161.082031 20.757812 161.117188 20.667969 161.183594 20.601562 C 161.277344 20.507812 161.378906 20.460938 161.496094 20.460938 Z M 161.496094 20.460938 "
       style=" stroke:none;fill-rule:nonzero;fill:rgb(0%,0%,0%);fill-opacity:1;" />
  </g>
</svg>
