<?xml version="1.0" encoding="UTF-8" standalone="no"?>
<svg
   xmlns:dc="http://purl.org/dc/elements/1.1/"
   xmlns:cc="http://creativecommons.org/ns#"
   xmlns:rdf="http://www.w3.org/1999/02/22-rdf-syntax-ns#"
   xmlns:svg="http://www.w3.org/2000/svg"
   xmlns="http://www.w3.org/2000/svg"
   xmlns:sodipodi="http://sodipodi.sourceforge.net/DTD/sodipodi-0.dtd"
   xmlns:inkscape="http://www.inkscape.org/namespaces/inkscape"
   inkscape:version="1.0 (4035a4f, 2020-05-01)"
   sodipodi:docname="scales_minor_mel.svg"
   id="svg105"
   version="1.2"
   viewBox="0 0 200 50"
   height="50pt"
   width="200pt">
  <metadata
     id="metadata111">
    <rdf:RDF>
      <cc:Work
         rdf:about="">
        <dc:format>image/svg+xml</dc:format>
        <dc:type
           rdf:resource="http://purl.org/dc/dcmitype/StillImage" />
        <dc:title></dc:title>
      </cc:Work>
    </rdf:RDF>
  </metadata>
  <defs
     id="defs109" />
  <sodipodi:namedview
     inkscape:current-layer="svg105"
     inkscape:window-maximized="0"
     inkscape:window-y="23"
     inkscape:window-x="0"
     inkscape:cy="33.333333"
     inkscape:cx="133.33333"
     inkscape:zoom="4.79625"
     showgrid="false"
     id="namedview107"
     inkscape:window-height="480"
     inkscape:window-width="741"
     inkscape:pageshadow="2"
     inkscape:pageopacity="0"
     guidetolerance="10"
     gridtolerance="10"
     objecttolerance="10"
     borderopacity="1"
     bordercolor="#666666"
     pagecolor="#ffffff" />
  <g
     id="surface5315">
    <path
       id="path10"
       d="M 3.75 12.6875 L 97.273438 12.6875 M 3.75 17.121094 L 97.273438 17.121094 M 3.75 21.554688 L 97.273438 21.554688 M 3.75 25.988281 L 97.273438 25.988281 M 3.75 30.421875 L 97.273438 30.421875 "
       style="fill:none;stroke-width:0.354671;stroke-linecap:butt;stroke-linejoin:bevel;stroke:rgb(0%,0%,0%);stroke-opacity:1;stroke-miterlimit:10;" />
    <path
       id="path12"
       d="M 97.273438 12.6875 L 189.851562 12.6875 M 97.273438 17.121094 L 189.851562 17.121094 M 97.273438 21.554688 L 189.851562 21.554688 M 97.273438 25.988281 L 189.851562 25.988281 M 97.273438 30.421875 L 189.851562 30.421875 "
       style="fill:none;stroke-width:0.354671;stroke-linecap:butt;stroke-linejoin:bevel;stroke:rgb(0%,0%,0%);stroke-opacity:1;stroke-miterlimit:10;" />
    <path
       id="path14"
       d="M 96.917969 12.6875 L 96.917969 30.421875 "
       style="fill:none;stroke-width:0.709342;stroke-linecap:butt;stroke-linejoin:bevel;stroke:rgb(0%,0%,0%);stroke-opacity:1;stroke-miterlimit:10;" />
    <path
       id="path16"
       d="M 189.496094 12.6875 L 189.496094 30.421875 "
       style="fill:none;stroke-width:0.709342;stroke-linecap:butt;stroke-linejoin:bevel;stroke:rgb(0%,0%,0%);stroke-opacity:1;stroke-miterlimit:10;" />
    <path
       id="path18"
       d="M 42.234375 29.695312 L 42.234375 31.0625 C 42.234375 31.546875 42.257812 31.933594 42.304688 32.222656 C 42.683594 31.898438 42.957031 31.65625 43.117188 31.496094 C 43.300781 31.3125 43.484375 31.058594 43.671875 30.734375 C 43.855469 30.410156 43.949219 30.085938 43.949219 29.765625 C 43.949219 29.441406 43.878906 29.164062 43.742188 28.933594 C 43.601562 28.703125 43.417969 28.585938 43.1875 28.585938 C 42.910156 28.585938 42.679688 28.691406 42.492188 28.898438 C 42.320312 29.128906 42.234375 29.394531 42.234375 29.695312 Z M 41.507812 32.863281 L 41.28125 22.316406 C 41.441406 22.226562 41.605469 22.179688 41.765625 22.179688 C 41.925781 22.179688 42.089844 22.226562 42.25 22.316406 L 42.113281 28.429688 C 42.585938 28.027344 43.128906 27.824219 43.742188 27.824219 C 44.191406 27.824219 44.566406 28.007812 44.867188 28.378906 C 45.167969 28.746094 45.316406 29.167969 45.316406 29.640625 C 45.316406 29.941406 45.21875 30.261719 45.023438 30.59375 C 44.835938 30.90625 44.640625 31.148438 44.433594 31.324219 C 44.316406 31.414062 44.023438 31.644531 43.550781 32.015625 C 43.410156 32.117188 43.246094 32.238281 43.054688 32.378906 C 42.867188 32.515625 42.746094 32.605469 42.703125 32.636719 C 42.621094 32.683594 42.546875 32.777344 42.476562 32.914062 C 42.394531 33.03125 42.304688 33.128906 42.199219 33.210938 C 42.117188 33.277344 42.019531 33.3125 41.90625 33.3125 C 41.789062 33.3125 41.695312 33.273438 41.628906 33.191406 C 41.546875 33.113281 41.507812 33.003906 41.507812 32.863281 Z M 41.507812 32.863281 "
       style=" stroke:none;fill-rule:nonzero;fill:rgb(0%,0%,0%);fill-opacity:1;" />
    <path
       id="path20"
       d="M 124.15625 23.042969 L 124.15625 24.414062 C 124.15625 24.898438 124.179688 25.285156 124.226562 25.574219 C 124.605469 25.25 124.878906 25.007812 125.039062 24.84375 C 125.222656 24.660156 125.410156 24.40625 125.59375 24.082031 C 125.777344 23.761719 125.871094 23.4375 125.871094 23.113281 C 125.871094 22.789062 125.800781 22.511719 125.664062 22.28125 C 125.523438 22.050781 125.339844 21.9375 125.109375 21.9375 C 124.832031 21.9375 124.601562 22.039062 124.414062 22.246094 C 124.242188 22.480469 124.15625 22.746094 124.15625 23.042969 Z M 123.429688 26.214844 L 123.203125 15.667969 C 123.367188 15.574219 123.527344 15.527344 123.6875 15.527344 C 123.851562 15.527344 124.011719 15.574219 124.171875 15.667969 L 124.035156 21.78125 C 124.507812 21.375 125.050781 21.175781 125.664062 21.175781 C 126.113281 21.175781 126.488281 21.359375 126.789062 21.726562 C 127.089844 22.097656 127.238281 22.519531 127.238281 22.992188 C 127.238281 23.292969 127.140625 23.609375 126.945312 23.945312 C 126.757812 24.257812 126.5625 24.5 126.355469 24.671875 C 126.238281 24.765625 125.945312 24.996094 125.472656 25.363281 C 125.332031 25.46875 125.167969 25.589844 124.980469 25.730469 C 124.789062 25.867188 124.671875 25.953125 124.625 25.988281 C 124.542969 26.035156 124.46875 26.125 124.398438 26.265625 C 124.316406 26.382812 124.226562 26.480469 124.121094 26.558594 C 124.039062 26.628906 123.941406 26.664062 123.828125 26.664062 C 123.710938 26.664062 123.621094 26.625 123.550781 26.542969 C 123.46875 26.460938 123.429688 26.351562 123.429688 26.214844 Z M 123.429688 26.214844 "
       style=" stroke:none;fill-rule:nonzero;fill:rgb(0%,0%,0%);fill-opacity:1;" />
    <path
       id="path22"
       d="M 111.328125 20.828125 L 111.328125 22.195312 C 111.328125 22.679688 111.351562 23.066406 111.398438 23.355469 C 111.777344 23.03125 112.050781 22.789062 112.210938 22.628906 C 112.394531 22.445312 112.582031 22.191406 112.765625 21.867188 C 112.949219 21.542969 113.042969 21.21875 113.042969 20.898438 C 113.042969 20.574219 112.972656 20.296875 112.835938 20.066406 C 112.695312 19.835938 112.511719 19.71875 112.28125 19.71875 C 112.003906 19.71875 111.773438 19.824219 111.589844 20.03125 C 111.414062 20.261719 111.328125 20.527344 111.328125 20.828125 Z M 110.601562 23.996094 L 110.375 13.449219 C 110.539062 13.359375 110.699219 13.3125 110.859375 13.3125 C 111.023438 13.3125 111.183594 13.359375 111.347656 13.449219 L 111.207031 19.5625 C 111.679688 19.160156 112.222656 18.957031 112.835938 18.957031 C 113.285156 18.957031 113.660156 19.140625 113.960938 19.511719 C 114.261719 19.882812 114.410156 20.300781 114.410156 20.777344 C 114.410156 21.074219 114.3125 21.394531 114.117188 21.726562 C 113.933594 22.039062 113.734375 22.28125 113.527344 22.457031 C 113.414062 22.546875 113.117188 22.777344 112.644531 23.148438 C 112.507812 23.253906 112.339844 23.375 112.152344 23.511719 C 111.960938 23.652344 111.84375 23.738281 111.796875 23.773438 C 111.714844 23.816406 111.640625 23.910156 111.570312 24.046875 C 111.488281 24.164062 111.398438 24.261719 111.292969 24.34375 C 111.214844 24.414062 111.113281 24.445312 111 24.445312 C 110.882812 24.445312 110.792969 24.40625 110.722656 24.324219 C 110.640625 24.246094 110.601562 24.136719 110.601562 23.996094 Z M 110.601562 23.996094 "
       style=" stroke:none;fill-rule:nonzero;fill:rgb(0%,0%,0%);fill-opacity:1;" />
    <path
       id="path24"
       d="M 155.882812 29.695312 L 155.882812 31.0625 C 155.882812 31.546875 155.90625 31.933594 155.949219 32.222656 C 156.332031 31.898438 156.601562 31.65625 156.765625 31.496094 C 156.949219 31.3125 157.132812 31.058594 157.320312 30.734375 C 157.503906 30.410156 157.597656 30.085938 157.597656 29.765625 C 157.597656 29.441406 157.527344 29.164062 157.386719 28.933594 C 157.25 28.703125 157.066406 28.585938 156.832031 28.585938 C 156.558594 28.585938 156.324219 28.691406 156.140625 28.898438 C 155.96875 29.128906 155.882812 29.394531 155.882812 29.695312 Z M 155.152344 32.863281 L 154.929688 22.316406 C 155.089844 22.226562 155.253906 22.179688 155.414062 22.179688 C 155.574219 22.179688 155.738281 22.226562 155.898438 22.316406 L 155.761719 28.429688 C 156.234375 28.027344 156.777344 27.824219 157.386719 27.824219 C 157.839844 27.824219 158.214844 28.007812 158.511719 28.378906 C 158.8125 28.746094 158.964844 29.167969 158.964844 29.640625 C 158.964844 29.941406 158.867188 30.261719 158.667969 30.59375 C 158.484375 30.90625 158.289062 31.148438 158.082031 31.324219 C 157.964844 31.414062 157.671875 31.644531 157.199219 32.015625 C 157.058594 32.117188 156.894531 32.238281 156.703125 32.378906 C 156.511719 32.515625 156.394531 32.605469 156.347656 32.636719 C 156.269531 32.683594 156.191406 32.777344 156.125 32.914062 C 156.042969 33.03125 155.949219 33.128906 155.847656 33.210938 C 155.765625 33.277344 155.667969 33.3125 155.550781 33.3125 C 155.4375 33.3125 155.34375 33.273438 155.273438 33.191406 C 155.195312 33.113281 155.152344 33.003906 155.152344 32.863281 Z M 155.152344 32.863281 "
       style=" stroke:none;fill-rule:nonzero;fill:rgb(0%,0%,0%);fill-opacity:1;" />
    <path
       id="path26"
       d="M 24.175781 34.855469 L 32.671875 34.855469 "
       style="fill:none;stroke-width:0.709342;stroke-linecap:square;stroke-linejoin:bevel;stroke:rgb(0%,0%,0%);stroke-opacity:1;stroke-miterlimit:10;" />
    <path
       id="path28"
       d="M 177.542969 34.855469 L 186.039062 34.855469 "
       style="fill:none;stroke-width:0.709342;stroke-linecap:square;stroke-linejoin:bevel;stroke:rgb(0%,0%,0%);stroke-opacity:1;stroke-miterlimit:10;" />
    <path
       id="path30"
       d="M 31.054688 34.023438 L 31.054688 21.554688 "
       style="fill:none;stroke-width:0.57634;stroke-linecap:round;stroke-linejoin:bevel;stroke:rgb(0%,0%,0%);stroke-opacity:1;stroke-miterlimit:10;" />
    <path
       id="path32"
       d="M 39.046875 31.804688 L 39.046875 20.019531 "
       style="fill:none;stroke-width:0.57634;stroke-linecap:round;stroke-linejoin:bevel;stroke:rgb(0%,0%,0%);stroke-opacity:1;stroke-miterlimit:10;" />
    <path
       id="path34"
       d="M 67.863281 25.15625 L 67.863281 9.363281 "
       style="fill:none;stroke-width:0.57634;stroke-linecap:round;stroke-linejoin:bevel;stroke:rgb(0%,0%,0%);stroke-opacity:1;stroke-miterlimit:10;" />
    <path
       id="path36"
       d="M 83.847656 20.722656 L 83.847656 6.40625 "
       style="fill:none;stroke-width:0.57634;stroke-linecap:round;stroke-linejoin:bevel;stroke:rgb(0%,0%,0%);stroke-opacity:1;stroke-miterlimit:10;" />
    <path
       id="path38"
       d="M 75.855469 22.9375 L 75.855469 7.886719 "
       style="fill:none;stroke-width:0.57634;stroke-linecap:round;stroke-linejoin:bevel;stroke:rgb(0%,0%,0%);stroke-opacity:1;stroke-miterlimit:10;" />
    <path
       id="path40"
       d="M 59.867188 27.371094 L 59.867188 16.011719 "
       style="fill:none;stroke-width:0.57634;stroke-linecap:round;stroke-linejoin:bevel;stroke:rgb(0%,0%,0%);stroke-opacity:1;stroke-miterlimit:10;" />
    <path
       id="path42"
       d="M 51.875 29.589844 L 51.875 17.550781 "
       style="fill:none;stroke-width:0.57634;stroke-linecap:round;stroke-linejoin:bevel;stroke:rgb(0%,0%,0%);stroke-opacity:1;stroke-miterlimit:10;" />
    <path
       id="path44"
       d="M 91.84375 18.503906 L 91.84375 4.929688 "
       style="fill:none;stroke-width:0.57634;stroke-linecap:round;stroke-linejoin:bevel;stroke:rgb(0%,0%,0%);stroke-opacity:1;stroke-miterlimit:10;" />
    <path
       id="path46"
       d="M 120.96875 20.722656 L 120.96875 6.550781 "
       style="fill:none;stroke-width:0.57634;stroke-linecap:round;stroke-linejoin:bevel;stroke:rgb(0%,0%,0%);stroke-opacity:1;stroke-miterlimit:10;" />
    <path
       id="path48"
       d="M 108.144531 18.503906 L 108.144531 4.929688 "
       style="fill:none;stroke-width:0.57634;stroke-linecap:round;stroke-linejoin:bevel;stroke:rgb(0%,0%,0%);stroke-opacity:1;stroke-miterlimit:10;" />
    <path
       id="path50"
       d="M 133.796875 22.9375 L 133.796875 8.167969 "
       style="fill:none;stroke-width:0.57634;stroke-linecap:round;stroke-linejoin:bevel;stroke:rgb(0%,0%,0%);stroke-opacity:1;stroke-miterlimit:10;" />
    <path
       id="path52"
       d="M 143.246094 25.15625 L 143.246094 9.363281 "
       style="fill:none;stroke-width:0.57634;stroke-linecap:round;stroke-linejoin:bevel;stroke:rgb(0%,0%,0%);stroke-opacity:1;stroke-miterlimit:10;" />
    <path
       id="path54"
       d="M 152.695312 27.371094 L 152.695312 16.011719 "
       style="fill:none;stroke-width:0.57634;stroke-linecap:round;stroke-linejoin:bevel;stroke:rgb(0%,0%,0%);stroke-opacity:1;stroke-miterlimit:10;" />
    <path
       id="path56"
       d="M 174.972656 31.804688 L 174.972656 19.90625 "
       style="fill:none;stroke-width:0.57634;stroke-linecap:round;stroke-linejoin:bevel;stroke:rgb(0%,0%,0%);stroke-opacity:1;stroke-miterlimit:10;" />
    <path
       id="path58"
       d="M 165.523438 29.589844 L 165.523438 18.253906 "
       style="fill:none;stroke-width:0.57634;stroke-linecap:round;stroke-linejoin:bevel;stroke:rgb(0%,0%,0%);stroke-opacity:1;stroke-miterlimit:10;" />
    <path
       id="path60"
       d="M 184.421875 34.023438 L 184.421875 21.554688 "
       style="fill:none;stroke-width:0.57634;stroke-linecap:round;stroke-linejoin:bevel;stroke:rgb(0%,0%,0%);stroke-opacity:1;stroke-miterlimit:10;" />
    <path
       id="path62"
       d="M 29.402344 32.414062 C 29.957031 32.414062 30.425781 32.558594 30.804688 32.847656 C 31.164062 33.15625 31.339844 33.550781 31.339844 34.023438 C 31.339844 34.820312 30.933594 35.566406 30.113281 36.257812 C 29.28125 36.949219 28.390625 37.296875 27.445312 37.296875 C 26.890625 37.296875 26.421875 37.152344 26.042969 36.863281 C 25.683594 36.550781 25.503906 36.160156 25.503906 35.6875 C 25.503906 34.890625 25.921875 34.144531 26.753906 33.453125 C 27.5625 32.757812 28.445312 32.414062 29.402344 32.414062 Z M 29.402344 32.414062 "
       style=" stroke:none;fill-rule:nonzero;fill:rgb(0%,0%,0%);fill-opacity:1;" />
    <path
       id="path64"
       d="M 50.222656 27.980469 C 50.777344 27.980469 51.246094 28.125 51.625 28.414062 C 51.984375 28.722656 52.164062 29.117188 52.164062 29.589844 C 52.164062 30.386719 51.753906 31.132812 50.933594 31.824219 C 50.101562 32.515625 49.214844 32.863281 48.265625 32.863281 C 47.710938 32.863281 47.246094 32.71875 46.863281 32.429688 C 46.503906 32.117188 46.328125 31.726562 46.328125 31.253906 C 46.328125 30.457031 46.742188 29.710938 47.574219 29.019531 C 48.382812 28.328125 49.265625 27.980469 50.222656 27.980469 Z M 50.222656 27.980469 "
       style=" stroke:none;fill-rule:nonzero;fill:rgb(0%,0%,0%);fill-opacity:1;" />
    <path
       id="path66"
       d="M 37.394531 30.195312 C 37.949219 30.195312 38.417969 30.339844 38.796875 30.628906 C 39.15625 30.941406 39.335938 31.332031 39.335938 31.808594 C 39.335938 32.605469 38.925781 33.347656 38.105469 34.042969 C 37.273438 34.734375 36.386719 35.082031 35.4375 35.082031 C 34.882812 35.082031 34.417969 34.9375 34.035156 34.648438 C 33.679688 34.335938 33.5 33.941406 33.5 33.46875 C 33.5 32.671875 33.914062 31.929688 34.746094 31.234375 C 35.554688 30.542969 36.4375 30.195312 37.394531 30.195312 Z M 37.394531 30.195312 "
       style=" stroke:none;fill-rule:nonzero;fill:rgb(0%,0%,0%);fill-opacity:1;" />
    <path
       id="path68"
       d="M 66.210938 23.546875 C 66.765625 23.546875 67.230469 23.691406 67.613281 23.980469 C 67.972656 24.292969 68.148438 24.683594 68.148438 25.15625 C 68.148438 25.953125 67.738281 26.699219 66.921875 27.390625 C 66.089844 28.082031 65.199219 28.429688 64.253906 28.429688 C 63.699219 28.429688 63.230469 28.285156 62.851562 27.996094 C 62.492188 27.683594 62.3125 27.292969 62.3125 26.820312 C 62.3125 26.023438 62.730469 25.277344 63.5625 24.585938 C 64.367188 23.894531 65.253906 23.546875 66.210938 23.546875 Z M 66.210938 23.546875 "
       style=" stroke:none;fill-rule:nonzero;fill:rgb(0%,0%,0%);fill-opacity:1;" />
    <path
       id="path70"
       d="M 58.21875 25.761719 C 58.769531 25.761719 59.238281 25.90625 59.621094 26.195312 C 59.976562 26.507812 60.15625 26.902344 60.15625 27.375 C 60.15625 28.171875 59.746094 28.914062 58.925781 29.609375 C 58.09375 30.300781 57.207031 30.648438 56.261719 30.648438 C 55.707031 30.648438 55.238281 30.503906 54.855469 30.214844 C 54.5 29.902344 54.320312 29.507812 54.320312 29.035156 C 54.320312 28.238281 54.734375 27.496094 55.566406 26.800781 C 56.375 26.109375 57.257812 25.761719 58.21875 25.761719 Z M 58.21875 25.761719 "
       style=" stroke:none;fill-rule:nonzero;fill:rgb(0%,0%,0%);fill-opacity:1;" />
    <path
       id="path72"
       d="M 90.191406 16.894531 C 90.746094 16.894531 91.210938 17.039062 91.59375 17.328125 C 91.953125 17.640625 92.128906 18.035156 92.128906 18.507812 C 92.128906 19.304688 91.722656 20.046875 90.902344 20.742188 C 90.070312 21.433594 89.179688 21.78125 88.234375 21.78125 C 87.679688 21.78125 87.210938 21.636719 86.832031 21.347656 C 86.472656 21.035156 86.292969 20.644531 86.292969 20.167969 C 86.292969 19.371094 86.710938 18.628906 87.542969 17.9375 C 88.347656 17.242188 89.234375 16.894531 90.191406 16.894531 Z M 90.191406 16.894531 "
       style=" stroke:none;fill-rule:nonzero;fill:rgb(0%,0%,0%);fill-opacity:1;" />
    <path
       id="path74"
       d="M 82.199219 19.113281 C 82.75 19.113281 83.21875 19.257812 83.601562 19.546875 C 83.957031 19.859375 84.136719 20.25 84.136719 20.722656 C 84.136719 21.519531 83.726562 22.265625 82.90625 22.957031 C 82.078125 23.652344 81.1875 23.996094 80.242188 23.996094 C 79.6875 23.996094 79.21875 23.851562 78.835938 23.5625 C 78.480469 23.253906 78.300781 22.859375 78.300781 22.386719 C 78.300781 21.589844 78.714844 20.84375 79.546875 20.152344 C 80.355469 19.460938 81.238281 19.113281 82.199219 19.113281 Z M 82.199219 19.113281 "
       style=" stroke:none;fill-rule:nonzero;fill:rgb(0%,0%,0%);fill-opacity:1;" />
    <path
       id="path76"
       d="M 74.203125 21.328125 C 74.757812 21.328125 75.226562 21.472656 75.605469 21.761719 C 75.964844 22.074219 76.144531 22.46875 76.144531 22.941406 C 76.144531 23.738281 75.734375 24.480469 74.914062 25.175781 C 74.082031 25.867188 73.195312 26.214844 72.246094 26.214844 C 71.691406 26.214844 71.226562 26.070312 70.84375 25.78125 C 70.488281 25.46875 70.308594 25.078125 70.308594 24.601562 C 70.308594 23.804688 70.722656 23.0625 71.554688 22.367188 C 72.363281 21.675781 73.246094 21.328125 74.203125 21.328125 Z M 74.203125 21.328125 "
       style=" stroke:none;fill-rule:nonzero;fill:rgb(0%,0%,0%);fill-opacity:1;" />
    <path
       id="path78"
       d="M 106.492188 16.894531 C 107.042969 16.894531 107.511719 17.039062 107.894531 17.328125 C 108.25 17.640625 108.429688 18.035156 108.429688 18.507812 C 108.429688 19.304688 108.019531 20.046875 107.199219 20.742188 C 106.371094 21.433594 105.480469 21.78125 104.535156 21.78125 C 103.980469 21.78125 103.511719 21.636719 103.132812 21.347656 C 102.773438 21.035156 102.59375 20.644531 102.59375 20.167969 C 102.59375 19.371094 103.007812 18.628906 103.839844 17.9375 C 104.648438 17.242188 105.53125 16.894531 106.492188 16.894531 Z M 106.492188 16.894531 "
       style=" stroke:none;fill-rule:nonzero;fill:rgb(0%,0%,0%);fill-opacity:1;" />
    <path
       id="path80"
       d="M 119.316406 19.113281 C 119.871094 19.113281 120.339844 19.257812 120.722656 19.546875 C 121.078125 19.859375 121.257812 20.25 121.257812 20.722656 C 121.257812 21.519531 120.847656 22.265625 120.027344 22.957031 C 119.195312 23.652344 118.308594 23.996094 117.363281 23.996094 C 116.808594 23.996094 116.339844 23.851562 115.957031 23.5625 C 115.601562 23.253906 115.421875 22.859375 115.421875 22.386719 C 115.421875 21.589844 115.835938 20.84375 116.667969 20.152344 C 117.476562 19.460938 118.359375 19.113281 119.316406 19.113281 Z M 119.316406 19.113281 "
       style=" stroke:none;fill-rule:nonzero;fill:rgb(0%,0%,0%);fill-opacity:1;" />
    <path
       id="path82"
       d="M 141.59375 23.546875 C 142.148438 23.546875 142.617188 23.691406 142.996094 23.980469 C 143.355469 24.292969 143.535156 24.683594 143.535156 25.15625 C 143.535156 25.953125 143.125 26.699219 142.304688 27.390625 C 141.472656 28.082031 140.585938 28.429688 139.636719 28.429688 C 139.082031 28.429688 138.617188 28.285156 138.234375 27.996094 C 137.878906 27.683594 137.699219 27.292969 137.699219 26.820312 C 137.699219 26.023438 138.113281 25.277344 138.945312 24.585938 C 139.753906 23.894531 140.636719 23.546875 141.59375 23.546875 Z M 141.59375 23.546875 "
       style=" stroke:none;fill-rule:nonzero;fill:rgb(0%,0%,0%);fill-opacity:1;" />
    <path
       id="path84"
       d="M 132.144531 21.328125 C 132.699219 21.328125 133.167969 21.472656 133.546875 21.761719 C 133.90625 22.074219 134.085938 22.46875 134.085938 22.941406 C 134.085938 23.738281 133.675781 24.480469 132.855469 25.175781 C 132.023438 25.867188 131.136719 26.214844 130.1875 26.214844 C 129.636719 26.214844 129.167969 26.070312 128.785156 25.78125 C 128.429688 25.46875 128.25 25.078125 128.25 24.601562 C 128.25 23.804688 128.664062 23.0625 129.496094 22.367188 C 130.304688 21.675781 131.1875 21.328125 132.144531 21.328125 Z M 132.144531 21.328125 "
       style=" stroke:none;fill-rule:nonzero;fill:rgb(0%,0%,0%);fill-opacity:1;" />
    <path
       id="path86"
       d="M 163.871094 27.980469 C 164.425781 27.980469 164.894531 28.125 165.273438 28.414062 C 165.632812 28.722656 165.8125 29.117188 165.8125 29.589844 C 165.8125 30.386719 165.402344 31.132812 164.582031 31.824219 C 163.75 32.515625 162.859375 32.863281 161.914062 32.863281 C 161.359375 32.863281 160.890625 32.71875 160.511719 32.429688 C 160.152344 32.117188 159.972656 31.726562 159.972656 31.253906 C 159.972656 30.457031 160.390625 29.710938 161.222656 29.019531 C 162.03125 28.328125 162.914062 27.980469 163.871094 27.980469 Z M 163.871094 27.980469 "
       style=" stroke:none;fill-rule:nonzero;fill:rgb(0%,0%,0%);fill-opacity:1;" />
    <path
       id="path88"
       d="M 151.042969 25.761719 C 151.597656 25.761719 152.066406 25.90625 152.445312 26.195312 C 152.804688 26.507812 152.984375 26.902344 152.984375 27.375 C 152.984375 28.171875 152.574219 28.914062 151.753906 29.609375 C 150.921875 30.300781 150.03125 30.648438 149.085938 30.648438 C 148.53125 30.648438 148.066406 30.503906 147.683594 30.214844 C 147.324219 29.902344 147.148438 29.507812 147.148438 29.035156 C 147.148438 28.238281 147.5625 27.496094 148.394531 26.800781 C 149.203125 26.109375 150.085938 25.761719 151.042969 25.761719 Z M 151.042969 25.761719 "
       style=" stroke:none;fill-rule:nonzero;fill:rgb(0%,0%,0%);fill-opacity:1;" />
    <path
       id="path90"
       d="M 182.769531 32.414062 C 183.324219 32.414062 183.789062 32.558594 184.171875 32.847656 C 184.527344 33.15625 184.707031 33.550781 184.707031 34.023438 C 184.707031 34.820312 184.296875 35.566406 183.480469 36.257812 C 182.648438 36.949219 181.757812 37.296875 180.8125 37.296875 C 180.257812 37.296875 179.789062 37.152344 179.410156 36.863281 C 179.050781 36.550781 178.871094 36.160156 178.871094 35.6875 C 178.871094 34.890625 179.289062 34.144531 180.117188 33.453125 C 180.925781 32.757812 181.808594 32.414062 182.769531 32.414062 Z M 182.769531 32.414062 "
       style=" stroke:none;fill-rule:nonzero;fill:rgb(0%,0%,0%);fill-opacity:1;" />
    <path
       id="path92"
       d="M 173.320312 30.195312 C 173.875 30.195312 174.339844 30.339844 174.722656 30.628906 C 175.082031 30.941406 175.257812 31.332031 175.257812 31.808594 C 175.257812 32.605469 174.847656 33.347656 174.03125 34.042969 C 173.199219 34.734375 172.308594 35.082031 171.363281 35.082031 C 170.808594 35.082031 170.339844 34.9375 169.960938 34.648438 C 169.601562 34.335938 169.421875 33.941406 169.421875 33.46875 C 169.421875 32.671875 169.839844 31.929688 170.671875 31.234375 C 171.476562 30.542969 172.363281 30.195312 173.320312 30.195312 Z M 173.320312 30.195312 "
       style=" stroke:none;fill-rule:nonzero;fill:rgb(0%,0%,0%);fill-opacity:1;" />
    <path
       id="path94"
       d="M 13.097656 21.449219 C 13.097656 21.449219 13.132812 21.449219 13.203125 21.449219 C 13.246094 21.441406 13.289062 21.433594 13.324219 21.433594 C 14.617188 21.433594 15.679688 21.890625 16.507812 22.800781 C 17.339844 23.703125 17.757812 24.753906 17.757812 25.953125 C 17.757812 27.441406 17.136719 28.65625 15.902344 29.589844 C 15.578125 29.84375 15.160156 30.050781 14.640625 30.214844 C 14.695312 30.964844 14.726562 31.570312 14.726562 32.03125 C 14.726562 32.125 14.714844 32.460938 14.691406 33.035156 C 14.644531 34.109375 14.273438 35.039062 13.582031 35.824219 C 12.914062 36.597656 12.082031 36.984375 11.089844 36.984375 C 10.152344 36.984375 9.355469 36.65625 8.699219 36 C 8.039062 35.328125 7.710938 34.519531 7.710938 33.574219 C 7.710938 33.078125 7.902344 32.65625 8.285156 32.308594 C 8.675781 31.964844 9.132812 31.789062 9.652344 31.789062 C 10.113281 31.789062 10.5 31.96875 10.8125 32.328125 C 11.136719 32.660156 11.296875 33.078125 11.296875 33.574219 C 11.296875 34.023438 11.136719 34.410156 10.8125 34.734375 C 10.488281 35.058594 10.101562 35.21875 9.652344 35.21875 C 9.464844 35.21875 9.289062 35.183594 9.113281 35.113281 C 9.621094 35.867188 10.296875 36.242188 11.140625 36.242188 C 11.9375 36.242188 12.589844 35.917969 13.097656 35.269531 C 13.628906 34.601562 13.917969 33.820312 13.964844 32.933594 C 13.988281 32.378906 14 32.0625 14 31.980469 C 14 31.332031 13.976562 30.804688 13.929688 30.386719 C 13.351562 30.480469 12.839844 30.527344 12.386719 30.527344 C 10.78125 30.527344 9.414062 29.890625 8.285156 28.621094 C 7.175781 27.339844 6.621094 25.816406 6.621094 24.046875 C 6.621094 23.679688 6.65625 23.304688 6.726562 22.921875 C 6.792969 22.613281 6.878906 22.269531 6.984375 21.902344 C 7.042969 21.695312 7.199219 21.359375 7.453125 20.898438 C 7.542969 20.757812 7.648438 20.585938 7.765625 20.378906 C 7.878906 20.167969 7.960938 20.03125 8.007812 19.960938 C 8.121094 19.730469 8.347656 19.417969 8.679688 19.027344 C 8.773438 18.921875 8.871094 18.808594 8.96875 18.679688 C 9.066406 18.554688 9.148438 18.449219 9.21875 18.367188 C 9.289062 18.289062 9.339844 18.222656 9.375 18.179688 C 9.410156 18.132812 9.667969 17.824219 10.152344 17.261719 C 10.269531 17.144531 10.382812 17.019531 10.492188 16.886719 C 10.601562 16.753906 10.691406 16.652344 10.761719 16.574219 C 10.828125 16.5 10.882812 16.445312 10.914062 16.410156 C 10.5 15.039062 10.242188 13.941406 10.136719 13.121094 C 10.054688 12.464844 10.015625 11.5625 10.015625 10.417969 C 10.015625 9.414062 10.246094 8.472656 10.707031 7.597656 C 11.15625 6.683594 11.789062 5.941406 12.59375 5.363281 C 12.652344 5.328125 12.710938 5.3125 12.769531 5.3125 C 12.847656 5.3125 12.90625 5.328125 12.941406 5.363281 C 13.566406 6.113281 14.101562 7.089844 14.550781 8.289062 C 15.015625 9.488281 15.246094 10.582031 15.246094 11.5625 C 15.246094 12.671875 14.980469 13.710938 14.449219 14.679688 C 13.847656 15.707031 13.074219 16.769531 12.128906 17.867188 C 12.371094 18.628906 12.695312 19.824219 13.097656 21.449219 Z M 14.570312 29.503906 C 15.171875 29.285156 15.636719 28.910156 15.972656 28.378906 C 16.34375 27.871094 16.527344 27.296875 16.527344 26.664062 C 16.527344 25.84375 16.25 25.117188 15.695312 24.480469 C 15.128906 23.824219 14.40625 23.453125 13.53125 23.375 C 14.027344 25.808594 14.375 27.851562 14.570312 29.503906 Z M 7.867188 25.503906 C 7.867188 26.644531 8.328125 27.652344 9.253906 28.515625 C 10.199219 29.359375 11.261719 29.78125 12.441406 29.78125 C 12.925781 29.78125 13.398438 29.746094 13.859375 29.675781 C 13.675781 27.921875 13.3125 25.820312 12.769531 23.375 C 12.109375 23.441406 11.585938 23.671875 11.191406 24.066406 C 10.8125 24.46875 10.621094 24.925781 10.621094 25.433594 C 10.621094 26.3125 11.089844 27.023438 12.023438 27.5625 C 12.105469 27.644531 12.144531 27.730469 12.144531 27.824219 C 12.144531 27.917969 12.105469 28.003906 12.023438 28.082031 C 11.953125 28.164062 11.867188 28.203125 11.765625 28.203125 C 11.753906 28.203125 11.699219 28.195312 11.609375 28.171875 C 10.949219 27.8125 10.441406 27.351562 10.085938 26.785156 C 9.75 26.183594 9.582031 25.578125 9.582031 24.964844 C 9.582031 24.171875 9.832031 23.449219 10.328125 22.800781 C 10.847656 22.15625 11.523438 21.738281 12.351562 21.554688 C 12.03125 20.261719 11.765625 19.25 11.554688 18.523438 C 11.371094 18.730469 11.148438 18.984375 10.890625 19.277344 C 10.628906 19.570312 10.476562 19.75 10.429688 19.804688 C 10.015625 20.347656 9.699219 20.769531 9.476562 21.070312 C 9.085938 21.613281 8.796875 22.082031 8.613281 22.472656 C 8.417969 22.910156 8.242188 23.390625 8.09375 23.910156 C 7.941406 24.40625 7.867188 24.9375 7.867188 25.503906 Z M 13.652344 7.890625 C 12.785156 8.316406 12.105469 8.929688 11.609375 9.726562 C 11.101562 10.546875 10.847656 11.429688 10.847656 12.375 C 10.847656 13.207031 11.054688 14.328125 11.46875 15.734375 C 12.300781 14.730469 12.925781 13.800781 13.339844 12.949219 C 13.777344 12.046875 14 11.105469 14 10.125 C 14 9.386719 13.882812 8.640625 13.652344 7.890625 Z M 13.652344 7.890625 "
       style=" stroke:none;fill-rule:nonzero;fill:rgb(0%,0%,0%);fill-opacity:1;" />
    <path
       id="path96"
       d="M 30.765625 20.558594 L 60.15625 14.90625 L 60.15625 17.121094 L 30.765625 22.773438 Z M 30.765625 20.558594 "
       style=" stroke:none;fill-rule:evenodd;fill:rgb(0%,0%,0%);fill-opacity:1;" />
    <path
       id="path98"
       d="M 67.574219 8.363281 L 92.132812 3.820312 L 92.132812 6.039062 L 67.574219 10.578125 Z M 67.574219 8.363281 "
       style=" stroke:none;fill-rule:evenodd;fill:rgb(0%,0%,0%);fill-opacity:1;" />
    <path
       id="path100"
       d="M 107.855469 3.75 L 143.535156 8.253906 L 143.535156 10.472656 L 107.855469 5.964844 Z M 107.855469 3.75 "
       style=" stroke:none;fill-rule:evenodd;fill:rgb(0%,0%,0%);fill-opacity:1;" />
    <path
       id="path102"
       d="M 152.40625 14.804688 L 184.707031 20.445312 L 184.707031 22.664062 L 152.40625 17.019531 Z M 152.40625 14.804688 "
       style=" stroke:none;fill-rule:evenodd;fill:rgb(0%,0%,0%);fill-opacity:1;" />
  </g>
</svg>
