<?xml version="1.0" encoding="UTF-8" standalone="no"?>
<svg
   xmlns:dc="http://purl.org/dc/elements/1.1/"
   xmlns:cc="http://creativecommons.org/ns#"
   xmlns:rdf="http://www.w3.org/1999/02/22-rdf-syntax-ns#"
   xmlns:svg="http://www.w3.org/2000/svg"
   xmlns="http://www.w3.org/2000/svg"
   xmlns:sodipodi="http://sodipodi.sourceforge.net/DTD/sodipodi-0.dtd"
   xmlns:inkscape="http://www.inkscape.org/namespaces/inkscape"
   inkscape:version="1.0 (4035a4f, 2020-05-01)"
   sodipodi:docname="scales_minor_harm.svg"
   id="svg59"
   version="1.2"
   viewBox="0 0 110 50"
   height="50pt"
   width="110pt">
  <metadata
     id="metadata65">
    <rdf:RDF>
      <cc:Work
         rdf:about="">
        <dc:format>image/svg+xml</dc:format>
        <dc:type
           rdf:resource="http://purl.org/dc/dcmitype/StillImage" />
        <dc:title></dc:title>
      </cc:Work>
    </rdf:RDF>
  </metadata>
  <defs
     id="defs63" />
  <sodipodi:namedview
     inkscape:current-layer="svg59"
     inkscape:window-maximized="0"
     inkscape:window-y="23"
     inkscape:window-x="0"
     inkscape:cy="33.333333"
     inkscape:cx="73.333333"
     inkscape:zoom="8.7204545"
     showgrid="false"
     id="namedview61"
     inkscape:window-height="480"
     inkscape:window-width="741"
     inkscape:pageshadow="2"
     inkscape:pageopacity="0"
     guidetolerance="10"
     gridtolerance="10"
     objecttolerance="10"
     borderopacity="1"
     bordercolor="#666666"
     pagecolor="#ffffff" />
  <g
     id="surface2609">
    <path
       id="path10"
       d="M 3.75 12.617188 L 101.945312 12.617188 M 3.75 17.050781 L 101.945312 17.050781 M 3.75 21.484375 L 101.945312 21.484375 M 3.75 25.917969 L 101.945312 25.917969 M 3.75 30.351562 L 101.945312 30.351562 "
       style="fill:none;stroke-width:0.354671;stroke-linecap:butt;stroke-linejoin:bevel;stroke:rgb(0%,0%,0%);stroke-opacity:1;stroke-miterlimit:10;" />
    <path
       id="path12"
       d="M 101.589844 12.617188 L 101.589844 30.351562 "
       style="fill:none;stroke-width:0.709342;stroke-linecap:butt;stroke-linejoin:bevel;stroke:rgb(0%,0%,0%);stroke-opacity:1;stroke-miterlimit:10;" />
    <path
       id="path14"
       d="M 42.199219 29.621094 L 42.199219 30.992188 C 42.199219 31.476562 42.222656 31.863281 42.269531 32.152344 C 42.652344 31.828125 42.921875 31.585938 43.085938 31.421875 C 43.269531 31.238281 43.453125 30.984375 43.636719 30.660156 C 43.824219 30.339844 43.914062 30.015625 43.914062 29.691406 C 43.914062 29.367188 43.847656 29.089844 43.707031 28.859375 C 43.570312 28.628906 43.382812 28.515625 43.152344 28.515625 C 42.875 28.515625 42.644531 28.617188 42.460938 28.824219 C 42.289062 29.058594 42.199219 29.324219 42.199219 29.621094 Z M 41.472656 32.792969 L 41.25 22.246094 C 41.410156 22.152344 41.570312 22.105469 41.734375 22.105469 C 41.894531 22.105469 42.054688 22.152344 42.21875 22.246094 L 42.078125 28.359375 C 42.554688 27.953125 43.09375 27.753906 43.707031 27.753906 C 44.15625 27.753906 44.53125 27.9375 44.832031 28.304688 C 45.132812 28.675781 45.285156 29.097656 45.285156 29.570312 C 45.285156 29.871094 45.183594 30.1875 44.988281 30.523438 C 44.804688 30.835938 44.609375 31.078125 44.398438 31.25 C 44.285156 31.34375 43.992188 31.574219 43.515625 31.941406 C 43.378906 32.046875 43.214844 32.167969 43.023438 32.308594 C 42.832031 32.445312 42.714844 32.53125 42.667969 32.566406 C 42.585938 32.613281 42.511719 32.707031 42.445312 32.84375 C 42.363281 32.960938 42.269531 33.058594 42.167969 33.136719 C 42.085938 33.207031 41.988281 33.242188 41.871094 33.242188 C 41.757812 33.242188 41.664062 33.203125 41.59375 33.121094 C 41.515625 33.039062 41.472656 32.929688 41.472656 32.792969 Z M 41.472656 32.792969 "
       style=" stroke:none;fill-rule:nonzero;fill:rgb(0%,0%,0%);fill-opacity:1;" />
    <path
       id="path16"
       d="M 70.949219 22.972656 L 70.949219 24.339844 C 70.949219 24.824219 70.972656 25.210938 71.019531 25.5 C 71.402344 25.175781 71.671875 24.933594 71.832031 24.773438 C 72.019531 24.589844 72.203125 24.335938 72.386719 24.011719 C 72.574219 23.6875 72.664062 23.363281 72.664062 23.042969 C 72.664062 22.71875 72.59375 22.441406 72.457031 22.210938 C 72.320312 21.980469 72.132812 21.863281 71.902344 21.863281 C 71.625 21.863281 71.394531 21.96875 71.210938 22.175781 C 71.035156 22.40625 70.949219 22.671875 70.949219 22.972656 Z M 70.222656 26.140625 L 69.996094 15.59375 C 70.160156 15.503906 70.320312 15.457031 70.484375 15.457031 C 70.644531 15.457031 70.804688 15.503906 70.96875 15.59375 L 70.828125 21.707031 C 71.300781 21.304688 71.84375 21.101562 72.457031 21.101562 C 72.90625 21.101562 73.28125 21.285156 73.582031 21.65625 C 73.882812 22.027344 74.03125 22.445312 74.03125 22.921875 C 74.03125 23.21875 73.933594 23.539062 73.738281 23.871094 C 73.554688 24.183594 73.359375 24.425781 73.148438 24.601562 C 73.035156 24.691406 72.738281 24.921875 72.265625 25.292969 C 72.128906 25.398438 71.964844 25.519531 71.773438 25.65625 C 71.582031 25.796875 71.464844 25.882812 71.417969 25.917969 C 71.335938 25.960938 71.261719 26.054688 71.191406 26.195312 C 71.113281 26.308594 71.019531 26.40625 70.914062 26.488281 C 70.835938 26.558594 70.738281 26.59375 70.621094 26.59375 C 70.503906 26.59375 70.414062 26.550781 70.34375 26.46875 C 70.261719 26.390625 70.222656 26.28125 70.222656 26.140625 Z M 70.222656 26.140625 "
       style=" stroke:none;fill-rule:nonzero;fill:rgb(0%,0%,0%);fill-opacity:1;" />
    <path
       id="path18"
       d="M 24.175781 34.785156 L 32.671875 34.785156 "
       style="fill:none;stroke-width:0.709342;stroke-linecap:square;stroke-linejoin:bevel;stroke:rgb(0%,0%,0%);stroke-opacity:1;stroke-miterlimit:10;" />
    <path
       id="path20"
       d="M 31.054688 33.949219 L 31.054688 21.484375 "
       style="fill:none;stroke-width:0.57634;stroke-linecap:round;stroke-linejoin:bevel;stroke:rgb(0%,0%,0%);stroke-opacity:1;stroke-miterlimit:10;" />
    <path
       id="path22"
       d="M 39.015625 31.734375 L 39.015625 19.949219 "
       style="fill:none;stroke-width:0.57634;stroke-linecap:round;stroke-linejoin:bevel;stroke:rgb(0%,0%,0%);stroke-opacity:1;stroke-miterlimit:10;" />
    <path
       id="path24"
       d="M 67.765625 25.082031 L 67.765625 9.292969 "
       style="fill:none;stroke-width:0.57634;stroke-linecap:round;stroke-linejoin:bevel;stroke:rgb(0%,0%,0%);stroke-opacity:1;stroke-miterlimit:10;" />
    <path
       id="path26"
       d="M 59.804688 27.300781 L 59.804688 15.941406 "
       style="fill:none;stroke-width:0.57634;stroke-linecap:round;stroke-linejoin:bevel;stroke:rgb(0%,0%,0%);stroke-opacity:1;stroke-miterlimit:10;" />
    <path
       id="path28"
       d="M 51.84375 29.515625 L 51.84375 17.476562 "
       style="fill:none;stroke-width:0.57634;stroke-linecap:round;stroke-linejoin:bevel;stroke:rgb(0%,0%,0%);stroke-opacity:1;stroke-miterlimit:10;" />
    <path
       id="path30"
       d="M 80.59375 22.867188 L 80.59375 7.3125 "
       style="fill:none;stroke-width:0.57634;stroke-linecap:round;stroke-linejoin:bevel;stroke:rgb(0%,0%,0%);stroke-opacity:1;stroke-miterlimit:10;" />
    <path
       id="path32"
       d="M 96.515625 18.433594 L 96.515625 4.859375 "
       style="fill:none;stroke-width:0.57634;stroke-linecap:round;stroke-linejoin:bevel;stroke:rgb(0%,0%,0%);stroke-opacity:1;stroke-miterlimit:10;" />
    <path
       id="path34"
       d="M 88.554688 20.652344 L 88.554688 6.085938 "
       style="fill:none;stroke-width:0.57634;stroke-linecap:round;stroke-linejoin:bevel;stroke:rgb(0%,0%,0%);stroke-opacity:1;stroke-miterlimit:10;" />
    <path
       id="path36"
       d="M 29.402344 32.339844 C 29.957031 32.339844 30.425781 32.484375 30.804688 32.773438 C 31.164062 33.085938 31.339844 33.480469 31.339844 33.953125 C 31.339844 34.75 30.933594 35.492188 30.113281 36.1875 C 29.28125 36.878906 28.390625 37.226562 27.445312 37.226562 C 26.890625 37.226562 26.421875 37.082031 26.042969 36.792969 C 25.683594 36.480469 25.503906 36.089844 25.503906 35.613281 C 25.503906 34.816406 25.921875 34.074219 26.753906 33.378906 C 27.5625 32.6875 28.445312 32.339844 29.402344 32.339844 Z M 29.402344 32.339844 "
       style=" stroke:none;fill-rule:nonzero;fill:rgb(0%,0%,0%);fill-opacity:1;" />
    <path
       id="path38"
       d="M 50.191406 27.90625 C 50.746094 27.90625 51.210938 28.050781 51.59375 28.339844 C 51.953125 28.652344 52.128906 29.046875 52.128906 29.519531 C 52.128906 30.316406 51.71875 31.058594 50.902344 31.753906 C 50.070312 32.445312 49.179688 32.792969 48.234375 32.792969 C 47.679688 32.792969 47.210938 32.648438 46.832031 32.359375 C 46.472656 32.046875 46.292969 31.65625 46.292969 31.179688 C 46.292969 30.382812 46.710938 29.640625 47.542969 28.945312 C 48.347656 28.253906 49.234375 27.90625 50.191406 27.90625 Z M 50.191406 27.90625 "
       style=" stroke:none;fill-rule:nonzero;fill:rgb(0%,0%,0%);fill-opacity:1;" />
    <path
       id="path40"
       d="M 37.363281 30.125 C 37.917969 30.125 38.382812 30.269531 38.765625 30.558594 C 39.125 30.871094 39.300781 31.261719 39.300781 31.734375 C 39.300781 32.53125 38.894531 33.277344 38.074219 33.96875 C 37.242188 34.660156 36.351562 35.007812 35.40625 35.007812 C 34.851562 35.007812 34.382812 34.863281 34.003906 34.574219 C 33.644531 34.265625 33.464844 33.871094 33.464844 33.398438 C 33.464844 32.601562 33.882812 31.855469 34.714844 31.164062 C 35.523438 30.472656 36.40625 30.125 37.363281 30.125 Z M 37.363281 30.125 "
       style=" stroke:none;fill-rule:nonzero;fill:rgb(0%,0%,0%);fill-opacity:1;" />
    <path
       id="path42"
       d="M 66.113281 23.476562 C 66.667969 23.476562 67.132812 23.617188 67.515625 23.90625 C 67.871094 24.21875 68.050781 24.613281 68.050781 25.085938 C 68.050781 25.882812 67.640625 26.625 66.824219 27.320312 C 65.992188 28.011719 65.101562 28.359375 64.15625 28.359375 C 63.601562 28.359375 63.132812 28.214844 62.753906 27.925781 C 62.394531 27.613281 62.214844 27.222656 62.214844 26.746094 C 62.214844 25.949219 62.632812 25.207031 63.460938 24.515625 C 64.269531 23.820312 65.152344 23.476562 66.113281 23.476562 Z M 66.113281 23.476562 "
       style=" stroke:none;fill-rule:nonzero;fill:rgb(0%,0%,0%);fill-opacity:1;" />
    <path
       id="path44"
       d="M 58.152344 25.691406 C 58.707031 25.691406 59.171875 25.835938 59.554688 26.125 C 59.914062 26.4375 60.089844 26.828125 60.089844 27.300781 C 60.089844 28.097656 59.679688 28.84375 58.863281 29.535156 C 58.03125 30.230469 57.140625 30.574219 56.195312 30.574219 C 55.640625 30.574219 55.171875 30.429688 54.792969 30.140625 C 54.433594 29.832031 54.253906 29.4375 54.253906 28.964844 C 54.253906 28.167969 54.671875 27.421875 55.5 26.730469 C 56.308594 26.039062 57.191406 25.691406 58.152344 25.691406 Z M 58.152344 25.691406 "
       style=" stroke:none;fill-rule:nonzero;fill:rgb(0%,0%,0%);fill-opacity:1;" />
    <path
       id="path46"
       d="M 86.902344 19.042969 C 87.453125 19.042969 87.921875 19.1875 88.304688 19.472656 C 88.660156 19.785156 88.839844 20.179688 88.839844 20.652344 C 88.839844 21.449219 88.429688 22.191406 87.609375 22.886719 C 86.78125 23.578125 85.890625 23.925781 84.945312 23.925781 C 84.390625 23.925781 83.921875 23.78125 83.542969 23.492188 C 83.183594 23.179688 83.003906 22.789062 83.003906 22.3125 C 83.003906 21.519531 83.421875 20.773438 84.25 20.082031 C 85.058594 19.386719 85.941406 19.042969 86.902344 19.042969 Z M 86.902344 19.042969 "
       style=" stroke:none;fill-rule:nonzero;fill:rgb(0%,0%,0%);fill-opacity:1;" />
    <path
       id="path48"
       d="M 78.941406 21.257812 C 79.496094 21.257812 79.960938 21.402344 80.34375 21.691406 C 80.699219 22.003906 80.878906 22.394531 80.878906 22.867188 C 80.878906 23.664062 80.46875 24.410156 79.648438 25.101562 C 78.820312 25.796875 77.929688 26.140625 76.984375 26.140625 C 76.429688 26.140625 75.960938 25.996094 75.582031 25.707031 C 75.222656 25.398438 75.042969 25.003906 75.042969 24.53125 C 75.042969 23.734375 75.460938 22.988281 76.289062 22.296875 C 77.097656 21.605469 77.980469 21.257812 78.941406 21.257812 Z M 78.941406 21.257812 "
       style=" stroke:none;fill-rule:nonzero;fill:rgb(0%,0%,0%);fill-opacity:1;" />
    <path
       id="path50"
       d="M 94.863281 16.824219 C 95.414062 16.824219 95.882812 16.96875 96.265625 17.257812 C 96.621094 17.570312 96.800781 17.960938 96.800781 18.433594 C 96.800781 19.230469 96.390625 19.976562 95.570312 20.667969 C 94.742188 21.363281 93.851562 21.707031 92.90625 21.707031 C 92.351562 21.707031 91.882812 21.5625 91.503906 21.273438 C 91.144531 20.964844 90.964844 20.570312 90.964844 20.097656 C 90.964844 19.300781 91.378906 18.554688 92.210938 17.863281 C 93.019531 17.171875 93.902344 16.824219 94.863281 16.824219 Z M 94.863281 16.824219 "
       style=" stroke:none;fill-rule:nonzero;fill:rgb(0%,0%,0%);fill-opacity:1;" />
    <path
       id="path52"
       d="M 13.097656 21.378906 C 13.097656 21.378906 13.132812 21.378906 13.203125 21.378906 C 13.246094 21.367188 13.289062 21.363281 13.324219 21.363281 C 14.617188 21.363281 15.679688 21.816406 16.507812 22.730469 C 17.339844 23.628906 17.757812 24.679688 17.757812 25.882812 C 17.757812 27.371094 17.136719 28.582031 15.902344 29.519531 C 15.578125 29.773438 15.160156 29.980469 14.640625 30.140625 C 14.695312 30.890625 14.726562 31.5 14.726562 31.960938 C 14.726562 32.054688 14.714844 32.386719 14.691406 32.964844 C 14.644531 34.039062 14.273438 34.96875 13.582031 35.753906 C 12.914062 36.527344 12.082031 36.914062 11.089844 36.914062 C 10.152344 36.914062 9.355469 36.585938 8.699219 35.925781 C 8.039062 35.257812 7.710938 34.449219 7.710938 33.5 C 7.710938 33.003906 7.902344 32.582031 8.285156 32.238281 C 8.675781 31.890625 9.132812 31.71875 9.652344 31.71875 C 10.113281 31.71875 10.5 31.898438 10.8125 32.253906 C 11.136719 32.589844 11.296875 33.003906 11.296875 33.5 C 11.296875 33.953125 11.136719 34.339844 10.8125 34.660156 C 10.488281 34.984375 10.101562 35.148438 9.652344 35.148438 C 9.464844 35.148438 9.289062 35.113281 9.113281 35.042969 C 9.621094 35.792969 10.296875 36.167969 11.140625 36.167969 C 11.9375 36.167969 12.589844 35.84375 13.097656 35.199219 C 13.628906 34.527344 13.917969 33.75 13.964844 32.859375 C 13.988281 32.308594 14 31.988281 14 31.910156 C 14 31.261719 13.976562 30.730469 13.929688 30.316406 C 13.351562 30.40625 12.839844 30.453125 12.386719 30.453125 C 10.78125 30.453125 9.414062 29.820312 8.285156 28.550781 C 7.175781 27.265625 6.621094 25.742188 6.621094 23.976562 C 6.621094 23.609375 6.65625 23.230469 6.726562 22.851562 C 6.792969 22.539062 6.878906 22.199219 6.984375 21.828125 C 7.042969 21.621094 7.199219 21.285156 7.453125 20.824219 C 7.542969 20.6875 7.648438 20.511719 7.765625 20.304688 C 7.878906 20.097656 7.960938 19.960938 8.007812 19.890625 C 8.121094 19.660156 8.347656 19.347656 8.679688 18.953125 C 8.773438 18.851562 8.871094 18.734375 8.96875 18.609375 C 9.066406 18.480469 9.148438 18.378906 9.21875 18.296875 C 9.289062 18.214844 9.339844 18.152344 9.375 18.105469 C 9.410156 18.058594 9.667969 17.753906 10.152344 17.1875 C 10.269531 17.074219 10.382812 16.949219 10.492188 16.816406 C 10.601562 16.683594 10.691406 16.578125 10.761719 16.503906 C 10.828125 16.429688 10.882812 16.375 10.914062 16.339844 C 10.5 14.964844 10.242188 13.867188 10.136719 13.050781 C 10.054688 12.390625 10.015625 11.492188 10.015625 10.347656 C 10.015625 9.34375 10.246094 8.402344 10.707031 7.523438 C 11.15625 6.613281 11.789062 5.867188 12.59375 5.289062 C 12.652344 5.257812 12.710938 5.238281 12.769531 5.238281 C 12.847656 5.238281 12.90625 5.257812 12.941406 5.289062 C 13.566406 6.042969 14.101562 7.015625 14.550781 8.21875 C 15.015625 9.417969 15.246094 10.507812 15.246094 11.492188 C 15.246094 12.597656 14.980469 13.636719 14.449219 14.609375 C 13.847656 15.636719 13.074219 16.699219 12.128906 17.792969 C 12.371094 18.554688 12.695312 19.75 13.097656 21.378906 Z M 14.570312 29.433594 C 15.171875 29.210938 15.636719 28.835938 15.972656 28.304688 C 16.34375 27.796875 16.527344 27.226562 16.527344 26.59375 C 16.527344 25.773438 16.25 25.042969 15.695312 24.410156 C 15.128906 23.75 14.40625 23.382812 13.53125 23.300781 C 14.027344 25.738281 14.375 27.78125 14.570312 29.433594 Z M 7.867188 25.429688 C 7.867188 26.574219 8.328125 27.578125 9.253906 28.445312 C 10.199219 29.289062 11.261719 29.710938 12.441406 29.710938 C 12.925781 29.710938 13.398438 29.675781 13.859375 29.605469 C 13.675781 27.851562 13.3125 25.75 12.769531 23.300781 C 12.109375 23.371094 11.585938 23.601562 11.191406 23.996094 C 10.8125 24.398438 10.621094 24.855469 10.621094 25.363281 C 10.621094 26.238281 11.089844 26.949219 12.023438 27.492188 C 12.105469 27.574219 12.144531 27.660156 12.144531 27.753906 C 12.144531 27.84375 12.105469 27.929688 12.023438 28.011719 C 11.953125 28.09375 11.867188 28.132812 11.765625 28.132812 C 11.753906 28.132812 11.699219 28.121094 11.609375 28.097656 C 10.949219 27.742188 10.441406 27.277344 10.085938 26.714844 C 9.75 26.113281 9.582031 25.507812 9.582031 24.894531 C 9.582031 24.097656 9.832031 23.375 10.328125 22.730469 C 10.847656 22.082031 11.523438 21.667969 12.351562 21.484375 C 12.03125 20.191406 11.765625 19.179688 11.554688 18.453125 C 11.371094 18.660156 11.148438 18.910156 10.890625 19.207031 C 10.628906 19.5 10.476562 19.675781 10.429688 19.734375 C 10.015625 20.277344 9.699219 20.699219 9.476562 21 C 9.085938 21.539062 8.796875 22.007812 8.613281 22.402344 C 8.417969 22.839844 8.242188 23.320312 8.09375 23.839844 C 7.941406 24.335938 7.867188 24.867188 7.867188 25.429688 Z M 13.652344 7.820312 C 12.785156 8.246094 12.105469 8.859375 11.609375 9.65625 C 11.101562 10.476562 10.847656 11.359375 10.847656 12.304688 C 10.847656 13.136719 11.054688 14.253906 11.46875 15.664062 C 12.300781 14.660156 12.925781 13.730469 13.339844 12.875 C 13.777344 11.976562 14 11.035156 14 10.054688 C 14 9.3125 13.882812 8.570312 13.652344 7.820312 Z M 13.652344 7.820312 "
       style=" stroke:none;fill-rule:nonzero;fill:rgb(0%,0%,0%);fill-opacity:1;" />
    <path
       id="path54"
       d="M 30.765625 20.484375 L 60.09375 14.832031 L 60.09375 17.050781 L 30.765625 22.703125 Z M 30.765625 20.484375 "
       style=" stroke:none;fill-rule:evenodd;fill:rgb(0%,0%,0%);fill-opacity:1;" />
    <path
       id="path56"
       d="M 67.476562 8.273438 L 96.800781 3.75 L 96.800781 5.964844 L 67.476562 10.488281 Z M 67.476562 8.273438 "
       style=" stroke:none;fill-rule:evenodd;fill:rgb(0%,0%,0%);fill-opacity:1;" />
  </g>
</svg>
