<?xml version="1.0" encoding="UTF-8" standalone="no"?>
<svg
   xmlns:dc="http://purl.org/dc/elements/1.1/"
   xmlns:cc="http://creativecommons.org/ns#"
   xmlns:rdf="http://www.w3.org/1999/02/22-rdf-syntax-ns#"
   xmlns:svg="http://www.w3.org/2000/svg"
   xmlns="http://www.w3.org/2000/svg"
   xmlns:sodipodi="http://sodipodi.sourceforge.net/DTD/sodipodi-0.dtd"
   xmlns:inkscape="http://www.inkscape.org/namespaces/inkscape"
   inkscape:version="1.0 (4035a4f, 2020-05-01)"
   sodipodi:docname="scales_degrees.svg"
   id="svg75"
   version="1.2"
   viewBox="0 0 180 70"
   height="70pt"
   width="180pt">
  <metadata
     id="metadata81">
    <rdf:RDF>
      <cc:Work
         rdf:about="">
        <dc:format>image/svg+xml</dc:format>
        <dc:type
           rdf:resource="http://purl.org/dc/dcmitype/StillImage" />
        <dc:title></dc:title>
      </cc:Work>
    </rdf:RDF>
  </metadata>
  <defs
     id="defs79" />
  <sodipodi:namedview
     inkscape:current-layer="svg75"
     inkscape:window-maximized="1"
     inkscape:window-y="23"
     inkscape:window-x="0"
     inkscape:cy="216.31921"
     inkscape:cx="194.28975"
     inkscape:zoom="1.2880812"
     showgrid="false"
     id="namedview77"
     inkscape:window-height="855"
     inkscape:window-width="1440"
     inkscape:pageshadow="2"
     inkscape:pageopacity="0"
     guidetolerance="10"
     gridtolerance="10"
     objecttolerance="10"
     borderopacity="1"
     bordercolor="#666666"
     pagecolor="#ffffff" />
  <g
     transform="translate(-24.597656,-41)"
     id="surface3068">
    <path
       id="path10"
       d="M 28.347656,63.347656 H 192.75781 m -164.410154,5 H 192.75781 m -164.410154,5 H 192.75781 m -164.410154,5 H 192.75781 M 28.347656,83.351562 H 192.75781"
       style="fill:none;stroke:#000000;stroke-width:0.400025;stroke-linecap:butt;stroke-linejoin:bevel;stroke-miterlimit:10;stroke-opacity:1" />
    <path
       id="path12"
       d="M 192.35547,63.347656 V 83.351562"
       style="fill:none;stroke:#000000;stroke-width:0.80005;stroke-linecap:butt;stroke-linejoin:bevel;stroke-miterlimit:10;stroke-opacity:1" />
    <path
       id="path14"
       d="m 64.4375,88.351562 h 9.582031"
       style="fill:none;stroke:#000000;stroke-width:0.80005;stroke-linecap:square;stroke-linejoin:bevel;stroke-miterlimit:10;stroke-opacity:1" />
    <path
       id="path16"
       d="m 72.195312,87.410156 v -14.0625"
       style="fill:none;stroke:#000000;stroke-width:0.650041;stroke-linecap:round;stroke-linejoin:bevel;stroke-miterlimit:10;stroke-opacity:1" />
    <path
       id="path18"
       d="M 103.69922,82.410156 V 69.183594"
       style="fill:none;stroke:#000000;stroke-width:0.650041;stroke-linecap:round;stroke-linejoin:bevel;stroke-miterlimit:10;stroke-opacity:1" />
    <path
       id="path20"
       d="M 87.945312,84.910156 V 71.265625"
       style="fill:none;stroke:#000000;stroke-width:0.650041;stroke-linecap:round;stroke-linejoin:bevel;stroke-miterlimit:10;stroke-opacity:1" />
    <path
       id="path22"
       d="m 135.20312,77.410156 v -17.8125"
       style="fill:none;stroke:#000000;stroke-width:0.650041;stroke-linecap:round;stroke-linejoin:bevel;stroke-miterlimit:10;stroke-opacity:1" />
    <path
       id="path24"
       d="m 119.45313,79.910156 v -12.8125"
       style="fill:none;stroke:#000000;stroke-width:0.650041;stroke-linecap:round;stroke-linejoin:bevel;stroke-miterlimit:10;stroke-opacity:1" />
    <path
       id="path26"
       d="m 182.46094,69.910156 v -15.3125"
       style="fill:none;stroke:#000000;stroke-width:0.650041;stroke-linecap:round;stroke-linejoin:bevel;stroke-miterlimit:10;stroke-opacity:1" />
    <path
       id="path28"
       d="M 166.71094,72.410156 V 56.265625"
       style="fill:none;stroke:#000000;stroke-width:0.650041;stroke-linecap:round;stroke-linejoin:bevel;stroke-miterlimit:10;stroke-opacity:1" />
    <path
       id="path30"
       d="M 150.95703,74.910156 V 57.933594"
       style="fill:none;stroke:#000000;stroke-width:0.650041;stroke-linecap:round;stroke-linejoin:bevel;stroke-miterlimit:10;stroke-opacity:1" />
    <path
       id="path32"
       d="m 70.332031,85.597656 c 0.625,0 1.152344,0.160156 1.582031,0.488282 0.402344,0.351562 0.605469,0.792968 0.605469,1.328124 0,0.898438 -0.464843,1.738282 -1.386719,2.519532 -0.9375,0.78125 -1.941406,1.171875 -3.007812,1.171875 -0.625,0 -1.152344,-0.164063 -1.582031,-0.488281 -0.40625,-0.351563 -0.605469,-0.796876 -0.605469,-1.328126 0,-0.898437 0.46875,-1.738281 1.40625,-2.519531 0.910156,-0.78125 1.90625,-1.171875 2.988281,-1.171875 z m 0,0"
       style="fill:#000000;fill-opacity:1;fill-rule:nonzero;stroke:none" />
    <path
       id="path34"
       d="m 101.83594,80.597656 c 0.625,0 1.15234,0.160156 1.58203,0.488282 0.40234,0.351562 0.60547,0.792968 0.60547,1.328124 0,0.898438 -0.46094,1.738282 -1.38672,2.519532 -0.9375,0.78125 -1.94141,1.171875 -3.007814,1.171875 -0.625,0 -1.152344,-0.164063 -1.582031,-0.488281 -0.402344,-0.351563 -0.605469,-0.796876 -0.605469,-1.328126 0,-0.898437 0.46875,-1.738281 1.40625,-2.519531 0.910156,-0.78125 1.906254,-1.171875 2.988284,-1.171875 z m 0,0"
       style="fill:#000000;fill-opacity:1;fill-rule:nonzero;stroke:none" />
    <path
       id="path36"
       d="m 86.082031,83.097656 c 0.625,0 1.152344,0.160156 1.582031,0.488282 0.40625,0.351562 0.605469,0.792968 0.605469,1.328124 0,0.898438 -0.460937,1.738282 -1.386719,2.519532 -0.9375,0.78125 -1.9375,1.171875 -3.007812,1.171875 -0.625,0 -1.152344,-0.164063 -1.582031,-0.488281 -0.402344,-0.351563 -0.605469,-0.796876 -0.605469,-1.328126 0,-0.898437 0.46875,-1.738281 1.40625,-2.519531 0.914062,-0.78125 1.910156,-1.171875 2.988281,-1.171875 z m 0,0"
       style="fill:#000000;fill-opacity:1;fill-rule:nonzero;stroke:none" />
    <path
       id="path38"
       d="m 149.09375,73.09375 c 0.625,0 1.15234,0.164062 1.58203,0.488281 0.40234,0.351563 0.60547,0.796875 0.60547,1.328125 0,0.898438 -0.46094,1.738282 -1.38672,2.519532 -0.9375,0.78125 -1.94141,1.175781 -3.00781,1.175781 -0.625,0 -1.15235,-0.164063 -1.58203,-0.492188 -0.40235,-0.351562 -0.60547,-0.792969 -0.60547,-1.328125 0,-0.898437 0.46875,-1.738281 1.40625,-2.519531 0.91015,-0.78125 1.90625,-1.171875 2.98828,-1.171875 z m 0,0"
       style="fill:#000000;fill-opacity:1;fill-rule:nonzero;stroke:none" />
    <path
       id="path40"
       d="m 133.33984,75.59375 c 0.625,0 1.15235,0.164062 1.58203,0.488281 0.40625,0.351563 0.60547,0.796875 0.60547,1.328125 0,0.898438 -0.46093,1.742188 -1.38672,2.523438 -0.9375,0.78125 -1.9375,1.171875 -3.00781,1.171875 -0.625,0 -1.15234,-0.164063 -1.58203,-0.488281 -0.40234,-0.351563 -0.60547,-0.796876 -0.60547,-1.328126 0,-0.902343 0.46875,-1.742187 1.40625,-2.523437 0.91406,-0.78125 1.91016,-1.171875 2.98828,-1.171875 z m 0,0"
       style="fill:#000000;fill-opacity:1;fill-rule:nonzero;stroke:none" />
    <path
       id="path42"
       d="m 117.58984,78.09375 c 0.625,0 1.15235,0.164062 1.58204,0.492188 0.40234,0.351562 0.60546,0.792968 0.60546,1.328124 0,0.898438 -0.46484,1.738282 -1.38671,2.519532 -0.9375,0.78125 -1.94141,1.171875 -3.00782,1.171875 -0.625,0 -1.15234,-0.164063 -1.58203,-0.488281 -0.40625,-0.351563 -0.60547,-0.796876 -0.60547,-1.328126 0,-0.898437 0.46875,-1.738281 1.40625,-2.519531 0.91016,-0.785156 1.90625,-1.175781 2.98828,-1.175781 z m 0,0"
       style="fill:#000000;fill-opacity:1;fill-rule:nonzero;stroke:none" />
    <path
       id="path44"
       d="m 180.59766,68.09375 c 0.625,0 1.15234,0.164062 1.58203,0.488281 0.40625,0.351563 0.60547,0.796875 0.60547,1.328125 0,0.898438 -0.46094,1.738282 -1.38672,2.519532 -0.9375,0.78125 -1.94141,1.171874 -3.00782,1.171874 -0.625,0 -1.15234,-0.160156 -1.58203,-0.488281 -0.40234,-0.351562 -0.60547,-0.792969 -0.60547,-1.328125 0,-0.898437 0.46875,-1.738281 1.40625,-2.519531 0.91016,-0.78125 1.90625,-1.171875 2.98829,-1.171875 z m 0,0"
       style="fill:#000000;fill-opacity:1;fill-rule:nonzero;stroke:none" />
    <path
       id="path46"
       d="m 164.84766,70.59375 c 0.625,0 1.15234,0.164062 1.58203,0.488281 0.40234,0.351563 0.60547,0.796875 0.60547,1.328125 0,0.898438 -0.46485,1.738282 -1.38672,2.519532 -0.9375,0.78125 -1.94141,1.171874 -3.00782,1.171874 -0.6289,0 -1.15625,-0.160156 -1.58593,-0.488281 -0.40235,-0.351562 -0.60547,-0.792969 -0.60547,-1.328125 0,-0.898437 0.46875,-1.738281 1.40625,-2.519531 0.91406,-0.78125 1.91015,-1.171875 2.99219,-1.171875 z m 0,0"
       style="fill:#000000;fill-opacity:1;fill-rule:nonzero;stroke:none" />
    <path
       id="path48"
       d="m 38.890625,73.230469 c 0,0 0.03906,0 0.117187,0 0.05078,-0.01172 0.09766,-0.01953 0.136719,-0.01953 1.457031,0 2.65625,0.515624 3.59375,1.542968 0.9375,1.015625 1.40625,2.203125 1.40625,3.554688 0,1.683594 -0.695312,3.050781 -2.089843,4.105468 -0.363282,0.285157 -0.839844,0.519532 -1.425782,0.703126 0.06641,0.84375 0.09766,1.527343 0.09766,2.050781 0,0.101562 -0.01172,0.480469 -0.03906,1.132812 -0.05078,1.210938 -0.46875,2.257813 -1.25,3.144531 -0.753906,0.871094 -1.691406,1.308594 -2.8125,1.308594 -1.054688,0 -1.953125,-0.371094 -2.695312,-1.113281 -0.742188,-0.757813 -1.113282,-1.667969 -1.113282,-2.734375 0,-0.5625 0.214844,-1.035156 0.644532,-1.425781 0.441406,-0.390625 0.957031,-0.585938 1.542968,-0.585938 0.519532,0 0.957032,0.199219 1.308594,0.605469 0.363281,0.375 0.546875,0.84375 0.546875,1.40625 0,0.507812 -0.183594,0.941406 -0.546875,1.308594 -0.363281,0.363281 -0.800781,0.546875 -1.308594,0.546875 -0.207031,0 -0.410156,-0.03906 -0.605468,-0.117188 0.574218,0.84375 1.335937,1.269531 2.285156,1.269531 0.898437,0 1.632812,-0.367187 2.207031,-1.09375 0.597656,-0.757812 0.925781,-1.636718 0.976563,-2.636718 0.02734,-0.625 0.03906,-0.984375 0.03906,-1.074219 0,-0.730469 -0.02734,-1.328125 -0.07813,-1.796875 -0.652344,0.101562 -1.230469,0.15625 -1.738281,0.15625 -1.808594,0 -3.351563,-0.71875 -4.628906,-2.148438 -1.25,-1.445312 -1.875,-3.167968 -1.875,-5.160156 0,-0.414062 0.03906,-0.839844 0.117187,-1.269531 0.07813,-0.351563 0.175781,-0.734375 0.292969,-1.152344 0.06641,-0.234375 0.242187,-0.609375 0.527344,-1.132812 0.105468,-0.15625 0.222656,-0.351563 0.351562,-0.585938 0.128906,-0.234375 0.222656,-0.390625 0.273438,-0.46875 0.128906,-0.257812 0.382812,-0.609375 0.761718,-1.054687 0.105469,-0.117188 0.210938,-0.246094 0.320313,-0.390625 0.113281,-0.140625 0.207031,-0.257813 0.285156,-0.351563 0.07813,-0.08984 0.136719,-0.160156 0.175781,-0.214844 0.03906,-0.05078 0.332032,-0.394531 0.878906,-1.035156 0.128907,-0.128906 0.257813,-0.269531 0.382813,-0.417968 0.121094,-0.152344 0.222656,-0.269532 0.300781,-0.351563 0.07813,-0.08594 0.136719,-0.148437 0.175782,-0.1875 C 35.960938,66 35.667969,64.761719 35.550781,63.835938 c -0.08984,-0.742188 -0.136719,-1.757813 -0.136719,-3.046876 0,-1.132812 0.261719,-2.191406 0.78125,-3.183593 0.507813,-1.027344 1.21875,-1.867188 2.128907,-2.519531 0.06641,-0.03906 0.128906,-0.05859 0.195312,-0.05859 0.08984,0 0.15625,0.01953 0.195313,0.05859 0.703125,0.847656 1.308594,1.945312 1.816406,3.300781 0.519531,1.355469 0.78125,2.585937 0.78125,3.691406 0,1.25 -0.300781,2.421875 -0.898438,3.515625 -0.675781,1.160156 -1.550781,2.359375 -2.617187,3.59375 0.273437,0.859375 0.636719,2.207031 1.09375,4.042969 z m 1.660156,9.085937 c 0.675781,-0.25 1.203125,-0.671875 1.582031,-1.269531 0.417969,-0.574219 0.625,-1.21875 0.625,-1.933594 0,-0.925781 -0.3125,-1.746093 -0.9375,-2.464843 -0.636718,-0.742188 -1.453124,-1.15625 -2.441406,-1.25 0.558594,2.75 0.949219,5.054687 1.171875,6.917968 z m -7.558593,-4.515625 c 0,1.292969 0.519531,2.425781 1.5625,3.402344 1.066406,0.949219 2.265624,1.425781 3.59375,1.425781 0.546874,0 1.082031,-0.03906 1.601562,-0.117187 -0.207031,-1.980469 -0.617188,-4.351563 -1.230469,-7.113281 -0.742187,0.07812 -1.335937,0.339843 -1.777343,0.78125 -0.429688,0.457031 -0.644532,0.972656 -0.644532,1.542968 0,0.992188 0.527344,1.792969 1.582032,2.40625 0.08984,0.08984 0.136718,0.1875 0.136718,0.292969 0,0.101563 -0.04687,0.199219 -0.136718,0.292969 -0.07813,0.08984 -0.175782,0.136718 -0.292969,0.136718 -0.01172,0 -0.07031,-0.01562 -0.175781,-0.03906 -0.742188,-0.40625 -1.316407,-0.925781 -1.71875,-1.5625 -0.378907,-0.679688 -0.566407,-1.363281 -0.566407,-2.054688 0,-0.898437 0.28125,-1.710937 0.839844,-2.441406 0.585937,-0.726562 1.347656,-1.195312 2.285156,-1.40625 C 37.6875,71.890625 37.386719,70.75 37.152344,69.929688 c -0.207032,0.234374 -0.457032,0.519531 -0.75,0.851562 -0.292969,0.332031 -0.46875,0.53125 -0.519532,0.59375 -0.46875,0.613281 -0.828124,1.089844 -1.074218,1.425781 -0.441406,0.613281 -0.769532,1.140625 -0.976563,1.582031 -0.222656,0.496094 -0.417969,1.035157 -0.585937,1.621094 -0.167969,0.5625 -0.253906,1.160156 -0.253906,1.796875 z M 39.515625,57.9375 c -0.976563,0.484375 -1.746094,1.171875 -2.304687,2.070312 -0.574219,0.925782 -0.859376,1.921876 -0.859376,2.988282 0,0.9375 0.234376,2.203125 0.703126,3.789062 0.9375,-1.132812 1.640624,-2.179687 2.109374,-3.144531 0.496094,-1.015625 0.742188,-2.074219 0.742188,-3.183594 0,-0.832031 -0.128906,-1.671875 -0.390625,-2.519531 z m 0,0"
       style="fill:#000000;fill-opacity:1;fill-rule:nonzero;stroke:none" />
    <path
       id="path50"
       d="m 53.675781,63.601562 c 0.394531,0 0.726563,-0.04297 1,-0.136718 0.273438,-0.08984 0.449219,-0.136719 0.527344,-0.136719 0.08984,0 0.160156,0.02734 0.214844,0.07813 0.03906,0.03906 0.0625,0.08594 0.07813,0.136719 0,0.02734 -0.01563,0.06641 -0.03906,0.117187 l -5.6875,6.601563 h 3.339844 v -2.617188 c 0,-0.167969 0.04687,-0.3125 0.136719,-0.429687 0.15625,-0.128906 0.289062,-0.207032 0.390625,-0.234375 0.171875,-0.07813 0.378906,-0.257813 0.628906,-0.546875 0.207031,-0.234375 0.453125,-0.644532 0.742187,-1.230469 0.03906,-0.07813 0.09766,-0.117187 0.175782,-0.117187 0.15625,0 0.246094,0.09375 0.273437,0.273437 v 4.902344 h 1.425781 c 0.179688,0 0.285157,0.09766 0.3125,0.292969 0,0.195312 -0.105468,0.292968 -0.3125,0.292968 h -1.425781 v 0.15625 c 0,0.523438 0.128907,0.964844 0.390625,1.328125 0.296875,0.367188 0.648438,0.546875 1.054688,0.546875 0.15625,0 0.234375,0.07813 0.234375,0.234375 0,0.15625 -0.07813,0.234375 -0.234375,0.234375 -0.273438,0 -0.71875,-0.03906 -1.328125,-0.117187 -0.5625,-0.08984 -0.996094,-0.136719 -1.308594,-0.136719 -0.328125,0 -0.765625,0.04687 -1.3125,0.136719 -0.585937,0.07813 -1.019531,0.117187 -1.308594,0.117187 -0.15625,0 -0.234375,-0.07813 -0.234375,-0.234375 0,-0.15625 0.07813,-0.234375 0.234375,-0.234375 0.40625,0 0.757813,-0.179687 1.054688,-0.546875 0.273437,-0.363281 0.410156,-0.804687 0.410156,-1.328125 v -0.15625 h -3.339844 c -0.21875,0 -0.375,-0.05078 -0.46875,-0.15625 -0.101562,-0.07813 -0.15625,-0.179687 -0.15625,-0.3125 0,-0.03906 0.09766,-0.175781 0.292969,-0.410156 0.222656,-0.257812 0.457031,-0.578125 0.703125,-0.957031 0.289063,-0.441407 0.5625,-0.898438 0.820313,-1.367188 C 51.25,67.113281 51.476562,66.5 51.644531,65.808594 51.839844,65.105469 51.9375,64.390625 51.9375,63.660156 c 0,-0.207031 0.09375,-0.3125 0.273438,-0.3125 0.03906,0 0.125,0.01953 0.253906,0.05859 0.03906,0.01563 0.121094,0.03516 0.246094,0.05859 0.125,0.02734 0.222656,0.05469 0.300781,0.07813 0.234375,0.03906 0.457031,0.05859 0.664062,0.05859 z m 0,0"
       style="fill:#000000;fill-opacity:1;fill-rule:nonzero;stroke:none" />
    <path
       id="path52"
       d="m 53.675781,73.601562 c 0.394531,0 0.726563,-0.04297 1,-0.136718 0.273438,-0.08984 0.449219,-0.136719 0.527344,-0.136719 0.08984,0 0.160156,0.02734 0.214844,0.07813 0.03906,0.03906 0.0625,0.08594 0.07813,0.136719 0,0.02734 -0.01563,0.06641 -0.03906,0.117187 l -5.6875,6.605469 h 3.339844 v -2.621094 c 0,-0.167969 0.04687,-0.3125 0.136719,-0.429687 0.15625,-0.128906 0.289062,-0.207032 0.390625,-0.234375 0.171875,-0.07813 0.378906,-0.257813 0.628906,-0.546875 0.207031,-0.234375 0.453125,-0.644532 0.742187,-1.230469 0.03906,-0.07813 0.09766,-0.117187 0.175782,-0.117187 0.15625,0 0.246094,0.09375 0.273437,0.273437 v 4.90625 h 1.425781 c 0.179688,0 0.285157,0.09766 0.3125,0.292969 0,0.195312 -0.105468,0.292968 -0.3125,0.292968 h -1.425781 v 0.15625 c 0,0.519532 0.128907,0.960938 0.390625,1.328126 0.296875,0.363281 0.648438,0.546874 1.054688,0.546874 0.15625,0 0.234375,0.07813 0.234375,0.234376 0,0.15625 -0.07813,0.234374 -0.234375,0.234374 -0.273438,0 -0.71875,-0.03906 -1.328125,-0.117187 -0.5625,-0.09375 -0.996094,-0.136719 -1.308594,-0.136719 -0.328125,0 -0.765625,0.04297 -1.3125,0.136719 -0.585937,0.07813 -1.019531,0.117187 -1.308594,0.117187 -0.15625,0 -0.234375,-0.07812 -0.234375,-0.234374 0,-0.15625 0.07813,-0.234376 0.234375,-0.234376 0.40625,0 0.757813,-0.183593 1.054688,-0.546874 0.273437,-0.367188 0.410156,-0.808594 0.410156,-1.328126 v -0.15625 h -3.339844 c -0.21875,0 -0.375,-0.05469 -0.46875,-0.15625 -0.101562,-0.07812 -0.15625,-0.183593 -0.15625,-0.3125 0,-0.03906 0.09766,-0.175781 0.292969,-0.410156 0.222656,-0.261718 0.457031,-0.582031 0.703125,-0.957031 0.289063,-0.445313 0.5625,-0.902344 0.820313,-1.371094 C 51.25,77.113281 51.476562,76.5 51.644531,75.808594 51.839844,75.105469 51.9375,74.390625 51.9375,73.660156 c 0,-0.207031 0.09375,-0.3125 0.273438,-0.3125 0.03906,0 0.125,0.01953 0.253906,0.05859 0.03906,0.01563 0.121094,0.03516 0.246094,0.05859 0.125,0.02734 0.222656,0.05469 0.300781,0.07813 0.234375,0.03906 0.457031,0.05859 0.664062,0.05859 z m 0,0"
       style="fill:#000000;fill-opacity:1;fill-rule:nonzero;stroke:none" />
    <path
       id="path54"
       d="m 71.871094,72.183594 47.906246,-6.335938 v 2.5 l -47.906246,6.335938 z m 0,0"
       style="fill:#000000;fill-opacity:1;fill-rule:evenodd;stroke:none" />
    <path
       id="path56"
       d="m 134.87891,58.417969 47.90625,-5.070313 v 2.5 l -47.90625,5.070313 z m 0,0"
       style="fill:#000000;fill-opacity:1;fill-rule:evenodd;stroke:none" />
    <path
       id="path58"
       d="m 68.441406,100.29688 v -4.441411 c 0,-0.367188 -0.05469,-0.601563 -0.164062,-0.707031 -0.109375,-0.101563 -0.378906,-0.167969 -0.804688,-0.191407 v -0.191406 h 2.96875 v 0.191406 c -0.417968,0.01953 -0.6875,0.08203 -0.804687,0.1875 -0.113281,0.109375 -0.171875,0.34375 -0.171875,0.710938 v 4.441411 c 0,0.36328 0.05859,0.60156 0.179687,0.71484 0.117188,0.10937 0.386719,0.17187 0.796875,0.18359 v 0.19141 h -2.96875 v -0.19141 c 0.421875,-0.0117 0.6875,-0.0742 0.800782,-0.17968 0.113281,-0.10547 0.167968,-0.34766 0.167968,-0.71875 z m 0,0"
       style="fill:#000000;fill-opacity:1;fill-rule:nonzero;stroke:none" />
    <path
       id="path60"
       d="m 150.96875,47.636719 v 0.1875 c -0.24609,0.01563 -0.42188,0.07422 -0.52734,0.179687 -0.10157,0.109375 -0.23438,0.359375 -0.39454,0.75 l -2.21875,5.609375 h -0.15234 L 145.21875,48.875 c -0.19531,-0.441406 -0.35547,-0.722656 -0.48438,-0.84375 -0.13281,-0.125 -0.32421,-0.191406 -0.57812,-0.207031 v -0.1875 h 2.66016 v 0.1875 c -0.1836,0.01563 -0.28125,0.01953 -0.28907,0.01953 -0.30468,0.01953 -0.46093,0.125 -0.46093,0.3125 0,0.132812 0.13671,0.5 0.41015,1.109375 l 1.51172,3.378906 1.46875,-3.667969 c 0.12891,-0.320312 0.19141,-0.566406 0.19141,-0.730468 0,-0.140625 -0.0547,-0.242188 -0.16016,-0.304688 -0.10547,-0.06641 -0.29687,-0.101562 -0.57031,-0.117187 v -0.1875 z m 1.20703,5.527343 v -4.4375 c 0,-0.367187 -0.0547,-0.601562 -0.16406,-0.707031 -0.10938,-0.101562 -0.37891,-0.167969 -0.80469,-0.195312 v -0.1875 h 2.96875 v 0.1875 c -0.41797,0.01953 -0.6875,0.08203 -0.80469,0.191406 -0.11328,0.105469 -0.17187,0.34375 -0.17187,0.710937 v 4.4375 c 0,0.367188 0.0586,0.605469 0.17969,0.714844 0.11718,0.109375 0.38671,0.171875 0.79687,0.1875 v 0.1875 h -2.96875 v -0.1875 c 0.42188,-0.01563 0.6875,-0.07422 0.80078,-0.179687 0.11328,-0.109375 0.16797,-0.347657 0.16797,-0.722657 z m 0,0"
       style="fill:#000000;fill-opacity:1;fill-rule:nonzero;stroke:none" />
    <path
       id="path62"
       d="m 138.10156,48.917969 v 0.1875 c -0.25,0.01563 -0.42187,0.07422 -0.52734,0.179687 -0.10156,0.109375 -0.23438,0.359375 -0.39453,0.75 l -2.21875,5.613282 h -0.15235 l -2.45703,-5.492188 c -0.19531,-0.4375 -0.35547,-0.722656 -0.48828,-0.84375 -0.12891,-0.125 -0.32031,-0.191406 -0.57422,-0.207031 v -0.1875 h 2.66016 v 0.1875 c -0.1875,0.01563 -0.28125,0.01953 -0.28906,0.01953 -0.3086,0.02344 -0.46094,0.125 -0.46094,0.3125 0,0.132812 0.13672,0.503906 0.41015,1.109375 l 1.51172,3.378906 1.46875,-3.667969 c 0.125,-0.320312 0.19141,-0.5625 0.19141,-0.730468 0,-0.140625 -0.0547,-0.242188 -0.16016,-0.304688 -0.10937,-0.0625 -0.29687,-0.101562 -0.57031,-0.117187 v -0.1875 z m 0,0"
       style="fill:#000000;fill-opacity:1;fill-rule:nonzero;stroke:none" />
    <path
       id="path64"
       d="m 97.601562,94.507812 v -4.4375 c 0,-0.367187 -0.05859,-0.601562 -0.167968,-0.707031 -0.109375,-0.101562 -0.378906,-0.167969 -0.804688,-0.195312 v -0.1875 h 2.972656 v 0.1875 c -0.421874,0.02344 -0.691406,0.08594 -0.808593,0.191406 -0.113281,0.105469 -0.171875,0.34375 -0.171875,0.710937 v 4.4375 c 0,0.367188 0.05859,0.605469 0.179687,0.71875 0.117188,0.109376 0.386719,0.167969 0.800781,0.183594 v 0.191406 h -2.972656 v -0.191406 c 0.421875,-0.01563 0.6875,-0.07422 0.800782,-0.179687 0.113281,-0.109375 0.171874,-0.347657 0.171874,-0.722657 z m 3.265628,0 v -4.4375 c 0,-0.367187 -0.0586,-0.601562 -0.16797,-0.707031 -0.10938,-0.101562 -0.37891,-0.167969 -0.804689,-0.195312 v -0.1875 h 2.972659 v 0.1875 c -0.42188,0.02344 -0.69141,0.08594 -0.8086,0.191406 -0.11328,0.105469 -0.17187,0.34375 -0.17187,0.710937 v 4.4375 c 0,0.367188 0.0586,0.605469 0.17969,0.71875 0.11718,0.109376 0.38672,0.167969 0.80078,0.183594 v 0.191406 h -2.972659 v -0.191406 c 0.421879,-0.01563 0.687499,-0.07422 0.800779,-0.179687 0.11328,-0.109375 0.17188,-0.347657 0.17188,-0.722657 z m 3.26562,0 v -4.4375 c 0,-0.367187 -0.0586,-0.601562 -0.16797,-0.707031 -0.10937,-0.101562 -0.3789,-0.167969 -0.80468,-0.195312 v -0.1875 h 2.97265 v 0.1875 c -0.42187,0.02344 -0.6914,0.08594 -0.80859,0.191406 -0.11328,0.105469 -0.17188,0.34375 -0.17188,0.710937 v 4.4375 c 0,0.367188 0.0586,0.605469 0.17969,0.71875 0.11719,0.109376 0.38672,0.167969 0.80078,0.183594 v 0.191406 h -2.97265 v -0.191406 c 0.42187,-0.01563 0.6875,-0.07422 0.80078,-0.179687 0.11328,-0.109375 0.17187,-0.347657 0.17187,-0.722657 z m 0,0"
       style="fill:#000000;fill-opacity:1;fill-rule:nonzero;stroke:none" />
    <path
       id="path66"
       d="m 82.878906,97.273438 v -4.441407 c 0,-0.367187 -0.05469,-0.601562 -0.164062,-0.703125 -0.109375,-0.105468 -0.378906,-0.167968 -0.804688,-0.195312 v -0.191406 h 2.96875 v 0.191406 c -0.417968,0.01953 -0.6875,0.08203 -0.804687,0.1875 -0.117188,0.109375 -0.171875,0.34375 -0.171875,0.710937 v 4.441407 c 0,0.367187 0.05859,0.605468 0.179687,0.714843 0.117188,0.109375 0.386719,0.171875 0.796875,0.183594 v 0.191406 h -2.96875 v -0.191406 c 0.421875,-0.01172 0.6875,-0.07422 0.800782,-0.179687 0.113281,-0.105469 0.167968,-0.347657 0.167968,-0.71875 z m 3.265625,0 v -4.441407 c 0,-0.367187 -0.05469,-0.601562 -0.164062,-0.703125 -0.109375,-0.105468 -0.378907,-0.167968 -0.804688,-0.195312 v -0.191406 h 2.96875 v 0.191406 c -0.417969,0.01953 -0.6875,0.08203 -0.804687,0.1875 -0.117188,0.109375 -0.171875,0.34375 -0.171875,0.710937 v 4.441407 c 0,0.367187 0.05859,0.605468 0.179687,0.714843 0.117188,0.109375 0.386719,0.171875 0.796875,0.183594 v 0.191406 h -2.96875 v -0.191406 c 0.421875,-0.01172 0.6875,-0.07422 0.800781,-0.179687 0.113282,-0.105469 0.167969,-0.347657 0.167969,-0.71875 z m 0,0"
       style="fill:#000000;fill-opacity:1;fill-rule:nonzero;stroke:none" />
    <path
       id="path68"
       d="m 113.03125,91.304688 v -4.441407 c 0,-0.367187 -0.0547,-0.601562 -0.16406,-0.703125 -0.10938,-0.105468 -0.37891,-0.167968 -0.80469,-0.195312 v -0.191406 h 2.96875 v 0.191406 c -0.41797,0.01953 -0.6875,0.08203 -0.80469,0.191406 -0.11718,0.105469 -0.17578,0.339844 -0.17578,0.707031 v 4.441407 c 0,0.367187 0.0625,0.605468 0.17969,0.714843 0.12109,0.109375 0.38672,0.171875 0.80078,0.183594 v 0.191406 h -2.96875 v -0.191406 c 0.41797,-0.01172 0.6875,-0.07031 0.80078,-0.179687 0.11328,-0.105469 0.16797,-0.34375 0.16797,-0.71875 z m 9.05469,-5.53125 v 0.191406 c -0.2461,0.01172 -0.42188,0.07422 -0.52344,0.179687 -0.10547,0.105469 -0.23437,0.355469 -0.39453,0.75 l -2.21875,5.609375 h -0.15234 l -2.46094,-5.488281 c -0.19141,-0.441406 -0.35547,-0.722656 -0.48438,-0.847656 -0.1289,-0.121094 -0.32031,-0.191407 -0.57422,-0.203125 v -0.191406 h 2.66016 v 0.191406 c -0.1875,0.01172 -0.28516,0.01953 -0.28906,0.01953 -0.3086,0.01953 -0.46094,0.125 -0.46094,0.308594 0,0.136719 0.13672,0.503906 0.41016,1.113281 l 1.50781,3.378906 1.47266,-3.671875 c 0.125,-0.320312 0.1875,-0.5625 0.1875,-0.730469 0,-0.136718 -0.0508,-0.238281 -0.16016,-0.304687 -0.10547,-0.0625 -0.29297,-0.101563 -0.56641,-0.113281 v -0.191406 z m 0,0"
       style="fill:#000000;fill-opacity:1;fill-rule:nonzero;stroke:none" />
    <path
       id="path70"
       d="m 182.79297,44.75 v 0.191406 c -0.2461,0.01172 -0.42188,0.07031 -0.52344,0.179688 -0.10547,0.105468 -0.23828,0.355468 -0.39844,0.75 l -2.21875,5.609375 h -0.14843 l -2.46094,-5.488281 c -0.19141,-0.441407 -0.35547,-0.722657 -0.48438,-0.847657 -0.1289,-0.121093 -0.32031,-0.191406 -0.57422,-0.203125 V 44.75 h 2.66016 v 0.191406 c -0.1875,0.01172 -0.28516,0.01953 -0.29297,0.01953 -0.30469,0.01953 -0.45703,0.121093 -0.45703,0.308593 0,0.132813 0.13672,0.503907 0.41016,1.109375 l 1.50781,3.382813 1.46875,-3.671875 c 0.12891,-0.320313 0.19141,-0.5625 0.19141,-0.730469 0,-0.140625 -0.0547,-0.242187 -0.16016,-0.304687 -0.10547,-0.0625 -0.29688,-0.101563 -0.57031,-0.113282 V 44.75 Z m 1.21094,5.53125 v -4.441406 c 0,-0.367188 -0.0547,-0.601563 -0.16407,-0.703125 -0.11328,-0.105469 -0.3789,-0.167969 -0.80859,-0.195313 V 44.75 h 2.97266 v 0.191406 c -0.42188,0.01953 -0.6875,0.08203 -0.80469,0.1875 -0.11719,0.109375 -0.17578,0.34375 -0.17578,0.710938 v 4.441406 c 0,0.367188 0.0586,0.605469 0.17968,0.714844 0.1211,0.109375 0.38672,0.171875 0.80079,0.183594 v 0.191406 h -2.97266 v -0.191406 c 0.42187,-0.01172 0.6875,-0.07422 0.80078,-0.179688 0.11328,-0.105469 0.17188,-0.347656 0.17188,-0.71875 z m 3.26562,0 v -4.441406 c 0,-0.367188 -0.0547,-0.601563 -0.16406,-0.703125 -0.11328,-0.105469 -0.37891,-0.167969 -0.8086,-0.195313 V 44.75 h 2.97266 v 0.191406 c -0.42187,0.01953 -0.6875,0.08203 -0.80469,0.1875 -0.11718,0.109375 -0.17578,0.34375 -0.17578,0.710938 v 4.441406 c 0,0.367188 0.0586,0.605469 0.17969,0.714844 0.12109,0.109375 0.38672,0.171875 0.80078,0.183594 v 0.191406 h -2.97266 v -0.191406 c 0.42188,-0.01172 0.6875,-0.07422 0.80079,-0.179688 0.11328,-0.105469 0.17187,-0.347656 0.17187,-0.71875 z m 3.26563,0 v -4.441406 c 0,-0.367188 -0.0547,-0.601563 -0.16407,-0.703125 -0.11328,-0.105469 -0.3789,-0.167969 -0.80859,-0.195313 V 44.75 h 2.97266 v 0.191406 c -0.42188,0.01953 -0.6875,0.08203 -0.80469,0.1875 -0.11719,0.109375 -0.17578,0.34375 -0.17578,0.710938 v 4.441406 c 0,0.367188 0.0586,0.605469 0.17968,0.714844 0.1211,0.109375 0.38672,0.171875 0.80079,0.183594 v 0.191406 h -2.97266 v -0.191406 c 0.42187,-0.01172 0.6875,-0.07422 0.80078,-0.179688 0.11328,-0.105469 0.17188,-0.347656 0.17188,-0.71875 z m 0,0"
       style="fill:#000000;fill-opacity:1;fill-rule:nonzero;stroke:none" />
    <path
       id="path72"
       d="m 165.11719,46.351562 v 0.191407 c -0.2461,0.01172 -0.42188,0.07422 -0.52344,0.179687 -0.10547,0.105469 -0.23438,0.355469 -0.39453,0.75 l -2.22266,5.609375 h -0.14844 l -2.46093,-5.488281 c -0.19141,-0.441406 -0.35547,-0.722656 -0.48438,-0.847656 -0.1289,-0.121094 -0.32031,-0.191406 -0.57422,-0.203125 v -0.191407 h 2.66016 v 0.191407 c -0.1875,0.01172 -0.28516,0.01953 -0.29297,0.01953 -0.30469,0.01953 -0.45703,0.125 -0.45703,0.308594 0,0.136718 0.13672,0.503906 0.41016,1.113281 l 1.50781,3.378906 1.47265,-3.671875 c 0.125,-0.320312 0.1875,-0.5625 0.1875,-0.730468 0,-0.136719 -0.0508,-0.238282 -0.16015,-0.304688 -0.10547,-0.0625 -0.29688,-0.101562 -0.57031,-0.113281 v -0.191407 z m 1.21093,5.53125 v -4.441406 c 0,-0.367187 -0.0547,-0.601562 -0.16406,-0.703125 -0.11328,-0.105469 -0.3789,-0.167969 -0.80469,-0.195312 v -0.191407 h 2.96875 v 0.191407 c -0.42187,0.01953 -0.6875,0.08203 -0.80468,0.191406 -0.11719,0.105469 -0.17578,0.339844 -0.17578,0.707031 v 4.441406 c 0,0.367188 0.0586,0.605469 0.17968,0.714844 0.1211,0.109375 0.38672,0.171875 0.80078,0.183594 v 0.191406 h -2.96875 V 52.78125 c 0.41797,-0.01172 0.6836,-0.07031 0.79688,-0.179688 0.11328,-0.105468 0.17187,-0.34375 0.17187,-0.71875 z m 3.26563,0 v -4.441406 c 0,-0.367187 -0.0547,-0.601562 -0.16406,-0.703125 -0.11328,-0.105469 -0.37891,-0.167969 -0.80469,-0.195312 v -0.191407 h 2.96875 v 0.191407 c -0.42188,0.01953 -0.6875,0.08203 -0.80469,0.191406 -0.11719,0.105469 -0.17578,0.339844 -0.17578,0.707031 v 4.441406 c 0,0.367188 0.0586,0.605469 0.17969,0.714844 0.12109,0.109375 0.38672,0.171875 0.80078,0.183594 v 0.191406 H 168.625 V 52.78125 c 0.41797,-0.01172 0.68359,-0.07031 0.79687,-0.179688 0.11329,-0.105468 0.17188,-0.34375 0.17188,-0.71875 z m 0,0"
       style="fill:#000000;fill-opacity:1;fill-rule:nonzero;stroke:none" />
  </g>
</svg>
